<svg width="566" height="383" viewBox="0 0 566 383" fill="none" xmlns="http://www.w3.org/2000/svg">
<path d="M0.552964 254.155C2.88734 255.058 5.18302 256.038 7.55609 256.837C14.0691 259.068 20.7885 260.293 27.624 261.028C35.891 261.917 44.1581 261.943 52.4251 261.324C72.7381 259.79 92.4448 255.599 111.133 247.257C119.658 243.454 127.757 238.889 135.096 233.049C136.269 232.107 136.708 231.127 136.708 229.632C136.669 179.23 136.669 128.829 136.669 78.4407C136.669 77.796 136.669 77.1513 136.669 76.3519C125.552 71.1816 114.447 66.0112 103.137 60.7506C103.046 61.3566 102.943 61.7692 102.93 62.1689C102.904 62.7491 102.917 63.3294 102.917 63.9096C102.917 119.868 102.904 175.839 102.956 231.798C102.956 233.629 102.492 234.867 100.892 235.743C98.068 237.303 95.3596 239.083 92.4577 240.488C88.1888 242.551 83.6361 242.757 78.9931 242.022C75.1369 241.404 71.487 240.192 67.9016 238.49C67.9016 159.129 67.9016 79.8332 67.9016 0.240699C68.611 0.537253 69.23 0.756439 69.8233 1.0401C86.4348 8.85365 103.033 16.6672 119.632 24.4808C135.766 32.0751 151.9 39.6824 168.061 47.2123C169.557 47.9085 170.124 48.6693 170.124 50.3583C170.072 117.508 170.085 184.672 170.098 251.822C170.098 253.085 170.034 254.078 168.731 254.89C151.256 265.863 132.942 275.095 113.209 281.309C105.239 283.824 97.1136 285.616 88.7821 286.441C80.8116 287.228 72.8928 286.686 65.0385 285.178C49.1106 282.122 34.4594 275.765 20.479 267.732C14.0304 264.019 7.81403 259.945 1.85557 255.458C1.36548 255.097 0.914082 254.684 0.43689 254.297C0.475581 254.259 0.514272 254.207 0.552964 254.155ZM152.042 46.5289C151.978 46.645 151.926 46.761 151.862 46.877C152.378 47.238 152.894 47.612 153.422 47.9472C156.285 49.8168 159.136 51.7251 162.025 53.5431C162.94 54.1233 163.327 54.755 163.392 55.8639C163.611 59.9254 163.972 63.974 164.295 68.0355C164.424 69.5956 164.578 71.1558 164.72 72.7159C164.81 72.7159 164.888 72.703 164.978 72.703C164.978 66.0112 164.978 59.3194 164.978 52.6147C160.619 50.5517 156.337 48.5403 152.042 46.5289ZM165.004 229.58C164.914 229.619 164.81 229.645 164.72 229.683C164.282 235.344 163.817 241.004 163.443 246.677C163.379 247.76 163.005 248.444 162.154 249.075C158.942 251.461 155.77 253.91 152.584 256.334C152.236 256.605 151.913 256.902 151.372 257.366C151.823 257.301 151.952 257.314 152.055 257.263C156.079 254.942 160.09 252.582 164.14 250.3C165.017 249.81 165.017 249.14 165.017 248.353C165.004 244.808 165.017 241.249 165.017 237.703C165.004 234.983 165.004 232.288 165.004 229.58Z" fill="white"/>
<path d="M533.977 32.4756C533.977 62.131 533.977 91.4125 533.977 120.72C535.68 120.513 560.223 109.618 567.652 105.815C567.652 76.198 567.652 46.5168 567.652 16.6422C579.336 11.1495 590.995 5.65683 602.912 0.0480957C602.912 86.7192 602.912 173.068 602.912 259.584C605.272 259.907 607.478 260.281 609.709 260.513C617.176 261.286 624.657 261.905 632.176 261.699C643.28 261.402 654.217 260.074 664.728 256.271C666.585 255.6 668.391 254.801 670.338 254.285C669.423 254.981 668.52 255.678 667.591 256.361C653.069 266.921 637.541 275.56 620.465 281.297C610.908 284.508 601.12 286.493 591.034 286.777C584.947 286.945 578.898 286.261 572.901 285.14C557.669 282.29 543.353 276.772 529.424 270.119C520.255 265.735 511.381 260.822 502.805 255.381C500.509 253.924 500.522 253.924 500.522 251.294C500.522 238.284 500.522 225.287 500.522 212.278C500.522 211.504 500.522 210.73 500.522 209.763C511.536 205.07 522.563 200.377 533.848 195.58C533.887 196.483 533.951 197.153 533.951 197.824C533.951 208.435 533.99 219.047 533.913 229.658C533.9 231.128 534.39 232.044 535.486 232.933C542.128 238.271 549.454 242.5 557.14 246.123C560.004 247.477 562.944 248.638 565.859 249.875C566.375 250.095 566.929 250.249 567.6 250.469C567.6 214.702 567.6 179.089 567.6 143.155C545.288 153.16 523.105 163.101 500.883 173.055C500.367 171.211 500.148 56.8962 500.599 48.1672C511.523 43.0484 522.55 37.8652 533.977 32.4756ZM586.907 15.1336C586.817 15.0305 586.726 14.9274 586.636 14.8242C582.148 16.8872 577.647 18.9631 573.21 21.0003C573.21 28.1047 573.21 35.0028 573.21 41.9009C573.52 40.2505 573.726 38.6001 573.868 36.9368C574.19 33.0687 574.552 29.2135 574.732 25.3454C574.822 23.4114 575.583 22.2251 577.26 21.2452C580.549 19.3112 583.708 17.1708 586.907 15.1336ZM504.198 213.786C504.236 220.594 504.133 227.35 504.43 234.107C505.036 228.781 505.578 223.443 505.849 218.106C505.939 216.159 506.648 215.101 508.299 214.212C511.085 212.729 513.755 211.014 516.463 209.389C516.979 209.08 517.482 208.732 517.985 208.409C517.933 208.319 517.895 208.229 517.843 208.139C513.355 209.995 508.854 211.852 504.198 213.786ZM504.314 72.678C504.417 72.6651 504.52 72.6651 504.61 72.6523C505.049 67.0564 505.526 61.4734 505.9 55.8776C505.978 54.7816 506.326 54.1241 507.254 53.5568C510.259 51.6743 513.226 49.7144 516.192 47.7675C516.605 47.4967 516.966 47.1615 517.34 46.8649C517.275 46.7747 517.211 46.6715 517.146 46.5813C512.852 48.6056 508.557 50.6299 504.301 52.6284C504.314 59.4105 504.314 66.0507 504.314 72.678Z" fill="white"/>
<path d="M278.602 302.778C244.592 315.092 210.711 327.354 176.508 339.731C176.702 327.805 176.882 316.136 177.076 304.235C199.723 296.344 222.396 288.44 245.134 280.511C245.134 228.137 245.134 175.827 245.134 123.273C234.068 118.386 222.938 113.461 211.498 108.406C211.498 109.541 211.498 110.366 211.498 111.191C211.498 165.603 211.485 220.014 211.55 274.425C211.55 276.462 210.931 277.777 209.357 278.976C206.791 280.949 204.172 282.832 201.258 284.276C197.118 286.339 192.797 286.996 188.257 286.068C184.04 285.217 180.094 283.644 176.353 281.336C176.353 204 176.353 126.651 176.353 48.9924C210.531 65.0708 244.54 81.0718 278.589 97.0857C278.602 165.68 278.602 234.171 278.602 302.778ZM272.914 278.448C272.824 278.448 272.746 278.435 272.656 278.435C272.63 278.744 272.604 279.054 272.579 279.363C272.192 284.057 271.586 288.75 271.508 293.456C271.47 296.241 270.425 297.75 268.052 298.962C265.021 300.496 262.171 302.404 259.243 304.145C259.295 304.261 259.346 304.364 259.398 304.48C263.938 302.598 268.477 300.715 272.914 298.884C272.914 291.909 272.914 285.178 272.914 278.448ZM260.339 94.3393C260.288 94.4554 260.223 94.5714 260.172 94.6746C260.7 95.0356 261.216 95.3966 261.745 95.7447C264.557 97.5756 267.355 99.4194 270.18 101.225C270.876 101.676 271.276 102.153 271.328 103.055C271.573 106.988 271.895 110.908 272.192 114.827C272.334 116.658 272.514 118.502 272.669 120.333C272.927 120.062 272.978 119.804 272.978 119.559C273.004 113.499 272.991 107.426 273.043 101.366C273.056 100.425 272.63 99.9997 271.844 99.6386C268.271 97.9883 264.724 96.2992 261.165 94.6359C260.92 94.5199 260.623 94.4425 260.339 94.3393Z" fill="white"/>
<path d="M381.521 168.091C385.493 176.008 387.286 183.886 384.397 192.292C383.558 194.729 382.488 197.089 381.572 199.5C381.108 200.712 380.334 201.06 379.044 201.06C368.623 201.021 358.203 201.073 347.795 201.099C339.321 201.112 330.835 201.137 322.362 201.163C321.794 201.163 321.214 201.163 320.517 201.163C320.517 221.135 320.517 240.953 320.517 260.99C321.304 261.028 322.052 261.093 322.8 261.093C340.791 261.093 358.783 261.132 376.761 261.054C378.593 261.041 379.728 261.557 380.721 263.104C383.674 267.72 386.151 272.491 386.873 278.022C387.273 281.117 386.757 284.082 385.906 287.009C384.642 291.406 382.462 295.351 379.986 299.168C379.38 300.083 378.619 300.161 377.677 300.161C362.923 300.251 348.169 300.354 333.414 300.457C318.144 300.56 302.874 300.676 287.604 300.78C286.907 300.78 286.211 300.78 285.386 300.78C285.386 232.83 285.386 165.074 285.386 97.2146C317.254 97.2146 349.059 97.2146 380.966 97.2146C382.307 100.451 383.146 103.829 383.958 107.207C385.635 114.092 384.035 120.539 381.482 126.87C380.979 128.121 380.618 129.758 379.663 130.403C378.709 131.048 377.058 130.738 375.717 130.738C358.112 130.751 340.521 130.751 322.916 130.751C322.155 130.751 321.394 130.751 320.504 130.751C320.504 143.271 320.504 155.597 320.504 168.078C340.856 168.091 361.143 168.091 381.521 168.091ZM288.648 121.493C288.7 121.506 288.765 121.506 288.816 121.519C289.474 115.266 290.119 109.012 290.776 102.669C294.826 101.805 298.747 100.967 302.681 100.129C302.668 100.025 302.642 99.9094 302.629 99.8063C297.999 99.9481 293.369 100.103 288.648 100.245C288.648 107.439 288.648 114.466 288.648 121.493ZM288.829 274.915C288.274 280.562 288.429 294.487 288.842 295.983C291.099 296.383 300.514 296.473 301.984 296.035C298.154 295.222 294.504 294.449 290.764 293.662C290.119 287.344 289.474 281.13 288.829 274.915Z" fill="white"/>
<path d="M425.59 169.832C447.128 160.136 468.486 150.53 489.959 140.86C490.166 141.234 490.346 141.479 490.449 141.762C492.887 148.377 494.37 155.159 493.854 162.263C493.48 167.266 492.165 172.049 490.475 176.756C490.14 177.697 489.431 177.98 488.67 178.329C481.834 181.41 475.012 184.505 468.176 187.573C454.505 193.724 440.834 199.874 427.176 206.024C426.647 206.256 426.132 206.514 425.5 206.824C425.5 207.584 425.5 208.358 425.5 209.132C425.5 232.16 425.487 255.188 425.538 278.229C425.538 279.84 425.061 280.769 423.707 281.658C413.776 288.221 403.91 294.874 394.031 301.502C393.515 301.85 392.96 302.159 392.406 302.507C392.006 300.973 391.851 100.361 392.238 97.0341C426.106 81.1104 460.051 65.1352 494.022 49.16C494.448 50.6557 494.577 109.709 494.19 112.558C482.673 117.574 471.091 122.628 459.29 127.785C459.29 121.261 459.29 115.072 459.29 108.871C457.729 108.922 432.799 119.688 425.616 123.35C425.59 138.732 425.59 154.153 425.59 169.832ZM475.231 114.144C475.283 114.234 475.334 114.325 475.373 114.415C479.977 112.3 484.581 110.186 489.147 108.097C489.147 101.212 489.147 94.4941 489.147 87.7894C488.941 88.0215 488.902 88.2664 488.876 88.5114C488.45 93.9268 487.999 99.3292 487.625 104.745C487.548 105.828 487.212 106.524 486.271 107.078C484.439 108.161 482.66 109.348 480.867 110.495C478.997 111.72 477.114 112.932 475.231 114.144ZM409.481 94.4812C408.849 94.4425 408.708 94.3909 408.604 94.4296C404.813 96.2089 401.034 98.014 397.216 99.7547C396.301 100.167 396.249 100.812 396.249 101.624C396.262 107.297 396.262 112.984 396.275 118.657C396.275 119.237 396.339 119.817 396.378 120.397C397.1 114.789 397.603 109.206 397.951 103.61C398.029 102.346 398.454 101.611 399.499 100.992C401.266 99.9352 402.968 98.7619 404.697 97.6272C406.18 96.6473 407.676 95.6674 409.481 94.4812Z" fill="white"/>
<path d="M418.226 312.229C417.478 307.884 417.542 303.668 419.025 299.542C419.902 297.092 421.592 295.235 423.591 293.624C428.26 289.872 433.664 287.589 439.351 285.965C440.189 285.72 441.273 286.016 442.15 286.313C453.022 290.065 463.869 293.869 474.715 297.659C480.931 299.825 487.148 302.004 493.583 304.248C493.777 315.981 493.983 327.74 494.19 339.77C468.769 330.551 443.53 321.397 418.226 312.229Z" fill="white"/>
<path d="M415.298 373.655C414.279 376.478 413.247 379.302 412.19 382.216C410.475 382.216 408.811 382.216 406.85 382.216C405.225 377.69 403.562 373.049 401.833 368.226C403.587 368.226 405.161 368.226 406.85 368.226C407.753 371.218 408.669 374.235 409.585 377.252C409.701 377.265 409.804 377.278 409.92 377.278C411.003 374.286 412.074 371.295 413.183 368.213C414.782 368.213 416.369 368.213 418.032 368.213C419.051 371.192 420.07 374.17 421.089 377.136C421.218 377.149 421.347 377.162 421.489 377.162C422.443 374.157 423.41 371.153 424.365 368.162C425.99 368.162 427.46 368.162 429.227 368.162C427.537 372.907 425.9 377.51 424.197 382.306C422.624 382.306 421.102 382.306 419.567 382.306C418.806 382.306 418.664 381.7 418.471 381.159C417.736 379.16 417 377.162 416.265 375.163C416.085 374.686 415.904 374.209 415.724 373.719C415.569 373.706 415.44 373.68 415.298 373.655Z" fill="white"/>
<path d="M584.792 382.229C583.025 382.229 581.632 382.229 579.994 382.229C579.71 377.548 579.943 372.894 579.852 368.201C583.592 368.201 587.075 368.149 590.557 368.239C591.485 368.265 592.479 368.6 593.33 369.013C595.896 370.276 596.128 373.255 593.833 375.008C593.278 375.434 592.659 375.756 591.821 376.259C593.755 378.18 595.612 380.011 597.599 381.984C596.232 382.603 594.942 382.139 593.742 382.345C592.298 382.59 591.473 381.739 590.621 380.824C589.783 379.934 588.841 379.121 588.068 378.18C587.229 377.175 586.275 376.775 584.792 377.175C584.792 378.735 584.792 380.372 584.792 382.229ZM584.805 374.506C586.288 374.415 587.629 374.428 588.945 374.196C589.822 374.041 590.376 373.345 590.351 372.365C590.338 371.514 589.77 370.882 588.7 370.792C587.436 370.689 586.172 370.766 584.805 370.766C584.805 371.991 584.805 373.061 584.805 374.506Z" fill="white"/>
<path d="M196.112 376.401C198.137 378.425 199.994 380.269 202.032 382.306C200.226 382.306 198.575 382.371 196.924 382.268C196.499 382.242 196.047 381.778 195.686 381.429C194.616 380.398 193.545 379.366 192.578 378.245C191.688 377.2 190.695 376.723 189.122 377.265C189.122 378.825 189.122 380.475 189.122 382.216C187.445 382.216 186 382.216 184.453 382.216C184.453 377.523 184.453 372.958 184.453 368.291C184.904 368.239 185.33 368.136 185.755 368.136C188.528 368.136 191.314 368.072 194.087 368.213C195.351 368.278 196.679 368.561 197.814 369.077C200.342 370.251 200.6 373.152 198.433 374.918C197.866 375.382 197.169 375.73 196.112 376.401ZM189.263 374.48C190.682 374.415 191.972 374.454 193.236 374.273C194.267 374.119 194.899 373.242 194.861 372.378C194.822 371.488 194.203 370.857 193.016 370.766C191.817 370.676 190.592 370.741 189.263 370.741C189.263 371.965 189.263 373.036 189.263 374.48Z" fill="white"/>
<path d="M89.4398 368.755C89.4398 369.851 89.4398 370.844 89.4398 372.03C88.8207 371.772 88.3564 371.604 87.905 371.385C85.9318 370.418 83.8425 370.173 81.6757 370.341C81.4178 370.367 81.1599 370.379 80.9019 370.444C80.2055 370.637 79.4316 370.895 79.3801 371.721C79.3156 372.649 80.1668 372.829 80.8374 372.984C82.4754 373.345 84.152 373.564 85.777 373.951C86.7056 374.17 87.66 374.493 88.4854 374.97C90.549 376.156 90.8585 378.747 89.1045 380.385C88.4209 381.03 87.531 381.571 86.6411 381.868C82.5012 383.234 78.387 382.796 74.2341 381.558C74.2341 380.424 74.2341 379.405 74.2341 378.193C74.7758 378.399 75.253 378.554 75.6915 378.76C77.8969 379.792 80.2055 380.333 82.643 380.114C83.649 380.024 84.8097 379.972 85.1837 378.735C85.403 378.013 84.5389 377.432 82.8881 377.11C81.3662 376.813 79.8315 376.594 78.3225 376.246C77.5745 376.078 76.8264 375.782 76.1816 375.382C73.7827 373.951 73.6666 371.089 75.9365 369.464C77.3939 368.42 79.0963 368.007 80.8374 367.814C83.4684 367.517 86.6153 367.865 89.4398 368.755Z" fill="white"/>
<path d="M308.11 373.268C308.11 374.286 308.11 375.047 308.11 376.066C305.492 376.066 302.874 376.066 300.166 376.066C300.166 377.265 300.166 378.206 300.166 379.444C302.938 379.444 305.737 379.444 308.626 379.444C308.626 380.527 308.626 381.339 308.626 382.242C304.189 382.242 299.869 382.242 295.574 382.242C295.149 380.862 295.033 370.882 295.419 368.239C299.766 368.239 304.125 368.239 308.613 368.239C308.613 369.052 308.613 369.838 308.613 370.818C305.789 370.818 303.042 370.818 300.166 370.818C300.166 371.669 300.166 372.339 300.166 373.281C302.81 373.268 305.415 373.268 308.11 373.268Z" fill="white"/>
<path d="M527.98 368.162C529.863 368.162 531.604 368.162 533.577 368.162C535.796 372.688 538.066 377.303 540.387 382.048C538.878 382.59 537.459 382.306 536.092 382.28C535.77 382.268 535.357 381.816 535.151 381.468C534.777 380.862 534.532 380.192 534.196 379.47C531.939 379.47 529.695 379.47 527.271 379.47C527.039 379.934 526.677 380.488 526.497 381.081C526.162 382.139 525.465 382.435 524.42 382.358C523.414 382.28 522.409 382.345 521.016 382.345C523.466 377.368 525.723 372.765 527.98 368.162ZM530.946 372.249C530.792 372.236 530.65 372.236 530.495 372.223C529.876 373.655 529.244 375.086 528.586 376.607C530.108 376.607 531.398 376.607 532.907 376.607C532.185 374.996 531.565 373.616 530.946 372.249Z" fill="white"/>
<path d="M254.574 368.213C254.574 369.09 254.574 369.799 254.574 370.766C251.763 370.895 248.938 370.753 245.985 370.844C245.985 371.591 245.985 372.262 245.985 373.087C248.526 373.616 251.182 372.997 253.852 373.448C253.852 374.312 253.852 375.112 253.852 376.143C251.182 376.143 248.616 376.143 245.959 376.143C245.959 377.291 245.959 378.232 245.959 379.444C248.796 379.444 251.595 379.444 254.51 379.444C254.51 380.514 254.51 381.313 254.51 382.229C250.073 382.229 245.714 382.229 241.213 382.229C241.213 377.536 241.213 372.932 241.213 368.213C245.65 368.213 250.009 368.213 254.574 368.213Z" fill="white"/>
<path d="M482.479 379.431C482.479 380.591 482.479 381.339 482.479 382.216C478.017 382.216 473.657 382.216 469.156 382.216C469.156 377.536 469.156 372.92 469.156 368.213C473.58 368.213 477.952 368.213 482.44 368.213C482.44 368.987 482.44 369.735 482.44 370.753C479.706 370.908 476.895 370.741 473.877 370.857C473.838 371.591 473.812 372.262 473.773 373.139C476.469 373.513 479.113 373.126 481.796 373.384C481.796 374.312 481.796 375.112 481.796 376.13C479.126 376.13 476.572 376.13 473.89 376.13C473.89 377.278 473.89 378.219 473.89 379.431C476.727 379.431 479.526 379.431 482.479 379.431Z" fill="white"/>
<path d="M358.267 382.203C356.423 382.203 354.965 382.203 353.366 382.203C353.366 378.412 353.366 374.75 353.366 370.87C351.393 370.87 349.562 370.87 347.614 370.87C347.614 369.902 347.614 369.155 347.614 368.11C353.031 368.097 358.473 368.11 364.019 368.11C364.019 369.039 364.019 369.786 364.019 370.753C362.188 370.753 360.356 370.753 358.267 370.753C358.267 374.647 358.267 378.348 358.267 382.203Z" fill="white"/>
<path d="M134.219 382.216C134.219 378.438 134.219 374.776 134.219 370.87C132.207 370.87 130.375 370.87 128.441 370.87C128.441 369.877 128.441 369.129 128.441 368.239C133.845 368.239 139.236 368.239 144.743 368.239C144.743 369.039 144.743 369.786 144.743 370.753C142.911 370.753 141.08 370.753 138.99 370.753C138.99 374.673 138.99 378.387 138.99 382.216C137.301 382.216 135.856 382.216 134.219 382.216Z" fill="white"/>
</svg>
