<svg width="149" height="150" viewBox="0 0 149 150" fill="none" xmlns="http://www.w3.org/2000/svg">
<path d="M149.001 80.0339C144.805 80.0339 140.616 80.0339 136.355 80.0339C136.355 79.2743 136.355 78.4554 136.355 77.5356C139.292 77.5356 142.23 77.5356 145.161 77.5356C145.173 77.4881 145.191 77.4406 145.203 77.3932C144.437 77.1202 143.672 76.8413 142.906 76.5743C140.924 75.8918 138.948 75.1797 136.942 74.5448C136.248 74.3252 136.201 73.9039 136.195 73.3164C136.189 72.7586 136.242 72.3788 136.889 72.1474C139.381 71.2573 141.844 70.29 144.313 69.3524C144.627 69.2337 144.936 69.0854 145.464 68.8599C142.248 69.0023 139.263 69.1328 136.195 69.2693C136.195 68.3199 136.195 67.5009 136.195 66.5456C140.455 66.4921 144.728 66.4328 149.001 66.3794C149.001 67.5306 149.001 68.6818 149.001 69.839C146.028 70.9724 143.061 72.0999 140.088 73.2333C140.099 73.2986 140.111 73.358 140.129 73.4232C143.084 74.4202 146.045 75.4171 149.001 76.414C149.001 77.6127 149.001 78.8233 149.001 80.0339Z" fill="white"/>
<path d="M0 69.8331C3.79786 69.8094 7.59571 69.7857 11.3876 69.756C11.809 69.756 12.2303 69.756 12.7762 69.756C12.7762 70.5927 12.8237 71.3404 12.7525 72.0703C12.7287 72.3195 12.4558 72.6044 12.2243 72.7587C9.94562 74.2125 7.6491 75.6367 5.35852 77.0728C5.13895 77.2093 4.93126 77.3576 4.54554 77.6187C7.38207 77.6187 10.0287 77.6187 12.7584 77.6187C12.7584 78.5148 12.7584 79.3574 12.7584 80.3781C8.50364 80.3781 4.25479 80.3781 0.00593994 80.3781C0.00593994 79.4583 0.00593994 78.5326 0.00593994 77.6128C2.67631 75.975 5.34666 74.3371 8.18318 72.5984C5.28138 72.5984 2.64664 72.5984 0.00593994 72.5984C5.7952e-06 71.6786 0 70.7529 0 69.8331Z" fill="white"/>
<path d="M84.3539 0C84.9295 0.2433 85.5289 0.445061 86.0748 0.741769C87.6177 1.57848 88.5138 3.4062 88.223 5.15678C87.4159 5.0559 86.603 4.95502 85.8137 4.85413C85.4458 2.95521 85.0245 2.433 83.7368 2.23124C82.2532 1.99387 81.1435 2.51608 80.7994 3.96401C80.4314 5.51283 80.2475 7.13285 80.2415 8.72913C80.2297 10.1355 81.0545 10.8595 82.3482 11.0494C83.7011 11.2452 84.4251 10.8239 85.066 9.50651C85.1491 9.33442 85.428 9.13266 85.6119 9.14452C86.324 9.18013 87.0302 9.29288 87.7779 9.38189C87.5999 10.6221 87.0658 11.5775 86.1401 12.2896C83.3036 14.4615 78.7995 13.1263 77.7967 9.70827C77.049 7.15658 77.4525 4.63457 78.7402 2.29058C79.4048 1.08595 80.5382 0.480666 81.7607 0C82.6271 0 83.4875 0 84.3539 0Z" fill="white"/>
<path d="M71.0436 149C70.6163 148.84 70.1891 148.692 69.7678 148.508C67.9875 147.731 67.2339 146.277 67.044 144.372C67.9103 144.372 68.7352 144.372 69.6016 144.372C69.6491 144.496 69.7143 144.615 69.744 144.746C70.1 146.289 70.6697 146.775 72.1414 146.805C73.5063 146.829 74.426 146.247 74.6397 144.811C74.8711 143.268 74.9364 141.666 74.8118 140.111C74.6872 138.61 73.8386 137.957 72.5093 137.904C70.9783 137.838 70.3671 138.289 69.8864 139.814C69.8627 139.897 69.8211 139.975 69.7915 140.04C68.9548 140.04 68.1359 140.04 67.3169 140.04C67.2042 138.307 68.4088 136.58 70.2009 136.04C74.0047 134.889 77.3694 136.669 77.6246 140.983C77.6839 142.016 77.6898 143.066 77.5534 144.087C77.221 146.55 75.9037 148.259 73.4647 149.006C72.6577 149 71.8506 149 71.0436 149Z" fill="white"/>
<path d="M44.3875 138.141C45.7048 135.572 47.0282 133.002 48.399 130.326C49.2416 130.783 49.9834 131.186 50.7963 131.626C48.7075 135.435 46.6543 139.18 44.5774 142.96C43.6398 142.449 42.7615 142.01 41.9426 141.488C41.7468 141.363 41.6103 140.93 41.6459 140.669C42.0553 137.91 42.5063 135.15 42.9455 132.397C42.9811 132.177 42.9989 131.952 43.0463 131.537C40.5184 133.791 38.121 135.928 35.7058 138.082C34.6851 137.524 33.706 136.99 32.626 136.403C34.7029 132.617 36.7561 128.878 38.845 125.074C39.6639 125.519 40.3819 125.917 41.2424 126.386C39.7232 128.985 38.2337 131.531 36.7443 134.076C36.7739 134.112 36.7977 134.148 36.8274 134.177C37.314 133.768 37.8065 133.364 38.2812 132.949C40.0377 131.412 41.8002 129.887 43.527 128.32C43.9365 127.952 44.2391 127.934 44.6486 128.237C45.0699 128.552 45.7226 128.575 45.5624 129.448C45.0996 131.993 44.7317 134.557 44.3281 137.115C44.2747 137.435 44.251 137.761 44.2094 138.088C44.2747 138.112 44.3341 138.129 44.3875 138.141Z" fill="white"/>
<path d="M41.2007 7.07935C43.4853 10.7823 45.7166 14.4021 47.9834 18.0753C47.212 18.556 46.5118 18.9951 45.675 19.5114C44.144 16.8826 42.6546 14.3131 41.1592 11.7436C41.1117 11.7614 41.0642 11.7792 41.0167 11.797C41.444 13.868 41.8713 15.9331 42.3044 18.0041C42.4884 18.8764 42.6368 19.7606 42.8623 20.6211C43.064 21.4163 42.3638 21.4756 41.984 21.796C41.6398 22.0868 41.3312 22.1046 40.9337 21.7782C38.8092 20.0573 36.6611 18.3661 34.5129 16.6689C34.2993 16.5028 34.0679 16.3544 33.783 16.2773C35.409 18.7637 37.0409 21.2501 38.7143 23.8018C37.8894 24.3121 37.1951 24.7453 36.4118 25.2319C34.145 21.5587 31.9138 17.9448 29.6232 14.2359C30.5608 13.6485 31.4449 13.0669 32.3647 12.5566C32.5131 12.4735 32.887 12.6574 33.0828 12.8117C35.136 14.4436 37.1714 16.0874 39.2127 17.7311C39.5213 17.9804 39.8418 18.2177 40.3225 18.5857C39.8477 16.39 39.4204 14.4021 38.9932 12.4141C38.7736 11.3994 38.5303 10.3906 38.3523 9.37586C38.3167 9.16223 38.4472 8.81212 38.6193 8.69344C39.4204 8.14156 40.2631 7.65496 41.2007 7.07935Z" fill="white"/>
<path d="M107.877 126.178C108.672 125.709 109.36 125.306 110.173 124.825C112.357 128.546 114.511 132.231 116.719 135.999C116.013 136.408 115.372 136.836 114.677 137.156C114.458 137.257 114.066 137.156 113.823 137.026C111.586 135.845 109.36 134.634 107.129 133.429C106.732 133.216 106.334 133.008 105.806 132.925C107.159 135.245 108.506 137.566 109.906 139.969C109.141 140.426 108.411 140.859 107.616 141.328C105.426 137.589 103.278 133.922 101.076 130.16C101.777 129.744 102.447 129.305 103.153 128.961C103.343 128.866 103.699 128.991 103.931 129.109C106.245 130.338 108.547 131.584 110.85 132.824C111.17 132.996 111.503 133.156 111.96 133.216C110.619 130.896 109.271 128.581 107.877 126.178Z" fill="white"/>
<path d="M116.505 12.248C114.309 16.028 112.179 19.7013 110.001 23.4576C109.271 23.0363 108.577 22.6921 107.954 22.247C107.764 22.1105 107.693 21.7011 107.687 21.4162C107.669 18.4551 107.675 15.488 107.675 12.5269C107.556 12.4972 107.438 12.4675 107.319 12.4379C105.96 14.7641 104.601 17.0843 103.183 19.5173C102.423 19.0722 101.693 18.645 100.88 18.1643C103.058 14.408 105.201 10.711 107.378 6.95471C108.073 7.35823 108.737 7.69055 109.337 8.12374C109.556 8.28396 109.705 8.68155 109.716 8.97826C109.8 11.6249 109.841 14.2715 109.894 16.9241C109.9 17.2267 109.93 17.5234 110.132 17.8854C111.467 15.5948 112.808 13.2983 114.197 10.9128C114.956 11.3579 115.668 11.7673 116.505 12.248Z" fill="white"/>
<path d="M101.658 8.88327C101.557 10.3905 100.999 12.1945 99.9014 13.7908C98.5306 15.7847 96.335 16.5443 94.0622 15.8974C91.6826 15.2209 90.1931 13.4526 90.1278 10.9246C90.0685 8.6103 90.7628 6.46807 92.2819 4.69376C93.8367 2.88384 96.0738 2.39724 98.2398 3.26363C100.501 4.16562 101.688 5.97554 101.658 8.88327ZM92.721 10.7585C92.6736 12.3547 93.2907 13.3279 94.4538 13.7255C95.6703 14.135 96.6969 13.7849 97.504 12.598C98.4475 11.2154 98.9341 9.64877 99.0291 7.98721C99.1062 6.63423 98.4416 5.68476 97.3022 5.30498C96.0916 4.90146 94.982 5.27531 94.2343 6.4206C93.3501 7.79139 92.8753 9.3224 92.721 10.7585Z" fill="white"/>
<path d="M119.276 118.475C119.81 118.57 120.362 118.624 120.879 118.772C123.531 119.555 126.279 122.914 126.457 125.667C126.676 128.991 122.932 132.545 118.956 130.729C116.576 129.643 114.897 127.762 114.137 125.246C113.14 121.947 115.793 118.552 119.276 118.475ZM124.196 126.207C123.81 125.43 123.519 124.581 123.009 123.893C122.054 122.605 121.027 121.324 119.318 120.974C117.656 120.629 115.947 122.237 116.404 123.846C117.045 126.112 118.552 127.786 120.724 128.682C122.309 129.335 123.988 128.017 124.196 126.207Z" fill="white"/>
<path d="M8.92492 83.3093C11.8267 83.3093 13.8681 84.9234 14.4377 87.6709C14.9718 90.2404 13.6841 92.6319 11.1206 93.7297C9.459 94.4418 7.7203 94.8097 5.89852 94.5605C3.602 94.246 1.90481 92.6556 1.42415 90.365C0.949416 88.0982 1.82176 85.9856 3.74442 84.7513C5.0262 83.9324 7.26336 83.3093 8.92492 83.3093ZM6.46817 92.1809C8.05853 91.991 10.1948 91.3976 11.1562 90.7033C12.0819 90.0327 12.5091 89.1604 12.2599 88.0092C12.0285 86.9351 11.2986 86.2052 10.1118 86.0628C8.16535 85.8373 6.30797 86.223 4.66421 87.2852C3.26375 88.1872 3.05607 90.0861 4.27257 91.1543C4.86005 91.6646 5.72641 91.8486 6.46817 92.1809Z" fill="white"/>
<path d="M14.5743 58.4811C12.5507 56.7424 10.6577 55.1164 8.76472 53.4905C7.39394 52.3096 6.04098 51.099 4.64052 49.9478C4.20139 49.5858 4.14798 49.2831 4.33787 48.7787C4.94909 47.1706 4.93126 47.1587 6.65217 47.1409C10.45 47.1112 14.2419 47.0934 18.0398 47.0697C18.2356 47.0697 18.4255 47.1053 18.7697 47.135C18.4612 47.9717 18.1882 48.7431 17.8855 49.5027C17.8381 49.6214 17.6303 49.6926 17.482 49.746C17.3811 49.7816 17.2565 49.7519 17.1378 49.7519C15.0075 49.7341 15.0015 49.7341 14.2479 51.7221C13.9749 52.446 13.4171 53.2531 13.5595 53.894C13.696 54.5052 14.6039 54.9265 15.1202 55.4784C15.2923 55.6623 15.4407 56.0303 15.3813 56.2558C15.1855 56.9619 14.8888 57.6444 14.5743 58.4811ZM12.7228 49.5798C11.0257 49.5798 9.48872 49.5798 7.79155 49.5798C9.10893 50.6302 10.3195 51.5856 11.6072 52.6063C11.9989 51.55 12.3312 50.648 12.7228 49.5798Z" fill="white"/>
<path d="M78.574 136.141C79.3514 136.023 80.1347 135.862 80.924 135.803C81.1198 135.791 81.3928 136.058 81.5293 136.266C81.9209 136.859 82.1286 137.767 82.6627 138.022C83.2027 138.277 84.0453 137.904 84.7515 137.803C84.8108 137.797 84.8642 137.791 84.9236 137.779C87.1133 137.459 87.1251 137.465 87.5049 135.334C87.588 134.877 87.7304 134.61 88.2348 134.557C88.9173 134.492 89.5878 134.361 90.4008 134.236C90.3177 134.764 90.2584 135.204 90.1753 135.637C89.4335 139.387 88.6621 143.138 87.9559 146.894C87.8254 147.588 87.5168 147.897 86.8462 147.938C86.5021 147.962 86.1579 148.099 85.8256 148.069C85.5645 148.045 85.1966 147.92 85.0779 147.719C82.9 143.962 80.7519 140.188 78.5978 136.414C78.5741 136.373 78.5859 136.307 78.574 136.141ZM83.6418 140.218C84.4133 141.684 85.1372 143.054 85.8552 144.419C85.9265 144.402 85.9917 144.378 86.0629 144.36C86.3003 142.835 86.5377 141.304 86.7869 139.708C85.6713 139.886 84.7159 140.04 83.6418 140.218Z" fill="white"/>
<path d="M126.386 40.1268C125.78 39.385 125.217 38.6966 124.623 37.9667C125.015 37.3496 125.377 36.7324 125.792 36.1568C126.095 35.7355 126.077 35.415 125.739 35.0175C124.991 34.1451 124.303 33.2135 123.531 32.359C123.365 32.175 122.973 32.1928 122.683 32.1216C122.659 32.1157 122.629 32.1394 122.605 32.1513C120.339 32.9939 120.339 32.9939 118.879 30.7508C119.146 30.6381 119.383 30.5134 119.638 30.4304C123.43 29.1545 127.228 27.9024 131.008 26.5969C131.655 26.3773 132.029 26.4189 132.456 26.9945C133.406 28.2644 133.441 28.2407 132.64 29.5996C130.67 32.9464 128.694 36.2933 126.718 39.6402C126.623 39.7766 126.528 39.9072 126.386 40.1268ZM129.922 29.6233C129.881 29.564 129.845 29.5106 129.804 29.4512C128.35 29.9972 126.902 30.5431 125.347 31.1247C126.053 31.991 126.676 32.7565 127.377 33.617C128.273 32.2106 129.097 30.917 129.922 29.6233Z" fill="white"/>
<path d="M135.767 82.4017C140.028 83.2444 144.218 84.0752 148.466 84.9178C147.903 87.7721 147.351 90.5493 146.787 93.4036C146.063 93.2672 145.428 93.1485 144.68 93.012C145.066 91.0418 145.434 89.1429 145.826 87.1372C144.793 86.9354 143.85 86.7455 142.829 86.5438C142.491 88.2053 142.164 89.8016 141.814 91.5284C141.156 91.4098 140.527 91.303 139.791 91.1724C140.117 89.4693 140.432 87.8493 140.764 86.1284C139.607 85.8969 138.527 85.6833 137.375 85.4578C136.978 87.4458 136.598 89.3269 136.195 91.3504C135.494 91.208 134.842 91.0715 134.094 90.9172C134.652 88.0688 135.198 85.2917 135.767 82.4017Z" fill="white"/>
<path d="M54.0482 2.26099C54.3034 2.95528 54.5289 3.5665 54.79 4.2786C52.9029 4.94916 51.0693 5.60191 49.1526 6.29027C49.4849 7.23974 49.7994 8.1536 50.1554 9.17427C51.7636 8.62239 53.3184 8.08239 54.9621 7.51864C55.2054 8.18327 55.4309 8.78855 55.6742 9.44724C54.072 10.0169 52.5291 10.5629 50.8735 11.1503C51.2473 12.2363 51.6034 13.2807 52.001 14.4379C53.888 13.7792 55.7217 13.1442 57.6562 12.4737C57.8936 13.1264 58.1191 13.7554 58.3861 14.4913C55.6564 15.4526 52.9801 16.3961 50.2029 17.3812C48.7669 13.3104 47.3545 9.31076 45.8888 5.16279C48.6185 4.18365 51.3067 3.23419 54.0482 2.26099Z" fill="white"/>
<path d="M29.1188 119.437C29.6172 118.861 30.0504 118.369 30.5311 117.817C32.7208 119.716 34.863 121.573 37.0705 123.49C34.2399 126.754 31.4568 129.958 28.5966 133.257C26.4187 131.37 24.2824 129.513 22.0749 127.602C22.5378 127.056 22.9532 126.558 23.4576 125.964C24.9648 127.258 26.4365 128.522 27.9972 129.863C28.6559 129.109 29.2908 128.391 30.0207 127.561C28.7449 126.445 27.4987 125.359 26.1754 124.196C26.6205 123.68 27.0359 123.193 27.5047 122.647C28.8102 123.769 30.0623 124.849 31.3737 125.976C32.1392 125.098 32.8513 124.279 33.6228 123.389C32.1274 122.06 30.6616 120.784 29.1188 119.437Z" fill="white"/>
<path d="M127.756 120.41C128.284 119.692 128.771 119.027 129.287 118.321C129.436 118.375 129.56 118.416 129.685 118.47C130.955 119.033 131.792 118.861 132.599 117.858C133.477 116.772 133.578 115.77 132.753 114.713C131.578 113.212 130.065 112.108 128.296 111.414C127.151 110.963 126.231 111.355 125.478 112.446C124.742 113.515 124.766 114.375 125.573 115.354C125.662 115.461 125.757 115.574 125.887 115.734C125.389 116.41 124.902 117.069 124.415 117.728C123.146 117.075 122.392 115.277 122.659 113.621C123.276 109.758 126.931 107.788 130.456 109.467C132.136 110.269 133.607 111.384 134.681 112.939C136.064 114.939 135.91 117.241 134.284 119.247C132.753 121.14 130.712 121.71 128.593 120.837C128.326 120.725 128.083 120.576 127.756 120.41Z" fill="white"/>
<path d="M7.98739 97.5815C8.42651 98.5607 8.7529 99.2906 9.15049 100.181C9.05555 100.228 8.91311 100.276 8.80036 100.359C7.60166 101.249 7.37024 102.086 7.95178 103.415C8.45025 104.566 9.51249 105.225 10.7646 104.821C12.2837 104.335 13.7732 103.688 15.1677 102.916C16.3842 102.24 16.6335 101.148 16.1647 99.9493C15.6365 98.5963 14.9363 98.1987 13.4231 98.3174C13.2154 98.3352 12.8771 98.1631 12.7822 97.9791C12.4617 97.3738 12.2244 96.727 11.9573 96.1039C13.5833 95.3325 15.5712 95.6648 16.8233 97.0178C19.3454 99.7594 19.5234 103.551 15.6484 105.818C14.0996 106.72 12.4736 107.462 10.6162 107.432C8.50962 107.397 6.99641 106.417 6.08255 104.536C5.21023 102.744 5.02031 100.934 6.27835 99.2312C6.70561 98.6556 7.32276 98.2106 7.98739 97.5815Z" fill="white"/>
<path d="M139.061 46.1381C138.835 45.7227 138.675 45.3844 138.473 45.0699C138.01 44.3578 137.767 43.8237 138.616 43.0523C139.785 41.996 138.752 39.474 137.114 39.2307C136.568 39.1476 135.922 39.1654 135.429 39.385C134.177 39.9428 132.919 40.5421 131.785 41.3076C130.433 42.2156 130.16 43.3015 130.729 44.4824C131.447 45.96 132.242 46.2923 134.064 45.8295C134.45 46.5534 134.848 47.3011 135.245 48.0429C133.542 49.028 131.394 48.6482 129.976 47.1765C127.305 44.4053 127.691 40.7439 130.895 38.6076C132.29 37.6819 133.756 36.8986 135.465 36.679C137.85 36.3704 139.945 37.6225 140.93 39.9843C141.891 42.2809 141.381 44.3637 139.488 45.8532C139.387 45.9482 139.263 46.0134 139.061 46.1381Z" fill="white"/>
<path d="M17.3099 33.1006C16.853 33.8424 16.4197 34.5485 15.9984 35.231C14.0342 34.7384 13.2391 35.0114 12.5388 36.3703C12.0048 37.4207 12.0463 38.5363 13.0195 39.2721C14.3784 40.2987 15.856 41.2185 17.393 41.9484C18.5917 42.5181 19.5827 41.984 20.2888 40.8031C20.995 39.6163 20.8882 38.8033 19.8912 37.7886C19.8141 37.7114 19.7429 37.6224 19.6301 37.4978C20.0692 36.7798 20.4965 36.0736 20.9238 35.3734C22.7337 36.3525 23.4933 38.6194 22.7456 40.7082C21.5231 44.1322 18.6332 45.4555 15.2982 44.0194C13.4111 43.2065 11.6606 42.1442 10.5746 40.2809C9.41155 38.2871 9.8388 35.7947 11.6784 33.8839C13.1738 32.3351 15.3219 32.0028 17.3099 33.1006Z" fill="white"/>
<path d="M64.3025 146.294C64.1541 147.018 64.0295 147.63 63.8693 148.389C60.4097 147.647 57.0094 146.917 53.5201 146.17C53.6863 145.434 53.8346 144.799 53.9948 144.087C55.2885 144.348 56.5169 144.597 57.858 144.864C58.6235 141.345 59.3771 137.88 60.1545 134.307C61.0505 134.503 61.8754 134.681 62.7596 134.877C62.0059 138.414 61.2642 141.862 60.5046 145.428C61.7686 145.713 62.9791 145.992 64.3025 146.294Z" fill="white"/>
<path d="M14.058 61.6855C13.8919 62.6231 13.7494 63.4301 13.5892 64.3083C10.0525 63.6615 6.58693 63.0325 3.01457 62.3798C2.7594 63.6734 2.52206 64.8958 2.2669 66.1954C1.54886 66.0649 0.90796 65.9462 0.13652 65.7978C0.771474 62.3501 1.39457 58.9498 2.0414 55.4249C2.76536 55.5673 3.42404 55.6979 4.17767 55.8463C3.94031 57.1577 3.72076 58.3861 3.48339 59.7213C7.00234 60.374 10.4679 61.0208 14.058 61.6855Z" fill="white"/>
<path d="M144.01 53.8584C140.533 54.9443 137.168 55.9947 133.72 57.0747C133.447 56.2083 133.198 55.425 132.919 54.529C136.343 53.4489 139.731 52.3808 143.197 51.2948C142.823 50.0309 142.461 48.8322 142.087 47.5682C142.758 47.3486 143.375 47.1469 144.117 46.9036C145.179 50.2742 146.217 53.5795 147.292 56.9976C146.573 57.2171 145.933 57.4129 145.221 57.6266C144.817 56.3507 144.431 55.158 144.01 53.8584Z" fill="white"/>
<path d="M99.5809 142.361C100.845 141.933 102.008 141.542 103.266 141.121C103.503 141.797 103.717 142.402 103.972 143.126C100.649 144.283 97.3793 145.417 94.0384 146.574C93.7892 145.892 93.5637 145.28 93.2966 144.562C94.2758 144.218 95.2015 143.85 96.1569 143.577C96.869 143.375 97.0411 143.126 96.7681 142.373C95.6584 139.322 94.6259 136.243 93.5162 133.05C94.3529 132.759 95.1481 132.486 96.0382 132.178C97.2191 135.578 98.3763 138.907 99.5809 142.361Z" fill="white"/>
<path d="M121.235 18.8586C120.244 17.9804 119.312 17.1496 118.321 16.2713C118.79 15.7313 119.217 15.2388 119.733 14.6454C122.374 16.9538 124.979 19.2384 127.655 21.5824C127.181 22.1343 126.736 22.6506 126.243 23.2143C125.252 22.3598 124.297 21.5349 123.246 20.627C120.89 23.3033 118.546 25.9677 116.143 28.6915C115.473 28.11 114.855 27.57 114.143 26.9469C116.523 24.2468 118.855 21.5765 121.235 18.8586Z" fill="white"/>
<path d="M29.4454 32.2106C28.8282 32.899 28.2942 33.4924 27.677 34.1808C25.0007 31.7893 22.3541 29.4216 19.6659 27.0242C18.7639 28.0092 17.9153 28.935 17.037 29.8963C16.497 29.4156 16.0104 28.9765 15.4586 28.484C17.7966 25.8789 20.0872 23.3153 22.4668 20.6687C23.0009 21.1316 23.5053 21.5707 24.069 22.0632C23.1967 23.0483 22.3659 23.9918 21.452 25.0244C24.1105 27.404 26.7453 29.7717 29.4454 32.2106Z" fill="white"/>
<path d="M136.236 98.2754C136.919 98.584 137.488 98.8391 138.141 99.1299C137.471 100.673 136.824 102.162 136.153 103.699C135.512 103.42 134.943 103.171 134.248 102.868C134.901 101.361 135.542 99.8776 136.236 98.2754Z" fill="white"/>
<path d="M18.4137 113.3C18.9655 112.879 19.464 112.499 20.0634 112.036C21.0662 113.366 22.0394 114.653 23.072 116.024C22.5201 116.44 22.0098 116.831 21.4045 117.288C20.3897 115.941 19.4225 114.648 18.4137 113.3Z" fill="white"/>
<path d="M63.7089 8.94882C63.6081 8.20112 63.525 7.5899 63.4301 6.8956C65.1035 6.67604 66.7116 6.46834 68.3969 6.24878C68.4859 6.94307 68.5631 7.58396 68.658 8.31386C66.9787 8.53343 65.4002 8.73519 63.7089 8.94882Z" fill="white"/>
</svg>
