<svg width="33" height="33" viewBox="0 0 33 33" fill="none" xmlns="http://www.w3.org/2000/svg">
<path d="M16.3313 0C7.31206 0 0 7.20436 0 16.0915C0 24.9785 7.31206 32.1829 16.3313 32.1829C25.3505 32.1829 32.6625 24.9785 32.6625 16.0915C32.6625 7.20436 25.3505 0 16.3313 0ZM24.6154 17.8318C25.3765 18.5644 26.1818 19.2538 26.8651 20.062C27.1679 20.4196 27.4532 20.7893 27.6704 21.2052C27.9805 21.7981 27.7005 22.4484 27.1619 22.4836L23.8161 22.4829C22.952 22.5534 22.2643 22.21 21.6846 21.6279C21.2218 21.164 20.7924 20.6685 20.3467 20.1888C20.1646 19.9919 19.9728 19.8066 19.7442 19.6607C19.2881 19.3683 18.8918 19.4579 18.6305 19.9274C18.3642 20.4051 18.3034 20.9345 18.278 21.4662C18.2416 22.2436 18.0037 22.4467 17.2121 22.4833C15.5206 22.5613 13.9157 22.3084 12.4241 21.4682C11.1083 20.7271 10.0898 19.6811 9.20232 18.4969C7.47412 16.1882 6.15058 13.6544 4.96136 11.0479C4.69372 10.4608 4.88952 10.1468 5.54678 10.1346C6.63877 10.1138 7.73075 10.1165 8.82273 10.1336C9.26714 10.1405 9.56118 10.391 9.73193 10.8042C10.322 12.2348 11.0455 13.5958 11.952 14.8581C12.1936 15.1943 12.4402 15.5294 12.7914 15.7668C13.179 16.0289 13.4743 15.9423 13.6571 15.5159C13.7741 15.245 13.8245 14.9553 13.8499 14.6649C13.9368 13.6702 13.9472 12.6759 13.7968 11.6853C13.7032 11.0653 13.3494 10.665 12.7222 10.5478C12.4027 10.4882 12.4495 10.3716 12.6049 10.1919C12.8746 9.88106 13.1272 9.68878 13.6321 9.68878L17.4122 9.68812C18.008 9.80336 18.1417 10.0667 18.2225 10.6581L18.2259 14.7972C18.2188 15.026 18.3425 15.7043 18.7595 15.8541C19.0936 15.9627 19.3142 15.6987 19.514 15.4903C20.4205 14.5424 21.0664 13.4236 21.6448 12.2657C21.9001 11.7551 22.1203 11.2266 22.3342 10.6972C22.4932 10.3058 22.7405 10.1132 23.1889 10.1198L26.8291 10.124C26.9363 10.124 27.0452 10.125 27.1515 10.1431C27.765 10.2465 27.9331 10.5066 27.7433 11.0963C27.4446 12.0227 26.8641 12.7945 26.2968 13.5682C25.6886 14.3965 25.0401 15.1959 24.4379 16.0279C23.8846 16.7884 23.9284 17.1713 24.6154 17.8318Z" fill="#121212"/>
</svg>
