<?xml version="1.0" encoding="utf-8"?>
<!-- Generator: Adobe Illustrator 24.3.0, SVG Export Plug-In . SVG Version: 6.00 Build 0)  -->
<svg version="1.1" id="Слой_1" xmlns="http://www.w3.org/2000/svg" xmlns:xlink="http://www.w3.org/1999/xlink" x="0px" y="0px"
	 viewBox="0 0 566 383" style="enable-background:new 0 0 566 383;" xml:space="preserve">
<style type="text/css">
	.st0{fill:#969696;}
</style>
<path class="st0" d="M0.6,254.2c2.3,0.9,4.6,1.9,7,2.7c6.5,2.2,13.2,3.5,20.1,4.2c8.3,0.9,16.5,0.9,24.8,0.3
	c20.3-1.5,40-5.7,58.7-14.1c8.5-3.8,16.6-8.4,24-14.2c1.2-0.9,1.6-1.9,1.6-3.4c0-50.4,0-100.8,0-151.2c0-0.6,0-1.3,0-2.1
	c-11.1-5.2-22.2-10.3-33.5-15.6c-0.1,0.6-0.2,1-0.2,1.4c0,0.6,0,1.2,0,1.7c0,56,0,111.9,0,167.9c0,1.8-0.5,3.1-2.1,3.9
	c-2.8,1.6-5.5,3.3-8.4,4.7c-4.3,2.1-8.8,2.3-13.5,1.5c-3.9-0.6-7.5-1.8-11.1-3.5c0-79.4,0-158.7,0-238.2c0.7,0.3,1.3,0.5,1.9,0.8
	c16.6,7.8,33.2,15.6,49.8,23.4c16.1,7.6,32.3,15.2,48.4,22.7c1.5,0.7,2.1,1.5,2.1,3.1c-0.1,67.1,0,134.3,0,201.5
	c0,1.3-0.1,2.3-1.4,3.1c-17.5,11-35.8,20.2-55.5,26.4c-8,2.5-16.1,4.3-24.4,5.1c-8,0.8-15.9,0.2-23.7-1.3
	c-15.9-3.1-30.6-9.4-44.6-17.4C14,264,7.8,259.9,1.9,255.5c-0.5-0.4-0.9-0.8-1.4-1.2C0.5,254.3,0.5,254.2,0.6,254.2z M152,46.5
	c-0.1,0.1-0.1,0.2-0.2,0.3c0.5,0.4,1,0.7,1.6,1.1c2.9,1.9,5.7,3.8,8.6,5.6c0.9,0.6,1.3,1.2,1.4,2.3c0.2,4.1,0.6,8.1,0.9,12.2
	c0.1,1.6,0.3,3.1,0.4,4.7c0.1,0,0.2,0,0.3,0c0-6.7,0-13.4,0-20.1C160.6,50.6,156.3,48.5,152,46.5z M165,229.6
	c-0.1,0-0.2,0.1-0.3,0.1c-0.4,5.7-0.9,11.3-1.3,17c-0.1,1.1-0.4,1.8-1.3,2.4c-3.2,2.4-6.4,4.8-9.6,7.3c-0.3,0.3-0.7,0.6-1.2,1
	c0.5-0.1,0.6-0.1,0.7-0.1c4-2.3,8-4.7,12.1-7c0.9-0.5,0.9-1.2,0.9-1.9c0-3.5,0-7.1,0-10.6C165,235,165,232.3,165,229.6z"/>
<path class="st0" d="M534,32.5c0,29.7,0,58.9,0,88.2c1.7-0.2,26.2-11.1,33.7-14.9c0-29.6,0-59.3,0-89.2c11.7-5.5,23.3-11,35.3-16.6
	c0,86.7,0,173,0,259.5c2.4,0.3,4.6,0.7,6.8,0.9c7.5,0.8,14.9,1.4,22.5,1.2c11.1-0.3,22-1.6,32.6-5.4c1.9-0.7,3.7-1.5,5.6-2
	c-0.9,0.7-1.8,1.4-2.7,2.1c-14.5,10.6-30,19.2-47.1,24.9c-9.6,3.2-19.3,5.2-29.4,5.5c-6.1,0.2-12.1-0.5-18.1-1.6
	c-15.2-2.9-29.5-8.4-43.5-15c-9.2-4.4-18-9.3-26.6-14.7c-2.3-1.5-2.3-1.5-2.3-4.1c0-13,0-26,0-39c0-0.8,0-1.5,0-2.5
	c11-4.7,22-9.4,33.3-14.2c0,0.9,0.1,1.6,0.1,2.2c0,10.6,0,21.2,0,31.8c0,1.5,0.5,2.4,1.6,3.3c6.6,5.3,14,9.6,21.7,13.2
	c2.9,1.4,5.8,2.5,8.7,3.8c0.5,0.2,1.1,0.4,1.7,0.6c0-35.8,0-71.4,0-107.3c-22.3,10-44.5,19.9-66.7,29.9
	c-0.5-1.8-0.7-116.2-0.3-124.9C511.5,43,522.5,37.9,534,32.5z M586.9,15.1c-0.1-0.1-0.2-0.2-0.3-0.3c-4.5,2.1-9,4.1-13.4,6.2
	c0,7.1,0,14,0,20.9c0.3-1.7,0.5-3.3,0.7-5c0.3-3.9,0.7-7.7,0.9-11.6c0.1-1.9,0.9-3.1,2.5-4.1C580.5,19.3,583.7,17.2,586.9,15.1z
	 M504.2,213.8c0,6.8-0.1,13.6,0.2,20.3c0.6-5.3,1.1-10.7,1.4-16c0.1-1.9,0.8-3,2.5-3.9c2.8-1.5,5.5-3.2,8.2-4.8c0.5-0.3,1-0.7,1.5-1
	c-0.1-0.1-0.1-0.2-0.1-0.3C513.4,210,508.9,211.9,504.2,213.8z M504.3,72.7c0.1,0,0.2,0,0.3,0c0.4-5.6,0.9-11.2,1.3-16.8
	c0.1-1.1,0.4-1.8,1.4-2.3c3-1.9,6-3.8,8.9-5.8c0.4-0.3,0.8-0.6,1.1-0.9c-0.1-0.1-0.1-0.2-0.2-0.3c-4.3,2-8.6,4-12.8,6
	C504.3,59.4,504.3,66.1,504.3,72.7z"/>
<path class="st0" d="M278.6,302.8c-34,12.3-67.9,24.6-102.1,37c0.2-11.9,0.4-23.6,0.6-35.5c22.6-7.9,45.3-15.8,68.1-23.7
	c0-52.4,0-104.7,0-157.2c-11.1-4.9-22.2-9.8-33.6-14.9c0,1.1,0,2,0,2.8c0,54.4,0,108.8,0.1,163.2c0,2-0.6,3.4-2.2,4.6
	c-2.6,2-5.2,3.9-8.1,5.3c-4.1,2.1-8.5,2.7-13,1.8c-4.2-0.9-8.2-2.4-11.9-4.7c0-77.3,0-154.7,0-232.3c34.2,16.1,68.2,32.1,102.2,48.1
	C278.6,165.7,278.6,234.2,278.6,302.8z M272.9,278.4c-0.1,0-0.2,0-0.3,0c0,0.3-0.1,0.6-0.1,0.9c-0.4,4.7-1,9.4-1.1,14.1
	c0,2.8-1.1,4.3-3.5,5.5c-3,1.5-5.9,3.4-8.8,5.2c0.1,0.1,0.1,0.2,0.2,0.3c4.5-1.9,9.1-3.8,13.5-5.6
	C272.9,291.9,272.9,285.2,272.9,278.4z M260.3,94.3c-0.1,0.1-0.1,0.2-0.2,0.3c0.5,0.4,1,0.7,1.6,1.1c2.8,1.8,5.6,3.7,8.4,5.5
	c0.7,0.5,1.1,0.9,1.1,1.8c0.2,3.9,0.6,7.9,0.9,11.8c0.1,1.8,0.3,3.7,0.5,5.5c0.3-0.3,0.3-0.5,0.3-0.8c0-6.1,0-12.1,0.1-18.2
	c0-0.9-0.4-1.4-1.2-1.7c-3.6-1.7-7.1-3.3-10.7-5C260.9,94.5,260.6,94.4,260.3,94.3z"/>
<path class="st0" d="M381.5,168.1c4,7.9,5.8,15.8,2.9,24.2c-0.8,2.4-1.9,4.8-2.8,7.2c-0.5,1.2-1.2,1.6-2.5,1.6
	c-10.4,0-20.8,0-31.2,0c-8.5,0-17,0-25.4,0.1c-0.6,0-1.1,0-1.8,0c0,20,0,39.8,0,59.8c0.8,0,1.5,0.1,2.3,0.1c18,0,36,0,54,0
	c1.8,0,3,0.5,4,2.1c3,4.6,5.4,9.4,6.2,14.9c0.4,3.1-0.1,6.1-1,9c-1.3,4.4-3.4,8.3-5.9,12.2c-0.6,0.9-1.4,1-2.3,1
	c-14.8,0.1-29.5,0.2-44.3,0.3c-15.3,0.1-30.5,0.2-45.8,0.3c-0.7,0-1.4,0-2.2,0c0-67.9,0-135.7,0-203.6c31.9,0,63.7,0,95.6,0
	c1.3,3.2,2.2,6.6,3,10c1.7,6.9,0.1,13.3-2.5,19.7c-0.5,1.3-0.9,2.9-1.8,3.5c-1,0.6-2.6,0.3-3.9,0.3c-17.6,0-35.2,0-52.8,0
	c-0.8,0-1.5,0-2.4,0c0,12.5,0,24.8,0,37.3C340.9,168.1,361.1,168.1,381.5,168.1z M288.6,121.5c0.1,0,0.1,0,0.2,0
	c0.7-6.3,1.3-12.5,2-18.8c4-0.9,8-1.7,11.9-2.5c0-0.1,0-0.2-0.1-0.3c-4.6,0.1-9.3,0.3-14,0.4C288.6,107.4,288.6,114.5,288.6,121.5z
	 M288.8,274.9c-0.6,5.6-0.4,19.6,0,21.1c2.3,0.4,11.7,0.5,13.1,0.1c-3.8-0.8-7.5-1.6-11.2-2.4C290.1,287.3,289.5,281.1,288.8,274.9z
	"/>
<path class="st0" d="M425.6,169.8c21.5-9.7,42.9-19.3,64.4-29c0.2,0.4,0.4,0.6,0.5,0.9c2.4,6.6,3.9,13.4,3.4,20.5
	c-0.4,5-1.7,9.8-3.4,14.5c-0.3,0.9-1,1.2-1.8,1.6c-6.8,3.1-13.7,6.2-20.5,9.2c-13.7,6.2-27.3,12.3-41,18.5c-0.5,0.2-1,0.5-1.7,0.8
	c0,0.8,0,1.5,0,2.3c0,23,0,46.1,0,69.1c0,1.6-0.5,2.5-1.8,3.4c-9.9,6.6-19.8,13.2-29.7,19.8c-0.5,0.3-1.1,0.7-1.6,1
	c-0.4-1.5-0.6-202.1-0.2-205.5c33.9-15.9,67.8-31.9,101.8-47.9c0.4,1.5,0.6,60.5,0.2,63.4c-11.5,5-23.1,10.1-34.9,15.2
	c0-6.5,0-12.7,0-18.9c-1.6,0.1-26.5,10.8-33.7,14.5C425.6,138.7,425.6,154.2,425.6,169.8z M475.2,114.1c0.1,0.1,0.1,0.2,0.1,0.3
	c4.6-2.1,9.2-4.2,13.8-6.3c0-6.9,0-13.6,0-20.3c-0.2,0.2-0.2,0.5-0.3,0.7c-0.4,5.4-0.9,10.8-1.3,16.2c-0.1,1.1-0.4,1.8-1.4,2.3
	c-1.8,1.1-3.6,2.3-5.4,3.4C479,111.7,477.1,112.9,475.2,114.1z M409.5,94.5c-0.6,0-0.8-0.1-0.9-0.1c-3.8,1.8-7.6,3.6-11.4,5.3
	c-0.9,0.4-1,1.1-1,1.9c0,5.7,0,11.4,0,17c0,0.6,0.1,1.2,0.1,1.7c0.7-5.6,1.2-11.2,1.6-16.8c0.1-1.3,0.5-2,1.5-2.6
	c1.8-1.1,3.5-2.2,5.2-3.4C406.2,96.6,407.7,95.7,409.5,94.5z"/>
<path class="st0" d="M418.2,312.2c-0.7-4.3-0.7-8.6,0.8-12.7c0.9-2.4,2.6-4.3,4.6-5.9c4.7-3.8,10.1-6,15.8-7.7
	c0.8-0.2,1.9,0.1,2.8,0.3c10.9,3.8,21.7,7.6,32.6,11.3c6.2,2.2,12.4,4.3,18.9,6.6c0.2,11.7,0.4,23.5,0.6,35.5
	C468.8,330.6,443.5,321.4,418.2,312.2z"/>
<path class="st0" d="M415.3,373.7c-1,2.8-2.1,5.6-3.1,8.6c-1.7,0-3.4,0-5.3,0c-1.6-4.5-3.3-9.2-5-14c1.8,0,3.3,0,5,0
	c0.9,3,1.8,6,2.7,9c0.1,0,0.2,0,0.3,0c1.1-3,2.2-6,3.3-9.1c1.6,0,3.2,0,4.8,0c1,3,2,6,3.1,8.9c0.1,0,0.3,0,0.4,0c1-3,1.9-6,2.9-9
	c1.6,0,3.1,0,4.9,0c-1.7,4.7-3.3,9.3-5,14.1c-1.6,0-3.1,0-4.6,0c-0.8,0-0.9-0.6-1.1-1.1c-0.7-2-1.5-4-2.2-6c-0.2-0.5-0.4-1-0.5-1.4
	C415.6,373.7,415.4,373.7,415.3,373.7z"/>
<path class="st0" d="M584.8,382.2c-1.8,0-3.2,0-4.8,0c-0.3-4.7-0.1-9.3-0.1-14c3.7,0,7.2-0.1,10.7,0c0.9,0,1.9,0.4,2.8,0.8
	c2.6,1.3,2.8,4.2,0.5,6c-0.6,0.4-1.2,0.7-2,1.3c1.9,1.9,3.8,3.8,5.8,5.7c-1.4,0.6-2.7,0.2-3.9,0.4c-1.4,0.2-2.3-0.6-3.1-1.5
	c-0.8-0.9-1.8-1.7-2.6-2.6c-0.8-1-1.8-1.4-3.3-1C584.8,378.7,584.8,380.4,584.8,382.2z M584.8,374.5c1.5-0.1,2.8-0.1,4.1-0.3
	c0.9-0.2,1.4-0.9,1.4-1.8c0-0.9-0.6-1.5-1.7-1.6c-1.3-0.1-2.5,0-3.9,0C584.8,372,584.8,373.1,584.8,374.5z"/>
<path class="st0" d="M196.1,376.4c2,2,3.9,3.9,5.9,5.9c-1.8,0-3.5,0.1-5.1,0c-0.4,0-0.9-0.5-1.2-0.8c-1.1-1-2.1-2.1-3.1-3.2
	c-0.9-1-1.9-1.5-3.5-1c0,1.6,0,3.2,0,5c-1.7,0-3.1,0-4.7,0c0-4.7,0-9.3,0-13.9c0.5-0.1,0.9-0.2,1.3-0.2c2.8,0,5.6-0.1,8.3,0.1
	c1.3,0.1,2.6,0.3,3.7,0.9c2.5,1.2,2.8,4.1,0.6,5.8C197.9,375.4,197.2,375.7,196.1,376.4z M189.3,374.5c1.4-0.1,2.7,0,4-0.2
	c1-0.2,1.7-1,1.6-1.9c0-0.9-0.7-1.5-1.8-1.6c-1.2-0.1-2.4,0-3.8,0C189.3,372,189.3,373,189.3,374.5z"/>
<path class="st0" d="M89.4,368.8c0,1.1,0,2.1,0,3.3c-0.6-0.3-1.1-0.4-1.5-0.6c-2-1-4.1-1.2-6.2-1c-0.3,0-0.5,0-0.8,0.1
	c-0.7,0.2-1.5,0.5-1.5,1.3c-0.1,0.9,0.8,1.1,1.5,1.3c1.6,0.4,3.3,0.6,4.9,1c0.9,0.2,1.9,0.5,2.7,1c2.1,1.2,2.4,3.8,0.6,5.4
	c-0.7,0.6-1.6,1.2-2.5,1.5c-4.1,1.4-8.3,0.9-12.4-0.3c0-1.1,0-2.2,0-3.4c0.5,0.2,1,0.4,1.5,0.6c2.2,1,4.5,1.6,7,1.4
	c1-0.1,2.2-0.1,2.5-1.4c0.2-0.7-0.6-1.3-2.3-1.6c-1.5-0.3-3.1-0.5-4.6-0.9c-0.7-0.2-1.5-0.5-2.1-0.9c-2.4-1.4-2.5-4.3-0.2-5.9
	c1.5-1,3.2-1.5,4.9-1.6C83.5,367.5,86.6,367.9,89.4,368.8z"/>
<path class="st0" d="M308.1,373.3c0,1,0,1.8,0,2.8c-2.6,0-5.2,0-7.9,0c0,1.2,0,2.1,0,3.4c2.8,0,5.6,0,8.5,0c0,1.1,0,1.9,0,2.8
	c-4.4,0-8.8,0-13.1,0c-0.4-1.4-0.5-11.4-0.2-14c4.3,0,8.7,0,13.2,0c0,0.8,0,1.6,0,2.6c-2.8,0-5.6,0-8.4,0c0,0.9,0,1.5,0,2.5
	C302.8,373.3,305.4,373.3,308.1,373.3z"/>
<path class="st0" d="M528,368.2c1.9,0,3.6,0,5.6,0c2.2,4.5,4.5,9.1,6.8,13.9c-1.5,0.5-2.9,0.3-4.3,0.2c-0.3,0-0.7-0.5-0.9-0.8
	c-0.4-0.6-0.6-1.3-1-2c-2.3,0-4.5,0-6.9,0c-0.2,0.5-0.6,1-0.8,1.6c-0.3,1.1-1,1.4-2.1,1.3c-1-0.1-2,0-3.4,0
	C523.5,377.4,525.7,372.8,528,368.2z M530.9,372.2c-0.2,0-0.3,0-0.5,0c-0.6,1.4-1.3,2.9-1.9,4.4c1.5,0,2.8,0,4.3,0
	C532.2,375,531.6,373.6,530.9,372.2z"/>
<path class="st0" d="M254.6,368.2c0,0.9,0,1.6,0,2.6c-2.8,0.1-5.6,0-8.6,0.1c0,0.7,0,1.4,0,2.2c2.5,0.5,5.2-0.1,7.9,0.4
	c0,0.9,0,1.7,0,2.7c-2.7,0-5.2,0-7.9,0c0,1.1,0,2.1,0,3.3c2.8,0,5.6,0,8.6,0c0,1.1,0,1.9,0,2.8c-4.4,0-8.8,0-13.3,0
	c0-4.7,0-9.3,0-14C245.6,368.2,250,368.2,254.6,368.2z"/>
<path class="st0" d="M482.5,379.4c0,1.2,0,1.9,0,2.8c-4.5,0-8.8,0-13.3,0c0-4.7,0-9.3,0-14c4.4,0,8.8,0,13.3,0c0,0.8,0,1.5,0,2.5
	c-2.7,0.2-5.5,0-8.6,0.1c0,0.7-0.1,1.4-0.1,2.3c2.7,0.4,5.3,0,8,0.2c0,0.9,0,1.7,0,2.7c-2.7,0-5.2,0-7.9,0c0,1.1,0,2.1,0,3.3
	C476.7,379.4,479.5,379.4,482.5,379.4z"/>
<path class="st0" d="M358.3,382.2c-1.8,0-3.3,0-4.9,0c0-3.8,0-7.5,0-11.3c-2,0-3.8,0-5.8,0c0-1,0-1.7,0-2.8c5.4,0,10.9,0,16.4,0
	c0,0.9,0,1.7,0,2.6c-1.8,0-3.7,0-5.8,0C358.3,374.6,358.3,378.3,358.3,382.2z"/>
<path class="st0" d="M134.2,382.2c0-3.8,0-7.4,0-11.3c-2,0-3.8,0-5.8,0c0-1,0-1.7,0-2.6c5.4,0,10.8,0,16.3,0c0,0.8,0,1.5,0,2.5
	c-1.8,0-3.7,0-5.8,0c0,3.9,0,7.6,0,11.5C137.3,382.2,135.9,382.2,134.2,382.2z"/>
</svg>
