<svg width="150" height="149" viewBox="0 0 150 149" fill="none" xmlns="http://www.w3.org/2000/svg">
<path d="M142.62 67.9853C141.169 68.0875 139.74 68.1897 138.278 68.2936C138.223 67.5517 138.17 66.8461 138.113 66.0745C141.674 65.8189 145.208 65.5651 148.804 65.3079C148.859 66.0563 148.91 66.7702 148.966 67.5269C147.701 67.6176 146.478 67.6984 145.256 67.799C145.073 67.8138 144.788 67.8715 144.739 67.9902C144.589 68.343 144.78 68.8277 145.044 68.9646C146.335 69.6323 147.627 70.295 148.915 70.9693C149.038 71.0336 149.21 71.1523 149.22 71.2595C149.302 72.0888 149.35 72.9197 149.416 73.8314C148.834 73.5116 148.323 73.2329 147.813 72.951C146.676 72.3212 145.543 71.6849 144.397 71.0699C144.274 71.004 144.035 70.9924 143.932 71.0666C142.267 72.2981 140.617 73.5478 138.963 74.7942C138.932 74.8189 138.911 74.8569 138.863 74.9162C140.073 75.4833 141.271 76.0472 142.472 76.6094C144.585 77.5986 146.697 78.5911 148.812 79.572C149.035 79.6742 149.132 79.7896 149.099 80.0468C149.035 80.5464 149.012 81.0508 148.946 81.5487C148.933 81.6526 148.821 81.7993 148.725 81.8274C145.194 82.8413 141.659 83.8453 138.124 84.8477C138.075 84.8625 138.019 84.8576 137.935 84.8642C137.994 84.1355 138.04 83.4265 138.119 82.7209C138.129 82.6319 138.287 82.5181 138.398 82.4868C138.935 82.3351 139.478 82.1934 140.023 82.0763C140.279 82.0219 140.396 81.918 140.416 81.646C140.493 80.5579 140.599 79.4714 140.671 78.3833C140.678 78.2762 140.558 78.1047 140.454 78.0569C139.923 77.8079 139.38 77.5837 138.838 77.3612C138.65 77.2837 138.555 77.1979 138.586 76.9622C138.779 75.4982 138.713 74.0342 138.601 72.5669C138.589 72.4152 138.709 72.1976 138.836 72.102C139.987 71.2348 141.143 70.3742 142.32 69.5432C142.653 69.3075 142.777 69.0635 142.689 68.6744C142.642 68.4568 142.643 68.2309 142.62 67.9853ZM142.234 81.5224C143.585 81.1893 144.875 80.8711 146.28 80.5249C144.955 79.9627 143.733 79.4434 142.454 78.8994C142.379 79.7913 142.312 80.609 142.234 81.5224Z" fill="white"/>
<path d="M29.5786 14.9909C30.1968 14.5705 30.7837 14.1699 31.4218 13.7363C32.2181 14.9068 33.0078 16.0675 33.7942 17.2232C34.5427 16.9495 34.6416 16.8176 34.6103 16.0922C34.5526 14.737 34.4949 13.3818 34.4223 12.0267C34.4091 11.7859 34.4817 11.6475 34.6828 11.5172C35.3225 11.1018 35.949 10.6649 36.6991 10.1571C36.6991 10.955 36.6909 11.6359 36.7008 12.3168C36.7172 13.5335 36.7403 14.7502 36.7782 15.9669C36.7815 16.0889 36.8739 16.2736 36.9728 16.3164C38.9083 17.1523 40.8504 17.97 42.8733 18.8273C42.8206 18.1201 42.776 17.4755 42.7216 16.8325C42.4661 13.8088 42.2056 10.7836 41.9633 7.75829C41.9534 7.63959 42.0886 7.4978 42.1809 7.38734C42.2287 7.32964 42.3276 7.31315 42.4051 7.28018C42.8733 7.07245 43.3762 6.65369 43.8015 6.72129C44.2104 6.78559 44.5434 7.34942 44.9045 7.70059C47.2505 9.98397 49.5949 12.269 51.9953 14.6101C51.2699 14.9563 50.5758 15.286 49.8537 15.6306C49.397 15.1508 48.9371 14.6859 48.4969 14.2012C48.3188 14.005 48.1688 13.9721 47.9215 14.0924C46.9686 14.5606 46.0074 15.0124 45.0396 15.4509C44.7956 15.5614 44.7577 15.6999 44.7956 15.9406C44.8797 16.4797 44.9259 17.0237 45.005 17.5628C45.0413 17.8052 44.9852 17.9503 44.7412 18.0459C43.4207 18.5702 42.2237 19.3153 41.0845 20.1562C40.8504 20.3293 40.6592 20.3342 40.3987 20.2172C39.0864 19.6269 37.7592 19.0697 36.4518 18.4696C36.1237 18.3196 35.8896 18.336 35.6258 18.5619C35.4379 18.7235 35.2186 18.8488 34.9994 19.0005C35.8171 20.2073 36.615 21.3877 37.4443 22.6143C36.8294 23.0347 36.2358 23.4386 35.6011 23.8722C33.5914 20.9046 31.5932 17.9602 29.5786 14.9909ZM46.9208 12.5658C45.9711 11.5766 45.0578 10.6253 44.1428 9.67403C44.1147 9.69216 44.0867 9.7103 44.0587 9.72843C44.2153 11.0276 44.3719 12.3267 44.5352 13.6852C45.3364 13.3093 46.1014 12.9515 46.9208 12.5658Z" fill="white"/>
<path d="M37.9059 139.728C38.9215 139.115 39.8645 138.544 40.8076 137.975C41.4786 137.572 42.1578 137.179 42.8173 136.759C42.9393 136.681 43.0712 136.478 43.0563 136.352C42.8156 134.269 42.5535 132.189 42.2864 130.036C42.1182 130.143 41.983 130.224 41.8528 130.314C38.9907 132.299 36.127 134.282 33.2732 136.279C33.0276 136.45 32.8446 136.497 32.6236 136.281C32.5544 136.213 32.4621 136.17 32.3846 136.111C32.0153 135.839 31.4712 135.634 31.3278 135.272C31.1926 134.932 31.4745 134.423 31.585 133.991C32.3895 130.835 33.1974 127.681 34.0036 124.526C34.0233 124.447 34.0497 124.369 34.0909 124.229C34.724 124.671 35.3291 125.085 35.9209 125.517C35.9737 125.556 35.9737 125.714 35.949 125.805C35.7989 126.357 35.6473 126.911 35.4709 127.455C35.3884 127.708 35.4313 127.858 35.6588 128.011C36.5408 128.606 37.413 129.213 38.2769 129.833C38.4731 129.973 38.605 129.965 38.7896 129.821C39.3073 129.417 39.8398 129.03 40.3921 128.618C40.5537 128.728 40.7202 128.827 40.8702 128.946C41.9435 129.795 43.1651 130.383 44.395 130.956C44.5929 131.048 44.6786 131.157 44.7017 131.386C44.8484 132.818 45.0347 134.248 45.1666 135.682C45.2029 136.08 45.3067 136.335 45.7024 136.459C45.9134 136.525 46.1063 136.648 46.3569 136.772C46.99 135.476 47.6181 134.189 48.2727 132.847C48.9354 133.166 49.5817 133.48 50.2791 133.816C48.7194 137.029 47.1713 140.216 45.5952 143.462C44.9209 143.137 44.2648 142.821 43.5855 142.494C44.212 141.204 44.8187 139.949 45.4254 138.696C44.8006 138.182 44.6357 138.17 43.9763 138.592C42.8568 139.309 41.744 140.033 40.613 140.73C40.4696 140.819 40.2107 140.838 40.0574 140.77C39.3617 140.458 38.6775 140.106 37.9059 139.728ZM34.8394 129.645C34.4487 130.987 34.0827 132.25 33.7151 133.513C33.7398 133.527 33.7645 133.541 33.7876 133.555C34.8444 132.764 35.8995 131.973 37.0008 131.147C36.2688 130.639 35.5846 130.164 34.8394 129.645Z" fill="white"/>
<path d="M96.0193 2.94918C95.3318 5.8541 94.6525 8.71781 93.9634 11.6227C94.3739 11.7299 94.7581 11.8305 95.1702 11.9393C94.7713 13.3604 94.3822 14.7535 93.9783 16.1895C93.3073 16.0312 92.661 15.8796 91.9784 15.718C92.1779 14.8673 92.3708 14.043 92.5769 13.1593C90.5062 12.6663 88.4487 12.1783 86.3351 11.6755C86.1323 12.513 85.9328 13.3324 85.7185 14.2177C85.036 14.0594 84.3666 13.9028 83.6676 13.7413C83.9709 12.2904 84.2677 10.8743 84.576 9.402C85.6262 9.88671 86.1439 9.15635 86.5511 8.47876C87.049 7.64784 87.4463 6.74108 87.7711 5.82608C88.2492 4.48572 88.6234 3.10745 89.0438 1.74566C89.0851 1.61377 89.1329 1.48517 89.1873 1.3269C91.4674 1.86766 93.7326 2.40512 96.0193 2.94918ZM87.8766 10.195C89.2268 10.5148 90.488 10.8116 91.7888 11.1199C92.3395 8.79695 92.8819 6.51192 93.4309 4.19721C92.5324 3.98453 91.685 3.7834 90.8343 3.58226C90.4518 4.77094 90.1039 5.9184 89.7132 7.05103C89.3175 8.19025 88.752 9.24373 87.8766 10.195Z" fill="white"/>
<path d="M119.494 122.815C119.203 123.111 118.929 123.388 118.739 123.583C117.669 122.582 116.603 121.583 115.513 120.563C116.022 120.025 116.482 119.542 116.954 119.044C117.592 119.644 118.21 120.228 118.866 120.844C120.335 119.295 121.791 117.755 123.278 116.185C122.645 115.584 122.03 114.998 121.382 114.382C121.86 113.872 122.332 113.371 122.83 112.84C123.929 113.828 125.008 114.796 126.076 115.755C126.068 115.808 126.073 115.844 126.058 115.856C125.438 116.321 125.504 116.912 125.736 117.542C126.157 118.683 126.908 119.601 127.713 120.482C128.732 121.595 129.762 122.698 130.816 123.833C129.205 125.535 127.604 127.226 125.977 128.946C123.807 126.895 121.659 124.862 119.494 122.815ZM126.193 126.074C126.824 125.406 127.42 124.778 128.03 124.135C126.435 122.31 124.538 120.729 123.792 118.264C122.856 119.253 121.954 120.206 121.028 121.186C122.747 122.811 124.45 124.424 126.193 126.074Z" fill="white"/>
<path d="M17.4247 97.1746C16.0019 97.6395 14.6368 98.0847 13.2685 98.5298C13.2322 98.482 13.191 98.4523 13.1877 98.4194C13.1118 97.6973 12.5958 97.4763 11.9875 97.3543C10.7625 97.1087 9.56393 97.3131 8.3736 97.572C6.99533 97.872 5.622 98.1968 4.24538 98.51C4.15141 98.5315 4.05578 98.5381 3.9107 98.5595C3.24959 96.3305 2.59013 94.1147 1.91418 91.8396C4.75481 90.9955 7.58555 90.153 10.4624 89.299C10.352 88.8984 10.2465 88.5175 10.1294 88.0971C11.567 87.7328 12.97 87.3767 14.4126 87.009C14.6088 87.6718 14.7984 88.3082 14.9979 88.9808C14.1488 89.2364 13.3377 89.4804 12.482 89.7376C13.0904 91.7901 13.6922 93.818 14.3071 95.8887C15.1479 95.643 15.9607 95.4056 16.8197 95.155C17.0224 95.8277 17.2153 96.4756 17.4247 97.1746ZM11.1087 91.4373C8.81544 92.1182 6.56503 92.7859 4.2866 93.4619C4.55203 94.3538 4.80262 95.188 5.05322 96.0288C7.44706 95.5441 9.75188 94.7198 12.2529 95.2919C11.8638 93.9795 11.4929 92.7315 11.1087 91.4373Z" fill="white"/>
<path d="M1.8845 74.2154C2.52748 74.2583 3.18364 74.2847 3.83486 74.3473C5.15543 74.4726 6.47435 74.6128 7.79162 74.7611C8.02409 74.7875 8.25325 74.8716 8.47911 74.9441C10.0025 75.4354 10.9241 76.4296 10.6323 78.6404C10.0684 78.6404 9.50128 78.6404 8.89952 78.6404C8.88138 77.4369 8.10817 76.972 7.0926 76.8566C5.53957 76.6802 3.97829 76.5714 2.41867 76.4477C1.73613 76.3933 1.05029 76.3801 0.366095 76.3438C0.186392 76.3339 -0.00485202 76.3504 9.39362e-05 76.0685C0.0413102 73.7769 0.0759323 71.4853 0.113851 69.1211C3.68813 69.1804 7.22943 69.2381 10.7988 69.2959C10.7988 70.0344 10.7988 70.7417 10.7988 71.5232C7.83779 71.4787 4.88505 71.4325 1.8845 71.3863C1.8845 72.3376 1.8845 73.2394 1.8845 74.2154Z" fill="white"/>
<path d="M110.208 127.947C110.508 128.483 110.786 128.979 111.07 129.487C111.006 129.546 110.961 129.602 110.905 129.638C110.231 130.074 110.016 130.725 110.282 131.427C110.738 132.639 111.268 133.826 111.818 135C112.346 136.124 112.941 137.217 113.535 138.376C111.451 139.543 109.383 140.701 107.253 141.894C105.511 138.782 103.775 135.679 102.014 132.535C102.665 132.167 103.291 131.815 103.964 131.435C105.42 134.034 106.864 136.614 108.322 139.215C109.147 138.752 109.95 138.302 110.781 137.837C110.369 137.013 109.944 136.228 109.581 135.414C109.07 134.268 108.501 133.132 108.148 131.935C107.627 130.166 108.17 129.088 109.8 128.176C109.922 128.107 110.043 128.039 110.208 127.947Z" fill="white"/>
<path d="M111.114 21.9285C110.453 21.5328 109.843 21.1685 109.192 20.7794C110.715 18.2273 112.229 15.69 113.76 13.1247C112.948 12.6383 112.158 12.1668 111.34 11.6772C110.803 12.4866 110.306 13.2978 109.748 14.0628C109.032 15.0421 108.333 16.0494 107.505 16.9298C106.365 18.1448 104.967 18.4993 103.076 17.0748C103.366 16.5868 103.657 16.0988 103.958 15.596C104.055 15.6273 104.136 15.6438 104.206 15.6801C104.835 15.9983 105.45 15.9142 105.903 15.4229C106.564 14.7074 107.186 13.9474 107.74 13.1461C108.661 11.814 109.515 10.4341 110.432 9.02283C112.488 10.2494 114.532 11.4694 116.616 12.7125C114.779 15.7905 112.956 18.8455 111.114 21.9285Z" fill="white"/>
<path d="M135.791 55.2659C137.236 55.4505 138.594 55.6203 139.951 55.7967C142.239 56.0951 144.528 56.4018 146.816 56.692C147.047 56.7216 147.16 56.7859 147.207 57.025C147.301 57.5196 147.439 58.0043 147.53 58.4989C147.551 58.6126 147.493 58.8072 147.404 58.8649C144.331 60.9125 141.25 62.9502 138.17 64.9863C138.149 64.9995 138.118 64.9979 138.043 65.0144C137.882 64.3153 137.709 63.6163 137.567 62.9123C137.55 62.8266 137.669 62.6733 137.763 62.6123C138.243 62.299 138.731 61.9973 139.229 61.7121C139.435 61.5934 139.489 61.4582 139.437 61.2356C139.183 60.1756 138.947 59.1105 138.681 58.0521C138.653 57.9383 138.479 57.7982 138.357 57.7817C137.803 57.7042 137.245 57.6548 136.687 57.6168C136.429 57.5987 136.293 57.5262 136.238 57.241C136.119 56.598 135.953 55.9649 135.791 55.2659ZM141.133 60.5416C142.317 59.8129 143.436 59.1254 144.554 58.4379C144.544 58.4082 144.533 58.3769 144.523 58.3472C143.207 58.2252 141.893 58.1016 140.538 57.9763C140.739 58.8434 140.927 59.6579 141.133 60.5416Z" fill="white"/>
<path d="M51.2056 134.273C51.9326 134.495 52.602 134.686 53.2582 134.917C53.3587 134.953 53.4428 135.171 53.451 135.31C53.4857 135.867 53.4989 136.427 53.4972 136.986C53.4972 137.206 53.5648 137.304 53.7791 137.367C54.8244 137.674 55.868 137.987 56.905 138.32C57.1457 138.398 57.2578 138.325 57.3847 138.14C57.6996 137.679 58.0392 137.232 58.3508 136.769C58.4778 136.579 58.5899 136.51 58.8273 136.591C59.4604 136.805 60.105 136.988 60.8073 137.202C60.6095 137.466 60.4397 137.695 60.2666 137.923C58.2107 140.613 56.1515 143.299 54.1072 145.996C53.9226 146.24 53.7659 146.299 53.484 146.191C53.0933 146.042 52.6894 145.917 52.2822 145.826C51.9804 145.759 51.8815 145.607 51.8667 145.314C51.781 143.792 51.6804 142.272 51.5864 140.752C51.4595 138.714 51.3358 136.676 51.2105 134.639C51.2006 134.541 51.2056 134.446 51.2056 134.273ZM53.6588 139.222C53.6588 140.589 53.6588 141.914 53.6588 143.24C53.6917 143.243 53.7247 143.245 53.7577 143.248C54.521 142.17 55.286 141.09 56.0823 139.964C55.2299 139.702 54.4336 139.459 53.6588 139.222Z" fill="white"/>
<path d="M12.6271 58.377C12.4969 59.1155 12.3864 59.8146 12.238 60.507C12.2183 60.5993 12.0204 60.695 11.8918 60.718C11.328 60.8186 10.7575 60.8813 10.1954 60.9901C10.0767 61.0131 9.91673 61.1632 9.89365 61.2769C9.68098 62.3601 9.50128 63.4499 9.2919 64.533C9.24738 64.7638 9.32817 64.8545 9.51281 64.9501C10.0091 65.2073 10.4888 65.4975 10.99 65.7448C11.2208 65.8585 11.2851 65.9937 11.2373 66.2361C11.1104 66.8791 10.9999 67.527 10.873 68.2194C10.746 68.1568 10.6372 68.1122 10.5366 68.0512C7.46519 66.2427 4.39705 64.4292 1.32231 62.6255C1.09809 62.4936 1.00412 62.3667 1.06842 62.098C1.17228 61.6644 1.2679 61.2225 1.30253 60.779C1.3289 60.4444 1.50366 60.3751 1.77404 60.3257C5.26589 59.6893 8.75608 59.0463 12.2463 58.4066C12.3534 58.3885 12.4623 58.3901 12.6271 58.377ZM4.05907 61.8836C4.05907 61.9166 4.05742 61.9512 4.05742 61.9842C5.21313 62.6107 6.37048 63.2355 7.57235 63.8868C7.73062 62.9948 7.87405 62.1787 8.03068 61.2951C6.66724 61.4979 5.36316 61.6907 4.05907 61.8836Z" fill="white"/>
<path d="M119.661 28.9567C119.114 28.4967 118.573 28.0565 118.052 27.5899C117.974 27.519 117.946 27.3163 117.984 27.2058C118.179 26.6535 118.396 26.1078 118.624 25.567C118.708 25.3692 118.69 25.2472 118.515 25.1038C117.674 24.4097 116.842 23.7041 116.016 22.9918C115.851 22.8501 115.729 22.8369 115.544 22.9556C114.98 23.3166 114.403 23.6563 113.808 24.019C113.218 23.5227 112.634 23.0298 112.016 22.5071C112.15 22.4181 112.245 22.3472 112.348 22.2895C115.45 20.5387 118.555 18.7894 121.654 17.032C121.882 16.9034 122.032 16.8852 122.233 17.0765C122.577 17.4029 122.965 17.6848 123.309 18.0113C123.405 18.1019 123.488 18.313 123.45 18.4234C122.216 21.912 120.965 25.3939 119.719 28.8775C119.71 28.8891 119.701 28.899 119.661 28.9567ZM120.912 19.7786C120.886 19.7605 120.861 19.7424 120.835 19.7242C119.712 20.4117 118.591 21.0992 117.425 21.8114C118.116 22.3934 118.759 22.9358 119.438 23.5079C119.945 22.2302 120.429 21.0036 120.912 19.7786Z" fill="white"/>
<path d="M91.619 136.437C92.3411 136.175 92.9907 135.923 93.6535 135.71C93.759 135.677 93.9634 135.786 94.0508 135.89C94.4745 136.391 94.8718 136.914 95.2955 137.448C96.4331 137.037 97.5641 136.638 98.6835 136.21C98.7956 136.167 98.8962 135.939 98.8995 135.794C98.9127 135.25 98.8912 134.703 98.8648 134.159C98.8533 133.918 98.9143 133.781 99.1665 133.699C99.7881 133.499 100.398 133.265 101.067 133.026C101.067 133.717 101.072 134.345 101.066 134.973C101.034 138.01 100.998 141.047 100.975 144.084C100.973 144.361 100.917 144.514 100.629 144.595C100.213 144.712 99.8013 144.857 99.4073 145.033C99.127 145.159 98.9687 145.099 98.7758 144.872C96.8271 142.562 94.8652 140.261 92.9083 137.957C92.4928 137.468 92.0773 136.976 91.619 136.437ZM98.9967 138.043C98.1114 138.363 97.3184 138.65 96.4825 138.952C97.3349 140.026 98.151 141.055 98.9967 142.12C98.9967 140.747 98.9967 139.444 98.9967 138.043Z" fill="white"/>
<path d="M24.5156 19.3136C27.9299 21.015 31.3146 22.7016 34.7636 24.4195C34.1651 24.98 33.6095 25.501 33.0358 26.0385C32.4357 25.717 31.8405 25.4103 31.2619 25.0789C31.0558 24.9602 30.9288 24.9734 30.7574 25.1366C29.9792 25.8802 29.1928 26.6155 28.3965 27.3409C28.2234 27.4992 28.1871 27.6228 28.2943 27.8388C28.5877 28.4389 28.8548 29.0538 29.1367 29.6737C28.5647 30.2062 28.0041 30.7289 27.404 31.2861C26.9984 30.3184 26.611 29.3968 26.2252 28.4719C25.2014 26.0088 24.1825 23.5424 23.1488 21.0842C23.0334 20.8089 23.0499 20.6408 23.2807 20.4462C23.6978 20.0951 24.0869 19.7126 24.5156 19.3136ZM29.3016 24.0205C28.075 23.3561 26.9177 22.7296 25.6465 22.0421C26.2516 23.361 26.8056 24.5679 27.3776 25.8175C28.0289 25.2092 28.6389 24.6387 29.3016 24.0205Z" fill="white"/>
<path d="M9.68756 84.4618C9.46993 82.8197 9.25726 81.2173 9.03634 79.5488C9.62985 79.4647 10.1986 79.3839 10.8086 79.2982C11.1285 81.6789 11.445 84.0299 11.7682 86.4336C8.23345 86.9084 4.72182 87.3799 1.14094 87.8613C0.822752 85.4939 0.507859 83.1478 0.184723 80.749C0.774941 80.6666 1.35032 80.5875 1.97351 80.5017C2.19608 82.1388 2.4137 83.7512 2.63792 85.4065C3.46884 85.296 4.26844 85.1905 5.13233 85.0767C4.94933 83.6803 4.76798 82.3037 4.58333 80.8859C5.17025 80.8051 5.7176 80.7292 6.30782 80.6468C6.49906 82.0548 6.68701 83.433 6.8799 84.8426C7.82458 84.7124 8.73134 84.5904 9.68756 84.4618Z" fill="white"/>
<path d="M122.943 131.602C121.038 133.079 119.171 134.525 117.264 136.004C116.89 135.522 116.533 135.064 116.151 134.573C117.46 133.555 118.748 132.555 120.063 131.534C119.544 130.865 119.043 130.217 118.522 129.546C117.406 130.41 116.314 131.254 115.177 132.134C114.822 131.678 114.474 131.231 114.102 130.751C115.215 129.886 116.306 129.038 117.44 128.156C116.865 127.411 116.298 126.676 115.709 125.914C114.402 126.926 113.109 127.925 111.779 128.954C111.406 128.473 111.053 128.016 110.677 127.531C112.583 126.054 114.459 124.6 116.369 123.12C118.563 125.949 120.736 128.753 122.943 131.602Z" fill="white"/>
<path d="M104.2 10.7176C103.964 11.2897 103.753 11.8024 103.532 12.3349C102.223 11.8008 100.945 11.2798 99.6199 10.739C99.2622 11.6112 98.9094 12.4685 98.5434 13.3604C100.085 13.9935 101.59 14.6117 103.135 15.2448C102.911 15.7971 102.698 16.323 102.461 16.9083C100.241 15.9999 98.0405 15.0997 95.795 14.1814C97.1552 10.8561 98.5005 7.56868 99.8573 4.25159C102.088 5.16494 104.281 6.06181 106.503 6.97186C106.272 7.539 106.053 8.07646 105.82 8.64854C104.289 8.0237 102.78 7.40876 101.239 6.77897C100.921 7.55219 100.609 8.31057 100.283 9.10687C101.587 9.64433 102.873 10.1719 104.2 10.7176Z" fill="white"/>
<path d="M82.9306 148.866C82.1706 148.913 81.465 148.954 80.6983 149C80.6176 147.714 80.5384 146.454 80.4642 145.257C79.6762 145.257 78.9244 145.269 78.1742 145.253C77.8132 145.244 77.4455 145.215 77.0944 145.134C75.4408 144.753 74.4829 143.599 74.4368 141.968C74.3922 140.392 75.3518 139.037 76.979 138.653C78.0292 138.406 79.1354 138.386 80.2186 138.289C80.8962 138.228 81.5771 138.211 82.2926 138.173C82.5053 141.749 82.7163 145.276 82.9306 148.866ZM80.1592 140.087C79.4371 140.135 78.781 140.15 78.133 140.229C77.2988 140.33 76.7383 140.938 76.6872 141.724C76.6328 142.549 77.007 143.154 77.7588 143.36C78.6111 143.594 79.4635 143.365 80.3521 143.355C80.2862 142.237 80.2252 141.195 80.1592 140.087Z" fill="white"/>
<path d="M125.838 36.1992C128.865 34.1928 131.812 32.2391 134.805 30.2542C135.223 30.879 135.628 31.489 136.05 32.1237C134.974 32.8392 133.928 33.535 132.842 34.2571C133.165 34.75 133.477 35.2232 133.787 35.6996C134.271 36.4481 134.634 37.2378 134.675 38.1512C134.738 39.4948 134.139 40.4643 133.003 41.1204C131.84 41.7931 130.674 41.7255 129.554 41.0116C129.217 40.7956 128.869 40.5417 128.638 40.2236C127.69 38.9129 126.786 37.5709 125.838 36.1992ZM131.33 35.2562C130.397 35.8761 129.507 36.4663 128.605 37.0664C128.979 37.6253 129.311 38.1594 129.683 38.6623C130.293 39.485 131.192 39.6465 131.998 39.1091C132.751 38.6062 132.914 37.7901 132.398 36.9065C132.075 36.3525 131.704 35.8282 131.33 35.2562Z" fill="white"/>
<path d="M6.21057 44.5908C6.55514 43.9033 6.87333 43.2686 7.2113 42.591C7.80152 42.8828 8.37031 43.1647 8.93909 43.4483C9.49963 43.7269 10.0585 44.0072 10.6586 44.3072C10.9406 43.75 11.206 43.2158 11.4797 42.6866C11.9446 41.7864 12.548 41.0149 13.4861 40.5615C15.5485 39.5641 18.1254 41.127 18.1287 43.4186C18.1303 44.0599 18.0298 44.7491 17.7792 45.331C17.1906 46.7011 16.485 48.0217 15.809 49.3999C12.6024 47.7925 9.42544 46.2015 6.21057 44.5908ZM15.2023 46.5791C15.4974 45.9872 15.7662 45.4514 16.0283 44.9139C16.0827 44.8018 16.1223 44.6815 16.1569 44.5611C16.391 43.7385 16.0481 42.9883 15.2683 42.6108C14.5396 42.258 13.8026 42.4261 13.3295 43.1499C12.9305 43.7615 12.6255 44.4358 12.2628 45.1101C13.2701 45.613 14.2131 46.0845 15.2023 46.5791Z" fill="white"/>
<path d="M57.0929 7.38896C57.3204 7.43017 57.4853 7.45325 57.6469 7.49282C59.1966 7.87201 60.0671 9.75148 59.3631 11.2468C59.1999 11.5947 58.9773 11.9475 58.6954 12.2014C57.2611 13.4857 55.5811 13.9902 53.6868 13.5813C52.6531 13.3571 51.9887 12.6762 51.6639 11.621C52.386 11.4051 53.0784 11.199 53.7874 10.988C54.0775 11.6507 54.61 11.9129 55.2777 11.8667C56.0724 11.8106 56.8011 11.56 57.21 10.805C57.6765 9.94602 57.0039 8.79691 56.0328 8.8068C55.6355 8.8101 55.2365 8.92385 54.8425 9.01123C54.5325 9.08047 54.2292 9.18599 53.8912 9.28491C53.7231 8.72107 53.5648 8.19185 53.3966 7.62307C53.9242 7.45655 54.4336 7.32136 54.9233 7.13506C55.7229 6.83336 56.018 6.29425 55.8432 5.53587C55.7097 4.95555 55.319 4.59449 54.6892 4.54998C54.0561 4.50546 53.4692 4.68022 52.9762 5.09898C52.6053 5.41552 52.4701 5.82439 52.5608 6.33217C51.8535 6.54155 51.1627 6.74433 50.4472 6.95701C50.1306 5.83263 50.4241 4.88301 51.2105 4.13122C52.4833 2.91451 54.0445 2.49576 55.7756 2.73316C57.7013 2.99695 58.9114 5.53257 57.2314 7.2142C57.1951 7.25212 57.1654 7.29828 57.0929 7.38896Z" fill="white"/>
<path d="M141.685 92.9278C141.613 92.9904 141.575 93.0119 141.552 93.0432C140.894 93.9351 140.01 94.2648 138.935 94.0555C137.747 93.823 136.967 93.0943 136.696 91.932C136.268 90.0872 136.672 88.394 137.912 86.9564C138.622 86.132 139.563 85.8567 140.691 86.109C140.52 86.8344 140.355 87.535 140.192 88.2291C138.825 88.3544 137.982 89.7706 138.492 91.0533C138.721 91.6319 139.168 91.871 139.763 91.9172C140.35 91.9617 140.788 91.7193 141.023 91.2017C141.21 90.7862 141.309 90.3295 141.44 89.8877C141.502 89.675 141.545 89.4574 141.606 89.2035C142.17 89.3354 142.709 89.4623 143.299 89.6008C143.191 90.074 143.072 90.5274 142.983 90.9873C142.787 91.9897 143.115 92.5651 143.992 92.791C144.371 92.8882 144.712 92.814 145.017 92.5717C145.617 92.0952 145.942 90.9181 145.599 90.2372C145.448 89.9355 145.152 89.7047 144.864 89.3749C145.004 88.7897 145.174 88.0857 145.342 87.3817C146.544 87.6752 147.329 88.6017 147.517 89.8959C147.695 91.1357 147.424 92.2914 146.851 93.3779C146.28 94.4594 145.416 95.1436 144.135 95.0727C142.801 94.9985 142.022 94.2302 141.685 92.9278Z" fill="white"/>
<path d="M26.6242 127.864C27.1732 128.389 27.6958 128.888 28.2382 129.404C27.4007 130.228 26.4264 130.461 25.363 130.13C23.5907 129.579 22.3393 128.408 21.8382 126.615C21.2859 124.635 22.9592 122.96 24.9722 123.377C25.0514 123.393 25.1322 123.405 25.1948 123.416C25.1239 122.945 24.9788 122.481 25.0019 122.03C25.0844 120.445 26.6176 119.323 28.3108 119.553C30.2001 119.811 32.2725 121.956 32.4439 123.847C32.5181 124.669 32.2576 125.38 31.6526 126.013C31.1102 125.497 30.5876 124.999 30.0715 124.508C30.6881 123.232 29.7121 121.66 28.3025 121.608C27.6925 121.585 27.3133 121.924 27.0248 122.407C26.7511 122.866 26.7742 123.342 27.0875 123.746C27.4287 124.184 27.8425 124.567 28.23 124.969C28.3141 125.058 28.4196 125.126 28.5399 125.225C28.1162 125.677 27.737 126.082 27.3298 126.514C26.9308 126.146 26.5549 125.775 26.1527 125.437C25.4767 124.869 24.7892 124.905 24.2205 125.515C23.899 125.861 23.777 126.265 23.9435 126.714C24.2073 127.421 24.6953 127.919 25.419 128.156C25.851 128.295 26.2483 128.209 26.6242 127.864Z" fill="white"/>
<path d="M137.791 47.9442C138.343 47.7217 138.858 47.5156 139.409 47.293C139.565 47.6804 139.705 48.0563 139.87 48.4207C139.984 48.6746 140.103 48.9351 140.271 49.1527C140.647 49.6407 141.131 49.7512 141.735 49.5319C142.279 49.334 142.62 48.9318 142.554 48.3564C142.498 47.8733 142.348 47.3705 142.117 46.9435C141.804 46.3681 141.304 46.2131 140.605 46.3368C140.342 45.6757 140.075 45.0063 139.794 44.3057C140.665 43.9495 141.492 44.0171 142.249 44.5018C143.779 45.4828 144.374 46.9963 144.503 48.7339C144.554 49.4214 144.402 50.0726 143.972 50.6315C143.044 51.8367 141.525 52.056 140.287 51.1723C140.198 51.1096 140.112 51.042 140.028 50.9778C139.997 51.0107 139.967 51.0289 139.966 51.047C139.941 52.1928 139.441 53.0303 138.365 53.4755C137.214 53.9519 136.131 53.7755 135.254 52.9232C133.813 51.5218 133.145 49.8105 133.582 47.7893C133.773 46.9006 134.375 46.3055 135.269 45.9395C135.544 46.6303 135.816 47.3112 136.093 48.0036C135.414 48.3729 135.223 48.9713 135.366 49.6522C135.531 50.4386 135.859 51.1558 136.711 51.4344C137.544 51.7065 138.517 50.9893 138.477 50.1122C138.461 49.7577 138.342 49.4033 138.233 49.0604C138.106 48.6894 137.945 48.335 137.791 47.9442Z" fill="white"/>
<path d="M21.6337 29.7826C22.1976 29.4941 22.801 29.293 23.467 29.4348C24.7744 29.7134 25.7059 30.8642 25.7108 32.2045C25.7158 34.2703 23.8264 36.5982 21.8348 36.9823C21.0138 37.1406 20.2884 36.9263 19.5844 36.3954C20.0395 35.8167 20.4846 35.2512 20.9248 34.694C22.2635 35.0567 23.3516 34.3923 23.6451 33.0503C23.7737 32.4601 23.5626 31.9622 23.0318 31.6093C22.4679 31.2335 21.9849 31.2071 21.482 31.6028C21.1787 31.8418 20.9314 32.1534 20.6725 32.4469C20.4698 32.676 20.2884 32.925 20.0675 33.2052C19.6092 32.8425 19.164 32.493 18.6958 32.1221C19.0255 31.6951 19.3536 31.2961 19.652 30.8773C19.9669 30.4355 20.1334 29.9558 19.84 29.4282C19.3882 28.6203 18.5474 28.4291 17.8204 28.9962C17.5714 29.1908 17.3505 29.4397 17.1725 29.7002C16.7257 30.358 16.7652 30.9235 17.2763 31.5582C16.8312 32.1221 16.3811 32.6909 15.9096 33.2877C15.0342 32.5788 14.7176 31.6654 14.8957 30.6235C15.1924 28.8808 16.1981 27.5965 17.7495 26.8019C19.5004 25.905 21.4392 26.9865 21.6337 28.9072C21.6584 29.1924 21.6337 29.4859 21.6337 29.7826Z" fill="white"/>
<path d="M69.2501 141.415C68.3862 141.289 67.6839 141.189 66.9898 141.088C66.7491 139.697 65.0905 138.978 63.8969 139.72C63.399 140.03 63.2441 140.506 63.2688 141.052C63.2952 141.629 63.6035 142.051 64.1492 142.208C64.7773 142.387 65.4285 142.48 66.1358 142.623C66.0616 143.16 65.9825 143.718 65.9 144.313C65.384 144.24 64.9043 144.163 64.4228 144.107C63.3001 143.975 62.4873 144.855 62.8352 145.849C63.0759 146.535 63.6875 146.74 64.3272 146.837C65.2158 146.972 65.7401 146.675 66.1589 145.833C66.8497 145.932 67.552 146.034 68.2906 146.14C68.2147 146.872 67.8867 147.437 67.3443 147.867C66.304 148.695 65.0955 148.794 63.8409 148.586C62.9918 148.446 62.1972 148.166 61.5014 147.623C60.1215 146.547 60.0968 143.942 62.1131 143.134C62.212 143.094 62.3043 143.038 62.4 142.989C62.1296 142.753 61.8493 142.56 61.635 142.311C60.4925 140.979 61.0151 138.775 62.7132 138.061C64.5465 137.29 66.3452 137.54 67.9674 138.668C68.401 138.968 68.7407 139.477 68.9781 139.964C69.1792 140.366 69.1594 140.872 69.2501 141.415Z" fill="white"/>
<path d="M81.526 7.41866C82.2563 7.46648 82.9652 7.51264 83.6709 7.56045C83.6791 9.10194 82.4031 10.6072 80.7363 10.8775C79.9515 11.0045 79.1074 10.9995 78.3276 10.8561C76.791 10.5709 75.7854 9.56356 75.3666 8.08142C74.8341 6.19536 74.9511 4.29777 75.7178 2.49414C76.3607 0.982325 77.5626 0.108539 79.2212 0.0129175C80.883 -0.0827044 82.3651 0.336053 83.3494 1.82314C83.7698 2.45952 83.9874 3.32671 83.9363 4.08674C83.2191 4.03728 82.502 3.98617 81.7782 3.93506C81.7634 3.84603 81.7502 3.79328 81.7452 3.74052C81.6298 2.53371 81.16 2.00779 80.0587 1.85281C78.9293 1.69454 78.1149 2.12649 77.7538 3.20801C77.2741 4.64893 77.1686 6.1492 77.467 7.63794C77.7489 9.03764 79.513 9.69051 80.7132 8.89915C81.1072 8.63537 81.2935 8.30399 81.526 7.41866Z" fill="white"/>
<path d="M129.381 114.172C128.973 114.777 128.569 115.374 128.15 115.994C127.116 115.171 126.552 114.177 126.577 112.867C126.61 111.084 127.995 109.132 129.647 108.583C130.397 108.334 131.167 108.296 131.922 108.506C133.783 109.02 135.363 110.019 136.515 111.566C138.383 114.075 136.914 117.854 133.867 118.483C132.878 118.688 131.957 118.457 131.03 117.953C131.441 117.343 131.84 116.747 132.243 116.146C132.573 116.258 132.883 116.439 133.2 116.451C133.571 116.466 134.006 116.429 134.309 116.245C135.615 115.445 135.836 114.006 134.805 112.89C133.846 111.851 132.675 111.068 131.348 110.58C130.008 110.087 128.641 111.035 128.518 112.468C128.478 112.928 128.611 113.325 128.908 113.669C129.05 113.839 129.21 113.993 129.381 114.172Z" fill="white"/>
<path d="M12.0419 100.205C13.0607 99.8093 14.0219 99.7351 14.9962 100.126C16.9516 100.911 18.2309 103.537 17.6275 105.545C17.3654 106.415 16.8592 107.139 16.1503 107.69C14.8182 108.724 13.3476 109.475 11.6462 109.683C9.42875 109.953 7.51302 108.483 6.95412 106.091C6.53537 104.295 7.2822 102.614 8.91767 101.745C9.23421 102.393 9.55075 103.041 9.87224 103.7C9.78321 103.771 9.70902 103.832 9.63153 103.89C8.70005 104.566 8.5055 105.22 8.93251 106.246C9.3727 107.302 10.1525 107.777 11.2142 107.565C12.6502 107.278 13.9444 106.635 15.0754 105.725C16.2492 104.78 16.119 103.112 14.871 102.253C14.3764 101.911 13.8471 101.954 13.2998 102.096C13.1877 102.126 12.9717 102.088 12.9321 102.014C12.6255 101.435 12.3518 100.841 12.0419 100.205Z" fill="white"/>
<path d="M90.8705 145.61C91.9586 145.385 92.9791 145.172 94.0326 144.954C94.1596 145.554 94.275 146.11 94.4036 146.718C91.5531 147.32 88.7306 147.917 85.8603 148.524C85.735 147.938 85.6146 147.371 85.4827 146.758C86.5609 146.527 87.6062 146.303 88.6844 146.07C88.0728 143.167 87.4694 140.297 86.8495 137.359C87.565 137.206 88.2755 137.052 89.0257 136.891C89.6456 139.809 90.2539 142.689 90.8705 145.61Z" fill="white"/>
<path d="M133.043 27.9048C132.585 28.317 132.161 28.6995 131.698 29.1166C130.964 28.3071 130.245 27.5141 129.498 26.6898C127.296 28.6714 125.108 30.6416 122.881 32.648C122.38 32.0973 121.896 31.5648 121.38 30.996C123.586 29.0078 125.774 27.0343 128 25.0279C127.276 24.2201 126.572 23.4337 125.845 22.6225C126.29 22.2203 126.722 21.8279 127.187 21.4075C129.139 23.5722 131.073 25.7187 133.043 27.9048Z" fill="white"/>
<path d="M13.5405 55.8676C10.6916 54.9394 7.89385 54.0294 5.06476 53.1078C4.73009 54.1266 4.4053 55.1175 4.05909 56.1677C3.48865 55.9863 2.93635 55.8132 2.33459 55.622C3.23641 52.8539 4.12833 50.1122 5.04003 47.3127C5.60717 47.4924 6.15617 47.6672 6.76123 47.8601C6.42655 48.8987 6.09847 49.9143 5.75555 50.981C8.5698 51.8993 11.3643 52.8126 14.2197 53.7441C13.9972 54.4465 13.7779 55.129 13.5405 55.8676Z" fill="white"/>
<path d="M69.1825 7.1532C67.796 7.30653 66.4457 7.45491 65.0543 7.60823C64.99 7.02461 64.929 6.47725 64.8647 5.88704C66.243 5.73371 67.5932 5.58368 68.9962 5.42871C69.0589 6.01069 69.1182 6.55639 69.1825 7.1532Z" fill="white"/>
<path d="M21.4837 116.436C21.0056 116.79 20.5687 117.115 20.0856 117.473C19.2613 116.357 18.4436 115.252 17.6077 114.121C18.0759 113.777 18.5243 113.445 19.0091 113.089C19.8334 114.202 20.6429 115.298 21.4837 116.436Z" fill="white"/>
<path d="M137.428 104.224C136.875 103.982 136.368 103.761 135.834 103.527C136.395 102.246 136.939 100.998 137.501 99.7136C138.035 99.9461 138.541 100.167 139.094 100.408C138.54 101.677 137.997 102.922 137.428 104.224Z" fill="white"/>
</svg>
