<svg width="89" height="107" viewBox="0 0 89 107" fill="none" xmlns="http://www.w3.org/2000/svg">
<path d="M13.1715 48.4299C11.9071 51.0578 11.936 53.9419 11.5146 56.8177C11.2212 56.7144 10.9733 56.6359 10.7337 56.5409C9.39906 56.0202 8.06446 55.512 6.73812 54.9707C4.35815 54.0039 2.30046 52.5412 0.432847 50.8016C-0.141487 50.2686 -0.141503 50.2521 0.416303 49.7315C1.04022 49.153 1.7096 48.6241 2.31285 48.0209C3.4326 46.897 4.21352 45.5376 4.91594 44.1286C4.97792 44.0088 5.06469 43.8642 5.04403 43.7485C4.89528 42.8478 5.46961 42.2156 5.86214 41.5214C6.56043 40.2942 7.27113 39.0712 7.99421 37.8606C8.10164 37.6829 8.31649 37.5713 8.4735 37.4226C8.64704 37.2573 8.86191 37.1085 8.9776 36.9102C10.8411 33.6667 13.5929 31.6627 17.2786 30.9562C17.3736 30.9396 17.4686 30.9272 17.5637 30.9272C17.5967 30.9272 17.6298 30.9562 17.7703 31.0264C17.6504 31.3032 17.5554 31.6007 17.4025 31.8734C16.2745 33.8815 15.13 35.8772 14.0061 37.8853C13.9152 38.0506 13.9028 38.2572 13.8532 38.4473C14.064 38.4308 14.283 38.4473 14.4813 38.3853C15.1259 38.1828 15.758 37.9432 16.4026 37.7407C17.5637 37.3771 17.9231 36.3813 18.2413 35.3773C18.2909 35.2161 18.0141 34.9476 17.886 34.7327C19.2288 34.0096 19.2123 32.5883 19.4974 31.3363C19.6172 30.8115 19.2495 30.4355 18.7082 30.386C18.1587 30.3364 17.6009 30.3736 17.01 30.3736C17.4067 30.2041 17.8157 30.0058 18.2413 29.8529C18.4933 29.762 18.7702 29.7414 19.0346 29.6877C20.2783 29.4191 20.5882 29.0431 20.6667 27.7581C20.6833 27.5143 20.8444 27.2746 20.8444 27.0309C20.8444 26.7168 20.8155 26.3656 20.6791 26.0888C20.08 24.8781 19.2867 23.8162 18.1669 23.0188C19.7742 23.3204 20.737 24.5311 21.7741 25.6632C22.2616 23.4774 19.7742 21.585 17.1215 22.0643C17.4067 21.5437 17.481 21.5024 18.5884 21.2917C16.7042 20.362 14.7581 20.1182 12.8327 19.7711C14.2995 19.6761 15.7333 19.8538 17.1422 20.2545C17.8116 20.4446 18.4809 20.6347 19.1627 20.7917C19.328 20.8289 19.5222 20.7421 19.7577 20.7049C20.3444 21.0892 21.0097 21.5437 21.6915 21.9693C22.0427 22.1883 22.3897 22.2296 22.5674 21.6511C22.8938 22.0478 23.1789 22.399 23.4268 22.6965C23.778 22.2668 23.9888 21.8123 24.3483 21.6222C24.7325 21.4156 25.249 21.4611 25.7076 21.3991C25.7159 21.4528 25.7283 21.5106 25.7366 21.5644C25.5258 21.6387 25.3151 21.709 25.1085 21.7916C24.2987 22.1263 24.1293 22.8576 24.7036 23.5063C24.8317 23.651 25.0135 23.7915 25.0507 23.9609C25.1994 24.7005 25.9018 24.9525 26.4224 25.4607C26.4224 25.1137 26.4224 24.7666 26.4224 24.4154C26.4803 24.3988 26.534 24.3782 26.5919 24.3617C26.7324 24.7377 27.0092 25.1178 26.9968 25.4897C26.9431 26.9895 27.9141 28.0721 28.3769 29.3571C28.4512 29.3323 28.5256 29.3034 28.6041 29.2786C28.3479 28.5101 28.0876 27.7374 27.7984 26.878C28.0422 26.973 28.1702 27.0226 28.3397 27.0846C28.3397 26.3119 28.3934 25.5723 28.319 24.8492C28.2818 24.4773 28.0587 24.0972 27.8356 23.7832C27.4472 23.246 27.4017 22.9816 27.7901 22.4197C27.8851 22.6428 27.9719 22.8535 28.0793 23.1138C28.5008 22.7626 28.5793 22.4238 28.4016 21.9899C27.9389 20.8785 27.2943 19.9075 26.3398 19.1637C26.2241 19.0728 26.1208 18.9737 25.906 18.7836C27.472 19.2753 28.5917 20.0562 29.1412 21.5313C29.3644 22.1222 29.6743 22.6841 29.9428 23.2502C30.699 23.275 31.0832 22.8287 31.3931 22.1222C31.4799 22.7915 31.2196 23.1717 30.8849 23.5353C30.3602 24.1055 30.356 24.3121 30.8188 24.9401C31.0213 25.217 31.232 25.4938 31.3807 25.8409C31.2072 25.7582 31.0337 25.6715 30.7981 25.5558C30.7981 26.1218 30.7981 26.6259 30.7981 27.1672C31.4882 27.0887 32.1947 26.6879 32.7153 27.4978C32.0997 27.192 31.5997 27.3821 31.1411 27.7911C30.7568 28.1341 30.5378 28.5101 30.6246 29.0596C30.7155 29.6505 30.7031 30.2579 30.7899 30.8487C30.8436 31.2165 30.9841 31.5759 31.0998 31.9767C30.6494 32.0057 30.5957 32.3527 30.5791 32.799C30.5419 33.8237 30.7031 34.7947 31.1659 35.7533C31.0295 35.6748 30.8932 35.5963 30.6411 35.4558C30.6411 35.7078 30.6081 35.8896 30.6494 36.0549C30.7486 36.464 30.7857 36.9557 31.4097 36.84C31.5708 38.1333 31.9716 38.6415 32.9798 38.7696C32.9674 37.8771 32.6492 37.1168 32.1245 36.4516C31.6204 35.807 31.4923 35.5508 31.608 34.9352C31.7237 35.0591 31.827 35.1748 31.9303 35.2905C31.9055 34.5096 32.3972 33.6832 31.4799 33.018C31.7774 33.018 31.9261 33.018 32.0832 33.018C32.4302 31.8528 33.3434 31.547 34.4796 31.5057C34.521 30.1959 34.0871 29.167 32.9632 28.4192C33.3392 28.5101 33.7194 28.6051 34.1408 28.7084C34.2483 27.7705 33.5293 27.1342 33.3021 26.2665C33.5872 26.345 33.8185 26.4111 34.1656 26.5061C33.8723 25.1054 32.9839 24.1757 32.203 23.151C32.8765 23.5973 33.5541 24.0476 34.2276 24.4939C34.2648 24.465 34.2979 24.436 34.335 24.4071C34.1284 23.965 33.926 23.5229 33.6574 22.9403C34.678 23.7336 35.2151 24.9029 36.4671 25.3244C36.4547 25.0434 36.4423 24.8079 36.4299 24.4773C36.6902 24.7542 36.8803 24.9856 37.1075 25.1798C37.2026 25.2624 37.4505 25.3285 37.4959 25.2789C37.6447 25.1178 37.7687 24.9112 37.8306 24.6963C37.8554 24.6137 37.7191 24.4236 37.6116 24.3658C37.1241 24.0972 36.6241 23.8617 36.0994 23.5972C36.1242 23.7708 36.1531 23.965 36.1903 24.2212C34.1119 22.275 31.7939 20.7297 29.3933 19.1389C29.2487 19.2712 29.0834 19.424 28.914 19.581C28.9223 19.5852 28.8933 19.5769 28.8933 19.5645C28.7653 18.6886 28.1537 18.2093 27.5339 17.6515C26.8604 17.0482 26.3853 16.226 25.8192 15.4987C25.8523 15.4574 25.8812 15.4161 25.9142 15.3789C26.1498 15.412 26.3853 15.445 26.6208 15.4822C26.7158 14.7385 26.5795 14.598 25.6126 14.3253C25.6126 13.9286 25.7118 13.5444 25.5919 13.2469C25.311 12.5403 24.9226 11.8751 24.5507 11.1313C24.9928 10.4661 24.9928 10.4661 23.9557 9.78846C24.1582 9.75127 24.3069 9.72235 24.6209 9.6645C24.3235 8.6026 24.026 7.5531 23.7119 6.43749C23.526 6.73499 23.3442 7.02422 23.1459 7.34238C22.0592 4.99959 20.2122 3.69805 17.6629 3.21875C18.1628 3.11545 18.6628 3.01215 19.3156 2.8758C18.4396 2.30973 17.7785 1.64036 16.8406 1.31807C15.9233 0.999919 15.0391 0.582597 14.1383 0.206595C14.1631 0.136353 14.1838 0.0702422 14.2086 0C14.3738 0.0413189 14.5391 0.0785065 14.7044 0.123957C14.8738 0.169408 15.0391 0.21899 15.2085 0.268573C18.1298 1.13214 21.0138 2.10727 23.5549 3.8344C24.4598 4.45005 25.3068 4.82192 26.3811 4.54095C26.472 4.51616 26.5753 4.52029 26.6704 4.52029C26.6993 4.52029 26.7323 4.54508 26.815 4.5864C26.534 4.71862 26.2861 4.83845 26.034 4.95414C26.0423 5.01199 26.0547 5.0657 26.063 5.12355C26.7365 5.06157 27.41 5.39626 28.0835 4.9748C28.7611 4.54922 29.509 4.56574 30.3064 4.6897C29.8561 4.8839 29.4387 5.0657 29.0173 5.24751C29.0338 5.30948 29.0503 5.3756 29.0627 5.43757C29.8354 5.71854 30.6039 5.99951 31.3766 6.28048C31.4138 6.29288 31.4592 6.28048 31.4882 6.30114C33.0541 7.24734 34.6201 8.19355 35.7812 9.87523C35.4713 9.67277 35.2936 9.53641 35.0994 9.43312C34.1945 8.96208 33.2897 8.49104 32.3807 8.03654C32.2113 7.9539 32.0088 7.89605 31.8228 7.89605C31.5295 7.90018 31.2361 7.96629 30.9427 8.00348C31.0047 8.24726 31.0708 8.49518 31.1783 8.92076C30.8684 8.6274 30.5874 8.45799 30.4428 8.21007C29.79 7.06554 29.1702 6.96637 28.3149 7.85886C27.9347 7.59029 27.5877 7.268 27.1786 7.07794C26.6538 6.83415 26.2696 7.11926 26.2406 7.69772C26.2324 7.87126 26.2324 8.0448 26.2324 8.21834C26.2324 9.1067 26.4266 9.37527 27.2819 9.64797C27.4472 9.70169 27.6124 9.74714 27.8149 9.80912C27.3645 11.0735 27.6248 12.2717 28.0298 13.4824C28.1992 13.9947 28.4347 14.2302 28.9636 14.1683C29.071 14.1559 29.1826 14.2013 29.2941 14.222C28.9718 15.9698 30.1866 18.1597 31.8848 17.8952C31.7857 19.1803 32.9013 19.61 33.6615 20.519C33.5665 19.4612 33.4921 18.5894 33.4054 17.6267C33.7111 17.7878 33.9219 17.8994 34.1367 18.0109C34.3268 17.23 34.4673 16.4697 34.7028 15.7425C35.0499 14.6806 35.6035 13.7716 36.7522 13.3791C36.8927 13.3295 37.0125 13.1188 37.0704 12.9618C37.2191 12.5444 37.3265 12.1106 37.4794 11.5776C36.7026 11.6561 36.7646 12.2635 36.6448 12.8089C36.3183 12.2387 36.3266 11.7718 36.7109 11.3214C37.2191 10.7181 37.7191 10.1025 38.219 9.49509C38.2438 9.46617 38.2645 9.41659 38.2934 9.40832C39.752 9.00753 40.88 7.71838 42.5451 7.88779C42.3055 7.97869 42.0451 8.05306 41.8096 8.17289C41.4171 8.37122 40.9957 8.54889 40.661 8.8216C40.0908 9.2885 40.0371 9.71822 40.4544 10.3297C40.7643 10.7884 41.1527 11.1974 41.4873 11.6395C42.0741 12.4163 42.6484 13.2014 43.2517 14.0113C43.3756 13.908 43.5574 13.7509 43.8343 13.5154C43.9871 14.8376 43.8673 16.0111 43.3178 17.135C43.8508 17.2383 44.0946 17.0854 44.1442 16.6102C44.1979 16.1309 44.2351 15.6516 44.3879 15.1599C44.421 15.5979 44.4954 16.04 44.4788 16.478C44.454 17.1102 44.8259 17.2465 45.4209 17.3209C44.9044 16.1061 44.6978 14.9203 44.9044 13.5939C45.1565 13.8171 45.3341 13.9741 45.5697 14.1848C45.7267 13.8873 45.8382 13.6022 46.0076 13.3584C46.3795 12.8213 46.772 12.2924 47.1687 11.7759C47.5199 11.3214 47.9248 10.9041 48.2513 10.433C48.6975 9.78433 48.6107 9.23892 47.9538 8.80094C47.429 8.45386 46.8299 8.21834 46.3217 7.96629C48.2099 7.99108 49.2677 8.7183 49.8792 10.5115C49.6974 10.4578 49.5528 10.4124 49.3255 10.3463C49.4123 10.9082 49.4908 11.433 49.5652 11.9205C49.0322 12.1436 48.4702 12.2593 48.0612 12.5775C47.5777 12.9535 47.1935 13.4782 46.8299 13.9865C46.7183 14.1435 46.7307 14.5401 46.8505 14.6724C46.9786 14.8087 47.3092 14.7798 47.5488 14.7839C47.6934 14.7881 47.8422 14.7178 48.0157 14.6765C47.7182 14.9946 47.4166 15.2632 47.1811 15.5814C47.0034 15.8252 46.8134 16.1227 46.7968 16.4078C46.7514 17.1969 47.2142 18.2299 47.7968 18.8373C47.9662 18.2836 48.0695 17.6845 48.8008 17.5275C48.6934 17.8167 48.495 18.0936 48.5364 18.3291C48.5777 18.5687 48.8504 18.7712 49.0239 18.9985C49.5487 18.5935 50.0321 18.2754 50.4412 17.8787C50.656 17.6721 50.8213 17.3457 50.8791 17.0482C51.0155 16.3375 50.9783 15.6144 51.4493 14.9657C51.6559 14.6806 51.5857 14.1889 51.6188 13.7881C51.6394 13.5237 51.6229 13.2551 51.6229 13.0981C52.1518 13.313 52.6848 13.5567 53.2385 13.7303C53.3665 13.7716 53.6351 13.6105 53.726 13.47C54.5111 12.2469 54.8995 10.8834 55.1515 9.33808C54.5524 9.51162 54.0524 9.65624 53.4409 9.83391C55.168 7.4622 57.5563 6.30527 60.1387 5.44584C60.1553 5.38386 60.1676 5.31775 60.1842 5.25577C59.7627 5.07397 59.3371 4.8963 58.9157 4.71449C58.9198 4.66904 58.9239 4.61946 58.9322 4.57401C59.5602 4.65665 60.2751 4.58227 60.7957 4.86324C61.5973 5.30122 62.3617 5.11529 63.2005 4.99959C62.9443 4.86737 62.6922 4.73515 62.4361 4.5988C62.4361 4.56988 62.4361 4.54508 62.4361 4.51616C62.9525 4.56161 63.4649 4.61946 63.9814 4.63599C64.2004 4.64425 64.4689 4.61946 64.6301 4.49963C67.353 2.48327 70.4685 1.34287 73.6624 0.363607C74.0673 0.23965 74.4805 0.136353 74.8937 0.0247919C74.9268 0.0165281 74.9681 0.0371874 75.0673 0.185936C74.1913 0.557806 73.2988 0.892489 72.4476 1.31394C71.5923 1.7354 70.7825 2.24362 69.952 2.71465C69.9726 2.7725 69.9933 2.83035 70.0139 2.89233C70.518 2.99976 71.0221 3.10719 71.5221 3.21461C68.9975 3.68152 67.1671 4.97893 66.0473 7.32998C65.8573 7.02422 65.6796 6.73912 65.4895 6.43336C65.1755 7.52418 64.878 8.55302 64.564 9.63558C64.8491 9.69343 65.0267 9.73061 65.2333 9.77193C64.9441 9.98266 64.5722 10.1355 64.4359 10.4041C64.3367 10.5983 64.5516 10.9537 64.6466 11.3255C63.4773 12.9411 63.25 13.6476 63.7872 14.3088C63.1095 14.4079 62.4526 14.5401 62.5228 15.4905C62.779 15.4492 63.0186 15.412 63.3823 15.3541C62.7253 16.383 62.1923 17.3953 61.2295 18.0357C60.7915 18.325 60.5065 18.6142 60.4734 19.1389C60.4651 19.2836 60.3742 19.424 60.2627 19.7257C60.1387 19.4282 60.0478 19.2174 59.9817 19.0522C57.4241 20.6967 55.0937 22.2668 52.9534 24.2873C53.036 23.9898 53.0897 23.7956 53.1517 23.5725C52.4906 23.9154 51.8584 24.2418 51.1147 24.622C51.2882 24.8657 51.4535 25.0971 51.6229 25.3326C51.9452 25.0889 52.2716 24.8451 52.6145 24.5889C52.6063 24.7955 52.5939 25.0269 52.5815 25.3244C53.8334 24.9195 54.3665 23.7667 55.3292 23.0725C55.1267 23.5063 54.9243 23.9402 54.7218 24.374C54.759 24.4112 54.792 24.4526 54.8292 24.4897C55.2424 24.2129 55.6473 23.9237 56.0729 23.6675C56.577 23.3659 57.0687 23.0808 56.7464 22.3246C56.9572 22.6097 57.1679 22.8948 57.3745 23.1758C57.4282 23.1262 57.486 23.0766 57.5397 23.027C57.5026 22.8576 57.4695 22.6924 57.4282 22.5023C57.8331 22.6263 58.1843 22.7957 58.5479 22.837C59.209 22.9155 59.676 22.5601 59.9363 21.7792C60.4569 20.2091 61.5683 19.3001 63.2459 18.7919C63.031 18.9861 62.9195 19.0976 62.7955 19.1927C61.8411 19.9405 61.2006 20.9198 60.7461 22.0313C60.5808 22.4403 60.6717 22.775 61.0808 23.1221C61.1841 22.8535 61.2667 22.6345 61.3494 22.4279C61.7502 22.8659 61.8039 23.2295 61.3989 23.6592C61.0188 24.0642 60.8122 24.5021 60.804 25.0558C60.804 25.155 60.7502 25.2789 60.6759 25.345C59.7007 26.2747 59.4528 27.3779 59.9487 28.6216C59.961 28.6547 59.9569 28.696 59.9611 28.7332C59.9156 28.7704 59.8743 28.8076 59.8288 28.8406C59.5809 28.5473 59.3206 28.2663 59.0933 27.9605C58.8413 27.6258 58.5314 27.2953 58.4157 26.9152C58.3 26.5268 58.3909 26.0764 58.3909 25.5516C58.1513 25.6673 57.9612 25.7582 57.6637 25.8987C57.9323 25.5062 58.143 25.1963 58.3537 24.8905C58.3372 24.8368 58.3207 24.779 58.3 24.7253C57.7877 24.9153 57.267 25.093 56.7712 25.3161C56.6845 25.3533 56.6142 25.6508 56.6721 25.7458C57.329 26.8119 57.3828 27.9275 57.0191 29.0968C56.9654 29.2662 56.9902 29.4604 56.9695 29.8158C57.5728 29.3489 58.0521 28.9852 58.5893 28.5679C58.6058 28.7993 58.6099 28.9481 58.6306 29.0927C58.7339 29.8158 59.2214 30.1835 59.9404 30.0347C60.3288 29.9562 60.7007 29.8116 61.1428 29.6794C60.0024 31.295 59.2834 31.5388 57.767 30.7537C57.5191 31.4933 57.2753 32.2164 57.015 32.9808C57.1844 32.9973 57.3414 33.0097 57.6017 33.0304C56.858 33.6832 57.1142 34.4104 57.3786 35.1128C57.5811 35.6459 57.4365 36.0136 57.0853 36.4226C56.5233 37.0755 56.2424 37.8606 56.1638 38.7324C57.1183 38.7572 57.6926 38.0547 57.7174 36.9267C58.4033 36.7739 58.6182 36.402 58.4818 35.5302C58.3124 35.6087 58.1513 35.6872 57.9653 35.7739C58.1761 35.1707 58.3289 34.5716 58.5975 34.0344C58.7173 33.7948 59.0644 33.551 59.333 33.5262C59.9693 33.4601 60.1924 32.9477 60.5643 32.5883C60.618 32.5345 60.6759 32.4891 60.8783 32.4602C60.7709 33.208 60.6635 33.96 60.5395 34.8195C59.9321 35.588 59.3247 36.5218 59.2132 37.6953C59.176 38.0795 59.1677 38.3894 58.7669 38.6621C58.4901 38.8522 58.3992 39.348 58.2835 39.724C58.1926 40.0133 58.2257 40.3438 58.1471 40.6372C58.0149 41.1206 57.6968 41.3727 57.172 41.3272C57.329 40.8644 57.4984 40.4389 57.61 39.9926C57.6472 39.8521 57.5852 39.6083 57.4819 39.5381C57.3869 39.4761 57.139 39.534 57.0274 39.6249C56.7754 39.8273 56.3828 39.9761 56.544 40.443C56.5605 40.4926 56.4985 40.5835 56.4531 40.6372C55.9614 41.1991 55.4614 41.7569 54.9656 42.3106C54.9491 42.3313 54.8995 42.3189 54.9739 42.3106C55.0276 41.6619 55.259 40.9471 55.0813 40.3521C54.9697 39.9843 54.2301 39.8067 53.7756 39.5464C53.726 39.5877 53.6764 39.6331 53.631 39.6745C53.8624 40.3273 54.0938 40.9843 54.321 41.6371C54.2838 41.6578 54.2508 41.6784 54.2136 41.695C53.6103 40.6992 53.0029 39.6992 52.3336 38.596C52.1766 39.0051 52.0732 39.2695 51.9865 39.5009C51.6063 38.7406 51.2262 37.9762 50.8461 37.216C50.7841 37.2325 50.7263 37.2532 50.6643 37.2697C50.623 37.3771 50.5858 37.4887 50.5279 37.6374C50.1437 37.2242 49.8503 36.654 48.9991 36.84C49.3669 37.1788 49.6644 37.4391 49.9453 37.7118C50.1932 37.9515 50.5445 38.1663 50.6354 38.4638C50.8296 39.0753 51.2717 39.3852 51.7468 39.7282C53.9533 41.3272 55.5854 43.4138 56.8084 45.831C56.9985 46.2111 57.201 46.5871 57.3786 46.9714C57.4323 47.0871 57.4117 47.2317 57.4282 47.3804C57.986 47.2854 58.2794 47.6531 58.4198 48.1531C58.6678 49.0291 58.8785 49.9133 59.0727 50.8016C59.1181 51.0124 59.052 51.2562 59.0107 51.4793C58.9446 51.8098 58.8537 52.1363 58.7752 52.4668C58.8289 52.4957 58.8868 52.5246 58.9405 52.5536C59.1471 52.4213 59.3619 52.3057 59.552 52.1528C61.7501 50.3802 63.9855 48.6531 66.1176 46.8061C67.1919 45.8764 68.0637 44.7112 69.357 44.0295C69.7826 43.8022 70.1958 43.5502 70.6172 43.3105C70.9147 43.1411 71.2659 43.042 71.2659 42.5874C71.2659 42.4965 71.4312 42.3726 71.5427 42.323C71.9807 42.1329 72.0551 41.9098 71.7783 41.4842C71.3899 40.8851 71.5221 40.5587 72.1832 40.1785C73.1707 39.6125 74.1541 39.0381 75.1995 38.4349C73.7988 35.9516 72.4352 33.5262 71.0676 31.1008C71.1172 31.0512 71.1668 31.0016 71.2163 30.952C71.3775 30.9644 71.5428 30.9603 71.7039 30.9892C75.3895 31.7082 78.1125 33.7452 79.9677 36.9929C80.0792 37.1871 80.323 37.3069 80.5048 37.4639C80.6288 37.5713 80.7858 37.654 80.8643 37.7862C81.6328 39.0836 82.3931 40.3893 83.141 41.6991C83.5005 42.3271 84.0046 42.9056 83.8475 43.7237C83.8269 43.8229 83.9013 43.9468 83.9508 44.0501C84.8185 45.8144 85.8267 47.4755 87.372 48.7522C87.9216 49.2067 88.4298 49.7026 89 50.2191C85.8308 53.7146 81.6948 55.3426 77.3894 56.8094C76.9514 53.9749 77.001 51.0661 75.7656 48.5126C73.712 48.6737 72.2658 49.9505 70.6998 50.9628C67.0886 53.3014 63.3699 55.4376 59.5272 57.3714C59.1223 57.578 58.9653 57.8341 58.8702 58.2762C58.5893 59.5943 58.3042 60.9248 57.8662 62.1974C57.2919 63.8791 56.5729 65.5112 55.8911 67.2301C56.106 67.3499 56.3622 67.511 56.6349 67.635C61.2956 69.796 65.7953 72.2503 70.0263 75.1592C72.8774 77.1177 75.654 79.1919 78.4306 81.2578C79.6578 82.171 79.7115 82.8238 78.6785 83.9353C77.7282 84.9559 76.4514 85.303 75.0921 85.2782C74.8028 85.274 74.3979 85.0137 74.245 84.7534C72.241 81.3405 68.9397 79.3861 65.7953 77.2954C62.0725 74.8162 58.0893 72.7751 54.0648 70.8248C53.6682 70.6347 53.4946 70.7463 53.2632 71.0479C51.8708 72.8494 50.2883 74.4526 48.4 75.75C45.9622 77.4276 43.5285 77.5061 41.0287 75.9029C38.9628 74.5807 37.2852 72.8536 35.806 70.924C35.5953 70.6471 35.4383 70.5149 35.054 70.7009C30.5791 72.8742 26.1704 75.1798 22.0385 77.9606C20.3238 79.1134 18.6586 80.3612 17.0926 81.7082C16.2415 82.4354 15.6134 83.4312 14.9441 84.3526C14.2747 85.274 13.9689 85.4558 12.845 85.2245C11.6055 84.9683 10.4527 84.5675 9.78744 83.3527C9.33293 82.5263 9.34532 82.1255 10.0973 81.5429C11.903 80.1464 13.721 78.7663 15.568 77.4276C19.1297 74.8493 22.8194 72.4693 26.7034 70.4034C28.7198 69.3332 30.7857 68.3581 32.8269 67.3375C32.9632 67.2673 33.0913 67.1846 33.2525 67.0896C32.7443 65.7674 32.2278 64.4576 31.7443 63.1395C31.1369 61.4909 30.4056 59.8794 30.2279 58.0986C30.2114 57.9333 30.0172 57.7267 29.8561 57.6441C24.8151 55.1525 20.0511 52.19 15.3366 49.1489C14.9854 48.9216 14.5143 48.8844 14.1011 48.7522C13.8284 48.6572 13.5433 48.558 13.1715 48.4299ZM40.2354 22.4651C42.5988 21.8123 44.3218 19.4612 44.045 17.3044C43.4417 17.7878 42.8302 18.2878 42.2063 18.7671C41.3221 19.4406 40.3511 20.0356 40.2602 21.3743C38.595 20.0893 37.6158 18.2051 35.7729 17.2341C36.0084 17.011 36.3844 16.8292 36.4382 16.5772C36.6324 15.6805 36.715 14.7591 36.8555 13.7303C36.1407 14.3253 35.7977 15.0277 35.5953 15.788C35.1036 17.6432 35.1118 19.424 36.6365 20.9198C36.5911 20.9487 36.5456 20.9776 36.5001 21.0066C36.1985 20.8743 35.8969 20.7421 35.5622 20.5934C35.8101 22.1304 36.7191 23.2089 37.8265 24.2005C37.8802 23.494 37.9339 22.8287 37.9876 22.1676C38.0413 22.1717 38.0951 22.1759 38.1488 22.18C38.1818 22.3494 38.1694 22.5478 38.2603 22.6758C38.3265 22.7667 38.5744 22.8329 38.6653 22.7791C39.6693 22.18 40.6568 21.552 41.6567 20.9363C41.7683 20.8661 41.9047 20.8413 42.103 20.7669C41.4378 21.3826 40.8469 21.9321 40.2561 22.4816C40.0908 22.7791 39.7148 23.2502 39.7891 23.3452C40.2519 23.8947 39.9668 24.4154 39.8677 24.9525C39.8429 25.093 39.8635 25.2459 39.8635 25.3946C40.8139 25.3492 41.2849 25.0228 41.4336 24.341C41.57 23.7336 41.2436 23.1593 40.5577 22.7626C40.4337 22.6924 40.3428 22.5643 40.2354 22.4651ZM30.7609 54.9831C30.7816 57.3176 31.0543 59.4001 31.8228 61.4289C33.0335 64.6146 34.1574 67.8209 36.3514 70.519C37.9463 72.4817 39.6404 74.3163 41.8675 75.5889C43.731 76.6549 45.5573 76.6673 47.4166 75.56C49.6024 74.2584 51.3088 72.4652 52.8624 70.4943C54.8416 67.9862 56.0936 65.1104 57.2092 62.1478C58.3331 59.1605 58.6347 56.107 58.2298 52.9668C58.205 52.7767 58.0191 52.599 57.8951 52.4296C57.5852 52.0082 57.1555 51.6322 56.9737 51.1611C56.6762 50.3926 56.482 49.5703 56.3456 48.7522C56.2713 48.2977 56.4076 47.8102 56.4407 47.3391C56.4572 47.1119 56.5274 46.8433 56.4365 46.6615C56.0316 45.8516 55.6267 45.0294 55.1267 44.2733C53.3955 41.6578 51.1519 39.6538 48.1521 38.5795C47.71 38.4225 47.3836 38.5093 46.929 38.6787C45.4168 39.2489 43.8136 39.2241 42.3013 38.6911C41.8303 38.5258 41.4832 38.4225 41.0328 38.5878C37.0414 40.0794 34.4383 42.9882 32.7029 46.7772C32.6451 46.9053 32.7112 47.0953 32.7236 47.2523C32.7732 47.7399 32.9219 48.244 32.8517 48.7109C32.7236 49.5497 32.5294 50.3926 32.2278 51.1818C32.046 51.6528 31.608 52.0206 31.2898 52.4379C31.1824 52.5784 31.0089 52.7106 30.9882 52.8635C30.8808 53.632 30.8188 54.4047 30.7609 54.9831ZM14.6011 38.7696C14.5804 38.8274 14.5598 38.8811 14.5391 38.939C15.2953 39.3646 16.0514 39.786 16.8075 40.2116C17.2455 40.4595 17.5348 40.8273 17.2207 41.2983C16.8778 41.8189 16.8902 42.1495 17.4976 42.3891C17.5595 42.4139 17.6422 42.5007 17.6422 42.5585C17.6298 43.0709 18.0636 43.1494 18.3818 43.3436C19.1049 43.7898 19.8858 44.1658 20.5428 44.6988C21.3774 45.3765 22.0798 46.2152 22.9021 46.9135C24.6292 48.3762 26.3894 49.7976 28.1496 51.2148C28.8066 51.7437 29.5048 52.2272 30.2982 52.8139C30.3395 52.3222 30.3973 51.9627 30.3973 51.6032C30.3973 51.2479 30.2734 50.8843 30.3271 50.5455C30.4345 49.9009 30.637 49.2687 30.7981 48.6324C30.9304 48.1035 31.0213 47.554 31.6493 47.3515C31.7113 47.3309 31.7443 47.2069 31.7815 47.1284C32.5666 45.3517 33.4963 43.6659 34.7895 42.199C36.7646 39.9472 39.0867 38.2613 42.0782 37.6333C42.165 37.6168 42.2683 37.53 42.3013 37.4474C42.4955 36.9763 42.8922 36.8606 43.3384 36.8565C44.1896 36.8524 45.0408 36.8524 45.8919 36.873C46.334 36.8854 46.739 36.9929 46.896 37.4928C46.9167 37.5548 47.02 37.6126 47.0943 37.6374C48.1438 38.0176 49.1933 38.3936 50.2428 38.7654C50.3131 38.7902 50.3916 38.7985 50.4659 38.815C50.4825 38.7696 50.499 38.72 50.5155 38.6745C49.3958 38.1663 48.5364 37.0672 47.0861 37.216C47.2844 37.1086 47.4827 37.0052 47.7183 36.8772C47.4042 36.7078 47.1563 36.6003 46.9332 36.4516C46.0572 35.8607 46.0613 35.8566 45.1689 36.1128C45.1689 35.9062 45.1689 35.7078 45.1689 35.6169C44.5739 35.6169 44.0243 35.6169 43.4789 35.6169C43.4789 35.7533 43.4789 35.9351 43.4789 36.2119C42.355 35.2368 41.9873 36.6003 41.0617 36.7656C41.4832 36.9722 41.7229 37.0962 41.9666 37.216C41.9542 37.2656 41.946 37.3151 41.9336 37.3689C41.603 37.3275 41.2725 37.278 40.9419 37.249C40.7891 37.2366 40.5949 37.2201 40.4792 37.2945C39.5536 37.8688 38.6363 38.4679 37.7769 39.0216C37.6282 38.4101 38.719 38.0795 38.4256 37.2945C38.3595 37.2656 38.2975 37.2325 38.2314 37.2036C37.843 37.968 37.4505 38.7282 37.0704 39.4803C36.9877 39.2778 36.8761 39.0051 36.7067 38.6002C36.0498 39.6951 35.4465 40.6909 34.8433 41.6908C34.7978 41.666 34.7482 41.6371 34.7028 41.6123C35.1697 40.4306 35.6407 39.2489 36.1076 38.063C36.3349 37.4845 36.1861 37.1995 35.587 37.0342C35.4011 36.9846 35.211 36.9391 35.0209 36.8937C35.0251 36.8565 35.0292 36.8152 35.0333 36.778C35.2647 36.7077 35.4961 36.6334 35.7399 36.559C35.306 35.2161 33.9962 34.6501 33.2277 33.6171C33.3723 33.6088 33.4715 33.6502 33.5748 33.6873C34.24 33.927 34.5375 33.7369 34.554 33.0428C34.5664 32.642 34.554 32.237 34.554 31.7206C34.1078 31.8321 33.7566 31.9189 33.4012 32.0098C33.4054 32.0552 33.4095 32.1007 33.4177 32.1461C33.6161 32.1999 33.8103 32.2536 34.0458 32.3197C32.955 32.832 32.6244 33.7576 33.1781 34.7327C33.6781 35.6128 34.0499 36.5838 34.9094 37.216C34.9218 37.2242 34.9052 37.278 34.9094 37.2573C34.6119 37.154 34.2978 37.0424 33.9879 36.935C33.9632 36.9887 33.9384 37.0383 33.9136 37.092C34.178 37.4184 34.4383 37.749 34.7028 38.0754C34.9631 38.3977 35.2275 38.72 35.5044 39.0588C33.6946 39.7571 33.645 39.8811 34.2317 42.3023C33.6863 41.7032 33.1616 41.133 32.641 40.5587C32.6286 40.5463 32.6203 40.5215 32.6203 40.505C32.6575 39.5629 31.7691 39.4844 31.2361 38.8853C30.9923 39.9472 31.4716 40.6124 31.9344 41.29C30.7568 40.7611 30.0461 39.9389 30.2982 38.4969C30.2279 38.5051 30.1577 38.5093 30.0874 38.5175C30.0213 38.815 29.9552 39.1084 29.8891 39.4017C29.3148 39.0795 29.6784 38.0465 28.7115 37.8729C29.1536 39.1621 29.5503 40.3479 29.9759 41.5255C30.3106 42.4552 30.5957 42.5833 31.5254 42.3313C31.3229 43.0461 31.1783 43.1122 30.0296 42.951C29.9181 44.0088 30.5709 44.4964 31.4468 44.8352C30.5544 44.9839 29.8313 44.7608 29.228 44.108C28.8396 43.6865 28.4471 43.2527 27.7984 43.2031C26.9555 43.137 26.1167 43.0296 25.2573 42.9386C25.7737 43.9551 26.4018 44.8435 27.7901 45.079C26.877 45.6037 26.2159 45.3393 25.6333 44.9013C25.0755 44.4881 24.5879 43.9799 24.0012 43.4593C24.8771 46.4797 27.2571 47.9548 29.6825 49.4009C29.2817 49.3513 28.9057 49.2728 28.5504 49.1406C26.9266 48.5456 25.5465 47.5581 24.2367 46.4549C23.1169 45.5128 22.2162 44.3848 21.4022 43.17C21.2576 42.9552 20.8651 42.8519 20.5758 42.8271C20.4849 42.8188 20.3568 43.2403 20.1874 43.5874C20.0098 43.0915 19.8569 42.6164 19.6709 42.1536C19.5553 41.8644 19.3941 41.5958 19.2578 41.3148C19.3652 40.3438 18.9603 39.41 18.7909 38.439C18.7206 38.4184 18.6504 38.3936 18.576 38.3729C18.295 38.8894 18.0141 39.4059 17.7124 39.9554C16.8943 38.972 15.8076 38.6952 14.6011 38.7696ZM55.5399 20.3124C56.2837 19.581 57.4199 19.172 57.2794 17.8622C58.3372 18.0109 58.9611 17.4903 59.4156 16.697C59.8578 15.9243 60.0643 15.1021 59.8743 14.1807C60.1387 14.1641 60.3618 14.1848 60.5519 14.1228C60.7255 14.065 60.9486 13.9451 61.0106 13.7923C61.5146 12.5072 61.9113 11.1974 61.3576 9.78846C61.556 9.73474 61.7212 9.69343 61.8865 9.63971C62.7707 9.36287 62.9567 9.10256 62.9484 8.16876C62.9484 8.01588 62.9443 7.85886 62.9401 7.70598C62.9153 7.08207 62.5517 6.80936 61.9857 7.0738C61.5807 7.25974 61.2378 7.58203 60.8618 7.84647C60.0767 6.97051 59.3371 7.07794 58.7711 8.1357C58.6141 8.42906 58.2959 8.63979 58.048 8.88357C58.0149 8.84639 57.9819 8.8092 57.9488 8.77201C58.0934 8.56129 58.2422 8.35469 58.4157 8.10265C57.4323 8.08612 56.9572 8.40014 56.6431 9.16041C55.9366 10.871 55.6102 12.6477 55.668 14.503C55.606 14.5484 55.5482 14.598 55.4862 14.6434C55.3044 14.3583 55.1267 14.0774 54.9077 13.7344C54.9821 15.2302 55.0482 16.5813 55.1143 17.9407C55.2672 17.8663 55.4656 17.7671 55.7754 17.6184C55.6887 18.5729 55.6143 19.4406 55.5399 20.3124ZM21.2989 36.8854C21.3402 36.9267 21.3857 36.9722 21.427 37.0135C21.1047 37.811 20.4229 38.4845 20.7742 39.4926C21.0634 40.3232 21.3278 41.1454 22.0179 41.8974C21.5179 38.9762 21.7038 38.2366 23.2037 37.0631C22.993 37.5755 22.7699 38.0424 22.6046 38.5299C22.3401 39.3232 22.6046 40.0835 23.0921 40.6454C23.3194 40.9099 23.9681 40.8066 24.4268 40.8686C24.4639 40.8727 24.5053 40.8603 24.5424 40.8603C25.8812 40.7529 27.1331 40.9388 28.1579 41.9098C28.2198 41.9677 28.319 41.9842 28.5256 42.071C28.3686 41.3313 28.1992 40.6992 28.1041 40.0546C27.9182 38.753 27.2406 37.968 25.9142 37.7242C25.6043 37.6664 25.3358 37.4019 25.0507 37.2325C26.0671 37.1499 26.4059 36.8193 26.1621 35.9144C26.0217 35.3938 25.6498 34.9269 25.3605 34.4559C25.1374 34.0923 24.8606 33.803 24.402 34.1832C24.0301 32.1461 22.8897 31.295 21.6873 31.1421C20.4106 32.6792 20.7287 34.1832 21.8774 35.6624C21.8154 35.6872 21.7534 35.7078 21.6915 35.7326C21.2452 35.2657 20.7989 34.7947 20.3238 34.2989C19.6792 35.5054 18.9602 36.6954 19.8858 38.0424C20.3362 37.6746 20.8196 37.2821 21.2989 36.8854ZM48.2637 27.8407C48.3628 27.6754 48.4 27.5887 48.4537 27.5143C49.2388 26.502 49.4123 25.4029 48.962 24.2005C48.9248 24.1055 48.9743 23.9485 49.0322 23.8493C49.4247 23.1551 49.3958 22.9361 48.8008 22.4155C48.1686 21.8619 47.5323 21.3164 46.896 20.7669C46.9084 20.7504 46.9166 20.7297 46.929 20.7132C47.396 20.9404 47.8629 21.1636 48.3918 21.4197C48.4165 20.4364 47.8546 19.9033 47.2513 19.4116C46.5489 18.8373 45.8176 18.296 45.1028 17.73C44.9251 17.5895 44.7805 17.4077 44.5615 17.1887C44.8301 19.7918 45.6895 21.8453 48.4579 22.5478C47.6108 22.8907 47.1109 23.3865 47.2183 24.2542C47.3174 25.0599 47.9207 25.3492 48.6603 25.469C48.3669 25.593 48.0612 25.6136 47.8257 25.7582C47.5695 25.9152 47.272 26.1425 47.1852 26.4069C46.9001 27.2374 47.2265 28.1382 47.9124 28.6836C48.0942 28.8282 48.2719 28.9811 48.4537 29.1299C48.243 29.1877 48.0942 29.1588 47.9455 29.134C47.2927 29.0266 47.1935 29.0968 47.1563 29.7538C47.1315 30.1587 47.1232 30.5678 47.1356 30.9727C47.1439 31.2495 47.2059 31.5264 47.2431 31.8032C47.4951 31.7164 47.7472 31.6297 47.9703 31.5511C47.0117 34.3567 47.1233 35.3318 48.5942 36.2532C48.6892 35.9929 48.8545 35.7409 48.8463 35.5012C48.8256 34.9476 48.8215 34.4393 49.5652 34.1295C48.5488 33.6791 48.7306 32.9601 48.8463 32.2494C48.9124 31.8404 48.9413 31.4272 48.9909 30.9809C48.7264 30.9809 48.5446 30.9809 48.3422 30.9809C48.8421 30.1918 49.1561 28.1258 48.8173 27.8035C48.681 27.8118 48.5322 27.82 48.2637 27.8407ZM50.875 22.1263C50.937 22.1263 51.0031 22.1263 51.0651 22.1304C51.1147 22.8535 51.1684 23.5766 51.2262 24.3699C52.3708 23.2708 53.3955 22.2131 53.6186 20.6099C53.2839 20.7545 52.9823 20.8867 52.6765 21.0189C52.6311 20.9859 52.5856 20.9528 52.5402 20.9198C53.664 19.8661 54.007 18.5687 53.85 17.1143C53.6971 15.7012 53.3087 14.4079 51.97 13.4369C52.0609 14.2881 52.1724 15.007 52.1972 15.7301C52.222 16.3623 52.2385 16.9573 52.9162 17.2631C52.9286 17.2672 52.9162 17.3292 52.9162 17.3292C51.0733 18.3373 50.0734 20.205 48.4826 21.4611C49.119 21.8866 49.6892 22.275 50.2635 22.6552C50.3792 22.7337 50.5486 22.87 50.6312 22.8328C50.7387 22.7874 50.7965 22.6015 50.842 22.4651C50.8833 22.3618 50.8667 22.242 50.875 22.1263ZM44.5408 25.5971C44.7846 24.8988 44.9995 24.3203 45.1813 23.7336C45.2308 23.5683 45.2432 23.3328 45.1647 23.1965C44.921 22.7874 44.6234 22.4073 44.3177 21.9817C44.0946 22.3122 43.9252 22.6387 43.6855 22.9072C43.388 23.2419 43.3591 23.5601 43.5326 23.965C43.7392 24.4567 43.888 24.969 44.0904 25.5599C43.6607 25.0847 43.3054 24.6922 42.8963 24.2418C42.6153 25.2252 43.2021 25.8615 43.5698 26.6507C43.3178 26.4978 43.1814 26.4152 42.9004 26.2417C42.9707 26.9689 43.0079 27.5556 43.107 28.1341C43.1236 28.2208 43.4293 28.3241 43.5822 28.3076C43.7186 28.2911 43.8343 28.1093 43.9582 27.9977C44.0078 28.0266 44.0615 28.0597 44.1111 28.0886C43.9706 28.3531 43.8839 28.791 43.6855 28.8489C43.0327 29.0348 43.0616 29.4769 43.1029 29.9686C43.1236 30.2207 43.1401 30.4727 43.1401 30.7206C43.1401 31.1338 43.2641 31.4148 43.7144 31.5264C43.8921 31.5718 44.0243 31.7991 44.1194 31.8941C43.7723 32.0718 43.3798 32.1461 43.3219 32.3321C43.2393 32.5883 43.4087 32.9229 43.4707 33.2287C43.5285 33.2204 43.5905 33.2122 43.6483 33.2039C43.7227 33.0634 43.8012 32.9229 43.9128 32.7205C44.0698 33.0965 44.1979 33.4022 44.3673 33.7948C44.4954 33.4022 44.5904 33.1171 44.7144 32.7411C44.8342 32.9643 44.9086 33.1006 44.9829 33.237C45.0408 33.2452 45.0945 33.2535 45.1523 33.2659C45.235 32.9767 45.4581 32.6213 45.3631 32.4188C45.2474 32.1792 44.8548 32.0759 44.4995 31.8652C44.6524 31.7536 44.8548 31.6255 45.0408 31.4685C45.206 31.3322 45.454 31.1834 45.4746 31.0099C45.549 30.4562 45.5573 29.8943 45.549 29.3323C45.549 29.2249 45.392 29.0555 45.2763 29.0224C44.7226 28.8696 44.5904 28.4894 44.6276 27.9151C44.797 28.0762 44.9003 28.2498 45.0449 28.2911C45.1895 28.3324 45.5118 28.2663 45.5201 28.2126C45.6192 27.6011 45.6688 26.9854 45.7349 26.3698C45.6771 26.3532 45.6234 26.3367 45.5655 26.3202C45.4209 26.44 45.2763 26.564 45.0325 26.7623C45.4085 25.9276 46.02 25.2789 45.7556 24.2294C45.33 24.7087 44.9788 25.1013 44.5408 25.5971ZM50.6973 26.283C50.623 27.0391 50.5693 27.6135 50.5031 28.1837C50.4618 28.5431 50.5816 28.7869 50.875 29.0224C51.1312 29.2249 51.2965 29.543 51.5031 29.8116C51.4617 29.8447 51.4204 29.8736 51.3791 29.9067C51.2345 29.8158 51.094 29.6587 50.9494 29.6546C50.7841 29.6505 50.4784 29.7827 50.4742 29.8653C50.4412 30.8983 50.4536 31.9354 50.4536 32.9973C50.7056 32.9395 50.9742 32.8816 51.3295 32.8031C50.5775 33.5758 50.4536 34.6707 51.0775 35.2988C51.2262 34.9682 51.3584 34.679 51.5072 34.3484C51.5898 34.9352 51.6642 35.4847 51.751 36.0838C52.2096 35.4227 52.598 34.8608 52.9699 34.3278C52.9492 34.1088 52.8749 33.8526 52.912 33.613C53.0071 32.9808 53.1765 32.3651 53.2674 31.733C53.3046 31.4561 53.2178 31.1628 53.1889 30.8818C52.9492 30.9603 52.7054 31.0305 52.4699 31.1173C52.3294 31.1669 52.1931 31.2413 52.003 31.3322C52.3625 30.8198 52.8046 30.4149 52.9492 29.9273C53.3128 28.6919 53.5442 27.4193 53.8665 25.9937C53.1806 26.8077 51.9038 26.7912 51.7592 28.0845C51.4328 27.5226 51.1064 26.973 50.6973 26.283ZM35.2482 26.0805C35.4093 26.94 35.5705 27.7209 35.6986 28.5101C35.8514 29.4687 36.1448 30.3488 36.8762 31.0347C36.9299 31.0884 36.9547 31.1751 37.0456 31.3487C36.7481 31.1875 36.5704 31.0718 36.3762 30.9933C36.2151 30.9314 35.9382 30.8322 35.8804 30.8983C35.7647 31.0264 35.7027 31.2702 35.7316 31.4479C35.8473 32.1751 36.0291 32.8899 36.1448 33.613C36.182 33.8609 36.0911 34.1295 36.0746 34.2906C36.4754 34.8773 36.8596 35.4393 37.3017 36.0921C37.3885 35.4971 37.467 34.9558 37.5414 34.4104C37.6571 34.5385 37.6654 34.6749 37.7273 34.7823C37.8141 34.9352 37.9422 35.0633 38.0537 35.1996C38.157 35.0715 38.2934 34.9558 38.3595 34.8112C38.4173 34.679 38.4421 34.5013 38.4049 34.365C38.2645 33.8485 38.0909 33.3444 37.9339 32.8403C38.1116 32.8775 38.3678 32.9353 38.6033 32.9849C38.6033 31.9354 38.6157 30.919 38.5826 29.8984C38.5785 29.7992 38.2645 29.6587 38.0827 29.6422C37.9546 29.634 37.81 29.7992 37.6736 29.8901C37.6323 29.8529 37.5868 29.8158 37.5455 29.7827C37.7563 29.5141 37.9752 29.2497 38.1818 28.977C38.3141 28.8034 38.5289 28.6134 38.5248 28.4316C38.5165 27.7663 38.4297 27.1011 38.3636 26.2747C37.9422 26.973 37.6075 27.5308 37.2769 28.0886C37.1241 26.7705 35.8556 26.7912 35.2482 26.0805ZM39.7478 16.7838C39.8098 16.7424 39.8718 16.697 39.9338 16.6557C40.1817 17.0027 40.4337 17.3457 40.7353 17.7671C41.0783 17.2341 41.4336 16.7342 41.7311 16.2012C41.9584 15.7962 41.8964 15.4409 41.4088 15.2095C41.0742 15.0525 40.7725 14.817 40.4585 14.6145C40.4792 14.5939 40.4957 14.5773 40.5164 14.5567C40.913 14.6228 41.3055 14.6889 41.7642 14.7633C41.7146 13.6063 41.1775 12.8585 40.2974 12.5155C39.69 12.28 39.5123 11.9453 39.4751 11.3958C39.471 11.3131 39.4297 11.2305 39.4049 11.1437C39.3429 11.1231 39.2809 11.1024 39.2189 11.0817C38.9256 11.6272 38.6322 12.1767 38.2975 12.8006C39.1693 12.9328 39.7148 13.251 39.9255 14.0898C39.7189 13.9575 39.5825 13.8625 39.4421 13.7757C38.7438 13.3543 38.2356 13.5857 38.1157 14.379C37.872 15.9615 38.2521 17.3044 39.6487 18.2547C40.2023 17.8291 40.099 17.3209 39.7478 16.7838ZM62.2212 73.7998C62.3699 73.8865 62.5146 73.9733 62.6633 74.0601C65.0474 75.4236 67.4522 76.7458 69.8032 78.163C71.4932 79.1836 73.1087 80.3282 74.4227 81.8322C75.0383 82.5346 75.6251 83.2949 74.8689 84.2824C76.282 84.5014 76.9886 84.0799 77.5918 82.6296C72.8815 78.9894 67.8736 75.8409 62.2212 73.7998ZM26.7365 73.713C21.0799 75.8161 16.039 78.9812 11.3039 82.6503C12.0476 84.1626 12.8492 84.6129 14.0226 84.2163C13.4814 83.5758 13.6921 82.9519 14.0888 82.3569C14.283 82.0677 14.5061 81.7991 14.7457 81.5471C16.3076 79.9356 18.1545 78.6961 20.0635 77.5515C22.2658 76.2335 24.5094 74.9898 26.7365 73.713ZM25.2366 26.4607C25.1746 26.4854 25.1085 26.5102 25.0465 26.535C25.0465 26.8532 25.0465 27.1672 25.0465 27.4854C25.0094 27.4936 24.9722 27.5019 24.935 27.5102C24.5631 26.3491 24.1912 25.1839 23.8194 24.0228C23.7656 24.0228 23.7161 24.027 23.6623 24.027C23.5508 24.2666 23.4392 24.5063 23.3194 24.7418C22.8525 25.6673 22.7616 26.5681 23.4144 27.4688C23.6417 27.7787 23.7532 28.1713 23.9185 28.5225C23.464 28.1465 23.245 27.5515 22.6004 27.506C22.3608 28.4564 22.1253 29.3695 21.8939 30.2785C23.3979 30.3364 23.621 30.2289 23.8937 29.2166C24.873 30.0802 26.0093 30.357 27.4637 30.2289C26.3811 29.0761 26.3935 27.4358 25.2366 26.4607ZM30.0296 53.9915C30.1122 53.9171 30.1907 53.8469 30.2734 53.7725C30.1164 53.537 30.0048 53.2353 29.7941 53.0783C27.9471 51.7107 26.0547 50.3967 24.2243 49.0084C23.1252 48.1738 22.1046 47.2358 21.1171 46.397C20.956 47.0458 20.7824 47.7564 20.6089 48.4547C20.8527 48.3349 21.1708 48.2068 21.4559 48.025C21.7658 47.8267 21.9435 47.8721 22.2368 48.1283C23.7367 49.4299 25.2407 50.7397 26.815 51.9462C27.8232 52.7188 28.9553 53.3138 30.0296 53.9915ZM68.2909 48.4547C68.1215 47.7358 67.9563 47.0292 67.7703 46.24C67.477 46.5582 67.229 46.9135 66.8985 47.1656C64.3863 49.0952 61.8658 51.0124 59.3289 52.9089C58.9859 53.1651 58.895 53.3882 59.1016 53.8055C59.3454 53.6733 59.5644 53.5618 59.7751 53.4378C62.0063 52.1404 64.0681 50.6157 65.9564 48.8555C66.3076 48.525 66.6134 47.9837 67.0059 47.9135C67.3943 47.8473 67.8612 48.2564 68.2992 48.4547C68.3157 48.463 68.3364 48.463 68.2909 48.4547ZM40.7064 31.0016C40.4916 31.0016 40.3015 31.0016 40.0536 31.0016C40.0949 31.3569 40.1321 31.6958 40.1693 32.0346C40.256 32.7907 40.5494 33.5964 39.6032 34.1749C40.1941 34.4393 40.2932 34.8938 40.1899 35.4558C40.161 35.6128 40.2767 35.7946 40.3346 35.9929C42.0493 34.5881 41.2477 33.0593 40.6403 31.4396C40.851 31.6007 40.9461 31.6958 41.0576 31.7577C41.3138 31.8982 41.5287 31.8858 41.5287 31.5305C41.5245 30.8363 41.5039 30.1422 41.4626 29.448C41.4543 29.3282 41.2973 29.1133 41.2188 29.1175C40.8799 29.1381 40.5122 29.1629 40.223 29.3158C40.1238 29.3654 40.1775 29.8116 40.2519 30.0513C40.3511 30.3694 40.5411 30.6587 40.7064 31.0016ZM88.186 50.3843C88.1612 50.3017 88.1364 50.2149 88.1075 50.1323C87.7894 50.2314 87.4299 50.2686 87.1654 50.4463C86.525 50.8802 85.9176 51.3595 85.3226 51.8553C83.9508 52.9874 82.4509 53.884 80.761 54.4542C79.9718 54.7187 79.195 55.0162 78.4017 55.2641C77.9926 55.3922 77.786 55.6029 77.8398 56.107C81.9055 55.2558 85.0747 52.8717 88.186 50.3843ZM11.0931 56.107C11.1221 55.5905 10.9072 55.3881 10.5023 55.2558C8.35369 54.5493 6.18443 53.8799 4.36639 52.4461C3.4987 51.7644 2.61449 51.1074 1.75092 50.4174C1.4245 50.1571 1.11047 50.0992 0.68075 50.3389C3.82925 52.8552 6.99429 55.2517 11.0931 56.107ZM28.2818 37.0176C28.3562 37.0135 28.4264 37.0094 28.5008 37.0094C28.5132 36.6045 28.5297 36.1995 28.538 35.7987C28.5504 35.307 28.195 34.774 28.6661 34.4187C28.5297 34.0386 28.4182 33.7163 28.3562 33.5469C27.7281 33.3403 27.2075 33.1709 26.6828 32.9973C26.6993 32.9477 26.7158 32.9023 26.7282 32.8527C28.3025 32.8155 28.6165 32.4808 28.2901 31.0842C27.9265 31.2991 27.5877 31.5016 27.1538 31.7577C27.4802 31.9478 27.6496 32.0428 27.9637 32.2288C27.6001 32.266 27.3893 32.3321 27.1992 32.299C26.9183 32.2494 26.6456 32.0594 26.3729 32.0635C26.1497 32.0676 25.9266 32.2618 25.7035 32.3734C25.9101 32.7411 26.1167 33.1089 26.4059 33.6254C26.3316 33.9229 26.8563 34.6005 28.1372 35.5219C27.4017 35.6541 27.505 35.9681 27.8893 36.3772C28.0587 36.5631 28.1537 36.8069 28.2818 37.0176ZM55.5151 34.1295C54.5607 34.7575 53.7673 35.4723 53.2922 36.5383C53.5649 36.6292 53.7963 36.7078 54.0276 36.7863C53.7797 36.9515 53.5029 36.9474 53.35 37.0796C53.1352 37.2656 52.8459 37.592 52.8873 37.8027C52.9823 38.3068 53.2509 38.7778 53.4698 39.315C54.102 38.5299 54.6681 37.8192 55.2383 37.1127C55.2094 37.0755 55.1763 37.0342 55.1474 36.997C54.8458 37.1292 54.54 37.2614 54.2384 37.3936C55.1267 36.5053 55.8746 35.5839 55.5151 34.1295ZM82.86 43.7568C83.2154 46.021 86.2853 49.6612 88.0993 49.872C86.0416 48.1035 84.2401 46.2731 83.4261 43.6865C83.2319 43.7072 83.0666 43.7278 82.86 43.7568ZM6.03569 43.827C5.99438 43.7609 5.95306 43.6989 5.91174 43.6328C5.73407 43.7485 5.4531 43.8311 5.39526 43.9882C4.71349 45.8723 3.52763 47.3887 2.07733 48.7316C1.68893 49.091 1.30468 49.4505 0.850172 49.8761C2.65994 49.6282 5.77125 45.9219 6.03569 43.827ZM5.38285 43.232C5.71753 43.3064 5.95306 43.3601 6.22163 43.4221C7.14718 41.5173 8.05617 39.6538 8.96106 37.7903C8.89495 37.7449 8.82885 37.6994 8.76274 37.654C8.62225 37.7573 8.43219 37.8316 8.35368 37.968C7.37029 39.6868 6.40343 41.414 5.38285 43.232ZM83.5294 43.2238C82.5088 41.4057 81.5337 39.6579 80.5379 37.9225C80.4676 37.7986 80.261 37.749 80.1164 37.6664C80.0627 37.7118 80.0131 37.7573 79.9594 37.8027C80.8726 39.6745 81.7857 41.5462 82.703 43.4262C82.9881 43.356 83.2112 43.3023 83.5294 43.2238ZM39.8387 25.4359C39.942 26.0185 39.9544 26.44 40.1032 26.8036C40.2437 27.1507 40.5246 27.4399 40.7891 27.82C40.504 27.82 40.3387 27.82 40.1156 27.82C40.1156 28.0349 40.1156 28.2208 40.1156 28.4109C40.1156 28.6134 40.1156 28.8117 40.1156 29.1546C40.4337 28.9109 40.632 28.7704 40.8221 28.6175C41.4667 28.101 41.7146 27.2209 41.4791 26.3656C41.256 25.5558 40.5081 25.7706 39.8387 25.4359ZM10.1676 39.3026C11.1882 39.9389 12.1013 40.443 12.9401 41.0462C13.783 41.6536 14.5556 42.3643 15.3696 43.0378C15.4027 42.9593 15.4316 42.9221 15.4275 42.8891C15.4192 42.8354 15.4027 42.7734 15.3655 42.7321C14.1342 41.2652 12.7542 39.9885 10.9196 39.3108C10.7213 39.2406 10.4692 39.3026 10.1676 39.3026ZM78.6124 39.3852C78.6289 39.348 78.6455 39.3108 78.6579 39.2695C78.3769 39.3026 78.0711 39.2778 77.815 39.377C76.0961 40.0505 74.7987 41.2818 73.6087 42.6494C73.5343 42.7321 73.5178 42.8643 73.4765 42.9758C74.3483 42.3726 75.1086 41.6702 75.9391 41.071C76.7944 40.4595 77.7199 39.943 78.6124 39.3852ZM81.7279 44.0956C80.0834 45.517 78.1579 46.364 76.1374 47.273C76.3523 47.3433 76.4101 47.3846 76.4597 47.3722C78.3397 46.8887 80.0627 46.0995 81.4634 44.7195C81.6122 44.5749 81.6411 44.3104 81.7279 44.0956ZM7.33723 44.0501C7.27525 44.0791 7.21327 44.108 7.15542 44.1369C7.3083 44.3931 7.41574 44.6988 7.62646 44.893C8.95693 46.1367 10.5684 46.8557 12.2955 47.3474C12.3988 47.3763 12.5186 47.3309 12.6343 47.3226C10.746 46.3764 8.85363 45.5211 7.33723 44.0501ZM55.7837 28.7456C54.7962 29.4769 54.5524 30.419 54.5565 31.485C55.0689 31.6131 55.3251 31.5222 55.5647 31.014C55.9077 30.2868 55.8663 29.5844 55.7837 28.7456ZM55.8002 32.2453C55.8126 32.1751 55.8209 32.109 55.8333 32.0387C55.4201 31.9354 55.011 31.828 54.5028 31.6999C54.5028 32.299 54.4574 32.7659 54.5235 33.2122C54.5565 33.4146 54.8003 33.7163 54.9739 33.7369C55.2011 33.7617 55.4903 33.5923 55.6845 33.427C55.8209 33.3072 55.8457 33.0552 55.9283 32.8486C55.6639 32.6916 55.4284 32.5511 55.0895 32.3486C55.4036 32.299 55.6019 32.2742 55.8002 32.2453ZM13.8739 48.0911C15.163 47.8597 17.4314 44.8682 17.4604 43.4799C17.4645 43.3188 17.3695 43.1535 17.3199 42.9924C17.0059 45.298 15.5638 46.773 13.8739 48.0911ZM71.7245 42.9015C70.9519 44.0377 73.3938 47.7482 75.1954 48.1572C73.3691 46.7648 71.8898 45.3062 71.7245 42.9015ZM54.9325 28.8406C55.2755 28.6175 55.7011 28.4977 55.7878 28.258C56.106 27.3779 56.0399 27.1879 55.5647 26.721C55.3333 27.3945 54.7838 27.9192 54.9325 28.8406ZM76.1126 48.0746C77.2861 50.2521 77.2654 52.6941 77.6579 55.0451C77.2819 52.6899 77.7075 50.1571 76.1126 48.0746ZM11.308 55.0368C11.6303 52.6734 11.6551 50.2604 12.8244 48.0911C11.841 49.0993 11.0601 52.6858 11.308 55.0368ZM16.8902 40.8231C15.8117 40.1372 14.6672 39.4017 13.5227 38.6704C13.4896 38.7117 13.4607 38.7572 13.4277 38.7985C13.5062 38.8687 13.5805 38.9472 13.6714 39.0092C14.473 39.5464 15.2787 40.0752 16.0762 40.6124C16.3737 40.8149 16.6216 41.0091 16.3902 41.4594C16.2787 41.6784 16.3696 42.0048 16.3696 42.2817C16.3944 42.2775 16.4191 42.2693 16.4439 42.2651C16.5803 41.8313 16.7166 41.3975 16.8902 40.8231ZM72.4683 42.2569C72.4931 42.2734 72.5179 42.2899 72.5427 42.3065C72.5427 42.0172 72.6377 41.6826 72.522 41.4512C72.3113 41.0297 72.5137 40.8396 72.803 40.6454C73.3938 40.2447 73.993 39.8521 74.588 39.4555C74.8937 39.253 75.1912 39.0423 75.497 38.8357C75.4598 38.782 75.4226 38.7283 75.3854 38.6745C74.2285 39.4224 73.0715 40.1703 72.0303 40.8438C72.208 41.4181 72.3402 41.8396 72.4683 42.2569ZM9.22137 37.3978C10.2957 36.0425 11.3658 34.6914 12.3327 33.4725C11.0807 34.4559 10.0147 35.8153 9.22137 37.3978ZM76.5754 33.4642C77.5546 34.6997 78.6289 36.0508 79.7032 37.4019C78.9058 35.8194 77.8315 34.4641 76.5754 33.4642ZM54.8623 26.378C54.9119 26.4111 54.9573 26.44 55.0069 26.4731C55.3209 26.378 55.635 26.2789 55.982 26.1756C55.8829 25.7376 55.7878 25.3161 55.6928 24.8988C55.6474 24.8864 55.5978 24.874 55.5523 24.8616C55.3209 25.3657 55.0895 25.8739 54.8623 26.378ZM16.8365 32.1668C16.791 32.142 16.7497 32.1172 16.7043 32.0966C16.1134 33.1791 15.5184 34.2575 14.9275 35.3401C14.9647 35.3608 15.006 35.3814 15.0432 35.4021C15.6423 34.3237 16.2373 33.2452 16.8365 32.1668ZM73.869 35.4021C73.9062 35.3814 73.9475 35.3608 73.9847 35.336C73.5798 34.6046 73.179 33.8691 72.774 33.1378C72.7327 33.1585 72.6914 33.1832 72.6542 33.2039C73.0633 33.9353 73.4641 34.6707 73.869 35.4021Z" fill="white"/>
<path d="M25.4515 79.7746C24.7532 80.2373 24.4804 80.9191 24.7449 81.5967C24.8482 81.8571 25.5919 81.8653 26.0464 81.9893C24.968 82.3611 24.4805 83.1338 24.9019 84.3527C25.3977 84.2618 25.844 84.1792 26.2943 84.0965C26.3109 84.1379 26.3274 84.1792 26.3439 84.2205C26.1663 84.3031 25.9927 84.3899 25.8151 84.4684C24.9804 84.8527 24.5755 85.6212 24.7284 86.5385C24.9474 87.8524 25.1953 88.4392 26.0836 89.6622C26.22 88.1912 26.3439 86.836 26.4638 85.5344C26.7695 85.9228 26.9844 85.6749 27.3108 85.3154C28.1992 84.3445 28.4099 83.266 28.0504 82.0347C28.005 81.8694 27.9884 81.6959 28.0711 81.4687C28.2033 81.6794 28.319 81.9025 28.4677 82.1008C28.7694 82.5016 29.0462 82.4892 29.3602 82.1091C29.4635 81.9851 29.6371 81.9232 29.7693 81.824C30.3395 81.3984 30.951 81.0224 31.4634 80.5348C32.6409 79.4068 32.4013 77.9648 32.2443 76.5517C32.2236 76.3782 32.1864 76.2087 32.1616 76.0393C32.1575 76.0228 32.174 76.0022 32.2402 75.7914C32.5831 76.75 32.8682 77.5558 33.1574 78.3615C33.2029 78.3573 33.2525 78.3532 33.2979 78.3491C33.3806 78.0268 33.4632 77.7045 33.5624 77.3161C33.7194 77.5103 33.8557 77.6797 34.0334 77.8987C34.6656 77.4277 35.3019 76.9732 35.9175 76.4897C36.9464 75.6799 38.0661 75.4485 39.3098 75.8741C38.2231 75.9691 37.1365 76.0559 36.4795 77.1054C37.0249 77.1921 37.5579 77.2789 38.0909 77.3616C38.0992 77.4359 38.1033 77.5062 38.1116 77.5805C36.5869 77.7871 35.1614 78.1177 35.0581 80.0845C35.1407 80.0927 35.2234 80.1093 35.306 80.1134C35.3804 80.1175 35.4548 80.1134 35.6696 80.1134C33.9218 81.6959 34.4631 83.4768 35.0581 85.2989C34.0582 85.3526 33.9466 86.1046 33.7483 86.8236C33.4549 87.8814 33.1326 88.9309 32.7897 89.9762C32.4757 90.939 32.3228 91.8604 32.7938 92.8396C33.1409 93.5544 33.3186 94.2899 33.0748 95.1742C32.9343 95.6782 33.3103 96.4261 33.645 96.9385C33.9673 97.4302 34.1863 97.8723 34.1945 98.4673C34.2028 98.9507 34.3598 99.43 34.4548 99.9258C34.4053 99.9134 34.273 99.8762 34.0954 99.8308C34.021 100.938 34.3226 101.938 34.7606 102.917C33.8268 102.351 33.1244 101.579 32.6575 100.62C32.0584 99.3887 31.5253 98.1243 30.9345 96.8848C30.7651 96.5294 30.4841 96.2278 30.2362 95.8724C30.7238 94.8725 30.48 93.8065 30.0668 92.6702C30.8394 91.5216 30.9841 90.3977 30.2858 90.0299C31.1411 89.373 30.9303 88.4722 30.9138 87.5921C30.9055 87.1748 31.0832 86.7575 31.1039 86.336C31.1204 85.9972 31.0336 85.6501 30.9923 85.3278C31.3724 84.7163 31.7898 84.0552 32.203 83.39C32.141 83.3528 32.079 83.3156 32.0212 83.2743C30.918 84.1544 29.9222 85.1006 29.947 86.7492C29.7073 86.5963 29.5214 86.4765 29.1867 86.2617C28.9057 86.9889 28.6578 87.6582 28.381 88.3152C28.3272 88.4474 28.1702 88.5383 28.0669 88.654C27.976 88.7573 27.8645 88.8565 27.8108 88.9804C27.1993 90.3233 27.4885 91.5794 28.1826 92.7942C28.2611 92.9264 28.3438 93.0586 28.4223 93.1908C28.4305 93.2032 28.4223 93.228 28.4223 93.2983C28.2405 93.2611 28.0669 93.2239 27.8479 93.1743C28.0132 94.6618 28.79 95.8229 29.6329 96.9591C29.5957 96.9922 29.5585 97.0211 29.5172 97.0542C29.2197 96.8558 28.8561 96.7153 28.6372 96.455C27.8562 95.5295 27.0877 94.5874 26.3935 93.5958C26.0092 93.0462 26.0754 92.9966 25.5217 93.0214C25.4762 92.5297 25.4928 92.0256 25.3729 91.5587C25.2614 91.1208 25.1994 90.5671 24.6457 90.5506C24.4019 89.7696 24.1788 89.0466 23.9309 88.2532C23.402 89.0879 23.4227 89.9597 23.9598 91.5381C23.1748 90.9514 22.7492 90.2241 22.7533 89.311C22.7533 88.7367 22.9062 88.1665 22.9599 87.5921C23.0054 87.1046 23.0136 86.617 22.9599 86.1129C21.9187 87.0756 20.5386 87.7326 20.5015 89.3812C19.6007 89.1953 18.89 89.7531 18.9231 90.6786C18.9561 91.6703 19.0883 92.6578 19.0966 93.7156C18.7413 93.071 18.39 92.4264 18.0016 91.7199C17.448 92.3562 17.8984 93.0628 17.8364 93.7858C17.6215 93.4635 17.4108 93.1454 17.1505 92.7529C17.0265 92.9636 16.9232 93.1413 16.8241 93.3148C16.32 94.199 15.8076 95.0791 15.32 95.9716C15.1672 96.2526 14.9854 96.5583 14.9647 96.8641C14.9027 97.6698 15.349 98.083 16.1382 98.0375C16.2911 98.0293 16.4439 98.021 16.4852 98.0169C17.3529 99.0829 18.5016 99.5705 19.6379 100.182C19.6916 100.008 19.737 99.8762 19.8114 99.6366C20.7163 100.285 21.5757 100.901 22.5137 101.574C22.5839 101.26 22.6211 101.103 22.6831 100.822C23.4433 101.967 24.5796 102.393 25.72 102.905C25.7407 102.731 25.7489 102.62 25.7613 102.496C28.4925 104.116 31.075 106.157 34.6243 105.396C34.2152 105.793 33.3764 106.157 32.5377 106.111C31.6204 106.062 30.7072 105.872 29.8023 105.698C29.0627 105.558 28.3438 105.322 27.6042 105.177C26.7737 105.02 26.7323 105.07 26.6208 105.996C25.5382 104.764 24.3441 103.835 22.7037 103.698C22.6376 104.227 22.6376 104.227 23.3772 105.343C23.3442 105.384 23.3153 105.425 23.2822 105.463C22.9186 105.161 22.5219 104.884 22.1997 104.541C21.9683 104.293 21.7989 103.971 21.6625 103.653C21.4807 103.227 21.2493 103 20.7452 102.93C20.3114 102.868 19.9106 102.578 19.4974 102.372C19.1338 102.194 18.7826 101.996 18.3363 101.76C18.3363 102.141 18.3363 102.343 18.3363 102.55C18.3033 102.566 18.2702 102.587 18.233 102.603C18.0843 102.364 17.9025 102.136 17.7868 101.876C17.605 101.463 17.2868 101.293 16.8736 101.165C16.4522 101.033 16.0679 100.773 15.6671 100.57C15.568 100.521 15.4399 100.409 15.3696 100.442C14.6713 100.744 14.0433 100.347 13.3905 100.265C11.684 100.042 11.8121 99.9878 11.4815 101.546C11.2791 102.5 11.1179 103.471 11.8369 104.33C11.2336 103.735 10.5766 103.182 10.6345 102.231C10.6882 101.343 10.7626 100.459 10.8369 99.5746C10.8452 99.4713 10.9072 99.3102 10.9815 99.2813C11.5311 99.0871 11.527 98.6036 11.6344 98.1574C11.717 97.802 11.8947 97.4756 12.0063 97.1244C12.2087 96.4798 12.3947 95.827 12.6302 95.0378C13.1219 94.9841 13.502 94.6081 13.4896 93.8519C13.4772 93.2446 13.659 92.5917 12.8327 92.2612C14.0392 92.2777 14.9234 91.7819 15.506 90.7943C16.0803 89.8233 16.3076 88.8234 15.4399 87.7161C16.0638 87.8607 16.5513 87.9888 17.0472 88.0838C17.8818 88.2491 18.0264 88.121 18.1049 87.2822C18.1173 87.1335 18.2082 86.9104 18.3157 86.869C19.4313 86.4352 20.0056 85.4146 20.7576 84.6048C21.6749 83.6172 21.6294 83.5718 20.5138 82.795C20.456 82.7537 20.4064 82.7 20.2577 82.5677C20.8816 82.6504 21.3857 82.7248 21.8939 82.7826C22.5219 82.857 22.7285 82.7 22.7244 82.0719C22.712 81.0472 22.65 80.0225 22.6087 79.0019C22.6046 78.8738 22.6087 78.7457 22.6087 78.4565C23.0467 78.7705 23.464 78.9482 23.7078 79.2622C24.1871 79.8613 24.716 80.0101 25.4515 79.7746Z" fill="white"/>
<path d="M56.1349 88.9101C56.0688 88.9225 56.0068 88.9349 55.9407 88.9514C55.887 88.9638 55.8333 88.9762 55.7754 88.9927C55.982 89.5382 56.2258 90.0588 56.3663 90.6083C56.4159 90.8025 56.2216 91.0587 56.1431 91.286C56.1018 91.4058 56.0109 91.538 56.0398 91.6454C56.263 92.5834 56.0316 93.48 55.8663 94.3931C55.7506 95.0294 55.7754 95.6905 55.7424 96.2484C55.5399 96.6863 55.3581 97.0747 55.1763 97.4631C56.201 97.0375 56.1308 96.0294 56.3993 95.3724C56.3704 94.8642 56.3208 94.4592 56.3291 94.0543C56.3373 93.7857 56.3911 93.5089 56.4861 93.261C57.1555 91.5008 56.9241 89.8109 56.1556 88.1416C55.9696 87.7408 55.8498 87.3069 55.7506 86.8731C55.4945 85.7533 55.449 85.679 54.4573 85.2327C55.0193 83.4849 55.5895 81.7247 53.8541 80.1464C54.1351 80.1216 54.2755 80.1092 54.4367 80.0968C54.3623 78.1589 52.9533 77.8118 51.4452 77.5805C51.4452 77.5143 51.4493 77.4441 51.4493 77.378C51.9617 77.2871 52.4699 77.1962 53.007 77.1012C52.379 76.0599 51.3006 75.9731 50.2015 75.7831C50.5568 75.7335 50.9163 75.6467 51.2716 75.6467C52.1063 75.6467 52.8624 75.9112 53.5277 76.4401C54.1475 76.9317 54.7838 77.3945 55.4325 77.8821C55.6019 77.6838 55.7341 77.5226 55.9283 77.2954C56.0357 77.7003 56.1225 78.0267 56.2093 78.3573C56.2588 78.3614 56.3126 78.3655 56.3621 78.3696C56.6266 77.6011 56.8952 76.8326 57.1596 76.0641C57.2009 76.0723 57.2381 76.0806 57.2794 76.0888C57.2381 76.7417 57.2381 77.3987 57.1513 78.0432C57.0067 79.1299 57.5149 79.948 58.1719 80.7166C58.4529 81.043 58.7297 81.3818 59.052 81.6628C59.1966 81.7909 59.4363 81.828 59.6429 81.857C59.8619 81.89 60.0932 81.8652 60.4403 81.8652C59.7296 83.1048 60.0271 84.2659 60.4155 85.5426C59.8329 85.1873 59.3702 84.9146 58.9239 84.6171C58.833 84.5551 58.7462 84.394 58.7545 84.2865C58.9033 82.8032 58.2422 81.8776 56.7712 81.4727C57.0687 82.8693 57.5604 84.1832 58.5562 85.3236C57.9612 86.1665 58.7628 87.0673 58.581 87.9928C59.1718 87.7738 59.2338 87.654 59.4073 86.3938C60.0313 86.5632 60.5478 86.8359 60.7874 87.4846C61.0932 88.3069 61.3865 89.1456 62.4815 89.2696C61.4733 89.6125 61.3576 89.563 60.2792 88.4391C58.4446 90.1786 58.3703 91.1413 59.4693 92.7362C58.9281 93.6122 58.8537 95.1617 59.3041 95.9385C59.1099 96.1037 58.9239 96.269 58.6636 96.4921C59.8867 96.5872 61.4692 94.7444 61.622 93.166C61.4361 93.2114 61.2626 93.2486 61.0725 93.2941C61.3617 92.6495 61.6014 92.0214 61.9195 91.4347C62.217 90.8893 62.6054 90.3976 63.0145 89.7902C63.0351 90.0918 63.0517 90.3397 63.0682 90.5918C63.0723 90.6496 63.0641 90.7075 63.06 90.7653C62.9897 92.3726 63.1715 92.5214 64.7251 92.1371C64.8119 92.1165 64.9069 92.1041 65.1341 92.0669C64.7788 92.5049 64.5392 92.885 64.221 93.1825C62.841 94.4758 61.4526 95.7608 60.0354 97.0128C59.5602 97.4342 59.4156 97.8722 59.6842 98.5416C59.552 98.4424 59.4941 98.4176 59.4569 98.3721C58.8826 97.678 58.3537 97.7028 57.891 98.5085C57.5273 99.1448 57.2298 99.8183 56.9076 100.479C56.4159 101.492 55.6845 102.293 54.8127 102.925C55.0523 101.95 55.2961 100.955 55.5647 99.8514C55.2424 99.901 55.1061 99.9216 55.0276 99.934C55.1556 99.3225 55.292 98.6862 55.4242 98.0457C54.5896 97.9052 54.5978 97.93 54.4201 98.6531C54.3499 98.9382 54.1392 99.2027 53.9532 99.4464C53.1434 100.508 53.0938 102.227 53.8541 103.359C54.0028 103.578 54.1557 103.797 54.2714 104.049C53.1269 103.57 52.1683 102.868 51.4741 101.789C51.2675 101.901 51.0898 101.996 50.8337 102.132C50.8047 101.913 50.7469 101.731 50.7676 101.558C50.8295 101.045 50.5568 100.711 50.2056 100.417C49.5486 99.8679 48.9289 100.091 48.7801 100.942C48.6149 101.872 48.933 102.657 49.6148 103.297C49.7387 103.413 49.8709 103.516 50.0321 103.657C48.0116 103.459 47.1563 101.946 48.0116 100.178C48.2388 99.7067 48.4702 99.2398 48.7305 98.7853C49.0074 98.306 49.1479 97.8433 49.0817 97.2565C49.0198 96.7359 49.2553 96.1822 49.2801 95.641C49.2925 95.422 49.0817 95.1989 48.995 94.9675C48.9495 94.8394 48.9206 94.6865 48.9495 94.5584C49.0322 94.1989 49.1933 93.856 49.2388 93.4965C49.2966 93.0461 49.2759 92.5875 49.2801 92.133C49.2842 91.8644 49.2636 91.5958 49.2677 91.3273C49.2677 91.2116 49.3545 91.0835 49.3214 90.9885C48.7553 89.4225 50.0197 88.7283 50.8667 87.9185C51.4948 87.3193 51.9452 86.6913 52.2096 85.836C51.8666 85.6872 51.5567 85.5468 51.2427 85.4104C51.2469 85.3773 51.2469 85.3402 51.251 85.3071C51.5196 85.3071 51.8253 85.2203 52.0443 85.3236C52.8831 85.7038 53.6929 86.1376 54.5152 86.5591C54.5772 86.5921 54.6557 86.6789 54.6515 86.7326C54.5648 87.7284 55.3705 88.1127 55.9572 88.6457C56.0151 88.6994 56.0688 88.7531 56.1184 88.8109C56.1307 88.8316 56.1266 88.8564 56.1349 88.9101ZM51.3584 92.2652C51.1766 93.2031 50.9948 94.1204 50.813 95.0418C50.8709 95.0625 50.9328 95.079 50.9907 95.0997C51.1436 95.0171 51.2923 94.9385 51.5898 94.7774C50.9287 95.7236 50.4246 96.5459 50.7345 97.6697C51.1477 97.3226 51.4948 97.0334 51.8377 96.7442C51.8418 96.9714 51.7551 97.1078 51.6559 97.2359C51.5526 97.3722 51.4245 97.4962 51.3254 97.6408C51.0485 98.0499 51.2469 98.6531 51.7179 98.7523C52.222 98.8597 52.5691 98.5622 52.7095 98.1408C53.1227 96.9136 54.0359 95.7029 52.8418 94.2857C53.2178 94.4882 53.4492 94.6121 53.8582 94.8311C53.8954 93.8932 54.0772 93.0627 53.9078 92.3107C53.8004 91.8231 53.1806 91.4512 52.7798 91.0132C53.1145 91.0132 53.4657 91.0132 53.9532 91.0132C53.7921 90.2447 53.7177 89.5092 53.4615 88.8399C53.3169 88.4515 52.9161 87.9556 52.5691 87.8978C52.0856 87.8193 51.7757 88.3358 51.5733 88.8027C51.094 89.9059 50.8626 91.0339 51.1766 92.2487C51.2758 92.2569 51.3956 92.2652 51.3584 92.2652Z" fill="white"/>
<path d="M61.3576 83.737C61.7832 83.8113 62.2129 83.8857 62.6426 83.9642C63.0806 83.1833 62.8286 82.3073 62.027 81.9065C61.3783 81.5801 60.7254 81.262 60.1056 80.8446C60.6262 80.9107 61.1469 80.981 61.6592 81.0471C61.9237 80.105 61.9113 80.0637 61.2006 79.5513C60.8411 79.2952 60.4858 79.0349 60.1676 78.6919C60.8907 78.9192 61.6096 79.1506 62.3327 79.3778C62.8864 79.5555 63.345 79.5555 63.7623 79.0101C64.0351 78.6506 64.4978 78.4316 64.878 78.1506C64.9193 78.1837 64.9606 78.2167 65.0061 78.2498C64.9606 78.7622 64.94 79.2745 64.8656 79.7827C64.8036 80.2083 64.973 80.4397 65.3573 80.5637C66.039 80.7827 66.7249 80.9851 67.386 81.2537C67.5926 81.3363 67.7248 81.5966 67.886 81.7867C68.0389 81.9685 68.1463 82.2082 68.3322 82.3321C69.0181 82.7949 69.7329 83.2163 70.4271 83.7411C68.8404 83.3899 67.2662 83.0511 65.6093 83.9559C66.1217 84.2121 66.5473 84.4146 66.9605 84.6377C67.4563 84.9022 67.9934 85.117 68.4149 85.4682C68.8611 85.8401 69.2536 85.8484 69.7371 85.6459C70.0883 85.5013 70.4519 85.3897 70.8568 85.3401C70.5883 85.5715 70.3238 85.7988 69.9809 86.0921C70.1585 86.2326 70.2907 86.3731 70.456 86.464C70.9849 86.7615 71.5592 86.997 71.4518 87.7986C71.4394 87.8771 71.9104 88.1374 72.1377 88.1168C72.7244 88.0548 73.3029 87.8854 73.9888 87.7325C73.2037 88.7903 73.369 89.7984 73.964 90.7818C74.5549 91.7611 75.4184 92.29 76.6373 92.2611C75.6663 92.6908 76.0465 93.4841 76.0299 94.1535C76.0134 94.8146 76.5423 94.9344 77.1166 95.0914C76.7778 95.9508 77.2819 96.6243 77.5753 97.3474C77.6992 97.649 77.8191 97.9631 77.8728 98.2812C77.943 98.6903 77.9843 99.0828 78.4513 99.2605C78.5422 99.2935 78.6248 99.4753 78.6331 99.591C78.6992 100.628 78.8727 101.686 78.7487 102.702C78.6744 103.318 78.1207 103.872 77.6868 104.417C78.5297 103.19 78.0959 101.95 77.8149 100.715C77.7199 100.293 77.4927 100.079 77.0299 100.165C76.4225 100.277 75.8151 100.388 75.2036 100.463C74.8895 100.504 74.5631 100.45 74.245 100.479C74.0756 100.496 73.902 100.574 73.7492 100.653C73.431 100.814 73.1418 101.091 72.8071 101.153C72.1955 101.269 71.7906 101.554 71.5634 102.132C71.4973 102.302 71.3692 102.442 71.1874 102.719C71.1708 102.368 71.1585 102.169 71.1419 101.785C70.7039 102.021 70.3445 102.231 69.9685 102.405C69.5222 102.616 69.0718 102.868 68.5967 102.963C68.2083 103.041 68.043 103.186 67.9356 103.545C67.6257 104.562 66.9894 105.264 65.9109 105.487C65.8531 105.5 65.7952 105.508 65.7374 105.504C65.7002 105.504 65.6671 105.479 65.568 105.446C66.0101 104.905 66.444 104.372 66.8778 103.843C66.8324 103.797 66.791 103.752 66.7456 103.706C65.1424 103.855 63.9524 104.772 62.8781 105.991C62.7294 105.086 62.6757 105.02 61.8534 105.19C60.9444 105.376 60.0478 105.615 59.1553 105.872C57.8248 106.252 56.5233 106.268 55.2382 105.719C55.1308 105.673 55.0275 105.624 54.9242 105.566C54.8995 105.553 54.8912 105.508 54.8375 105.409C58.3744 106.165 60.9609 104.161 63.7086 102.504C63.7293 102.62 63.7458 102.735 63.7748 102.913C64.9234 102.438 66.0308 101.963 66.791 100.822C66.853 101.091 66.8902 101.26 66.9646 101.583C67.886 100.917 68.733 100.306 69.6296 99.6572C69.7164 99.8679 69.7701 100 69.8239 100.128C69.8652 100.128 69.9106 100.145 69.9395 100.124C70.7535 99.6406 71.5675 99.1572 72.3774 98.6696C72.4269 98.6407 72.4931 98.6118 72.5137 98.5622C72.7782 98.0127 73.2327 98.0209 73.7615 98.0333C74.4102 98.0457 74.7656 96.9342 74.3524 96.2607C74.0012 95.6864 73.6128 95.1369 73.274 94.5543C72.9517 93.9923 72.6707 93.4056 72.3484 92.7858C72.0881 93.1453 71.8609 93.4593 71.5468 93.8932C71.5345 93.0792 72.0427 92.3767 71.4601 91.7487C71.0799 92.4387 70.7205 93.0998 70.3569 93.7609C70.3197 93.7403 70.2825 93.7196 70.2453 93.699C70.3527 92.8974 70.4725 92.0958 70.5552 91.2901C70.6172 90.6909 70.6048 90.1249 70.0965 89.6373C69.7577 89.315 69.4974 89.1002 69.0925 89.4348C68.8983 88.939 68.7702 88.4349 68.514 88.0052C68.105 87.3193 67.4935 86.8689 66.6712 86.7408C65.568 86.5714 64.7334 86.0178 64.2706 84.9683C64.2458 84.9145 64.2086 84.8691 64.1714 84.8278C64.1466 84.803 64.1094 84.7865 63.907 84.6542C64.0929 85.4228 64.1631 86.0839 64.4111 86.6665C64.9482 87.9432 65.1878 90.1001 63.5558 91.2074C64.159 90.0753 64.1921 89.034 63.7252 87.8441C63.4814 88.4515 63.2872 88.939 63.0765 89.472C62.6343 88.8275 63.4979 87.9184 62.5269 87.4433C63.0145 85.9517 63.2872 84.5055 61.213 83.8609C61.2667 83.8113 61.3122 83.7741 61.3576 83.737ZM67.039 82.5057C66.853 82.3776 66.7373 82.2908 66.6134 82.2164C65.8614 81.766 65.1094 81.3115 64.3491 80.8694C64.2789 80.8281 64.1714 80.8157 64.0846 80.8281C63.7252 80.886 63.3657 80.9645 62.9153 81.0512C63.2913 81.6669 63.6632 82.3073 64.0764 82.923C64.126 82.9932 64.4937 82.9808 64.5391 82.9023C64.8284 82.4271 65.2498 82.4685 65.7002 82.5015C66.1134 82.5304 66.5307 82.5057 67.039 82.5057Z" fill="white"/>
<path d="M70.9188 39.4595C70.6833 39.0215 70.4065 38.5216 70.1338 38.0175C70.0594 38.0382 69.985 38.0629 69.9065 38.0836C69.766 39.0711 69.2744 40.0091 69.5099 41.0958C69.0926 41.0544 69.0884 41.4056 69.014 41.7693C68.9108 42.2403 68.7166 42.6948 68.5596 43.17C68.3571 42.8477 68.2579 42.4923 68.072 42.4345C67.572 42.2857 67.3076 42.7072 67.0845 43.0667C65.7085 45.3103 63.7376 46.9052 61.4775 48.1654C60.7544 48.5662 59.9487 48.8141 59.1264 49.0331C61.4981 47.5539 63.8285 46.0788 64.7169 43.0419C63.6013 44.0377 62.7873 45.3971 61.0395 44.7525C62.3039 44.5211 62.8989 43.5832 63.4691 42.5502C62.4609 42.6783 61.4651 42.7237 60.5106 42.9592C60.0726 43.0667 59.7131 43.5294 59.3454 43.86C58.6595 44.4756 58.0563 44.6574 57.2464 44.4467C58.4943 43.8311 58.7339 43.517 58.6513 42.5956C57.4654 42.7155 57.4076 42.6907 57.1803 42.0461C57.5274 42.013 57.9488 42.0833 58.2298 41.918C58.486 41.7651 58.6265 41.3726 58.7504 41.0627C59.3578 39.538 59.9321 38.001 60.5437 36.4763C60.6842 36.1292 60.9362 35.8235 61.1552 35.4722C60.961 35.3566 60.7998 35.2574 60.6428 35.1624C60.6511 35.1293 60.647 35.0715 60.6635 35.0673C61.3576 34.8318 61.3948 34.2244 61.6097 33.6377C62.4981 31.2081 62.0559 28.791 61.713 26.3614C61.6056 25.597 61.5105 24.8078 62.0849 24.1467C62.1179 24.1054 62.1675 24.0765 62.2501 24.0145C62.2501 24.4029 62.2501 24.7541 62.2501 25.1053C62.3163 25.1342 62.3824 25.1632 62.4485 25.1962C62.8286 24.6963 63.2087 24.1963 63.5889 23.6963C63.717 23.5269 63.8203 23.341 63.9608 23.184C64.5723 22.5146 64.4153 21.7833 63.5724 21.4321C63.3823 21.3536 63.184 21.2875 62.9526 21.2048C64.0806 20.8577 64.7375 21.2089 65.1342 22.4733C65.4854 22.056 65.7788 21.713 66.1011 21.3329C66.3531 21.9568 66.7704 21.7874 67.1588 21.5354C67.7869 21.1304 68.3984 20.6966 69.043 20.2545C69.0512 20.2834 69.0884 20.395 69.1463 20.5561C71.3196 19.9983 73.4682 19.2008 75.9474 19.4116C74.84 19.614 73.8897 19.7463 72.9559 19.9735C72.0262 20.2008 71.1254 20.523 70.1503 20.8247C70.7412 21.1056 71.2122 21.3288 71.6874 21.556C71.6709 21.618 71.6502 21.6758 71.6337 21.7378C70.2164 21.3866 68.9356 21.6717 67.915 22.6799C67.225 23.3617 66.7332 24.2087 66.8489 25.3739C67.9439 24.2252 68.8818 22.9898 70.4313 22.6344C69.8032 23.3493 69.1587 24.0476 68.5637 24.783C68.2992 25.1095 68.1133 25.5061 67.9398 25.8904C67.7993 26.1961 67.7084 26.4812 67.9728 26.849C68.1546 27.1093 68.0761 27.5514 68.1133 27.915C68.1918 28.7125 68.6091 29.1628 69.4231 29.2909C70.2164 29.4149 71.0222 29.5554 71.7287 30.1173C71.2122 30.0636 70.7577 29.9768 70.3032 29.981C69.4355 29.9934 69.0347 30.4479 69.2206 31.2908C69.4066 32.1171 69.6504 32.9435 69.9809 33.7203C70.109 34.0178 70.5511 34.1831 70.9065 34.4475C70.1503 34.7244 70.4809 35.1871 70.6585 35.6664C71.0263 36.6498 71.6833 37.2614 72.7121 37.5299C73.3939 37.7076 74.0426 37.9927 74.6706 38.3563C73.9971 38.4142 73.2988 38.377 72.6625 38.5629C72.0386 38.7488 71.4849 39.1579 70.9188 39.4595ZM68.824 37.7035C69.4644 36.3813 69.3281 35.2739 68.4273 34.0881C67.9728 34.5219 67.5018 34.9682 67.0307 35.4185C66.9853 35.3731 66.9357 35.3235 66.8902 35.278C67.0927 34.931 67.3241 34.5963 67.4852 34.2327C67.8612 33.3608 68.0183 32.5221 67.5059 31.5841C67.039 30.7371 66.7787 29.7744 66.4564 28.853C66.3448 28.5265 66.3242 28.1712 66.2663 27.8282C66.2291 27.6051 66.1961 27.382 66.13 26.9358C65.6218 27.3944 65.2375 27.7415 64.8491 28.0885C65.7292 26.6465 66.225 25.2045 64.9483 23.7294C64.2004 24.6963 64.1673 25.9978 63.4112 26.9564C63.3864 26.9895 63.4071 27.068 63.4195 27.1258C63.5889 27.9894 63.7624 28.8571 63.9236 29.6752C64.2954 29.6297 64.6921 29.576 65.0887 29.5265C64.1343 30.2371 63.874 30.4603 63.812 31.0057C63.6384 32.5221 63.1839 33.9476 62.5848 35.3442C62.2047 36.2242 62.589 36.7531 63.5186 36.7614C63.5393 36.7614 63.5558 36.8151 63.6591 36.9639C63.1633 37.1705 62.6964 37.3564 62.2336 37.5589C61.7461 37.7696 61.1635 37.877 60.9693 38.472C60.7585 39.1166 60.5726 39.7694 60.4114 40.4264C60.3164 40.8189 60.2875 41.228 60.2131 41.7362C60.4238 41.6164 60.5189 41.5833 60.585 41.5213C61.494 40.6619 62.5931 40.414 63.7996 40.4884C64.2417 40.5173 64.6921 40.5421 65.1342 40.5173C65.316 40.5049 65.5722 40.4057 65.659 40.2652C66.163 39.4347 66.3862 38.5588 65.8986 37.625C65.7499 37.3357 65.6135 37.0424 65.4317 36.6746C67.2167 37.9596 67.258 39.6083 66.7084 41.4222C67.8612 39.9223 68.638 38.3894 67.1464 36.5713C67.2249 36.5548 67.3034 36.5341 67.3778 36.5176C67.8654 36.9143 68.3488 37.3151 68.824 37.7035Z" fill="white"/>
<path d="M51.1394 86.0177C50.8832 86.2615 50.6643 86.6416 50.3585 86.7242C49.2098 87.0465 48.0488 87.3523 46.8671 87.5134C44.6648 87.8151 42.4625 87.625 40.285 87.2159C39.7643 87.1168 39.252 86.8854 38.7809 86.6333C38.5372 86.5053 38.3925 86.1954 38.1446 85.8937C38.7685 85.8276 39.2313 85.8524 39.6362 85.7119C39.8924 85.621 40.2354 85.2864 40.2312 85.0674C40.2271 84.8484 39.8676 84.5385 39.6032 84.4558C39.2313 84.336 38.8016 84.3525 38.4008 84.3649C37.2521 84.3939 36.3927 83.7906 36.0043 82.6419C35.5994 81.452 35.9093 80.3405 36.8431 79.6918C37.6199 79.1546 38.5082 78.9728 39.4297 78.9563C39.8387 78.9522 40.1403 78.8406 40.3386 78.4729C40.3758 78.4067 40.4296 78.3489 40.475 78.2869C41.508 76.8903 42.2393 76.7746 43.6276 77.7787C44.8135 78.6381 44.516 78.6464 45.7225 77.7704C45.863 77.6671 46.0076 77.568 46.1522 77.4729C46.9745 76.9358 47.7719 76.9193 48.3215 77.7002C49.0115 78.6836 49.8585 79.0926 51.0113 79.0968C51.3419 79.0968 51.6848 79.2662 51.9989 79.4108C53.2219 79.9727 53.7425 81.0346 53.4326 82.3031C53.0938 83.6956 52.2013 84.3897 50.8295 84.3608C50.4453 84.3525 50.0404 84.3484 49.685 84.4682C49.4371 84.555 49.1065 84.8484 49.0983 85.0632C49.09 85.274 49.3999 85.6128 49.6395 85.6954C50.0651 85.84 50.5403 85.8318 50.999 85.8855C51.0361 85.9309 51.0898 85.9764 51.1394 86.0177ZM44.7061 82.7452C43.8136 82.9436 42.9418 83.0469 42.136 83.3361C41.0493 83.7245 40.9089 84.5839 41.7022 85.4103C43.1608 86.9391 46.2101 86.9267 47.6521 85.3855C48.4082 84.5757 48.305 83.7699 47.2803 83.3733C46.4621 83.0675 45.5696 82.9518 44.7061 82.7452ZM50.8626 83.2493C51.6601 83.2369 52.3294 82.5552 52.3294 81.7536C52.3294 80.9148 51.6642 80.2454 50.8172 80.2454C49.9908 80.2413 49.3131 80.9355 49.3297 81.7701C49.342 82.613 50.0156 83.2617 50.8626 83.2493ZM42.512 81.8693C43.3425 81.8693 44.0078 81.1834 43.9954 80.3405C43.983 79.5348 43.3095 78.8571 42.5162 78.853C41.698 78.8489 40.9998 79.5389 40.9915 80.3653C40.9791 81.1792 41.6774 81.8693 42.512 81.8693ZM38.5371 83.2535C39.3387 83.2411 40.0081 82.5634 40.0122 81.7577C40.0164 80.9231 39.3387 80.2454 38.5 80.2413C37.6695 80.2413 37.0001 80.9189 37.0042 81.7618C37.0084 82.5882 37.7025 83.2659 38.5371 83.2535ZM48.3256 80.3818C48.3339 79.5513 47.648 78.8489 46.8299 78.853C45.9994 78.8571 45.3217 79.543 45.3258 80.3735C45.33 81.1875 45.9787 81.8445 46.7968 81.861C47.6397 81.8817 48.3173 81.2247 48.3256 80.3818Z" fill="white"/>
<path d="M39.818 103.682C40.4502 103.116 40.9171 102.479 41.0163 101.616C41.0287 101.521 41.0452 101.421 41.0411 101.326C41.0328 100.603 40.7022 100.099 40.2395 100.091C39.7312 100.083 39.0371 100.798 39.0082 101.355C38.9958 101.587 38.9793 101.814 38.9627 102.116C38.7437 101.992 38.5661 101.897 38.3099 101.752C37.6488 102.781 36.7067 103.516 35.4671 104.087C35.5828 103.868 35.6283 103.731 35.7109 103.628C36.4299 102.756 36.5414 101.723 36.4092 100.665C36.3596 100.273 36.0828 99.9051 35.8968 99.5332C35.7026 99.1407 35.2357 98.8763 35.3804 98.3184C35.401 98.2399 35.149 97.992 35.0168 97.9879C34.5623 97.9714 34.5251 97.7317 34.4837 97.3516C34.4466 96.9921 34.24 96.6533 34.0582 96.174C33.959 95.3724 33.835 94.4097 33.7276 93.4428C33.6821 93.0462 33.6698 92.6412 33.6574 92.2446C33.6408 91.8396 33.9177 91.4223 33.4177 91.0463C33.2731 90.9389 33.426 90.3563 33.5334 90.0175C33.6408 89.6745 33.8557 89.3605 34.0458 88.9886C33.8846 88.9473 33.7483 88.9143 33.5871 88.8729C33.6408 88.8027 33.678 88.7324 33.7317 88.687C34.0499 88.406 34.3887 88.1457 34.6862 87.8441C34.8432 87.6871 35.0416 87.4598 35.0374 87.2698C35.0126 86.4227 35.7027 86.2203 36.2233 85.8897C37.1075 85.3319 37.8554 85.1708 38.6156 85.3402C38.3016 85.4765 38.0289 85.5344 37.843 85.6914C37.4422 86.0302 37.0001 86.369 36.7274 86.7987C36.3844 87.34 36.5084 87.5218 37.1405 87.7449C35.963 88.53 36.0332 89.7778 35.8431 91.0174C36.2687 90.9967 36.6282 90.9802 37.029 90.9637C36.6654 91.5711 35.6944 91.6661 35.7646 92.5627C35.8184 93.2486 35.8555 93.9386 35.9051 94.7609C36.277 94.5791 36.5042 94.4634 36.8348 94.2981C36.653 94.5997 36.4175 94.8229 36.4009 95.0625C36.3679 95.5914 36.3885 96.1409 36.496 96.6574C36.6034 97.1615 36.7852 97.6739 37.0497 98.116C37.2149 98.3928 37.5703 98.6077 37.8843 98.7234C38.0124 98.7688 38.409 98.5003 38.4297 98.335C38.471 98.0375 38.3677 97.6945 38.2479 97.4012C38.1611 97.1822 37.9545 97.0128 37.8926 96.7153C38.2479 97.0045 38.6032 97.2937 39.0288 97.6367C39.285 96.5335 38.8264 95.703 38.1901 94.7774C38.4669 94.9096 38.6156 94.9799 38.7644 95.0501C38.8222 95.0295 38.8801 95.0047 38.9379 94.984C38.752 94.0626 38.5619 93.1412 38.376 92.2239C38.3512 92.2239 38.471 92.2239 38.4834 92.2239C38.6776 91.5049 38.8512 90.8438 39.0371 90.1869C39.2313 89.4969 39.1693 88.8481 38.7768 88.2408C38.6528 88.0507 38.5454 87.8524 38.3512 87.5301C39.5164 88.1581 40.099 89.0919 40.6237 90.0753C40.6568 90.1373 40.6568 90.2282 40.6485 90.3026C40.5659 90.9926 40.4047 91.6868 40.4171 92.3768C40.4295 93.0172 40.6155 93.6577 40.7394 94.2981C40.7973 94.5873 40.8014 94.7691 40.6155 95.0873C40.38 95.5005 40.5287 96.1451 40.5452 96.6863C40.5494 96.8682 40.7312 97.0706 40.6857 97.2194C40.4915 97.8268 40.7766 98.2937 41.0328 98.7977C41.3799 99.4836 41.8096 100.17 41.9583 100.905C42.2558 102.368 41.76 103.066 40.3469 103.525C40.1899 103.587 40.004 103.632 39.818 103.682Z" fill="white"/>
<path d="M40.2684 87.3401C40.8428 87.8153 41.2849 88.1789 41.7477 88.5631C41.9212 88.4144 42.0617 88.2904 42.1071 88.2491C42.3426 88.5714 42.541 88.9391 42.8261 89.2077C43.2475 89.6044 43.7516 89.7655 44.2846 89.3647C44.5987 89.1292 44.8796 89.1457 45.111 89.4928C45.3631 89.8647 45.7019 89.8771 46.082 89.7242C46.3878 89.6002 46.7142 89.5259 46.9993 89.3688C47.2679 89.2201 47.4993 88.9928 47.8711 88.6995C48.1273 88.6499 48.5859 88.559 49.1272 88.4516C48.6603 89.092 48.2389 89.7201 47.7637 90.3027C47.1315 91.0795 47.2926 91.7075 47.6232 92.2777C47.8133 92.6083 48.1108 92.8727 48.3835 93.195C47.6232 93.7652 46.8795 94.323 46.0366 94.9552C47.0985 95.1494 48.0942 95.0254 48.8421 95.6989C47.6315 97.4178 46.9538 99.273 46.9373 101.335C46.9332 101.736 47.1811 102.165 47.396 102.537C47.5695 102.843 47.867 103.083 48.1604 103.409C46.1399 102.988 45.6027 101.649 45.7432 99.8267C45.4664 99.901 45.2515 99.9589 44.8714 100.062C45.5242 99.273 46.1936 98.6202 46.2308 97.5913C45.9126 97.6368 45.6564 97.6698 45.3176 97.7153C45.4498 97.2814 45.5573 96.9219 45.6647 96.5707C44.9168 96.1038 44.2144 96.1493 43.8012 96.6947C43.888 96.8517 43.983 97.017 44.0781 97.1823C44.1648 97.3269 44.2516 97.4715 44.4086 97.7359C43.888 97.6037 43.4913 97.5004 42.9666 97.3682C43.0451 97.6946 43.0781 97.9301 43.1608 98.1491C43.3674 98.7111 43.6277 99.2565 43.8012 99.8267C44.3962 101.765 43.7062 103.136 41.7229 103.847C42.603 103.074 42.9087 102.12 42.7145 100.996C42.5368 99.9465 42.4625 98.8557 41.4047 98.2483C41.665 98.0706 42.0369 97.9425 42.0534 97.7814C42.103 97.2566 42.1898 96.6286 41.9543 96.2071C41.5948 95.5584 41.4625 95.0048 41.5039 94.2403C41.5576 93.2611 41.2394 92.2612 41.0783 91.2695C41.0576 91.1414 41.0246 91.0133 40.9874 90.8439C41.7559 90.8026 41.5989 90.3605 41.4047 89.9184C41.0576 89.1044 40.694 88.2946 40.2684 87.3401ZM43.2641 92.2529C42.9914 93.2528 43.012 93.7487 43.4128 94.3189C43.5615 94.1164 43.7062 93.9181 43.8508 93.7156C43.6938 94.7444 43.6938 94.7444 44.0946 95.0709C44.4169 94.8684 44.7391 94.6659 45.0656 94.4593C44.9953 94.2775 44.9292 94.1123 44.8259 93.8478C45.7184 94.2486 46.239 93.6123 46.8712 93.3024C46.6233 93.2776 46.3712 93.2487 46.0489 93.2156C46.4373 92.5545 46.5737 91.9678 45.9415 91.4141C45.7391 91.691 45.5531 91.9389 45.3672 92.1909C45.4003 91.8067 45.5407 91.4678 45.611 91.1166C45.644 90.9638 45.5655 90.6539 45.487 90.6332C45.1358 90.5547 44.7143 90.4266 44.421 90.5547C43.9128 90.7778 43.5368 90.6745 43.1277 90.406C42.9583 90.2944 42.7724 90.2076 42.5699 90.0961C42.6732 90.658 42.7476 91.1704 42.8715 91.6662C42.9128 91.848 43.0823 91.9885 43.2641 92.2529Z" fill="white"/>
<path d="M50.1354 58.7018C49.7098 58.5571 48.8835 58.3588 48.1273 57.9993C47.1976 57.5614 46.8671 56.5449 47.2472 55.5822C47.3877 55.2268 47.5778 54.8756 47.8216 54.5864C48.8091 53.4088 50.0363 52.5452 51.4824 52.0287C51.9452 51.8635 52.4617 51.7891 52.9534 51.7808C53.6434 51.7684 54.1723 52.1196 54.4656 52.7601C55.1061 54.1649 55.1681 55.5657 54.35 56.9209C53.4905 58.3505 52.0857 58.6687 50.1354 58.7018Z" fill="white"/>
<path d="M38.5206 58.8216C35.2523 58.7555 33.4054 56.016 34.6532 53.008C35.0003 52.1692 35.5994 51.7726 36.5001 51.8056C36.748 51.8139 37.0042 51.8428 37.2439 51.913C38.9834 52.4213 40.442 53.3716 41.5369 54.8136C42.6153 56.235 42.2311 57.644 40.5824 58.301C39.9255 58.5613 39.2065 58.6522 38.5206 58.8216Z" fill="white"/>
<path d="M40.7601 61.8339C40.7849 60.9868 41.2601 60.429 41.9212 60.4621C42.5699 60.4951 43.1029 61.2224 43.074 62.0239C43.0451 62.7759 42.5534 63.3751 41.9791 63.3668C41.3593 63.3544 40.7395 62.5735 40.7601 61.8339Z" fill="white"/>
<path d="M48.4165 61.809C48.4165 62.5775 47.8257 63.346 47.2224 63.3667C46.6398 63.3874 46.1068 62.7345 46.0944 61.9867C46.0779 61.1975 46.6522 60.4703 47.2926 60.4579C47.9248 60.4413 48.4165 61.0363 48.4165 61.809Z" fill="white"/>
<path d="M43.1566 67.503C43.169 68.1889 42.7971 68.7714 42.322 68.8665C41.8468 68.9615 41.3468 68.6144 41.0907 68.0153C41.0824 67.9988 41.0783 67.9781 41.07 67.9616C40.8758 67.379 40.8262 66.7757 41.322 66.3584C41.5534 66.1642 42.0245 66.0651 42.3054 66.1642C42.9046 66.3708 43.107 66.941 43.1566 67.503Z" fill="white"/>
<path d="M48.2554 67.3789C48.2471 67.416 48.2347 67.5111 48.2182 67.6061C48.0612 68.3581 47.5489 68.8911 46.991 68.8746C46.5241 68.8622 46.1151 68.3953 46.0448 67.792C45.9539 67.0359 46.3671 66.2756 46.9663 66.0938C47.6356 65.8914 48.2595 66.4864 48.2554 67.3789Z" fill="white"/>
<path d="M51.5609 64.1106C51.5485 64.9204 50.8709 65.7633 50.2346 65.7716C49.7429 65.7757 49.338 65.2551 49.338 64.6188C49.338 63.7346 49.9371 62.9536 50.6147 62.9536C51.156 62.9495 51.5692 63.4536 51.5609 64.1106Z" fill="white"/>
<path d="M39.8346 64.4987C39.8304 65.0731 39.7106 65.5689 39.1321 65.73C38.5826 65.8829 38.2314 65.5234 37.9463 65.1102C37.8719 64.9987 37.8058 64.8789 37.7603 64.7549C37.4587 63.9533 37.7066 63.1806 38.3223 62.9906C38.9256 62.8046 39.6404 63.3872 39.8056 64.1971C39.8263 64.3087 39.8304 64.4243 39.8346 64.4987Z" fill="white"/>
<path d="M41.7394 43.546C42.4005 43.5542 42.9583 44.0914 42.9376 44.7029C42.9211 45.3227 42.2683 45.9384 41.6278 45.9342C40.9667 45.9301 40.4089 45.4136 40.4089 44.7979C40.4048 44.1286 41.0328 43.5377 41.7394 43.546Z" fill="white"/>
<path d="M47.4745 43.575C48.148 43.575 48.7512 44.1534 48.7636 44.8104C48.776 45.4508 48.2471 45.9467 47.5612 45.9425C46.8795 45.9384 46.2762 45.3682 46.2638 44.7195C46.2556 44.0956 46.8051 43.575 47.4745 43.575Z" fill="white"/>
<path d="M41.2105 72.4568C41.2229 72.1098 41.3552 71.6635 41.884 71.5148C42.4129 71.3702 42.7641 71.6801 43.0203 72.1056C43.3591 72.6634 43.355 73.5105 42.9418 73.8823C42.7476 74.0559 42.3881 74.1757 42.1361 74.1303C41.6196 74.0352 41.2064 73.2667 41.2105 72.4568Z" fill="white"/>
<path d="M47.9703 72.5808C47.9827 73.4031 47.3959 74.2005 46.7886 74.1882C46.3051 74.1799 45.9415 73.6758 45.9333 73.0064C45.9209 72.1842 46.4704 71.4735 47.1108 71.4818C47.6149 71.49 47.962 71.9321 47.9703 72.5808Z" fill="white"/>
<path d="M47.4538 50.3844C46.7761 50.3885 46.1977 49.8927 46.1853 49.2894C46.1729 48.6697 46.6853 48.1614 47.334 48.1532C48.0075 48.1449 48.5983 48.6903 48.6024 49.3266C48.6024 49.9175 48.1025 50.3761 47.4538 50.3844Z" fill="white"/>
<path d="M41.7352 50.3843C41.0948 50.3802 40.5783 49.9215 40.5659 49.3431C40.5535 48.7233 41.1485 48.1407 41.8014 48.1324C42.4625 48.1242 43.0079 48.6489 42.9872 49.2852C42.9748 49.8967 42.4087 50.3926 41.7352 50.3843Z" fill="white"/>
<path d="M39.4503 47.2731C39.4586 47.9176 38.8429 48.5085 38.1612 48.5126C37.591 48.5168 37.1323 48.054 37.1282 47.4755C37.1241 46.802 37.7108 46.1988 38.376 46.2029C38.9586 46.2029 39.4421 46.6863 39.4503 47.2731Z" fill="white"/>
<path d="M50.7717 46.2276C51.4204 46.2111 52.036 46.8061 52.0567 47.4672C52.0732 48.0374 51.6394 48.5002 51.0609 48.5291C50.3998 48.5621 49.7552 47.9837 49.7387 47.3391C49.7222 46.773 50.218 46.24 50.7717 46.2276Z" fill="white"/>
<path d="M36.8844 66.8872C36.7935 67.0235 36.6695 67.4119 36.4382 67.5028C36.2026 67.5937 35.7192 67.4863 35.5829 67.2962C35.2441 66.8334 34.9135 66.2922 34.8185 65.7426C34.6986 65.0443 35.3763 64.7014 35.9837 65.098C36.5497 65.4658 36.8348 66.0195 36.8844 66.8872Z" fill="white"/>
<path d="M54.3871 65.8624C54.3334 66.4781 54.0194 67.0566 53.412 67.445C52.9079 67.7672 52.4575 67.5483 52.3294 66.9574C52.1889 66.3087 52.6104 65.4203 53.2178 65.0774C53.8665 64.7138 54.383 65.0154 54.3871 65.8624Z" fill="white"/>
<path d="M41.727 41.4387C40.9998 41.4428 40.599 41.2362 40.4461 40.728C40.3015 40.2446 40.599 39.9181 40.9626 39.6578C41.4873 39.2818 42.1691 39.2322 42.5657 39.6454C42.7682 39.8562 42.9004 40.2611 42.855 40.542C42.7723 41.0792 42.1484 41.4387 41.727 41.4387Z" fill="white"/>
<path d="M47.71 41.4843C46.9704 41.4926 46.2845 40.9513 46.2638 40.3398C46.2473 39.8357 46.7059 39.439 47.3257 39.4349C48.0653 39.4266 48.7512 39.9679 48.7677 40.5794C48.7843 41.0835 48.3297 41.4761 47.71 41.4843Z" fill="white"/>
<path d="M34.7896 46.9839C34.3392 46.9922 34.0045 46.6575 33.9921 46.1782C33.9756 45.484 34.6161 44.7444 35.2358 44.7403C35.6945 44.7361 36.0209 45.0997 36.0333 45.6245C36.0581 46.2815 35.4259 46.9674 34.7896 46.9839Z" fill="white"/>
<path d="M54.416 47.0168C53.7632 47.0209 53.1641 46.3846 53.1558 45.678C53.1517 45.1698 53.4905 44.8021 53.9574 44.8062C54.5441 44.8103 55.197 45.5375 55.2011 46.1945C55.2135 46.6614 54.8705 47.0126 54.416 47.0168Z" fill="white"/>
</svg>
