<svg width="87" height="88" viewBox="0 0 87 88" fill="none" xmlns="http://www.w3.org/2000/svg">
<path d="M22.8118 53.9545C21.9351 54.4049 21.7862 55.1892 21.7299 55.9614C21.6415 57.1156 21.6696 58.2779 21.6133 59.4322C21.6012 59.7016 21.4645 59.963 21.2594 60.2043C20.5717 58.7605 21.2312 57.2081 20.7486 55.5833C20.073 56.6008 19.4737 57.4534 18.9268 58.3382C17.7363 60.2566 16.5056 62.1509 15.4278 64.1296C14.7722 65.3362 14.4465 66.6915 14.5028 68.1072C14.5671 69.7159 14.5953 71.3286 14.6234 72.9414C14.6355 73.7377 14.6395 74.534 14.5913 75.3303C14.5752 75.5917 14.3862 75.8451 14.2776 76.1025C14.2012 76.0985 14.1247 76.0985 14.0443 76.0945C13.9518 75.7928 13.799 75.4952 13.7829 75.1855C13.6743 73.3878 13.5577 71.5941 13.5215 69.7963C13.4893 68.3083 13.5576 66.8162 13.5818 65.3241C13.5938 64.5077 13.3244 63.8803 12.5884 63.4178C11.768 62.903 11.4623 62.1509 11.9248 61.3425C13.2842 58.9576 13.9196 56.3233 14.0081 53.6046C14.0523 52.2653 13.7306 50.914 13.5738 49.5667C13.5376 49.2691 13.4129 48.9594 13.4732 48.6859C13.5295 48.4366 13.7346 48.0907 13.9478 48.0223C15.0457 47.6644 16.1638 47.3547 17.2859 47.0812C17.9816 46.9123 18.3959 47.1456 18.5246 47.8454C18.7015 48.8227 18.7659 49.8201 18.8745 50.8014C21.179 48.0103 23.5116 45.1829 25.8442 42.3556C25.8241 42.3194 25.804 42.2873 25.7839 42.2511C24.1873 42.6693 22.5866 43.0715 20.9939 43.5099C20.4872 43.6466 20.0327 44.7446 20.1252 45.4041C20.1655 45.6977 20.1775 46.0034 20.1413 46.297C20.1293 46.4176 19.9563 46.5182 19.8598 46.6268C19.7593 46.5262 19.5823 46.4418 19.5662 46.3292C19.4858 45.8184 19.4456 45.3036 19.4013 44.7848C19.3852 44.5716 19.3973 44.3585 19.3973 44.0287C18.7739 44.1896 18.2229 44.274 17.7122 44.4711C15.3836 45.3599 13.067 46.2688 10.7545 47.2019C10.5212 47.2944 10.3241 47.588 10.2075 47.8333C9.78522 48.7261 10.0145 49.6793 10.0306 50.6083C10.0386 51.0709 9.96218 51.4771 9.32271 51.7747C9.27445 51.2076 9.19 50.7129 9.20206 50.2223C9.21815 49.5345 9.40315 48.8307 8.89238 48.2315C8.20063 48.4486 7.80648 49.0318 7.75018 49.812C7.63757 51.3403 7.48877 52.8646 7.3842 54.3929C7.34801 54.968 7.40834 55.5511 7.41236 56.1303C7.41236 56.3233 7.40028 56.5284 7.32387 56.7014C7.28365 56.7979 7.09464 56.8984 6.99008 56.8823C6.89355 56.8663 6.76082 56.7014 6.75278 56.5928C6.70452 55.9935 6.69244 55.3943 6.66831 54.795C6.66027 54.5618 6.73268 54.2883 6.63616 54.1033C6.1093 53.0737 6.68843 52.0321 6.54766 50.9985C6.39886 49.9045 6.54767 48.7985 6.15354 47.7006C5.89614 46.9767 5.99265 46.112 6.01276 45.3116C6.02482 44.7767 6.36266 44.4188 6.87745 44.1936C8.20867 43.6104 8.18454 43.5943 8.08802 42.1586C8.0478 41.5674 8.00357 40.94 8.14433 40.3729C8.49423 38.9572 7.8105 37.807 7.32387 36.5964C6.28624 34.0144 5.01939 31.545 3.58763 29.1601C3.3423 28.7499 3.04067 28.3678 2.81545 27.9455C2.57012 27.4871 2.59022 27.0527 3.00849 26.6505C3.51524 26.1679 3.96567 25.629 4.45633 25.1303C4.63731 24.9493 4.85047 24.7925 5.07167 24.6638C5.49798 24.4144 5.80765 24.519 6.04091 24.9734C6.67636 26.2121 7.33192 27.4428 7.98345 28.6896C8.42585 28.2472 8.29715 27.6801 8.21672 27.1532C8.05585 26.1357 8.09203 24.9815 7.60137 24.1449C6.61603 22.4478 6.62007 20.5575 6.23398 18.7678C5.55027 15.6067 4.81427 12.4697 3.73241 9.42518C3.33023 8.29104 2.69881 7.23733 2.15185 6.15144C1.54858 4.95295 1.54858 4.63925 2.57816 3.87913C2.9924 3.57347 3.37849 3.21955 3.73643 2.84955C4.19492 2.379 4.97916 2.2503 5.51406 2.6565C6.45516 3.36836 7.35604 4.1325 8.30519 4.83229C9.47955 5.69296 10.6861 6.50536 11.8765 7.34591C14.0845 8.91039 16.6544 9.62225 19.1681 10.4668C21.2473 11.1626 23.3708 11.7377 25.4702 12.3691C25.619 12.4134 25.7598 12.4817 26.0051 12.5742C26.5641 11.4803 27.1433 10.3944 27.6822 9.28442C28.1728 8.27897 28.6153 7.25341 29.0818 6.2359C29.6086 5.08969 29.7936 5.02534 30.8675 5.62861C30.9358 5.6648 31.0042 5.701 31.2334 5.67687C30.968 4.82425 30.7428 3.95956 30.4251 3.12705C30.3124 2.82944 30.1958 2.63237 30.4894 2.41519C31.3782 1.76769 32.267 1.12018 33.1599 0.47669C33.2564 0.404298 33.3569 0.335927 33.4615 0.279622C34.3825 -0.231146 34.5997 -0.0702736 34.6922 0.995502C34.8168 2.46346 35.0179 3.92739 35.1949 5.39534C35.3598 6.76275 35.5448 8.13016 35.7016 9.49757C35.7499 9.92388 35.7137 10.3261 35.2834 10.5955C34.4107 11.1425 34.3141 11.3798 34.467 12.5179C34.9174 12.337 35.3397 12.1439 35.7821 11.9951C36.4417 11.7739 37.1053 11.5728 37.7729 11.3878C38.1107 11.2913 38.3279 11.424 38.4606 11.7739C38.7261 12.4616 39.0317 13.1333 39.3253 13.8089C39.5264 14.2714 39.5143 14.6817 39.1403 15.0758C38.1107 16.1617 37.8573 17.505 37.8654 18.9448C37.8694 19.5078 37.7327 20.0749 37.6603 20.6379C37.5879 20.6621 37.5155 20.6862 37.4431 20.7103C37.3224 20.5052 37.1415 20.3162 37.0972 20.099C37.0087 19.6526 37.0128 19.1861 36.9484 18.7316C36.9203 18.5386 36.8197 18.3536 36.7514 18.1645C36.683 18.1485 36.6146 18.1324 36.5462 18.1163C35.3156 19.9341 34.0849 21.748 32.7698 23.6865C33.0272 23.6422 33.1277 23.6462 33.2081 23.606C34.3785 23.043 35.5488 22.4799 36.7192 21.9088C37.4632 21.5469 38.2072 21.197 38.9794 22.1662C39.2288 19.9261 39.4902 17.8589 39.6832 15.7877C39.8562 13.9175 40.0251 12.0434 40.0653 10.1692C40.0975 8.77767 39.9044 7.38613 39.8521 5.99057C39.8401 5.65676 39.8883 5.23045 40.0854 5.00121C41.0265 3.9113 42.0038 2.85357 43.0173 1.83203C43.5844 1.26094 43.9624 1.42986 44.1273 2.21008C44.5657 4.25718 45.0282 6.29623 45.4625 8.34734C45.539 8.7093 45.6677 8.8018 46.0336 8.71734C47.8193 8.28701 49.609 7.87277 51.3987 7.46255C53.9284 6.88341 56.4581 6.30829 58.9838 5.72915C59.4302 5.62459 59.8606 5.46371 60.311 5.37926C60.8178 5.28273 61.1154 5.58437 61.3486 6.00666C61.8232 6.87939 62.2938 7.75614 62.8246 8.59267C63.263 9.2804 63.2188 9.5016 62.4225 9.72682C62.0766 9.82334 61.7186 9.88367 61.3647 9.93997C60.6971 10.0486 60.5402 10.2577 60.6126 11.0621C60.8097 10.9052 60.9907 10.7886 61.1395 10.6438C61.6623 10.129 62.346 10.2617 62.4747 10.9816C62.5873 11.601 62.5471 12.2525 62.5512 12.8879C62.5713 14.4484 62.5753 16.0089 62.5914 17.5653C62.5954 17.7382 62.6557 17.9152 62.704 18.1525C63.5244 17.883 64.3127 17.6296 65.097 17.3722C65.1171 17.3642 65.1332 17.3562 65.1533 17.3481C66.5609 16.9178 66.585 16.9178 66.4805 15.4619C66.2914 12.7552 66.0944 10.0526 65.8531 7.34994C65.7927 6.66221 65.5916 5.9785 65.3785 5.31893C65.2538 4.93284 65.2297 4.62718 65.5273 4.33761C65.9938 3.87913 66.4483 3.4126 66.9309 2.9702C67.5663 2.39106 68.2138 1.82399 68.8814 1.28507C69.0705 1.13224 69.4164 0.963328 69.5692 1.03974C69.7864 1.14833 70.0035 1.46605 70.0317 1.71942C70.2006 3.13912 70.3494 4.56685 70.4419 5.99459C70.647 9.15974 70.8119 12.3289 70.9969 15.5504C71.7771 15.4217 72.5493 15.297 73.1807 15.1924C73.6634 16.1416 74.1339 16.9821 74.5079 17.8669C74.6407 18.1806 74.6568 18.6552 74.516 18.9568C74.1661 19.7129 74.1379 20.4449 74.1862 21.2653C74.2626 22.4558 74.1098 23.6623 74.0776 24.8608C74.0575 25.6772 74.0655 26.4977 74.0857 27.3141C74.0977 27.7485 74.0012 27.9737 73.5186 28.2753C73.4663 27.9858 73.3899 27.7284 73.3778 27.471C73.3537 26.9723 73.3738 26.4736 73.3577 25.9789C73.3094 24.3903 73.2531 22.8017 73.2049 21.2131C73.1566 19.6245 72.5976 19.2826 71.0733 19.9703C71.1497 20.8672 71.2543 21.7801 71.2986 22.6931C71.4433 25.9105 71.5559 29.128 71.6927 32.3414C71.745 33.6364 71.8415 34.9314 71.8777 36.2304C71.8898 36.6407 71.7208 37.0589 71.7249 37.4692C71.7289 37.7225 71.8294 38.1046 72.0104 38.2092C75.4249 40.1316 78.9118 41.9173 82.6078 43.2485C83.6615 43.6265 84.7313 43.9483 85.7931 44.3062C86.3119 44.4832 86.694 44.8532 86.6538 45.4001C86.5773 46.4458 86.4165 47.4834 86.2637 48.521C86.1189 49.5064 85.8454 50.4797 85.7891 51.465C85.7046 52.8726 85.7851 54.2923 85.7529 55.704C85.7489 55.9533 85.596 56.3716 85.4311 56.4158C85.0089 56.5325 84.9003 56.1383 84.8922 55.8126C84.8681 54.6583 84.8681 53.504 84.8641 52.3538C84.86 51.6218 84.8641 50.8899 84.8641 50.1579C84.7756 50.1257 84.6871 50.0936 84.5986 50.0614C84.4176 50.351 84.1361 50.6204 84.0758 50.9341C83.927 51.6942 83.8184 52.4704 83.8023 53.2426C83.75 56.259 83.742 59.2753 83.7179 62.2917C83.7138 62.8306 83.7299 63.3735 83.6897 63.9084C83.6776 64.0733 83.5127 64.2261 83.4162 64.383C83.2795 64.2101 83.0301 64.0452 83.0181 63.8642C82.9779 63.2287 83.0221 62.5853 83.0301 61.9458C83.0462 60.4296 83.0704 58.9134 83.0663 57.3971C83.0623 55.6396 83.0543 53.8821 82.9939 52.1286C82.9819 51.7264 82.8612 51.2036 82.5877 50.9623C82.2016 50.6204 81.6828 50.8376 81.2565 51.1151C80.0057 51.9355 78.767 52.7801 77.4921 53.5603C76.3097 54.2843 75.8553 55.3862 75.7628 56.6732C75.6341 58.4468 75.5617 60.2245 75.4611 62.0021C75.4491 62.1992 75.4691 62.4204 75.3887 62.5933C75.3083 62.7662 75.1193 62.8869 74.9785 63.0277C74.8578 62.8467 74.6246 62.6657 74.6326 62.4887C74.6768 61.1133 74.7694 59.7378 74.8377 58.3624C74.882 57.4534 74.9021 56.5445 74.9383 55.527C74.2224 56.1544 73.5146 56.7738 72.8067 57.3931C72.7182 57.4736 72.6418 57.5741 72.5453 57.6384C71.3267 58.471 70.9044 59.6695 70.8722 61.0891C70.8119 63.6068 70.7234 66.1204 70.643 68.6381C70.6028 69.9934 70.5666 71.3528 70.5103 72.7081C70.5022 72.9172 70.3896 73.1183 70.1845 73.3114C69.722 69.1649 69.8065 65.0023 69.4767 60.8599C67.7433 62.8225 66.0702 64.7691 64.9924 67.0897C63.9427 69.3499 62.6678 71.5378 62.4064 74.1157C62.3259 74.0996 62.2455 74.0836 62.161 74.0634C62.0645 73.9066 61.968 73.7498 61.7709 73.4401C61.6985 74.5702 61.606 75.5555 61.5859 76.5409C61.5578 78.041 61.5698 79.5411 61.5899 81.0413C61.6141 82.8712 61.6623 84.7051 61.6945 86.535C61.6985 86.712 61.6865 86.901 61.6181 87.0579C61.5739 87.1665 61.409 87.3032 61.3165 87.2911C61.1878 87.275 61.0148 87.1584 60.9666 87.0418C60.8861 86.8447 60.862 86.6155 60.862 86.4023C60.8781 84.2667 60.9666 82.1271 60.9143 79.9956C60.866 77.9606 60.6408 75.9296 60.5604 73.8945C60.5121 72.7403 59.756 72.0566 59.0401 71.3447C58.7184 71.027 58.6098 70.7294 58.646 70.295C58.7345 69.2413 58.7787 68.1836 58.8511 67.1299C58.8994 66.4462 59.2533 65.8791 59.8968 65.7383C61.0189 65.493 61.5176 64.6605 62.0323 63.8039C62.1731 63.5666 62.2937 63.3132 62.4667 62.9915C61.7267 63.1282 61.7669 62.722 61.787 62.1951C61.9157 58.7967 62.0122 55.3983 62.1047 51.9959C62.1289 51.0789 62.1088 50.166 62.1088 49.1726C61.5819 49.2812 60.9907 49.3978 60.5041 49.4983C60.6851 51.65 60.9304 53.7132 61.0148 55.7804C61.0912 57.6948 61.0188 59.6131 60.9625 61.5315C60.9344 62.4968 60.4799 62.73 59.7037 62.1992C59.201 61.8493 58.9476 62.1469 58.8511 62.5088C58.7103 63.0598 58.7264 63.647 58.65 64.2141C58.5213 65.1592 58.3846 66.1003 58.2197 67.0374C58.1996 67.1419 57.9985 67.2586 57.8698 67.2787C57.8014 67.2907 57.6285 67.0977 57.6325 66.9972C57.6365 66.5266 57.6767 66.0561 57.7169 65.5855C57.7612 65.0587 57.8255 64.5278 57.8698 64.0009C57.918 63.4459 57.9221 62.8829 58.0025 62.3319C58.099 61.6844 57.8979 61.1977 57.355 60.8478C56.8603 60.5301 56.6713 60.2003 56.8161 59.5247C57.0976 58.2055 57.355 56.8743 57.1941 55.4868C57.0332 54.1113 57.0333 52.7158 56.8603 51.3122C56.1485 51.9878 55.5693 52.6836 55.501 53.685C55.4849 53.9062 55.3562 54.1154 55.2757 54.3325C55.135 54.0993 54.9862 53.866 54.8575 53.6247C54.8253 53.5644 54.8534 53.4759 54.8534 53.3995C54.8052 53.3955 54.7529 53.3914 54.7046 53.3874C54.6403 54.1958 54.5035 55.0082 54.5236 55.8126C54.5558 57.0312 54.7086 58.2417 54.777 59.4603C54.8011 59.8906 54.769 60.333 54.6885 60.7553C54.6604 60.9001 54.407 60.9966 54.2542 61.1173C54.1456 60.9484 53.9525 60.7835 53.9485 60.6146C53.9164 59.0823 53.9405 57.55 53.8962 56.0217C53.8761 55.2294 53.7595 54.4371 53.5504 53.504C53.3613 53.7494 53.1764 53.9987 52.9833 54.24C52.5329 54.795 51.9939 55.2937 51.6521 55.9051C51.2218 56.6772 51.3303 57.5661 51.4349 58.4307C51.4832 58.8369 51.7285 59.4523 51.1252 59.5327C50.5944 59.6051 50.6225 58.9697 50.5461 58.5836C50.3691 57.6746 50.2686 56.7496 50.0554 55.8528C49.8986 55.2012 49.3637 54.8111 48.7846 54.5175C48.0647 54.1556 48.0848 54.0832 48.3703 53.3351C49.1304 51.3484 49.975 49.3737 50.526 47.3266C51.2741 44.5395 51.7848 41.688 52.3881 38.8607C52.4403 38.6073 52.4444 38.3459 52.4725 38.0443C51.8894 37.8834 51.8653 37.4611 51.8813 36.9383C51.9095 36.1178 51.8089 35.2893 51.813 34.4649C51.817 33.934 51.9376 33.3991 51.9537 32.8682C52.0141 30.9337 52.0905 28.9952 52.0945 27.0607C52.1065 23.787 52.0663 20.5092 52.0502 17.2355C52.0422 15.486 52.0502 13.7325 52.0502 12.0152C50.5139 11.7337 49.5286 12.5984 49.4481 14.183C49.4039 15.0557 49.4481 15.9324 49.4522 16.8092C49.4522 16.9298 49.4803 17.0666 49.4321 17.1631C49.3235 17.3763 49.1706 17.5653 49.0379 17.7624C48.9253 17.5412 48.7363 17.328 48.7081 17.0988C48.5875 16.0772 48.5593 15.0396 48.4025 14.0261C48.31 13.4269 48.0244 12.8879 47.2523 12.8558C47.0954 12.8477 46.9345 12.6426 46.7978 12.5059C46.653 12.3611 46.5404 12.1841 46.3473 11.9428C46.8501 14.1186 47.3206 16.1697 47.8032 18.253C48.2255 18.1525 48.6438 18.0439 49.0661 17.9594C49.4602 17.879 49.7297 18.0157 49.9469 18.3898C50.3169 19.0252 50.7472 19.6285 51.1815 20.2277C51.5274 20.7063 51.459 21.3458 50.9402 21.6313C50.4375 21.9088 49.9066 22.1381 49.3798 22.3633C48.9977 22.5282 48.9012 22.7534 49.0138 23.1636C49.798 26.0312 50.5582 28.9027 51.3223 31.7743C51.3625 31.9271 51.3746 32.088 51.3907 32.2489C51.4671 32.9768 51.4229 33.0291 50.5461 33.0733C50.6145 34.2316 50.707 35.3939 50.7472 36.5562C50.7633 37.0871 50.6627 37.622 50.6426 38.1529C50.5944 39.4921 50.6507 40.8394 50.5099 42.1706C50.2565 44.5113 50.0031 46.86 49.5286 49.1605C49.2028 50.7411 48.1129 51.831 46.4197 52.1165C45.9331 52.201 45.9613 52.579 45.9411 52.8887C45.909 53.4075 45.9814 53.9304 45.9452 54.4492C45.9331 54.6422 45.732 54.8232 45.6194 55.0082C45.4545 54.8433 45.185 54.7025 45.1488 54.5135C45.0121 53.8097 44.9437 53.0898 44.8713 52.3739C44.8231 51.8913 44.6099 51.5816 44.2158 51.2559C43.6286 50.7732 43.0455 50.178 42.7076 49.5104C41.8992 47.8936 41.2316 46.2045 40.5037 44.5314C40.4152 45.1186 40.1618 45.7058 40.5238 46.3573C41.3643 47.8735 42.1687 49.4139 42.9851 50.9462C43.0696 51.103 43.1942 51.2961 43.1661 51.4409C43.0012 52.2412 42.8082 53.0375 42.591 53.8258C42.5628 53.9344 42.3376 54.055 42.2089 54.051C42.1003 54.047 41.9756 53.8781 41.9073 53.7574C41.8228 53.6126 41.7906 53.4437 41.7343 53.2828C41.678 53.2708 41.6217 53.2587 41.5654 53.2466C41.304 53.7453 40.9782 54.2199 40.8013 54.7468C40.6283 55.2616 40.8817 55.5833 41.4488 55.6195C42.7036 55.6999 43.9624 55.708 45.2172 55.7924C46.1503 55.8528 47.0833 55.9614 48.0084 56.1021C48.2094 56.1343 48.503 56.3756 48.5312 56.5566C48.7081 57.7189 48.873 58.8892 48.9414 60.0596C48.9736 60.6146 48.3824 60.6508 47.9802 60.7875C47.2281 61.0449 46.468 61.2943 45.7159 61.5516C45.6476 61.5758 45.5872 61.6321 45.3701 61.7729C46.4157 61.7729 47.2884 61.7447 48.1652 61.7809C49.7618 61.8452 51.3545 61.9337 52.9511 62.0343C53.7877 62.0866 54.6242 62.1791 55.4567 62.2675C55.6739 62.2917 55.8911 62.348 56.0962 62.4244C56.6391 62.6255 56.7035 63.0317 56.3375 63.4982C55.7342 64.2664 55.1671 65.0627 54.588 65.8429C54.3427 66.1727 54.0732 66.4904 53.8601 66.8403C53.2206 67.898 53.4619 69.0764 53.4217 70.2186C53.3694 71.6705 53.2849 73.1183 53.2246 74.5702C53.1965 75.3223 53.2206 76.0743 53.1603 76.8224C53.1442 77.0356 52.9552 77.2728 52.7782 77.4176C52.7179 77.4659 52.3881 77.2809 52.2875 77.1321C52.1749 76.9672 52.1227 76.7138 52.1347 76.5047C52.2312 74.8557 52.4082 73.2149 52.4444 71.5659C52.4685 70.4961 52.2714 69.4263 52.2192 68.3525C52.2031 67.9865 52.3117 67.6125 52.3881 67.2465C52.4725 66.8363 52.4283 66.5347 51.9215 66.4864C50.4174 66.3376 48.9173 66.1164 47.4091 66.052C46.3996 66.0078 45.8688 66.7398 45.917 67.7814C45.9371 68.1755 45.8647 68.5777 45.8647 68.9759C45.8607 70.3031 45.8848 71.6303 45.8688 72.9575C45.8647 73.3074 45.7682 73.6613 45.6636 73.9951C45.6274 74.1037 45.4223 74.2243 45.3017 74.2163C45.2172 74.2123 45.0805 74.0031 45.0764 73.8825C45.0604 73.247 45.1086 72.6116 45.0764 71.9802C45.0322 71.031 44.9317 70.0859 44.8794 69.1408C44.8553 68.7265 44.8874 68.3083 44.8995 67.89C44.9357 66.8765 44.2922 66.1807 43.2868 66.2813C41.859 66.4301 40.4273 66.603 39.0277 66.8926C38.3038 67.0414 37.6321 67.4677 36.9404 67.7693C36.7755 67.8417 36.6267 67.9543 36.4577 68.0107C35.6413 68.2801 35.022 69.0805 35.034 69.9371C35.0662 72.3783 35.1145 74.8195 35.1587 77.2608C35.1949 79.0585 35.2432 80.8522 35.2794 82.65C35.2834 82.8068 35.3035 82.9959 35.2271 83.1165C35.1346 83.2693 34.9496 83.4664 34.8088 83.4664C34.6801 83.4664 34.5313 83.2372 34.4267 83.0843C34.3785 83.016 34.3986 82.8913 34.3986 82.7907C34.3905 80.8884 34.4147 78.9861 34.3624 77.0838C34.3302 75.9899 34.1332 74.904 34.0849 73.8101C34.0286 72.5593 34.0648 71.3045 34.0406 70.0537C34.0366 69.7642 34.0165 69.4464 33.8878 69.1971C33.6425 68.7185 33.0473 68.7386 32.8904 69.2453C32.7135 69.8245 32.6773 70.4479 32.5968 71.0552C32.5486 71.4091 32.5767 71.7791 32.4882 72.1209C32.4199 72.3944 32.2268 72.6317 32.0901 72.8891C32.0096 72.877 31.9292 72.865 31.8488 72.8529C31.7603 72.5633 31.6236 72.2778 31.5954 71.9842C31.527 71.3085 31.5351 70.6288 31.4707 69.9532C31.4466 69.6837 31.3983 69.3338 31.2214 69.173C30.4975 68.5094 30.8071 67.705 30.8433 66.9368C30.8795 66.1325 30.9439 65.3281 31.0082 64.3548C33.9562 62.7099 37.0288 60.9966 40.0975 59.2874C40.1015 59.2351 40.1015 59.1868 40.1055 59.1346C39.0759 59.1346 38.0464 59.1707 37.0208 59.1265C35.3638 59.0581 33.7069 58.9254 32.0499 58.845C31.4949 58.8168 30.9278 58.8289 30.3848 58.9174C30.1958 58.9455 29.9505 59.2311 29.9062 59.4362C29.7816 60.0274 29.7534 60.6347 29.673 61.2339C29.6207 61.6281 29.7011 62.0906 29.1059 62.3198C28.8646 61.5396 28.4262 60.8478 28.6716 60.0073C28.7761 59.6453 28.7077 59.4804 28.2855 59.5126C27.7908 59.5488 27.5213 59.7539 27.3363 60.2446C26.7853 61.6964 26.729 63.2046 26.7049 64.7248C26.7009 65.0868 26.7934 65.5533 26.2866 65.6217C26.1982 65.6338 25.9408 65.1029 25.9287 64.8133C25.8724 63.5746 25.8563 62.3359 25.8764 61.0972C25.8885 60.5181 26.3671 59.955 25.985 59.3638C25.8362 59.1346 25.619 58.9013 25.3777 58.7967C24.9112 58.5916 24.7302 58.3302 25.0117 57.8798C25.434 57.2081 25.9247 56.5767 26.4113 55.9453C26.6285 55.6597 26.8537 55.3259 27.1594 55.1811C27.5776 54.98 28.0723 54.8353 28.5268 54.8473C30.2441 54.8956 31.9574 55.0203 33.6706 55.1047C34.0406 55.1248 34.4107 55.1087 34.9053 55.1087C34.8571 54.3929 34.8651 53.7413 34.7565 53.1059C34.66 52.5428 34.0769 52.5066 33.6586 52.4463C33.4937 52.4222 33.2242 52.8244 33.0714 53.0737C32.8985 53.3593 32.8422 53.7212 32.6531 53.9947C32.5446 54.1516 32.2429 54.3004 32.0901 54.2561C31.9332 54.2079 31.7844 53.9263 31.7563 53.7252C31.6638 53.1019 31.7402 52.4302 31.5391 51.8511C31.33 51.2559 30.9077 50.7169 30.5095 50.2062C29.6931 49.1565 29.1703 47.9902 28.933 46.6871C28.8686 46.3332 28.8164 45.9793 28.756 45.6012C26.7049 47.5558 24.875 49.615 24.139 52.4061C24.0264 52.8244 23.9862 53.2708 23.9741 53.7051C23.9138 55.716 23.8695 57.7309 23.8253 59.7459C23.8052 60.7031 23.8213 61.6643 23.7609 62.6214C23.7449 62.8788 23.8052 63.4017 23.3266 63.2891C23.1456 63.2448 22.9606 62.7501 22.9687 62.4686C23.0089 61.0811 23.1496 59.6976 23.1818 58.3141C23.2059 57.2202 23.1456 56.1263 23.0853 55.0323C23.0732 54.6663 22.9204 54.3446 22.8118 53.9545ZM9.61227 23.4612C9.49564 23.8031 9.31868 24.1248 9.28651 24.4586C9.194 25.3877 9.17391 26.3248 9.10152 27.2578C9.03315 28.1868 8.93661 29.1159 8.86422 30.0449C8.84411 30.2983 8.79182 30.5798 8.87627 30.801C9.30661 31.9432 9.79728 33.0572 10.2196 34.2035C10.5453 35.0882 11.1124 35.9489 10.6137 36.9664C10.3161 37.5737 10.0627 38.2011 9.77718 38.8164C9.15782 40.1637 9.11759 41.5995 9.03716 43.2002C10.2196 42.4964 11.2532 41.8569 12.3109 41.2657C12.9825 40.8917 13.5094 40.4895 13.2279 39.6007C13.1836 39.4599 13.2319 39.283 13.26 39.1261C13.3606 38.5952 13.2802 38.2092 12.7613 37.8512C12.3994 37.6019 11.7599 37.3606 12.1058 36.5964C12.7774 35.1003 12.7171 33.6525 11.6151 32.3333C11.2089 31.8427 11.2974 31.4847 11.8524 31.167C12.7533 30.6482 13.6542 30.1334 14.5671 29.6307C15.1503 29.3089 15.5686 29.506 15.7294 30.1414C15.834 30.5517 15.9587 30.9579 16.0994 31.4525C16.7872 30.4833 17.4065 29.6106 18.0178 28.7459C17.6398 28.7459 17.2658 28.7378 16.8917 28.7499C16.2965 28.766 15.9144 28.4925 15.6892 27.9536C15.3715 27.1774 14.9975 26.4213 14.72 25.629C13.984 23.5216 13.2359 21.4101 12.5884 19.2746C11.8564 16.8655 11.2331 14.4243 10.5574 11.9991C10.5132 11.8342 10.4569 11.6211 10.3322 11.5366C9.66457 11.0822 8.97683 10.6599 8.35747 10.2617C9.12563 12.7592 9.92597 15.2769 10.666 17.8146C10.9676 18.8482 11.1446 19.914 11.3618 20.9718C11.3939 21.1326 11.3778 21.3257 11.3215 21.4825C11.0762 22.1702 10.8309 22.858 10.5413 23.5256C10.4488 23.7387 10.2357 23.8996 10.0788 24.0806C9.95011 23.9117 9.8214 23.7428 9.61227 23.4612ZM80.4884 46.852C79.0486 46.2729 77.6248 45.7058 76.2051 45.1186C75.5858 44.8612 75.3726 44.9738 75.3807 45.6575C75.3847 46.0396 75.3083 46.4176 74.9222 46.4096C74.7694 46.4056 74.5803 45.9149 74.4878 45.6173C74.3994 45.3398 74.4597 45.014 74.3672 44.7365C74.3069 44.5596 74.1098 44.3585 73.9328 44.3102C73.8122 44.278 73.5548 44.451 73.4784 44.5958C73.2893 44.9618 73.0722 45.3519 73.04 45.746C72.9837 46.4176 73.0722 47.1013 73.0802 47.781C73.0842 48.0988 73.0883 48.4205 73.0199 48.7261C72.9877 48.8629 72.7786 48.9554 72.6499 49.068C72.5453 48.9393 72.4046 48.8267 72.3442 48.6779C72.2879 48.5371 72.308 48.3642 72.3 48.2033C72.2598 47.2502 72.2678 46.2889 72.1753 45.3398C72.0345 43.8638 71.4152 42.6653 70.0196 41.9776C69.6818 41.8127 69.2957 41.4346 69.0222 41.503C68.5637 41.6237 68.3425 41.3944 68.065 41.1973C67.4256 40.7429 66.8062 40.2643 66.2029 39.8139C66.2029 41.3542 66.2029 42.8905 66.2029 44.451C66.4121 44.4832 66.5649 44.5153 66.7177 44.5274C67.51 44.5998 68.3063 44.636 69.0946 44.7406C69.7904 44.8331 69.8547 44.9859 69.6697 45.6656C69.4646 46.4176 69.167 47.1576 69.0906 47.9218C68.9378 49.4863 68.9217 51.0628 68.805 52.6313C68.7809 52.937 68.5557 53.2265 68.423 53.5242C68.3184 53.504 68.2179 53.4839 68.1133 53.4638C68.061 52.6836 67.9886 51.9034 67.9564 51.1231C67.9283 50.4233 67.9685 49.7236 67.9404 49.0278C67.9243 48.6538 67.7393 48.3561 67.3049 48.4124C66.8987 48.4647 66.4965 48.5653 66.1868 48.6296C66.1104 51.9717 66.038 55.2415 65.9657 58.5836C70.1001 53.7132 75.2077 50.17 80.4884 46.852ZM31.7804 18.0881C31.7482 18.06 31.7201 18.0278 31.6879 17.9996C31.0243 18.7477 30.3285 19.4676 29.7092 20.2478C28.4544 21.8324 27.2559 23.4572 26.0172 25.0539C23.7006 28.034 21.3519 30.99 19.0675 33.9943C18.3275 34.9636 17.7363 36.0495 17.0767 37.079C17.121 37.1112 17.1652 37.1474 17.2094 37.1796C17.2818 37.1233 17.3582 37.075 17.4266 37.0147C19.2042 35.3738 21.0181 33.7731 22.7475 32.0799C23.6081 31.2354 24.332 30.246 25.0801 29.2888C25.43 28.8424 25.619 28.77 26.0252 29.1923C26.2022 29.3733 26.3309 29.6106 26.4475 29.8398C26.7813 30.4954 27.1071 31.159 27.4248 31.8226C27.7506 32.5063 27.8551 33.2503 27.4127 33.8737C26.9904 34.4729 26.8416 35.1164 26.7089 35.8001C26.6767 35.973 26.4636 36.1138 26.3349 36.2666C26.178 36.1017 25.9568 35.961 25.8804 35.7679C25.792 35.5306 25.8282 35.2451 25.8121 34.9877C23.8856 36.5723 21.9712 38.1488 20.0689 39.7093C20.0408 39.6932 20.0569 39.7133 20.0689 39.7093C22.9807 38.7239 25.8925 37.7386 28.7962 36.7372C28.933 36.6889 29.0657 36.52 29.13 36.3752C29.5805 35.3336 29.9666 34.2557 30.4733 33.2422C30.7669 32.647 31.2013 32.1041 31.6517 31.6094C32.1182 31.0906 32.6612 30.6361 33.1961 30.1897C34.2417 29.321 35.4161 28.8464 36.7996 29.1601C37.2098 29.2526 37.604 29.4215 37.982 29.5462C37.982 28.9671 37.982 28.4161 37.982 27.8571C37.7568 27.7806 37.5074 27.66 37.242 27.6077C36.8398 27.5273 36.3813 27.3503 36.0274 27.4669C34.7203 27.8812 33.4334 28.3678 32.1665 28.8907C31.4908 29.1722 31.2294 29.7795 31.2938 30.5114C31.3018 30.612 31.342 30.7326 31.3018 30.805C31.2173 30.9619 31.0886 31.0906 30.976 31.2313C30.8473 31.1308 30.6865 31.0504 30.606 30.9176C30.4773 30.7125 30.4009 30.4712 30.2119 30.0369C30.0953 30.2742 30.0631 30.3787 30.0068 30.4551C29.2628 31.4324 29.3553 32.6309 29.1381 33.745C29.0456 34.2276 29.122 34.7464 29.0536 35.2371C29.0335 35.3899 28.7761 35.5105 28.6273 35.6473C28.5429 35.4904 28.3981 35.3376 28.382 35.1727C28.3337 34.682 28.3217 34.1833 28.3136 33.6887C28.3015 32.7556 28.3096 31.8226 28.3016 30.8895C28.3016 30.801 28.2452 30.7005 28.197 30.6241C27.5857 29.691 26.9703 28.7579 26.351 27.8329C26.1016 27.4589 25.9528 27.0688 26.2022 26.6586C27.0146 25.3274 27.8189 23.9961 28.6716 22.6931C29.681 21.1366 30.7428 19.6204 31.7804 18.0881ZM58.9919 24.2173C58.827 24.2656 58.7103 24.2777 58.6098 24.3299C58.2157 24.531 57.9703 24.5994 57.6767 24.0685C57.3148 23.413 56.7196 22.8861 56.1927 22.2668C56.1927 23.421 56.1726 24.4989 56.1967 25.5727C56.2209 26.562 56.1645 27.5434 56.6351 28.5005C56.8402 28.9148 56.7397 29.5221 56.2128 29.9042C55.3119 30.5597 54.4312 31.2474 53.5826 31.9633C53.12 32.3534 53.0316 32.9326 52.9954 33.3428C53.2487 33.1618 53.5504 32.9366 53.8641 32.7275C54.773 32.1202 55.6819 31.5048 56.615 30.9337C56.7678 30.8412 57.1418 30.8734 57.2545 30.9981C57.3912 31.1469 57.4073 31.4566 57.3872 31.6898C57.351 32.1161 57.1861 32.5384 57.1901 32.9607C57.2142 34.2356 57.174 35.5266 57.3791 36.7734C57.6727 38.5832 58.1433 40.3689 58.5696 42.1586C58.8712 43.4134 59.2251 44.6521 59.5589 45.9029C60.4839 45.6334 61.3245 45.384 62.1771 45.1347C62.1932 45.0301 62.2294 44.9296 62.2173 44.8331C62.0203 43.1117 62.3259 41.3421 61.7589 39.653C61.5658 39.0859 61.7669 38.736 62.2616 38.4786C62.5994 38.3057 62.9252 38.1086 63.3997 37.8432C62.6356 37.4571 61.9881 37.0871 61.2964 36.8216C61.1475 36.7653 60.6971 37.063 60.6529 37.256C60.5362 37.7949 60.5644 38.362 60.5242 38.921C60.4317 40.2723 60.3351 41.6237 60.2346 42.975C60.2225 43.1479 60.1702 43.3209 60.1381 43.4858C59.5348 43.4576 59.2131 42.971 59.2774 42.2511C59.3659 41.2416 59.4865 40.2281 59.5308 39.2146C59.567 38.4183 59.7359 37.5978 59.2814 36.8176C59.1648 37.0107 59.1045 37.2158 59.0803 37.4249C59.0361 37.819 59.0482 38.2252 58.9718 38.6113C58.9315 38.8124 58.7666 38.9934 58.654 39.1824C58.5052 39.0055 58.2398 38.8366 58.2317 38.6516C58.1996 38.0041 58.2478 37.3485 58.276 36.697C58.2921 36.2827 58.3926 35.8524 58.3202 35.4583C58.2559 35.1003 57.9744 34.7866 58.3363 34.4246C58.6138 34.1512 58.8109 33.7973 59.1045 33.5439C59.386 33.2985 59.752 33.1497 60.0617 32.9285C60.1863 32.8401 60.311 32.6792 60.3351 32.5304C60.3874 32.2207 60.3432 31.8949 60.3995 31.5853C60.4759 31.1388 60.2708 30.8332 59.8968 30.7608C59.2855 30.6401 59.2171 30.25 59.2291 29.7554C59.2372 29.4175 59.2211 29.0757 59.205 28.7338C59.1326 27.2417 59.0643 25.7496 58.9919 24.2173ZM19.7633 26.5419C21.6012 24.1771 23.3588 21.8163 25.2329 19.5561C25.9207 18.7276 26.1941 18.064 25.5064 17.147C25.3134 16.8856 25.2209 16.6644 24.8267 16.6282C24.2556 16.5759 23.6966 16.395 23.1335 16.2582C22.5826 16.1215 22.1965 16.3628 22.1281 16.9339C22.104 17.147 22.1603 17.3682 22.1723 17.5894C22.1965 18.0278 22.1482 18.426 21.6213 18.6391C21.2352 18.1163 21.1267 17.5572 21.2674 16.95C21.4042 16.3628 21.2594 16.0812 20.5435 15.9566C20.1293 15.8842 19.7351 16.0973 19.715 16.596C19.6788 17.4286 19.6627 18.2611 19.6909 19.0896C19.7231 19.906 19.8397 20.7184 19.8759 21.5308C19.8839 21.7077 19.707 21.8968 19.6145 22.0777C19.4737 21.9169 19.2525 21.7761 19.2123 21.5911C19.0836 21.0522 19.0514 20.4891 18.9388 19.9422C18.7297 18.9287 18.3235 17.9192 18.3074 16.9057C18.2873 15.6429 16.5056 14.2835 15.3755 13.9738C16.3166 18.3536 17.7242 22.5362 19.7633 26.5419ZM43.1822 24.7563C43.1299 24.7603 43.0736 24.7683 43.0213 24.7723C42.9932 25.1263 42.969 25.4842 42.9409 25.8381C42.8082 27.4468 42.7036 29.0596 42.5226 30.6643C42.4301 31.4968 42.1406 31.6174 41.3483 31.3238C40.8938 31.159 40.4433 30.986 39.8803 30.7769C40.2704 31.6375 40.5921 32.3494 40.926 33.0814C41.3482 32.8119 41.7022 32.5465 42.0963 32.3534C42.7358 32.0357 43.3028 31.4646 44.1032 31.6335C44.3043 31.6778 44.5456 31.8547 44.63 32.0397C44.7225 32.2368 44.6703 32.5103 44.6622 32.7476C44.5858 34.4327 44.437 36.1138 44.437 37.7989C44.437 39.6168 44.4973 41.4387 44.6863 43.2444C44.799 44.3183 45.2011 45.3599 45.5028 46.4056C45.543 46.5504 45.7722 46.6388 45.913 46.7515C46.0256 46.6026 46.2066 46.4699 46.2388 46.3091C46.3755 45.5449 46.5323 44.7767 46.5685 44.0046C46.6248 42.6693 46.6409 41.326 46.5927 39.9908C46.5323 38.3379 46.4801 36.6728 46.2508 35.036C46.0578 33.6806 46.7576 33.0854 47.6826 32.7677C47.9802 32.6671 48.2818 32.5746 48.7282 32.4339C48.3864 32.3333 48.2175 32.2851 48.0486 32.2368C47.8555 32.1805 47.6665 32.1242 47.4775 32.0639C46.7535 31.8386 46.5887 31.5652 46.7214 30.8372C46.7656 30.5838 46.842 30.3104 46.7897 30.069C46.472 28.589 46.1302 27.1171 45.7762 25.6451C45.6395 25.074 45.4545 24.515 45.2615 23.8554C44.4491 24.6276 44.4169 25.5164 44.4249 26.3851C44.433 27.4428 44.5375 28.5005 44.5657 29.5623C44.5737 29.868 44.4812 30.1897 44.3646 30.4752C44.3163 30.5919 44.0509 30.7246 43.9343 30.6844C43.7935 30.6401 43.6326 30.435 43.6125 30.2822C43.5683 29.9524 43.6165 29.6065 43.6206 29.2687C43.6206 29.0354 43.6085 28.7982 43.6005 28.5649C43.5844 28.1587 43.5039 27.7404 43.5683 27.3463C43.705 26.4253 43.512 25.5848 43.1822 24.7563ZM67.2526 35.3979C67.4618 30.5597 67.0435 25.8703 66.9188 21.1809C65.7163 21.1005 65.1774 21.8646 64.9683 22.7454C64.7672 23.594 64.8315 24.515 64.8396 25.4038C64.8476 25.9226 64.928 26.4213 64.2484 26.9119C64.1317 26.2242 63.9467 25.6732 63.9588 25.1263C63.991 23.8514 63.7416 23.0309 62.9493 22.4317C62.9654 22.8057 62.9815 23.1154 62.9976 23.425C63.1182 25.5164 63.2188 27.6077 63.3716 29.695C63.444 30.7005 63.2952 30.9136 62.2897 30.8855C61.4331 30.8573 61.1154 31.2032 61.1918 32.1282C61.6543 31.6617 62.1128 31.7944 62.5552 32.1081C63.7255 32.9406 64.8918 33.7852 66.0622 34.6177C66.4121 34.863 66.7781 35.0842 67.2526 35.3979ZM35.4483 34.5131C34.3946 35.3899 34.2578 35.9409 34.7646 37.0066C35.1426 37.803 35.1346 38.4867 34.4911 39.1382C34.1693 39.464 33.8637 39.8259 33.6345 40.216C33.2926 40.7912 32.8462 41.3824 32.7657 42.0098C32.6491 42.9468 32.7175 43.9362 32.8824 44.8733C33.0231 45.6776 33.3248 46.486 33.7229 47.2019C34.0688 47.8212 34.6077 47.7609 34.9094 47.1215C35.1386 46.6388 35.3638 46.0919 35.022 45.5288C34.7847 45.1387 34.5595 44.7365 34.3624 44.3223C33.8717 43.2766 33.6224 42.5648 34.7203 41.6116C35.1869 41.2054 35.6413 40.7751 36.0475 40.3126C36.494 39.8018 36.9444 39.5967 37.5838 40.1798C37.6884 38.1448 37.6563 36.2505 36.5985 34.5011C36.4618 35.233 36.4014 35.965 36.4778 36.6809C36.5704 37.5134 36.4738 37.9558 35.8102 38.3539C35.6856 37.0388 35.5649 35.776 35.4483 34.5131ZM59.3257 10.31C58.9919 10.7966 58.7063 11.2229 58.3564 11.7337C58.1835 11.4321 58.0789 11.2873 58.0106 11.1264C57.8095 10.6559 57.4797 10.6076 57.0333 10.7484C56.6311 10.873 56.3013 10.8972 56.3093 11.5205C56.3375 13.5153 56.245 15.5102 56.2168 17.505C56.2007 18.6512 56.2128 19.7974 56.2128 21.0079C56.8844 20.7144 57.5118 20.4248 58.1513 20.1674C58.4771 20.0387 58.5857 19.8497 58.5816 19.4917C58.5696 18.4742 58.646 17.4567 58.6178 16.4392C58.5937 15.4337 58.5776 14.4082 58.3806 13.4309C58.2519 12.7914 58.3202 12.3973 58.8873 12.0957C59.0281 12.0192 59.1527 11.9187 59.2895 11.8342C59.9169 11.4481 59.9651 11.0259 59.3257 10.31ZM40.0291 55.4667C40.0291 54.787 40.202 54.1113 39.9929 53.5885C39.5706 52.5227 38.9472 51.5374 38.3963 50.5239C38.2113 50.1901 38.0584 50.2343 37.7689 50.5078C37.1575 51.0829 36.7031 51.7103 36.4939 52.5308C36.2768 53.3834 36.0194 54.2239 35.7459 55.1811C37.2581 55.2857 38.6215 55.3742 40.0291 55.4667ZM31.8005 9.72682C31.7402 9.73084 31.6839 9.73486 31.6236 9.7429C30.8996 11.1344 30.1717 12.53 29.4478 13.9215C29.5 13.9577 29.5483 13.998 29.6006 14.0342C30.7066 13.7124 31.8005 13.3585 32.9145 13.085C33.4575 12.9523 33.5902 12.6788 33.4696 12.1962C33.3368 11.6613 33.365 10.9977 32.4882 11.0862C32.3877 11.0982 32.2268 10.7926 32.1383 10.6116C32.0056 10.322 31.9091 10.0204 31.8005 9.72682ZM54.2301 48.3159C54.6885 48.0505 55.143 47.8092 55.5693 47.5277C55.6658 47.4673 55.7463 47.2622 55.7181 47.1536C55.5452 46.4941 55.3401 45.8425 55.1149 45.0905C54.8052 46.2206 54.5236 47.2421 54.2301 48.3159ZM15.6771 38.6837C15.6731 38.6234 15.6691 38.5631 15.6651 38.5028C15.2066 38.4344 14.6154 38.1569 14.3178 38.3459C13.7869 38.6797 13.7467 39.3433 14.0684 40.0109C14.6194 39.5565 15.1503 39.1181 15.6771 38.6837ZM43.508 17.0626C43.4798 17.0626 43.4516 17.0626 43.4235 17.0666C43.331 17.9755 43.2345 18.8844 43.1339 19.8658C43.5241 19.721 43.886 19.5883 44.26 19.4515C44.0026 18.623 43.7573 17.8428 43.508 17.0626Z" fill="white"/>
<path d="M75.9518 30.1859C75.8552 30.4634 75.6903 30.7328 75.6662 31.0184C75.5295 32.5788 75.4249 34.1473 75.3083 35.7078C75.26 36.3432 75.252 36.9867 75.1635 37.6181C75.1353 37.8112 74.9101 37.9761 74.7734 38.1571C74.705 38.1289 74.6407 38.1048 74.5723 38.0766C74.5361 37.6664 74.4758 37.2602 74.4717 36.85C74.4557 35.374 74.4798 33.898 74.4557 32.422C74.4396 31.4246 74.3471 30.4312 74.3229 29.4338C74.3149 29.0799 74.3873 28.7179 74.4717 28.372C74.7573 27.1695 75.0549 25.971 75.3646 24.7725C75.6019 23.8475 75.8914 22.9346 76.1046 22.0055C76.3379 20.98 76.4987 19.9383 76.7119 18.9047C76.925 17.8631 77.1462 17.6901 78.1798 17.4609C79.0164 17.2759 79.8408 17.0185 80.6653 16.7732C81.1117 16.6405 81.341 16.7893 81.3088 17.2437C81.2847 17.5976 81.2283 17.9556 81.1238 18.2934C80.2028 21.3057 79.2617 24.31 78.3367 27.3223C78.0793 28.1549 77.9747 29.0396 77.2267 29.651C77.0497 29.7957 77.0457 30.1617 76.9773 30.4272C76.9492 30.5398 77.0095 30.6926 76.9532 30.7811C76.8084 31.0184 76.6194 31.2315 76.4505 31.4527C76.3499 31.2154 76.2252 30.9822 76.1529 30.7368C76.1086 30.58 76.1448 30.403 76.1448 30.2341C76.0805 30.218 76.0161 30.2019 75.9518 30.1859Z" fill="white"/>
<path d="M3.55546 39.0377C3.45089 39.3715 3.28599 39.7013 3.2498 40.0432C3.16534 40.8676 3.1372 41.7001 3.08491 42.5286C3.02056 42.5487 2.96023 42.5689 2.89588 42.589C2.76718 42.4723 2.55806 42.3718 2.5299 42.231C2.43338 41.7524 2.3449 41.2577 2.35697 40.7711C2.37306 40.019 2.44946 39.267 2.54196 38.5189C2.65859 37.5778 2.27652 36.8619 1.64108 36.2144C1.12227 35.6876 0.623576 35.1366 0.169113 34.5534C0.0283502 34.3724 -0.0359965 34.0386 0.0203086 33.8174C0.346074 32.5626 1.18661 31.6014 1.96684 30.6201C2.43337 30.0329 2.76719 30.0973 3.08491 30.781C3.96569 32.6833 4.87863 34.5735 5.67495 36.512C6.06506 37.4612 5.93233 38.5109 5.46178 39.4238C4.83036 40.6585 4.72179 41.9012 4.92288 43.2606C5.04353 44.065 4.85047 44.9176 4.78612 45.7501C4.74188 46.3493 4.67352 46.9446 4.61722 47.5398C4.60113 47.7208 4.66145 47.9379 4.58101 48.0707C4.44025 48.2999 4.21502 48.4769 4.026 48.6739C3.88926 48.4568 3.63188 48.2356 3.6359 48.0224C3.65601 47.1296 3.76056 46.2367 3.82491 45.3439C3.85708 44.9055 3.87319 44.4712 3.87319 44.0328C3.87722 42.597 3.87319 41.1572 3.86917 39.7214C3.86917 39.5123 3.84906 39.3072 3.84101 39.098C3.74851 39.0779 3.65198 39.0578 3.55546 39.0377Z" fill="white"/>
<path d="M80.4361 32.7236C79.9052 33.0051 79.7242 33.3429 79.7242 33.8336C79.7242 35.6595 79.7041 37.4854 79.688 39.3113C79.684 39.7014 79.6397 40.0633 79.0365 40.1639C78.9922 39.448 78.9198 38.7683 78.9118 38.0846C78.8957 36.7333 78.9198 35.382 78.9118 34.0306C78.9118 33.7531 78.8635 33.4676 78.7831 33.2022C78.2884 31.5894 78.9279 30.1496 79.4507 28.6897C79.9937 27.1735 80.5406 25.6573 81.0836 24.137C81.2404 23.6946 81.4697 23.3689 81.9965 23.3206C82.9497 23.2321 83.8988 23.0954 84.852 23.0069C85.5437 22.9426 85.7448 23.1839 85.4352 23.8032C84.9566 24.7644 84.3493 25.6653 83.8787 26.6305C83.0181 28.384 82.1815 30.1496 81.4174 31.9433C81.2042 32.4461 81.2927 33.0735 81.2042 33.6365C81.164 33.8818 81.0192 34.1071 80.9227 34.3403C80.786 34.1111 80.605 33.8979 80.5286 33.6486C80.4441 33.3791 80.4642 33.0815 80.4361 32.7236Z" fill="white"/>
</svg>
