<svg width="33" height="33" viewBox="0 0 33 33" fill="none" xmlns="http://www.w3.org/2000/svg">
<path d="M16.2176 0.141602C7.27526 0.141602 0 7.30997 0 16.1209C0 24.9313 7.27526 32.1003 16.2176 32.1003C25.1593 32.1003 32.4352 24.9313 32.4352 16.1209C32.4352 7.30997 25.1606 0.141602 16.2176 0.141602ZM20.2508 16.6835H17.6123C17.6123 20.837 17.6123 25.9495 17.6123 25.9495H13.7026C13.7026 25.9495 13.7026 20.8865 13.7026 16.6835H11.8441V13.4086H13.7026V11.2903C13.7026 9.77323 14.4342 7.40266 17.6482 7.40266L20.5454 7.4136V10.5926C20.5454 10.5926 18.7849 10.5926 18.4426 10.5926C18.1003 10.5926 17.6136 10.7612 17.6136 11.4847V13.4092H20.5924L20.2508 16.6835Z" fill="#121212"/>
</svg>
