<svg width="33" height="33" viewBox="0 0 33 33" fill="none" xmlns="http://www.w3.org/2000/svg">
<path d="M16.2169 19.3611C18.0062 19.3611 19.4649 17.9263 19.4649 16.162C19.4649 15.4655 19.2336 14.8225 18.8508 14.2972C18.2609 13.4914 17.302 12.9629 16.2189 12.9629C15.1351 12.9629 14.1768 13.4907 13.5856 14.2966C13.2015 14.8218 12.9722 15.4649 12.9716 16.1613C12.9696 17.9257 14.427 19.3611 16.2169 19.3611Z" fill="#121212"/>
<path d="M23.3067 12.2491V9.56754V9.16846L22.8997 9.16974L20.1796 9.17811L20.19 12.2594L23.3067 12.2491Z" fill="#121212"/>
<path d="M16.2176 0.183105C7.27526 0.183105 0 7.35147 0 16.1624C0 24.9728 7.27526 32.1418 16.2176 32.1418C25.1593 32.1418 32.4352 24.9728 32.4352 16.1624C32.4352 7.35147 25.1606 0.183105 16.2176 0.183105ZM25.4409 14.2978V21.7384C25.4409 23.6765 23.8417 25.2515 21.8761 25.2515H10.5591C8.59286 25.2515 6.99436 23.6765 6.99436 21.7384V14.2978V10.5878C6.99436 8.65037 8.59286 7.07535 10.5591 7.07535H21.8754C23.8417 7.07535 25.4409 8.65037 25.4409 10.5878V14.2978Z" fill="#121212"/>
<path d="M21.2626 16.1625C21.2626 18.9024 18.9998 21.1332 16.2176 21.1332C13.4354 21.1332 11.1732 18.9024 11.1732 16.1625C11.1732 15.5034 11.3064 14.8733 11.5442 14.2979H8.79077V21.7383C8.79077 22.6998 9.58317 23.4786 10.5585 23.4786H21.8747C22.8487 23.4786 23.6424 22.6998 23.6424 21.7383V14.2979H20.8877C21.1274 14.8733 21.2626 15.5034 21.2626 16.1625Z" fill="#121212"/>
</svg>
