<svg width="33" height="32" viewBox="0 0 33 32" fill="none" xmlns="http://www.w3.org/2000/svg">
<path fill-rule="evenodd" clip-rule="evenodd" d="M0 16C0 24.8366 7.3873 32 16.5 32C25.6127 32 33 24.8366 33 16C33 7.16344 25.6127 0 16.5 0C7.3873 0 0 7.16344 0 16ZM13.4751 23.3333L13.7558 19.2548L13.7556 19.2547L21.4067 12.5593C21.7425 12.2703 21.3334 12.1294 20.8876 12.3915L11.4451 18.1682L7.36643 16.9338C6.48561 16.6722 6.47929 16.0853 7.56418 15.6634L23.4578 9.72056C24.1837 9.40099 24.8843 9.88963 24.6072 10.967L21.9005 23.3354C21.7115 24.2143 21.1639 24.4245 20.4051 24.0185L16.2819 21.0646L14.3001 22.9333C14.2938 22.9392 14.2876 22.9451 14.2814 22.9509C14.0598 23.1602 13.8764 23.3333 13.4751 23.3333Z" fill="#121212"/>
</svg>
