<svg width="74" height="48" viewBox="0 0 74 48" fill="none" xmlns="http://www.w3.org/2000/svg">
<path d="M19.061 31.6329C19.1345 31.6706 19.1895 31.7002 19.2456 31.7278C19.4415 31.8257 19.6261 31.7992 19.7944 31.6655C19.9576 31.536 20.0637 31.3646 20.1494 31.1759C20.5319 30.3242 20.6033 29.4328 20.5094 28.5178C20.4849 28.2822 20.4707 28.0456 20.436 27.812C20.3799 27.4418 20.3115 27.0735 20.2463 26.7043C20.231 26.6186 20.2106 26.5329 20.1851 26.4106C20.2656 26.4401 20.3146 26.4575 20.3625 26.4758C20.6094 26.5727 20.7807 26.537 20.9562 26.3392C21.0255 26.2606 21.0898 26.1729 21.1408 26.0811C21.3907 25.6292 21.5906 25.158 21.6844 24.647C21.7038 24.5429 21.7242 24.4389 21.7558 24.3379C21.8211 24.1278 21.8374 23.934 21.7008 23.7341C21.6314 23.6331 21.613 23.4893 21.5988 23.3618C21.5172 22.6488 21.4376 21.9359 21.3713 21.2208C21.3152 20.6119 21.2622 20.002 21.2377 19.392C21.2142 18.8106 21.3203 18.2384 21.4407 17.6713C21.4662 17.5519 21.4896 17.4316 21.509 17.3112C21.5263 17.2041 21.4998 17.1205 21.3856 17.0776C21.1755 16.9991 21.047 16.8328 20.9297 16.6513C20.438 15.8924 20.3228 15.057 20.4605 14.1849C20.5013 13.9279 20.6502 13.6852 20.7614 13.4424C20.8205 13.3149 20.8888 13.1874 21.0225 13.0895C21.0276 13.1752 21.0316 13.2608 21.0367 13.3465C21.0541 13.6178 21.152 13.8504 21.355 14.0391C21.7905 14.444 22.2628 14.7847 22.8452 14.9459C22.9921 14.9867 23.1073 15.0601 23.1991 15.1866C23.348 15.3896 23.5551 15.4905 23.8111 15.4844C23.9631 15.4814 24.0773 15.4171 24.1549 15.2876C24.3119 15.0275 24.3242 14.7643 24.16 14.5032C24.1171 14.4348 24.0651 14.3726 24.01 14.2971C24.1324 14.2104 24.2528 14.2339 24.3558 14.2971C24.6343 14.4654 24.9178 14.6297 25.1748 14.8255C25.4268 15.0173 25.6502 15.2478 25.8858 15.462C26.0582 15.618 26.2509 15.7394 26.4825 15.7782C26.7324 15.821 26.9558 15.7884 27.0843 15.5262C27.1077 15.4783 27.1516 15.4395 27.2016 15.3773C27.2872 15.462 27.3638 15.5313 27.4341 15.6078C28.0257 16.2443 28.4337 16.993 28.7591 17.7916C28.9009 18.1394 29.0386 18.4873 29.1834 18.8341C29.2874 19.084 29.3609 19.3308 29.3435 19.6133C29.3221 19.953 29.3629 20.2967 29.3711 20.6394C29.3813 21.0556 29.3874 21.4707 29.3935 21.8869C29.4007 22.3234 29.4608 22.7498 29.6546 23.1456C29.7189 23.2771 29.6761 23.3577 29.5863 23.4444C29.164 23.8534 28.7448 24.2635 28.3246 24.6745C27.987 25.005 27.6504 25.3375 27.3128 25.667C26.968 26.0036 26.6161 26.332 26.3356 26.7267C26.2795 26.8053 26.2142 26.8563 26.1122 26.843C25.6512 26.7839 25.337 27.0338 25.0627 27.354C24.9433 27.4938 24.8434 27.6509 24.6965 27.8508C24.6873 27.7059 24.6761 27.6141 24.6771 27.5223C24.6904 26.4707 24.6914 25.4171 24.8413 24.3726C24.8464 24.34 24.8505 24.3083 24.8525 24.2757C24.8678 24.0166 24.9749 23.8361 25.2054 23.6811C25.8093 23.2761 26.1489 22.6804 26.3111 21.9787C26.3295 21.9002 26.3448 21.8206 26.3642 21.7257C26.4835 21.7257 26.5957 21.7247 26.7069 21.7257C26.9119 21.7288 27.0822 21.6482 27.173 21.4677C27.2607 21.2953 27.3515 21.1097 27.3719 20.922C27.4321 20.3437 27.4484 19.7623 27.2067 19.2125C27.1251 19.0279 27.0302 18.8432 26.9119 18.6811C26.7711 18.4883 26.5794 18.3434 26.3417 18.2812C26.0979 18.217 25.8521 18.1568 25.6043 18.1089C25.4859 18.0864 25.3595 18.0844 25.2391 18.0946C24.9076 18.1231 24.6373 18.2445 24.4517 18.5505C24.2059 18.9575 24.0814 19.4042 23.9866 19.8581C23.8325 20.5946 23.7571 21.3402 23.8101 22.095C23.8336 22.4244 23.9111 22.7355 24.0406 23.0395C24.1324 23.2557 24.1967 23.4852 24.264 23.7106C24.2793 23.7616 24.266 23.8228 24.2558 23.8779C24.0294 25.1529 23.9366 26.4391 24.0712 27.7274C24.1375 28.3536 24.113 28.983 24.1926 29.6041C24.2538 30.0795 24.3578 30.5507 24.4517 31.0219C24.4741 31.1362 24.4813 31.2392 24.4517 31.3544C24.1304 32.607 24.4619 33.6606 25.4492 34.495C25.6838 34.6929 25.9613 34.8408 26.2203 35.0111C26.2734 35.0458 26.3305 35.0754 26.4039 35.1182C26.358 35.1865 26.3223 35.2477 26.2795 35.3028C25.997 35.6639 25.8154 36.0719 25.7552 36.5248C25.6461 37.3448 25.5859 38.1659 25.8317 38.9758C25.9623 39.4052 26.0786 39.8397 26.2438 40.2559C26.5019 40.9066 26.7956 41.5441 27.0751 42.1867C27.12 42.2898 27.1689 42.3907 27.2434 42.5529C27.1251 42.5141 27.0588 42.5019 27.0017 42.4723C26.4141 42.1714 25.8205 41.8797 25.285 41.487C24.5618 40.9566 23.8366 40.4283 23.1094 39.903C23.0176 39.8367 22.9972 39.7551 22.9839 39.6551C22.9227 39.1696 22.8748 38.682 22.7881 38.2006C22.6443 37.4009 22.3342 36.6686 21.8089 36.0413C21.0694 35.159 20.3687 34.2481 19.7179 33.2985C19.4537 32.913 19.2171 32.5152 19.0722 32.0684C19.0304 31.9379 18.9947 31.8043 19.061 31.6329Z" fill="white"/>
<path d="M4.23852 26.3535C4.12938 26.2291 4.02228 26.1189 3.92742 25.9996C3.68058 25.6885 3.39805 25.4243 3.02881 25.2611C2.97373 25.2366 2.91967 25.1877 2.88703 25.1357C2.19038 24.03 1.6661 22.8448 1.35297 21.58C1.15407 20.7752 1.02045 19.9521 0.897029 19.131C0.837869 18.7393 0.862353 18.3344 0.862353 17.9345C0.862353 17.7275 0.851134 17.5388 0.621636 17.4531C0.433958 17.3817 0.281978 17.4408 0.09736 17.6571C0.0820602 17.6754 0.0708378 17.6979 0.0565579 17.7183C0.0402381 17.7142 0.0228993 17.7101 0.00657941 17.706C0.00555942 17.5908 -0.00770045 17.4745 0.00657941 17.3613C0.0983785 16.6504 0.188139 15.9384 0.295238 15.2285C0.371738 14.7205 0.471698 14.2167 0.564517 13.7118C0.585937 13.5945 0.576752 13.4996 0.438033 13.4455C0.365614 13.4904 0.286058 13.5404 0.179979 13.6057C-0.0382989 11.1363 0.323794 8.73421 0.72465 6.32397C0.76137 6.39231 0.802171 6.45861 0.834811 6.52797C1.08369 7.05531 1.40193 7.53674 1.77525 7.98248C2.28524 8.59243 2.92885 9.00961 3.67549 9.27072C3.92947 9.35946 4.18854 9.43188 4.44456 9.51348C4.52718 9.54 4.60877 9.5706 4.69649 9.6012C4.67915 9.6471 4.67712 9.67566 4.66182 9.68892C3.84582 10.3907 3.37765 11.2964 3.23179 12.344C3.08491 13.3976 3.07369 14.4635 3.36949 15.4998C3.51433 16.0078 3.7275 16.4963 3.91926 16.99C3.96924 17.1175 3.98658 17.2266 3.9417 17.3623C3.80706 17.7642 3.81828 18.1844 3.84378 18.5985C3.86622 18.9627 4.1508 19.2024 4.51799 19.2126C4.63121 19.2156 4.74545 19.2126 4.88315 19.2126C4.91171 19.3013 4.9464 19.39 4.96986 19.4829C5.06777 19.8694 5.15141 20.2611 5.26055 20.6446C5.47883 21.4086 5.96434 21.9329 6.7069 22.2246C7.64019 22.5918 8.56838 22.9692 9.50065 23.3384C9.71893 23.4251 9.90865 23.5445 10.0423 23.7393C10.3717 24.2197 10.7695 24.641 11.1785 25.05C11.6742 25.5457 12.1557 26.0577 12.735 26.4616C12.9023 26.5779 13.0706 26.6911 13.246 26.8105C13.2389 26.8707 13.2348 26.9257 13.2256 26.9808C13.1175 27.5795 13.0849 28.1773 13.2287 28.776C13.2552 28.8862 13.2705 29.0024 13.2654 29.1157C13.2522 29.39 13.3032 29.6501 13.4011 29.9051C13.4806 30.1101 13.5541 30.3182 13.6326 30.5232C13.8274 31.0292 14.0855 31.4984 14.4405 31.9114C14.52 32.0043 14.5914 32.1032 14.6802 32.2164C14.6098 32.2817 14.5486 32.3439 14.4823 32.4C14.0518 32.7652 13.8397 33.2344 13.8285 33.7943C13.8234 34.0463 13.8417 34.2992 13.8376 34.5522C13.8366 34.645 13.8193 34.747 13.7785 34.8286C13.3287 35.7425 13.1808 36.7023 13.347 37.707C13.3695 37.8427 13.4256 37.9722 13.4664 38.1048C13.4919 38.1874 13.5164 38.2711 13.5051 38.3802C13.4103 38.3088 13.3134 38.2405 13.2205 38.166C12.4046 37.5061 11.7467 36.7054 11.2459 35.7905C10.7573 34.897 10.3207 33.9749 9.86581 33.063C9.73525 32.8009 9.62203 32.5285 9.49759 32.2633C9.41395 32.0859 9.40375 31.9104 9.45169 31.7176C9.54756 31.329 9.61285 30.9363 9.57613 30.5314C9.52411 29.9684 9.31807 29.4879 8.84173 29.1554C8.72443 29.0738 8.6918 28.982 8.70404 28.8474C8.80094 27.7499 8.25524 27.0012 7.37907 26.4382C7.18629 26.3137 6.96699 26.2933 6.75382 26.3137C6.73036 26.2964 6.70893 26.2893 6.70587 26.277C6.62019 25.968 6.4009 25.8333 6.09898 25.7925C5.48698 25.7109 4.90866 25.7578 4.4211 26.1924C4.36602 26.2423 4.31196 26.2893 4.23852 26.3535Z" fill="white"/>
<path d="M69.3679 9.63487C69.4618 9.51757 69.5719 9.52777 69.676 9.53797C70.1503 9.58489 70.5807 9.45127 70.9836 9.21667C71.5466 8.88824 72.025 8.4578 72.4483 7.96719C72.8267 7.52859 73.199 7.08388 73.4897 6.57898C73.505 6.55246 73.5305 6.53308 73.5723 6.48718C73.5938 6.5596 73.6162 6.60856 73.6223 6.65956C73.7325 7.47759 73.7712 8.30072 73.7794 9.12488C73.7876 9.90823 73.7723 10.6916 73.7763 11.4739C73.7794 12.1104 73.7947 12.7458 73.8049 13.3823C73.8059 13.4527 73.8049 13.5241 73.8049 13.5945C73.7886 13.6006 73.7723 13.6067 73.7559 13.6139C73.6968 13.5241 73.6386 13.4354 73.5795 13.3456C73.5387 13.2834 73.4897 13.2018 73.4112 13.2456C73.3622 13.2732 73.3153 13.365 73.3214 13.4221C73.349 13.6567 73.3898 13.8903 73.4387 14.1208C73.5468 14.6308 73.6723 15.1377 73.7733 15.6498C73.8783 16.1812 73.8692 16.7207 73.861 17.2593C73.861 17.2797 73.8457 17.3001 73.8284 17.3429C73.7814 17.2909 73.7457 17.2522 73.7121 17.2114C73.6652 17.1553 73.6284 17.0869 73.5723 17.042C73.4693 16.9594 73.3541 16.8931 73.2143 16.9502C73.0736 17.0074 73.0246 17.1287 73.0307 17.2664C73.0409 17.5194 73.0532 17.7724 73.0828 18.0233C73.1399 18.5139 73.1021 18.9984 73.0277 19.4849C72.8512 20.6487 72.6013 21.7942 72.1882 22.8988C71.9557 23.519 71.6833 24.1187 71.3355 24.6838C71.207 24.8919 71.105 25.1153 70.9805 25.3264C70.9377 25.3988 70.8755 25.4876 70.8031 25.511C70.3441 25.663 70.0044 25.9772 69.6699 26.3025C69.624 26.3474 69.5719 26.3872 69.5026 26.4484C69.4648 26.375 69.4281 26.3148 69.4016 26.2505C69.1731 25.6854 68.8233 25.6018 68.3041 25.6977C67.9838 25.7568 67.7615 25.9282 67.4208 26.3168C67.1311 26.1791 66.8812 26.3352 66.6283 26.4678C66.3304 26.6238 66.0622 26.8217 65.8204 27.0563C65.3339 27.5275 65.1034 28.0998 65.1574 28.776C65.1697 28.9331 65.1258 29.033 65.0116 29.134C64.7219 29.39 64.4903 29.694 64.2904 30.0245C63.9987 30.5069 63.8814 31.0343 63.8896 31.5912C63.8957 32.0022 63.9855 32.1746 64.3435 32.5051C64.3231 32.5602 64.3047 32.6214 64.2792 32.6795C63.7988 33.7515 63.2868 34.8082 62.6992 35.8262C62.2647 36.5789 61.7425 37.2664 61.1101 37.8651C60.9642 38.0039 60.8031 38.1263 60.6032 38.2344C60.6215 38.0957 60.6409 37.9569 60.6582 37.8172C60.7368 37.1797 60.7123 36.5473 60.5675 35.921C60.4818 35.5508 60.3237 35.2121 60.1054 34.9031C60.0177 34.7786 59.9759 34.6573 59.9912 34.4961C60.0564 33.8005 59.9045 33.1507 59.525 32.5591C59.4995 32.5183 59.4761 32.4755 59.4424 32.4184C59.5322 32.2939 59.6148 32.1634 59.7137 32.0461C60.032 31.6656 60.2635 31.2393 60.4206 30.7701C60.5399 30.4151 60.6776 30.0653 60.797 29.7103C61.0448 28.9698 61.0316 28.2181 60.8643 27.4653C60.8204 27.2674 60.7582 27.0726 60.6929 26.8329C60.7215 26.8156 60.7643 26.7911 60.8051 26.7656C61.5905 26.2801 62.2443 25.6426 62.8675 24.9735C63.2511 24.5624 63.6499 24.1657 63.9681 23.6954C64.0446 23.5822 64.1813 23.4884 64.3098 23.4353C65.3196 23.0182 66.3335 22.6122 67.3473 22.2042C67.9226 21.9727 68.3398 21.5728 68.5673 21.0016C68.7111 20.6395 68.8059 20.257 68.9038 19.8797C68.9477 19.7124 69.0099 19.5941 69.1721 19.5043C69.369 19.3952 69.5475 19.2462 69.7198 19.0983C70.0462 18.8178 70.1768 18.4476 70.1493 18.0263C70.134 17.7917 70.0962 17.5561 70.0432 17.3266C70.0105 17.1828 70.0207 17.0614 70.0789 16.9278C70.3308 16.3433 70.5562 15.7497 70.6837 15.1224C70.7735 14.6797 70.8163 14.234 70.801 13.7842C70.7827 13.263 70.7663 12.7387 70.7 12.2216C70.6093 11.5096 70.2768 10.8905 69.8647 10.3132C69.7005 10.0877 69.5352 9.86539 69.3679 9.63487Z" fill="white"/>
<path d="M14.0814 35.868C14.5047 36.0128 14.6536 35.9598 14.8413 35.5732C14.9433 35.361 15.0371 35.1387 15.0902 34.9102C15.2983 34.0126 15.5451 33.1191 15.6695 32.2093C15.8317 31.0281 15.7562 29.847 15.3064 28.7168C15.2095 28.4741 15.1381 28.2221 15.0331 27.9834C14.8821 27.6407 14.722 27.3021 14.5455 26.9716C14.47 26.8298 14.4466 26.7034 14.4965 26.5544C14.6271 26.1597 14.7464 25.7609 14.8831 25.3682C15.081 24.799 15.184 24.2176 15.1616 23.6148C15.1514 23.3374 15.1667 23.0589 15.1453 22.7835C15.1136 22.3694 15.0596 21.9573 15.0147 21.5442C14.9841 21.2607 14.9453 20.9782 14.9219 20.6936C14.8831 20.2172 14.7026 19.8143 14.3425 19.491C14.1824 19.3472 14.0182 19.2472 13.7805 19.3033C13.757 19.2401 13.7295 19.183 13.7132 19.1228C13.6693 18.9576 13.6234 18.7923 13.5898 18.624C13.5061 18.1936 13.3358 17.8009 13.1053 17.4296C12.7014 16.7778 12.3025 16.123 11.9017 15.4692C11.7732 15.2591 11.6702 15.0398 11.6375 14.7674C11.6997 14.7817 11.7517 14.7878 11.7997 14.8052C12.07 14.899 12.3372 14.8919 12.5728 14.7266C12.7462 14.6042 12.8962 14.6328 13.0431 14.7409C13.4296 15.0234 13.8682 15.1632 14.3354 15.2244C15.3013 15.3509 16.2305 15.2478 17.0649 14.7093C17.4107 14.4859 17.7666 14.2972 18.1512 14.1585C18.1889 14.1442 18.2277 14.1299 18.2664 14.1197C18.2807 14.1157 18.297 14.1238 18.346 14.132C18.3215 14.2166 18.3042 14.2993 18.2746 14.3768C17.9614 15.1866 17.7085 16.0149 17.633 16.8809C17.5494 17.8345 17.5453 18.7893 17.8441 19.7164C17.9013 19.8939 17.9094 20.0469 17.8115 20.2274C17.7207 20.3927 17.6738 20.5987 17.6636 20.7895C17.5891 22.1256 17.6728 23.4475 18.0543 24.7389C18.1746 25.1469 18.3348 25.5375 18.5469 25.9078C18.7346 26.2352 18.9855 26.4922 19.3293 26.6666C19.3231 26.6891 19.3231 26.7166 19.3099 26.7299C18.908 27.145 18.7244 27.6662 18.5969 28.2099C18.3409 29.2972 18.2725 30.4029 18.295 31.5157C18.298 31.6513 18.3348 31.7911 18.3796 31.9206C18.5265 32.3439 18.6775 32.7672 18.8427 33.1834C18.9019 33.3313 18.9927 33.4751 19.0967 33.5964C19.5424 34.1166 20.0004 34.6266 20.4512 35.1428C20.5481 35.2529 20.642 35.3672 20.7236 35.4885C21.1214 36.0842 21.5528 36.6585 21.8803 37.3C22.226 37.9773 22.4402 38.6903 22.5341 39.441C22.5667 39.698 22.5341 39.9541 22.4453 40.2192C22.4086 40.1417 22.3709 40.0642 22.3362 39.9867C21.9414 39.1044 21.3641 38.3833 20.489 37.9375C19.7821 37.5775 19.0365 37.4082 18.2399 37.5142C18.1267 37.5295 18.0124 37.5357 17.8992 37.552C17.7034 37.5795 17.5178 37.5826 17.327 37.4959C17.1975 37.4367 17.0435 37.4112 16.8986 37.4071C16.3019 37.3908 15.7073 37.3959 15.1473 37.653C14.7628 37.8294 14.6628 37.9375 14.5312 38.3761C14.4649 38.266 14.4037 38.1854 14.365 38.0956C14.1916 37.6948 14.112 37.2705 14.0732 36.838C14.0457 36.5218 14.009 36.2046 14.0814 35.868Z" fill="white"/>
<path d="M53.1766 18.3281C53.6509 18.0599 53.861 17.5897 53.9753 17.0654C54.1527 16.2474 54.2048 15.4171 54.1619 14.5827C54.1405 14.1778 54.0579 13.7759 54.0069 13.373C53.9804 13.1629 53.9549 12.9518 53.9447 12.7406C53.9396 12.6315 53.9691 12.5203 53.9875 12.3816C54.0997 12.4581 54.0936 12.555 54.1252 12.6315C54.2517 12.9395 54.3537 13.2618 54.5118 13.5525C54.7902 14.0646 55.2258 14.3645 55.8214 14.4185C55.9377 14.4287 56.0683 14.4736 56.158 14.544C56.922 15.1458 57.8074 15.3232 58.7519 15.3355C59.4924 15.3447 60.1931 15.1957 60.8653 14.8928C60.8949 14.8795 60.9255 14.8693 60.9693 14.853C61.41 15.1702 61.8496 15.105 62.3076 14.8224C62.2892 14.8887 62.281 14.9611 62.2504 15.0213C62.0648 15.3926 61.8904 15.771 61.6813 16.129C61.4304 16.5585 61.1499 16.9705 60.8806 17.3887C60.5848 17.8477 60.4083 18.3536 60.2992 18.885C60.2727 19.0115 60.2441 19.137 60.2094 19.2941C60.1421 19.2441 60.0972 19.2176 60.0605 19.1819C59.8963 19.0197 59.6954 18.9401 59.4699 18.9177C59.1578 18.8871 58.8508 18.9085 58.5499 19.0013C58.4336 19.038 58.3143 19.0707 58.2021 19.1166C57.9338 19.2267 57.6717 19.3043 57.3779 19.1819C57.2239 19.1176 57.0556 19.1717 56.9036 19.242C56.2917 19.5287 56.0285 20.309 56.3529 20.9036C56.3988 20.9883 56.3926 21.0556 56.3682 21.1331C56.2804 21.4044 56.1866 21.6747 56.106 21.9481C56.0581 22.1113 56.0152 22.2796 55.9979 22.4489C55.9316 23.0966 56.4069 23.8493 57.0179 24.085C57.2066 24.1574 57.383 24.1421 57.5575 24.0421C57.7553 23.9289 57.9563 23.8198 58.1572 23.7106C58.2194 23.677 58.2868 23.6515 58.3592 23.6188C58.3592 23.783 58.351 23.9279 58.3612 24.0707C58.3786 24.3308 58.3939 24.5919 58.4347 24.8489C58.4887 25.1937 58.5285 25.5476 58.6427 25.873C58.7753 26.2494 59.0324 26.5686 59.3271 26.8379C59.4404 26.9409 59.6148 26.9787 59.7882 27.0582C59.8341 27.2133 59.8218 27.402 59.7851 27.5825C59.6107 28.4648 59.3496 29.3226 59.0222 30.159C58.9283 30.3997 58.7774 30.618 58.6468 30.8444C58.6132 30.9036 58.5591 30.9505 58.4806 31.0433C58.4724 30.9128 58.4602 30.8353 58.4642 30.7588C58.4938 30.2651 58.4224 29.7775 58.3133 29.3032C58.1684 28.6719 57.7961 28.22 57.1281 28.0752C56.7598 27.9956 56.3886 27.9599 56.0101 28.015C55.5838 28.0772 55.238 28.272 54.981 28.6137C54.7668 28.9003 54.7127 29.2267 54.8229 29.5654C54.8616 29.6847 54.8678 29.7724 54.8076 29.8846C54.6413 30.1937 54.5975 30.5344 54.5964 30.8801C54.5964 31.0219 54.5597 31.1311 54.4506 31.2229C54.3639 31.2963 54.2884 31.384 54.2048 31.4615C53.8743 31.7634 53.401 31.743 53.1256 31.3901C52.9879 31.2137 52.8737 31.0066 52.7982 30.7955C52.6217 30.3008 52.535 29.7857 52.5524 29.2584C52.5667 28.8167 52.5452 28.3791 52.4789 27.9405C52.4504 27.7488 52.4667 27.5499 52.4677 27.354C52.4769 25.9954 52.6299 24.6521 52.8727 23.3179C53.0032 22.6029 53.0756 21.8808 53.0971 21.1535C53.1164 20.517 53.1521 19.8816 53.1736 19.2461C53.1848 18.9564 53.1766 18.6637 53.1766 18.3281Z" fill="white"/>
<path d="M54.8851 32.0246C54.8525 32.0949 54.8209 32.1674 54.7852 32.2367C54.2986 33.1945 53.6673 34.0554 52.9971 34.8907C52.8084 35.1253 52.6014 35.3467 52.4892 35.6353C52.4667 35.6935 52.4147 35.7424 52.3708 35.7893C51.6375 36.5849 51.258 37.5447 51.0897 38.5964C51.0255 38.9982 50.9867 39.4052 50.949 39.8112C50.9367 39.9407 50.9031 40.0386 50.8011 40.1274C50.34 40.5292 49.88 40.924 49.3557 41.2514C48.4786 41.8012 47.6309 42.3979 46.7691 42.9731C46.6926 43.0241 46.6089 43.066 46.5283 43.1129C46.5171 43.0996 46.5059 43.0874 46.4947 43.0741C46.5273 43.0037 46.5559 42.9313 46.5926 42.863C46.7578 42.5539 46.9231 42.2449 47.0934 41.9378C47.4045 41.3748 47.6208 40.7822 47.6962 40.1406C47.7095 40.0294 47.7513 39.9213 47.788 39.8132C48.1838 38.6341 48.2654 37.4529 47.7993 36.2718C47.6881 35.9913 47.5759 35.7067 47.2434 35.5374C47.6432 35.3589 47.9155 35.0825 48.1746 34.7898C48.5948 34.3155 48.9212 33.783 49.1772 33.2037C49.3772 32.7528 49.3609 32.2796 49.3139 31.8083C49.3027 31.6951 49.2068 31.5931 49.1579 31.4819C48.9733 31.0586 48.707 30.6863 48.4143 30.3365C48.2542 30.1447 48.0583 29.9785 47.8594 29.8244C47.6565 29.6663 47.4127 29.5919 47.1516 29.5868C47.0944 29.5858 47.0373 29.5858 46.9802 29.5837C46.5079 29.5613 46.0898 29.6765 45.7593 30.1233C45.7307 29.9938 45.7062 29.9142 45.697 29.8326C45.6103 29.0758 45.6338 28.3169 45.6726 27.5601C45.745 26.1433 46.1367 24.799 46.6395 23.4832C46.6507 23.4526 46.664 23.423 46.6803 23.3944C46.6875 23.3812 46.7028 23.373 46.7395 23.3404C46.7487 23.4373 46.7599 23.5138 46.764 23.5913C46.7793 23.8677 46.7895 24.1451 46.8078 24.4216C46.8241 24.6572 46.9608 24.8275 47.1261 24.9795C47.2189 25.0652 47.3209 25.0917 47.4392 25.0315C47.686 24.905 47.9257 24.7745 48.1256 24.5725C48.9886 23.7004 49.6801 22.709 50.2258 21.6125C50.2605 21.5421 50.3054 21.4758 50.3768 21.3555C50.4084 21.5136 50.4339 21.6186 50.4502 21.7257C50.6103 22.7712 50.6175 23.8198 50.5216 24.8734C50.4349 25.8332 50.0218 26.6349 49.3986 27.3397C49.1803 27.5866 48.9131 27.7906 48.6703 28.0119C49.0426 28.2006 49.4506 28.1588 50.0116 27.8661C50.0922 27.9058 50.1779 27.9487 50.2646 27.9905C50.695 28.1976 51.0775 28.0935 51.4151 27.7936C51.5538 27.6702 51.6609 27.5121 51.7803 27.3673C51.819 27.3204 51.8506 27.2673 51.9251 27.2296C51.9251 27.2898 51.9271 27.351 51.9251 27.4111C51.8853 28.2486 51.9751 29.0717 52.1842 29.8836C52.2801 30.2549 52.3698 30.6272 52.4555 31.0005C52.5728 31.5166 52.8166 31.9776 53.0685 32.4356C53.1318 32.5519 53.2399 32.608 53.3633 32.6355C53.6927 32.708 53.9967 32.6437 54.266 32.4417C54.4598 32.2959 54.6464 32.1408 54.8372 31.9899C54.8535 32.0021 54.8698 32.0133 54.8851 32.0246Z" fill="white"/>
<path d="M56.7639 44.6551C56.8068 44.5919 56.8496 44.5277 56.8924 44.4644C57.3657 43.7708 57.8359 43.0742 58.3153 42.3847C58.4632 42.1715 58.6203 41.9593 58.8029 41.7747C59.4383 41.1301 59.9412 40.4099 60.1625 39.5185C60.1941 39.391 60.2768 39.3104 60.3757 39.2319C60.7143 38.9636 61.0601 38.7035 61.3835 38.4169C62.2137 37.6805 62.8033 36.7635 63.3276 35.7965C63.7947 34.9346 64.1711 34.0309 64.5526 33.1303C64.6005 33.0181 64.6627 32.9089 64.6933 32.7916C64.7535 32.557 64.9167 32.4346 65.1289 32.3745C65.3951 32.298 65.5562 32.1225 65.6705 31.8828C65.7256 31.7666 65.7755 31.6115 65.8724 31.5626C65.9683 31.5136 66.1213 31.5728 66.2488 31.5911C67.5116 31.7655 68.812 30.9098 69.1476 29.6837C69.2109 29.4522 69.2292 29.2196 69.1711 28.982C69.1476 28.8892 69.1395 28.7923 69.1231 28.6872C69.2374 28.6678 69.2843 28.7382 69.3333 28.7974C69.5189 29.0238 69.7647 29.1085 70.0483 29.1034C70.6021 29.0942 71.105 28.9228 71.5701 28.6301C72.2708 28.1894 72.8441 27.6162 73.3275 26.9481C73.3877 26.8645 73.454 26.7849 73.5173 26.7043C73.5346 26.7125 73.5519 26.7207 73.5693 26.7288C73.5438 26.8247 73.5295 26.9257 73.4897 27.0154C73.2867 27.4785 73.1082 27.9548 72.8645 28.3965C72.4606 29.1278 72.1372 29.8928 71.8343 30.667C71.5874 31.2974 71.3549 31.9328 71.1233 32.5683C71.0713 32.7111 70.9948 32.8202 70.8745 32.9171C69.9198 33.6831 69.3751 34.6633 69.3414 35.9047C69.3394 35.9699 69.3373 36.0352 69.3322 36.1005C69.3312 36.1148 69.318 36.1291 69.3037 36.1566C69.2547 36.1525 69.1996 36.1535 69.1466 36.1413C68.6091 36.0169 68.1256 36.1392 67.6931 36.4667C67.2739 36.7839 66.9281 37.1756 66.5915 37.5754C66.1183 38.1374 65.644 38.6974 65.1686 39.2563C64.7953 39.6949 64.5056 40.1845 64.2649 40.7047C64.2251 40.7904 64.1772 40.872 64.1252 40.972C64.0711 40.9322 64.0334 40.9148 64.0099 40.8863C63.6101 40.3793 62.8114 40.4691 62.4269 40.7588C62.279 40.871 62.1566 41.0158 62.0199 41.1433C61.9189 41.2372 61.8261 41.3483 61.7088 41.4126C61.0265 41.7849 60.4012 42.2429 59.7698 42.6927C59.0915 43.1751 58.4163 43.6617 57.7339 44.137C57.4728 44.3186 57.1944 44.4736 56.923 44.6378C56.8843 44.6613 56.8394 44.6725 56.7966 44.6898C56.7823 44.6766 56.7731 44.6653 56.7639 44.6551Z" fill="white"/>
<path d="M4.80766 28.6852C4.80358 28.7566 4.80358 28.829 4.7944 28.8994C4.6822 29.8378 5.17792 30.7741 6.02451 31.2066C6.51207 31.4555 7.02512 31.5993 7.58 31.5524C7.65955 31.5453 7.74115 31.5514 7.82785 31.5514C7.87375 31.6626 7.90231 31.7768 7.96249 31.8696C8.06347 32.0247 8.16751 32.1848 8.30113 32.3103C8.46433 32.4643 8.6724 32.5061 8.89272 32.4174C8.94372 32.397 8.9988 32.3878 9.0753 32.3664C9.11406 32.4531 9.15282 32.5306 9.18546 32.6112C9.68321 33.8535 10.2218 35.0754 10.8888 36.2382C11.4968 37.299 12.2546 38.2282 13.2481 38.9484C13.5684 39.1799 13.7917 39.439 13.8927 39.8459C14.0335 40.4151 14.3741 40.8986 14.776 41.3229C15.233 41.8053 15.6196 42.3327 15.9725 42.8957C16.305 43.4261 16.6946 43.9218 17.0598 44.4318C17.1108 44.5032 17.1648 44.5716 17.2179 44.6409C17.2077 44.6552 17.1965 44.6695 17.1863 44.6848C17.1261 44.6572 17.0628 44.6338 17.0057 44.6001C16.2346 44.1554 15.5063 43.6464 14.7903 43.1191C14.4619 42.8774 14.1263 42.6448 13.803 42.3969C13.0482 41.8186 12.2291 41.3494 11.3774 40.9333C10.899 40.6987 10.3982 40.5824 9.86273 40.6324C9.60978 40.6558 9.61181 40.6487 9.50472 40.411C9.10182 39.5185 8.68057 38.6362 8.14915 37.8111C7.86151 37.3643 7.53614 36.9451 7.14854 36.5799C6.71403 36.1709 6.22749 35.8547 5.62671 35.7435C5.20852 35.666 4.79848 35.7109 4.39355 35.8231C4.32521 35.8425 4.25687 35.8629 4.15283 35.8935C4.14569 35.7507 4.14365 35.6324 4.13447 35.514C4.11407 35.2703 4.10591 35.0245 4.06205 34.7848C3.96413 34.2564 3.70404 33.8035 3.33072 33.4261C3.09306 33.1864 2.95434 32.909 2.83806 32.5979C2.43415 31.5136 1.99963 30.4406 1.59979 29.3543C1.38356 28.7658 1.21628 28.1599 1.0286 27.5612C1.02248 27.5398 1.02758 27.5153 1.02758 27.4459C1.10714 27.5245 1.16426 27.5765 1.21628 27.6326C1.57939 28.0232 1.98739 28.3588 2.44231 28.6373C2.8758 28.9014 3.34398 29.0483 3.85091 29.0779C4.13549 29.0942 4.38335 29.0351 4.58021 28.8127C4.63223 28.7536 4.70056 28.7097 4.76176 28.6587C4.77604 28.6689 4.79134 28.6771 4.80766 28.6852Z" fill="white"/>
<path d="M49.9412 14.2676C49.8708 14.3574 49.8372 14.4114 49.7923 14.4553C48.7805 15.4386 48.0756 16.6238 47.5218 17.9069C47.3769 18.2435 47.2515 18.5893 47.1393 18.9381C46.9271 19.6001 46.9414 20.2621 47.2464 20.8935C47.4239 21.2607 47.3229 21.5483 47.0812 21.8247C46.7323 22.2225 46.4957 22.6876 46.2774 23.1619C45.8041 24.1901 45.4706 25.2641 45.2992 26.381C45.2064 26.9838 45.1778 27.5979 45.1483 28.2078C45.1187 28.8188 45.1248 29.4308 45.1146 30.0428C45.1044 30.6201 45.1881 31.1801 45.4094 31.7176C45.4532 31.8227 45.4767 31.9359 45.5134 32.043C45.6705 32.4959 45.951 32.8386 46.3967 33.0344C46.4263 33.0477 46.4539 33.064 46.4906 33.0834C46.4865 33.2302 46.3855 33.3118 46.2947 33.4036C45.594 34.1136 45.2003 34.954 45.2135 35.9648C45.2146 36.0628 45.2258 36.1607 45.2401 36.2566C45.2543 36.3524 45.2788 36.4473 45.3003 36.5483C44.778 37.0032 44.6954 37.6101 44.7403 38.2455C44.7709 38.6739 45.0361 38.9575 45.4135 39.1401C45.5134 39.189 45.6195 39.2278 45.7246 39.3186C45.6113 39.3349 45.4971 39.3604 45.3829 39.3645C45.081 39.3736 44.779 39.3879 44.4781 39.3747C43.603 39.3359 42.8237 39.0391 42.1505 38.473C41.9822 38.3322 41.87 38.1823 41.868 37.9375C41.8649 37.655 41.7507 37.3683 41.7752 37.0909C41.7986 36.8155 41.9679 36.5554 42.0149 36.279C42.1781 35.3335 42.4361 34.4012 42.4116 33.4281C42.4055 33.1803 42.4759 32.9293 42.5228 32.6815C42.7686 31.3902 42.9186 30.0866 43.0104 28.776C43.0491 28.215 43.1226 27.656 43.1746 27.096C43.2021 26.8043 43.2287 26.5106 43.2348 26.2178C43.246 25.5987 43.2419 24.9785 43.246 24.3584C43.246 24.3023 43.2552 24.2472 43.2603 24.188C43.5867 24.1217 43.8325 23.9636 43.9814 23.6597C44.1783 23.2568 44.4098 22.8712 44.5944 22.4632C44.6862 22.2603 44.6974 22.0216 44.7617 21.8033C45.0106 20.9598 44.8841 20.1234 44.7097 19.29C44.6811 19.1523 44.6913 19.034 44.7433 18.9116C45.0045 18.3047 45.2574 17.6948 45.5277 17.092C45.7705 16.5524 46.1081 16.075 46.5314 15.6242C46.5844 15.6915 46.6262 15.7466 46.6691 15.8007C46.9088 16.1077 47.279 16.177 47.6024 15.9588C47.7217 15.8782 47.8257 15.7701 47.9247 15.6619C48.3398 15.2101 48.7866 14.7929 49.3068 14.4624C49.4791 14.3523 49.6658 14.2513 49.9412 14.2676Z" fill="white"/>
<path d="M60.4839 24.9337C60.5094 24.8949 60.5349 24.8561 60.5604 24.8164C60.9378 24.2166 61.3223 23.6209 61.6915 23.0151C62.0312 22.4581 62.3464 21.889 62.7391 21.3647C62.9665 21.0597 63.1634 20.7221 63.3164 20.3743C63.7896 19.2982 64.1742 18.1895 64.421 17.0369C64.5332 16.5147 64.5536 15.9863 64.5189 15.4549C64.5016 15.1775 64.5138 14.9061 64.5679 14.6297C64.6699 14.1054 64.5434 13.6057 64.3017 13.1405C64.0987 12.7499 63.8865 12.3623 63.5683 12.0481C63.5061 11.9869 63.4765 11.9196 63.4898 11.8288C63.5571 11.3739 63.4428 10.9567 63.2266 10.5589C63.1532 10.4243 63.0909 10.2835 62.9991 10.0948C63.1664 10.1285 63.2827 10.1479 63.3969 10.1764C64.0742 10.3417 64.7035 10.6344 65.3319 10.9261C65.3992 10.9578 65.4553 11.0292 65.4971 11.0944C65.6226 11.2944 65.7297 11.5065 65.8612 11.7034C65.9643 11.8584 66.0765 12.0145 66.2131 12.1389C66.7435 12.6244 67.5503 12.502 67.8696 12.0461C67.9532 11.9268 68.0583 11.9339 68.1715 11.939C68.5224 11.9522 68.8518 11.8962 69.1487 11.6911C69.3914 11.5239 69.5801 11.3199 69.6668 11.0322C69.678 10.9945 69.6974 10.9588 69.726 10.8904C69.776 10.9751 69.8178 11.0332 69.8474 11.0965C70.133 11.7105 70.3053 12.35 70.2941 13.0334C70.287 13.4904 70.2992 13.9473 70.2839 14.4033C70.2656 14.9449 70.135 15.4641 69.9228 15.9578C69.8912 15.9578 69.8678 15.9649 69.8616 15.9567C69.5393 15.5732 69.0813 15.5875 68.6478 15.5589C68.4306 15.5447 68.2439 15.6722 68.0848 15.8211C67.8206 16.0669 67.6462 16.3678 67.5524 16.7125C67.4035 17.2562 67.4147 17.8101 67.4749 18.3639C67.5126 18.7138 67.6809 18.979 68.0308 19.1014C68.0522 19.1085 68.0685 19.1279 68.0981 19.1503C68.0614 19.2064 68.0297 19.2615 67.99 19.3115C67.6993 19.6736 67.4065 20.0357 67.1148 20.3967C67.0485 20.4794 66.9842 20.564 66.9159 20.6446C66.6323 20.9792 66.3111 21.2413 65.8704 21.3668C65.2431 21.5463 64.7189 21.9359 64.1925 22.3072C63.9335 22.4898 63.6795 22.6856 63.4479 22.9018C63.2898 23.0487 63.1756 23.2435 63.0359 23.4118C62.9757 23.4843 62.9155 23.5781 62.8349 23.6077C61.9996 23.9178 61.255 24.3798 60.5614 24.9306C60.5491 24.9408 60.5328 24.9449 60.5185 24.952C60.5043 24.9469 60.4941 24.9408 60.4839 24.9337Z" fill="white"/>
<path d="M5.6767 19.1034C6.19179 19.0177 6.32439 18.6577 6.39885 18.2538C6.48351 17.7948 6.40191 17.3419 6.32133 16.8931C6.26625 16.5891 6.18567 16.2882 6.08367 15.9965C6.02043 15.816 5.91334 15.6436 5.79706 15.4906C5.62264 15.2632 5.3911 15.1163 5.0902 15.1102C5.00044 15.1081 4.91171 15.0969 4.82195 15.0908C4.32623 15.0581 4.08245 15.2734 4.04981 15.7701C4.04879 15.7854 4.03859 15.7997 4.02737 15.8262C3.93455 15.7925 3.93659 15.7007 3.91517 15.6334C3.74789 15.102 3.64998 14.5573 3.64284 13.9984C3.6357 13.3782 3.64692 12.7581 3.74586 12.144C3.81726 11.7054 3.98351 11.2985 4.19261 10.9068C4.20383 10.8864 4.21811 10.867 4.22831 10.8497C4.25483 10.868 4.27421 10.8752 4.27523 10.8843C4.32929 11.3852 4.68017 11.7197 5.21668 11.7687C5.3707 11.783 5.52676 11.7819 5.68078 11.7768C5.79399 11.7727 5.88376 11.8033 5.96434 11.886C6.21627 12.145 6.52125 12.1644 6.84764 12.0655C7.14548 11.9747 7.37396 11.7768 7.6004 11.5759C7.63712 11.5433 7.67383 11.5106 7.70647 11.4739C8.35213 10.7334 9.2028 10.3672 10.1351 10.1591C10.4829 10.0816 10.8348 10.0245 11.2071 9.99695C11.1734 10.0347 11.1408 10.0734 11.1061 10.1091C10.948 10.2723 10.7766 10.4264 10.6328 10.6008C10.3452 10.9476 10.2514 11.3556 10.336 11.7942C10.3717 11.9808 10.3329 12.1083 10.1983 12.2491C9.63834 12.8376 9.40272 13.5639 9.35784 14.3615C9.35172 14.4655 9.35988 14.5777 9.39252 14.6756C9.4527 14.8592 9.46188 15.0418 9.44148 15.2305C9.34254 16.1046 9.50472 16.9512 9.69342 17.7978C10.1504 19.848 11.0204 21.7126 12.1965 23.4435C12.3842 23.7199 12.5667 24.0004 12.7391 24.287C12.8166 24.4155 12.8635 24.5624 12.9247 24.7011C12.9115 24.7093 12.8972 24.7174 12.8839 24.7266C12.8523 24.7072 12.8197 24.6899 12.7911 24.6675C12.1628 24.2013 11.5386 23.7291 10.9052 23.2691C10.5879 23.0385 10.284 22.7968 10.0117 22.5112C9.41292 21.8849 8.68771 21.4555 7.85642 21.2148C7.5953 21.1393 7.38416 21.0118 7.20362 20.8109C6.74666 20.3019 6.27951 19.8001 5.81847 19.2942C5.77155 19.2493 5.73994 19.1922 5.6767 19.1034Z" fill="white"/>
<path d="M30.9837 24.4125C30.9837 24.8348 30.9847 25.2244 30.9837 25.614C30.9816 26.6085 30.9704 27.604 30.9786 28.5985C30.9878 29.7001 31.0551 30.7986 31.2081 31.891C31.2479 32.1726 31.3223 32.45 31.3774 32.7295C31.3907 32.7999 31.408 32.8784 31.3896 32.9447C31.1979 33.6424 31.2703 34.3349 31.4335 35.0234C31.51 35.3488 31.6151 35.667 31.6997 35.9894C31.7191 36.0648 31.7201 36.1485 31.714 36.227C31.6936 36.4953 31.6732 36.7635 31.6375 37.0287C31.6242 37.1277 31.5834 37.2327 31.5263 37.3153C31.0184 38.0528 30.3523 38.5985 29.5251 38.9453C29.2925 39.0432 29.0712 39.1707 28.8335 39.2523C28.5663 39.3431 28.2858 39.3971 28.0114 39.4645C27.9951 39.4685 27.9717 39.4471 27.9462 39.4349C28.1114 39.2819 28.2736 39.1391 28.4286 38.9881C28.6816 38.7413 28.8825 38.4567 29.0324 38.1344C29.2395 37.6866 29.2619 37.2235 29.1681 36.7482C29.1375 36.5963 29.1212 36.4412 29.0814 36.2923C28.9743 35.8914 28.7785 35.5355 28.4908 35.2356C28.4143 35.155 28.3919 35.0826 28.4143 34.9745C28.6347 33.8963 28.2766 32.9855 27.5963 32.1705C27.581 32.1522 27.5667 32.1318 27.5535 32.1114C27.5494 32.1052 27.5514 32.0961 27.5494 32.0726C27.8717 31.8502 27.9502 31.5208 27.9349 31.1403C27.9125 30.562 27.9227 29.9816 27.736 29.4227C27.5494 28.8647 27.3352 28.319 27.0343 27.8111C26.9608 27.6877 26.9374 27.5765 26.9965 27.4449C27.0965 27.2225 27.1781 26.991 27.2923 26.7778C27.6147 26.1781 28.0227 25.6395 28.5061 25.1591C28.5826 25.0826 28.65 25.0479 28.7795 25.0632C29.3395 25.1305 29.8903 25.0561 30.4043 24.8235C30.5971 24.7338 30.7593 24.5736 30.9837 24.4125Z" fill="white"/>
<path d="M36.0999 34.3512C35.9684 34.1533 35.9592 33.9401 35.9663 33.7157C36.0102 32.3938 35.9826 31.0729 35.9092 29.7531C35.898 29.5582 35.8888 29.3675 35.7888 29.1849C35.7338 29.0829 35.7276 28.9493 35.7205 28.8279C35.7011 28.527 35.6817 28.2251 35.6838 27.9232C35.7042 25.5813 35.6052 23.2414 35.5328 20.9016C35.5145 20.2988 35.4951 19.6949 35.4767 19.0921C35.4675 18.7851 35.7154 18.4404 36.0214 18.4108C36.663 18.3506 37.3076 18.3108 37.9471 18.4404C38.2542 18.5026 38.3786 18.6576 38.3827 18.9983C38.3888 19.3981 38.3755 19.798 38.3633 20.1968C38.3204 21.6319 38.2684 23.066 38.2338 24.5011C38.2032 25.7649 38.2001 27.0297 38.1654 28.2935C38.1511 28.7973 38.0848 29.3002 38.041 29.803C38.0379 29.8357 38.0389 29.8775 38.0196 29.8969C37.8492 30.0713 37.8829 30.2896 37.888 30.4987C37.9125 31.64 37.94 32.7824 37.9706 33.9238C37.9747 34.0758 37.9635 34.2165 37.8196 34.3491C37.2658 34.3512 36.6885 34.3512 36.0999 34.3512ZM36.6589 29.9305C36.6681 29.9305 36.6762 29.9295 36.6854 29.9295C36.6854 29.8816 36.6854 29.8326 36.6854 29.7847C36.6956 27.4928 36.7109 25.2019 36.714 22.91C36.715 21.7604 36.6936 20.6109 36.6813 19.4614C36.6813 19.4287 36.6885 19.39 36.6732 19.3655C36.6538 19.3328 36.615 19.3124 36.5447 19.2533C36.5447 19.5715 36.5447 19.8388 36.5447 20.106C36.5487 22.2918 36.5477 24.4777 36.5579 26.6625C36.562 27.5509 36.5895 28.4393 36.6109 29.3287C36.616 29.5297 36.6426 29.7306 36.6589 29.9305Z" fill="white"/>
<path d="M43.0787 14.3421C43.0675 14.4125 43.0644 14.4788 43.045 14.54C42.7615 15.3876 42.687 16.2628 42.7227 17.1481C42.7452 17.6856 42.8053 18.2211 42.8421 18.7576C42.8533 18.927 42.8461 19.0983 42.8431 19.2687C42.8421 19.3666 42.8227 19.4645 42.8298 19.5614C42.8808 20.2611 42.942 20.9598 43.2062 21.6595C43.045 21.8492 42.8818 22.0624 42.6952 22.2532C42.1148 22.8468 41.4253 23.2986 40.7327 23.7474C40.5287 23.88 40.3156 24.0004 40.1085 24.1259C40.0534 24.0902 40.0106 24.0667 39.9728 24.0371C39.8025 23.9055 39.8015 23.9045 39.8668 23.6893C40.0401 23.1161 40.1401 22.5357 40.1258 21.9319C40.1085 21.1658 40.1299 20.3988 40.1279 19.6318C40.1248 18.7301 39.9953 17.8458 39.7403 16.9798C39.7168 16.9013 39.6954 16.8227 39.6791 16.7432C39.5934 16.3168 39.4996 15.8945 39.1334 15.5947C39.1711 15.5049 39.2007 15.4304 39.2323 15.358C39.4751 14.8062 39.6281 14.235 39.5873 13.6261C39.5567 13.1793 39.521 12.7326 39.4761 12.2879C39.4006 11.5361 39.3884 10.7905 39.6342 10.0622C39.6546 10.001 39.677 9.93881 39.7076 9.8817C39.7423 9.81846 39.7862 9.76032 39.8525 9.66138C39.8698 9.75114 39.8851 9.79908 39.8872 9.84905C39.8984 10.1092 39.8984 10.3713 39.9167 10.6304C39.9351 10.8945 40.0259 11.1393 40.1575 11.3688C40.2911 11.6024 40.4237 11.836 40.5583 12.0696C40.951 12.7519 41.4712 13.318 42.1209 13.7648C42.1811 13.8066 42.2423 13.8474 42.3015 13.8913C42.4198 13.978 42.5299 14.0779 42.6554 14.1524C42.7809 14.2238 42.9206 14.2728 43.0787 14.3421Z" fill="white"/>
<path d="M35.747 47.3653C35.5818 47.302 35.4553 47.2521 35.3278 47.2041C35.2136 47.1613 35.1003 47.1072 34.982 47.0848C34.6077 47.0124 34.3282 46.7992 34.0385 46.5615C33.2195 45.8894 32.38 45.2417 31.5355 44.6031C31.1183 44.288 30.6532 44.0452 30.1422 43.9096C30.0351 43.881 29.9759 43.8249 29.9392 43.7239C29.675 42.9885 29.2742 42.3275 28.8141 41.7002C28.4286 41.175 28.0369 40.6537 27.6493 40.1295C27.6309 40.105 27.6197 40.0754 27.5952 40.0305C29.6495 39.7704 31.2876 38.9065 32.2158 36.9196C32.2382 36.9889 32.2525 37.0134 32.2546 37.0389C32.3484 38.2211 32.6483 39.3512 33.1399 40.4263C33.2674 40.7058 33.4459 40.9638 33.6244 41.2158C33.706 41.33 33.7203 41.4187 33.6836 41.5493C33.5785 41.9206 33.5479 42.3041 33.5673 42.6876C33.5928 43.1864 33.8804 43.781 34.5291 43.9289C34.6199 43.9493 34.6668 43.9922 34.6954 44.0809C35.0351 45.1274 35.3778 46.1719 35.7195 47.2184C35.7276 47.248 35.7307 47.2806 35.747 47.3653Z" fill="white"/>
<path d="M34.111 9.71338C34.3558 10.2968 34.4496 10.8425 34.4119 11.4127C34.3517 12.3144 34.2946 13.216 34.2405 14.1187C34.2313 14.2727 34.2364 14.4288 34.2466 14.5828C34.2691 14.9378 34.3384 15.2754 34.5781 15.56C34.6852 15.6875 34.6822 15.7415 34.5659 15.8537C34.2201 16.1873 34.0314 16.6177 33.8713 17.0502C33.7081 17.4908 33.6102 17.9569 33.501 18.4159C33.4562 18.6046 33.4531 18.8035 33.4378 18.9983C33.3562 20.0224 33.296 21.0475 33.3123 22.0767C33.3195 22.499 33.3929 22.8998 33.5582 23.2894C33.6367 23.4741 33.6724 23.6791 33.7132 23.878C33.7254 23.9382 33.6928 24.0085 33.6765 24.0983C33.552 24.0555 33.4602 24.0279 33.3705 23.9932C32.7503 23.7546 32.1975 23.3925 31.6283 23.0579C31.1969 22.8039 30.8868 22.4663 30.6522 22.0318C30.539 21.8227 30.5053 21.6422 30.5757 21.4127C30.7726 20.7731 30.9582 20.1254 30.9837 19.4543C31.0061 18.8494 31.1081 18.2548 31.1469 17.654C31.2173 16.5575 31.1734 15.4692 30.8072 14.4166C30.7858 14.3554 30.7715 14.2911 30.7573 14.2279C30.7522 14.2054 30.7562 14.1799 30.7562 14.1534C30.7797 14.1412 30.8011 14.1208 30.8205 14.1218C31.1418 14.1503 31.3999 14.0086 31.6559 13.8352C32.787 13.0671 33.5408 12.0277 33.9253 10.7191C33.9865 10.509 34.0141 10.2887 34.0549 10.0724C34.0732 9.97144 34.0865 9.87046 34.111 9.71338Z" fill="white"/>
<path d="M31.7252 24.5839C31.9017 24.693 32.0251 24.7879 32.1638 24.8511C32.3474 24.9347 32.5402 25 32.733 25.0622C33.0114 25.151 33.3072 25.201 33.5704 25.3223C33.807 25.4315 33.9621 25.662 34.0936 25.8874C34.1242 25.9394 34.0936 26.0465 34.061 26.1138C33.9825 26.275 33.8825 26.4249 33.7958 26.582C33.4052 27.2889 33.398 28.0151 33.705 28.7485C33.7693 28.9025 33.8815 29.0402 33.9906 29.1697C34.0947 29.2942 34.2242 29.3972 34.3405 29.5114C34.4139 29.5828 34.4568 29.6553 34.4037 29.7695C34.1314 30.359 34.06 30.9894 34.0386 31.6289C34.0274 31.9553 34.0314 32.2817 34.0243 32.6071C34.011 33.2324 34.1946 33.8168 34.419 34.387C34.5006 34.5951 34.6516 34.7787 34.7893 34.9592C34.8495 35.0377 34.9555 35.0806 35.0718 35.1612C35.032 36.8829 35.1748 38.6434 34.8403 40.3886C34.8107 40.3805 34.7893 40.3805 34.7842 40.3713C34.5465 39.9643 34.2568 39.5838 34.1263 39.1208C34.0253 38.7617 33.8325 38.4486 33.6245 38.1467C33.3348 37.7264 33.1145 37.2868 33.0318 36.7707C32.9737 36.4035 32.8462 36.0445 32.7309 35.6885C32.5208 35.0428 32.3994 34.3778 32.2852 33.7107C32.1342 32.8274 31.9649 31.9461 31.8344 31.0598C31.6151 29.5818 31.4815 28.0967 31.5875 26.5994C31.6243 26.0792 31.6457 25.5569 31.6783 25.0357C31.6855 24.898 31.7059 24.7634 31.7252 24.5839Z" fill="white"/>
<path d="M37.9859 47.3958C38.0063 47.304 38.0196 47.2091 38.0492 47.1194C38.2695 46.4451 38.4918 45.7719 38.7183 45.0998C38.8274 44.7764 38.9488 44.4562 39.063 44.1338C39.1038 44.0196 39.1609 43.9451 39.2976 43.9207C39.5241 43.8799 39.6924 43.7309 39.828 43.5514C40.2054 43.0527 40.4176 42.5019 40.3278 41.8633C40.3207 41.8154 40.3278 41.7634 40.3146 41.7175C40.2177 41.3778 40.3278 41.0851 40.4869 40.7883C40.7787 40.2416 41.0561 39.6867 41.2264 39.0869C41.2968 38.8401 41.3539 38.5892 41.4671 38.3066C41.4794 38.3372 41.4855 38.3719 41.5039 38.3984C42.2505 39.4735 43.3052 39.9641 44.5893 40.007C45.3451 40.0325 46.0877 39.9519 46.7997 39.6785C46.819 39.6714 46.8425 39.6775 46.9118 39.6775C46.8231 39.7571 46.769 39.8152 46.7058 39.8601C46.3437 40.1202 46.0428 40.4384 45.7878 40.8015C45.4604 41.2687 45.135 41.7379 44.8097 42.2071C44.4353 42.7467 44.1395 43.327 43.9437 43.9533C43.8937 44.1124 43.8019 44.191 43.656 44.2491C43.0492 44.4898 42.4504 44.7479 41.8904 45.0875C41.2886 45.4527 40.7266 45.8719 40.2044 46.3421C39.9494 46.5716 39.6689 46.7328 39.3323 46.8093C38.907 46.9062 38.5143 47.0857 38.1614 47.3448C38.1236 47.3723 38.0818 47.3958 38.043 47.4202C38.0226 47.4131 38.0043 47.4039 37.9859 47.3958Z" fill="white"/>
<path d="M39.7995 26.1862C39.9504 25.9934 40.0973 25.8006 40.2513 25.614C40.2799 25.5793 40.336 25.5681 40.3798 25.5477C40.6614 25.4181 40.9429 25.2896 41.2234 25.158C41.6548 24.9561 42.0577 24.7133 42.378 24.3512C42.4076 24.3175 42.4484 24.2931 42.5106 24.2421C42.5218 24.343 42.5361 24.4124 42.5371 24.4807C42.5412 24.9775 42.5218 25.4752 42.5483 25.9709C42.5769 26.4952 42.5647 27.0205 42.4739 27.5315C42.3586 28.1833 42.3433 28.8453 42.2342 29.496C41.9833 30.9913 41.7711 32.4938 41.3794 33.9615C41.203 34.6225 40.9806 35.2712 40.7838 35.9271C40.643 36.3952 40.5226 36.8706 40.3666 37.3326C40.2605 37.6478 40.1116 37.9487 39.9759 38.2537C39.7311 38.8045 39.4843 39.3542 39.2354 39.903C39.1732 40.0407 39.0977 40.1733 39.0018 40.3599C38.8947 40.0723 38.8723 39.8336 38.8499 39.598C38.8284 39.3716 38.8305 39.1421 38.8254 38.9136C38.8019 37.7885 38.7805 36.6625 38.7581 35.5374C38.757 35.4813 38.7581 35.4252 38.7581 35.363C39.0385 35.2263 39.1783 34.9846 39.2895 34.7143C39.4363 34.3563 39.5128 33.9819 39.5577 33.6005C39.672 32.6407 39.6954 31.6809 39.5373 30.7231C39.5047 30.5232 39.4476 30.3253 39.3945 30.1294C39.366 30.0244 39.3782 29.9438 39.4669 29.8693C39.7413 29.6368 39.9127 29.3298 40.0555 29.0075C40.1269 28.8453 40.1962 28.6678 40.2024 28.4944C40.2187 28.064 40.2126 27.6305 40.1871 27.2C40.1667 26.839 40.0177 26.5095 39.7995 26.1862Z" fill="white"/>
<path d="M36.2928 3.01506C36.304 2.83554 36.3142 2.69784 36.3213 2.56014C36.3274 2.45406 36.3499 2.34493 36.3295 2.24395C36.2723 1.94713 36.4254 1.72375 36.5743 1.50139C36.6038 1.45753 36.6824 1.42897 36.7405 1.42693C36.9353 1.41775 37.1312 1.42387 37.3454 1.42387C37.4861 1.77169 37.6942 2.08177 37.6861 2.48058C37.6697 3.31902 37.8788 4.12991 38.0308 4.94692C38.2205 5.96487 38.4041 6.98384 38.5867 8.00281C38.6061 8.11399 38.6132 8.23231 38.5989 8.34247C38.4521 9.44508 38.4296 10.5528 38.4358 11.6636C38.4378 12.0879 38.4041 12.5112 38.4011 12.9355C38.4 13.1874 38.4286 13.4394 38.4429 13.6913C38.446 13.7372 38.4429 13.7831 38.4429 13.8606C37.529 13.6209 36.6416 13.6148 35.7358 13.8882C35.6359 13.8076 35.5563 13.7107 35.5788 13.5352C35.692 12.6652 35.6542 11.7931 35.6063 10.921C35.5777 10.4161 35.5624 9.91019 35.5216 9.40734C35.4849 8.96058 35.4288 8.51485 35.3656 8.07115C35.336 7.86409 35.3544 7.66621 35.4003 7.4663C35.5237 6.91754 35.6604 6.37083 35.7613 5.81799C35.8195 5.49873 35.8185 5.16928 35.848 4.84492C35.9103 4.16255 36.1336 3.54239 36.5641 3.0018C36.5845 2.9763 36.6028 2.94876 36.6181 2.92122C36.6242 2.91102 36.6191 2.89368 36.6191 2.859C36.5202 2.90592 36.4304 2.94978 36.2928 3.01506ZM36.9302 4.14827C36.7466 4.40939 36.6814 4.70314 36.6457 4.99996C36.5906 5.45283 36.5773 5.91081 36.5151 6.36267C36.357 7.52851 36.2846 8.69946 36.255 9.87449C36.253 9.95915 36.2632 10.0448 36.2683 10.1417C36.4458 10.0489 36.4417 10.0489 36.4559 9.87653C36.561 8.55156 36.6671 7.2266 36.7752 5.90163C36.8231 5.31717 36.8782 4.73272 36.9302 4.14827ZM36.2591 10.8547C36.0949 10.972 36.1183 11.1148 36.1153 11.2474C36.1132 11.3851 36.1102 11.5228 36.1122 11.6605C36.1143 11.788 36.1 11.9186 36.154 12.0461C36.2428 11.7237 36.305 11.4014 36.3499 11.076C36.359 11.0128 36.2968 10.9404 36.2591 10.8547Z" fill="white"/>
<path d="M51.509 40.3447C51.4029 40.0856 51.3815 39.851 51.408 39.6185C51.4437 39.3033 51.4947 38.9891 51.562 38.6801C51.7201 37.9538 52.0312 37.2858 52.4392 36.6748C52.9267 35.9465 53.3796 35.1897 54.0253 34.5746C54.3476 34.2666 54.625 33.9075 54.9014 33.5556C55.0402 33.3792 55.1819 33.3404 55.388 33.3945C55.7613 33.4924 56.1407 33.5199 56.5273 33.4669C56.8833 33.4179 57.2056 33.2976 57.4932 33.0834C57.6697 32.9518 57.8441 32.8172 58.0206 32.6866C58.0838 32.6397 58.1521 32.602 58.2592 32.5326C58.2592 32.6642 58.2664 32.7478 58.2582 32.8304C58.1838 33.5903 58.2439 34.3298 58.602 35.0214C58.654 35.1224 58.7121 35.2223 58.7845 35.309C58.9365 35.4906 59.1375 35.565 59.3731 35.5354C59.4373 35.5273 59.5016 35.5171 59.5628 35.5089C59.7658 35.8751 59.7688 37.1297 59.5638 37.7651C59.5128 37.7192 59.4649 37.6835 59.4251 37.6387C59.166 37.351 58.8498 37.1582 58.4745 37.0705C57.8013 36.9114 57.1179 36.8563 56.4375 36.9859C55.8011 37.1073 55.2258 37.3673 54.8209 37.91C54.7841 37.9589 54.7219 37.9906 54.6689 38.0252C54.6424 38.0426 54.6097 38.0528 54.5791 38.063C53.3755 38.4455 52.48 39.2523 51.6691 40.1754C51.6262 40.2223 51.5814 40.2682 51.509 40.3447Z" fill="white"/>
<path d="M49.3833 17.8528C49.4251 17.6702 49.5128 17.5407 49.6618 17.4305C50.1799 17.048 50.5349 16.535 50.8001 15.9556C50.9153 15.7047 51.0133 15.4467 51.1265 15.1733C51.1989 15.1866 51.2713 15.1896 51.3356 15.2131C51.6273 15.3192 51.8813 15.2427 52.1107 15.056C52.5667 14.6857 52.8717 14.2104 53.0716 13.6647C53.1216 13.5291 53.1307 13.3791 53.1573 13.2343C53.1705 13.1639 53.1787 13.0925 53.1981 12.9609C53.2368 13.0517 53.2593 13.0874 53.2674 13.1262C53.4367 13.9024 53.552 14.6796 53.4429 15.4783C53.3725 15.9903 53.2705 16.4911 53.0665 16.9664C52.8849 17.3897 52.7952 17.8365 52.6891 18.2802C52.6758 18.3342 52.6758 18.3934 52.6799 18.4495C52.7431 19.3226 52.6656 20.1896 52.6024 21.0607C52.5198 22.201 52.3484 23.3281 52.1893 24.4572C52.1505 24.7316 52.1312 25.008 52.1016 25.2834C52.0751 25.5293 52.0577 25.5741 51.9292 25.7118C51.9017 25.5905 51.8721 25.4813 51.8537 25.3712C51.8027 25.0611 51.6436 24.8091 51.4376 24.5827C51.3182 24.4521 51.1724 24.3705 50.9735 24.4042C50.9735 24.2502 50.9704 24.1217 50.9735 23.9921C50.9939 23.1914 50.9622 22.3938 50.7929 21.6074C50.7746 21.5197 50.7552 21.432 50.7297 21.3463C50.5971 20.9097 50.4961 20.4701 50.4308 20.0152C50.3217 19.2584 49.978 18.5913 49.5006 17.9956C49.4618 17.9487 49.421 17.8987 49.3833 17.8528Z" fill="white"/>
<path d="M14.0835 24.5696C14.0325 24.5237 13.9866 24.4829 13.9427 24.44C13.0431 23.5526 12.3984 22.4867 11.7987 21.3882C11.6865 21.1822 11.5355 20.9975 11.4029 20.8037C11.3795 20.7701 11.3499 20.7395 11.3346 20.7028C11.0959 20.1418 10.7899 19.6083 10.6859 18.9933C10.6359 18.6975 10.5227 18.4139 10.4452 18.1222C10.3544 17.7836 10.2595 17.447 10.1891 17.1042C10.0953 16.6412 10.0004 16.1771 9.94943 15.7089C9.87395 15.0163 9.96984 14.3421 10.2728 13.7056C10.3707 13.4996 10.4574 13.2885 10.5553 13.0814C10.5992 12.9876 10.6553 12.8998 10.7532 12.8152C10.7685 12.8815 10.7868 12.9468 10.7991 13.0141C10.9031 13.5751 10.998 14.1381 11.1132 14.696C11.2285 15.254 11.4713 15.7609 11.7813 16.2352C12.1037 16.7258 12.429 17.2144 12.7595 17.6999C12.9778 18.0202 13.141 18.3629 13.2226 18.7434C13.243 18.8392 13.2624 18.9351 13.2909 19.029C13.3909 19.3441 13.3837 19.642 13.3093 19.9765C13.1073 20.8823 13.2379 21.7758 13.5714 22.6397C13.601 22.7162 13.6255 22.7948 13.6663 22.8652C13.957 23.3741 13.9927 23.9525 14.109 24.5084C14.11 24.5206 14.0967 24.5369 14.0835 24.5696Z" fill="white"/>
<path d="M60.1921 24.4247C60.2472 24.1554 60.3166 23.8871 60.3523 23.6148C60.3982 23.2762 60.4298 22.9345 60.4441 22.5938C60.4767 21.8523 60.4471 21.1118 60.4084 20.3712C60.4012 20.2274 60.4267 20.0785 60.4573 19.9357C60.5502 19.5134 60.6522 19.0942 60.7521 18.674C60.8225 18.3782 60.9398 18.1018 61.1101 17.8478C61.3957 17.4214 61.6711 16.9859 61.97 16.5687C62.5085 15.818 62.8268 14.9806 62.9839 14.0759C63.0328 13.7943 63.0767 13.5128 63.1256 13.2313C63.1358 13.1722 63.1593 13.115 63.1776 13.0538C63.2144 13.0702 63.2348 13.0732 63.2429 13.0844C63.6795 13.6699 63.9885 14.2941 64.0079 15.053C64.0273 15.7884 63.9212 16.4994 63.7437 17.2052C63.605 17.758 63.4622 18.3109 63.3184 18.8627C63.298 18.9412 63.2664 19.0177 63.2297 19.0901C62.9604 19.6205 62.6931 20.153 62.4147 20.6783C61.9751 21.5065 61.5395 22.3378 61.0775 23.1528C60.8255 23.5965 60.5216 24.0116 60.2421 24.439C60.2268 24.4349 60.2095 24.4298 60.1921 24.4247Z" fill="white"/>
<path d="M20.1259 11.7268C20.2238 11.9594 20.2513 12.145 20.2289 12.3459C20.1565 12.9977 20.0188 13.6332 19.7444 14.2319C19.6251 14.491 19.6067 14.7684 19.5832 15.0428C19.5231 15.7333 19.5761 16.4126 19.8454 17.0603C19.9168 17.2327 20.0045 17.401 20.1034 17.5591C20.3146 17.8937 20.4523 17.9957 20.8246 18.1283C20.8164 18.1864 20.8113 18.2496 20.7981 18.3108C20.6236 19.1544 20.5461 20.004 20.6338 20.8639C20.644 20.9689 20.6522 21.076 20.6787 21.178C20.8531 21.8461 20.8021 22.5214 20.7501 23.1966C20.7093 23.7301 20.5675 24.239 20.3605 24.7307C20.3411 24.7755 20.3207 24.8194 20.2972 24.8622C20.2911 24.8724 20.2728 24.8765 20.2309 24.8979C20.2442 24.7164 20.2554 24.5491 20.2677 24.3828C20.3085 23.8239 20.2646 23.2762 20.0708 22.7447C19.9759 22.4846 19.9005 22.2174 19.8127 21.9542C19.6251 21.3973 19.3089 20.9332 18.8233 20.5936C18.5418 20.3967 18.3827 20.1223 18.2879 19.799C18.0992 19.1523 18.0339 18.4944 18.0227 17.8202C17.9972 16.328 18.4123 14.9561 19.0722 13.6423C19.1701 13.4465 19.2936 13.2619 19.4211 13.0834C19.6587 12.7488 19.8535 12.3929 20.0065 12.0134C20.0382 11.9298 20.0739 11.8492 20.1259 11.7268Z" fill="white"/>
<path d="M35.9306 34.7163C36.6212 34.7163 37.2872 34.7163 37.9778 34.7163C37.9869 34.8214 37.9982 34.907 38.0012 34.9927C38.0532 36.434 38.0971 37.8752 38.1624 39.3154C38.1746 39.5908 38.0849 39.8265 38.0043 40.0713C37.9869 40.1243 37.9247 40.1784 37.8696 40.1998C37.734 40.2528 37.5942 40.3059 37.4514 40.3252C36.9772 40.3915 36.51 40.3334 36.0479 40.213C35.8756 40.1682 35.8123 40.06 35.7685 39.8897C35.6206 39.3154 35.7062 38.7391 35.7328 38.1649C35.7848 37.0664 35.8531 35.9689 35.9143 34.8703C35.9184 34.8224 35.9245 34.7744 35.9306 34.7163Z" fill="white"/>
<path d="M38.0685 18.0957C37.3239 18.0814 36.5681 17.9529 35.796 18.0977C35.6001 17.7784 35.4655 17.4469 35.4563 17.0685C35.442 16.4168 35.4226 15.764 35.4053 15.1122C35.4033 15.0469 35.4084 14.9796 35.3941 14.9174C35.3247 14.6307 35.4634 14.4635 35.698 14.3248C35.9286 14.1891 36.1723 14.1106 36.4335 14.0789C36.8965 14.0228 37.3596 14.0361 37.8247 14.0728C38.1266 14.0973 38.3021 14.2952 38.502 14.4696C38.5306 14.4941 38.5336 14.5593 38.5316 14.6052C38.4949 15.4192 38.4602 16.2332 38.4143 17.0471C38.4071 17.1817 38.3612 17.3174 38.3164 17.4469C38.245 17.654 38.1603 17.857 38.0685 18.0957ZM36.4375 14.9633C36.2519 15.0173 36.2427 15.0173 36.2488 15.1744C36.2733 15.7589 36.3039 16.3443 36.3325 16.9288C36.3345 16.9696 36.3304 17.0175 36.3508 17.0471C36.3804 17.0889 36.4304 17.1165 36.4722 17.1491C36.5089 17.1022 36.5589 17.0604 36.5773 17.0073C36.5905 16.9675 36.5661 16.9125 36.5528 16.8666C36.4304 16.4147 36.3937 15.9557 36.4345 15.4886C36.4488 15.3213 36.4375 15.1509 36.4375 14.9633Z" fill="white"/>
<path d="M46.3733 11.8155C46.3274 11.8982 46.2866 11.9747 46.2428 12.0481C45.8246 12.7519 45.7001 13.5077 45.8511 14.3074C45.9133 14.6379 46.0132 14.9571 46.3274 15.1876C45.9582 15.5844 45.6297 15.9995 45.3921 16.4749C45.1585 16.94 44.9372 17.4122 44.7107 17.8804C44.5108 17.7927 44.4312 17.7947 44.3211 17.9691C44.1926 18.1731 44.0783 18.3945 43.9988 18.6219C43.8366 19.086 43.7754 19.5726 43.7468 20.0622C43.7417 20.1417 43.7376 20.2203 43.7325 20.3182C43.6204 20.2723 43.6316 20.1795 43.6142 20.1111C43.3857 19.2207 43.3031 18.3129 43.3388 17.3969C43.3562 16.9502 43.3837 16.4993 43.4582 16.0597C43.5204 15.6935 43.6418 15.3335 43.7713 14.9847C43.8396 14.799 43.9661 14.6266 44.0936 14.4716C44.4139 14.0809 44.724 13.6842 44.9973 13.2568C45.3513 12.7029 45.8256 12.2531 46.307 11.8125C46.3152 11.8064 46.3356 11.8135 46.3733 11.8155Z" fill="white"/>
<path d="M30.234 19.4401C30.1677 19.2228 30.1055 19.0046 30.033 18.7893C29.9239 18.4629 29.778 18.1549 29.572 17.8775C29.4873 17.7632 29.3966 17.6592 29.2385 17.6592C29.1283 17.6592 29.1161 17.5704 29.0814 17.499C28.9172 17.1625 28.7601 16.8218 28.5836 16.4913C28.3531 16.0588 28.0726 15.658 27.736 15.2989C27.7085 15.2704 27.686 15.2367 27.6656 15.2102C27.6748 15.1857 27.6758 15.1633 27.686 15.1572C28.0379 14.9674 28.1685 14.6441 28.2185 14.2738C28.2838 13.7863 28.2317 13.3151 28.0104 12.8693C27.8401 12.5266 27.6738 12.1818 27.5075 11.8371C27.4759 11.7728 27.4494 11.7065 27.3984 11.5923C27.4769 11.6331 27.5198 11.6463 27.5483 11.6718C28.0451 12.1206 28.4949 12.6143 28.9029 13.1457C28.9478 13.2039 28.9865 13.2671 29.0212 13.3314C29.2313 13.722 29.4986 14.0709 29.8076 14.386C30.0188 14.6023 30.1524 14.8563 30.235 15.1429C30.4053 15.7334 30.489 16.3332 30.4931 16.9503C30.4982 17.7275 30.4421 18.4966 30.3186 19.2626C30.3084 19.3259 30.287 19.387 30.2707 19.4493C30.2585 19.4462 30.2462 19.4431 30.234 19.4401Z" fill="white"/>
<path d="M37.9553 40.513C38.0349 40.5701 38.1134 40.6262 38.2032 40.6905C38.2164 40.9332 38.2276 41.1852 38.2429 41.4371C38.2644 41.7951 38.2909 42.1531 38.3072 42.5111C38.3113 42.606 38.3031 42.709 38.2684 42.7957C38.1195 43.166 37.9563 43.5311 37.8023 43.8994C37.7544 44.0156 37.686 44.0809 37.5504 44.0891C37.1087 44.1166 36.6711 44.0952 36.2356 44.0177C36.0775 43.9891 35.9724 43.9177 35.9133 43.7617C35.8031 43.472 35.6756 43.1894 35.5634 42.9008C35.5349 42.8273 35.5247 42.7427 35.5277 42.6631C35.5481 42.0685 35.5726 41.4738 35.6012 40.8792C35.6053 40.7935 35.6154 40.6956 35.6593 40.6252C35.7603 40.4661 35.8551 40.4477 36.054 40.5038C36.6864 40.6843 37.3198 40.7374 37.9553 40.513Z" fill="white"/>
<path d="M36.9721 45.8772C36.6151 45.3366 36.3488 44.8052 36.1418 44.2085C36.6385 44.2381 37.1026 44.2666 37.6024 44.2962C37.4249 44.8358 37.2209 45.3417 36.9721 45.8772Z" fill="white"/>
<path d="M36.7487 1.17503C36.7018 0.93941 36.7252 0.705832 36.7671 0.474295C36.7752 0.429415 36.8017 0.377397 36.8364 0.350877C36.9823 0.239698 37.1342 0.135659 37.327 0C37.327 0.426356 37.327 0.795593 37.327 1.17707C37.1363 1.23623 36.9476 1.24235 36.7487 1.17503Z" fill="white"/>
</svg>
