<svg width="23" height="23" viewBox="0 0 23 23" fill="none" xmlns="http://www.w3.org/2000/svg">
<path d="M11.5 0C5.15893 0 0 5.08313 0 11.331C0 17.5785 5.15893 22.6621 11.5 22.6621C17.8406 22.6621 23 17.5785 23 11.331C23 5.08313 17.8415 0 11.5 0ZM14.3599 11.7299H12.489C12.489 14.6752 12.489 18.3005 12.489 18.3005H9.71659C9.71659 18.3005 9.71659 14.7104 9.71659 11.7299H8.39872V9.40769H9.71659V7.90562C9.71659 6.82984 10.2354 5.14885 12.5145 5.14885L14.5689 5.15661V7.41086C14.5689 7.41086 13.3205 7.41086 13.0777 7.41086C12.835 7.41086 12.4899 7.53044 12.4899 8.04346V9.40815H14.6022L14.3599 11.7299Z" fill="#BA2425"/>
</svg>
