<svg width="103" height="108" viewBox="0 0 103 108" fill="none" xmlns="http://www.w3.org/2000/svg">
<path d="M69.0705 47.5546C70.294 45.9126 71.4532 44.3761 72.5919 42.8247C73.1113 42.1172 73.6112 41.3925 74.0813 40.6518C74.2797 40.3388 74.4907 40.2528 74.8335 40.3388C75.1844 40.4271 75.5697 40.4179 75.8965 40.5543C76.6269 40.8593 77.2587 40.6828 77.8825 40.2906C78.0717 40.1713 78.2884 40.0945 78.4902 39.9994C83.1043 48.7895 83.1249 61.6595 76.0605 71.4931C75.7669 71.3073 75.4699 71.1181 75.1936 70.9438C75.1936 70.8647 75.1787 70.8143 75.1959 70.7971C75.9871 70.0025 75.8885 69.2812 75.2268 68.3903C73.2122 65.6785 71.2847 62.9024 69.3205 60.1528C69.2563 60.0633 69.1714 59.9888 69.0717 59.8799C68.6898 60.741 68.3562 61.5815 67.9525 62.3876C66.4596 65.37 64.3142 67.7883 61.5634 69.6722C59.8481 70.0942 58.7473 71.7224 56.8484 71.93C56.9929 72.1398 57.0606 72.2396 57.1511 72.3726C55.9632 73.2819 54.9886 74.3918 54.2742 75.7242C53.0645 77.9797 53.2858 80.5481 54.851 82.3656C55.5057 83.1269 56.3451 83.5959 57.3082 83.9021C55.4186 84.8721 47.2992 84.957 44.4567 84.0316C45.2685 83.331 46.0597 82.6488 46.9174 81.9092C46.5275 81.5985 46.1606 81.3061 45.7443 80.9747C45.6904 81.0079 45.4749 81.2476 45.3166 81.2143C45.1114 81.1708 44.8006 80.9151 44.7949 80.7442C44.7536 79.2994 44.7708 77.8524 44.7708 76.2196C45.2914 76.6943 45.687 77.0566 46.1319 77.4637C46.8279 76.8663 47.5297 76.2631 48.2876 75.6118C47.6019 74.8585 46.9414 74.1327 46.2408 73.3633C45.6457 73.8082 45.0713 74.237 44.5793 74.6039C43.9888 74.1705 43.4419 73.768 42.8766 73.3529C43.3845 72.9493 43.912 72.5285 44.5048 72.0561C38.5377 69.8499 34.4923 65.8138 32.2988 59.865C32.1807 59.9945 32.0844 60.0794 32.0121 60.1814C29.8954 63.173 27.7856 66.1692 25.6609 69.1551C25.4086 69.5094 25.4315 69.7674 25.6907 70.1079C26.5105 71.1858 27.2971 72.2877 28.1227 73.4137C27.8854 73.6224 27.6193 73.8563 27.3533 74.0914C17.8144 63.5285 17.303 47.3814 24.8731 36.4895C25.1804 36.6534 25.4935 36.8197 25.8294 36.9986C25.6758 37.2531 25.5405 37.479 25.404 37.7049C25.3627 37.7382 25.3226 37.7714 25.2813 37.8058C27.5677 41.0405 29.8541 44.2763 32.199 47.5936C32.7127 46.4722 33.0991 45.5067 33.5842 44.5917C35.3443 41.2652 37.8864 38.6887 41.144 36.8059C41.5167 36.5904 41.7792 36.5583 42.0877 36.8816C42.3239 37.1293 42.6083 37.33 42.8686 37.5547C42.8926 37.5753 42.8972 37.6201 42.9282 37.6935C38.3611 40.0544 35.1975 43.6411 33.6954 48.59C32.5442 52.3831 32.6909 56.1625 34.0738 59.8856C36.8269 67.2952 44.1516 71.9426 52.1392 71.3498C59.8354 70.7787 66.4757 64.8861 68.0397 57.3045C69.7528 48.9994 65.3519 40.3548 56.9264 37.0364C57.6522 36.7234 58.2565 36.439 58.8826 36.212C59.0167 36.1638 59.2357 36.3083 59.4009 36.3932C63.9221 38.7335 67.0834 42.2835 68.8664 47.0547C68.9134 47.1739 68.9662 47.2955 69.0705 47.5546ZM78.1003 41.7984C80.7984 49.6094 80.8282 57.4329 78.2081 65.2714C81.3981 57.4306 81.3625 49.6059 78.1003 41.7984ZM23.0729 42.3546C19.9976 47.6131 20.1352 61.0839 23.3125 65.5443C20.5835 57.8125 20.5262 50.1047 23.0729 42.3546Z" fill="white"/>
<path d="M80.5758 30.5958C80.1618 31.7401 79.7387 32.8822 79.342 34.0323C79.2766 34.2203 79.2411 34.5024 79.3351 34.648C80.7134 36.767 81.8726 38.9961 82.7808 41.3559C82.806 41.4224 82.8553 41.4797 82.9012 41.552C88.8442 37.8162 95.3365 35.4243 102.038 33.5151C100.547 34.3212 99.0367 35.0941 97.5702 35.9414C94.5155 37.7073 91.4758 39.4983 88.4509 41.3157C87.904 41.6448 87.4212 42.1092 86.9775 42.5759C86.4386 43.1435 86.5429 43.7065 87.2905 43.9381C88.0989 44.1881 88.9612 44.3234 89.8097 44.3796C91.3898 44.4839 92.9767 44.4954 94.5602 44.5458C94.6657 44.5493 94.7701 44.5596 94.8916 44.6708C91.4655 45.6638 88.0393 46.6568 84.5546 47.667C84.6395 48.3309 84.7358 49.082 84.8333 49.833C84.8459 49.9282 84.8837 50.0257 84.8711 50.1162C84.7186 51.1975 85.2438 51.6505 86.2563 51.9497C87.6185 52.3522 88.9153 52.976 90.3314 53.5413C89.7054 53.5413 89.1722 53.5481 88.6401 53.539C87.9728 53.5287 87.302 53.461 86.6381 53.5069C86.356 53.5264 86.0889 53.7683 85.8148 53.9093C85.9501 54.1685 86.0235 54.5022 86.231 54.6753C87.1541 55.4447 88.0886 56.2049 89.0678 56.8986C90.578 57.9673 92.1282 58.9775 93.6211 60.1024C92.666 59.6873 91.704 59.2894 90.758 58.8525C89.7707 58.3973 88.7835 57.9375 87.8295 57.4204C86.8915 56.9124 85.9948 56.3288 85.0236 55.7451C84.9147 56.6808 84.8436 57.5889 84.6945 58.4833C84.4847 59.7435 84.2026 60.991 83.9848 62.2489C83.9458 62.4736 84.0065 62.7637 84.1269 62.9587C84.7266 63.931 85.363 64.8816 85.9042 65.9101C85.1452 65.2233 84.3861 64.5364 83.5823 63.8106C83.0365 65.2405 82.5239 66.5832 81.9609 68.0589C83.1649 68.1438 84.2955 68.2229 85.4272 68.3032C85.4318 68.3261 85.4376 68.349 85.4421 68.372C84.3047 68.5646 83.1718 68.7871 82.0286 68.935C81.5963 68.9912 81.3658 69.1574 81.1594 69.5289C80.4565 70.7937 79.7112 72.0355 78.9533 73.3346C78.2068 72.8588 77.5418 72.4334 76.8503 71.9931C78.4545 69.6711 79.7651 67.2402 80.6882 64.6167C83.5995 56.3471 83.267 48.2082 79.6493 40.2161C79.4406 39.7563 79.3064 39.4215 79.764 38.9904C80.2868 38.4973 80.3132 37.8368 79.9577 37.197C79.7536 36.8301 79.5186 36.4815 79.3122 36.1169C79.0966 35.7362 78.8478 35.3635 78.7056 34.9553C78.4556 34.2364 78.3673 33.5266 78.9865 32.8845C79.3122 32.5462 79.5392 32.1093 79.7915 31.7046C80.0323 31.3182 80.2478 30.9168 80.4749 30.5212C80.5093 30.5488 80.5425 30.5728 80.5758 30.5958Z" fill="white"/>
<path d="M24.0759 88.0115C26.2328 85.9946 28.4446 84.0613 31.0647 82.7416C31.8674 82.3368 31.9866 81.9366 31.9339 81.2154C31.896 80.7051 31.927 80.1903 31.927 79.6663C32.8271 79.9873 32.9704 80.1651 32.9567 81.0354C32.9349 82.4194 33.5736 83.3974 34.8028 84.09C35.375 83.6841 35.9769 83.2851 36.5457 82.8425C36.9459 82.5306 37.1958 82.5432 37.5261 82.972C37.8895 83.4445 38.3734 83.824 38.855 84.293C39.3251 83.5706 39.8411 83.7323 40.4443 83.9318C47.0799 86.1333 53.7224 86.1242 60.4303 84.1416C62.4036 83.558 64.1534 82.6063 65.964 81.7268C66.1291 81.6465 66.2885 81.5582 66.4937 81.5376C66.2621 81.744 66.0305 81.9504 65.7255 82.2233C66.1738 82.323 66.5648 82.3655 66.9226 82.4973C67.8491 82.8379 68.7652 83.2048 69.6722 83.5947C69.8362 83.6646 70.0174 83.8767 70.0472 84.0476C70.2352 85.1289 70.3831 86.2159 70.4623 87.3362C70.1607 86.7479 69.8683 86.1528 69.5541 85.5715C69.3099 85.1197 69.0634 84.6633 68.7641 84.2471C68.6357 84.0694 68.3536 83.8687 68.177 83.8974C68.0084 83.9249 67.794 84.2219 67.7596 84.4271C67.5613 85.63 67.3663 86.8362 67.2562 88.0494C67.1244 89.493 67.0785 90.9447 66.9914 92.3917C66.9833 92.519 66.9467 92.6451 66.824 92.777C66.7104 91.8723 66.5774 90.9699 66.4869 90.0617C66.3928 89.1123 66.3137 88.1606 66.277 87.2077C66.2415 86.2744 66.269 85.3376 66.269 84.3285C66.0913 84.4088 65.9307 84.4902 65.7645 84.5544C63.9 85.2756 62.039 86.0083 60.1643 86.7032C59.8329 86.8259 59.6311 86.9738 59.4786 87.296C58.9981 88.3097 58.4752 89.3038 57.879 90.2658C58.0946 89.2728 58.309 88.2787 58.544 87.1951C57.0488 87.4394 55.635 87.671 54.0698 87.9267C54.5663 88.9506 55.0456 89.9402 55.5261 90.9286C55.4997 90.9504 55.4733 90.971 55.447 90.9928C54.7016 90.0938 53.9632 89.1891 53.2064 88.3005C53.0872 88.1606 52.8888 88.0035 52.7225 87.9978C50.2469 87.9221 47.7713 87.8716 45.2063 87.812C45.3748 94.505 44.2614 101.2 42.608 108C42.608 107.463 42.6034 107.087 42.6091 106.712C42.6149 106.33 42.6378 105.948 42.6435 105.568C42.6963 102.092 42.7972 98.6169 42.7754 95.1425C42.7662 93.6244 42.5828 92.097 42.3374 90.5961C42.1482 89.4322 41.4751 89.2499 40.6335 90.0812C40.1094 90.5984 39.6749 91.2198 39.2701 91.839C38.4675 93.0694 37.7141 94.3318 36.9367 95.5794C36.8278 95.7537 36.7016 95.9165 36.4998 96.0495C37.3071 92.7254 38.1143 89.4024 38.9341 86.0244C38.104 85.6701 37.1947 85.294 36.2934 84.8961C35.3807 84.4925 35.3933 84.4925 34.6732 85.1358C33.5633 86.1276 32.4407 87.1057 31.2413 88.0459C31.3296 87.8797 31.4133 87.7111 31.505 87.5471C32.0061 86.647 32.5359 85.7618 32.9934 84.8411C33.1287 84.5682 33.0599 84.1955 33.0851 83.8676C32.7629 83.8607 32.3925 83.7472 32.1265 83.8664C30.7356 84.489 29.3574 85.1415 28.0043 85.8409C26.8187 86.4533 25.6732 87.1435 24.5082 87.7971C24.3706 87.8751 24.2216 87.9404 24.0759 88.0115Z" fill="white"/>
<path d="M34.1586 26.3006C33.9465 25.084 34.1724 24.0474 35.0175 23.1932C35.1746 23.0338 35.3557 22.8664 35.5575 22.7884C37.5114 22.0339 39.4756 21.3047 41.4261 20.5433C41.6588 20.4527 41.8996 20.2463 42.0189 20.0284C42.5326 19.0951 43.0016 18.1376 43.5875 17.2237C43.3857 18.1606 43.1839 19.0985 42.9683 20.1007C44.4578 19.8633 45.8406 19.6443 47.376 19.3989C46.8887 18.4117 46.4163 17.4554 45.9014 16.4119C46.0539 16.5449 46.1583 16.624 46.2489 16.7158C46.3566 16.8247 46.453 16.9428 46.5539 17.0586C46.7545 17.2891 46.9552 17.5196 47.1524 17.7523C47.5939 18.2752 47.939 19.001 48.502 19.2682C49.0432 19.5251 49.8115 19.2751 50.4765 19.3095C52.1334 19.3966 53.7892 19.5193 55.4449 19.6271C55.6146 19.6386 55.7832 19.65 56.0297 19.6672C56.0057 12.9296 57.142 6.37649 58.8046 0C58.8046 0.85769 58.8149 1.8117 58.8023 2.76456C58.753 6.82941 58.6773 10.8931 58.6601 14.958C58.6567 15.7102 58.8218 16.4761 59.0053 17.2123C59.2048 18.0195 59.7816 18.2087 60.4168 17.6618C60.9156 17.2318 61.3593 16.7112 61.732 16.1654C62.6665 14.7929 63.546 13.3836 64.4507 11.9905C64.5504 11.8357 64.6663 11.6912 64.8486 11.5788C64.0218 14.802 63.1951 18.0264 62.3626 21.2703C63.523 21.7828 64.7156 22.3229 65.923 22.8228C66.0445 22.8733 66.2888 22.7185 66.4355 22.6049C67.8184 21.5351 69.1932 20.4538 70.6632 19.4643C70.1965 20.1465 69.7207 20.8231 69.2666 21.5145C69.0579 21.8321 68.8549 22.1612 68.7105 22.5109C68.4708 23.0934 68.7116 23.4133 69.301 23.2345C70.3559 22.9134 71.4051 22.5545 72.4199 22.1245C73.8428 21.5237 75.2314 20.8437 76.6361 20.1981C76.8035 20.1213 76.9755 20.0514 77.2128 20.0869C76.4033 20.6579 75.6075 21.2485 74.7819 21.7954C73.9243 22.3642 73.054 22.918 72.1596 23.4294C71.2847 23.9293 70.3754 24.3662 69.465 24.8386C70.372 25.4979 71.2503 26.1366 72.2628 26.8728C71.7984 27.0276 71.4613 27.2076 71.1092 27.242C70.5004 27.3016 70.3467 27.6158 70.435 28.1559C70.4488 28.2407 70.4213 28.3324 70.4029 28.5193C70.1495 28.3301 69.9626 28.1902 69.7516 28.0332C69.9179 27.7981 70.0601 27.5997 70.216 27.3807C69.9248 27.0528 69.6358 26.7283 69.332 26.3866C69.2437 26.4313 69.1726 26.4542 69.1164 26.4955C68.2667 27.117 68.2426 27.1434 67.4801 26.4049C67.0696 26.007 66.5502 25.8947 66.0858 25.6447C60.8353 22.8148 55.2385 21.4916 49.2886 21.7427C44.0691 21.9617 39.1855 23.3973 34.6586 26.0174C34.5095 26.1022 34.3604 26.1859 34.1586 26.3006Z" fill="white"/>
<path d="M0 73.5744C1.15467 72.9644 2.31851 72.3704 3.46172 71.7398C6.43382 70.0989 9.4128 68.4661 12.3551 66.7725C13.2414 66.2623 14.0624 65.6133 14.8353 64.9379C15.6288 64.2453 15.4728 63.508 14.4397 63.2925C13.1979 63.0333 11.9125 62.9657 10.642 62.8648C9.46784 62.7719 8.28909 62.7444 7.11149 62.5907C10.3301 61.6872 13.5499 60.7825 16.8259 59.8617C16.7272 59.1003 16.6218 58.2931 16.5174 57.4858C16.5048 57.3907 16.4647 57.2932 16.4784 57.2026C16.639 56.0789 16.0553 55.6237 15.0359 55.337C13.8882 55.0137 12.7965 54.492 11.6728 54.0528C12.472 54.0528 13.2506 54.0562 14.028 54.0517C14.4282 54.0494 14.8364 54.0757 15.2274 54.0092C15.4453 53.9725 15.717 53.8154 15.8099 53.6331C15.8696 53.515 15.6987 53.1974 15.5473 53.0678C14.7917 52.4269 14.0395 51.7733 13.2265 51.208C11.7692 50.1943 10.2693 49.2415 8.78903 48.2622C8.68239 48.1923 8.58263 48.112 8.49892 48.002C11.1855 49.0305 13.8297 50.1427 16.3167 51.8191C16.3947 51.0727 16.4303 50.4007 16.5403 49.7414C16.8064 48.1625 17.1182 46.5904 17.3831 45.0115C17.421 44.7833 17.3613 44.4909 17.2409 44.2926C16.6917 43.3856 16.1035 42.5026 15.6173 41.5406C16.3259 42.185 17.0345 42.8283 17.7753 43.5014C18.3062 42.1048 18.8118 40.7781 19.3588 39.3391C18.2156 39.2668 17.1309 39.198 16.0461 39.1292C16.0427 39.1063 16.0393 39.0822 16.0358 39.0593C17.1549 38.8643 18.2695 38.6385 19.3943 38.4894C19.7808 38.4378 19.9241 38.2475 20.1064 37.9596C21.2978 36.0746 22.5121 34.2044 23.7229 32.3331C23.8146 32.1909 23.9396 32.0693 24.1334 31.9937C23.7413 32.5853 23.3411 33.1713 22.9593 33.7687C22.5797 34.3626 22.1956 34.9566 21.8573 35.5746C21.706 35.8521 21.62 36.1812 21.573 36.4965C21.4377 37.4001 21.7587 37.7991 22.8136 37.9975C19.5549 43.9073 18.2144 50.215 18.8898 56.9056C19.5652 63.594 22.1658 69.4832 26.57 74.6488C26.0472 74.8483 25.5919 75.0215 25.0966 75.2095C25.0267 74.705 24.9865 74.2716 24.9051 73.845C24.4958 71.7169 22.8113 70.1826 20.8919 70.2881C20.7233 70.2973 20.4642 70.0691 20.3736 69.888C19.8518 68.848 19.368 67.7896 18.8738 66.737C18.7866 66.5501 18.7109 66.3574 18.61 66.1201C12.7679 69.5875 6.49344 71.8453 0 73.5744Z" fill="white"/>
<path d="M60.4614 63.9736C54.0574 63.9736 47.7647 63.9736 41.3526 63.9736C42.5876 61.8282 43.7778 59.7574 45.0104 57.6155C42.5417 57.6155 40.1475 57.6155 37.6042 57.6155C40.8217 52.0416 43.9796 46.571 47.1971 40.9983C48.4595 43.1815 49.6738 45.2787 50.9248 47.4424C52.1758 45.2822 53.3947 43.1781 54.656 41.0006C57.8608 46.5515 61.0141 52.013 64.2224 57.5696C61.7056 57.5696 59.2965 57.5696 56.775 57.5696C58.0248 59.7402 59.2185 61.8133 60.4614 63.9736ZM48.9044 56.838C53.6435 56.838 58.253 56.838 62.9726 56.838C60.1874 52.0141 57.4446 47.2624 54.6525 42.4259C53.5586 44.3224 52.5278 46.102 51.5084 47.8885C51.4431 48.002 51.411 48.1981 51.466 48.3047C51.6862 48.7358 51.9465 49.1475 52.2308 49.6337C53.0599 48.2095 53.8315 46.8829 54.6594 45.461C56.5801 48.7897 58.4399 52.0118 60.3537 55.3302C59.9695 55.3302 59.7253 55.3302 59.4799 55.3302C56.4058 55.3302 53.3316 55.3268 50.2563 55.3359C50.0671 55.3359 49.7942 55.368 49.7048 55.4896C49.4181 55.884 49.1991 56.3278 48.9044 56.838ZM49.6199 51.1518C47.2934 55.1834 44.9978 59.1623 42.6632 63.2076C48.2118 63.2076 53.6252 63.2076 59.0373 63.2076C59.043 63.1308 59.0625 63.0861 59.0476 63.0597C58.0523 61.3214 57.0582 59.5831 56.0515 57.8517C55.9849 57.7381 55.829 57.6143 55.7075 57.6063C55.2637 57.5765 54.8165 57.5948 54.2661 57.5948C55.0894 59.035 55.8473 60.3594 56.6294 61.725C52.7686 61.725 49.0214 61.725 45.2053 61.725C45.328 61.4934 45.4095 61.326 45.5023 61.1655C47.0365 58.5041 48.5593 55.8382 50.1176 53.1906C50.387 52.733 50.4317 52.3707 50.1084 51.9487C49.9341 51.7251 49.808 51.4649 49.6199 51.1518ZM47.2017 42.5038C44.4302 47.3037 41.7115 52.0118 38.9366 56.8174C41.1141 56.8174 43.1551 56.8197 45.1962 56.8117C45.2982 56.8117 45.445 56.7624 45.4943 56.6867C45.7534 56.2831 45.9885 55.8622 46.297 55.3394C44.6263 55.3394 43.1081 55.3394 41.4501 55.3394C43.3914 51.9763 45.2707 48.7209 47.1867 45.4014C47.3232 45.6135 47.408 45.7351 47.4814 45.8624C49.0856 48.6372 50.6852 51.4156 52.2985 54.1858C52.3994 54.3601 52.5943 54.5677 52.7698 54.5918C53.1952 54.6502 53.6343 54.6112 54.1893 54.6112C51.8433 50.5487 49.5523 46.5779 47.2017 42.5038ZM59.1176 54.6204C57.6143 52.0152 56.1581 49.4915 54.6525 46.8829C53.9863 48.041 53.3637 49.1051 52.7686 50.1852C52.6987 50.3125 52.7342 50.5567 52.8122 50.6966C53.4921 51.9086 54.1882 53.1126 54.8968 54.3074C54.9782 54.445 55.1697 54.6044 55.313 54.6067C56.5468 54.6307 57.7794 54.6204 59.1176 54.6204ZM42.7355 54.6193C44.0874 54.6193 45.32 54.6284 46.5538 54.6067C46.6799 54.6044 46.8439 54.4438 46.9196 54.3154C47.6328 53.1 48.3391 51.8799 49.0225 50.6473C49.1039 50.5005 49.1131 50.2345 49.034 50.09C48.4572 49.0409 47.8484 48.0089 47.2005 46.8863C45.7099 49.4674 44.2571 51.9843 42.7355 54.6193ZM55.3577 61.0233C54.711 59.9019 54.1102 58.8447 53.4864 57.8012C53.4188 57.6877 53.2147 57.5948 53.0725 57.5937C51.6197 57.5788 50.168 57.5799 48.7152 57.5925C48.5868 57.5937 48.3988 57.6705 48.3391 57.7714C47.7096 58.8309 47.1008 59.9019 46.4552 61.0221C49.4468 61.0233 52.3466 61.0233 55.3577 61.0233ZM51.6632 54.6055C51.3835 54.1354 51.1587 53.7559 50.9007 53.3201C50.6359 53.7799 50.4134 54.1664 50.1611 54.6055C50.6897 54.6055 51.1232 54.6055 51.6632 54.6055Z" fill="white"/>
<path d="M36.9195 28.9781C36.9195 29.251 36.9195 29.4654 36.9195 29.7417C36.3633 29.3955 35.8405 29.0882 35.3371 28.7499C34.9782 28.5091 34.6388 28.2878 34.2466 28.649C34.21 28.5974 34.1928 28.5836 34.1882 28.5664C33.9577 27.7248 34.2742 27.257 35.0516 26.8155C40.8398 23.5258 47.0375 22.1705 53.6547 22.7713C57.7299 23.1417 61.578 24.317 65.2003 26.2261C65.3482 26.3041 65.4858 26.3981 65.7117 26.5346C65.1819 26.9577 64.7015 27.343 64.3529 27.6216C63.7234 27.0173 63.1455 26.4578 62.5619 25.9062C62.3188 25.6758 62.1181 25.7468 61.883 25.9727C61.1962 26.6309 60.483 27.2627 59.8019 27.8842C59.6391 27.726 59.5187 27.5046 59.3742 27.4863C57.9638 27.304 56.7942 26.5862 55.6281 25.8546C55.549 25.8053 55.4653 25.7629 55.385 25.7182C54.9034 26.0885 54.4654 26.4956 53.9632 26.796C53.4105 27.1251 52.8211 27.4313 52.2077 27.6067C51.655 27.7649 51.5311 28.0229 51.5415 28.5584C51.577 30.3151 51.5529 32.074 51.5564 33.8307C51.5575 34.3272 51.4761 34.7824 51.0358 35.0989C50.6815 34.9762 50.4522 34.3134 49.8995 35.006C49.8582 34.701 49.8181 34.5439 49.8181 34.3857C49.8135 32.723 49.8032 31.0615 49.8284 29.3989C49.8318 29.1375 49.9625 28.8531 50.1059 28.6226C50.3673 28.203 50.6803 27.8154 51.0289 27.3372C50.6677 27.0655 50.3088 26.7937 49.896 26.483C49.7068 26.6309 49.3972 26.8728 49.0682 27.1308C48.5499 26.6504 48.0476 26.1872 47.5202 25.6975C46.627 26.4142 45.7521 27.1148 44.9139 27.7867C44.4025 27.1618 43.9151 26.5644 43.4232 25.9681C43.2019 25.6998 42.9932 25.701 42.7043 25.9246C41.8925 26.5506 41.0531 27.1389 40.1748 27.7787C39.8113 26.9015 39.2563 26.264 38.4502 25.8902C38.2954 25.8191 37.9973 25.8443 37.8758 25.9521C37.1052 26.6355 36.3656 27.3544 35.5894 28.0883C35.8691 28.4392 36.1409 28.7786 36.4379 29.1501C36.5812 29.0985 36.7268 29.0457 36.9195 28.9781Z" fill="white"/>
<path d="M24.9532 31.8653C24.5163 31.3665 24.076 30.9147 23.6919 30.4182C21.2667 27.2867 23.0108 22.9237 26.938 22.2713C28.7738 21.9663 30.4582 22.3951 32.044 23.3113C32.2413 23.4248 32.4339 23.5452 32.6506 23.6759C33.342 22.9387 34.1046 22.3263 35.2122 22.0569C35.0471 22.2472 34.9531 22.3734 34.8418 22.48C33.8683 23.4191 33.4177 24.5164 33.49 25.913C33.6172 28.3715 33.6035 30.8356 33.67 33.2974C33.6906 34.0577 33.7697 34.8202 34.3545 35.444C34.6079 35.2685 34.8396 35.1091 35.1159 34.9188C35.2088 35.0025 35.3039 35.0885 35.453 35.2227C34.593 35.9301 33.8087 36.5895 33.0003 37.2178C32.9086 37.2889 32.6391 37.2385 32.5222 37.1502C31.7849 36.5986 31.4317 35.7994 31.1577 34.8488C30.6543 35.2215 30.1888 35.5678 29.7221 35.9129C29.5845 36.015 29.4457 36.1182 29.3059 36.2168C28.7956 36.578 28.3048 37.1788 27.7659 37.2281C27.2534 37.2751 26.6858 36.7465 26.1457 36.4668C25.5196 36.1423 24.9142 35.7662 24.2618 35.5047C23.9476 35.3797 23.4889 35.3476 23.2011 35.4887C22.7837 35.6928 22.9512 36.1365 23.0704 36.5115C23.1633 36.8027 23.2607 37.1295 22.872 37.2969C22.4971 37.4575 22.1233 37.2373 22.1795 36.8291C22.246 36.3521 22.3698 35.8441 22.6163 35.4394C23.3513 34.2354 24.1563 33.0738 24.9532 31.8653ZM29.9319 24.4969C27.5286 23.332 24.7915 23.997 23.6563 26.0117C22.6599 27.7786 23.3789 30.2072 25.2777 31.4078C26.2856 29.9297 27.2935 28.4517 28.3002 26.9748C27.9792 26.3946 27.4666 26.3018 26.9518 26.4405C26.4851 26.5666 26.0586 26.8407 25.6377 27.0391C25.6721 26.4118 26.0184 25.7617 26.6846 25.5381C27.2992 25.3317 27.9906 25.2113 28.6305 25.264C29.3047 25.3191 29.7313 25.1952 29.9319 24.4969ZM31.2196 32.2437C29.6647 32.2437 28.1741 32.3193 26.6949 32.2173C25.7031 32.1496 25.0529 32.4352 24.6642 33.333C24.6436 33.3811 24.6275 33.4316 24.5966 33.5164C26.0758 34.1987 27.5423 34.8832 29.0192 35.546C29.1396 35.5999 29.3632 35.5575 29.4744 35.4749C30.0087 35.0747 30.5282 34.6539 31.0361 34.2193C31.1347 34.1345 31.2047 33.9648 31.2104 33.8306C31.2322 33.3353 31.2196 32.8411 31.2196 32.2437ZM30.7162 24.8811C30.6279 24.8857 30.5408 24.8902 30.4525 24.8948C29.1683 26.7879 27.884 28.681 26.578 30.6074C28.1386 30.6074 29.6097 30.6074 31.1072 30.6074C31.1072 29.0537 31.1336 27.5493 31.0889 26.0461C31.0774 25.6539 30.8458 25.2686 30.7162 24.8811Z" fill="white"/>
<path d="M65.565 71.5839C64.6695 72.2879 63.7751 72.9931 62.8314 73.7362C63.2706 73.9254 63.657 74.0779 64.032 74.2556C66.8527 75.5949 66.7621 78.364 65.7061 80.1035C64.3542 82.3314 62.2123 83.3324 59.677 83.4975C58.9294 83.5468 58.144 83.4551 57.4158 83.2682C55.5835 82.7981 54.2935 81.0953 54.1548 79.2183C53.9553 76.5179 55.3897 74.6546 57.2989 73.07C58.3377 72.2077 59.4993 71.4922 60.6173 70.7274C60.748 70.6379 60.9773 70.5886 61.1206 70.6379C61.8396 70.8845 62.5253 71.2755 63.2603 71.4119C63.9941 71.5472 64.7727 71.4417 65.5306 71.4417C65.5421 71.4887 65.5536 71.5369 65.565 71.5839ZM60.1185 82.6937C60.1185 80.5323 60.1185 78.4259 60.1185 76.3127C59.286 76.4709 59.2803 76.4801 59.2745 77.246C59.2723 77.4742 59.239 77.7035 59.2505 77.9306C59.2952 78.8513 58.9111 79.5382 58.1657 80.0645C57.8195 80.3099 57.5202 80.6217 57.1865 80.9141C58.0121 81.8131 58.903 82.461 60.1185 82.6937ZM59.3147 76.0776C60.4453 75.174 61.5025 74.329 62.6422 73.4174C61.4646 72.9656 60.4017 72.5563 59.3147 72.1389C59.3147 73.485 59.3147 74.7337 59.3147 76.0776ZM57.2152 73.9758C55.5571 75.2853 55.6569 79.185 57.0443 80.397C57.3665 80.0289 57.4904 75.3644 57.2152 73.9758ZM61.7972 75.8162C61.7398 75.8196 61.4979 75.7921 61.2869 75.8597C61.0427 75.9377 60.6356 76.0891 60.6299 76.2244C60.5989 76.8516 60.6815 77.4857 60.7319 78.1163C60.7342 78.145 60.8282 78.1679 60.8798 78.192C61.9909 78.7286 63.0986 78.794 64.2338 78.2344C64.6053 78.0521 64.6913 77.8526 64.5629 77.4765C64.2005 76.4182 63.2763 75.815 61.7972 75.8162ZM60.6264 78.4684C60.6264 79.1277 60.6264 79.6528 60.6264 80.1814C63.1124 79.8317 63.1124 79.8317 64.5548 80.2858C64.6546 79.6781 64.7532 79.0875 64.8507 78.4959C64.8002 78.4638 64.7498 78.4317 64.6982 78.3996C63.3646 79.044 62.0173 79.1311 60.6264 78.4684ZM60.5932 82.6891C62.1584 82.7683 63.7854 81.8326 64.2556 80.6137C63.3864 80.1631 62.4817 80.1252 61.546 80.3534C60.5955 80.5851 60.5943 80.5793 60.5943 81.57C60.5932 81.9289 60.5932 82.289 60.5932 82.6891Z" fill="white"/>
<path d="M49.0432 27.9554C49.386 27.6813 49.6819 27.4451 49.9777 27.2078C50.0224 27.2238 50.0671 27.2399 50.1118 27.2571C50.0797 27.4016 50.0958 27.5942 50.0075 27.6813C49.2415 28.4358 49.1705 29.3669 49.2094 30.3702C49.2599 31.6487 49.222 32.9307 49.222 34.2103C49.222 35.3443 49.4067 35.5358 50.535 35.5863C49.9204 36.1046 49.3138 36.6332 48.6808 37.1285C48.6017 37.1904 48.3575 37.1125 48.2325 37.0334C47.4482 36.5346 47.1592 35.7789 47.1592 34.8823C47.1604 33.2964 47.0939 31.706 47.1833 30.1248C47.2361 29.1915 46.8772 28.6147 46.0951 28.1503C45.656 28.4714 45.1801 28.7867 44.749 29.1548C44.6034 29.2786 44.4979 29.5343 44.4956 29.7315C44.4761 31.3747 44.4566 33.019 44.5048 34.661C44.5162 35.0416 44.788 35.4143 44.9783 35.8821C44.5357 36.2812 44.0174 36.7478 43.4716 37.2398C42.8914 36.7582 42.3376 36.2984 41.7069 35.7732C42.5532 35.3272 42.4247 34.5784 42.4213 33.8617C42.4144 32.4479 42.4213 31.033 42.4179 29.6192C42.4179 29.4288 42.419 29.2327 42.3754 29.0504C42.1851 28.2604 41.5693 28.0976 40.8882 28.4656C39.8333 29.0367 39.5375 29.8473 39.6476 30.9883C39.7439 31.9916 39.682 33.0121 39.6613 34.0246C39.6476 34.6678 39.6315 35.295 40.2931 35.7686C39.7072 36.2812 39.1706 36.7501 38.611 37.2398C38.0469 36.7501 37.5182 36.2903 36.9277 35.7766C37.6581 35.3054 37.5504 34.6002 37.5481 33.9202C37.5423 32.4101 37.5515 30.9011 37.54 29.391C37.5377 29.149 37.5102 28.8876 37.415 28.6709C37.258 28.312 37.047 27.9588 36.5081 28.3842C36.5218 28.2042 36.4966 28.0895 36.5402 28.0471C37.0458 27.5552 37.5538 27.0633 38.0858 26.6012C38.165 26.5324 38.4103 26.5679 38.525 26.6413C39.0949 27.0025 39.479 27.5105 39.6155 28.1859C39.6556 28.3854 39.7003 28.5837 39.7554 28.8394C40.8596 28.0356 41.9202 27.2617 42.9751 26.4934C43.5932 26.8936 43.8064 27.2089 44.5564 28.8303C45.5356 28.0563 46.5022 27.2926 47.4952 26.5083C48.0055 26.9888 48.5054 27.4543 49.0432 27.9554Z" fill="white"/>
<path d="M13.4766 74.3393C14.0706 74.3771 14.6657 74.4138 15.3193 74.4551C15.3193 73.8715 15.3342 73.2626 15.3158 72.6537C15.2849 71.6435 14.8549 71.1711 13.855 70.998C13.7289 70.9762 13.6073 70.9303 13.4526 70.8867C15.0326 70.0176 16.4247 70.5221 17.4004 72.2891C17.9944 71.9646 18.5689 71.5977 19.1858 71.3248C21.7221 70.2022 24.0556 71.5231 24.3388 74.2877C24.4431 75.3002 24.4718 76.3643 24.278 77.355C23.7792 79.9062 21.9721 81.2375 19.1904 81.2799C17.8155 81.3006 16.4396 81.273 15.0682 81.3487C14.5751 81.3762 14.0637 81.5792 13.6154 81.8085C12.9492 82.1502 12.6682 82.8646 12.7944 83.6122C12.9113 84.3025 13.3654 84.8036 14.1371 84.9056C14.6095 84.9675 15.1278 84.9263 15.5876 84.7944C16.8856 84.424 18.1458 83.9046 19.4564 83.5973C20.5698 83.3359 21.6602 84.1763 21.6212 85.1441C21.6098 85.4193 21.432 85.7805 21.213 85.925C21.0491 86.0339 20.5789 85.9491 20.4585 85.7885C20.298 85.5775 20.3381 85.2095 20.3095 84.9079C20.3037 84.8425 20.3909 84.7715 20.3966 84.7004C20.4092 84.5215 20.4666 84.2383 20.3829 84.1832C20.2407 84.0903 19.9873 84.0846 19.8118 84.1419C19.5252 84.2348 19.266 84.4114 18.9931 84.5467C18.1561 84.9618 17.3351 85.4136 16.4774 85.7816C14.4926 86.6336 12.4103 85.3356 12.4378 83.2911C12.4515 82.2064 13.1475 81.3373 14.2804 81.0185C14.59 80.9313 14.9157 80.8992 15.262 80.8373C15.6094 79.1598 14.7861 78.0647 13.3815 77.2621C13.3998 77.2128 13.417 77.1635 13.4353 77.1153C14.0339 77.207 14.6324 77.2988 15.2367 77.3905C15.5417 76.3505 15.0659 75.5605 13.4583 74.5033C13.4617 74.4471 13.4686 74.3932 13.4766 74.3393ZM18.6262 73.4231C18.6262 74.7349 18.789 75.0342 19.805 75.2188C20.2155 75.2933 20.7131 75.2715 21.0858 75.1041C22.3253 74.548 22.1911 74.6443 21.8242 73.4713C21.5421 72.5712 20.978 71.9405 19.9655 71.8476C18.9885 71.7582 18.6274 72.0747 18.6274 73.0218C18.6262 73.156 18.6262 73.2901 18.6262 73.4231ZM18.6274 80.9187C20.5159 81.0919 21.4458 80.1746 21.9687 78.3113C21.9962 78.2115 21.8976 78.028 21.8036 77.9501C21.0193 77.3057 19.696 77.2644 18.8647 77.856C18.7581 77.9329 18.64 78.0842 18.6377 78.2035C18.6193 79.1116 18.6274 80.0186 18.6274 80.9187ZM18.1446 80.952C18.1446 78.0877 18.1446 75.2658 18.1446 72.4496C17.4429 72.5391 17.2388 72.898 17.2525 73.5733C17.2972 75.8219 17.2697 78.0728 17.2697 80.3225C17.2697 80.5254 17.2697 80.7272 17.2697 80.9531C17.5942 80.952 17.8373 80.952 18.1446 80.952ZM18.6652 75.1247C18.6652 75.9928 18.6652 76.761 18.6652 77.6061C19.8646 76.8814 21.0009 77.1233 22.1648 77.7288C22.1648 76.7369 22.1648 75.8574 22.1648 74.8736C20.9952 75.6683 19.8657 75.8219 18.6652 75.1247Z" fill="white"/>
<path d="M71.0277 28.0308C72.1319 27.5354 73.1685 27.0538 74.2211 26.6124C74.4137 26.5321 74.7015 26.5493 74.8976 26.6319C75.8103 27.0183 76.7127 27.4299 77.6048 27.8622C77.9179 28.0136 78.1541 28.009 78.4384 27.8049C78.8214 27.5297 79.2388 27.3004 79.7009 27.0149C79.7009 27.7372 79.7009 28.3885 79.7009 29.0857C79.1219 29.0089 78.5623 28.9355 77.9248 28.8518C77.9248 29.0777 77.9248 29.2634 77.9248 29.448C77.9248 30.8424 77.9523 32.2378 77.9156 33.6321C77.8904 34.5873 78.1311 35.4393 78.6483 36.2293C78.8879 36.5962 79.1299 36.9643 79.3409 37.3484C79.6837 37.9722 79.6631 38.4159 79.1024 38.8104C78.4063 39.3 77.6324 39.683 76.8675 40.0625C76.7001 40.1462 76.4238 40.0488 76.2082 39.9937C74.6419 39.5958 73.0859 39.5431 71.5196 40.0155C71.2937 40.0832 71.0036 39.9364 70.6057 39.863C71.5333 38.7989 72.3314 37.8827 73.165 36.9264C72.5183 36.4632 71.9094 36.0412 71.3201 35.5952C71.1882 35.4954 71.0403 35.3074 71.0391 35.1595C71.0231 32.755 71.0277 30.3482 71.0277 28.0308ZM72.9976 27.9402C72.9976 30.1131 72.9953 32.1885 73.0056 34.2628C73.0056 34.3729 73.0951 34.5174 73.1868 34.585C73.6134 34.8957 74.056 35.1847 74.51 35.4943C74.9366 35.0609 75.3391 34.6802 75.7048 34.2662C75.8298 34.1252 75.9261 33.9039 75.9284 33.7181C75.9468 32.192 75.9445 30.6669 75.9307 29.1407C75.9296 28.9997 75.8379 28.7658 75.7381 28.7348C74.8552 28.455 73.9608 28.2131 72.9976 27.9402ZM75.7266 34.7925C74.7199 35.9071 73.6833 37.0549 72.563 38.2944C74.5628 38.0777 76.3882 38.205 78.224 38.7175C77.7688 38.0616 77.1943 37.5399 76.7781 36.9127C76.3538 36.2763 76.0855 35.5356 75.7266 34.7925Z" fill="white"/>
<path d="M63.7077 28.9012C64.7706 28.0573 65.7086 27.312 66.6844 26.5369C67.1889 26.9955 67.706 27.4656 68.2358 27.9461C68.5832 27.6869 68.8985 27.4507 69.215 27.2145C69.2563 27.2329 69.2976 27.2524 69.3389 27.2707C69.3068 27.3991 69.3171 27.5665 69.238 27.6491C68.5179 28.3944 68.3871 29.2865 68.4319 30.2841C68.4938 31.6371 68.4468 32.9959 68.4479 34.3524C68.4491 35.3488 68.6727 35.5587 69.5969 35.4394C69.6209 35.436 69.6519 35.4841 69.7092 35.5346C69.6771 35.5873 69.6542 35.6607 69.6049 35.702C68.9914 36.2134 68.3734 36.7202 67.753 37.2305C66.7188 36.6698 66.353 35.7788 66.3484 34.6975C66.3415 33.2069 66.2853 31.714 66.3679 30.2279C66.4206 29.2819 66.1844 28.5974 65.2488 28.164C64.8257 28.4747 64.3383 28.8072 63.8843 29.1787C63.7627 29.2785 63.6813 29.4964 63.6802 29.6603C63.6653 31.3608 63.6435 33.0613 63.6939 34.7606C63.7042 35.1138 64.0035 35.4578 64.1962 35.8614C63.7203 36.2856 63.1974 36.7512 62.6436 37.2442C62.0634 36.7523 61.5164 36.2879 60.9076 35.7708C61.6839 35.3144 61.5738 34.6058 61.5715 33.9235C61.5658 32.5097 61.5692 31.0959 61.5703 29.6821C61.5703 29.6053 61.5715 29.5296 61.5703 29.4528C61.5554 28.5584 61.4304 28.4105 60.4065 28.1812C61.0119 27.6204 61.5658 27.0873 62.1517 26.593C62.2308 26.5265 62.5129 26.6057 62.6379 26.7008C63.3052 27.2122 63.6939 27.8888 63.7077 28.9012Z" fill="white"/>
<path d="M59.0463 28.2556C59.0463 30.4755 59.0509 32.8433 59.0326 35.2111C59.0314 35.3396 58.8537 35.5115 58.7161 35.5861C57.7965 36.0814 56.87 36.563 55.9355 37.0297C55.7967 37.0985 55.5766 37.1329 55.4459 37.071C54.2109 36.4908 52.9886 35.8865 51.8672 35.3407C51.9543 34.7926 52.1321 34.1333 52.1516 33.4694C52.1974 31.942 52.1791 30.4124 52.1573 28.8839C52.1516 28.4677 52.2639 28.2808 52.6733 28.0939C53.5161 27.7075 54.3141 27.2156 55.0973 26.7156C55.3622 26.5471 55.5135 26.5242 55.7956 26.6698C56.823 27.2007 57.8722 27.6869 59.0463 28.2556ZM54.2694 28.1272C54.2694 30.2129 54.2671 32.231 54.2751 34.2479C54.2751 34.3454 54.3359 34.5002 54.4082 34.5289C55.2211 34.8614 56.0421 35.1733 56.9239 35.5161C56.9239 33.3994 56.9285 31.4157 56.9136 29.4309C56.9124 29.3025 56.7886 29.1052 56.6728 29.0582C55.9011 28.7383 55.1179 28.4517 54.2694 28.1272Z" fill="white"/>
<path d="M74.8656 71.468C76.9158 72.774 78.8571 74.0101 80.7937 75.2428C81.038 75.049 81.2685 74.8678 81.4611 74.7142C81.4611 76.91 81.4427 79.0852 81.4749 81.2592C81.4817 81.7569 81.3453 81.9747 80.874 82.1639C80.0668 82.4896 79.31 82.9368 78.5899 83.3037C77.4536 82.8026 76.3115 82.2992 75.2818 81.8451C75.3804 81.3142 75.5582 80.749 75.5788 80.1779C75.6247 78.8799 75.6109 77.5796 75.5834 76.2816C75.5742 75.8597 75.6625 75.62 76.1063 75.4973C76.5191 75.3838 76.9009 75.1614 77.4077 74.9378C76.6979 74.478 76.096 74.0549 75.4607 73.6868C75.0215 73.4322 74.7762 73.1375 74.8553 72.5986C74.9057 72.2695 74.8656 71.9267 74.8656 71.468ZM79.6276 81.9277C79.6276 80.4898 79.5267 79.1287 79.6586 77.7895C79.7709 76.6405 79.3444 75.9835 78.3686 75.5191C77.9145 75.3024 77.402 75.5088 77.3974 76.0099C77.3825 77.6106 77.3848 79.2113 77.4043 80.8109C77.4066 80.9531 77.5499 81.1675 77.6795 81.2214C78.2929 81.4713 78.9236 81.6777 79.6276 81.9277Z" fill="white"/>
<path d="M39.957 75.3482C39.4376 75.6016 39.4227 76.0568 39.4296 76.5568C39.4514 78.0267 39.4376 79.4967 39.4387 80.9667C39.4387 81.8451 39.6474 82.0389 40.653 81.923C39.9868 82.4815 39.4284 82.9481 38.8585 83.4252C38.1258 82.9493 37.6741 82.3313 37.6076 81.3474C36.7774 81.938 36 82.4436 35.2787 83.0192C34.8464 83.3632 34.5644 83.307 34.2318 82.9183C33.7778 82.3851 33.5484 81.782 33.5484 81.086C33.5496 79.5965 33.5484 78.1082 33.5484 76.6187C33.5484 75.6096 33.5484 75.6096 32.5784 75.6039C33.1815 75.1395 33.7835 74.674 34.4222 74.1809C34.9015 74.5524 35.3636 74.9113 35.9094 75.3344C35.2466 75.5982 35.2971 76.1153 35.3028 76.637C35.3177 77.9729 35.3051 79.3098 35.3097 80.6457C35.3108 80.8544 35.3108 81.0711 35.3624 81.2706C35.523 81.8864 35.9415 81.9792 36.4907 81.7017C37.47 81.2064 37.8048 80.4863 37.6775 79.4062C37.5766 78.5393 37.6867 77.6507 37.6454 76.7746C37.6225 76.2747 37.4849 75.7805 37.3977 75.284C37.3289 75.2714 37.2601 75.2599 37.1925 75.2473C37.259 75.2083 37.3347 75.1796 37.392 75.1292C38.6395 74.0433 38.7634 74.0525 39.957 75.3482Z" fill="white"/>
<path d="M25.4109 75.9308C26.3477 75.3563 27.1824 74.8334 28.0321 74.3358C28.1445 74.2704 28.352 74.2796 28.477 74.3369C29.4035 74.7681 30.3197 75.2199 31.3344 75.7106C31.3344 77.1565 31.2633 78.7435 31.3585 80.3201C31.4262 81.4312 31.2484 82.1777 30.0169 82.4712C29.4505 82.6065 28.9574 83.0526 28.4988 83.3186C27.3384 82.8049 26.1963 82.2992 25.1575 81.8383C25.2366 81.3521 25.3868 80.8224 25.3994 80.2892C25.4327 78.7825 25.4109 77.2747 25.4109 75.9308ZM27.2272 75.5994C27.2272 77.387 27.2226 79.1024 27.2363 80.8178C27.2375 80.9347 27.3441 81.1148 27.4473 81.1572C28.1101 81.4324 28.7854 81.6778 29.5182 81.9564C29.5182 80.1504 29.5227 78.4362 29.5078 76.7231C29.5067 76.6107 29.3886 76.4422 29.2842 76.3986C28.6226 76.1223 27.9484 75.8757 27.2272 75.5994Z" fill="white"/>
<path d="M87.2952 77.2839C87.8043 77.6015 88.3054 77.879 88.764 78.2172C88.9429 78.3491 89.1195 78.6128 89.1286 78.8227C89.1676 79.7572 89.1585 80.6951 89.1344 81.6308C89.1298 81.7971 89.014 82.0264 88.8787 82.1101C88.2801 82.4782 87.6621 82.8187 87.0337 83.1352C86.8549 83.2246 86.5831 83.282 86.4134 83.212C85.2748 82.7362 84.1488 82.7625 83.0079 83.1834C82.8737 83.2327 82.7178 83.2235 82.4265 83.2579C83.2808 82.031 84.0398 80.9405 84.8379 79.7939C84.2967 79.4923 83.7715 79.232 83.2865 78.911C83.1179 78.7997 82.9608 78.5429 82.9505 78.3445C82.9115 77.6015 82.9115 76.8539 82.9528 76.1108C82.9631 75.9205 83.1409 75.6912 83.3071 75.5685C83.8724 75.1488 84.4893 74.7968 85.042 74.3611C85.2966 74.1604 85.464 74.1466 85.746 74.2739C86.5797 74.6512 87.4144 75.0376 88.3822 74.8346C89.155 74.6718 89.3304 74.2808 88.9131 73.6203C88.8041 73.4495 88.7812 73.2247 88.7181 73.0241C88.881 72.9943 89.0919 72.8865 89.194 72.9518C89.3763 73.0676 89.6366 73.3153 89.6091 73.4598C89.5265 73.8932 89.3878 74.3462 89.1504 74.7131C88.6631 75.4653 88.0955 76.1647 87.5635 76.8871C87.4729 77.0041 87.3961 77.1325 87.2952 77.2839ZM87.5233 81.6996C87.4832 81.7799 87.5119 81.7489 87.513 81.7168C87.5245 81.0873 87.5325 80.4566 87.5394 79.826C87.544 79.3432 86.801 78.6277 86.3308 78.6736C86.2506 78.6816 86.1588 78.7539 86.1049 78.8227C85.4433 79.6746 84.7875 80.5312 84.205 81.2902C85.2839 81.4233 86.3824 81.5586 87.5233 81.6996ZM87.6678 76.1097C86.6783 75.9904 85.6841 75.87 84.6544 75.7451C84.6544 76.3115 84.6395 76.9215 84.6636 77.5292C84.6705 77.6909 84.7508 77.9111 84.8735 77.9959C85.1658 78.1989 85.5018 78.3365 85.8481 78.5142C86.4879 77.6691 87.1037 76.8562 87.6678 76.1097Z" fill="white"/>
<path d="M73.4528 75.6934C73.4528 77.6095 73.4574 79.6287 73.4414 81.6479C73.4402 81.7729 73.3003 81.9495 73.1788 82.0103C72.2993 82.4494 71.4072 82.8645 70.5358 83.2796C69.4568 82.8026 68.3159 82.2981 67.2793 81.8394C67.3699 81.3165 67.5361 80.749 67.5556 80.1768C67.5981 78.8616 67.5797 77.5452 67.5614 76.2289C67.5568 75.8803 67.6474 75.7175 67.9971 75.565C68.6713 75.2692 69.3261 74.9045 69.928 74.4814C70.2697 74.2418 70.4773 74.2555 70.8247 74.4401C71.6434 74.8747 72.4965 75.2428 73.4528 75.6934ZM71.6193 81.9518C71.6193 80.1378 71.6216 78.4431 71.6136 76.7483C71.6125 76.636 71.5517 76.4559 71.4703 76.4215C70.78 76.1349 70.0794 75.8746 69.3272 75.5856C69.3272 77.387 69.3215 79.0817 69.3375 80.7765C69.3387 80.9072 69.4602 81.1044 69.576 81.1537C70.2193 81.4289 70.8786 81.6674 71.6193 81.9518Z" fill="white"/>
<path d="M23.4258 31.1589C17.6444 28.0859 12.6267 24.0073 7.90479 19.509C8.09169 19.6157 8.27859 19.7212 8.46435 19.8289C12.0946 21.9273 15.7192 24.0337 19.3586 26.1171C20.0512 26.5139 20.8034 26.8051 21.5155 27.1686C21.6794 27.2523 21.9065 27.4312 21.9133 27.5757C21.973 28.9608 22.6254 30.0822 23.4258 31.1589Z" fill="white"/>
<path d="M41.9969 81.9208C42.0898 81.3807 42.2377 80.875 42.2538 80.3636C42.2916 79.1619 42.2652 77.958 42.2652 76.7551C42.2652 76.6405 42.271 76.5258 42.2618 76.4111C42.2125 75.8344 41.9935 75.6612 41.2803 75.6039C41.8135 75.1464 42.3317 74.6682 42.8959 74.252C42.9842 74.1878 43.3351 74.3632 43.4749 74.5112C43.765 74.8196 43.9932 75.1842 44.2925 75.5856C44.8578 75.1636 45.4896 74.6923 46.1604 74.1924C46.5743 74.643 46.9711 75.0753 47.4034 75.5466C46.9963 75.9032 46.6018 76.2495 46.1615 76.6347C45.7533 76.2586 45.3543 75.8906 44.9644 75.5317C44.3647 75.8011 44.1136 76.2013 44.1561 76.8813C44.2237 77.966 44.2535 79.0645 44.1492 80.1435C44.0563 81.1044 44.4691 81.6364 45.2534 82.0148C45.4644 81.9081 45.6777 81.8004 45.8921 81.6914C45.9311 81.7522 45.97 81.813 46.009 81.8737C45.4369 82.3668 44.8635 82.8599 44.3315 83.3185C43.4807 82.8083 42.6838 82.3313 41.9969 81.9208Z" fill="white"/>
<path d="M46.7061 36.3692C46.1511 36.524 45.5537 36.6914 44.9563 36.8588C44.9426 36.8324 44.9288 36.8072 44.915 36.7808C45.235 36.4885 45.5549 36.1961 45.9413 35.8429C44.8967 35.109 45.0962 34.0381 45.0951 33.021C45.0939 32.2573 45.1478 31.4891 45.0802 30.7312C45.0056 29.8907 45.2178 29.2772 46.1259 28.9802C46.4504 29.1052 46.5582 29.393 46.5536 29.8001C46.5352 31.2896 46.5307 32.7791 46.5536 34.2674C46.5639 34.9485 46.6499 35.6273 46.7061 36.3692Z" fill="white"/>
<path d="M41.1244 81.5356C40.8102 81.3831 40.4949 81.2317 40.0489 81.015C40.0489 79.6207 40.0374 78.0291 40.0615 76.4376C40.0649 76.1934 40.2358 75.9526 40.3493 75.6602C40.824 76.0363 41.199 76.3332 41.6725 76.7082C41.6725 77.9225 41.6966 79.3122 41.6542 80.6997C41.645 81.0173 41.4099 81.328 41.2792 81.6422C41.2276 81.6067 41.176 81.5711 41.1244 81.5356Z" fill="white"/>
<path d="M74.1191 81.812C74.0973 81.5643 74.0687 81.3855 74.0687 81.2066C74.0652 79.4155 74.0515 77.6245 74.0813 75.8334C74.0859 75.5662 74.2624 75.2761 74.4253 75.0422C74.6294 74.7498 74.9 74.5056 75.1671 74.2144C75.4767 74.4208 75.7691 74.6157 76.0661 74.814C76.0168 74.8702 76.0076 74.892 75.995 74.8932C74.9802 74.9998 74.9275 75.6672 74.9676 76.4962C75.0284 77.7506 74.9791 79.0108 74.9837 80.2686C74.9871 80.8947 74.8472 81.4405 74.1191 81.812Z" fill="white"/>
<path d="M34.7215 13.8069C34.8947 16.3249 35.0678 18.8429 35.2398 21.3507C34.6837 21.5674 34.264 21.7302 33.865 21.885C34.1092 19.2007 34.3535 16.5049 34.5988 13.8103C34.6401 13.8092 34.6803 13.808 34.7215 13.8069Z" fill="white"/>
<path d="M93.3103 87.5645C91.244 86.356 89.1766 85.1474 87.0312 83.893C87.42 83.6384 87.7548 83.4022 88.1091 83.2004C88.1939 83.1522 88.3808 83.1706 88.4565 83.2336C90.118 84.6291 91.7715 86.0349 93.4249 87.4395C93.3871 87.4808 93.3481 87.5232 93.3103 87.5645Z" fill="white"/>
<path d="M41.607 28.8872C41.6597 29.0214 41.7928 29.2037 41.795 29.3894C41.8134 30.6083 41.8042 31.8283 41.8042 33.2261C41.2561 32.6149 40.3365 32.5427 40.2666 31.7504C40.1702 30.6301 39.895 29.339 41.607 28.8872Z" fill="white"/>
<path d="M75.2636 82.4951C76.0124 82.8276 76.7715 83.1407 77.5076 83.4984C78.2896 83.878 78.9122 84.418 79.2883 85.2482C79.6151 85.9683 80.0486 86.6391 80.3593 87.3878C78.629 85.8181 76.8987 84.2472 75.1685 82.6774C75.1994 82.6155 75.2315 82.5547 75.2636 82.4951Z" fill="white"/>
<path d="M59.7139 28.3645C60.1599 28.5376 60.2218 29.2898 60.9522 29.0066C60.9522 30.018 60.9763 31.0006 60.9304 31.9787C60.9224 32.1599 60.6472 32.3445 60.4695 32.4982C60.2551 32.6828 60.012 32.8364 59.7139 33.052C59.7139 31.457 59.7139 29.9216 59.7139 28.3645Z" fill="white"/>
<path d="M24.1758 22.8376C23.7894 23.1702 23.4305 23.4775 23.0487 23.8065C22.3538 22.5487 21.613 21.2083 20.8723 19.8667C20.8987 19.846 20.9251 19.8265 20.9514 19.8059C22.0167 20.8081 23.083 21.8114 24.1758 22.8376Z" fill="white"/>
<path d="M37.0684 77.6303C37.0684 78.4879 37.0719 79.3456 37.0661 80.2033C37.0639 80.4808 36.4894 81.1011 36.2245 81.0725C36.1133 81.0599 35.939 80.873 35.9344 80.7606C35.9092 79.9797 35.8209 79.1771 35.9677 78.4226C36.0365 78.0694 36.5857 77.8091 36.9171 77.5076C36.9675 77.5477 37.018 77.589 37.0684 77.6303Z" fill="white"/>
<path d="M82.054 78.7812C82.6801 79.2101 83.266 79.6114 83.9082 80.0506C83.5711 80.5322 83.2179 81.0367 82.8762 81.5263C82.2352 81.4071 81.9726 81.0929 82.0414 80.4519C82.1033 79.8751 82.054 79.2869 82.054 78.7812Z" fill="white"/>
<path d="M72.1699 74.4929C72.8648 73.696 73.5081 72.9598 74.2018 72.1641C74.3291 73.1582 74.4265 74.0778 73.4897 74.6947C73.3372 74.7956 73.0815 74.791 72.8843 74.7601C72.6676 74.7257 72.4635 74.6064 72.1699 74.4929Z" fill="white"/>
<path d="M43.8409 83.9837C42.7195 83.6638 41.5992 83.3439 40.448 83.0159C40.8528 82.3681 41.2988 82.2465 41.879 82.5951C42.5578 83.0045 43.2481 83.392 43.9327 83.7899C43.9017 83.8553 43.8719 83.9195 43.8409 83.9837Z" fill="white"/>
<path d="M70.3971 31.1037C69.0486 30.2781 68.754 29.7174 69.1874 28.8608C70.3134 29.3092 70.5267 29.6933 70.3971 31.1037Z" fill="white"/>
<path d="M30.8793 19.4849C31.4458 20.5902 32.0122 21.6956 32.5706 22.7849C31.6934 22.6576 31.2153 22.2093 31.0869 21.3699C31.0376 21.0512 30.9928 20.7313 30.9458 20.4114C30.9023 20.1121 30.8575 19.8139 30.814 19.5147C30.8358 19.5044 30.8575 19.4952 30.8793 19.4849Z" fill="white"/>
<path d="M31.9512 77.0811C32.9546 77.4205 33.1013 78.1474 32.9202 79.0223C31.9673 78.6909 31.8675 78.4972 31.9512 77.0811Z" fill="white"/>
<path d="M66.8805 78.8926C67.0697 80.0186 67.0399 80.1 66.3083 80.4314C66.4975 79.92 66.6707 79.4544 66.8805 78.8926Z" fill="white"/>
<path d="M40.6885 74.9883C41.1276 74.6569 41.5668 74.3255 42.0071 73.9941C42.0323 74.0251 42.0564 74.0549 42.0816 74.0859C41.6666 74.4516 41.2515 74.8186 40.8375 75.1844C40.7871 75.119 40.7378 75.0536 40.6885 74.9883Z" fill="white"/>
<path d="M25.038 30.6705C24.6275 29.9493 24.2423 29.3817 23.974 28.7637C23.7962 28.3543 23.6196 27.8647 24.123 27.4668C24.2423 27.3728 24.3076 27.0976 24.2698 26.9371C24.0588 26.0645 24.6379 25.6345 25.2089 25.216C25.4818 25.0165 25.8086 24.8857 26.1216 24.7516C26.1893 24.7229 26.3074 24.8123 26.5126 24.888C24.5714 25.9212 24.9864 27.6675 25.0805 29.3439C25.3946 28.8245 25.7123 28.3062 26.0219 27.7833C26.3395 27.249 26.7741 26.9382 27.5194 27.0265C26.7098 28.2167 25.9301 29.3611 25.038 30.6705Z" fill="white"/>
<path d="M29.1799 32.8616C28.7064 33.3879 28.2924 33.8489 27.8475 34.3442C27.5093 34.1837 27.1745 34.0243 26.8328 33.8626C27.5471 32.7871 27.5781 32.7733 29.1799 32.8616Z" fill="white"/>
<path d="M25.4866 33.059C25.7537 32.9615 26.0209 32.8641 26.2892 32.7666C26.1447 33.1611 26.0415 33.622 25.4866 33.059Z" fill="white"/>
<path d="M27.6868 30.0638C28.6305 28.6729 29.4916 27.4024 30.3527 26.1331C30.394 26.1388 30.4341 26.1445 30.4754 26.1514C30.4754 27.0446 30.5121 27.9402 30.4582 28.83C30.4364 29.1935 29.1098 30.0626 28.7279 30.0649C28.4264 30.0649 28.1259 30.0638 27.6868 30.0638Z" fill="white"/>
<path d="M58.0396 80.9887C58.567 80.5162 59.0257 80.1057 59.5268 79.6562C59.5268 80.4062 59.5268 81.1136 59.5268 81.953C59.0004 81.6113 58.5372 81.3109 58.0396 80.9887Z" fill="white"/>
<path d="M63.9253 77.6472C63.1123 78.162 62.265 78.1333 61.4256 77.7515C60.9555 77.5382 61.2342 77.0739 61.2135 76.7276C61.2078 76.6313 61.4853 76.4466 61.6481 76.426C62.7374 76.2896 63.5825 76.7494 63.9253 77.6472Z" fill="white"/>
<path d="M63.3876 80.8787C62.7341 81.5805 62.0851 81.9634 61.2618 82.046C61.0714 81.1 61.1276 80.998 62.0346 80.8867C62.4336 80.8386 62.843 80.8787 63.3876 80.8787Z" fill="white"/>
<path d="M75.2841 33.2491C74.7085 32.6173 74.2108 32.076 73.7224 31.5291C73.6639 31.4637 73.6215 31.3594 73.6203 31.2722C73.6123 30.4593 73.6157 29.6475 73.6157 28.7439C74.2143 28.9308 74.7268 29.0902 75.283 29.2633C75.2841 30.5361 75.2841 31.8226 75.2841 33.2491Z" fill="white"/>
<path d="M73.7074 32.8513C74.1064 33.3191 74.4802 33.7595 74.8724 34.2193C74.7107 34.3901 74.5846 34.5254 74.4619 34.655C73.5101 34.1768 73.4264 33.9831 73.7074 32.8513Z" fill="white"/>
<path d="M76.5419 37.7441C75.6796 37.7946 75.5833 36.9988 75.213 36.5356C75.1499 36.4564 75.3356 36.1801 75.4388 35.9106C75.8482 36.5906 76.1888 37.1582 76.5419 37.7441Z" fill="white"/>
<path d="M56.3312 34.6377C55.8358 34.4462 55.4127 34.2971 55.0056 34.1114C54.9242 34.0747 54.8669 33.8981 54.8657 33.7857C54.8566 32.2217 54.86 30.6588 54.86 29.1017C54.9277 29.0856 54.9689 29.0604 54.9988 29.0696C56.3312 29.4881 56.3312 29.4893 56.3312 30.8767C56.3312 32.0944 56.3312 33.3122 56.3312 34.6377Z" fill="white"/>
<path d="M79.035 79.7022C78.0133 79.6449 78.0042 79.6357 78.0042 78.7012C78.0042 77.8848 78.0042 77.0684 78.0042 76.2451C78.9387 76.4664 79.035 76.5857 79.035 77.4858C79.035 78.2254 79.035 78.9627 79.035 79.7022Z" fill="white"/>
<path d="M28.9275 80.1997C28.0446 79.7686 27.6857 79.1815 27.8049 78.2791C27.8795 77.7195 27.8187 77.1416 27.8187 76.5671C28.7486 76.699 28.9275 76.8951 28.9275 77.7493C28.9275 78.5439 28.9275 79.3397 28.9275 80.1997Z" fill="white"/>
<path d="M71.0038 78.3557C71.0038 79.2788 71.0038 80.125 71.0038 81.1375C70.6036 80.8967 70.1037 80.7729 69.9822 80.4885C69.645 79.6962 69.9913 79.0643 71.0038 78.3557Z" fill="white"/>
<path d="M71.1892 76.9594C70.7512 77.3332 70.4175 77.6198 69.999 77.9776C69.999 77.4582 69.999 77.027 69.999 76.5156C70.343 76.644 70.6904 76.7736 71.1892 76.9594Z" fill="white"/>
</svg>
