<svg width="18" height="102" viewBox="0 0 18 102" fill="none" xmlns="http://www.w3.org/2000/svg">
<path d="M0.155621 80.0353C1.39465 80.4385 2.53215 81.0713 3.71232 81.6055C6.81432 83.0093 9.88542 84.4808 12.9845 85.8921C13.4804 86.1172 13.5849 86.4027 13.5819 86.9059C13.5643 90.779 13.579 94.6536 13.5849 98.5281C13.5863 99.4832 13.5863 100.44 13.5922 101.395C13.5966 101.944 13.4524 102.155 12.8579 101.879C8.79648 99.982 4.72621 98.1029 0.65153 96.2355C0.214484 96.0354 0.0511423 95.7955 0.0540853 95.2981C0.0746866 90.4435 0.0643866 85.5874 0.068801 80.7328C0.0688009 80.4945 -0.000361898 80.2384 0.176222 80.025C0.174751 80.028 0.155621 80.0353 0.155621 80.0353Z" fill="#FF4747"/>
<path d="M10.4461 33.1891C8.60078 32.783 8.02247 31.4718 7.86648 29.8355C7.80026 29.1527 7.67665 28.4772 7.60896 27.7944C7.56187 27.3103 7.5089 26.8276 6.94236 26.7011C6.37729 26.576 5.82105 26.5981 5.37517 27.069C4.27005 28.233 4.82776 30.5815 6.32726 31.0833C7.11158 31.3453 6.67307 31.9972 6.68484 32.4475C6.69955 32.9404 6.24191 32.652 6.01235 32.6152C4.89839 32.4371 4.13761 31.7882 3.77414 30.7302C3.31502 29.3896 3.30325 28.0299 3.81682 26.6996C4.27299 25.5195 5.0323 25.0206 6.2993 25.0147C8.04012 25.0074 9.78095 25.0074 11.5218 25.0147C12.0824 25.0162 12.5268 24.9191 12.3944 24.201C12.3341 23.8787 12.5577 23.8625 12.7446 23.9052C13.0566 23.9758 13.4745 23.6741 13.657 24.2363C13.9984 25.2825 13.5834 26.1699 12.4018 26.6731C13.5363 27.8077 14.0455 29.1659 13.7762 30.7434C13.4789 32.4887 12.3473 33.2597 10.6021 33.195C10.7051 33.5276 10.942 33.4967 11.1083 33.5526C12.8432 34.1309 13.7762 35.3287 13.838 37.149C13.8968 38.8781 13.2582 40.3172 11.6572 41.0854C9.50136 42.1213 7.29405 42.0272 5.27805 40.741C2.92065 39.2356 2.78527 35.4229 4.9602 34.0132C5.24421 33.8292 5.56059 33.6835 5.88138 33.5732C7.02476 33.1803 7.09245 33.248 7.06891 34.459C7.06155 34.8078 6.97767 34.9755 6.61126 35.0653C5.62092 35.3037 5.05879 35.9674 4.96756 36.9798C4.87632 37.9878 5.20742 38.856 6.13007 39.3357C7.82528 40.2172 9.57788 40.201 11.279 39.3696C12.1266 38.9561 12.4474 38.1276 12.3973 37.2108C12.34 36.166 11.719 35.4979 10.7625 35.161C10.3151 35.0035 9.94871 34.8755 10.0708 34.2839C10.1459 33.919 9.91045 33.4731 10.4461 33.1891ZM8.64492 26.6731C8.95542 27.5928 9.0599 28.5126 9.18645 29.4264C9.2409 29.8163 9.3233 30.196 9.47929 30.558C9.76624 31.2261 10.2754 31.5219 10.9964 31.4571C11.7381 31.3909 12.2237 31.0112 12.4003 30.2784C12.8579 28.3801 11.5144 26.6731 9.56905 26.6731C9.27474 26.6731 8.98191 26.6731 8.64492 26.6731Z" fill="white"/>
<path d="M4.99405 21.5742C2.86768 19.7407 3.006 17.1375 4.97933 15.9574C4.02136 15.1377 3.37536 14.1812 3.45041 12.8495C3.53723 11.3265 4.50403 10.1595 6.02707 10.033C8.39918 9.83726 10.7816 10.0065 13.1581 9.9491C13.4701 9.94174 13.6069 10.0595 13.5819 10.3803C13.5628 10.6245 13.5584 10.8732 13.5834 11.1146C13.6261 11.5339 13.4598 11.6546 13.0434 11.6502C11.1068 11.6296 9.1688 11.637 7.23078 11.6414C5.76366 11.6443 5.06321 12.124 4.95726 13.1821C4.84542 14.296 5.65182 15.3496 6.85848 15.6248C7.21312 15.7058 7.58542 15.7337 7.95036 15.7366C9.64263 15.7484 11.3349 15.7602 13.0272 15.7308C13.4907 15.7234 13.6555 15.8588 13.5819 16.3076C13.5628 16.4268 13.5628 16.5548 13.5819 16.674C13.6688 17.2347 13.4819 17.4289 12.8756 17.4157C10.9391 17.373 9.00104 17.398 7.0645 17.3995C5.76513 17.401 5.24274 17.6879 5.01465 18.5223C4.77479 19.3978 5.27364 20.4971 6.16245 21.018C6.81581 21.4006 7.54128 21.5021 8.2844 21.5036C9.82951 21.5065 11.3746 21.5198 12.9197 21.4933C13.4039 21.4845 13.6128 21.5787 13.5937 22.1261C13.5584 23.162 13.5937 23.1605 12.5386 23.1591C9.84129 23.1576 7.14396 23.1503 4.44664 23.165C3.97427 23.1679 3.63729 23.1635 3.73294 22.5307C3.80357 22.0643 3.55341 21.4183 4.44811 21.5992C4.58496 21.6316 4.73506 21.5904 4.99405 21.5742Z" fill="white"/>
<path d="M12.6298 6.95301C14.1514 6.95301 15.5185 6.97361 16.884 6.94124C17.3432 6.93094 17.4609 7.06484 17.455 7.51513C17.4417 8.61731 17.4668 8.61878 16.3955 8.61878C14.8033 8.62025 13.2096 8.61878 11.6174 8.61878C9.21586 8.61878 6.81579 8.60848 4.41424 8.62908C3.95071 8.6335 3.64904 8.59818 3.73439 8.02429C3.80061 7.57988 3.50189 6.9118 4.40983 7.05601C4.54226 7.07661 4.68794 7.02364 4.82185 7.00598C4.82185 6.92652 4.84099 6.85736 4.81891 6.8397C3.58135 5.86849 3.22082 4.60003 3.57694 3.10789C3.95218 1.53481 5.04406 0.666597 6.53619 0.263396C8.30204 -0.213382 10.0164 -0.0367949 11.6792 0.744591C13.9998 1.83647 14.6282 5.15921 12.6298 6.95301ZM8.54043 1.74965C7.9783 1.76437 7.41912 1.77467 6.86876 1.92771C5.64003 2.26911 4.9955 3.05491 4.94693 4.28805C4.90132 5.45351 5.50318 6.30111 6.69512 6.69696C7.85469 7.08103 9.04811 7.15019 10.2401 6.9118C11.4864 6.66311 12.3458 5.65659 12.4062 4.46758C12.4635 3.32126 11.7013 2.3574 10.424 1.97628C9.81183 1.79233 9.17907 1.73641 8.54043 1.74965Z" fill="white"/>
<path d="M4.83071 44.8199C3.52252 44.8199 2.21285 44.8287 0.904653 44.8126C0.635362 44.8096 0.205672 44.9788 0.123266 44.658C0.0114295 44.2225 0.052633 43.731 0.120324 43.2763C0.151226 43.0703 0.460248 43.1585 0.645662 43.1585C4.76302 43.1556 8.88038 43.1733 12.9963 43.1394C13.7703 43.1335 13.5584 43.6044 13.5805 43.9988C13.6055 44.4226 13.6482 44.8714 12.9771 44.7537C12.8182 44.7257 12.6505 44.7493 12.2929 44.7493C13.6555 45.6925 14.0043 46.8786 13.7835 48.2898C13.5922 49.5156 12.9359 50.4059 11.8882 51.0268C11.2054 51.43 10.4579 51.6626 9.67648 51.767C8.55223 51.9171 7.44416 51.8965 6.33315 51.5728C3.20025 50.656 2.46007 46.7329 4.83071 44.8199ZM8.80092 44.8582C7.91505 44.8744 7.04243 44.9641 6.23897 45.3732C5.33986 45.8309 4.92047 46.5828 4.95432 47.5776C4.98964 48.5841 5.38989 49.4082 6.37435 49.7702C7.92241 50.3382 9.49254 50.3264 11.0141 49.6554C11.8941 49.2669 12.3826 48.5473 12.3959 47.5805C12.4077 46.6387 12.0074 45.8824 11.198 45.3644C10.4623 44.892 9.63675 44.8464 8.80092 44.8582Z" fill="white"/>
<path d="M0.155635 80.0354L0.174765 80.0266C0.162993 79.9795 0.146806 79.9324 0.137977 79.8838C-0.15633 78.2696 -0.0959979 78.1945 1.4962 78.193C2.56895 78.193 3.64318 78.193 4.86161 78.193C4.05815 77.4234 3.52251 76.6391 3.4607 75.6179C3.34445 73.7093 4.39513 72.1877 6.30518 71.5697C7.79879 71.0855 9.29388 71.1974 10.7904 71.6153C13.8895 72.482 14.9284 76.2609 12.5989 78.221C12.6343 78.246 12.6666 78.2857 12.7064 78.2946C12.9815 78.3578 13.4142 78.1489 13.5128 78.4241C13.6452 78.7934 13.6143 79.2496 13.5554 79.6528C13.4981 80.0428 13.1184 79.8779 12.883 79.8794C8.93629 79.8882 4.98963 79.8809 1.04297 79.8912C0.747192 79.8927 0.410211 79.7499 0.155635 80.0354ZM8.47129 72.997C7.95919 72.9867 7.3485 73.025 6.75842 73.2031C5.63269 73.54 5.0117 74.3391 4.9499 75.5104C4.89104 76.617 5.42815 77.469 6.53622 77.884C7.77672 78.349 9.06726 78.4417 10.3578 78.1342C11.5748 77.8458 12.3561 76.8613 12.4032 75.6694C12.4459 74.5819 11.794 73.7387 10.5903 73.2943C9.93399 73.053 9.25856 72.9941 8.47129 72.997Z" fill="white"/>
<path d="M12.3664 64.2693C13.5275 65.3935 14.0116 66.7488 13.7879 68.3336C13.5937 69.7125 12.6578 70.6543 11.3614 70.797C9.86777 70.9618 8.6361 70.2452 8.16815 68.8943C7.77967 67.773 7.78702 66.581 7.61927 65.4215C7.53539 64.8373 7.43091 64.3693 6.73635 64.2825C6.06827 64.1986 5.51497 64.359 5.16622 64.9638C4.33333 66.4059 4.93224 68.0864 6.44057 68.756C7.04831 69.0253 6.67749 69.6536 6.69367 70.1039C6.70839 70.5262 6.31402 70.2672 6.12713 70.2452C4.87633 70.0936 4.08317 69.3681 3.72264 68.1835C3.3577 66.9842 3.33563 65.7732 3.72853 64.5709C4.16704 63.2259 4.9808 62.6167 6.39201 62.6079C8.15491 62.5961 9.91928 62.5961 11.6822 62.6079C12.1487 62.6108 12.4606 62.4946 12.4165 61.9589C12.3988 61.7397 12.3135 61.466 12.6843 61.5454C13.0169 61.6161 13.4701 61.2806 13.6688 61.8648C14.0234 62.9154 13.5687 63.8204 12.3664 64.2693ZM8.67436 64.3075C8.94954 65.2743 9.07168 66.194 9.19528 67.1123C9.2512 67.5272 9.34979 67.9304 9.53374 68.3057C9.79567 68.8428 10.2327 69.0812 10.8375 69.0723C11.4482 69.062 11.9456 68.8693 12.2458 68.3189C12.9094 67.099 12.0486 64.8387 10.736 64.4032C10.0988 64.1913 9.42779 64.3252 8.67436 64.3075Z" fill="white"/>
<path d="M5.08675 59.1998C3.59609 58.0226 3.19141 56.657 3.6005 55.0324C3.90952 53.8066 4.81452 52.9531 6.07415 52.8604C8.44627 52.6868 10.8257 52.8236 13.2008 52.7868C13.4789 52.7824 13.6069 52.8825 13.5863 53.1724C13.5687 53.4167 13.5525 53.6653 13.5849 53.9067C13.6481 54.3746 13.4524 54.4835 13.008 54.4762C11.2687 54.4526 9.52785 54.4673 7.78849 54.4673C7.56776 54.4673 7.34703 54.4644 7.12777 54.4732C5.92111 54.5188 5.3016 54.9029 5.06468 55.752C4.7483 56.8807 5.1412 57.9784 6.07562 58.5803C6.73929 59.007 7.48536 59.1174 8.2535 59.1203C9.82216 59.1277 11.3923 59.1674 12.958 59.11C13.8483 59.0762 13.5245 59.6648 13.579 60.0798C13.6423 60.558 13.5702 60.8244 12.9462 60.8155C10.1047 60.7773 7.26168 60.7685 4.42015 60.8185C3.68879 60.8317 3.74913 60.4786 3.73 59.9856C3.70939 59.4397 3.76384 59.0629 4.44958 59.1954C4.58643 59.2219 4.73358 59.1998 5.08675 59.1998Z" fill="white"/>
</svg>
