<svg width="104" height="88" viewBox="0 0 104 88" fill="none" xmlns="http://www.w3.org/2000/svg">
<path d="M58.7325 8.55877C59.0689 8.87197 59.28 8.53905 59.577 8.34997C60.5688 8.76873 61.5908 9.17589 62.5907 9.63061C63.3284 9.96585 64.0407 10.3579 64.7599 10.7326C65.1879 10.9553 65.6102 11.1815 65.9419 11.5539C66.0742 11.7024 66.298 11.7731 66.4848 11.8706C66.8096 12.0399 67.1588 12.1698 67.4592 12.3717C71.0204 14.7613 74.1106 17.6543 76.709 21.067C76.9294 21.357 77.1011 21.683 77.2937 21.9939C77.3447 22.0751 77.3772 22.1737 77.4422 22.2398C78.5407 23.3592 79.2193 24.7582 79.9849 26.0933C80.8978 27.6872 81.6622 29.3576 82.306 31.0802C82.4673 31.5105 82.5682 31.9652 82.6807 32.413C82.7747 32.7865 82.8559 33.1635 82.9243 33.5428C82.958 33.7296 82.9951 33.9349 82.951 34.1124C82.8478 34.5312 82.9209 34.9163 83.0693 35.3026C83.1865 35.6088 83.2909 35.922 83.4208 36.2224C83.48 36.3582 83.56 36.5322 83.6783 36.5867C84.0101 36.7398 84.1017 37.0275 84.1667 37.3291C84.5472 39.0876 84.8267 40.8624 84.9566 42.657C85.0402 43.8123 85.075 44.9712 85.1318 46.1416C84.6887 46.5337 84.3059 46.9478 83.8523 47.2598C83.0299 47.8271 82.1077 47.8572 81.1553 47.6299C80.9048 47.5696 80.6356 47.5928 80.3955 47.5788C80.3572 47.5162 80.3213 47.4837 80.3213 47.4524C80.3283 46.1393 80.4152 44.8192 80.3178 43.5142C80.2586 42.7184 80.3526 41.9343 80.2946 41.1455C80.2366 40.359 80.3561 39.5609 80.0939 38.7884C80.0348 38.6155 80.0858 38.4067 80.0858 38.1422C80.0104 38.2756 79.9698 38.3452 79.9106 38.4508C79.6508 38.1979 79.4652 37.9323 79.3596 37.5924C78.9212 36.1737 78.4792 34.7562 78.0152 33.3456C77.8342 32.7958 77.5953 32.2657 77.3795 31.7286C77.2728 31.4641 77.1568 31.2217 77.1823 30.9062C77.1974 30.7124 77.0269 30.4793 76.8877 30.3053C76.6766 30.0408 76.5269 29.7705 76.4794 29.4283C76.4005 28.8576 76.013 28.295 75.4945 27.896C75.3936 27.8182 75.3321 27.6872 75.2567 27.577C74.4853 26.4425 73.6629 25.3393 72.9669 24.1608C72.6131 23.5622 72.1236 23.0854 71.7651 22.5008C71.6178 22.2607 71.3904 22.0623 71.1805 21.8674C70.6875 21.4081 70.1678 20.9766 69.6852 20.5068C69.3558 20.1854 69.3187 19.7446 69.2375 19.2574C68.734 18.9419 68.1494 18.5742 67.5636 18.2076C67.4488 18.1357 67.3374 18.0499 67.2133 18.0058C66.2864 17.681 65.5359 17.0616 64.732 16.5314C62.7728 15.238 60.6929 14.179 58.497 13.3507C57.9159 13.1315 57.3533 12.9088 56.8661 12.5016C56.4752 12.1745 56.2756 12.2209 55.8778 12.5874C55.8511 12.6118 55.8093 12.6199 55.7038 12.6675C55.6063 12.5758 55.4671 12.4796 55.3743 12.3508C55.2328 12.1536 55.0507 12.1014 54.8245 12.1037C54.6168 12.106 54.4034 12.1095 54.2027 12.0666C51.3886 11.4622 48.5454 11.2534 45.6721 11.4077C44.5538 11.468 43.4321 11.4657 42.3255 11.6931C42.112 11.7372 41.865 11.6188 41.5483 11.5585C41.155 12.0538 40.4846 12.1756 39.828 12.3462C37.537 12.9378 35.3365 13.773 33.2438 14.8796C32.9353 15.042 32.6418 15.1012 32.3019 15.0443C31.962 14.9875 31.614 14.9724 31.2649 14.9376C31.2312 14.8216 31.2034 14.7253 31.1756 14.629C31.1466 14.6256 31.1176 14.6232 31.0886 14.6198C31.0329 14.9376 30.9644 15.2531 30.9262 15.5733C30.867 16.0605 30.6547 16.398 30.2186 16.6811C27.706 18.312 25.5008 20.3026 23.523 22.5495C23.3769 22.7154 23.1832 22.879 22.979 22.9497C21.6473 23.4137 20.3098 23.8568 18.9689 24.2953C18.549 24.4322 18.1174 24.5308 17.7196 24.6387C17.3147 24.3162 16.9551 24.0297 16.5967 23.7443L16.6164 23.7582C16.6732 23.6364 16.7138 23.5042 16.7869 23.3928C17.7544 21.9231 18.8053 20.516 19.9688 19.1948C20.0187 19.138 20.0836 19.0939 20.1521 19.0347C20.3388 19.0254 20.5302 19.015 20.7332 19.0046C21.0882 18.7064 21.4768 18.4663 22.0185 18.5348C22.0336 18.1322 22.058 17.7332 22.0591 17.333C22.0591 17.0395 22.1693 16.8191 22.3909 16.63C23.3862 15.7751 24.3698 14.9051 25.3721 14.056C25.7537 13.7335 26.1539 13.4261 26.5773 13.1628C26.9137 12.954 27.3499 12.8844 27.6468 12.6385C27.9345 12.4007 28.1236 12.0504 28.4762 11.8555C29.5063 11.2859 30.4981 10.6375 31.5618 10.1398C32.1929 9.84521 32.7926 9.48677 33.4387 9.22577C34.0837 8.96593 34.724 8.69565 35.3771 8.45669C36.0476 8.21193 36.7238 7.98225 37.4071 7.77693C38.0718 7.57741 38.7446 7.39993 39.4208 7.23985C41.4555 6.75845 43.518 6.47077 45.6048 6.34317C46.3054 6.30025 46.9504 6.39189 47.4689 6.78629C47.9155 6.69465 48.3076 6.61577 48.6985 6.53573C48.6742 6.50789 48.6254 6.45337 48.5732 6.39537C49.7889 6.15873 54.9474 6.86633 55.5077 7.29437C55.8383 7.33265 56.0854 7.33381 56.3174 7.39413C57.6108 7.72589 57.2477 7.51013 57.8846 8.60169C57.9101 8.50773 57.9263 8.44625 57.953 8.34301C58.2221 8.42073 58.4901 8.49961 58.7592 8.57733L58.7325 8.55877Z" fill="white"/>
<path d="M103.453 48.0149C102.786 49.0751 102.183 50.0356 101.579 50.9961C73.3091 50.9961 45.0666 50.9961 16.7046 50.9961C17.5525 49.8755 18.4736 48.9556 19.4596 48.0149C47.3889 48.0149 75.3612 48.0149 103.453 48.0149Z" fill="white"/>
<path d="M27.4078 73.6614C27.6108 73.7658 27.8359 73.8412 28.0122 73.9792C29.4436 75.1044 30.9574 76.1032 32.5431 76.9975C32.8053 77.1449 33.0512 77.3537 33.2426 77.5845C33.7971 78.2515 34.5198 78.7004 35.239 79.1447C35.4652 79.2839 35.8051 79.3372 36.0719 79.2966C37.0729 79.1424 38.0044 79.3338 38.9591 79.6365C41.01 80.285 43.127 80.6283 45.2707 80.8C45.3867 80.8093 45.5317 80.7803 45.6117 80.8395C46.0096 81.1306 46.3935 80.9984 46.8169 80.8998C47.0965 80.8348 47.419 80.9531 47.7229 80.9845C47.9862 81.0123 48.2867 81.126 48.5059 81.039C49.1567 80.7826 49.8364 80.8104 50.5046 80.7466C53.6064 80.4508 56.5876 79.6864 59.4656 78.5032C59.6025 78.4475 59.7405 78.3942 59.9238 78.4266C59.7185 78.5508 59.5131 78.6749 59.3078 78.799C59.3159 78.821 59.3241 78.8431 59.3322 78.8651C59.5468 78.7746 59.7695 78.6981 59.9748 78.5914C60.5745 78.2793 61.1673 77.9568 61.7635 77.6367C61.8482 77.5914 61.9352 77.5462 62.0153 77.4928C63.1103 76.7725 64.2042 76.0498 65.3004 75.3306C65.4616 75.225 65.6217 75.1079 65.7992 75.0418C66.4499 74.8028 67.1088 74.5894 67.7607 74.3527C68.0113 74.2622 68.2514 74.1428 68.4915 74.0256C68.7665 73.8922 69.0356 73.7472 69.3244 73.5976C70.1469 74.1961 70.9368 74.7715 71.7268 75.3457C71.634 75.8294 71.5621 76.247 71.4693 76.6588C71.4461 76.7632 71.3707 76.8722 71.2871 76.9418C71.1259 77.0764 70.9589 77.2342 70.7663 77.2945C69.7084 77.6297 68.9312 78.3257 68.2305 79.1516C67.9487 79.4846 67.5879 79.7606 67.2306 80.0182C66.7921 80.3325 66.3154 80.5959 65.8618 80.8893C65.5475 81.0923 65.2261 81.2466 64.8364 81.2269C64.6856 81.2188 64.5174 81.2397 64.3817 81.3011C63.7344 81.5958 63.0024 81.7953 62.4735 82.2373C61.158 83.3381 59.6152 83.9007 58.0191 84.3716C57.0748 84.65 56.119 84.8867 55.1643 85.128C54.8534 85.2069 54.5518 85.2521 54.205 85.1477C53.944 85.0688 53.596 85.1836 53.3129 85.2857C52.4499 85.5954 51.5799 85.8089 50.6531 85.7219C50.5034 85.708 50.3457 85.7439 50.196 85.7776C49.2819 85.9817 48.3563 85.9458 47.4155 85.9481C47.1058 85.3205 46.5989 85.2915 46.0258 85.4505C44.7893 85.7927 43.5423 85.7799 42.2929 85.5433C41.1538 85.3275 40.017 85.1024 38.8814 84.8716C38.6181 84.8182 38.3861 84.7173 38.1807 84.5039C38.0033 84.3194 37.7399 84.1768 37.4894 84.1106C36.9129 83.9598 36.3201 83.8705 35.7355 83.7499C35.3782 83.6756 35.0232 83.5945 34.6694 83.5051C34.5789 83.4819 34.4548 83.4437 34.4177 83.3741C34.1938 82.9565 33.7797 82.9135 33.3888 82.8161C32.078 82.4901 30.882 81.8823 29.7754 81.1457C28.7186 80.4416 27.6155 79.8117 26.5726 79.089C25.9068 78.6273 25.2792 78.11 24.6343 77.6158C24.589 77.581 24.5229 77.5404 24.5148 77.494C24.3976 76.8618 23.7898 76.4396 23.7817 75.7586C23.7793 75.5904 23.7086 75.4234 23.6587 75.21C24.5183 74.5673 25.379 73.9235 26.2478 73.2739C26.6109 73.5709 26.9635 73.7959 27.4241 73.6428L27.4078 73.6614Z" fill="white"/>
<path d="M16.8948 26.3113C17.1628 26.3113 17.3542 26.3113 17.5456 26.3113C19.4201 26.3113 21.2947 26.302 23.1692 26.3194C23.508 26.3229 23.8594 26.3948 24.1796 26.5062C24.9812 26.7846 25.77 27.1024 26.5622 27.4087C26.7212 27.4702 26.8754 27.5456 27.0726 27.6337C26.6121 31.9048 26.1539 36.1597 25.6946 40.4204C25.1714 40.6304 24.6912 40.8229 24.1692 41.0329C24.5322 43.1777 24.893 45.3005 25.2654 47.4987C23.8362 47.5683 22.4767 47.5196 21.0592 47.5335C20.6834 45.3632 20.3156 43.2415 19.9433 41.0874C19.8145 41.0781 19.7078 41.0712 19.5999 41.063C19.5674 41.1361 19.5303 41.186 19.5245 41.2382C19.3726 42.5815 19.2229 43.9248 19.0744 45.2692C19.0048 45.9026 18.9503 46.5382 18.8587 47.1693C18.8297 47.3665 18.745 47.5857 18.6139 47.733C17.1674 49.3686 15.7058 50.9915 14.2477 52.6155C14.2245 52.641 14.1792 52.6468 14.1456 52.6607C14.1305 52.6549 14.1108 52.6514 14.1004 52.641C14.0876 52.6282 14.0725 52.6085 14.0725 52.5923C14.076 52.4763 14.0772 52.3603 14.0899 52.2454C15.0214 43.6278 15.954 35.0102 16.8948 26.3113ZM22.5034 30.8063C21.8364 30.7715 21.2483 30.7576 20.6265 30.8179C20.4224 32.74 20.224 34.6088 20.021 36.5263C20.6915 36.5228 21.2796 36.5796 21.8932 36.4834C22.0962 34.5902 22.2958 32.7331 22.5034 30.8063Z" fill="white"/>
<path d="M12.9091 46.9373C12.0855 47.2877 11.2979 47.5695 10.3861 47.5498C8.01046 47.4976 5.63246 47.5336 3.25562 47.5313C3.04914 47.5313 2.8415 47.5139 2.58282 47.5023C3.29738 40.845 4.00498 34.2469 4.71954 27.5874C3.70686 27.1965 2.73014 26.8183 1.75342 26.4413C1.76038 26.4088 1.76618 26.3775 1.77314 26.345C1.8961 26.3334 2.01906 26.3114 2.14202 26.3102C5.17658 26.3091 8.20998 26.3091 11.2445 26.3137C11.4533 26.3137 11.6761 26.3253 11.8686 26.3961C12.8651 26.7626 13.8534 27.1501 14.844 27.5317C14.8951 27.5514 14.9368 27.5943 15.0424 27.6686C14.5865 31.8968 14.1271 36.1528 13.6678 40.4158C13.2513 40.5887 12.8697 40.7476 12.3976 40.9448C12.8256 41.1246 13.1562 41.2638 13.4729 41.396C13.6063 41.8983 13.0286 46.2727 12.9091 46.9373ZM9.86414 36.5031C10.0718 34.581 10.2713 32.7227 10.4766 30.818C9.82818 30.818 9.24122 30.818 8.61134 30.818C8.40486 32.7215 8.17054 34.588 8.0151 36.5031C8.6647 36.5031 9.23426 36.5031 9.86414 36.5031ZM9.1577 43.0119C9.22846 42.3426 9.29342 41.7208 9.3607 41.0817C8.70994 41.0817 8.12298 41.0817 7.50818 41.0817C7.45714 41.7417 7.30518 42.3542 7.34462 43.0119C7.96522 43.0119 8.5197 43.0119 9.1577 43.0119Z" fill="white"/>
<path d="M26.0148 52.8209C24.994 52.4265 24.0277 52.053 23.0603 51.6783C23.0615 51.6493 23.0626 51.6203 23.0626 51.5925C23.1589 51.5762 23.254 51.5449 23.3503 51.5449C26.386 51.5414 29.4206 51.5356 32.4563 51.5484C32.7753 51.5495 33.1082 51.6215 33.411 51.727C34.2137 52.0077 35.0025 52.3233 35.7971 52.6272C35.9734 52.6945 36.1451 52.7745 36.3353 52.8557C35.6405 59.3076 34.9491 65.7201 34.2578 72.1384C33.4783 72.4632 32.7579 72.7718 31.903 72.7578C29.4681 72.7172 27.031 72.7462 24.595 72.7474C24.3862 72.7474 24.1785 72.7474 23.8885 72.7474C24.0962 70.4784 24.3491 68.2802 24.5927 66.0809C24.8351 63.8919 25.0601 61.7007 25.2945 59.5095C25.5311 57.302 25.7701 55.0945 26.0148 52.8209ZM30.4495 68.2396C30.8903 64.153 31.3253 60.1173 31.7626 56.0585C31.1003 56.0585 30.5133 56.0585 29.8904 56.0585C29.4519 60.1266 29.0169 64.1622 28.5784 68.2396C29.2187 68.2396 29.7895 68.2396 30.4495 68.2396Z" fill="white"/>
<path d="M46.9387 26.3368C48.3771 26.3368 49.7239 26.3368 51.1483 26.3368C50.8143 29.7252 50.428 33.0741 50.0858 36.4265C50.486 36.5611 51.2945 36.5796 51.9499 36.4613C52.3095 33.1217 52.6714 29.7658 53.031 26.4262C53.4683 26.2881 56.2349 26.2487 57.1455 26.3566C57.243 26.7185 56.605 32.9198 56.1236 36.93C55.7037 40.4343 55.3673 43.9491 54.9903 47.4929C53.5635 47.4929 52.2039 47.4929 50.7713 47.4929C50.9975 45.3504 51.2191 43.2473 51.4476 41.0723C50.8085 41.0224 50.225 41.0248 49.5847 41.0781C49.3492 43.2206 49.116 45.3434 48.8794 47.4964C47.4642 47.4964 46.1035 47.4964 44.6616 47.4964C45.4237 40.432 46.1777 33.4128 46.9387 26.3368Z" fill="white"/>
<path d="M80.7714 72.7138C81.0057 70.5295 81.2307 68.4252 81.4604 66.2827C80.8294 66.2827 80.2563 66.2827 79.616 66.2827C79.3098 68.4136 79.1648 70.5643 78.8701 72.7636C77.4735 72.7636 76.1186 72.7636 74.7811 72.7636C74.6373 72.3228 76.8471 52.5379 76.9805 51.6447C77.4201 51.5043 80.5545 51.4869 81.1635 51.6354C80.805 54.982 80.4443 58.3379 80.08 61.739C80.7018 61.739 81.2725 61.739 81.9233 61.739C82.1703 60.0616 82.3061 58.3541 82.5021 56.6559C82.697 54.9716 82.8652 53.2849 83.0508 51.5426C84.4741 51.5333 85.836 51.524 87.2744 51.5496C86.5111 58.643 85.7559 65.6644 84.9973 72.7138C83.5809 72.7138 82.2179 72.7138 80.7714 72.7138Z" fill="white"/>
<path d="M73.9889 63.0579C73.649 66.089 73.3126 69.0783 72.9704 72.1257C72.3927 72.3774 71.8243 72.73 71.155 72.7335C68.4302 72.7497 65.7042 72.7404 62.9793 72.7404C62.8842 72.7404 62.7902 72.7254 62.6986 72.7184C62.6162 72.2567 64.5523 53.7884 64.7889 52.8058C65.297 52.6086 65.8468 52.4277 66.37 52.1852C67.5161 51.654 68.7039 51.4672 69.9683 51.5194C71.4729 51.582 72.9832 51.5333 74.49 51.5356C74.6977 51.5356 74.9053 51.553 75.1744 51.5646C74.9529 53.7048 74.7371 55.7928 74.5225 57.8623C74.0944 58.0084 71.1469 58.0432 70.3708 57.9203C70.2328 57.3206 70.517 56.7174 70.4335 56.1153C70.0008 55.9982 69.2619 55.9866 68.6076 56.0956C68.175 60.1046 67.74 64.1309 67.3073 68.1445C67.7365 68.2988 68.4638 68.3197 69.1563 68.2037C69.1876 67.9984 69.2271 67.7745 69.2538 67.5494C69.3442 66.7827 69.422 66.0136 69.5194 65.2468C69.5739 64.8153 69.5264 64.407 69.3837 63.9952C69.1436 63.3038 68.9313 62.602 68.6923 61.8596C68.8478 61.8283 68.9672 61.7889 69.0902 61.7808C70.0669 61.71 71.0054 61.8248 71.9102 62.2482C72.554 62.5498 73.236 62.7691 73.9889 63.0579Z" fill="white"/>
<path d="M42.9564 46.9247C42.1769 47.2274 41.4623 47.5603 40.6074 47.5464C38.1911 47.507 35.7737 47.5325 33.3562 47.5337C33.13 47.5337 32.9027 47.5337 32.6892 47.5337C32.6092 47.0209 34.493 29.0374 34.7587 27.6211C34.8561 27.5712 34.9686 27.4993 35.0904 27.4517C35.9546 27.1165 36.8188 26.7778 37.6888 26.4599C37.9197 26.3752 38.1749 26.3196 38.4185 26.3184C40.4868 26.308 42.5562 26.3114 44.6256 26.3138C44.7764 26.3138 44.9272 26.3358 45.0699 26.3462C45.1604 26.7824 44.6233 32.0848 44.4296 32.6949C43.0759 32.6949 41.7152 32.6949 40.2988 32.6949C40.3557 32.065 40.4102 31.4781 40.4624 30.8946C40.0668 30.7566 39.4323 30.7334 38.6134 30.8331C38.1366 34.8514 37.755 38.8998 37.2944 42.9342C37.7283 43.063 38.4347 43.0804 39.1481 42.9725C39.2119 42.483 39.2815 41.9738 39.3442 41.4622C39.4056 40.9634 39.4393 40.4611 39.5228 39.967C39.5831 39.6108 39.5506 39.2814 39.4335 38.9438C39.2258 38.3418 39.0321 37.734 38.8372 37.1273C38.785 36.966 38.7479 36.799 38.705 36.6354C39.1713 36.5044 40.4137 36.4823 40.7837 36.6192C41.7802 36.9869 42.7731 37.3686 43.7649 37.7467C43.8334 37.7734 43.8937 37.8244 43.9807 37.8778C43.6431 40.8752 43.3044 43.8657 42.9564 46.9247Z" fill="white"/>
<path d="M38.176 51.5728C41.6386 51.5728 45.0316 51.5728 48.4965 51.5728C48.2738 53.7072 48.0546 55.7952 47.8388 57.8681C47.4026 58.0084 44.5015 58.0444 43.6848 57.9249C43.5503 57.3229 43.8472 56.7208 43.7359 56.0422C43.1582 56.0144 42.5724 56.0086 41.9332 56.0538C41.7256 57.9493 41.5214 59.8215 41.3092 61.7692C41.9901 61.7692 42.5991 61.7692 43.2661 61.7692C43.1953 63.3004 42.9111 64.733 42.7626 66.2317C42.127 66.2317 41.5342 66.2317 40.8881 66.2317C40.7257 66.9056 40.677 67.546 40.6398 68.2327C41.2512 68.2327 41.8219 68.2327 42.4529 68.2327C42.5179 67.8487 42.5852 67.4566 42.6513 67.0692C43.0341 66.9602 45.9167 66.93 46.818 67.0321C46.695 68.7326 46.4549 70.4228 46.2972 72.1396C45.5374 72.4412 44.8414 72.766 44.0062 72.7544C41.5319 72.7184 39.0564 72.7416 36.5822 72.7404C36.3757 72.7404 36.1692 72.7253 35.9036 72.7149C36.6645 65.6354 37.4197 58.614 38.176 51.5728Z" fill="white"/>
<path d="M91.1416 56.0188C90.2275 56.0188 89.4225 56.0188 88.5432 56.0188C88.6198 54.5074 88.8529 53.069 88.9759 51.641C89.4666 51.5111 100.502 51.4879 101.192 51.6166C100.122 53.1107 99.0099 54.5294 97.9009 56.0165C97.0924 56.0165 96.2677 56.0165 95.3721 56.0165C94.7689 61.6042 94.1704 67.1444 93.5695 72.7124C92.1566 72.7124 90.7948 72.7124 89.3529 72.7124C89.9387 67.1514 90.543 61.6332 91.1416 56.0188Z" fill="white"/>
<path d="M71.2512 26.3265C70.0958 27.8635 69.0205 29.2926 67.8976 30.7855C67.0891 30.7855 66.2481 30.7855 65.3723 30.7855C65.0603 33.6194 64.7529 36.379 64.4548 39.141C64.1566 41.9029 63.8701 44.6649 63.5801 47.4071C63.1115 47.5637 59.9516 47.5823 59.3508 47.4315C59.9412 41.9192 60.534 36.3976 61.1337 30.7948C60.2579 30.7843 59.4215 30.7751 58.5098 30.7646C58.6675 29.2705 58.8172 27.8403 58.9749 26.3381C59.8032 26.2835 60.6082 26.3183 61.4109 26.3125C62.2229 26.3056 63.0338 26.3114 63.8458 26.3114C64.6578 26.3114 65.4686 26.3114 66.2806 26.3114C67.0926 26.3114 67.9034 26.3091 68.7154 26.3125C69.5158 26.3149 70.3174 26.2986 71.2512 26.3265Z" fill="white"/>
<path d="M29.7997 19.4478C29.9644 19.7308 30.0734 19.9083 30.1743 20.0916C31.107 21.7828 32.0292 23.4811 32.9757 25.1642C33.1857 25.5378 33.2623 25.902 33.2124 26.3219C32.9943 28.1826 32.789 30.0455 32.5813 31.9073C32.2473 34.9024 31.9143 37.8964 31.5837 40.8915C31.3506 43.0027 31.1221 45.1151 30.8889 47.2274C30.8808 47.3017 30.8495 47.3724 30.8309 47.4362C30.3947 47.5569 27.3741 47.5789 26.7338 47.4722C26.6549 46.9049 29.4992 20.7783 29.7997 19.4478Z" fill="white"/>
<path d="M52.6287 68.2836C53.5857 68.2836 54.4626 68.2836 55.4022 68.2836C55.3048 69.7986 55.1076 71.2242 54.9533 72.6394C54.4823 72.7694 48.5675 72.7833 47.9446 72.6534C48.6777 65.6423 49.4758 58.6313 50.2715 51.5483C51.6682 51.5228 53.0289 51.5344 54.4638 51.5402C54.3211 53.4519 54.0589 55.28 53.8699 57.114C53.6773 58.9769 53.465 60.8376 53.2574 62.6994C53.0555 64.5345 52.8456 66.3685 52.6287 68.2836Z" fill="white"/>
<path d="M56.1099 77.9568C57.046 69.1141 57.9983 60.3561 58.9472 51.5448C60.3717 51.5285 61.7335 51.5274 63.1522 51.5436C63.0954 52.1584 63.0536 52.6943 62.9968 53.2279C62.6581 56.397 62.3147 59.565 61.9737 62.733C61.628 65.9392 61.2846 69.1466 60.9273 72.3528C60.903 72.5674 60.8079 72.8099 60.6663 72.97C59.2337 74.5916 57.7849 76.1994 56.3384 77.8095C56.3036 77.8478 56.2491 77.8675 56.1099 77.9568Z" fill="white"/>
<path d="M21.5825 71.5189C21.5906 72.3448 22.1207 73.1023 21.6359 73.9607C20.8598 73.4932 19.9678 73.2612 19.4353 72.4446C19.1198 71.9608 18.6605 71.5653 18.3786 71.0665C17.9459 70.2997 17.3091 69.6524 17.0655 68.7732C16.9541 68.3718 16.7557 68.2488 16.3799 68.2094C15.5145 66.851 14.735 65.4289 14.0471 63.9568C13.9996 63.8548 13.9474 63.733 13.959 63.6274C14.0193 63.0915 13.6899 62.7191 13.4358 62.3131C13.2839 62.0707 13.1133 61.8317 13.0078 61.5684C12.7224 60.8504 12.4695 60.1207 12.1993 59.3957C12.1088 59.1544 12.0763 58.9248 12.1656 58.6661C12.3269 58.2021 12.2317 57.7659 11.9963 57.3321C11.8431 57.0502 11.777 56.7196 11.6912 56.4052C11.6715 56.331 11.7329 56.2359 11.7666 56.1118C11.197 55.4946 10.8711 54.736 10.762 53.8637C10.6518 52.9879 10.4859 52.119 10.3293 51.1562C10.5254 51.2328 10.6333 51.2549 10.7179 51.3105C11.4441 51.7885 12.1726 52.2641 12.8871 52.7605C13.0727 52.8893 13.2224 53.076 13.3709 53.2512C13.5066 53.4113 13.6179 53.5934 13.8117 53.7315C13.7629 53.5888 13.7131 53.4461 13.6435 53.2431C14.2861 53.511 14.8661 53.7558 15.4496 53.9925C15.6526 54.0748 15.728 54.2349 15.7848 54.4298C16.1723 55.7649 16.5574 57.1001 16.9669 58.4283C17.0794 58.7937 16.9808 59.122 16.8764 59.4444C16.7302 59.8899 16.7349 60.3133 16.8996 60.7715C16.9495 60.6474 16.9889 60.5476 17.0399 60.4177C17.1153 60.4478 17.1803 60.4734 17.2801 60.5128C17.3369 60.3922 17.403 60.2483 17.4877 60.065C17.555 60.1265 17.6211 60.1625 17.6478 60.217C18.1976 61.3457 18.737 62.479 19.2892 63.6054C19.6279 64.2979 19.9724 64.9881 20.3401 65.6655C20.4643 65.8952 20.6638 66.0831 20.8343 66.2873C20.9573 66.4334 21.0988 66.5645 21.2136 66.7153C21.7762 67.4531 22.3029 68.2198 22.9026 68.9263C23.2065 69.2847 23.3028 69.6385 23.1555 70.0399C22.8318 70.9203 22.4699 71.7857 22.079 72.7705C21.8864 72.2856 21.7345 71.9017 21.5825 71.5189Z" fill="white"/>
<path d="M0.56665 51.0263C1.37517 50.0624 2.05377 49.1576 2.42149 48.0939C2.92725 47.9697 13.2257 47.9674 13.7733 48.0985C13.6828 49.0404 13.5911 49.9916 13.5007 50.9359C13.3452 50.995 13.2397 51.0345 13.0947 51.089C13.1364 51.2607 13.1782 51.437 13.2443 51.7084C13.0506 51.5855 12.9009 51.5182 12.7861 51.4138C12.4532 51.1087 12.075 51.0171 11.6249 51.0194C8.16929 51.0345 4.71365 51.0275 1.25801 51.0275C1.07009 51.0263 0.88217 51.0263 0.56665 51.0263Z" fill="white"/>
<path d="M63.0082 75.16C62.6579 76.4639 61.7647 77.0879 60.9771 76.5265C61.0281 76.4209 61.0582 76.2806 61.1429 76.1994C61.5594 75.8038 61.9862 75.421 62.4166 75.0417C62.6556 74.8341 62.7205 74.8526 63.0082 75.16Z" fill="white"/>
<path d="M69.1657 20.7666C69.2202 20.8293 69.3525 20.9221 69.3989 21.0462C69.5508 21.4568 69.6819 21.8756 69.8014 22.2967C69.8582 22.4997 69.6715 22.7665 69.4615 22.8349C69.2585 22.901 69.0799 22.7932 69.0045 22.5217C68.892 22.1169 68.7864 21.7097 68.7064 21.2968C68.6484 20.9975 68.8328 20.7632 69.1657 20.7666Z" fill="white"/>
<path d="M73.5852 74.7923C73.4518 74.9083 73.3555 74.9919 73.2291 75.1021C72.8417 74.8306 72.4705 74.5696 72.0598 74.2819C72.4183 73.9142 72.7512 73.5732 73.1386 73.1753C73.2917 73.7298 73.4321 74.2379 73.5852 74.7923Z" fill="white"/>
<path d="M58.0946 5.54614C58.6073 5.9185 58.7918 6.57506 59.3045 6.92074C59.0481 7.31398 58.9565 7.36502 58.6943 7.21306C58.2628 6.9625 57.9635 6.58782 57.7988 6.11686C57.7222 5.89994 57.7431 5.6923 58.0946 5.54614Z" fill="white"/>
<path d="M38.6401 77.1193C38.2782 77.4534 38.0183 77.494 37.7654 77.2342C37.5532 77.0149 37.3734 76.7574 37.2156 76.4964C37.1611 76.4059 37.1704 76.2157 37.2318 76.1333C37.2968 76.0475 37.4778 75.9756 37.5775 76.0034C37.7527 76.0533 37.9429 76.1519 38.0589 76.2888C38.2805 76.5463 38.4533 76.8456 38.6401 77.1193Z" fill="white"/>
<path d="M64.3864 83.4738C64.1277 83.7719 63.9027 84.0503 63.6568 84.3102C63.4352 84.5445 63.129 84.4587 63.0385 84.1513C62.9492 83.8485 63.1684 83.4471 63.5257 83.2604C63.8691 83.0817 64.0837 83.127 64.3864 83.4738Z" fill="white"/>
<path d="M53.8779 87.231C53.8501 87.3748 53.8477 87.5546 53.7805 87.7065C53.6529 87.9977 53.3118 88.0105 53.139 87.7471C52.9743 87.4954 53.0346 86.7681 53.2399 86.5373C53.4255 86.3285 53.6888 86.3679 53.7747 86.6359C53.8327 86.8157 53.8419 87.0117 53.8779 87.231Z" fill="white"/>
<path d="M83.3024 33.0659C83.6562 33.8791 83.8499 34.7375 84.0785 35.6504C83.314 35.2711 83.0403 34.3396 83.3024 33.0659Z" fill="white"/>
<path d="M12.2118 63.2249C12.1062 63.3397 11.9856 63.4685 11.88 63.5833C11.3708 63.3339 11.0587 63.0219 10.8372 62.5718C10.901 62.3085 11.0715 62.2307 11.3116 62.3317C11.7072 62.4987 12.061 62.7191 12.2118 63.2249Z" fill="white"/>
<path d="M16.5933 23.7419C16.8288 24.0377 17.0631 24.3324 17.3403 24.6815C16.8021 24.8463 16.3172 24.9959 15.8242 25.1467C15.8729 24.772 16.1722 24.25 16.613 23.7559L16.5933 23.7419Z" fill="white"/>
<path d="M83.4277 47.7446C83.7688 47.5683 84.068 47.4627 84.3035 47.2783C84.5367 47.095 84.7072 46.8317 84.9752 46.522C85.1364 46.9523 85.0749 47.2447 85.0506 47.5277C84.3789 47.9302 83.8999 48.0091 83.4277 47.7446Z" fill="white"/>
<path d="M35.0188 77.6113C35.7287 77.9094 36.3621 78.1751 37.0314 78.4569C36.0408 78.8838 35.2566 78.5671 35.0188 77.6113Z" fill="white"/>
<path d="M32.4552 7.99146C32.6779 8.07846 32.8055 8.22577 32.722 8.40673C32.5236 8.83593 32.2789 9.24193 31.758 9.49829C31.7058 9.31849 31.6304 9.1967 31.6455 9.08766C31.6942 8.74662 32.0956 8.22346 32.4552 7.99146Z" fill="white"/>
<path d="M31.2335 16.5511C31.2045 16.4792 31.1755 16.4432 31.1802 16.4119C31.3542 15.3273 31.5525 15.2264 32.5989 15.7124C32.5153 15.7786 32.4469 15.8435 32.368 15.8911C31.9922 16.1126 31.614 16.3296 31.2335 16.5511Z" fill="white"/>
<path d="M22.2539 75.2646C22.5126 75.0558 22.7307 74.8806 23.0241 74.6428C23.1065 75.0303 23.1343 75.3562 23.2503 75.6451C23.3594 75.9165 23.5647 76.1497 23.6842 76.4362C23.1413 76.145 22.7179 75.7309 22.2539 75.2646Z" fill="white"/>
<path d="M23.9105 23.3557C23.4244 23.7907 23.023 24.1492 22.6159 24.5134C22.3688 24.1701 22.3653 24.0564 22.559 23.771C22.8235 23.3813 23.2469 23.2212 23.9105 23.3557Z" fill="white"/>
<path d="M21.1555 78.2711C20.9328 78.2004 20.7229 78.1598 20.5407 78.067C20.4201 78.0055 20.2473 77.8582 20.2589 77.7689C20.2751 77.6308 20.4015 77.458 20.5291 77.3896C20.8505 77.219 21.2971 77.4197 21.4305 77.7596C21.5291 78.0101 21.4038 78.1551 21.1555 78.2711Z" fill="white"/>
<path d="M79.8956 42.2695C79.732 41.2499 79.5673 40.2302 79.384 39.0876C79.7285 39.5145 79.9617 39.8695 79.9814 40.2975C80.0116 40.9494 79.9895 41.6037 79.9895 42.2568C79.9582 42.2614 79.9269 42.266 79.8956 42.2695Z" fill="white"/>
<path d="M78.6127 40.0725C78.3007 39.982 78.1255 39.7349 78.0362 39.4368C78.006 39.3359 78.064 39.1607 78.1452 39.0899C78.2253 39.0192 78.3981 38.9902 78.5037 39.025C78.7763 39.1143 78.8238 39.3799 78.8772 39.6235C78.9224 39.837 78.8575 39.9982 78.6127 40.0725Z" fill="white"/>
<path d="M56.2629 14.1281C56.575 13.8879 56.7722 14.0051 56.9427 14.1721C57.1202 14.3473 57.2837 14.5457 57.2408 14.8217C57.2083 15.0329 56.9392 15.1465 56.8081 14.9888C56.5959 14.7336 56.3755 14.4714 56.2629 14.1281Z" fill="white"/>
<path d="M41.5586 13.3112C41.387 12.8785 41.503 12.4992 41.8336 12.2915C42.0319 12.1663 42.1062 12.1848 42.3602 12.4354C42.1862 12.7857 42.0018 13.1291 41.5586 13.3112Z" fill="white"/>
<path d="M20.1917 17.8528C20.6139 17.3934 20.9886 16.977 21.4537 16.5652C21.4282 17.492 21.2101 17.7124 20.1917 17.8528Z" fill="white"/>
<path d="M10.7875 55.8938C10.8304 55.9518 10.907 56.0063 10.9116 56.0666C10.9627 56.6849 11.4151 57.1396 11.5693 57.7104C11.6192 57.8936 11.5485 58.1082 11.5334 58.3089C11.4847 58.3124 11.4359 58.317 11.3861 58.3205C11.1564 57.5236 10.9267 56.7255 10.697 55.9286C10.7272 55.917 10.7573 55.9054 10.7875 55.8938Z" fill="white"/>
<path d="M77.8876 47.3433C77.6672 47.2307 77.4712 47.1356 77.2786 47.0324C77.0837 46.928 76.9874 46.7493 77.0733 46.5521C77.1243 46.4361 77.2751 46.3027 77.3934 46.2888C77.5988 46.2644 77.767 46.4094 77.811 46.6159C77.8621 46.8491 77.8644 47.0915 77.8876 47.3433Z" fill="white"/>
<path d="M68.9139 20.2179C68.8362 20.2179 68.7886 20.233 68.7677 20.2156C68.306 19.8165 67.8478 19.4152 67.4314 18.9419C67.8362 19.1461 68.2573 19.3247 68.6413 19.5625C68.8547 19.6947 68.8802 19.9685 68.9139 20.2179Z" fill="white"/>
<path d="M67.3421 74.1045C66.8317 74.4189 66.2865 74.623 65.7007 74.8086C66.0324 74.2078 66.653 73.9375 67.3421 74.1045Z" fill="white"/>
<path d="M15.7069 53.4866C15.715 53.3068 15.6721 53.1328 15.7405 53.0516C15.8194 52.9576 16.0085 52.888 16.1279 52.9124C16.3831 52.9657 16.6383 53.0713 16.6882 53.4112C16.3913 53.6872 16.0815 53.4274 15.7069 53.4866Z" fill="white"/>
<path d="M67.2109 73.3679C67.4093 73.2009 67.6088 73.0338 67.8443 72.8354C68.0867 72.9828 68.3234 73.1243 68.6064 73.2971C68.1227 73.6927 67.6715 73.3401 67.2109 73.3679Z" fill="white"/>
<path d="M23.9442 13.092C24.1414 13.2301 24.4511 13.1698 24.5265 13.534C24.4267 13.5943 24.327 13.6732 24.2133 13.7184C23.8954 13.8472 23.7226 13.8112 23.631 13.6013C23.5196 13.3449 23.6785 13.2208 23.9442 13.092Z" fill="white"/>
<path d="M49.2264 17.7205C48.941 17.6335 48.7578 17.4861 48.8332 17.2147C48.8656 17.0987 49.0199 16.9746 49.144 16.9363C49.3296 16.8795 49.4804 17.0071 49.5431 17.1822C49.6382 17.4571 49.4862 17.6114 49.2264 17.7205Z" fill="white"/>
<path d="M49.0431 0.553578C49.245 0.562858 49.4398 0.802979 49.4317 1.04078C49.4248 1.22754 49.3099 1.30758 49.1336 1.30758C48.883 1.30758 48.6638 1.11502 48.6673 0.903899C48.6696 0.718299 48.8575 0.544298 49.0431 0.553578Z" fill="white"/>
<path d="M58.7533 8.57625C58.584 8.45793 58.4158 8.33729 58.2452 8.22129C58.091 8.11689 57.9344 8.01713 57.7952 7.87793C58.3021 7.89649 58.744 8.11341 59.222 8.26537C59.1582 8.61221 58.932 8.56117 58.7313 8.56001L58.7533 8.57625Z" fill="white"/>
<path d="M47.7344 79.9162C47.9212 79.9324 48.072 80.1227 48.0569 80.3222C48.0407 80.5217 47.8586 80.6864 47.6718 80.6702C47.4792 80.6528 47.34 80.4718 47.3551 80.2607C47.3714 80.0473 47.5349 79.8988 47.7344 79.9162Z" fill="white"/>
<path d="M25.8292 43.5466C25.9301 43.7253 26.0554 43.8622 26.0774 44.0141C26.0948 44.1301 26.0078 44.2925 25.915 44.3807C25.8791 44.4143 25.6633 44.3308 25.596 44.2473C25.371 43.9666 25.4209 43.7972 25.8292 43.5466Z" fill="white"/>
<path d="M20.6022 55.8984C21.13 56.0202 21.2599 56.3555 20.9722 56.7708C20.55 56.5666 20.5082 56.475 20.6022 55.8984Z" fill="white"/>
<path d="M33.296 76.9685C33.5965 77.1158 33.8969 77.2631 34.2217 77.4221C34.2716 77.5961 34.3203 77.7701 34.4073 78.0751C33.9364 77.6981 33.5733 77.4081 33.2102 77.1181C33.238 77.0694 33.267 77.0195 33.296 76.9685Z" fill="white"/>
<path d="M85.5877 38.9752C85.5042 39.0262 85.38 39.1504 85.2385 39.1736C85.0784 39.2002 84.9021 38.9601 84.9729 38.8093C85.0274 38.6922 85.1654 38.5727 85.2895 38.539C85.4473 38.4961 85.6097 38.7061 85.5877 38.9752Z" fill="white"/>
<path d="M72.177 74.9688C72.373 75.108 72.5064 75.2019 72.7036 75.3411C72.4612 75.5627 72.2547 75.7529 72.0471 75.9432C72.0158 75.9234 71.9844 75.9037 71.9531 75.884C72.0216 75.5998 72.0912 75.3156 72.177 74.9688Z" fill="white"/>
<path d="M20.6079 73.9771C20.9814 74.0293 21.2656 74.2079 21.4733 74.4851C21.5185 74.5455 21.4594 74.6847 21.442 74.8459C21.0325 74.6278 20.826 74.2984 20.6079 73.9771Z" fill="white"/>
<path d="M38.7446 18.1357C38.4523 18.3515 38.269 18.3596 38.1379 18.1578C38.0393 18.0047 38.0695 17.8631 38.2121 17.7599C38.4059 17.6195 38.5717 17.739 38.7446 18.1357Z" fill="white"/>
<path d="M76.6707 75.4211C76.992 75.6868 77.0489 75.8503 76.8853 76.0151C76.7612 76.1403 76.6197 76.1485 76.4863 76.029C76.3111 75.8712 76.3529 75.7227 76.6707 75.4211Z" fill="white"/>
<path d="M74.3924 60.1892C74.7207 60.5651 74.7207 60.5964 74.4226 60.9537C74.0583 60.6776 74.0514 60.579 74.3924 60.1892Z" fill="white"/>
<path d="M42.9102 79.5473C42.9693 79.4974 43.0621 79.3744 43.1828 79.3292C43.3278 79.2747 43.5145 79.4626 43.5168 79.6389C43.5192 79.8164 43.4182 79.9254 43.2454 79.9509C43.0691 79.9765 42.9113 79.8245 42.9102 79.5473Z" fill="white"/>
<path d="M36.3933 83.9971C36.8979 84.1108 37.4419 84.1108 37.8247 84.5875C37.3271 84.4332 36.8294 84.2778 36.3318 84.1235C36.3527 84.0818 36.3735 84.04 36.3933 83.9971Z" fill="white"/>
<path d="M14.6597 23.1874C14.7467 22.9914 14.9149 22.9299 15.1202 22.9716C15.2907 23.0065 15.4102 23.1306 15.3383 23.2999C15.3011 23.3869 15.1399 23.4786 15.0425 23.4716C14.8882 23.4589 14.6852 23.4415 14.6597 23.1874Z" fill="white"/>
<path d="M47.0677 85.9088C46.6779 85.9541 46.3171 85.9912 45.9111 85.8358C46.6176 85.5226 46.715 85.5284 47.0677 85.9088Z" fill="white"/>
<path d="M66.53 19.03C66.3897 18.8444 66.2412 18.7342 66.2447 18.6298C66.2493 18.5185 66.3758 18.37 66.4871 18.3132C66.6194 18.2459 66.856 18.457 66.8166 18.609C66.7852 18.7331 66.6681 18.8352 66.53 19.03Z" fill="white"/>
<path d="M27.4242 73.6452C26.7862 73.477 26.7862 73.477 26.4753 73.2021C26.5438 73.1232 26.6122 73.0443 26.712 72.9307C26.9811 73.1638 27.3349 73.2671 27.408 73.6615L27.4242 73.6452Z" fill="white"/>
<path d="M86.1063 47.0465C85.9694 46.8284 85.8616 46.7217 85.836 46.5975C85.7966 46.4119 85.9683 46.2472 86.1376 46.2751C86.3174 46.3041 86.4114 46.4363 86.3766 46.5999C86.3499 46.7228 86.2432 46.8296 86.1063 47.0465Z" fill="white"/>
<path d="M57.3485 6.0542C57.6559 6.14004 57.7951 6.2978 57.6687 6.56112C57.6339 6.63304 57.4112 6.70032 57.3474 6.65856C57.1003 6.49732 57.1629 6.28968 57.3485 6.0542Z" fill="white"/>
<path d="M51.6543 4.90243C51.3782 4.65767 51.3284 4.51731 51.4745 4.36419C51.5859 4.24703 51.7135 4.24819 51.826 4.36303C51.978 4.51847 51.935 4.64839 51.6543 4.90243Z" fill="white"/>
<path d="M34.0233 84.4228C33.7763 84.4448 33.6069 84.2824 33.615 84.1084C33.6231 83.9321 33.7264 83.83 33.9027 83.8277C34.0848 83.8254 34.1997 83.9414 34.1799 84.1096C34.166 84.2337 34.0639 84.3474 34.0233 84.4228Z" fill="white"/>
<path d="M21.094 59.8923C21.3596 59.9469 21.4397 60.0698 21.4107 60.2415C21.3817 60.4109 21.2576 60.5327 21.0894 60.4712C20.9966 60.4375 20.884 60.2775 20.8945 60.1881C20.9084 60.0721 21.036 59.9701 21.094 59.8923Z" fill="white"/>
<path d="M75.4166 33.5416C75.0431 33.6506 74.8552 33.5741 74.7531 33.3664C74.6673 33.1924 74.7717 33.0799 75.0292 33.03C75.1278 33.1599 75.2438 33.3131 75.4166 33.5416Z" fill="white"/>
<path d="M17.2207 58.6545C17.6058 59.2357 17.6058 59.2357 17.2207 59.7322C17.2207 59.3645 17.2207 59.0605 17.2207 58.6545Z" fill="white"/>
<path d="M53.8954 77.1588C53.8385 77.0915 53.7225 77.0104 53.6981 76.9083C53.6587 76.7412 53.7701 76.5939 53.9371 76.6032C54.0311 76.6078 54.1656 76.7378 54.1958 76.8364C54.2468 77.0022 54.1343 77.1136 53.8954 77.1588Z" fill="white"/>
<path d="M14.2652 43.7126C14.3244 43.7857 14.4415 43.8681 14.4682 43.9736C14.5088 44.143 14.4032 44.295 14.2269 44.2799C14.1306 44.2718 13.9972 44.1442 13.9671 44.0456C13.916 43.8774 14.0262 43.7602 14.2652 43.7126Z" fill="white"/>
<path d="M51.3747 73.5988C51.5846 73.426 51.747 73.4909 51.8607 73.6765C51.9674 73.8505 51.9222 74.0036 51.7053 74.0964C51.4733 74.0152 51.355 73.8563 51.3747 73.5988Z" fill="white"/>
<path d="M47.0049 5.22144C47.3089 5.60192 47.3089 5.60192 47.0699 5.88728C46.7694 5.5938 46.7694 5.5938 47.0049 5.22144Z" fill="white"/>
<path d="M8.15425 59.5349C8.28185 59.6996 8.41525 59.7959 8.41177 59.8864C8.40829 59.9862 8.27721 60.0801 8.20181 60.1776C8.11133 60.0952 7.96285 60.0221 7.94661 59.927C7.93153 59.8342 8.05101 59.7182 8.15425 59.5349Z" fill="white"/>
</svg>
