<svg width="107" height="36" viewBox="0 0 107 36" fill="none" xmlns="http://www.w3.org/2000/svg">
<path d="M105.116 18.4978C104.918 18.3122 104.734 18.1401 104.548 17.968C104.52 17.9882 104.493 18.0083 104.465 18.0285C104.485 18.1374 104.495 18.2504 104.527 18.3566C104.698 18.9026 104.874 19.4472 105.047 19.9931C105.188 20.4369 105.159 20.8726 104.991 21.3056C104.842 21.6888 104.71 22.0788 104.573 22.466C104.317 23.1895 103.805 23.7005 103.197 24.1362C102.954 23.7892 102.959 23.7946 102.639 24.0999C102.357 24.3688 102.062 24.623 101.737 24.9174C101.626 24.6714 101.547 24.4966 101.445 24.2666C101.37 24.3029 101.181 24.3339 101.142 24.4266C101.078 24.5813 101.107 24.7776 101.414 24.7642C101.403 24.787 101.391 24.8099 101.38 24.8327C101.289 24.8919 101.193 24.947 101.105 25.0129C100.927 25.1447 100.713 25.2509 100.584 25.4217C100.145 26.0013 99.8433 26.6441 99.8083 27.3877C99.8043 27.4737 99.7707 27.5571 99.7196 27.6365C99.5918 27.194 99.5461 26.7449 99.7545 26.3361C100.041 25.774 99.6577 25.1958 98.9827 25.2657C98.0938 25.3599 97.1982 25.419 96.3054 25.4473C95.7164 25.4647 95.1247 25.4069 94.5357 25.3666C94.3394 25.3531 94.2197 25.411 94.1888 25.6033C94.1269 25.9905 94.0651 26.3778 94.0193 26.7664C93.9871 27.0461 93.9817 27.3285 93.9642 27.6096C93.9346 27.6136 93.9064 27.6163 93.8768 27.6203C93.858 27.5558 93.8311 27.4912 93.8203 27.4253C93.7181 26.835 93.6254 26.2433 93.5164 25.6544C93.464 25.3679 93.3335 25.2913 93.0592 25.376C92.4622 25.5629 91.8678 25.7606 91.2708 25.9488C90.8983 26.0672 90.6697 26.3254 90.624 26.6979C90.5433 27.3541 90.4801 28.013 90.4518 28.6732C90.4007 29.8351 90.3833 30.9982 90.3483 32.1601C90.3429 32.3295 90.316 32.4989 90.2985 32.667C90.2703 32.6643 90.2421 32.663 90.2125 32.6603C90.1936 32.2757 90.1735 31.8898 90.156 31.5052C90.117 30.6742 90.0915 29.8431 90.035 29.0134C89.9866 28.2967 89.7001 27.6862 89.1381 27.2142C88.9014 27.0152 88.6768 26.9829 88.3769 27.1066C87.1721 27.6042 86.6275 28.5791 86.3128 29.7692C86.095 30.5935 86.0788 31.4245 86.1178 32.2663C86.0896 32.273 86.0614 32.2784 86.0331 32.2851C85.9847 32.1359 85.9054 31.9879 85.8946 31.836C85.8624 31.3815 85.8475 30.9256 85.8408 30.4698C85.8328 29.8525 85.8381 29.2353 85.8381 28.5267C85.346 28.7485 84.8753 28.9139 84.4531 29.16C83.8977 29.4854 83.3935 29.8983 82.7413 30.0287C82.6189 30.0529 82.4952 30.0946 82.3715 30.0973C81.1559 30.1188 79.9389 30.139 78.7219 30.1403C78.5848 30.1403 78.449 30.0247 78.2741 29.9453C78.0966 30.2425 77.7578 30.2102 77.4095 30.1887C76.7842 30.1524 76.1576 30.1443 75.531 30.1134C75.2607 30.1 75.1262 30.2344 75.028 30.4657C74.6838 31.2887 74.5654 32.1506 74.5466 33.0341C74.5318 33.7401 74.5103 34.4474 74.4834 35.1534C74.4767 35.3147 74.4337 35.4748 74.4081 35.6348C74.3758 35.6334 74.3449 35.6321 74.3126 35.6307C74.3019 35.5326 74.2817 35.4358 74.2804 35.3376C74.2589 33.7186 74.2333 32.0982 74.2239 30.4792C74.2212 29.9816 74.1136 29.5406 73.8407 29.1103C73.5932 28.723 73.4359 28.2792 73.2248 27.8301C72.8415 28.3801 72.3749 28.805 71.6299 28.9045C71.9352 29.2205 72.1893 29.5177 72.5901 29.6441C72.812 29.714 73.0405 29.7745 73.2422 29.8835C73.3458 29.9399 73.3969 30.0932 73.4709 30.2022C73.3619 30.2412 73.253 30.3138 73.1454 30.3124C72.6264 30.307 72.1073 30.2896 71.5896 30.2533C71.4861 30.2465 71.3691 30.1564 71.2965 30.0717C71.2144 29.9762 71.1741 29.8431 71.1015 29.6992C71.0544 29.7678 71.01 29.8001 71.0087 29.8364C70.9872 30.2183 70.7344 30.2344 70.4412 30.2143C70.2449 30.2008 70.0472 30.2169 69.8509 30.2062C69.7904 30.2035 69.7326 30.1564 69.6721 30.1309C69.7057 30.0838 69.7353 30.0341 69.7716 29.991C69.859 29.8862 69.9504 29.7826 70.0405 29.6791C69.668 29.3711 69.4811 29.4195 69.4004 29.831C69.3493 30.0919 69.2054 30.1981 68.958 30.2008C68.7523 30.2035 68.5465 30.2022 68.3394 30.2008C68.2857 30.2008 68.2332 30.1954 68.1606 30.1927C68.1404 30.0704 68.1216 29.9507 68.092 29.7705C67.8715 30.1995 67.5232 30.182 67.1574 30.1779C66.5308 30.1712 65.9042 30.1941 65.2775 30.221C64.9978 30.2331 64.8042 30.1094 64.5958 29.8727C64.7437 29.7866 64.8755 29.7086 65.0086 29.6333C65.061 29.6024 65.1296 29.5876 65.1673 29.5446C65.5035 29.1654 65.8343 28.7835 66.165 28.4002C66.1866 28.3747 66.2027 28.3438 66.2471 28.2738C65.1323 28.0264 64.1561 27.5464 63.317 26.7906C63.4582 27.7333 63.9517 28.4231 64.7733 28.9099C64.5474 29.4074 64.2125 29.8122 63.7634 30.0946C63.4582 30.2855 63.1072 30.2304 62.7912 30.0462C62.6997 29.9924 62.611 29.9346 62.5021 29.866C62.3999 30.108 62.2304 30.0677 62.0233 30.0516C61.8095 30.0354 61.546 30.0771 61.3765 30.1954C61.0955 30.3931 60.8561 30.6594 60.6302 30.9229C60.3855 31.208 60.2685 31.5509 60.2618 31.9368C60.2483 32.706 60.2188 33.4752 60.1945 34.2444C60.1919 34.3277 60.1811 34.4111 60.1744 34.4945C60.1461 34.4958 60.1192 34.4972 60.091 34.4998C60.0722 34.3519 60.0453 34.204 60.0359 34.0547C59.9633 33.0018 59.9054 31.9476 59.8221 30.896C59.771 30.2452 59.5787 29.6347 59.19 29.0955C59.0179 28.8561 58.8619 28.6033 58.71 28.3518C58.5029 28.0103 58.6293 27.7548 59.0233 27.7077C59.2102 27.6849 59.3971 27.662 59.584 27.6459C59.7441 27.6311 59.8288 27.5585 59.8261 27.389C59.818 26.7718 59.8221 26.1532 59.8046 25.536C59.7952 25.2173 59.6728 25.1192 59.3554 25.0829C59.1793 25.0627 59.0058 25.017 58.8283 24.9928C58.7059 24.9766 58.5715 24.9457 58.4599 24.9807C58.2474 25.0479 58.1466 24.9686 58.0578 24.7884C57.9529 24.5732 57.8548 24.5571 57.7405 24.7534C57.2456 25.6073 56.7965 26.4827 56.6862 27.4832C56.6768 27.5679 56.7507 27.6633 56.7897 27.7521C56.7992 27.775 56.8341 27.7857 56.8462 27.8072C57.2402 28.5361 57.6342 29.2662 58.0578 30.0529C57.8346 30.0529 57.6678 30.0623 57.5038 30.0516C56.9014 30.0099 56.2828 30.1067 55.7005 29.8593C55.6642 29.8431 55.6104 29.8498 55.5701 29.8619C54.6651 30.1161 53.7453 30.0825 52.8229 30.0005C52.761 29.9951 52.6978 29.9937 52.6346 29.9937C52.2298 29.9883 52.2029 29.9722 52.1881 29.5782C52.1787 29.3442 52.0712 29.2151 51.852 29.16C51.4956 29.0713 51.1406 28.9785 50.7856 28.8897C50.6095 28.8453 50.5476 28.9449 50.4642 29.0874C50.2961 29.3752 50.0998 29.6508 49.886 29.9063C49.812 29.9951 49.652 30.0529 49.531 30.0529C49.3132 30.0542 49.2459 30.1712 49.1733 30.3434C48.8089 31.2107 48.6946 32.113 48.7551 33.0462C48.7753 33.3676 48.7591 33.6903 48.7524 34.0131C48.7511 34.0682 48.7121 34.1233 48.6327 34.1811C48.6153 34.1126 48.5857 34.044 48.5803 33.9741C48.5252 33.3057 48.4579 32.6374 48.4257 31.9678C48.4001 31.4124 48.1903 30.9229 47.9348 30.4509C47.8797 30.3487 47.6901 30.2721 47.5597 30.2667C46.7824 30.2344 46.0038 30.2412 45.2279 30.2022C45.0383 30.1927 44.8514 30.0663 44.6699 29.9776C44.569 29.9278 44.4843 29.8472 44.3633 29.7584C44.331 29.9171 44.3055 30.0421 44.2799 30.1659C44.2611 30.1672 44.2436 30.1685 44.2248 30.1685C44.1871 29.9413 44.1495 29.7127 44.1118 29.4868C43.9236 29.515 43.9236 29.515 43.9881 30.1632C43.976 30.1739 43.9639 30.1927 43.9505 30.1941C42.5291 30.3501 41.1172 30.3501 39.7227 29.9615C39.3126 29.8472 39.2413 29.9077 39.0947 30.3165C38.9683 30.6701 38.9791 31.0171 39.0315 31.3936C39.1001 31.8817 39.0503 32.3873 39.0409 32.8862C39.0382 33.0516 39.0033 33.2157 38.9831 33.3797C38.9602 33.3824 38.9387 33.3851 38.9159 33.3878C38.8984 33.3111 38.8742 33.2345 38.8634 33.1565C38.7316 32.1654 38.5985 31.1744 38.4735 30.182C38.4466 29.9641 38.3471 29.8646 38.1238 29.8714C37.5604 29.8875 36.9956 29.8915 36.4322 29.9063C36.0395 29.9157 36.0194 29.9023 36.0046 29.5177C35.9844 28.9986 35.9562 28.4809 35.9494 27.9619C35.9468 27.7306 35.858 27.6096 35.5729 27.5907C35.5353 27.8086 35.4653 28.0318 35.4653 28.2537C35.464 28.6638 35.499 29.0739 35.5299 29.4841C35.5635 29.9265 35.5124 30.0058 35.0767 29.9883C34.6209 29.9709 34.1664 29.9198 33.7118 29.8808C33.6675 29.8767 33.611 29.8754 33.5841 29.8485C33.2963 29.5594 33.0086 29.7409 32.6926 29.7974C32.1506 29.8956 31.5926 29.9399 31.0413 29.9332C29.9399 29.9198 28.84 29.8673 27.74 29.8068C27.4092 29.7893 27.1618 29.8579 26.9991 30.1578C26.9439 30.2586 26.874 30.3555 26.7987 30.4429C26.523 30.7696 26.519 31.1206 26.558 31.5415C26.6145 32.1493 26.5271 32.7706 26.5002 33.3851C26.4679 33.3837 26.4343 33.3824 26.402 33.3824C26.3792 33.0395 26.3496 32.6966 26.3334 32.3537C26.3119 31.9274 26.2272 31.5213 26.0107 31.1475C25.9435 31.0318 25.883 30.9108 25.8305 30.7871C25.6073 30.2573 25.3236 29.8203 24.6633 29.7611C24.4401 29.7409 24.2182 29.5769 24.0165 29.4478C23.2836 28.9771 22.497 28.6194 21.7009 28.2671C21.0756 27.9901 20.5082 27.5854 19.9098 27.2478C19.6381 27.0945 19.3625 26.9399 19.072 26.8337C18.7869 26.7315 18.5852 26.9345 18.4037 27.1241C18.2773 27.2572 18.1549 27.3299 17.9747 27.1335C18.4575 26.7947 18.5758 26.3012 18.561 25.8023C18.249 25.9314 17.9277 26.0591 17.6117 26.1976C17.3871 26.2958 17.4664 26.4961 17.4785 26.6629C17.4987 26.9345 17.5216 27.2061 17.5713 27.4737C17.6022 27.6391 17.6856 27.7951 17.7717 28.0251C17.6708 28.1098 17.4974 28.2564 17.2701 28.4487C17.2217 27.8906 17.1329 27.3796 17.1437 26.8713C17.1558 26.3012 16.8613 25.934 16.4122 25.7418C15.8071 25.4836 15.1562 25.3289 14.5215 25.1393C14.2862 25.0694 14.188 25.2335 14.1504 25.4217C14.0441 25.9475 13.954 26.476 13.8572 27.0044C13.8344 27.1255 13.8128 27.2478 13.79 27.3689C13.7644 27.3702 13.7389 27.3715 13.7133 27.3742C13.6959 27.2317 13.677 27.0892 13.6609 26.9466C13.6031 26.4491 13.5426 25.9529 13.4901 25.454C13.4673 25.2308 13.3516 25.1447 13.1324 25.1555C12.5596 25.185 11.9867 25.2361 11.4152 25.2214C10.5761 25.1998 9.73569 25.1461 8.89928 25.0721C8.49856 25.0371 8.15163 25.0519 7.89748 25.4136C7.76569 25.6006 7.74014 25.774 7.85041 25.9865C8.09111 26.4518 8.11666 26.9103 7.90823 27.4563C7.88537 27.3568 7.84503 27.2572 7.84234 27.1564C7.81545 26.4101 7.51692 25.7633 7.05838 25.1985C6.90642 25.0116 6.65362 24.8596 6.4183 24.7951C5.93017 24.6593 5.49582 24.4737 5.17309 24.0636C5.04669 23.9035 4.87591 23.7785 4.72262 23.6413C4.39585 23.3495 4.39451 23.3509 4.03951 23.5889C3.46935 23.0483 2.97584 22.458 2.75396 21.6794C2.63428 21.2585 2.50116 20.8403 2.36534 20.4234C2.28869 20.1881 2.3008 19.9703 2.41913 19.7511C2.54284 19.5225 2.64639 19.2845 2.77279 19.0572C2.88843 18.8501 2.8965 18.6861 2.63832 18.5839C2.55898 18.6404 2.47426 18.7009 2.3882 18.7627C2.36534 18.7533 2.34114 18.7439 2.31828 18.7345C2.48502 18.0446 2.64235 17.3521 2.8212 16.665C2.93415 16.2333 3.0498 15.7963 3.21923 15.3848C3.5581 14.5605 3.55407 13.716 3.4828 12.8514C3.44649 12.4009 3.50297 11.9424 3.50566 11.4878C3.51103 10.6999 3.51238 9.91185 3.50431 9.1252C3.50162 8.78767 3.51507 8.4636 3.7477 8.18928C3.79611 8.13146 3.81091 8.04539 3.84452 7.96336C3.75577 7.88941 3.67509 7.82217 3.59037 7.7509C3.65223 7.66619 3.69795 7.60164 3.71005 7.5855C3.66433 7.33001 3.61996 7.12024 3.58903 6.90777C3.54196 6.59042 3.48817 6.27307 3.468 5.95303C3.45052 5.66929 3.47607 5.38287 3.47876 5.09779C3.48145 4.83961 3.47876 4.58143 3.47876 4.29769C3.19234 4.25332 2.91667 4.22911 2.65177 4.16053C2.5173 4.12557 2.35727 4.03816 2.29004 3.92655C1.8436 3.18562 1.33395 2.47695 1.13359 1.60962C1.07711 1.36353 0.938606 1.13628 0.824306 0.868685C0.469303 0.779934 0.363071 0.352313 0 0.0712694C0.166744 0.0497541 0.255494 0.0255496 0.344245 0.0295838C1.11207 0.0632015 1.8799 0.118336 2.64773 0.131783C3.18293 0.141196 3.71946 0.0753058 4.25466 0.0820294C5.41649 0.0968212 6.57966 0.114301 7.74014 0.173469C9.16285 0.247428 10.5842 0.286424 12.0082 0.215154C12.4359 0.193639 12.8689 0.248773 13.2965 0.232636C13.9729 0.207087 14.4865 0.555366 15.0096 0.90499C15.3122 1.10804 15.6309 1.28689 15.9375 1.48591C16.2279 1.67416 16.509 1.87587 16.7954 2.06816C16.9796 2.19188 17.1571 2.33173 17.3562 2.4272C17.8308 2.65311 18.3082 2.84944 18.7479 3.16276C19.2576 3.52583 19.8761 3.70871 20.5176 3.72888C21.6095 3.76384 22.7027 3.83108 23.7919 3.79208C24.4428 3.76922 25.0694 3.85394 25.7081 3.9131C26.1653 3.95479 26.6333 3.84318 27.0972 3.83377C27.8933 3.81763 28.6894 3.82973 29.4854 3.82435C29.9063 3.82166 30.3259 3.80687 30.7468 3.7988C30.8342 3.79746 30.9202 3.7988 31.095 3.7988C30.8274 4.1054 30.6136 4.36089 30.3864 4.60563C30.1443 4.8665 30.1349 4.89878 30.3447 5.1973C30.4523 5.3506 30.5625 5.50389 30.6728 5.65584C30.6822 5.66929 30.6997 5.67602 30.6795 5.66122C31.0439 5.27529 31.3909 4.87995 31.7674 4.51688C32.2865 4.0153 32.8647 3.65627 33.6123 3.97362C33.8625 3.60248 33.8584 3.60651 34.1623 3.90907C34.395 4.1417 34.6424 4.36089 34.8898 4.59353C35.1144 4.33265 34.9033 3.89024 35.3161 3.70198C35.343 3.94672 35.0781 4.24928 35.5259 4.30845C35.5501 4.27214 35.5864 4.22373 35.6133 4.17263C35.7948 3.8257 36.0853 3.6724 36.4698 3.68316C36.845 3.69392 37.2229 3.69123 37.5967 3.72888C37.7917 3.74905 37.98 3.84318 38.1938 3.91176C38.4358 3.68719 38.733 3.77729 39.0167 3.89159C39.1633 3.95075 39.2978 4.05026 39.4201 4.15246C39.9325 4.5868 40.4381 5.02787 40.945 5.46893C41.2866 5.76611 41.4049 6.12381 41.3 6.57563C41.1804 7.092 41.2799 7.6003 41.534 8.05346C41.612 8.19331 41.842 8.29013 42.0195 8.32644C42.6259 8.4515 42.7792 8.30626 42.6622 7.69846C42.5358 7.04627 42.556 6.40619 42.634 5.74998C42.6958 5.22957 42.6676 4.69707 42.669 4.16994C42.669 3.98572 42.7308 3.91579 42.9204 3.87545C44.0379 3.64147 45.1446 3.75712 46.2566 3.91176C46.4893 3.94403 46.7313 3.90773 46.968 3.89428C47.4682 3.86604 47.9671 3.81763 48.466 3.80284C49.0926 3.78401 49.7206 3.78401 50.3472 3.79073C50.4831 3.79208 50.6296 3.8378 50.7493 3.90369C51.0868 4.08926 51.4096 4.29904 51.743 4.49133C51.8963 4.58008 51.9663 4.69034 51.9797 4.87457C52.0698 6.03505 52.1021 7.19554 52.0389 8.36006C52.0066 8.93828 52.0174 9.52995 52.1102 10.0988C52.1653 10.4296 52.4087 10.7362 52.5942 11.036C52.7489 11.2848 52.9183 11.5578 53.2908 11.4556C53.6404 11.3601 53.5692 11.0387 53.6297 10.7913C53.6767 10.6003 53.7077 10.4054 53.7467 10.2131C53.7857 10.0194 53.8811 9.82175 53.6364 9.67383C53.5853 9.64291 53.5813 9.51113 53.5786 9.42372C53.5584 8.51201 53.5342 7.59895 53.5329 6.68589C53.5315 6.35644 53.6243 6.02564 53.6068 5.69888C53.5692 5.01307 53.5557 4.30845 52.964 3.79073C52.9775 3.76653 52.9896 3.74233 53.003 3.71812C53.2021 3.71812 53.4011 3.71678 53.5987 3.71812C53.8677 3.72081 54.1366 3.72216 54.4042 3.73022C54.8009 3.74233 55.1721 3.89562 55.6024 3.75577C55.9049 3.65761 56.2855 3.80015 56.6297 3.83645C56.6324 4.29769 56.6324 4.29769 56.8906 4.41872C56.8785 4.54781 56.8489 4.67959 56.857 4.80868C56.8677 4.9929 56.978 5.1099 57.1663 5.11662C57.3586 5.12334 57.4957 5.03997 57.5132 4.82616C57.5334 4.56798 57.5656 4.30979 57.5697 4.05027C57.5737 3.82704 57.6557 3.72484 57.8897 3.72753C58.3913 3.73291 58.8929 3.72215 59.3944 3.71946C59.5908 3.71812 59.7696 3.75846 59.8597 3.98168C59.7414 4.07312 59.623 4.16456 59.4576 4.29231C59.6728 4.3972 59.8516 4.4846 60.0937 4.60294C60.1192 4.58277 60.208 4.51688 60.3021 4.44695C60.5616 4.5505 60.5616 4.55049 60.7943 4.18608C60.9409 4.57067 61.0874 4.9297 61.2152 5.29681C61.7221 6.75716 62.2251 8.21886 62.7253 9.6819C62.8692 10.1041 62.9445 10.1378 63.3317 9.91185C64.0068 9.51785 64.5662 8.99341 65.0261 8.36544C65.1189 8.23903 65.1834 8.08305 65.2224 7.93109C65.5465 6.64959 65.8611 5.36539 66.1798 4.08254C66.2323 3.87142 66.3668 3.77729 66.5913 3.77998C67.3699 3.78939 68.1485 3.79208 68.9257 3.7867C69.1342 3.78536 69.235 3.8768 69.2861 4.06774C69.3587 4.34206 69.4421 4.61235 69.5214 4.88667C70.0203 4.67287 70.101 4.46309 69.9235 3.8499C70.1777 3.66568 70.4345 3.50566 70.7747 3.66433C70.8339 3.69257 70.9132 3.68181 70.9831 3.68181C71.0907 3.68316 71.2064 3.64954 71.3032 3.67913C72.2552 3.96286 73.2288 3.69795 74.1876 3.79746C74.4081 3.82032 74.6286 3.83242 74.9204 3.85528C74.4054 4.38375 74.4041 4.96332 74.5856 5.56172C74.6986 5.93286 74.9863 6.16146 75.34 6.37526C75.34 5.96916 75.344 5.5913 75.3387 5.21478C75.3346 4.91088 75.3158 4.60697 75.3145 4.30307C75.3118 3.94806 75.3696 3.89562 75.7179 3.90504C76.1724 3.91848 76.6269 3.95748 77.0801 3.94134C77.5763 3.9252 78.0698 3.83108 78.566 3.82166C79.3082 3.80687 80.0505 3.83377 80.7928 3.84587C80.9528 3.84856 81.0066 3.94807 81.0886 4.08792C81.523 4.82885 81.6077 5.68005 81.8968 6.46402C82.0192 6.79481 82.2316 7.092 82.4239 7.44431C82.6579 7.31253 82.8838 7.22109 83.068 7.07451C83.4741 6.75178 83.8668 6.41157 84.2487 6.06195C84.5365 5.79839 84.5055 5.39632 84.2326 5.11124C84.133 5.0077 84.0967 4.84499 84.0282 4.71051C83.9367 4.53032 83.8587 4.34207 83.7444 4.17801C83.6463 4.03547 83.5051 3.92252 83.3827 3.79746C83.3867 3.77057 83.3921 3.74367 83.3961 3.71543C83.5669 3.74098 83.7364 3.76653 83.9071 3.79477C83.9488 3.80149 83.9905 3.82435 84.0322 3.8257C84.6575 3.83108 85.2841 3.80284 85.9067 3.84183C86.9327 3.90638 87.8754 3.70736 88.7508 3.15066C89.4446 2.70959 90.1641 2.30752 90.8808 1.90411C91.1901 1.7293 91.5222 1.59214 91.8436 1.43749C91.9001 1.4106 91.9619 1.39043 92.0104 1.35412C92.3707 1.07711 92.7298 0.800105 93.0848 0.516372C93.2878 0.353662 93.507 0.267597 93.7733 0.272976C94.4523 0.285078 95.1314 0.281045 95.8092 0.28239C96.0593 0.28239 96.3107 0.289112 96.5609 0.272976C97.5156 0.213809 98.4677 0.199018 99.4264 0.266254C100.056 0.310629 100.694 0.225914 101.329 0.192296C101.812 0.166747 102.293 0.126404 102.776 0.102199C102.954 0.0927862 103.132 0.119683 103.311 0.116993C103.639 0.112959 103.967 0.103546 104.296 0.0914433C105.08 0.0618597 105.862 0.0309283 106.646 0C106.656 0.0255495 106.664 0.0510999 106.673 0.0766494C106.373 0.494854 106.071 0.910368 105.777 1.33261C105.699 1.44556 105.65 1.58003 105.597 1.70778C105.474 2.01169 105.378 2.33038 105.229 2.62084C105.024 3.01753 104.765 3.38463 104.556 3.77998C104.417 4.04354 104.232 4.17936 103.931 4.20894C103.508 4.25063 103.49 4.26407 103.455 4.66614C103.401 5.29546 103.361 5.92748 103.346 6.55949C103.333 7.12427 103.002 7.49137 102.449 7.52633C102.33 7.5344 102.207 7.60702 102.1 7.67291C101.918 7.78586 101.761 7.93782 101.573 8.03598C100.98 8.34795 100.378 8.64244 99.7801 8.94366C99.7263 8.97055 99.6712 8.99207 99.569 9.03644C99.5461 8.60748 99.5259 8.2081 99.5058 7.80872C99.5044 7.78183 99.5125 7.75494 99.5138 7.72939C99.5394 7.13099 99.5017 7.05165 98.9222 6.89836C97.529 6.53125 96.1319 6.17894 94.7334 5.83738C94.533 5.78897 94.3017 5.79435 94.0987 5.84141C93.5433 5.96916 93.382 6.2018 93.4142 6.76792C93.4855 8.04539 93.702 9.29328 94.2453 10.4632C94.7603 11.5739 95.2955 12.6766 95.8186 13.7846C95.9114 13.9809 96.0284 14.0952 96.2583 13.9957C96.2986 13.9782 96.3457 13.9742 96.3901 13.9742C97.0732 13.9809 97.7549 13.9971 98.4367 13.993C98.8186 13.9903 99.1992 13.9554 99.5461 13.9366C99.5004 13.0692 99.4574 12.2355 99.4116 11.3789C98.9195 11.3171 98.4004 11.2525 97.8101 11.1799C98.1678 10.8061 98.5228 10.5439 98.9585 10.3838C99.1817 10.3018 99.3928 10.1848 99.6093 10.0813C100.128 9.83251 100.647 9.5824 101.168 9.33228C101.183 9.35245 101.199 9.37262 101.214 9.39279C101.171 9.51516 101.127 9.63753 101.078 9.77603C101.165 9.81369 101.251 9.85134 101.359 9.89706C101.271 9.94681 101.197 9.9885 101.11 10.0396C101.119 10.1109 101.129 10.1875 101.142 10.2857C101.019 10.3247 100.895 10.3637 100.752 10.4094C100.958 10.5492 101.115 10.5116 101.251 10.3395C101.511 10.0114 101.77 9.68325 102.028 9.35514C102.045 9.33497 102.065 9.31077 102.067 9.28522C102.17 8.58328 102.78 8.58328 103.345 8.35333C103.311 8.91946 103.276 9.42103 103.255 9.92126C103.249 10.0504 103.303 10.1821 103.303 10.3126C103.309 11.2956 103.301 12.2799 103.318 13.2629C103.322 13.4565 103.42 13.6474 103.475 13.8397C103.491 13.8976 103.532 13.9567 103.525 14.0119C103.487 14.3601 103.658 14.6277 103.833 14.9048C104.496 15.9604 105.011 17.0738 105.112 18.3391C105.119 18.3875 105.116 18.4306 105.116 18.4978ZM34.5819 5.12334C34.5711 4.87995 34.6155 4.61908 34.3627 4.44023C34.3304 4.52629 34.3237 4.61101 34.3546 4.68093C34.4205 4.83154 34.5052 4.97542 34.5819 5.12334C34.6034 5.26319 34.6263 5.40304 34.6478 5.54289C34.6142 5.53348 34.5819 5.52406 34.5483 5.51331C34.4703 5.55499 34.3748 5.5792 34.3197 5.64105C34.1408 5.83738 34.0494 6.06061 34.2107 6.36585C34.3331 5.78091 34.8602 5.62357 35.2529 5.30488C35.0203 5.1731 34.8401 5.00501 34.5819 5.12334ZM23.0886 19.1729C22.9394 19.1675 22.7673 19.2078 22.6462 19.1473C22.2832 18.9644 21.8905 18.7936 21.6027 18.5207C21.2746 18.2074 21.0877 18.479 20.8672 18.5987C20.7879 18.6417 20.7771 18.8111 20.7206 18.9617C20.5579 19.0075 20.5068 18.8326 20.4329 18.6941C20.2069 18.2759 20.0577 18.1953 19.5884 18.28C18.99 18.3875 18.3902 18.4992 17.7972 18.6323C17.6641 18.6619 17.5202 18.7654 17.4368 18.8757C17.0482 19.388 16.6986 19.9299 16.3006 20.4328C15.6322 21.2773 15.2692 22.22 15.2517 23.2984C15.2477 23.5674 15.3485 23.6938 15.6013 23.7825C16.6314 24.1442 17.6587 24.5127 18.6753 24.9094C19.0774 25.0667 19.4485 25.3034 19.8546 25.5145C19.7672 25.61 19.7282 25.653 19.6758 25.7095C19.7995 25.7619 19.903 25.8372 20.0133 25.8453C20.4073 25.8749 20.6883 26.1075 20.9761 26.3361C21.0608 26.402 21.1429 26.4719 21.2343 26.5298C21.44 26.6615 21.4737 26.8189 21.3432 27.0286C21.2383 27.1967 21.1523 27.3769 21.0541 27.5585C21.3459 27.6445 21.5301 27.5773 21.6256 27.3151C21.6902 27.1376 21.8246 27.0838 22.0075 27.0905C22.2119 27.0972 22.4284 27.1161 22.622 27.0636C23.129 26.9264 23.6279 26.7584 24.1268 26.593C24.2935 26.5365 24.4428 26.4787 24.592 26.7234C24.0985 26.9224 23.6279 27.1134 23.1559 27.303C23.1586 27.3299 23.1599 27.3554 23.1626 27.3823C23.3818 27.3823 23.6628 27.2949 23.8067 27.3984C24.1994 27.6808 24.5369 27.4267 24.9 27.3971C25.7646 27.3258 26.4773 26.9359 27.0878 26.3576C27.2626 26.1922 27.3971 25.9287 27.4388 25.692C27.4979 25.3491 27.4536 24.9874 27.4536 24.5692C27.034 24.9336 26.6884 25.2563 26.32 25.5495C25.9556 25.8386 25.5669 26.0994 25.1891 26.3724C25.1568 26.3402 25.1245 26.3079 25.0936 26.277C25.22 26.1183 25.3276 25.9367 25.4769 25.8036C25.9448 25.3868 26.4087 24.9618 26.9117 24.5907C27.3097 24.2962 27.4294 23.9358 27.3769 23.4773C27.3433 23.1895 27.2572 22.8695 27.783 22.8493C27.7171 22.7632 27.6365 22.7431 27.6015 22.692C27.5329 22.5898 27.4388 22.4661 27.4468 22.3598C27.4939 21.8179 27.2828 21.4037 26.8807 21.0649C26.7167 20.9264 26.5499 20.7905 26.398 20.6399C26.3361 20.5781 26.3079 20.4813 26.2649 20.4006C26.2917 20.3764 26.3186 20.3522 26.3455 20.328C26.6266 20.5028 26.909 20.6776 27.233 20.8793C27.2048 20.6426 27.2156 20.4382 27.151 20.2621C27.0663 20.0321 26.956 19.7887 26.7893 19.618C26.6911 19.5171 26.4612 19.5467 26.2904 19.5131C26.2111 19.4969 26.1358 19.4606 26.0578 19.4526C25.6355 19.4055 25.2133 19.3652 24.791 19.3235C24.7884 19.3517 24.7843 19.3813 24.7816 19.4095C25.0492 19.5642 25.3168 19.7202 25.5885 19.8775C25.4769 20.0832 25.3464 20.094 25.1783 19.9904C24.9591 19.8546 24.7332 19.7296 24.4966 19.5911C24.2868 19.86 24.1456 20.1437 24.1281 20.4745C24.1133 20.7515 24.1335 21.0286 24.1227 21.3056C24.1079 21.6928 24.0797 22.0788 24.0568 22.466C24.0246 22.4741 23.9909 22.4835 23.9587 22.4916C23.9076 22.3948 23.8323 22.3033 23.8108 22.2011C23.7866 22.0815 23.8108 21.9524 23.8108 21.8273C23.8121 21.2962 23.8914 20.7677 23.6628 20.2459C23.4974 19.8694 23.3939 19.47 23.0806 19.1742C23.1895 19.1742 23.2984 19.1742 23.4073 19.1742C23.4114 19.1527 23.4141 19.1298 23.4181 19.1083C23.2675 18.9954 23.1182 18.8837 22.9676 18.7708C22.9421 18.7896 22.9165 18.8098 22.8896 18.8286C22.9555 18.9389 23.0228 19.0559 23.0886 19.1729ZM55.2716 20.1236C55.3428 20.1236 55.4343 20.1424 55.5123 20.1209C56.0381 19.9703 56.4953 19.7188 56.8637 19.2925C57.2832 18.8071 57.7364 18.3472 58.1936 17.8954C58.4774 17.6157 58.8364 17.4852 59.2425 17.4866C59.662 17.4879 60.0816 17.4879 60.4998 17.4705C60.9166 17.453 61.3335 17.3965 61.7504 17.3911C62.1161 17.3871 62.4832 17.4261 62.849 17.4543C63.4904 17.5041 64.1305 17.5619 64.7719 17.6103C65.0032 17.6278 65.248 17.6789 65.4658 17.6264C66.1825 17.4543 66.9167 17.5202 67.6321 17.5135C68.7361 17.5027 69.8455 17.3992 70.9576 17.6184C71.5372 17.7327 72.1719 17.6385 72.7703 17.5552C73.729 17.422 74.6771 17.2029 75.6291 17.5861C75.7273 17.6264 75.8806 17.6318 75.968 17.5821C76.2436 17.4234 76.5328 17.4382 76.8286 17.4503C76.9792 17.4557 77.1312 17.4328 77.2818 17.418C77.8304 17.3629 78.3831 17.2405 78.9277 17.2661C79.9739 17.3145 81.0147 17.4341 82.0649 17.332C82.4522 17.2943 82.553 17.4664 82.3513 17.7932C82.2074 18.0272 82.2464 18.1885 82.4871 18.3418C82.5692 18.1052 82.6431 17.8792 82.7265 17.656C82.8179 17.4099 83.0667 17.3441 83.2617 17.5121C83.3061 17.5498 83.3356 17.6036 83.341 17.6076C83.5172 17.574 83.6516 17.5296 83.7875 17.5242C84.6723 17.492 85.5584 17.4678 86.4446 17.4409C86.9785 17.4247 87.7288 16.9232 87.9157 16.4283C87.6279 16.4283 87.3523 16.4202 87.078 16.431C86.8763 16.4391 86.6759 16.4955 86.4755 16.4902C85.8771 16.4727 85.2774 16.4418 84.6803 16.4028C84.5311 16.3933 84.3859 16.3315 84.2393 16.2979C84.1465 16.2764 84.0174 16.2158 83.965 16.2548C83.6799 16.4633 83.3867 16.3261 83.103 16.3422C83.0896 16.2145 83.0801 16.1217 83.0694 16.0289C83.0479 16.0114 83.025 15.994 83.0022 15.9751C82.8596 16.5184 82.475 16.3234 82.1402 16.3355C82.1281 16.1943 82.116 16.0666 82.1066 15.963C81.9533 16.0733 81.8121 16.2602 81.6588 16.271C80.7498 16.3396 79.8367 16.388 78.925 16.4001C78.3723 16.4081 77.8183 16.3288 77.2643 16.3086C77.0532 16.3006 76.8393 16.3476 76.6269 16.3638C76.362 16.3839 76.0971 16.4122 75.8308 16.4135C75.2338 16.4162 74.626 16.3315 74.0397 16.4108C72.547 16.6152 71.0531 16.4525 69.5618 16.4781C68.3475 16.4996 67.1319 16.3853 65.9163 16.3718C65.1135 16.3624 64.3107 16.4377 63.5066 16.4498C63.1233 16.4552 62.736 16.3611 62.3555 16.3839C61.6186 16.4283 60.914 16.3463 60.2389 16.041C60.1609 16.0061 60.0762 15.9886 59.9767 15.9563C59.9767 16.2844 60.2349 16.3006 60.4635 16.3907C60.3788 16.4149 60.3304 16.4364 60.2806 16.4404C59.6795 16.4955 59.0663 16.3315 58.4747 16.548C58.4599 16.5534 58.4397 16.5413 58.4222 16.5413C57.528 16.5238 56.6351 16.5036 55.7409 16.4888C55.3119 16.4821 54.8816 16.4821 54.4526 16.4807C54.0681 16.4794 53.6767 16.4337 53.3002 16.4888C52.6534 16.5843 52.0227 16.5587 51.3786 16.4633C50.5234 16.3355 49.6614 16.2037 48.7941 16.4095C48.6314 16.4485 48.4566 16.4418 48.2871 16.4418C47.5502 16.4444 46.8241 16.3046 46.0805 16.3463C44.6887 16.4243 43.2929 16.4297 41.8984 16.4686C41.7021 16.474 41.5017 16.5251 41.3095 16.5009C40.4663 16.3933 39.6124 16.6623 38.7747 16.4256C38.7585 16.4216 38.7384 16.4256 38.7209 16.4256C38.2314 16.4216 37.7406 16.4162 37.2511 16.4162C36.4403 16.4149 35.6281 16.427 34.8172 16.4122C33.412 16.388 32.0081 16.3449 30.6029 16.3167C30.3891 16.3127 30.1753 16.349 29.9615 16.3624C29.6992 16.3799 29.437 16.3947 29.1748 16.4081C28.7727 16.4283 28.3693 16.4781 27.9699 16.4592C27.381 16.431 26.796 16.3234 26.207 16.3059C25.731 16.2925 25.4486 16.1029 25.3383 15.647C25.3357 15.6363 25.3101 15.6296 25.294 15.6215C24.8529 15.7385 25.1057 16.0814 25.0721 16.3678C24.7521 16.4068 24.436 16.4471 24.1187 16.4848C23.9466 16.505 23.8054 16.4781 23.7166 16.2965C23.6924 16.2468 23.5768 16.2427 23.5028 16.2172C23.4934 16.2441 23.4826 16.271 23.4732 16.2979C23.5311 16.3463 23.5875 16.3947 23.6507 16.4471C23.2796 16.6125 23.2796 16.6125 23.1276 15.9375C22.9959 15.9913 22.8668 16.0437 22.6946 16.115C22.8453 16.2024 22.9569 16.2656 23.0739 16.3328C22.7673 16.552 22.7726 16.5224 22.4499 16.4754C22.0842 16.4216 21.7103 16.4283 21.3392 16.4108C21.2585 16.4068 21.1711 16.4323 21.0985 16.4081C20.3723 16.1755 19.661 16.357 18.9496 16.4888C18.8407 16.509 18.7479 16.6206 18.6484 16.6905C18.7358 16.7873 18.8058 16.9299 18.916 16.9743C19.4929 17.2082 20.0967 17.3266 20.722 17.3387C21.2316 17.3481 21.7413 17.3817 22.2509 17.4005C23.2702 17.4382 24.2881 17.5081 25.3034 17.3172C25.5992 17.262 25.9085 17.2607 26.2111 17.2661C26.987 17.2795 27.7642 17.3077 28.5401 17.3414C28.6248 17.3454 28.7015 17.4368 28.7902 17.4664C28.8601 17.4893 28.9798 17.5148 29.0107 17.4799C29.2299 17.2351 29.5069 17.2432 29.8014 17.2445C30.6338 17.2499 31.4662 17.2513 32.2986 17.223C33.2762 17.1908 34.2497 17.1518 35.1978 17.4718C35.3121 17.5108 35.4452 17.5027 35.5689 17.5C37.0454 17.4705 38.5219 17.4342 39.9984 17.4046C40.5699 17.3925 41.1427 17.4059 41.7156 17.3844C42.3812 17.3588 43.0361 17.3709 43.6856 17.5538C43.9021 17.6157 44.1481 17.5982 44.3781 17.5834C44.9294 17.5484 45.4794 17.496 46.0294 17.4463C47.0258 17.3548 48.0115 17.4234 48.9931 17.6049C49.1222 17.6291 49.2648 17.6412 49.3912 17.613C50.3284 17.4019 51.2764 17.4745 52.2231 17.4436C52.6911 17.4288 53.1308 17.8147 53.5987 17.5095C54.7135 17.3911 55.8202 17.5538 56.9309 17.5915C56.9403 17.5915 56.9484 17.613 56.9726 17.6439C56.0891 18.2504 55.1868 18.8421 55.2716 20.1236ZM86.2967 24.6162C86.2671 24.6162 86.2362 24.6176 86.2066 24.6176C86.1851 24.5167 86.1542 24.4172 86.1461 24.3164C86.0923 23.6924 86.0385 23.0698 85.9955 22.4445C85.9309 21.4884 85.6996 20.5942 85.0891 19.825C84.9695 19.6744 84.8767 19.6327 84.6871 19.708C84.32 19.8546 84.0994 20.137 83.8493 20.4234C83.6113 20.6978 83.4082 20.9694 83.3464 21.3177C83.2617 21.791 83.2146 22.2724 83.1474 22.7484C83.029 23.6023 83.3827 24.3823 83.5347 25.1931C83.5535 25.2953 83.6853 25.4123 83.7928 25.458C84.7799 25.8897 85.8314 25.9825 86.891 26.0107C87.277 26.0215 87.6199 25.8776 87.9466 25.6678C88.2532 25.4715 88.576 25.2872 88.9135 25.1541C89.9624 24.7426 91.0207 24.3527 92.0789 23.9654C92.3169 23.878 92.4138 23.7462 92.4044 23.488C92.3828 22.8466 92.2591 22.2294 92.0359 21.6283C91.697 20.7139 91.0637 19.9958 90.4626 19.2468C90.2622 19.353 90.1681 19.5131 90.1708 19.7444C90.1802 20.6104 90.1856 21.4763 90.1829 22.3423C90.1815 22.6624 90.152 22.9824 90.1358 23.3025C90.1062 23.3038 90.0767 23.3051 90.0471 23.3065C90.0229 23.1626 89.9852 23.0187 89.9785 22.8735C89.918 21.713 89.8736 20.5512 89.8037 19.3907C89.7822 19.0236 89.8131 18.635 89.567 18.3042C89.5321 18.319 89.4944 18.3257 89.4688 18.3486C88.8731 18.8985 88.143 19.1581 87.3846 19.4068C86.5414 19.6838 85.9175 20.371 86.1434 21.401C86.2859 22.0519 86.3195 22.7296 86.3572 23.3979C86.3828 23.804 86.3209 24.2115 86.2967 24.6162ZM11.8603 20.683C11.8186 20.6883 11.777 20.6937 11.7353 20.6991C11.707 20.5592 11.6627 20.4194 11.6519 20.2782C11.5887 19.4431 11.4986 18.6161 10.9728 17.9156C10.8868 17.8013 10.7711 17.6722 10.6434 17.6318C10.3032 17.5256 9.95219 17.5686 9.59584 17.5874C8.91407 17.6224 8.22693 17.4812 7.55323 17.7394C7.38783 17.8026 7.24663 17.8389 7.14847 17.9962C6.71816 18.6847 6.67245 19.4351 6.72086 20.2204C6.7612 20.8927 7.03552 21.4078 7.52902 21.8488C8.19466 22.4445 8.91138 22.9596 9.70745 23.3603C9.97505 23.4948 10.2803 23.6279 10.5694 23.6333C11.3453 23.6467 12.1333 23.6575 12.8958 23.5405C13.521 23.4437 13.9998 22.977 14.461 22.5494C14.5403 22.4768 14.5941 22.3518 14.613 22.2428C14.8335 21.0151 14.9948 19.7834 14.7716 18.5368C14.7098 18.1885 14.6103 18.1025 14.2593 18.0729C14.0925 18.0594 13.8801 18.0742 13.7698 17.9814C13.517 17.7649 13.2387 17.8201 12.9576 17.8013C12.8299 17.7932 12.7075 17.7138 12.5784 17.691C12.4991 17.6762 12.3807 17.6749 12.3337 17.7206C12.2126 17.8376 12.1266 17.9895 12.0177 18.1186C11.7891 18.3902 11.7259 18.6901 11.7783 19.0424C11.8388 19.4391 11.855 19.8439 11.8792 20.2459C11.8886 20.3898 11.8684 20.5377 11.8603 20.683ZM7.94185 13.9675C8.38426 14.0643 8.89525 14.0804 9.41296 13.9877C9.57433 13.9594 9.7451 13.985 9.91185 13.9877C10.2292 13.9944 10.5452 14.0025 10.8626 14.0105C10.9782 14.0132 11.1046 13.989 11.2055 14.0293C11.43 14.1181 11.5376 14.0146 11.629 13.833C11.8913 13.314 12.1656 12.8016 12.4211 12.2785C13.3019 10.4766 14.0683 8.64244 14.0415 6.581C14.0388 6.36988 13.989 6.23407 13.8209 6.10498C13.4175 5.7957 13.0033 5.79973 12.5287 5.92882C11.1396 6.30803 9.74107 6.65362 8.34392 7.00324C8.08977 7.06779 7.94723 7.17671 7.99026 7.46717C8.04405 7.82889 8.08977 8.19331 8.11263 8.55773C8.12339 8.72716 8.06422 8.89928 8.05077 9.07141C8.04001 9.20991 8.04943 9.35111 8.05346 9.49096C8.05481 9.59046 8.07632 9.69266 8.06153 9.78948C8.03195 9.97908 7.9553 10.1647 7.94857 10.3529C7.93647 10.6918 7.97412 11.032 7.97143 11.3722C7.96875 12.2247 7.95395 13.0786 7.94185 13.9675ZM96.6281 17.2217C96.6039 17.3508 96.5824 17.4261 96.5756 17.5014C96.499 18.4723 96.0418 19.2186 95.2134 19.7202C94.4644 20.1747 93.6966 20.5983 92.9342 21.0326C92.6451 21.198 92.6235 21.2585 92.7405 21.5678C92.8091 21.7507 92.8777 21.9376 92.9127 22.1299C92.9839 22.5225 93.1816 22.8291 93.5003 23.0564C93.7477 23.2325 93.9911 23.4289 94.2668 23.5485C94.5626 23.6776 94.8894 23.765 95.2108 23.8013C95.6357 23.8498 96.0687 23.8457 96.4976 23.8377C96.8513 23.8309 97.2399 23.8713 97.5506 23.7408C98.6505 23.2796 99.612 22.5938 100.446 21.7386C100.544 21.6377 100.657 21.5274 100.701 21.3997C101.162 20.0886 101.047 18.8474 100.204 17.7125C100.132 17.617 99.9845 17.5162 99.8756 17.5189C99.2772 17.5337 98.6814 17.5982 98.0831 17.6116C97.5882 17.6238 97.053 17.7434 96.6281 17.2217ZM69.4381 24.6162C69.7568 24.6351 69.8267 24.8233 69.824 25.0802C69.8159 25.7996 69.9544 26.4827 70.3471 27.1013C70.4372 27.2438 70.5206 27.3958 70.5824 27.5531C70.6389 27.6983 70.686 27.857 70.694 28.0116C70.7021 28.1918 70.7774 28.2873 70.9374 28.3532C71.595 28.6221 72.3507 28.4487 72.8348 27.9309C73.058 27.6916 73.1185 27.4603 72.9612 27.1577C72.7958 26.8364 72.6667 26.4961 72.5067 26.1304C72.6533 26.1304 72.7514 26.1304 72.8483 26.1304C73.6013 26.1344 74.353 26.1331 75.106 26.1438C75.3333 26.1465 75.4462 26.0685 75.4193 25.8305C75.3951 25.6207 75.3723 25.4096 75.3561 25.1985C75.3508 25.1245 75.3682 25.0479 75.3776 24.9524C75.695 25.0412 75.6412 25.3222 75.7206 25.5226C75.7461 25.5266 75.7717 25.532 75.7972 25.536C75.8806 25.3101 75.9639 25.0829 76.0608 24.8193C75.6977 24.7884 75.4032 24.7763 75.1141 24.7332C74.7483 24.6794 74.6394 24.5517 74.5964 24.198C74.595 24.1846 74.5762 24.1738 74.5668 24.1617C74.5023 24.1725 74.439 24.1832 74.3624 24.1967C74.6824 23.4396 74.6582 23.2661 74.1755 23.2056C74.5359 23.5405 74.4404 23.7637 74.0343 23.8753C74.0975 23.9896 74.1405 24.0689 74.1849 24.1483C74.1647 24.1711 74.1459 24.194 74.1257 24.2169C73.9926 24.1402 73.8595 24.0649 73.7277 23.9896C73.9133 23.6171 73.9133 23.6185 73.5717 23.4652C73.4655 23.4181 73.3579 23.3684 73.2638 23.3025C72.9505 23.0806 72.8899 22.7713 73.0782 22.4392C73.136 22.337 73.1764 22.2267 73.0123 22.1904C72.8146 22.146 72.7743 22.0008 72.7447 21.834C72.6264 21.1402 71.7967 20.4611 71.1432 20.5646C70.9146 20.6009 70.6792 20.5969 70.4466 20.6023C70.0983 20.6117 70.0499 20.6655 69.98 21.0151C69.8132 21.8569 69.8065 22.7041 69.8643 23.5539C69.8899 23.9331 69.9289 24.3164 69.4946 24.5194C69.4717 24.5261 69.4663 24.5611 69.4381 24.6162ZM30.7374 20.5028C30.7374 21.0366 30.7306 21.5355 30.7387 22.0344C30.7481 22.6328 30.7804 23.2298 30.7844 23.8269C30.7871 24.3446 30.7481 24.8637 30.7548 25.3814C30.7616 25.9139 30.8113 25.9408 31.3425 25.8426C31.4043 25.8319 31.4662 25.8198 31.528 25.8103C33.0839 25.575 34.4474 24.9605 35.5918 23.8511C36.018 23.4383 36.1525 22.9865 36.0879 22.4324C36.0785 22.3531 36.053 22.2711 36.0624 22.1931C36.0758 22.0909 36.0853 21.9618 36.1498 21.8986C36.2843 21.7641 36.2197 21.6565 36.1189 21.5866C36.0086 21.51 35.862 21.436 35.7329 21.4387C34.6182 21.4562 33.6029 21.1482 32.6401 20.5969C32.0431 20.2553 31.3963 20.2715 30.7374 20.5028ZM62.8907 24.4616C63.2013 24.7157 63.1879 25.0344 63.1892 25.3451C63.1946 26.1586 63.2121 26.2097 64.0014 26.4155C64.6025 26.5728 65.217 26.6145 65.7415 26.1869C66.1005 25.8937 66.4313 25.5629 66.7688 25.2429C66.824 25.1904 66.8872 25.1098 66.8872 25.0425C66.8845 24.4724 66.8952 23.8995 66.8509 23.332C66.7877 22.5239 66.6626 21.7211 66.6061 20.9129C66.5927 20.7287 66.7513 20.5297 66.8388 20.3414C66.8656 20.2849 66.9248 20.2432 66.9692 20.1948C66.4394 20.4705 65.8773 20.3791 65.3286 20.3912C65.0247 20.3992 64.7195 20.3965 64.4183 20.4328C64.2878 20.449 64.1345 20.5189 64.0471 20.6144C63.5146 21.1913 63.1758 21.8569 63.204 22.6664C63.2148 22.9703 63.2282 23.2742 63.2484 23.5768C63.2699 23.9224 63.317 24.272 62.8907 24.4616ZM39.6044 15.9092C39.7308 15.924 39.7886 15.9335 39.8478 15.9375C40.4892 15.9792 41.1293 16.0222 41.7707 16.0585C41.9213 16.0666 42.0746 16.0558 42.2252 16.0504C42.4484 16.0437 42.5439 15.924 42.5372 15.7049C42.5264 15.3929 42.5183 15.0796 42.5143 14.7662C42.5049 13.9352 42.4847 13.1028 42.7227 12.2906C42.755 12.1831 42.7322 12.0607 42.7496 11.9477C42.7752 11.7783 42.7792 11.5914 42.8572 11.4475C42.9581 11.2592 42.9688 11.1288 42.8075 10.9769C42.5937 10.7778 42.4807 10.5439 42.5533 10.2319C42.6219 9.93606 42.4995 9.68191 42.2319 9.55954C41.7989 9.36187 41.5421 9.02434 41.3794 8.60614C41.2584 8.29416 41.0459 8.15028 40.7272 8.16507C40.3735 8.18121 39.95 8.10456 39.681 8.26862C38.9952 8.68817 38.5017 9.2879 38.5864 10.1835C38.6026 10.361 38.5891 10.5412 38.5891 10.72C38.5891 11.2081 38.6093 11.2283 39.1014 11.235C39.1377 11.235 39.1741 11.2297 39.209 11.2337C39.4981 11.2687 39.7846 11.3211 40.075 11.3372C40.3184 11.3507 40.5658 11.3372 40.8092 11.3103C41.0566 11.2821 41.2987 11.2216 41.612 11.1624C41.3216 11.855 41.3162 12.495 41.3417 13.1405C41.3538 13.435 41.3606 13.7335 41.3202 14.0226C41.2974 14.184 41.2019 14.3642 41.0835 14.4771C40.7043 14.8415 40.2955 15.175 39.9069 15.53C39.8007 15.6269 39.724 15.756 39.6044 15.9092ZM34.4676 6.63076C34.2995 6.8244 34.0373 7.01131 33.9404 7.26143C33.7643 7.71459 33.6688 8.20273 33.576 8.68413C33.5249 8.95173 33.5774 9.22336 33.8315 9.40086C34.8616 10.123 35.9602 10.7187 37.1355 11.1705C37.4206 11.2794 37.7177 11.305 37.9988 11.1732C38.0902 11.1302 38.2032 10.997 38.2005 10.9083C38.1709 9.72628 38.3323 8.52546 37.9087 7.37842C37.8589 7.2426 37.7446 7.08124 37.6209 7.02879C36.7361 6.65497 35.8244 6.43309 34.8535 6.62672C34.7459 6.64824 34.6316 6.63076 34.4676 6.63076ZM51.22 10.7698C51.2885 11.1732 51.0868 11.1127 50.9161 11.0925C50.8367 11.0831 50.7601 11.0535 50.6807 11.0387C50.5126 11.0064 50.3257 10.9163 50.1805 10.9607C49.851 11.0629 49.5512 11.0562 49.2405 10.9204C49.1787 10.8935 49.0698 10.8935 49.0214 10.9298C48.6959 11.1799 48.5776 11.1571 48.4041 10.8155C48.3826 10.7738 48.2213 10.7442 48.2078 10.7644C48.0881 10.9486 47.9241 11.1355 47.8972 11.3386C47.8568 11.6425 47.8784 11.9693 47.9456 12.2705C48.0438 12.7062 48.1823 13.1526 48.5776 13.4175C48.8344 13.5896 49.1424 13.6851 49.4019 13.8034C49.4745 13.7147 49.5458 13.6259 49.6372 13.513C49.7004 13.7335 49.7435 13.8801 49.7757 13.989C50.2195 13.8734 50.6458 13.751 51.0774 13.6555C51.3006 13.6058 51.5333 13.6058 51.7619 13.5829C51.9811 13.56 52.0792 13.6784 52.0496 13.8976C52.0268 14.0697 51.9824 14.266 52.0389 14.4193C52.215 14.9007 52.5983 15.1939 53.0622 15.3835C53.2074 15.4426 53.3056 15.405 53.3217 15.2288C53.3486 14.9437 53.3984 14.6614 53.4065 14.3763C53.4226 13.8586 53.4401 13.3395 53.4065 12.8231C53.393 12.6093 53.2881 12.3727 53.1536 12.2032C52.8726 11.8469 52.5472 11.5255 52.2325 11.196C52.1801 11.1409 52.0819 11.0737 52.0227 11.0871C51.7323 11.1544 51.4956 11.0723 51.22 10.7698ZM56.9377 13.993C56.9968 13.9863 57.0264 13.9904 57.0466 13.9796C57.1165 13.9393 57.1851 13.8976 57.2496 13.8492C58.0578 13.2602 58.6952 12.5233 59.1712 11.6411C59.3299 11.3453 59.4267 11.0629 59.3003 10.7281C59.2062 10.478 59.1578 10.2117 59.0717 9.95891C58.983 9.69669 58.9292 9.44389 59.0663 9.18033C59.1416 9.0351 59.0865 8.93963 58.9534 8.84415C58.8471 8.7675 58.7302 8.64917 58.7019 8.52949C58.5419 7.85579 58.4061 7.17537 58.2609 6.49763C58.2474 6.43712 58.2299 6.37527 58.2003 6.32148C58.0188 6.00144 57.8319 5.68409 57.6436 5.36136C57.4325 5.40439 57.177 5.44473 56.9309 5.51734C56.8637 5.53751 56.783 5.6545 56.783 5.72846C56.7817 5.82931 56.8287 6.00009 56.8933 6.02026C57.1528 6.10364 57.4285 6.14129 57.723 6.20045C57.6974 6.28114 57.6759 6.34972 57.6517 6.4304C57.5495 6.39812 57.4729 6.35375 57.3975 6.35644C57.216 6.36047 57.0251 6.35778 56.8583 6.4183C56.8086 6.43578 56.8287 6.64959 56.818 6.7733C56.8166 6.79078 56.8153 6.80961 56.8166 6.82709C56.861 8.09515 56.9081 9.36321 56.9511 10.6326C56.9578 10.841 57.0224 11.067 56.7803 11.2095C56.7494 11.227 56.7548 11.3238 56.7602 11.3816C56.7723 11.5147 56.8032 11.6465 56.8113 11.7796C56.8529 12.5085 56.8933 13.24 56.9377 13.993ZM66.4259 15.885C66.516 15.8945 66.5779 15.9052 66.6384 15.9052C67.3269 15.8985 68.014 15.885 68.7025 15.881C69.7164 15.8756 70.2126 15.4615 70.3471 14.4597C70.3969 14.0925 70.4372 13.712 70.1602 13.3852C70.101 13.3167 70.105 13.1808 70.1077 13.0759C70.1171 12.7102 70.1387 12.3431 70.1548 11.9773C70.1615 11.8388 70.1387 11.7178 69.9585 11.7312C69.2122 11.7837 68.5533 11.5363 67.9239 11.1638C67.6926 11.0266 67.6079 11.0777 67.5676 11.344C67.5313 11.582 67.5353 11.8348 67.4546 12.0567C67.3081 12.4614 67.2986 12.9321 66.9275 13.2427C66.8925 13.2723 66.9167 13.3825 66.9262 13.4538C66.9409 13.5641 67.0216 13.7133 66.9759 13.7765C66.7366 14.1073 66.8186 14.5121 66.6935 14.8684C66.5806 15.1845 66.5187 15.5206 66.4259 15.885ZM28.7082 13.6152C28.6584 12.772 28.0574 11.5416 27.428 11.0226C27.3487 10.9567 27.2196 10.9352 27.1107 10.9217C26.6723 10.8706 26.2312 10.8007 25.7955 10.9432C25.7794 10.9486 25.7592 10.9432 25.7418 10.9392C24.9551 10.7926 24.194 10.9795 23.4289 11.1194C23.2272 11.1557 23.1142 11.2673 23.086 11.4744C23.0698 11.5887 23.0107 11.6976 23.0026 11.8119C22.9945 11.9316 23.0241 12.054 23.0362 12.1763C23.0671 12.5179 23.1532 12.8675 23.1142 13.201C23.0685 13.5802 23.1303 13.6838 23.5163 13.6542C23.9331 13.6219 24.3527 13.6259 24.7709 13.6259C24.9309 13.6259 25.0909 13.6743 25.2509 13.6703C25.7297 13.6596 26.2084 13.6246 26.6871 13.6179C27.3554 13.6085 28.0237 13.6152 28.7082 13.6152ZM81.8887 15.7277C81.8753 15.643 81.8578 15.5583 81.8511 15.4709C81.8175 15.0365 81.5942 14.6694 81.4396 14.2768C81.1666 13.5789 80.9152 12.8716 80.6745 12.1615C80.6139 11.984 80.6422 11.7796 80.6126 11.59C80.6005 11.5121 80.5642 11.3951 80.5091 11.3749C80.2899 11.2942 80.2173 11.1449 80.1917 10.9271C80.1783 10.8141 80.111 10.6689 80.0209 10.6124C79.6068 10.3502 79.1886 10.092 78.6776 10.0436C78.457 10.0221 78.3979 10.0813 78.4032 10.2978C78.4503 11.9679 78.492 13.638 78.5243 15.3082C78.5283 15.5435 78.6278 15.6269 78.8443 15.6363C79.4696 15.6645 80.0949 15.7062 80.7215 15.7277C81.1048 15.7398 81.4867 15.7277 81.8887 15.7277ZM45.002 19.076C45.0531 19.2011 45.0814 19.3127 45.1392 19.4055C45.3382 19.7242 45.2091 20.0066 44.8514 20.0644C44.5193 20.1182 44.1925 20.2096 43.8617 20.2715C43.7635 20.2903 43.656 20.2648 43.5524 20.2567C43.4408 20.2486 43.3279 20.2365 43.2472 20.2298C43.34 20.4974 43.3991 20.7152 43.4892 20.9183C43.6277 21.2303 43.2795 21.2787 43.2243 21.4575C43.3211 21.5422 43.418 21.6296 43.4166 21.7157C43.4139 21.9362 43.5309 22.0626 43.6909 22.1742C44.0419 22.4203 44.3808 22.6879 44.7479 22.9085C44.9361 23.0214 45.1715 23.1021 45.3893 23.1142C45.9245 23.1438 46.4624 23.1236 47.0003 23.1236C47.7815 23.1236 47.8031 23.1223 47.7748 22.3504C47.7533 21.7547 47.6807 21.159 47.6121 20.566C47.5866 20.3441 47.4749 20.1074 47.2168 20.137C46.7972 20.1854 46.6278 19.9945 46.5726 19.6233C46.5659 19.5816 46.5404 19.5427 46.5229 19.5023C46.5081 19.5238 46.4947 19.5453 46.4799 19.5669C46.3145 19.4916 46.1464 19.4203 45.9823 19.3409C45.8559 19.2804 45.7403 19.1877 45.6085 19.1527C45.4444 19.1083 45.2669 19.107 45.002 19.076ZM51.774 8.75271C51.7444 8.53487 51.7484 8.27399 51.6691 8.0427C51.5387 7.66349 51.3585 7.30177 51.189 6.93736C50.9672 6.45998 50.7076 6.34434 50.1765 6.39275C49.8995 6.4183 49.5996 6.41561 49.3401 6.32954C49.1773 6.27576 49.0483 6.25021 48.8882 6.28382C48.7148 6.32013 48.5373 6.36451 48.3611 6.36182C47.7089 6.3524 47.0567 6.3282 46.4046 6.30399C46.1074 6.29324 46.0495 6.35106 46.0872 6.63614C46.1074 6.7854 46.1154 6.94004 46.106 7.0893C46.0845 7.44565 46.0495 7.802 46.02 8.15835C45.9944 8.4757 46.0563 8.57521 46.3629 8.60883C46.7421 8.64917 47.128 8.70565 47.5032 8.67203C48.1419 8.61555 48.747 8.85491 49.4194 8.71506C50.1428 8.56445 50.9282 8.72582 51.774 8.75271ZM24.393 6.5447C24.393 6.54335 24.393 6.54066 24.393 6.53932C24.1792 6.52856 23.9641 6.52049 23.7502 6.50705C23.3536 6.48015 23.1707 6.66303 23.1747 7.05972C23.1761 7.18209 23.1142 7.30446 23.0846 7.42817C23.0725 7.47658 23.055 7.52902 23.0604 7.57743C23.094 7.86117 23.1371 8.14356 23.1707 8.42595C23.2164 8.80784 23.2406 8.83877 23.6265 8.84415C24.0434 8.84953 24.4616 8.83474 24.8785 8.84146C25.0707 8.84415 25.2644 8.8966 25.4553 8.88987C25.9892 8.8697 26.5203 8.81322 27.0542 8.80112C27.6069 8.78902 28.06 8.56849 28.4487 8.20138C28.524 8.13011 28.5791 8.00236 28.5831 7.89748C28.5979 7.5492 28.5858 7.20092 28.5845 6.85129C28.5845 6.61328 28.4756 6.50705 28.2308 6.54201C27.4818 6.65093 26.7489 6.55277 26.0241 6.3672C25.7929 6.30803 25.5925 6.30265 25.3935 6.46133C25.3182 6.52049 25.1945 6.53529 25.0923 6.54066C24.8596 6.55142 24.6257 6.5447 24.393 6.5447ZM33.5572 10.4323C33.49 10.6313 33.459 10.833 33.3582 10.9917C33.2668 11.1369 33.2708 11.2552 33.3703 11.3507C33.5478 11.5228 33.5451 11.7245 33.537 11.9424C33.5276 12.2005 33.5142 12.4628 33.5397 12.7196C33.5572 12.8904 33.5962 13.0948 33.7038 13.2118C33.9969 13.5305 34.3533 13.7927 34.8038 13.8209C35.2031 13.8465 35.6065 13.8061 36.0086 13.8088C36.2278 13.8102 36.4456 13.8411 36.7213 13.8639C36.8195 13.7214 37.0319 13.6421 37.2928 13.6542C37.512 13.6636 37.7016 13.5708 37.7339 13.3449C37.7984 12.8904 37.828 12.4305 37.871 11.9719C37.8899 11.7689 37.7917 11.6842 37.594 11.6183C36.9593 11.4072 36.3031 11.2283 35.7168 10.919C35.027 10.5546 34.325 10.3892 33.5572 10.4323ZM29.4021 6.4304C29.3805 6.42905 29.359 6.42905 29.3375 6.42771C29.2676 6.70337 29.1788 6.97769 29.1304 7.25739C28.8319 8.98938 28.8037 10.7402 28.8104 12.491C28.8104 12.526 28.8211 12.5609 28.8279 12.5972C29.0282 13.7591 29.5782 14.7326 30.4308 15.5368C30.9001 15.9792 31.489 16.0209 32.1049 15.9805C31.9839 15.8608 31.8535 15.7412 31.7042 15.7062C31.4622 15.6497 31.3411 15.5099 31.2631 15.2907C31.048 14.6842 30.8476 14.071 30.5921 13.4807C30.4375 13.1257 30.3756 12.7734 30.3487 12.3955C30.2775 11.3803 30.2519 10.369 30.3998 9.35917C30.4039 9.3269 30.3783 9.29194 30.3743 9.25698C30.346 9.06468 30.3286 8.8697 30.2923 8.67875C30.2573 8.49722 30.2223 8.3103 30.1511 8.14087C30.0193 7.8289 29.8539 7.53306 29.7167 7.22377C29.6011 6.96156 29.5069 6.69396 29.4021 6.4304ZM73.3754 10.5466C73.4265 10.634 73.5596 10.7684 73.5771 10.9177C73.608 11.1799 73.5596 11.4515 73.5596 11.7191C73.5596 11.8576 73.5529 12.0217 73.6188 12.132C73.967 12.7075 74.4444 13.1149 75.149 13.1795C75.3602 13.1997 75.4449 13.1082 75.418 12.8958C75.3871 12.647 75.3844 12.3955 75.344 12.1494C75.2902 11.8186 75.5188 11.4663 75.2607 11.1503C75.2391 11.1234 75.2795 11.0495 75.2835 10.9957C75.305 10.7294 75.3454 10.4632 75.3387 10.1983C75.3266 9.78007 75.2526 9.36186 75.2593 8.945C75.2701 8.31165 75.3373 7.67829 75.3575 7.04493C75.3615 6.91315 75.2916 6.75044 75.2015 6.64959C74.9487 6.36451 74.6582 6.11439 74.4027 5.83201C74.2145 5.62358 74.0047 5.51869 73.7317 5.5523C73.7169 5.58323 73.7035 5.59937 73.7035 5.6155C73.6416 7.053 73.5852 8.49049 73.5152 9.92664C73.5085 10.1257 73.4292 10.3206 73.3754 10.5466ZM35.5756 21.0286C35.6388 21.0286 35.7007 21.0286 35.7639 21.0286C36.1337 21.0272 36.1659 21.0057 36.1538 20.6319C36.1431 20.3145 36.1269 19.9931 36.0745 19.6812C35.9858 19.1513 35.9293 18.6215 35.5299 18.1791C35.3134 17.9384 35.1238 17.7421 34.7997 17.7058C34.3465 17.6547 33.8934 17.5848 33.4389 17.5606C33.2573 17.5511 33.0449 17.6022 32.8889 17.695C32.4519 17.9572 32.035 18.2531 31.6114 18.5395C31.3398 18.7237 31.3384 18.791 31.5321 19.0505C32.5379 20.4046 33.9351 20.9627 35.5756 21.0286ZM60.4487 19.6099C60.4272 19.5816 60.4057 19.5521 60.3841 19.5238C60.3075 19.5494 60.2295 19.5709 60.1555 19.6018C60.0157 19.6596 59.8785 19.7686 59.7373 19.7739C59.1806 19.7914 58.6212 19.7807 58.0645 19.7739C57.8682 19.7713 57.6692 19.7323 57.4755 19.7538C57.3128 19.7726 57.1232 19.8143 57.0062 19.9165C56.4267 20.4167 55.9264 20.9896 55.5916 21.6861C55.5271 21.8192 55.4961 21.9752 55.4827 22.1245C55.476 22.1944 55.5338 22.3235 55.5835 22.3356C55.7812 22.3813 56.0031 22.4553 56.186 22.4042C56.857 22.2173 57.4729 22.3517 58.086 22.6193C58.1506 22.6476 58.3025 22.6099 58.3348 22.5561C58.4868 22.3033 58.7046 22.2764 58.9614 22.3154C59.1026 22.337 59.2479 22.3329 59.3891 22.3504C59.5894 22.3746 59.6903 22.2966 59.7118 22.0936C59.7562 21.6659 59.8355 21.241 59.8516 20.8134C59.8705 20.3186 59.9148 19.86 60.4487 19.6099ZM70.2745 4.79792C69.7258 5.13276 69.4098 5.54154 69.2807 6.11439C69.1772 6.57428 68.9916 7.01535 68.8477 7.46583C68.5304 8.46225 68.213 9.45734 67.9038 10.4551C67.8164 10.7362 67.8836 10.8289 68.166 10.8908C68.9365 11.0575 69.75 10.7079 70.1871 10.0194C70.2153 9.97505 70.2368 9.92126 70.2409 9.87016C70.3 9.05931 70.3727 8.24979 70.4063 7.43893C70.4264 6.93332 70.3928 6.42636 70.3686 5.92075C70.3498 5.55634 70.3081 5.19327 70.2745 4.79792ZM43.4368 22.3961C43.3857 22.6503 43.3494 22.852 43.3037 23.0523C43.2606 23.2393 43.2552 23.3993 43.3776 23.5808C43.4596 23.7032 43.4449 23.9009 43.4435 24.0636C43.4422 24.194 43.3695 24.3244 43.3722 24.4549C43.387 25.017 43.3964 25.5804 43.4475 26.1411C43.5134 26.8619 44.0661 27.3783 44.7896 27.4442C45.0827 27.4711 45.3772 27.5006 45.6703 27.5248C45.9326 27.5464 46.1948 27.5611 46.5041 27.5827C46.453 27.4872 46.4395 27.4442 46.4126 27.4146C45.9406 26.8915 45.7537 26.2447 45.5668 25.5858C45.3893 24.9605 45.1755 24.3433 44.9308 23.7408C44.8312 23.4961 44.6416 23.2635 44.4386 23.0886C44.1441 22.8358 43.7985 22.6409 43.4368 22.3961ZM91.1901 19.0814C91.5881 19.6206 91.9646 20.1397 92.3573 20.648C92.3976 20.7004 92.5603 20.7179 92.6249 20.6803C93.4169 20.2298 94.1888 19.7444 94.9916 19.3141C95.5711 19.0048 95.7446 18.5731 95.5725 17.9667C95.5658 17.9411 95.5644 17.9142 95.5604 17.8873C95.5295 17.691 95.4178 17.6143 95.2202 17.6439C95.0265 17.6735 94.8316 17.7031 94.6366 17.7098C94.092 17.7313 93.546 17.7179 93.0041 17.7663C92.7473 17.7892 92.4501 17.8591 92.2591 18.0151C91.8732 18.3284 91.5491 18.7143 91.1901 19.0814ZM82.5799 9.57567C83.0559 9.71687 83.2173 10.0719 83.3518 10.4538C83.4056 10.6044 83.4674 10.7577 83.5548 10.8908C83.8977 11.4179 84.09 12.0015 84.207 12.6107C84.2917 13.0491 84.6145 13.322 84.8767 13.6555C84.9264 13.2575 84.9721 12.8662 84.9479 12.4802C84.8646 11.1705 84.7651 9.8621 84.6521 8.55504C84.6158 8.12742 84.5136 7.70384 84.2299 7.3569C84.0066 7.08258 83.7754 7.04762 83.4755 7.23588C83.263 7.369 83.06 7.51692 82.8448 7.64602C82.4831 7.8652 82.4804 7.86117 82.6149 8.25651C82.635 8.31568 82.6552 8.37485 82.6767 8.43401C82.8112 8.80919 82.869 9.18033 82.5799 9.57567ZM77.1231 24.545C76.8649 24.6821 76.6188 24.8085 76.3768 24.9443C76.3351 24.9672 76.3015 25.021 76.2826 25.0681C76.1845 25.3168 76.0756 25.5643 76.0003 25.8198C75.8254 26.4155 75.9249 26.9426 76.3956 27.3877C76.5583 27.5423 76.674 27.7481 76.8017 27.9162C76.9389 27.8556 77.1002 27.7413 77.275 27.7171C77.5198 27.6835 77.7753 27.7064 78.0254 27.7252C78.1155 27.7319 78.2217 27.7763 78.2863 27.8395C78.4785 28.0251 78.6534 27.9834 78.8336 27.8355C78.964 27.7279 79.0998 27.6244 79.2168 27.5033C79.2867 27.4307 79.3728 27.3285 79.3714 27.2411C79.3647 26.7718 79.2733 26.3186 79.0326 25.9045C78.769 25.45 78.4207 25.1218 77.8654 25.0613C77.6031 25.0331 77.3463 24.9564 77.0801 24.9013C77.0975 24.7561 77.111 24.6431 77.1231 24.545ZM82.6969 23.289C82.7117 23.2379 82.7251 23.2137 82.7238 23.1895C82.7063 22.4163 82.752 21.6538 83.0143 20.9156C83.0869 20.7126 82.9712 20.574 82.7883 20.4893C82.0945 20.1639 81.3791 19.9192 80.5978 19.9797C80.5144 19.9864 80.3813 20.0886 80.3706 20.1612C80.2643 20.9089 79.9671 21.5839 79.6121 22.2401C79.5503 22.3544 79.5153 22.4822 79.4669 22.6072C79.5234 22.6288 79.5462 22.6422 79.5718 22.6462C79.6068 22.6516 79.6458 22.661 79.678 22.6516C80.0895 22.5198 80.4499 22.657 80.8062 22.8466C80.8883 22.8896 81.0039 22.9206 81.0873 22.8977C81.4127 22.8103 81.7058 22.9017 82.0003 23.0174C82.2303 23.1061 82.4602 23.1962 82.6969 23.289ZM59.9202 13.0813C59.7817 13.3543 59.5706 13.478 59.2936 13.5116C58.394 13.6179 57.61 14.0172 56.8906 14.4354C56.9081 14.6156 56.9444 14.7676 56.9309 14.9142C56.8798 15.4776 57.1663 15.8138 57.723 15.8218C57.9731 15.8259 58.2259 15.8071 58.4747 15.8326C58.7436 15.8608 59.0058 15.9456 59.2748 15.9751C59.4052 15.9899 59.5894 15.9805 59.6701 15.9012C59.8436 15.7304 59.9888 15.7452 60.1703 15.8568C60.3532 15.9684 60.5469 16.0478 60.801 15.9429C60.403 15.6295 60.4796 15.2611 60.6275 14.8873C60.6934 14.7219 60.766 14.5578 60.8508 14.4005C60.9852 14.1517 60.8656 13.9325 60.7392 13.7523C60.6907 13.6838 60.4729 13.7254 60.333 13.7335C60.2228 13.7402 60.1152 13.7739 59.9955 13.7981C59.9673 13.5385 59.9431 13.3099 59.9202 13.0813ZM77.8116 19.5346C77.7685 19.6045 77.7403 19.6381 77.7242 19.6771C77.6166 19.938 77.4606 20.0953 77.1406 20.0886C76.9241 20.0846 76.7008 20.1639 76.4911 20.2352C76.1845 20.3374 75.9559 20.6749 75.9922 20.9855C76.1051 21.9403 76.8999 22.5077 77.7215 22.3881C78.3468 22.2966 78.8322 21.9161 79.3015 21.5261C79.7829 21.1267 79.9456 20.5861 79.9497 19.9299C79.4857 19.9098 79.0339 19.864 78.5834 19.8775C78.2634 19.8882 77.9474 19.9743 77.8116 19.5346ZM18.6538 14.7878C18.6363 15.1091 18.7143 15.3727 18.9698 15.5623C19.1621 15.7049 19.345 15.7788 19.4795 15.5475C19.4687 15.4386 19.423 15.323 19.4593 15.288C19.5897 15.1629 19.7471 15.0661 19.8909 14.9545C19.9676 14.8953 20.0778 14.8402 20.1034 14.7609C20.176 14.5309 20.2137 14.2889 20.2621 14.071C20.4181 14.0576 20.5082 14.0495 20.5996 14.0428C20.6077 14.0213 20.6144 13.9998 20.6225 13.9782C20.4396 13.8774 20.2486 13.7886 20.0778 13.6717C19.9891 13.6098 19.8667 13.4901 19.8761 13.4081C19.9622 12.5569 19.6193 11.6694 20.0483 10.9688C19.9407 10.6945 19.8694 10.5116 19.7699 10.2574C19.544 10.3596 19.2872 10.4497 19.0572 10.5829C18.6202 10.837 18.5893 10.997 18.6565 11.4919C18.6995 11.8106 18.639 12.1427 18.6323 12.4695C18.6296 12.5784 18.6632 12.6873 18.6592 12.7962C18.6538 12.9455 18.6834 13.1486 18.6 13.2292C18.4239 13.4027 18.4575 13.5063 18.6417 13.6259C18.6014 13.6743 18.5624 13.7039 18.5489 13.7416C18.5113 13.8492 18.483 13.9594 18.4521 14.0697C18.4776 14.0764 18.5032 14.0831 18.5287 14.0885C18.5597 14.0307 18.5906 13.9742 18.6283 13.9056C18.9389 14.0643 19.2374 14.2082 19.5252 14.3722C19.5911 14.4099 19.6166 14.5161 19.661 14.5914C19.5749 14.6156 19.4768 14.6788 19.4028 14.6573C19.2414 14.6103 19.0989 14.4892 18.9375 14.457C18.7977 14.4287 18.5946 14.4287 18.5018 14.5094C18.3284 14.6614 18.2141 14.8805 18.0339 15.1266C18.2047 15.1387 18.3096 15.1468 18.4144 15.1549C18.3768 15.0742 18.3391 14.9922 18.3109 14.9316C18.4131 14.8873 18.5234 14.8415 18.6538 14.7878ZM18.5529 6.30399C18.5879 6.39006 18.6767 6.51108 18.6793 6.63345C18.6995 7.30177 18.6874 7.97009 18.7089 8.63706C18.7251 9.14805 19.2993 9.6456 19.8829 9.63618C19.8923 9.31345 19.9165 8.98669 19.9084 8.65993C19.8856 7.76032 19.8492 6.86205 19.817 5.96244C19.7981 5.41918 19.782 4.87591 19.7511 4.33265C19.7457 4.23449 19.7013 4.09598 19.6301 4.05295C19.3988 3.9131 19.146 3.80956 18.8851 3.6845C18.7721 4.57605 18.6646 5.42321 18.5529 6.30399ZM33.4698 27.03C33.5626 26.7489 33.6191 26.7073 33.9808 26.7543C34.3546 26.8027 34.6908 26.714 35.0001 26.5096C35.4559 26.2097 35.7827 25.809 35.9508 25.2846C35.9858 25.1756 36.0799 25.0264 36.0409 24.9618C35.893 24.7265 36.014 24.5087 36.0342 24.2854C36.0476 24.1416 36.0678 23.9977 36.0839 23.8538C35.3887 24.5759 34.6357 25.1649 33.7482 25.5817C32.8701 25.9932 31.9274 26.1748 30.9673 26.3684C31.0655 26.5069 31.1623 26.6642 31.286 26.6898C31.8172 26.796 32.3564 26.8632 32.8929 26.9453C33.0731 26.9735 33.2533 26.9977 33.4698 27.03ZM48.1392 23.2393C48.3947 23.2567 48.6341 23.2957 48.8708 23.2863C49.5929 23.2594 50.3163 23.2204 51.0371 23.1693C51.1823 23.1586 51.3517 23.1115 51.458 23.0201C51.7067 22.8076 51.9353 22.5682 52.1518 22.3222C52.2702 22.1877 52.1747 22.0747 52.0416 22.0008C51.4042 21.6417 50.752 21.3553 49.9869 21.475C49.6883 21.5221 49.3804 21.5032 49.0792 21.5342C48.9824 21.5436 48.8492 21.5893 48.8035 21.6633C48.5077 22.142 48.2481 22.6382 48.1392 23.2393ZM5.04535 18.6417C5.02114 18.639 4.99694 18.6363 4.97273 18.6336C4.79658 19.1164 4.78313 19.6301 4.84095 20.1263C4.90012 20.6224 5.06148 21.1079 5.17847 21.6014C4.99694 21.4817 4.8154 21.3634 4.5626 21.1966C4.60025 21.3903 4.59353 21.518 4.64866 21.6054C4.89205 21.9793 5.122 22.3719 5.42187 22.696C5.6034 22.891 5.89117 23.0389 6.15608 23.094C6.85533 23.2406 7.56668 23.328 8.27399 23.4342C8.3614 23.4477 8.45284 23.4356 8.54159 23.4356C8.47032 23.3159 8.38829 23.2635 8.31433 23.2016C7.75628 22.7269 7.16461 22.2872 6.65093 21.7681C5.82797 20.9344 5.17847 19.9864 5.08165 18.7627C5.08031 18.7224 5.05879 18.682 5.04535 18.6417ZM99.1091 23.6037C99.1198 23.6359 99.1306 23.6669 99.1413 23.6991C99.7303 23.609 100.323 23.5418 100.904 23.4154C101.126 23.367 101.322 23.1895 101.523 23.0604C101.663 22.969 101.782 22.8453 101.925 22.7592C102.523 22.4002 102.989 21.9161 103.306 21.2975C103.346 21.2195 103.311 21.1025 103.311 21.003C103.221 21.0433 103.112 21.0635 103.044 21.1267C102.874 21.284 102.724 21.4629 102.565 21.6323C102.542 21.6162 102.518 21.6014 102.494 21.5853C102.925 20.6897 102.917 19.7753 102.656 18.8421C102.338 21.077 100.752 22.3612 99.1091 23.6037ZM88.7736 10.2494C88.5397 10.3085 88.3339 10.3435 88.1389 10.4134C87.7261 10.5587 87.7517 10.5681 87.7691 10.9917C87.796 11.6775 87.8552 12.374 87.7638 13.0464C87.7113 13.4296 87.632 13.7752 87.7826 14.145C87.9372 14.5229 88.0636 14.9128 88.2304 15.284C88.2761 15.3862 88.4254 15.444 88.5276 15.522C88.5961 15.4171 88.7185 15.3149 88.7252 15.206C88.7629 14.5013 88.7817 13.7967 88.7925 13.0907C88.7992 12.647 88.7777 12.2019 88.775 11.7581C88.771 11.2781 88.7736 10.798 88.7736 10.2494ZM93.1937 8.54159C93.1735 8.54697 93.152 8.55235 93.1318 8.55907C93.1238 8.62496 93.113 8.69085 93.109 8.75809C93.0834 9.13192 93.0552 9.5044 93.0377 9.87957C93.031 10.0275 93.0216 10.1862 93.0673 10.322C93.2018 10.7227 93.2367 11.1194 93.1318 11.5322C93.0471 11.8684 93.0861 12.2059 93.2919 12.4816C93.6321 12.9374 93.9938 13.3785 94.373 13.8021C94.5841 14.0374 94.7226 14.0011 94.9015 13.7349C95.1086 13.4269 95.0817 13.1109 94.919 12.7962C94.2479 11.4919 93.663 10.1526 93.2905 8.7285C93.273 8.66127 93.2273 8.6021 93.1937 8.54159ZM14.2472 8.55101C14.1504 8.87374 14.0912 9.15343 13.985 9.41162C13.5103 10.5587 13.0316 11.703 12.534 12.8393C12.374 13.205 12.3673 13.521 12.6228 13.8384C12.7694 14.0199 12.8998 14.0428 13.0544 13.8545C13.3395 13.5089 13.6085 13.1486 13.9204 12.8299C14.3198 12.4224 14.383 11.9545 14.3144 11.422C14.2754 11.1234 14.2983 10.8168 14.301 10.5143C14.305 9.90916 14.3158 9.30404 14.3198 8.69892C14.3198 8.67068 14.2916 8.6411 14.2472 8.55101ZM73.6403 12.8379C73.6403 13.6004 73.6403 14.3857 73.6403 15.1697C73.6403 15.4211 73.7707 15.5677 74.0155 15.6161C74.2427 15.6618 74.4727 15.7035 74.6986 15.756C75.0697 15.842 75.1329 15.799 75.2956 15.4601C75.574 14.8819 75.3911 14.2593 75.4812 13.6636C75.4866 13.6259 75.3521 13.5426 75.2714 13.5224C75.0818 13.474 74.8694 13.4888 74.6972 13.4094C74.3382 13.2454 73.9993 13.0356 73.6403 12.8379ZM52.0913 28.8548C52.1774 28.6181 52.2581 28.4029 52.3307 28.1864C52.3441 28.1488 52.3307 28.099 52.3226 28.056C52.2661 27.7629 52.1774 27.4724 52.1559 27.1766C52.1088 26.5069 52.0833 25.8345 52.3374 25.1891C52.3616 25.1286 52.3509 25.0479 52.3361 24.9807C52.2729 24.6956 52.1908 24.4145 52.1371 24.1295C52.0792 23.8229 51.9528 23.7301 51.5978 23.7812C51.3127 23.8229 51.4687 24.034 51.4728 24.1617C51.4997 24.9363 51.6032 25.7176 51.1514 26.4222C51.4365 26.558 51.4607 26.5835 51.3961 26.913C51.3343 27.2277 51.2509 27.5383 51.1608 27.8449C51.0895 28.091 50.9967 28.3303 50.9039 28.5966C51.3248 28.6894 51.7148 28.7727 52.0913 28.8548ZM42.8048 29.8122C42.3933 29.5123 42.0235 29.2514 41.6631 28.9771C41.569 28.9059 41.4587 28.8037 41.4385 28.7001C41.409 28.5495 41.3444 28.5146 41.2126 28.5038C40.9437 28.4809 40.7299 28.3491 40.6169 28.1058C40.4636 27.7763 40.313 27.4415 40.2014 27.0972C40.0454 26.6104 39.4874 26.3509 38.9979 26.5889C39.0329 26.6831 39.0678 26.7812 39.1055 26.878C39.2036 27.1241 39.3489 27.3635 39.3932 27.619C39.4914 28.1905 39.7724 28.6409 40.2175 28.9852C40.5766 29.2635 40.9598 29.511 41.3431 29.7571C41.7868 30.0408 42.2588 30.0005 42.8048 29.8122ZM38.9091 20.6682C38.9239 20.7112 38.9374 20.7556 38.9522 20.7986C39.2399 20.8712 39.5277 20.9492 39.8182 21.0165C39.9984 21.0581 40.0911 20.9748 40.1503 20.7959C40.2337 20.5445 40.3386 20.2957 40.4663 20.0631C40.6505 19.7255 40.8738 19.4095 41.0593 19.0734C41.261 18.7089 41.5421 18.4306 41.9038 18.2329C42.1553 18.0957 42.4161 17.9761 42.6703 17.8456C42.7308 17.8147 42.7833 17.7676 42.872 17.7044C41.3753 17.3898 39.8827 18.3432 39.4833 19.8143C39.3906 20.1558 39.3879 20.5485 38.9091 20.6682ZM45.8949 13.6461C46.2217 13.5641 46.5807 13.4619 46.9451 13.3852C47.4171 13.2857 47.678 12.9966 47.674 12.5233C47.6699 12.1575 47.6457 11.7918 47.6363 11.4273C47.6323 11.2579 47.5556 11.188 47.3875 11.1893C46.9949 11.1934 46.6009 11.1934 46.2082 11.1893C45.9823 11.1866 45.8788 11.2888 45.8882 11.5147C45.907 11.9074 45.9312 12.2987 45.9339 12.6914C45.9366 12.998 45.9097 13.3032 45.8949 13.6461ZM87.8229 4.61101C87.8229 5.04669 87.8216 5.48104 87.8229 5.91538C87.8256 6.67514 87.8256 7.43489 87.835 8.19465C87.8418 8.7285 88.2156 9.2126 88.693 9.28118C88.7158 9.14671 88.7642 9.01089 88.7589 8.87642C88.7091 7.67963 88.6499 6.48419 88.5908 5.28874C88.5679 4.81003 88.3675 4.6258 87.8229 4.61101ZM96.3443 5.72712C96.3457 5.74998 96.347 5.77284 96.347 5.79435C97.369 6.07674 98.391 6.36047 99.4358 6.64959C99.4574 6.4936 99.495 6.35241 99.4937 6.2139C99.4883 5.76746 99.4762 5.32101 99.4533 4.87592C99.4345 4.49671 99.3457 4.41065 98.9719 4.46847C98.7877 4.49671 98.5873 4.57201 98.4421 4.68497C97.8141 5.17713 97.1202 5.53214 96.3443 5.72712ZM52.2298 21.7708C52.2204 21.6122 52.2191 21.5167 52.2097 21.4226C52.1653 20.9869 52.0685 20.5512 52.0846 20.1182C52.1142 19.2898 51.7699 18.6551 51.2038 18.0984C50.7211 17.6238 50.4454 17.5874 49.8067 17.9478C50.3163 18.249 50.7211 18.6242 50.8407 19.2374C51.1984 19.3167 51.2509 19.3813 51.2751 19.7713C51.3006 20.2083 51.3316 20.644 51.3544 21.081C51.3638 21.2706 51.4472 21.3983 51.622 21.475C51.8062 21.5584 51.9864 21.6525 52.2298 21.7708ZM11.1544 5.81183C11.1086 5.77283 11.0912 5.74594 11.0696 5.74056C10.2682 5.55768 9.57971 5.16637 8.93559 4.66345C8.76885 4.53436 8.4878 4.53301 8.25517 4.51284C8.0938 4.49939 8.00908 4.61504 8.00371 4.79254C7.99429 5.13141 7.95395 5.47028 7.95126 5.80914C7.94992 6.0875 7.98354 6.36585 8.00505 6.68455C9.09561 6.38199 10.1122 6.10094 11.1544 5.81183ZM66.9383 25.6907C66.4447 26.0457 66.0212 26.4034 65.5478 26.679C65.0355 26.9762 64.4707 26.7799 63.9154 26.7153C63.9799 26.8068 64.0512 26.8807 64.1319 26.9426C64.7208 27.3931 65.3932 27.6526 66.122 27.7534C66.2834 27.775 66.5281 27.7494 66.6142 27.6459C66.8145 27.4052 66.9436 27.1053 67.0969 26.8269C67.109 26.8054 67.0754 26.761 67.0687 26.7261C67.0364 26.5351 67.0001 26.3455 66.9759 26.1532C66.9571 26.0053 66.9517 25.8574 66.9383 25.6907ZM56.3541 27.8677C56.3823 27.3164 56.4374 26.7557 56.428 26.1963C56.4226 25.9206 56.3164 25.6396 56.2209 25.3733C56.1429 25.1555 55.8605 25.0896 55.5176 25.1703C55.281 25.2267 55.3563 25.4204 55.359 25.5656C55.3684 26.0658 55.3953 26.5647 55.4128 27.0636C55.441 27.8503 55.4719 27.8825 56.2626 27.896C56.272 27.8973 56.2801 27.8919 56.3541 27.8677ZM64.8015 9.32555C64.23 9.72493 63.7136 10.0732 63.2161 10.4484C63.1395 10.5062 63.1072 10.6945 63.1341 10.802C63.2699 11.3655 63.4299 11.9235 63.5886 12.4816C63.6182 12.5851 63.6773 12.6806 63.7231 12.7801C63.7567 12.7815 63.7916 12.7815 63.8253 12.7828C64.144 11.6532 64.4626 10.5237 64.8015 9.32555ZM39.2426 25.5441C39.7523 25.1595 40.0132 24.6942 39.9647 24.0609C39.9352 23.679 39.9311 23.2904 39.9688 22.9098C40.0226 22.3598 39.7415 22.0035 39.33 21.6364C39.2184 22.9582 39.0611 24.2276 39.2426 25.5441ZM97.9849 4.28021C97.9782 4.30576 97.9715 4.33131 97.9647 4.35686C97.7267 4.39989 97.4753 4.51284 97.2534 4.47116C96.6442 4.3582 96.0606 4.52763 95.4663 4.55184C95.3923 4.55453 95.2766 4.59084 95.2538 4.64328C95.1193 4.96332 94.8544 5.14889 94.5909 5.34118C94.5814 5.34791 94.5855 5.37346 94.5828 5.40708C95.9208 5.58592 97.1377 5.31563 98.2377 4.46712C98.1395 4.39451 98.0629 4.33669 97.9849 4.28021ZM12.8554 5.42725C12.8662 5.4017 12.8769 5.37615 12.8877 5.3506C12.8447 5.31967 12.8057 5.27664 12.7586 5.25781C12.5313 5.16772 12.3686 5.02787 12.2893 4.78178C12.2651 4.70782 12.1468 4.62446 12.0661 4.61773C11.4811 4.56932 10.8948 4.54512 10.3099 4.50209C10.0826 4.4846 9.84327 4.47519 9.63753 4.39317C9.44927 4.31786 9.36186 4.35955 9.2637 4.51822C10.3408 5.34791 11.5363 5.63702 12.8554 5.42725ZM48.0532 26.3536C48.0518 25.9663 47.9819 25.8883 47.5933 25.8453C47.4333 25.8278 47.2544 25.8574 47.1172 25.7942C46.8241 25.6597 46.5404 25.7122 46.2499 25.7646C46.0469 25.8009 46.0025 25.9139 46.0912 26.0941C46.3252 26.5688 46.6775 26.8996 47.2047 27.0219C47.7587 27.151 48.0545 26.9197 48.0532 26.3536ZM15.2261 20.9573C15.7291 20.3064 16.1836 19.7188 16.6609 19.1016C16.1432 18.9362 15.795 18.4844 15.2261 18.4696C15.2261 19.2912 15.2261 20.0805 15.2261 20.9573ZM101.321 20.6023C101.384 20.5794 101.407 20.5781 101.415 20.5673C101.878 19.9528 102.137 19.2589 102.191 18.4938C102.197 18.4118 102.143 18.2786 102.075 18.2437C101.62 18.0043 101.154 17.7838 100.69 17.5579C100.685 17.5552 100.669 17.5767 100.642 17.6009C101.352 18.4803 101.474 19.5023 101.321 20.6023ZM6.70741 17.7206C6.59445 17.7071 6.42502 17.6345 6.3013 17.6816C6.03236 17.7838 5.75401 17.9102 5.54692 18.0998C5.45145 18.1858 5.48641 18.4494 5.51196 18.6256C5.59399 19.1998 5.82393 19.7215 6.13456 20.2083C6.17356 20.2688 6.22735 20.3199 6.31744 20.4261C6.31744 19.9071 6.26769 19.4566 6.33089 19.0223C6.39409 18.5893 6.57159 18.1737 6.70741 17.7206ZM72.1746 19.462C72.7824 19.6596 72.9478 19.6112 73.2732 19.1298C73.6215 18.6148 73.9953 18.1267 74.5681 17.8349C74.6098 17.8134 74.6354 17.7623 74.7174 17.6695C74.2656 17.6547 73.8568 17.5202 73.5112 17.8107C72.9666 18.2692 72.5161 18.8098 72.1746 19.462ZM85.3621 27.3393C84.8659 27.1013 84.402 26.8767 83.9381 26.6548C83.6611 26.5217 83.4836 26.6333 83.4741 26.948C83.4688 27.1174 83.4876 27.2895 83.4674 27.4563C83.4204 27.8408 83.4567 27.8879 83.8574 27.9188C84.4383 27.9632 84.8767 27.6526 85.3621 27.3393ZM86.0667 18.8461C86.0788 18.869 86.0923 18.8918 86.1044 18.916C86.3962 18.8394 86.6947 18.7802 86.9798 18.6807C87.7947 18.3983 88.3635 17.812 88.8355 17.1208C88.8826 17.0509 88.8463 16.9258 88.8489 16.8263C88.7629 16.8519 88.6593 16.8546 88.5921 16.9057C88.1309 17.2459 87.6764 17.5955 87.2232 17.9451C86.8359 18.2423 86.4513 18.5462 86.0667 18.8461ZM29.9117 5.10452C29.5755 5.6935 29.827 7.17268 30.3393 7.55995C30.4281 7.17268 30.5276 6.79616 30.5948 6.41292C30.6177 6.28113 30.5948 6.11305 30.5276 6.00144C30.3407 5.6935 30.1201 5.40573 29.9117 5.10452ZM63.0843 18.2706C63.1233 18.8259 63.161 19.3127 63.1892 19.8008C63.1986 19.9743 63.239 20.1209 63.4474 20.0765C63.6424 20.0335 63.949 20.1289 63.9543 19.7847C63.9597 19.4472 63.9382 19.1083 63.9019 18.7721C63.8912 18.678 63.8037 18.5583 63.7177 18.5126C63.5388 18.4171 63.3398 18.3647 63.0843 18.2706ZM83.7781 25.891C84.3321 26.4168 85.0031 26.8121 85.8408 26.831C86.2227 26.839 86.5213 26.6481 86.7095 26.3872C85.7171 26.2178 84.7314 26.051 83.7781 25.891ZM36.966 28.2362C36.8248 28.1058 36.9553 28.021 37.1166 27.9323C37.3063 27.8274 37.5685 27.8153 37.6572 27.5477C37.547 27.5181 37.4528 27.4939 37.3587 27.4684C37.4999 27.1201 37.3937 26.9695 37.0064 26.9614C36.8921 27.233 36.7805 27.5074 36.6621 27.7776C36.646 27.814 36.5909 27.8328 36.5653 27.8664C36.3797 28.1098 36.2157 28.3586 36.3112 28.6894C36.3515 28.8319 36.3878 28.9744 36.4268 29.1237C36.7321 29.0901 36.8356 28.9637 36.8679 28.5818C36.8746 28.489 36.919 28.3976 36.966 28.2362ZM79.2329 9.07678C79.0258 8.41115 78.8241 7.76435 78.6224 7.11889C78.5955 7.12427 78.5686 7.1283 78.5418 7.13368C78.449 7.91227 78.3333 8.69085 78.4154 9.52323C78.7112 9.36186 78.968 9.22201 79.2329 9.07678ZM79.7722 27.2263C79.8367 27.1994 79.8717 27.1914 79.9013 27.1739C80.3948 26.8646 80.4069 25.7955 79.9214 25.4553C79.8851 25.4298 79.8434 25.4002 79.8017 25.3962C79.5772 25.38 79.3526 25.3706 79.05 25.3545C79.5597 25.9246 79.6861 26.5526 79.7722 27.2263ZM59.7226 13.0881C59.6715 12.6255 59.619 12.1615 59.5679 11.6976C59.5477 11.6922 59.5289 11.6855 59.5087 11.6801C59.1255 12.2395 58.7423 12.7989 58.3577 13.3583C58.3711 13.3812 58.3859 13.4041 58.3994 13.4269C58.8431 13.314 59.2869 13.1997 59.7226 13.0881ZM102.468 4.74413C102.495 4.76968 102.521 4.79389 102.547 4.81944C102.663 4.70514 102.835 4.60832 102.876 4.47116C102.911 4.35282 102.837 4.15112 102.742 4.0543C102.515 3.82032 102.248 3.62534 101.996 3.41422C102.042 3.31874 102.082 3.23806 102.129 3.13855C101.848 3.22461 101.708 3.33353 101.747 3.47338C101.859 3.88083 101.996 4.28156 102.128 4.7011C102.231 4.60832 102.305 4.54243 102.402 4.45502C102.429 4.57604 102.449 4.65942 102.468 4.74413ZM11.5268 18.2517C11.6963 18.011 11.8267 17.7986 11.984 17.6076C12.1952 17.3494 12.2153 17.1666 12.0177 16.8532C11.8294 17.0738 11.5968 17.1531 11.305 17.1195C11.0992 17.0966 10.9701 17.3239 11.0723 17.5054C11.2108 17.7528 11.3655 17.9895 11.5268 18.2517ZM87.7355 18.8031C87.7476 18.8326 87.7597 18.8622 87.7718 18.8932C88.1604 18.7076 88.5639 18.5462 88.9337 18.3284C89.4796 18.007 89.4702 17.9895 89.1703 17.4449C89.1636 17.4315 89.1448 17.4247 89.1434 17.4234C88.6728 17.8846 88.2035 18.3445 87.7355 18.8031ZM5.8441 9.95622C6.09422 9.60122 6.34165 9.26639 6.5689 8.91811C6.61059 8.85491 6.60252 8.72313 6.56352 8.65051C6.4035 8.3493 6.29593 8.33181 6.00816 8.53487C5.98664 8.69354 5.94361 8.84415 5.87638 8.98266C5.82662 9.08485 5.74191 9.17092 5.6814 9.26908C5.50658 9.55147 5.53886 9.71283 5.8441 9.95622ZM91.927 2.56167C91.7266 2.54823 91.5532 2.50519 91.3945 2.53612C91.2882 2.55629 91.1565 2.66521 91.1175 2.76472C91.0664 2.89516 91.0314 3.11031 91.1027 3.19503C91.2681 3.39136 91.5007 3.53255 91.7374 3.72081C91.8046 3.31336 91.8624 2.95971 91.927 2.56167ZM90.0511 27.8745C90.0901 27.3326 90.1251 26.8686 90.1627 26.3576C89.8104 26.5029 89.5119 26.6266 89.1905 26.7597C89.4796 27.1335 89.7405 27.4711 90.0511 27.8745ZM33.533 5.82931C33.646 5.42456 33.7764 5.03325 33.8557 4.63252C33.8799 4.50881 33.7737 4.35148 33.7038 4.22373C33.689 4.19684 33.5182 4.20356 33.5034 4.23583C33.3878 4.47116 33.2493 4.70917 33.2103 4.96063C33.1914 5.08703 33.3663 5.24302 33.4362 5.35732C33.3716 5.39094 33.2197 5.44742 33.2251 5.47028C33.26 5.63164 33.3165 5.79435 33.533 5.82931ZM7.71728 3.33353C7.46851 3.12241 7.18074 2.8723 6.88625 2.63429C6.82574 2.58453 6.73296 2.57512 6.65496 2.54688C6.63479 2.63563 6.57428 2.74186 6.60252 2.81179C6.71548 3.08611 6.85667 3.34967 6.98307 3.60786C6.98307 3.70333 6.98307 3.81091 6.98307 3.89025C7.23857 3.69661 7.46851 3.52179 7.71728 3.33353ZM72.7057 20.8739C72.8388 20.5135 72.8146 20.0604 72.6721 20.0093C72.0643 19.7901 71.79 19.8371 71.6649 20.2002C72.0024 20.4194 72.344 20.6399 72.7057 20.8739ZM53.1483 15.8299C52.5472 15.6107 52.1532 15.2248 51.8372 14.7313C51.6812 14.9088 51.6261 15.0406 51.813 15.2073C51.895 15.2813 51.9501 15.4157 51.9649 15.53C52.0174 15.924 52.008 15.9388 52.406 15.9644C52.6225 15.9805 52.8618 16.08 53.1483 15.8299ZM31.1045 19.0223C30.9539 19.3248 30.8234 19.5776 30.6997 19.8345C30.6405 19.9582 30.6365 20.0778 30.8207 20.0684C31.1461 20.0496 31.4716 20.0146 31.8454 19.981C31.5872 19.6475 31.3613 19.3544 31.1045 19.0223ZM50.0057 20.1948C49.9748 20.1895 49.9438 20.1854 49.9142 20.18C49.8403 20.3145 49.769 20.4517 49.6897 20.5835C49.6614 20.6319 49.6171 20.7005 49.574 20.7058C49.3333 20.7327 49.3696 20.9021 49.3495 21.077C49.5767 21.0608 49.7811 21.0259 49.8201 20.7905C49.8524 20.5956 49.9613 20.5176 50.1267 20.4665C50.2249 20.4369 50.3163 20.3912 50.4252 20.3468C50.3351 20.2137 50.2612 20.1047 50.1859 19.9958C50.2114 19.9878 50.2356 19.981 50.2612 19.973C50.2424 19.8318 50.2235 19.6906 50.2047 19.5507C50.1832 19.388 50.081 19.2818 49.9358 19.353C49.8739 19.384 49.8645 19.5749 49.8779 19.6865C49.8995 19.8587 49.9613 20.0254 50.0057 20.1948ZM82.6539 12.4816C82.6324 12.5031 82.6108 12.5246 82.5907 12.5461C82.6835 12.8326 82.7561 13.1284 82.8771 13.4014C82.947 13.5574 83.1057 13.63 83.2765 13.4874C83.345 13.431 83.4177 13.3785 83.4876 13.322C83.6368 13.2037 83.6301 13.0854 83.4795 12.9751C83.2913 12.8379 83.107 12.6954 82.9121 12.569C82.8381 12.5219 82.7413 12.5098 82.6539 12.4816ZM70.4493 10.2709C69.9975 10.599 69.5497 10.9244 69.1019 11.2485C69.1113 11.2861 69.1207 11.3251 69.1301 11.3628C69.4112 11.3628 69.6922 11.3722 69.9719 11.3561C70.0324 11.352 70.1158 11.2714 70.1387 11.2068C70.2503 10.9083 70.3431 10.6017 70.4493 10.2709ZM35.9723 26.043C35.8714 26.086 35.8271 26.0941 35.7975 26.1183C35.3995 26.437 35.4425 27.0246 35.9024 27.4079C35.9777 27.4697 36.1068 27.4657 36.2117 27.4926C36.2009 27.3594 36.2359 27.1429 36.1713 27.1066C35.9441 26.9789 35.975 26.7906 35.9736 26.5983C35.971 26.4316 35.9723 26.2648 35.9723 26.043ZM85.3204 19.5924C85.467 19.8197 85.5853 20.0173 85.7198 20.2029C85.7507 20.2459 85.8489 20.2809 85.8987 20.2648C86.103 20.2029 86.4446 19.6072 86.4231 19.3557C86.0654 19.4324 85.7131 19.5077 85.3204 19.5924ZM92.2618 9.84596C92.2443 9.97639 92.1879 10.1095 92.2188 10.2184C92.2887 10.4632 92.4138 10.6918 92.4931 10.9352C92.5617 11.1449 92.6719 11.2001 92.8642 11.1113C92.9557 10.3744 92.8118 10.0571 92.2618 9.84596ZM76.1455 24.2854C75.9922 24.1698 75.847 24.0837 75.7313 23.9681C75.5632 23.8013 75.4933 23.8108 75.3763 24.0178C75.3104 24.1335 75.2042 24.2263 75.0885 24.3607C75.1598 24.4724 75.2808 24.6297 75.5188 24.6297C75.7434 24.6297 75.9666 24.6297 76.1952 24.6297C76.0971 24.5799 75.9908 24.5248 75.8591 24.4589C75.9626 24.3957 76.0433 24.3473 76.1455 24.2854ZM64.7034 13.3153C64.6549 13.4995 64.6334 13.6448 64.5783 13.7765C64.507 13.9446 64.5501 14.0495 64.7087 14.1208C64.8688 14.1934 64.9199 14.0966 64.9857 13.9702C65.1821 13.595 64.9319 13.1432 65.1969 12.7828C65.2009 12.7774 65.1794 12.7559 65.17 12.7411C64.8069 12.8178 64.7813 12.8689 64.8997 13.2978C64.819 13.3045 64.7423 13.3113 64.7034 13.3153ZM58.913 5.25109C59.7602 5.58861 59.8516 5.56979 59.9673 5.05745C59.7858 5.0198 59.5948 5.00366 59.4227 4.93777C59.0488 4.79658 58.9978 4.81809 58.913 5.25109ZM60.2282 30.9673C60.5092 30.6594 60.7472 30.3998 61.0242 30.0973C60.6638 30.0704 60.3653 30.0489 60.0345 30.0247C60.0977 30.3366 60.1556 30.619 60.2282 30.9673ZM102.175 6.43578C102.16 6.47881 102.145 6.52049 102.131 6.56352C102.24 6.62 102.344 6.69531 102.461 6.72624C102.507 6.73834 102.611 6.66303 102.635 6.60521C102.726 6.38602 102.798 6.15877 102.878 5.92479C102.702 5.86427 102.554 5.81183 102.402 5.75939C102.381 5.66123 102.358 5.55768 102.336 5.4528C102.311 5.45414 102.287 5.45549 102.261 5.45683C102.229 5.70157 102.195 5.9463 102.153 6.25155C102.33 6.18163 102.432 6.14129 102.599 6.07405C102.581 6.24752 102.569 6.37796 102.557 6.50301C102.413 6.47881 102.293 6.45729 102.175 6.43578ZM19.4015 17.8994C18.877 17.5404 18.0541 17.73 17.847 18.2531C18.366 18.1347 18.8716 18.0191 19.4015 17.8994ZM88.6446 9.87016C88.3299 9.64291 88.069 9.4533 87.7651 9.23277C87.7436 9.54474 87.7261 9.80562 87.7059 10.1068C88.0246 10.0275 88.3017 9.95623 88.6446 9.87016ZM26.2043 30.7468C26.4195 30.4213 26.597 30.1551 26.8054 29.8404C26.4545 29.8835 26.168 29.9184 25.8466 29.9574C25.9663 30.2223 26.0712 30.4523 26.2043 30.7468ZM39.9123 26.1546C39.9419 25.9287 39.9795 25.7444 39.9822 25.5602C39.9822 25.5185 39.8276 25.4244 39.8061 25.4392C39.5748 25.6059 39.3569 25.7888 39.1351 25.969C39.1485 25.9973 39.1633 26.0255 39.1767 26.0524C39.4094 26.0847 39.6434 26.1169 39.9123 26.1546ZM48.1486 30.1188C48.3046 30.4429 48.4445 30.7333 48.5843 31.0238C48.6045 31.0224 48.626 31.0197 48.6462 31.0184C48.7336 30.7252 48.8197 30.4321 48.9124 30.1201C48.661 30.1188 48.4324 30.1188 48.1486 30.1188ZM4.71051 2.04127C5.13006 1.93773 5.28202 1.61231 5.50658 1.33664C5.42725 1.30302 5.36404 1.27075 5.2995 1.24789C4.98753 1.14166 4.90684 1.18469 4.82885 1.50608C4.78851 1.66879 4.75623 1.83284 4.71051 2.04127ZM57.2187 25.0896C56.935 25.1461 56.7144 25.1891 56.4805 25.2348C56.5665 25.5306 56.6405 25.7875 56.7373 26.1237C56.9121 25.7485 57.0493 25.4526 57.2187 25.0896ZM78.8873 9.73838C79.2128 9.85941 79.4978 9.96564 79.8004 10.0786C79.8555 9.72628 79.6848 9.53533 79.4467 9.35514C79.2719 9.47616 79.0971 9.5945 78.8873 9.73838ZM72.3964 12.3189C72.3655 12.2597 72.3413 12.1481 72.2741 12.101C72.2162 12.0607 72.0724 12.062 72.028 12.1051C71.9607 12.1723 71.9325 12.2906 71.915 12.3915C71.8868 12.5555 71.7039 12.7788 71.9863 12.8621C72.2768 12.9469 72.2821 12.6564 72.3642 12.4856C72.3816 12.4466 72.3803 12.3982 72.3964 12.3189ZM87.8471 4.11212C87.8512 4.14977 87.8552 4.18743 87.8579 4.22642C88.0919 4.30442 88.3272 4.38241 88.5787 4.46578C88.5787 4.1807 88.5787 3.94806 88.5787 3.66837C88.3111 3.83242 88.0798 3.97227 87.8471 4.11212ZM19.4431 9.96698C19.1729 9.76662 18.9416 9.59584 18.7009 9.41699C18.7224 9.71686 18.7412 9.98715 18.7627 10.2803C18.9725 10.1835 19.1863 10.0853 19.4431 9.96698ZM44.8581 12.136C44.6484 12.6887 44.4493 13.2171 44.249 13.7456C44.639 13.4484 45.037 12.3875 44.8581 12.136ZM39.1983 8.24307C39.1889 8.21214 39.1808 8.18121 39.1714 8.15028C38.9656 8.17314 38.6362 8.13146 38.581 8.235C38.4856 8.41519 38.5582 8.68413 38.5595 8.91676C38.5864 8.91676 38.6147 8.91676 38.6416 8.91676C38.8271 8.6922 39.0127 8.46763 39.1983 8.24307ZM83.9784 6.76389C84.1815 6.87684 84.3482 6.97097 84.5378 7.0772C84.5876 6.7612 84.6319 6.47881 84.6871 6.1238C84.4235 6.36182 84.2205 6.54604 83.9784 6.76389ZM23.9237 14.5242C23.7395 14.4744 23.6306 14.4301 23.519 14.422C23.4544 14.418 23.3415 14.4637 23.328 14.5081C23.2688 14.7246 23.2366 14.9491 23.1935 15.1697C23.2272 15.1885 23.2594 15.2087 23.293 15.2275C23.488 15.011 23.683 14.7931 23.9237 14.5242ZM42.6851 8.75137C42.3973 8.71506 42.1351 8.68144 41.8715 8.64782C41.8541 8.68413 41.8366 8.72044 41.8204 8.7554C42.0477 8.93425 42.2736 9.11175 42.5426 9.32287C42.6004 9.09158 42.6407 8.93156 42.6851 8.75137ZM56.1618 20.2728C55.402 20.4315 55.1721 20.5337 55.5002 21.0891C55.7113 20.8295 55.917 20.5754 56.1618 20.2728ZM92.3869 13.3462C92.3559 13.3382 92.325 13.3301 92.2941 13.322C92.2605 13.4753 92.1489 13.6945 92.2107 13.7685C92.3385 13.9204 92.559 13.9944 92.7405 14.1006C92.7567 14.0751 92.7728 14.0495 92.7903 14.0253C92.754 13.9567 92.7177 13.8895 92.715 13.8841C92.7782 13.7483 92.8185 13.6622 92.8589 13.5748C92.7741 13.5708 92.6894 13.56 92.6061 13.5654C92.5321 13.5708 92.4581 13.595 92.3654 13.6138C92.3748 13.5022 92.3815 13.4242 92.3869 13.3462ZM9.32018 1.61096C9.22605 1.9189 9.49902 1.90142 9.67249 1.96731C10.0598 2.11254 10.131 2.05337 10.1001 1.64727C9.84999 1.63517 9.60122 1.62306 9.32018 1.61096ZM15.9106 18.2921C15.8084 18.0957 15.7304 17.9492 15.6201 17.7381C15.405 17.964 15.2369 18.1388 15.0702 18.3136C15.0863 18.3338 15.1038 18.3553 15.1199 18.3754C15.366 18.3499 15.6134 18.323 15.9106 18.2921ZM65.7899 29.3779C65.7737 29.6428 65.7616 29.8391 65.7495 30.0435C66.2807 29.9615 66.3775 29.8687 66.3614 29.4679C66.2794 29.5338 66.2094 29.5917 66.1637 29.6293C66.0427 29.5473 65.9445 29.4814 65.7899 29.3779ZM38.1306 27.9511C37.8899 27.9511 37.6868 27.9511 37.4555 27.9511C37.5053 28.0641 37.5322 28.1259 37.5685 28.2106C37.4609 28.2012 37.3775 28.1932 37.239 28.1811C37.2888 28.3088 37.3251 28.3989 37.3748 28.524C37.6102 28.2685 38.0203 28.3666 38.1306 27.9511ZM94.0462 13.9917C93.9346 13.8922 93.8526 13.8182 93.7746 13.747C93.2609 14.1073 93.1749 14.2163 93.195 14.4946C93.4694 14.3333 93.7356 14.1746 94.0462 13.9917ZM51.2697 6.39813C51.4257 6.66976 51.5723 6.92525 51.7188 7.18209C51.7444 7.17402 51.7699 7.1673 51.7955 7.15923C51.7955 7.03821 51.7955 6.91853 51.7955 6.7975C51.7941 6.36182 51.7565 6.33089 51.2697 6.39813ZM43.4677 19.9514C43.6869 19.5521 43.7138 19.1352 43.578 18.7036C43.3063 19.0949 43.4785 19.5332 43.4677 19.9514ZM13.4767 14.0374C13.7456 14.2203 13.9984 14.3924 14.2969 14.5941C14.2647 14.1477 13.9661 13.9917 13.6945 13.7913C13.6138 13.8814 13.552 13.9514 13.4767 14.0374ZM86.5508 28.3021C86.0614 28.3707 85.939 28.5065 86.1367 29.1291C86.3048 28.8548 86.5535 28.649 86.5508 28.3021ZM63.2309 21.1133C63.4205 20.8578 63.5967 20.6198 63.7957 20.3495C63.1475 20.3912 63.0171 20.574 63.2309 21.1133ZM33.4335 10.1068C33.6997 10.1068 33.9378 10.1068 34.2565 10.1068C33.9754 9.92529 33.7643 9.78948 33.5236 9.63484C33.49 9.81369 33.4631 9.9495 33.4335 10.1068ZM46.9505 19.6731C47.1038 19.3396 46.8954 19.0451 46.4906 18.9685C46.4167 19.3477 46.7609 19.4378 46.9505 19.6731ZM64.0498 28.9059C64.0229 28.8951 63.996 28.8857 63.9691 28.8749C63.6424 29.0995 63.524 29.4182 63.6706 29.8566C63.7984 29.5392 63.9248 29.2219 64.0498 28.9059ZM25.302 15.0217C25.1676 14.9397 25.0331 14.8012 24.9686 14.8281C24.7305 14.929 24.744 15.1777 24.7332 15.409C24.8986 15.2974 25.064 15.1845 25.302 15.0217ZM78.5915 22.536C78.9479 22.5804 79.1294 22.4284 79.0837 22.1191C78.9519 22.1191 78.8228 22.1191 78.7408 22.1191C78.6856 22.2738 78.6413 22.3961 78.5915 22.536ZM52.1021 23.051C52.0725 23.0443 52.0429 23.0376 52.0133 23.0308C51.8587 23.1761 51.7041 23.3226 51.5508 23.4679C51.5655 23.4974 51.5803 23.527 51.5951 23.5566C51.7565 23.5136 51.9407 23.5028 52.0685 23.4127C52.133 23.367 52.094 23.1761 52.1021 23.051ZM63.1785 17.8631C63.169 17.8994 63.1596 17.9344 63.1502 17.9707C63.3761 18.0541 63.602 18.1361 63.8279 18.2195C63.8562 18.1845 63.8858 18.1495 63.914 18.1159C63.8508 18.0325 63.7984 17.8914 63.7204 17.8752C63.5469 17.8389 63.36 17.8631 63.1785 17.8631ZM28.6504 21.2061C29.0081 20.8833 29.0632 20.7663 28.9812 20.4732C28.8265 20.7085 28.4635 20.8215 28.6504 21.2061ZM48.0612 13.6838C48.1486 13.3852 47.9442 13.2588 47.8017 13.0719C47.7358 13.201 47.6793 13.3099 47.6134 13.439C47.7614 13.5197 47.8972 13.5937 48.0612 13.6838ZM60.251 5.33849C60.2698 5.35598 60.2887 5.3748 60.3075 5.39228C60.3788 5.31832 60.5119 5.24302 60.5106 5.16906C60.5079 4.97139 60.4662 4.76431 60.251 4.58412C60.251 4.87861 60.251 5.10855 60.251 5.33849ZM82.7641 14.2311C82.8515 14.2889 82.9268 14.3561 83.0143 14.3938C83.0828 14.4233 83.1675 14.4153 83.2442 14.4247C83.2523 14.344 83.2913 14.2485 83.263 14.184C83.1756 13.9877 83.0506 13.9917 82.7641 14.2311ZM73.2584 22.9797C73.6873 23.293 73.9119 23.2863 74.0491 22.9797C73.7976 22.9797 73.5556 22.9797 73.2584 22.9797ZM101.434 2.96105C101.453 2.97315 101.47 2.98391 101.489 2.99601C101.638 2.86692 101.786 2.73783 101.956 2.59126C101.846 2.50116 101.757 2.42989 101.643 2.3371C101.563 2.57377 101.499 2.76741 101.434 2.96105ZM74.5399 29.9413C74.5399 30.1901 74.5399 30.3998 74.5399 30.6096C74.556 30.6136 74.5735 30.6163 74.5897 30.6204C74.6717 30.459 74.7537 30.2976 74.8425 30.1201C74.7349 30.0569 74.6475 30.0058 74.5399 29.9413ZM92.329 14.1679C92.4205 14.4529 92.5267 14.6264 92.7499 14.6883C92.7997 14.7017 92.8683 14.6479 92.9288 14.6237C92.9046 14.5726 92.8952 14.4987 92.8562 14.4718C92.7096 14.3763 92.5536 14.2956 92.329 14.1679ZM39.9728 21.756C40.001 21.5906 40.0226 21.4683 40.0454 21.3284C39.8437 21.3029 39.6797 21.2814 39.5143 21.2598C39.5089 21.2787 39.5022 21.2975 39.4968 21.3163C39.6447 21.4535 39.7926 21.5893 39.9728 21.756ZM93.0902 23.3011C93.0902 23.4732 93.0579 23.6696 93.0955 23.6844C93.2354 23.7368 93.3968 23.7301 93.55 23.7449C93.5568 23.718 93.5648 23.6897 93.5716 23.6628C93.4304 23.5553 93.2865 23.4477 93.0902 23.3011ZM101.741 6.51108C101.774 6.52049 101.808 6.52856 101.842 6.53798C101.867 6.35779 102.162 6.22869 101.945 6.0095C101.776 5.84007 101.672 6.01488 101.505 6.1386C101.659 6.1507 101.753 6.15877 101.842 6.16549C101.805 6.28651 101.773 6.39947 101.741 6.51108ZM25.0506 27.9753C25.0533 27.9498 25.056 27.9229 25.0586 27.8973C24.9094 27.7763 24.4118 27.7467 24.0985 27.8852C24.4159 27.9135 24.7332 27.9444 25.0506 27.9753ZM6.67514 1.69703C6.4183 1.7024 6.32282 1.81939 6.2892 2.16498C6.59714 2.08027 6.71548 1.93773 6.67514 1.69703ZM29.2272 5.82662C28.8669 6.0243 28.7969 6.22869 28.9906 6.52318C29.0699 6.28786 29.1452 6.06733 29.2272 5.82662ZM43.1678 10.9567C43.0724 11.2176 42.9984 11.4233 42.9231 11.629C42.954 11.6425 42.985 11.6573 43.0159 11.6707C43.1235 11.465 43.2324 11.2606 43.3319 11.0508C43.3332 11.0468 43.231 10.993 43.1678 10.9567ZM23.9156 19.9676C24.0232 19.7457 24.0985 19.5884 24.2061 19.3652C24.0044 19.4243 23.8766 19.462 23.7341 19.5023C23.7946 19.6583 23.8417 19.778 23.9156 19.9676ZM20.726 18.5597C20.8457 18.3902 20.9371 18.2611 21.0286 18.1321C21.0151 18.1159 21.0003 18.0998 20.9869 18.0836C20.8376 18.1226 20.687 18.163 20.5122 18.2087C20.5808 18.323 20.6386 18.4185 20.726 18.5597ZM48.1554 22.111C48.1769 22.1164 48.1971 22.1231 48.2186 22.1285C48.306 21.9524 48.392 21.7749 48.4875 21.5812C48.3557 21.5812 48.2629 21.5812 48.1554 21.5812C48.1554 21.7681 48.1554 21.9403 48.1554 22.111ZM99.8419 25.216C99.9267 25.3518 99.9885 25.4526 100.068 25.5817C100.183 25.4379 100.278 25.3195 100.409 25.1555C100.198 25.1783 100.052 25.1931 99.8419 25.216ZM7.59626 25.38C7.67694 25.2442 7.73745 25.1434 7.8141 25.0143C7.61374 24.9941 7.46448 24.978 7.23991 24.9551C7.38245 25.1245 7.47524 25.2348 7.59626 25.38ZM95.9248 18.2168C95.9477 18.2154 95.9692 18.2154 95.992 18.2141C96.0499 18.046 96.1077 17.8779 96.1776 17.6749C96.0364 17.7004 95.945 17.7165 95.8401 17.7354C95.871 17.9142 95.8979 18.0648 95.9248 18.2168ZM89.9449 18.2168C90.0162 18.5005 90.078 18.7439 90.1533 19.0438C90.2784 18.76 90.1775 18.3849 89.9449 18.2168ZM74.2239 4.73069C74.2051 4.72396 74.1862 4.71858 74.1688 4.71186C74.0908 4.86112 74.0114 5.01038 73.9213 5.18116C74.0383 5.21478 74.119 5.23899 74.2239 5.26991C74.2239 5.07359 74.2239 4.90281 74.2239 4.73069ZM101.36 13.1889C101.466 13.0248 101.573 12.8608 101.712 12.6443C101.396 12.7088 101.271 12.8904 101.36 13.1889ZM1.27075 1.615C1.28823 1.6513 1.30571 1.68626 1.32454 1.72257C1.45229 1.68223 1.57869 1.64189 1.70644 1.60021C1.65265 1.51415 1.59886 1.42808 1.5249 1.30975C1.41329 1.44288 1.34202 1.52894 1.27075 1.615ZM44.5986 14.3521C44.5421 14.5121 44.487 14.6721 44.4198 14.8658C44.7694 14.7219 44.8138 14.6237 44.5986 14.3521ZM81.8215 14.6546C82.1926 14.5551 82.2249 14.4906 82.0514 14.1759C81.9855 14.3131 81.9197 14.4502 81.8215 14.6546ZM19.2145 26.4101C19.2603 26.2447 19.2898 26.1385 19.31 26.0672C19.1339 26.0188 18.9967 25.9798 18.799 25.926C18.9469 26.0968 19.0599 26.2299 19.2145 26.4101ZM14.0899 23.4584C14.0966 23.4826 14.1033 23.5069 14.1114 23.5311C14.2324 23.5203 14.3709 23.5405 14.4677 23.4867C14.5175 23.4598 14.4946 23.2998 14.5108 23.1344C14.3238 23.2783 14.2068 23.3683 14.0899 23.4584ZM28.4594 12.0002C28.4957 11.6385 28.4271 11.5376 28.0708 11.4314C28.2053 11.6277 28.3182 11.7918 28.4594 12.0002ZM75.5807 22.6758C75.6036 22.6879 75.6251 22.7 75.6479 22.7121C75.7448 22.5978 75.8416 22.4822 75.9559 22.3477C75.8725 22.3033 75.8093 22.2684 75.7206 22.2213C75.6681 22.3907 75.6237 22.5333 75.5807 22.6758ZM100.228 2.50654C100.263 2.50519 100.296 2.50385 100.331 2.5025C100.399 2.40703 100.465 2.31156 100.532 2.21608C100.514 2.18784 100.497 2.16095 100.479 2.13271C100.389 2.1744 100.275 2.19591 100.217 2.26583C100.179 2.31155 100.221 2.42451 100.228 2.50654ZM100.688 24.2236C100.715 24.3634 100.735 24.4724 100.759 24.6014C101.063 24.5235 100.902 24.3365 100.88 24.1644C100.805 24.1873 100.75 24.2034 100.688 24.2236ZM93.5191 15.2503C93.4304 15.0688 93.3645 14.9316 93.2905 14.777C93.1547 15.0675 93.1924 15.1549 93.5191 15.2503ZM39.0221 13.9473C39.0463 13.9433 39.0705 13.9406 39.0961 13.9366C39.0826 13.8209 39.092 13.6932 39.045 13.5937C39.0248 13.5506 38.8876 13.5641 38.7424 13.5426C38.8648 13.7187 38.9428 13.833 39.0221 13.9473Z" fill="white"/>
<path d="M17.3574 32.4144C17.3372 32.0083 17.3157 31.6587 17.3023 31.3078C17.2767 30.6381 17.2512 29.9684 17.235 29.2974C17.227 28.937 17.27 28.8604 17.5026 28.7447C17.4596 28.6708 17.4166 28.5968 17.3695 28.5148C17.4233 28.4785 17.473 28.4449 17.5174 28.4153C17.6801 28.4812 17.551 32.0258 17.3574 32.4144Z" fill="white"/>
<path d="M41.3215 4.49532C41.1292 4.58945 41.0015 4.70374 40.9342 4.67416C40.8199 4.62575 40.7433 4.4859 40.6519 4.38505C40.7433 4.3084 40.8589 4.15241 40.9208 4.17124C41.0459 4.21024 41.144 4.34336 41.3215 4.49532Z" fill="white"/>
<path d="M59.0651 26.1733C59.2358 26.4382 59.178 26.6023 58.8069 26.9116C58.585 26.7247 58.6872 26.4356 59.0651 26.1733Z" fill="white"/>
<path d="M63.1704 8.68934C63.1354 8.72699 63.0843 8.78212 63.0318 8.8386C62.8933 8.69741 62.7548 8.55756 62.6177 8.41637C62.7064 8.36123 62.7952 8.25903 62.8839 8.25903C63.1219 8.26172 63.1341 8.46478 63.1704 8.68934Z" fill="white"/>
<path d="M56.7468 4.06776C56.7858 4.01263 56.8235 3.9575 56.8611 3.90236C56.845 3.88085 56.8302 3.85933 56.8141 3.83782C56.9068 3.82706 56.9996 3.8163 57.0991 3.8042C57.005 4.15651 56.9337 4.20627 56.7468 4.06776Z" fill="white"/>
<path d="M20.8846 20.8982C20.8618 20.4572 20.8376 20.0148 20.812 19.5132C21.167 19.7767 21.2074 20.3563 20.9788 20.8929C20.9465 20.8955 20.9156 20.8969 20.8846 20.8982Z" fill="white"/>
<path d="M26.843 22.8696C26.7032 22.8965 26.5647 22.9247 26.4248 22.9516C26.4168 22.8494 26.4087 22.7472 26.4006 22.645C26.5459 22.6612 26.6911 22.6759 26.8363 22.6921C26.839 22.7512 26.8404 22.8104 26.843 22.8696Z" fill="white"/>
<path d="M23.7905 24.6121C23.8806 24.2638 23.773 23.8819 23.9774 23.5525C24.0097 23.5579 24.042 23.5632 24.0743 23.5686C24.0124 23.9223 23.9519 24.2746 23.89 24.6283C23.8564 24.6229 23.8228 24.6175 23.7905 24.6121Z" fill="white"/>
<path d="M96.8324 22.8747C96.6818 22.7443 96.5958 22.6704 96.46 22.5547C96.5864 22.4848 96.6778 22.4095 96.7813 22.3866C96.8324 22.3759 96.9615 22.466 96.9575 22.5009C96.9481 22.6098 96.8916 22.7147 96.8324 22.8747Z" fill="white"/>
<path d="M71.2103 22.0587C71.1969 21.9484 71.1363 21.8072 71.1834 21.736C71.2399 21.6486 71.3838 21.6096 71.4967 21.5746C71.5303 21.5639 71.6339 21.6553 71.6285 21.6701C71.5922 21.7615 71.5411 21.8516 71.4806 21.931C71.4335 21.9901 71.3636 22.0318 71.3031 22.0816C71.2722 22.0735 71.2412 22.0668 71.2103 22.0587Z" fill="white"/>
<path d="M42.0653 14.3388C41.8999 14.5042 41.7775 14.5392 41.6592 14.3321C41.7802 14.1425 41.9026 14.2111 42.0653 14.3388Z" fill="white"/>
<path d="M46.4637 20.0052C46.1491 19.9891 45.8613 19.973 45.5439 19.9568C45.5829 19.6395 45.8317 19.6933 45.9917 19.6677C46.2082 19.6314 46.3938 19.7134 46.4637 20.0052Z" fill="white"/>
<path d="M30.1283 12.7869C29.9347 12.9093 29.8163 13.1379 29.5958 12.9657C29.5407 12.9227 29.5272 12.7156 29.577 12.6645C29.7773 12.4642 29.9199 12.6834 30.1283 12.7869Z" fill="white"/>
<path d="M35.4598 18.7544C35.2796 18.8929 35.1828 19.022 35.0685 19.0421C34.8573 19.0785 34.8103 18.9023 34.8049 18.7302C34.7995 18.5486 34.895 18.4195 35.0752 18.4612C35.1895 18.4881 35.2823 18.6145 35.4598 18.7544Z" fill="white"/>
<path d="M19.1675 6.98573C19.3248 6.84184 19.462 6.6993 19.6395 6.92925C19.4526 7.16323 19.3705 7.17533 19.1675 6.98573Z" fill="white"/>
<path d="M98.5657 4.96484C98.6907 5.12083 98.797 5.19614 98.8158 5.29027C98.8467 5.45163 98.7459 5.5861 98.5751 5.55113C98.4769 5.53096 98.3438 5.4086 98.3317 5.31716C98.3209 5.23244 98.45 5.1289 98.5657 4.96484Z" fill="white"/>
<path d="M9.26095 5.39896C9.07941 5.49847 8.97856 5.5926 8.86964 5.60335C8.70289 5.61815 8.58994 5.48502 8.63297 5.33038C8.65986 5.2349 8.81182 5.10043 8.88981 5.10984C8.99873 5.12329 9.09152 5.25776 9.26095 5.39896Z" fill="white"/>
</svg>
