<svg width="95" height="51" viewBox="0 0 95 51" fill="none" xmlns="http://www.w3.org/2000/svg">
<path d="M0 15.637C0.0944432 15.6794 0.197376 15.7091 0.282269 15.7664C1.00386 16.2619 1.75091 16.7171 2.59347 16.9632C3.04447 17.0948 3.41163 17.3155 3.76712 17.6094C5.57427 19.1054 7.66476 20.0093 9.94307 20.5091C10.272 20.5812 10.6031 20.6374 10.9331 20.7032C10.9989 20.716 11.0637 20.7393 11.1581 20.7669C11.0743 20.8412 11.0117 20.9016 10.9448 20.9557C10.254 21.5032 9.55999 22.0465 8.87342 22.5982C8.73759 22.7075 8.62299 22.7435 8.44683 22.6767C6.67364 22.004 4.96835 21.1966 3.38616 20.142C2.62531 19.6348 1.91221 19.0693 1.30098 18.386C0.725834 17.743 0.266351 17.0354 0.0976265 16.1685C0.0859538 16.1059 0.0339571 16.0518 0 15.9935C0 15.8757 0 15.7569 0 15.637Z" fill="white"/>
<path d="M8.99545 40.076C9.08353 40.0134 9.17054 39.9508 9.25862 39.8903C10.0502 39.3449 10.844 38.8038 11.6303 38.2532C11.8224 38.1195 12.0261 38.0357 12.2511 37.9869C13.5818 37.7015 14.8902 37.8182 16.1827 38.2001C17.246 38.5142 18.2212 39.0129 19.138 39.6314C20.665 40.6627 22.2196 41.6505 23.8358 42.5385C25.1474 43.259 26.4929 43.9062 27.9011 44.4218C29.2912 44.9311 30.727 45.1751 32.2009 45.242C33.3395 45.2929 34.4782 45.3046 35.6168 45.243C37.043 45.1656 38.4564 44.9958 39.8529 44.6924C39.9198 44.6775 39.9856 44.6552 40.0896 44.6255C40.0163 44.5767 39.9707 44.5353 39.9166 44.512C39.5165 44.3401 39.1144 44.1725 38.7143 44.0017C37.9015 43.6568 37.0589 43.6123 36.2078 43.7905C35.6667 43.904 35.1371 44.0696 34.6023 44.2128C34.5365 44.2298 34.4728 44.2542 34.3763 44.2383C34.4463 44.1513 34.51 44.06 34.5853 43.9794C35.2698 43.2515 36.0763 42.6775 36.9252 42.1629C37.2457 41.9688 37.616 41.9253 37.9853 41.9157C38.8565 41.8924 39.7044 42.0537 40.5289 42.3083C41.4542 42.5948 42.3679 42.9216 43.2773 43.2568C43.5001 43.3385 43.6678 43.3343 43.8524 43.2038C44.3692 42.8377 44.8892 42.4759 45.4081 42.112C45.4941 42.0515 45.58 41.9921 45.6851 41.9529C45.2468 42.5481 44.7364 43.0765 44.1803 43.6165C44.6961 43.8552 45.1842 44.0812 45.6713 44.3072C45.9249 44.1332 46.065 43.8956 46.1838 43.6441C46.4491 43.0839 46.5849 42.4844 46.6624 41.8744C46.7271 41.364 46.7537 40.8494 46.8078 40.337C46.8237 40.1821 46.8598 40.025 46.916 39.8807C47.02 39.6134 47.1452 39.3545 47.2641 39.0935C47.3044 39.0054 47.3532 38.9216 47.4116 38.8081C47.4614 38.8664 47.5018 38.8961 47.5198 38.9365C47.6843 39.2961 47.8509 39.6558 48.0048 40.0208C48.0419 40.1078 48.0387 40.2139 48.044 40.3115C48.096 41.1624 48.1576 42.0134 48.3921 42.8367C48.4865 43.1677 48.6224 43.4892 48.7624 43.8043C48.8505 44.0017 48.9885 44.1746 49.1858 44.3072C49.6718 44.0823 50.1547 43.8595 50.6545 43.6292C50.1334 43.0659 49.6262 42.5173 49.12 41.9688C49.136 41.9486 49.1529 41.9285 49.1689 41.9083C49.2495 41.9667 49.3301 42.0261 49.4119 42.0834C49.9552 42.4632 50.5006 42.8409 51.0407 43.225C51.2127 43.3481 51.3697 43.3417 51.5628 43.2621C52.7917 42.7592 54.0417 42.3168 55.3501 42.0632C56.0133 41.9348 56.6819 41.8383 57.3557 41.973C57.5658 42.0155 57.7865 42.076 57.968 42.1852C58.7575 42.6627 59.5056 43.1995 60.1593 43.8574C60.2495 43.9486 60.3323 44.0483 60.415 44.146C60.4394 44.1746 60.4543 44.2117 60.4978 44.2849C60.3694 44.2436 60.2781 44.2149 60.1879 44.1852C59.3677 43.9125 58.5347 43.7035 57.6624 43.695C57.2623 43.6918 56.8697 43.7417 56.4962 43.8828C55.9242 44.0982 55.3586 44.3316 54.7909 44.5576C54.793 44.5831 54.7951 44.6086 54.7972 44.634C54.9702 44.6765 55.1411 44.7242 55.3151 44.7592C57.5308 45.1995 59.7688 45.3587 62.0238 45.2621C62.7952 45.2292 63.5677 45.1826 64.3328 45.0892C65.5999 44.9343 66.799 44.5205 67.9716 44.0303C69.9241 43.2144 71.7578 42.1746 73.5448 41.05C74.3162 40.5651 75.0739 40.0579 75.8347 39.5571C76.9277 38.8367 78.0982 38.2924 79.3843 38.0208C80.4519 37.7948 81.5236 37.7545 82.5975 37.9858C82.8331 38.0367 83.0453 38.1248 83.2448 38.2649C84.0322 38.8155 84.826 39.3566 85.6176 39.9009C85.7035 39.9603 85.7874 40.024 85.8829 40.0929C85.504 40.0208 85.1496 39.9264 84.7899 39.8903C83.9579 39.8065 83.1546 39.9794 82.3641 40.2256C81.1777 40.5959 80.0603 41.1274 78.962 41.6982C76.7813 42.8303 74.6728 44.0908 72.5696 45.3587C70.9842 46.3146 69.2959 46.9916 67.4813 47.3523C65.9097 47.6653 64.3233 47.7746 62.7231 47.7077C60.4246 47.6122 58.1802 47.2112 55.9783 46.5576C55.9051 46.5364 55.8298 46.5226 55.7438 46.5396C55.8499 46.5863 55.956 46.6361 56.0643 46.6775C57.5637 47.2653 59.1194 47.6462 60.7037 47.9157C61.7394 48.0929 62.7804 48.2159 63.8298 48.2764C65.3717 48.3655 66.8679 48.0939 68.3483 47.7056C70.3549 47.1804 72.2862 46.4409 74.1931 45.6356C75.214 45.2048 76.2688 44.9194 77.3787 44.8568C78.3391 44.8017 79.2772 44.9088 80.1834 45.2398C80.3118 45.2865 80.4423 45.3481 80.5463 45.434C81.2021 45.9772 81.8515 46.529 82.5031 47.0786C82.5254 47.0966 82.5413 47.1221 82.6092 47.1995C82.4829 47.1465 82.4182 47.1199 82.3545 47.0923C81.6128 46.7751 80.836 46.7401 80.0497 46.8165C78.5916 46.9576 77.193 47.3629 75.8114 47.8234C74.1592 48.374 72.5144 48.948 70.877 49.5411C68.8852 50.2626 66.8351 50.4737 64.7361 50.3125C61.7256 50.0812 58.8933 49.209 56.1778 47.9189C55.2918 47.4976 54.498 46.9512 53.7955 46.269C53.7531 46.2276 53.7074 46.1905 53.6119 46.1046C53.6544 46.2213 53.6682 46.2807 53.6968 46.3327C53.9441 46.7836 54.2783 47.1539 54.6996 47.451C55.3597 47.9157 56.0834 48.2573 56.8198 48.5788C57.0278 48.6701 57.2347 48.7677 57.43 48.8833C57.7059 49.0467 57.9309 49.2695 58.0985 49.5464C58.2641 49.8202 58.3447 50.1024 58.2365 50.4218C58.1802 50.5883 58.1526 50.7645 58.0964 51C58.0497 50.9013 58.0264 50.8578 58.0073 50.8122C57.9075 50.5777 57.7505 50.3836 57.5457 50.2403C57.2135 50.009 56.8771 49.7788 56.5238 49.5825C56.0399 49.312 55.5475 49.0541 55.0434 48.825C53.9345 48.322 53.2469 47.4594 52.8521 46.3348C52.7747 46.113 52.711 45.8871 52.6346 45.643C52.5295 45.6918 52.4394 45.729 52.3545 45.7735C51.705 46.113 51.0535 46.4483 50.4115 46.8006C50.2438 46.8918 50.1218 46.9035 49.9531 46.7974C49.1009 46.2648 48.374 45.6059 47.8222 44.7603C47.7225 44.6064 47.6694 44.4505 47.6631 44.2627C47.6111 42.7879 47.5506 41.3131 47.4901 39.8383C47.4816 39.642 47.4604 39.4457 47.4073 39.2505C47.3819 39.833 47.3553 40.4155 47.333 40.999C47.2895 42.1078 47.2492 43.2165 47.2004 44.3253C47.1951 44.4377 47.1611 44.5619 47.1028 44.6574C46.5414 45.5857 45.7593 46.2849 44.8372 46.843C44.712 46.9194 44.6197 46.8844 44.5104 46.826C43.8461 46.4727 43.1797 46.1226 42.5133 45.7735C42.4273 45.7279 42.3371 45.6897 42.2299 45.6377C42.197 45.7523 42.1694 45.8457 42.1429 45.939C42.0028 46.4271 41.8171 46.8939 41.5476 47.3258C41.1656 47.9369 40.6573 48.4069 40.011 48.7305C39.3828 49.0456 38.7589 49.3692 38.136 49.695C37.9694 49.782 37.8113 49.8849 37.6553 49.9899C37.2892 50.234 36.9507 50.5034 36.7586 50.948C36.696 50.6679 36.6217 50.3899 36.5782 50.1077C36.5633 50.009 36.6121 49.8944 36.6503 49.7936C36.7734 49.47 36.9782 49.1995 37.2626 49.0085C37.5078 48.8441 37.7709 48.7019 38.0415 48.582C38.7843 48.252 39.5197 47.9104 40.1861 47.4372C40.6477 47.1093 41.0011 46.6924 41.2717 46.1311C41.2038 46.1661 41.172 46.1746 41.1518 46.1937C40.1288 47.2494 38.8501 47.8913 37.5184 48.4504C35.6115 49.2515 33.6451 49.8446 31.5982 50.1512C29.4727 50.4695 27.3493 50.4875 25.2599 49.9241C24.3356 49.6748 23.4357 49.3268 22.5306 49.0106C20.8019 48.4059 19.0818 47.7788 17.3128 47.2992C16.4894 47.0764 15.6595 46.8897 14.8096 46.8122C13.9808 46.7369 13.1658 46.7783 12.3965 47.1422C12.3731 47.1539 12.3445 47.1539 12.2967 47.1645C12.3264 47.1242 12.3392 47.0977 12.3604 47.0807C13.0194 46.5247 13.6762 45.9666 14.3395 45.417C14.436 45.3375 14.5591 45.2823 14.678 45.2388C15.5746 44.9109 16.5032 44.8017 17.4529 44.8515C18.5735 44.9109 19.6378 45.1942 20.6682 45.6303C22.5104 46.4101 24.377 47.1252 26.3115 47.6483C27.5944 47.9953 28.8922 48.2658 30.2293 48.287C31.1726 48.3029 32.1086 48.2053 33.0424 48.0823C34.6745 47.8669 36.2821 47.5358 37.8473 47.0181C38.2782 46.8759 38.7016 46.7115 39.1154 46.5046C39.0581 46.5173 39.0008 46.5258 38.9446 46.5417C37.4133 46.9937 35.8587 47.3343 34.2733 47.5295C31.5037 47.8711 28.7585 47.7979 26.0578 47.0213C24.8237 46.6669 23.6607 46.1512 22.5528 45.5019C20.647 44.3857 18.7401 43.2717 16.8194 42.1831C15.6044 41.4945 14.3554 40.8664 13.0332 40.4049C12.5111 40.2224 11.9752 40.0707 11.434 39.9614C10.6212 39.8001 9.81361 39.8139 8.99545 40.076Z" fill="white"/>
<path d="M70.5173 30.8644C70.652 31.7132 70.7815 32.5206 70.9131 33.3493C71.3301 33.1986 71.7249 33.1689 72.1217 33.3111C72.3817 33.4044 72.526 33.6219 72.6672 33.8373C73.0152 34.3699 73.0248 34.8453 72.6757 35.2994C72.7393 34.788 72.6895 34.3307 72.2151 34.0856C71.8342 33.8882 71.4331 33.9148 71.0341 34.1439C71.0553 34.2935 71.0723 34.4389 71.0956 34.5843C71.2357 35.4946 71.3471 36.4102 71.5286 37.311C71.6644 37.9879 71.8872 38.6468 72.0782 39.3121C72.1133 39.4351 72.1727 39.5518 72.2289 39.6675C72.3679 39.9529 72.5229 40.2266 72.8815 40.3752C71.6485 41.0468 70.4536 41.6972 69.2428 42.3561C69.1664 42.2192 69.1017 42.0993 69.0338 41.9815C68.7059 41.4118 68.2899 40.9067 67.8506 40.4219C67.0239 39.5105 66.1166 38.6829 65.1754 37.8914C65.1001 37.8277 65.0258 37.7641 64.9324 37.6845C65.2539 37.3917 65.2974 37.0001 65.3335 36.6097C65.4025 35.8659 65.3399 35.1264 65.2497 34.3869C65.1149 33.2867 64.9886 32.1843 64.8581 31.083C64.7074 29.8045 64.5567 28.526 64.4061 27.2485C64.2787 26.1663 64.1524 25.0851 64.0251 24.0029C63.9901 23.708 63.9561 23.413 63.9169 23.1181C63.8978 22.9759 63.9169 22.8539 64.0028 22.7276C65.2476 20.9144 66.4859 19.0979 67.7264 17.2826C67.7487 17.2507 67.7763 17.2221 67.8219 17.1669C67.9068 17.237 67.9896 17.3027 68.0702 17.3706C70.4886 19.4194 73.0736 21.2274 75.8698 22.7255C77.1283 23.4003 78.4155 24.0135 79.7982 24.3923C80.1972 24.5016 80.61 24.5684 81.0196 24.6279C81.6743 24.7223 82.277 24.5557 82.8331 24.2088C83.4762 23.8066 83.9622 23.2507 84.3739 22.6236C84.427 22.543 84.4821 22.4634 84.5787 22.3923C84.5745 22.4613 84.5893 22.5398 84.5638 22.5992C84.4397 22.8783 84.3304 23.169 84.168 23.4257C83.7011 24.1674 83.0878 24.7902 82.5041 25.4374C82.1943 25.7801 81.8759 25.9881 81.4058 25.8777C80.0794 25.918 78.7519 25.9573 77.4254 25.9987C77.3596 26.0008 77.2938 26.0167 77.2249 26.0517C78.0101 26.4231 78.8569 26.5323 79.7048 26.6522C79.3482 26.7339 78.58 26.7201 77.6695 26.5843C76.9882 26.4825 76.3123 26.3488 75.6013 26.2225C75.6321 26.3944 75.6597 26.5567 75.6926 26.717C75.7467 26.979 75.7976 27.2411 75.8634 27.5C75.8952 27.6252 75.8836 27.726 75.8135 27.8353C75.4103 28.4612 75.0007 29.0798 74.3099 29.5095C74.4298 29.5498 74.5147 29.5806 74.6017 29.6061C75.2034 29.7832 75.7774 30.0198 76.2889 30.3933C76.447 30.509 76.5436 30.6416 76.586 30.8464C76.8492 32.1259 77.1294 33.4023 77.4042 34.6787C77.4275 34.7848 77.4551 34.8898 77.4902 35.0341C77.5984 34.9906 77.696 34.9567 77.7894 34.9142C78.6649 34.5206 79.5403 34.127 80.4646 33.8532C82.103 33.3673 83.7712 33.049 85.4764 32.9206C86.2882 32.8591 87.099 32.8421 87.9097 32.9312C88.384 32.9832 88.8552 33.0628 89.2775 33.2983C89.4908 33.4172 89.703 33.5593 89.8718 33.7344C90.2039 34.0771 90.2612 34.4941 90.0893 34.9482C90.067 34.6023 89.9269 34.3179 89.6935 34.0697C89.3359 33.6898 88.8828 33.5572 88.3819 33.5328C87.7632 33.5031 87.1541 33.588 86.5546 33.7238C85.9954 33.85 85.4457 34.0166 84.8917 34.1683C84.827 34.1864 84.7655 34.2171 84.7082 34.2394C84.9607 34.2394 85.2165 34.232 85.4701 34.2416C85.8648 34.2564 86.2649 34.25 86.6533 34.3105C87.8725 34.5026 88.3501 35.8044 88.1028 36.5248C87.8386 37.2919 87.2804 37.7545 86.5079 37.9285C85.9391 38.0569 85.382 37.7015 85.1294 37.0893C85.2387 37.155 85.3141 37.2155 85.4 37.2474C85.6112 37.3248 85.8234 37.4288 86.0431 37.4521C86.4941 37.4988 86.8761 37.2134 87.0374 36.7635C87.1796 36.3689 87.0491 35.9572 86.6904 35.6834C86.4156 35.4744 86.0951 35.3673 85.7587 35.3195C84.8153 35.1848 83.872 35.206 82.9732 35.537C82.0457 35.8787 81.1204 36.2405 80.2301 36.668C78.3646 37.5635 76.5234 38.5068 74.6717 39.4309C74.5868 39.4733 74.4998 39.5126 74.399 39.5614C74.4945 39.2442 74.5996 38.9587 74.6632 38.6648C74.8097 37.9911 74.7969 37.3078 74.7545 36.6235C74.6791 35.4224 74.381 34.2596 74.1624 33.0819C74.1295 32.9068 74.0902 32.7328 74.0615 32.5567C74.0393 32.4198 73.983 32.3296 73.844 32.2713C72.7775 31.8193 71.7153 31.3578 70.652 30.8994C70.6255 30.8909 70.5958 30.8867 70.5173 30.8644ZM72.7446 25.9626C72.3159 25.761 71.9318 25.6199 71.589 25.4119C70.9555 25.0268 70.3454 24.6024 69.7267 24.1928C69.6407 24.1356 69.5559 24.0761 69.4381 23.9955C69.4444 24.0974 69.4434 24.1462 69.4519 24.1939C69.6015 25.1223 69.7585 26.0485 69.8954 26.978C69.9251 27.1796 70.0026 27.2888 70.183 27.3758C71.1359 27.8374 72.0825 28.3106 73.0322 28.7795C73.1107 28.8177 73.1925 28.8517 73.3293 28.9122C73.1245 27.883 72.9293 26.8984 72.7446 25.9626ZM69.4211 30.3933C69.6068 31.6623 69.7861 32.8962 69.9718 34.1662C70.1013 34.0262 70.1894 33.9063 70.3019 33.815C70.4281 33.7132 70.4451 33.606 70.4196 33.4532C70.2828 32.6458 70.1416 31.8384 70.0376 31.0267C69.9962 30.701 69.8753 30.4984 69.5548 30.4273C69.5261 30.422 69.4975 30.4135 69.4211 30.3933ZM69.35 26.9175C69.3553 26.8984 69.367 26.8793 69.3649 26.8613C69.2099 25.8777 69.0561 24.8942 68.8958 23.9106C68.8863 23.8523 68.8375 23.7854 68.7876 23.7525C68.691 23.6899 68.5807 23.6486 68.448 23.5849C68.4523 23.6719 68.4512 23.7186 68.4576 23.7653C68.5828 24.6342 68.7122 25.5021 68.8353 26.3711C68.8916 26.7774 68.9223 26.8167 69.35 26.9175ZM71.0892 37.6272C70.9502 36.4739 70.686 35.0086 70.5809 34.7943C70.2753 35.4235 70.4048 37.276 70.6488 37.8012C70.791 37.7439 70.9354 37.6877 71.0892 37.6272Z" fill="white"/>
<path d="M9.72235 37.1243C9.50587 37.7428 8.82461 38.1015 8.20064 37.8999C7.6446 37.7206 7.19891 37.3757 6.90921 36.8633C6.42426 36.0049 6.88587 34.7858 7.8441 34.4251C8.12636 34.319 8.43941 34.2702 8.74184 34.2522C9.2045 34.2235 9.67035 34.2447 10.1436 34.2447C10.0916 34.2203 10.0396 34.1885 9.98339 34.1705C9.07716 33.8766 8.15714 33.6347 7.20634 33.5593C6.82538 33.5286 6.43381 33.5508 6.05392 33.5986C5.59656 33.6548 5.24531 33.9243 5.00443 34.3084C4.88876 34.4941 4.84207 34.7232 4.76355 34.9354C4.63939 34.5949 4.6638 34.2522 4.86011 33.9233C5.01186 33.6686 5.23895 33.4957 5.49257 33.3535C5.95099 33.0946 6.45291 32.9938 6.96758 32.9344C7.90776 32.8272 8.84795 32.8623 9.78602 32.9524C11.4563 33.1137 13.1021 33.415 14.6928 33.9551C15.4781 34.2214 16.2358 34.5715 17.0051 34.8835C17.1229 34.9312 17.2385 34.98 17.3924 35.0447C18.027 32.092 18.6552 29.1679 19.2876 26.2247C18.5703 26.3509 17.8943 26.4782 17.2152 26.5865C16.5392 26.6936 15.8569 26.7265 15.1703 26.6724C16.014 26.5313 16.8661 26.4252 17.6545 26.0337C17.5792 26.022 17.5049 26.0018 17.4296 25.9997C16.1222 25.9583 14.8159 25.918 13.5086 25.8809C13.3505 25.8766 13.1913 25.883 13.0342 25.9C12.9154 25.9127 12.8273 25.8809 12.7424 25.7971C12.0452 25.1064 11.365 24.3987 10.8111 23.5838C10.6509 23.3483 10.5193 23.0905 10.393 22.8337C10.3293 22.7053 10.3081 22.5557 10.2688 22.4157C10.2879 22.4051 10.306 22.3955 10.3251 22.3849C10.3675 22.439 10.4163 22.4899 10.4535 22.5483C10.7623 23.0364 11.1252 23.4788 11.5624 23.8597C12.3477 24.543 13.2443 24.7817 14.2684 24.5886C15.4664 24.3626 16.5849 23.9149 17.6789 23.3971C20.0432 22.2799 22.2419 20.8878 24.3356 19.3292C25.1856 18.6969 25.9984 18.0157 26.8282 17.3558C26.8972 17.3006 26.9651 17.2444 27.0511 17.1744C27.1052 17.2391 27.1583 17.2932 27.1997 17.3558C28.4189 19.1383 29.6361 20.9218 30.8575 22.7021C30.9466 22.8327 30.9827 22.9589 30.9636 23.1159C30.711 25.2093 30.4627 27.3037 30.2155 29.3981C29.9958 31.2559 29.7698 33.1137 29.5639 34.9736C29.4886 35.6537 29.4737 36.3381 29.6042 37.0171C29.6658 37.3375 29.7263 37.4489 29.9459 37.6728C28.351 39.0786 26.703 40.4356 25.6249 42.3507C25.5103 42.2892 25.3989 42.2298 25.2874 42.1693C22.1018 40.4197 18.9056 38.6903 15.6245 37.1264C14.5082 36.5948 13.3664 36.1142 12.2224 35.6442C11.2483 35.2442 10.2243 35.1763 9.1854 35.3121C8.86812 35.3535 8.56462 35.4426 8.2919 35.6145C7.81969 35.9105 7.65945 36.4039 7.88124 36.8686C8.12212 37.3715 8.61556 37.5858 9.14508 37.4001C9.34139 37.328 9.5271 37.2176 9.72235 37.1243ZM23.961 33.3503C24.4576 30.231 24.9511 27.1392 25.453 23.9891C25.3193 24.0783 25.2386 24.1313 25.159 24.1854C24.6412 24.5334 24.1308 24.892 23.6044 25.2273C23.1545 25.5149 22.6897 25.779 22.1422 25.8989C21.4609 29.3228 20.7796 32.7434 20.0962 36.1747C21.1839 36.6044 22.2387 37.0224 23.3307 37.4542C23.5068 36.3253 23.6766 35.2368 23.8475 34.1376C23.4166 33.9148 22.9996 33.8755 22.6059 34.1142C22.1751 34.3752 22.1294 34.8092 22.1995 35.2728C21.8567 34.9248 21.861 34.4177 22.1729 33.8776C22.539 33.2453 23.093 33.0713 23.961 33.3503ZM24.9022 34.18C25.4201 30.6257 25.9294 27.1265 26.4473 23.5743C26.2637 23.6634 26.1321 23.7271 26.0037 23.7897C25.991 23.8501 25.9804 23.8979 25.9719 23.9456C25.7682 25.2252 25.5655 26.5048 25.3617 27.7843C25.0699 29.6209 24.7834 31.4575 24.481 33.292C24.4396 33.5455 24.429 33.7514 24.6688 33.9095C24.7473 33.9614 24.7972 34.0559 24.9022 34.18ZM24.273 37.8214C24.4619 36.7795 24.6051 35.7832 24.2496 34.7774C24.0926 35.7185 23.9355 36.6606 23.7753 37.6208C23.9334 37.6845 24.0777 37.7428 24.273 37.8214Z" fill="white"/>
<path d="M71.7694 16.9802C71.502 17.7982 71.6241 18.5887 71.9955 19.4375C71.832 19.3589 71.7227 19.3229 71.6315 19.2603C71.2134 18.9781 70.7868 18.7043 70.3857 18.3987C69.575 17.7802 68.778 17.1436 67.9747 16.5144C67.8973 16.4539 67.8198 16.3935 67.7296 16.3234C67.3423 16.6248 66.9624 16.9208 66.5422 17.2486C66.4923 16.821 66.4467 16.4423 66.4042 16.0646C66.2705 14.8646 66.1379 13.6635 66.0052 12.4635C65.8779 11.3028 65.7516 10.141 65.6243 8.98028C65.5351 8.17286 65.4481 7.3665 65.3515 6.56014C65.3324 6.40205 65.3494 6.28322 65.4725 6.16227C66.6472 4.99729 67.8145 3.82596 68.985 2.65674C69.0189 2.62279 69.0592 2.59308 69.1017 2.557C69.1388 2.58353 69.1738 2.60263 69.2014 2.62915C70.5767 3.95964 72.2215 4.82011 74.0265 5.39941C75.5037 5.87368 77.0222 6.13468 78.5672 6.2567C79.6751 6.34476 80.784 6.35855 81.8918 6.3002C82.4447 6.27049 82.9986 6.22274 83.5451 6.13574C84.4832 5.98614 85.2334 5.53204 85.6982 4.67263C85.7067 4.65565 85.7216 4.64186 85.7354 4.62807C85.7417 4.6217 85.7545 4.62276 85.8075 4.60791C85.7651 4.75751 85.7523 4.89756 85.6887 5.01003C85.538 5.27634 85.382 5.54371 85.1952 5.78349C84.7421 6.36386 84.1977 6.85616 83.6279 7.31982C83.5568 7.37711 83.4549 7.42698 83.3669 7.4291C82.4628 7.45138 81.5756 7.61477 80.6864 7.75483C79.9531 7.87047 79.2252 8.01477 78.4951 8.1474C78.4601 8.15376 78.4272 8.16437 78.39 8.20045C79.1838 8.58346 80.0401 8.69699 80.9071 8.81901C80.5484 8.90282 79.8459 8.89115 78.8633 8.75004C78.182 8.65243 77.5061 8.5145 76.7993 8.39036C76.8704 8.7267 76.9373 9.05243 77.0073 9.37709C77.1527 10.054 77.2938 10.733 77.4498 11.4068C77.4976 11.6137 77.4562 11.7527 77.2938 11.8959C76.8577 12.28 76.4385 12.6832 76.0151 13.0768C77.0689 13.9341 78.1269 14.7956 79.1912 15.6603C79.0405 15.9691 78.7498 16.0752 78.493 16.2608C78.563 16.5919 78.632 16.9282 78.7052 17.2656C78.9195 18.2619 79.1339 19.2582 79.3504 20.2544C79.4077 20.5197 79.5297 20.5993 79.7939 20.542C80.0741 20.4804 80.3118 20.3478 80.4752 20.1027C80.6057 19.9064 80.6397 19.7059 80.4455 19.5446C80.4264 19.5287 80.4211 19.4958 80.4083 19.4682C80.906 19.4215 81.1161 19.6316 81.0259 20.0985C80.993 20.2714 80.922 20.4359 80.8636 20.6226C81.0801 20.6428 81.2923 20.6661 81.5045 20.682C82.4001 20.7457 82.9063 21.8565 82.2696 22.6088C82.1274 22.7775 81.9555 22.9228 81.7985 23.0788C81.7825 23.0661 81.7666 23.0533 81.7497 23.0395C81.7762 22.9674 81.807 22.8974 81.8282 22.8242C81.9778 22.2905 81.5066 21.674 80.9633 21.691C80.6206 21.7016 80.4561 21.8862 80.4932 22.2268C80.5039 22.3234 80.5283 22.4178 80.5537 22.5547C80.4391 22.4836 80.3627 22.4242 80.2757 22.3849C80.1144 22.3117 79.9531 22.2215 79.7823 22.1907C79.2124 22.0846 78.7423 22.6311 78.9248 23.0809C78.9386 23.1149 78.9333 23.1552 78.9408 23.2252C77.8552 23.1064 76.9065 22.7191 76.0417 22.0337C76.187 21.8703 76.308 21.7144 76.4492 21.5807C76.5733 21.4618 76.5892 21.3356 76.5574 21.1786C76.3101 19.9563 76.0661 18.734 75.821 17.5118C75.7796 17.308 75.7212 17.1065 75.701 16.9006C75.6681 16.56 75.509 16.2863 75.3095 16.02C74.8245 15.3738 74.2759 14.7935 73.601 14.3415C73.1288 14.0243 72.6184 13.7887 72.0655 13.6497C72.0018 13.6338 71.9339 13.6317 71.8289 13.6179C71.9286 14.264 72.0252 14.8837 72.1207 15.5065C73.0258 15.2741 73.4408 15.3855 73.8323 15.934C74.2356 16.5006 74.2218 17.1033 73.8886 17.4778C73.9342 16.96 73.9087 16.4815 73.3962 16.2407C73.0184 16.0624 72.629 16.0879 72.2385 16.3149C72.4189 17.4873 72.5993 18.6566 72.7882 19.8757C72.6534 19.8152 72.5685 19.7706 72.4794 19.7388C72.3096 19.6783 72.247 19.5616 72.2215 19.3844C72.1111 18.6205 71.9838 17.8587 71.8618 17.0969C71.8554 17.0598 71.8395 17.0258 71.8278 16.9897C71.8087 16.9834 71.7885 16.9813 71.7694 16.9802ZM74.4807 10.7712C74.2939 9.84181 74.1146 8.94632 73.9363 8.05615C72.8667 7.93095 71.8872 7.59143 70.8494 7.30178C71.0829 8.83704 71.3121 10.333 71.5583 11.8503C72.5802 11.5638 73.5257 11.2009 74.4807 10.7712ZM71.0436 11.9712C71.0372 11.8747 71.0394 11.8153 71.0298 11.759C70.8027 10.3033 70.5767 8.84659 70.3464 7.3909C70.2955 7.06836 70.2191 7.00576 69.8625 6.96757C70.1002 8.65243 70.3369 10.333 70.5778 12.037C70.7433 12.0137 70.877 11.9946 71.0436 11.9712ZM70.7868 13.5213C70.9194 14.4667 71.0479 15.3791 71.1826 16.3383C71.3004 16.2046 71.3694 16.09 71.4691 16.0221C71.6485 15.899 71.6527 15.741 71.6219 15.5553C71.5254 14.9696 71.4341 14.3839 71.3429 13.7983C71.2972 13.5097 71.2983 13.5097 71.0128 13.5097C70.9545 13.5075 70.8972 13.5139 70.7868 13.5213Z" fill="white"/>
<path d="M18.0429 8.35535C16.6549 8.69169 15.303 8.92404 13.915 8.83704C14.7788 8.69911 15.6479 8.5824 16.5212 8.2015C16.4151 8.16967 16.3695 8.14952 16.3206 8.14103C14.9008 7.87154 13.4789 7.61265 12.041 7.45775C11.9232 7.44502 11.8012 7.42273 11.6855 7.43759C11.4244 7.47154 11.2377 7.35589 11.0509 7.19144C10.5076 6.71187 9.9749 6.22381 9.53558 5.6445C9.33715 5.3835 9.15675 5.11082 9.07398 4.78722C9.057 4.7225 9.05063 4.65459 9.03896 4.58775C9.057 4.57502 9.07398 4.56122 9.09202 4.54849C9.10794 4.58244 9.12173 4.6164 9.13871 4.64929C9.57697 5.49915 10.3081 5.95219 11.2186 6.11877C11.7428 6.21426 12.2787 6.26412 12.8114 6.29171C14.6461 6.38826 16.4745 6.31824 18.2891 6.00524C20.1758 5.67952 21.9841 5.12355 23.6437 4.14319C24.3451 3.72834 24.9956 3.24347 25.5846 2.68008C25.627 2.63976 25.6716 2.60157 25.7289 2.55064C25.7915 2.60369 25.8541 2.64931 25.9082 2.70342C27.0511 3.84399 28.1908 4.98775 29.3368 6.12514C29.4599 6.24715 29.5109 6.3681 29.4907 6.54211C29.3761 7.5352 29.271 8.52935 29.1617 9.52351C29.0524 10.5177 28.941 11.5108 28.8317 12.5049C28.7012 13.6858 28.5696 14.8667 28.4391 16.0476C28.4083 16.3234 28.3818 16.5993 28.351 16.8741C28.3393 16.9813 28.3213 17.0874 28.298 17.2423C27.8873 16.9218 27.5095 16.6279 27.1158 16.3203C27.0076 16.4051 26.9089 16.4847 26.8081 16.5622C25.7798 17.3526 24.7547 18.1473 23.7201 18.9303C23.4782 19.1128 23.2065 19.256 22.9158 19.3971C23.2097 18.5834 23.3593 17.7802 23.0113 16.9526C22.9306 17.4481 22.8489 17.9425 22.7693 18.438C22.7184 18.751 22.6611 19.0629 22.6239 19.377C22.6017 19.5658 22.5263 19.6889 22.3417 19.7462C22.2589 19.7717 22.1814 19.8162 22.0573 19.8714C22.244 18.6651 22.4244 17.4969 22.607 16.3149C22.2048 16.0741 21.7952 16.0476 21.41 16.2566C20.9462 16.5091 20.8794 16.9569 20.9696 17.4576C20.6067 17.0598 20.6311 16.5579 20.9653 15.9935C21.3474 15.3473 22.0032 15.2677 22.7226 15.5171C23.1471 12.7882 23.5694 10.0667 24.0003 7.30072C22.9582 7.59143 21.9766 7.93095 20.9123 8.05615C20.8391 8.41583 20.7627 8.78187 20.6894 9.14791C20.0453 12.3797 19.4023 15.6115 18.7592 18.8433C18.6032 19.6295 18.4525 20.4168 18.2848 21.2008C18.2509 21.36 18.2859 21.4629 18.392 21.5701C18.53 21.7101 18.6552 21.8629 18.8038 22.0305C17.9463 22.7138 16.9934 23.0968 15.8983 23.2252C15.911 23.152 15.9153 23.1064 15.927 23.0618C16.0819 22.4475 15.4558 22.038 14.9602 22.2077C14.7756 22.2714 14.6069 22.3807 14.4318 22.4698C14.3904 22.491 14.3522 22.5165 14.2864 22.5557C14.3151 22.4114 14.3469 22.2979 14.3586 22.1833C14.3872 21.9053 14.2408 21.7282 13.9638 21.6921C13.3727 21.6157 12.8506 22.2682 13.031 22.8592C13.0501 22.9218 13.083 22.9812 13.117 23.0597C12.2267 22.5504 12.1206 21.7345 12.509 21.1605C12.6957 20.8857 12.9525 20.7414 13.2677 20.6905C13.5001 20.6534 13.7367 20.6417 13.985 20.6173C13.9309 20.4528 13.8694 20.2979 13.828 20.1367C13.7049 19.6518 13.9362 19.4025 14.4392 19.4672C14.1951 19.8014 14.2153 20.0306 14.5527 20.2947C14.696 20.4062 14.8785 20.4836 15.0557 20.5335C15.3147 20.6067 15.4452 20.5133 15.5025 20.2481C15.7667 19.0194 16.0278 17.7897 16.292 16.5611C16.8544 13.9394 17.4189 11.3177 17.9814 8.69593C18.0015 8.60362 18.0153 8.50707 18.0429 8.35535ZM24.9871 6.93468C24.6677 7.00364 24.4788 7.13308 24.4852 7.45456C24.4873 7.57127 24.4513 7.68904 24.4322 7.80575C24.2051 9.27205 23.978 10.7383 23.7498 12.2046C23.5694 13.3675 23.3858 14.5304 23.2097 15.6943C23.1991 15.7611 23.2192 15.863 23.2649 15.9033C23.4018 16.0242 23.5578 16.1229 23.683 16.2131C24.1096 13.1776 24.5468 10.0667 24.9871 6.93468Z" fill="white"/>
<path d="M55.9528 24.7637C56.1789 24.6491 56.4017 24.5419 56.6171 24.4241C57.2071 24.1005 57.8003 23.7822 58.3808 23.4427C58.731 23.238 59.0536 22.9886 59.2902 22.6183C59.5024 22.6682 59.7136 22.7138 59.9226 22.769C61.0369 23.0671 62.1129 23.4586 63.1008 24.0655C63.6749 24.4188 63.6643 24.421 63.7258 25.0851C63.8298 26.2194 63.9434 27.3525 64.0622 28.4846C64.128 29.1116 64.1376 29.1106 63.6494 29.5275C62.3845 30.6098 61.1218 31.693 59.8537 32.771C59.7285 32.8782 59.6701 32.9811 59.6892 33.1498C59.79 34.0145 59.8728 34.8824 59.9831 35.746C60.0203 36.0378 60.1115 36.3253 60.1954 36.6086C60.2325 36.736 60.3132 36.8516 60.3864 36.997C60.9583 36.7434 61.4645 36.4367 62.0068 36.128C61.9399 35.3577 61.8731 34.5821 61.8062 33.8065C62.7623 33.2156 63.537 32.4368 64.354 31.6241C64.3838 31.8692 64.4114 32.0591 64.4305 32.2511C64.5663 33.6209 64.7021 34.9906 64.8369 36.3604C64.8507 36.4983 64.8422 36.6405 64.874 36.7742C64.9228 36.98 64.8592 37.1222 64.7106 37.2696C63.052 38.9152 61.1716 40.2224 58.9825 41.0659C58.7745 41.1455 58.5601 41.207 58.3001 41.2929C58.4498 40.8526 58.3511 40.4802 58.2312 40.1152C58.0094 39.4351 57.7186 38.7837 57.3536 38.1694C57.1413 37.8118 57.0214 37.45 56.9907 37.0288C56.8601 35.2909 56.6957 33.5561 56.5471 31.8193C56.4176 30.3095 56.2945 28.7997 56.1651 27.2899C56.0982 26.5101 56.0229 25.7324 55.9518 24.9525C55.9497 24.9027 55.9528 24.8528 55.9528 24.7637ZM59.4398 30.1228C59.513 30.0686 59.547 30.0506 59.5735 30.0241C60.1052 29.5053 60.6315 28.9811 61.1685 28.4687C61.2884 28.3551 61.2926 28.2352 61.2788 28.0941C61.2364 27.6602 61.1982 27.2262 61.1557 26.7934C61.1218 26.4506 61.0836 26.1079 61.0464 25.7578C60.311 25.6029 59.6457 25.326 58.992 24.8793C59.1438 26.6618 59.2902 28.3721 59.4398 30.1228Z" fill="white"/>
<path d="M34.1694 22.5897C33.973 22.5069 33.7651 22.4433 33.5825 22.3372C33.018 22.0093 32.4407 21.6963 31.908 21.3218C31.0092 20.6905 30.1433 20.0115 29.2583 19.3611C29.1023 19.2465 29.0577 19.1223 29.0779 18.9335C29.2721 17.1022 29.461 15.2709 29.6424 13.4396C29.6562 13.2996 29.6191 13.1479 29.5767 13.011C29.5151 12.8147 29.426 12.6269 29.34 12.4158C29.6891 12.3076 29.7931 12.0625 29.8228 11.7367C29.9173 10.6821 30.0319 9.62855 30.138 8.57498C30.1996 7.9649 30.2664 7.35377 30.3173 6.74263C30.3301 6.58879 30.4203 6.5177 30.5275 6.44449C31.109 6.04344 31.7393 5.73469 32.3951 5.47581C33.1326 5.18403 33.8903 4.95804 34.6639 4.78403C34.7212 4.7713 34.7795 4.76812 34.8464 4.75857C35.0788 5.12037 35.4141 5.37077 35.776 5.57342C36.4837 5.96811 37.2064 6.33839 37.9237 6.71717C38.0362 6.77659 38.1519 6.83282 38.2686 6.89223C38.2718 6.95377 38.2803 7.00258 38.276 7.05032C38.1678 8.24289 38.0574 9.43544 37.9492 10.6291C37.911 11.0535 37.8802 11.4779 37.8378 11.9012C37.8197 12.0858 37.9153 12.2025 38.0437 12.3012C38.1041 12.3479 38.1827 12.3723 38.2814 12.4211C38.1126 12.8115 37.9397 13.1977 37.7805 13.5892C37.7179 13.7431 37.6616 13.9065 37.6468 14.0699C37.5131 15.5394 37.391 17.0088 37.2637 18.4783C37.2329 18.8338 37.1894 19.1871 37.1671 19.5425C37.1576 19.6857 37.1045 19.794 36.9942 19.8672C36.6896 20.0698 36.3925 20.2873 36.071 20.456C35.3324 20.8422 34.5461 21.1138 33.7491 21.3557C33.3671 21.4714 33.3332 21.5584 33.5772 21.8799C33.7078 22.0528 33.8648 22.2067 34.0165 22.3616C34.076 22.422 34.1566 22.4634 34.2277 22.5133C34.2076 22.5398 34.1885 22.5653 34.1694 22.5897ZM35.1414 7.05775C35.0798 7.0726 35.048 7.0726 35.0257 7.08746C34.4559 7.45987 33.8383 7.71769 33.1719 7.85244C33.0095 7.88533 33.0106 7.9978 32.9989 8.11769C32.9427 8.70866 32.8832 9.29964 32.827 9.89061C32.6402 11.8609 32.4704 13.8333 32.2571 15.8004C32.203 16.3001 32.2582 16.7298 32.5373 17.1468C32.6996 17.3887 32.8185 17.6592 32.9565 17.9181C32.9405 17.9308 32.9236 17.9446 32.9076 17.9574C32.6593 17.7335 32.411 17.5096 32.1245 17.2507C32.0884 17.6964 32.0513 18.0879 32.029 18.4804C32.0248 18.5483 32.0672 18.6353 32.116 18.6863C32.2656 18.8412 32.4291 18.9834 32.5893 19.1319C33.1135 18.9155 33.6144 18.7075 34.128 18.4953C34.146 18.3298 34.1651 18.1738 34.1789 18.0168C34.267 17.011 34.3519 16.0051 34.441 15.0004C34.5493 13.7781 34.6628 12.5558 34.7647 11.3336C34.7753 11.2009 34.7498 11.0566 34.7063 10.9304C34.5652 10.5187 34.4071 10.1134 34.2585 9.70388C34.2256 9.61475 34.2012 9.52139 34.1725 9.43014C34.1895 9.41953 34.2076 9.40998 34.2245 9.39937C34.4262 9.64128 34.6278 9.88425 34.8676 10.1728C34.9631 9.09274 35.0512 8.08373 35.1414 7.05775Z" fill="white"/>
<path d="M65.5075 12.4073C65.4311 12.5983 65.3696 12.7744 65.2911 12.9442C65.2136 13.1107 65.1849 13.2763 65.204 13.4609C65.3176 14.5441 65.4237 15.6274 65.5319 16.7118C65.6094 17.4799 65.6826 18.2491 65.7675 19.0162C65.7834 19.1552 65.7421 19.2369 65.6391 19.3186C64.4665 20.2481 63.2802 21.1584 61.9983 21.9329C61.6852 22.1218 61.3552 22.2831 61.0294 22.4486C60.918 22.5048 60.7949 22.5388 60.6135 22.6067C60.9265 22.2152 61.3499 21.987 61.4295 21.4746C61.3085 21.4321 61.2003 21.395 61.092 21.3557C60.3885 21.0926 59.6743 20.8518 58.9846 20.5558C58.6068 20.3934 58.2672 20.1409 57.9149 19.9234C57.742 19.8162 57.6815 19.6539 57.6645 19.4491C57.5361 17.9096 57.378 16.3733 57.2708 14.8327C57.2241 14.1601 57.0957 13.5266 56.7795 12.9304C56.6967 12.7755 56.6458 12.6036 56.5736 12.4221C56.632 12.3946 56.6744 12.3765 56.7148 12.3553C56.9291 12.2439 57.0331 12.0816 57.0076 11.8269C56.9323 11.0779 56.8708 10.3288 56.8039 9.57868C56.7296 8.74049 56.6543 7.9023 56.5811 7.06412C56.5768 7.01531 56.58 6.96651 56.58 6.89754C56.6819 6.84343 56.7859 6.78826 56.8899 6.73415C57.4883 6.42646 58.0911 6.12726 58.6843 5.8079C58.9538 5.66254 59.2127 5.49278 59.4568 5.30817C59.6595 5.15538 59.8335 4.96334 60.0532 4.75857C60.1996 4.79146 60.3927 4.82966 60.5827 4.87846C61.7372 5.17554 62.8578 5.56069 63.8893 6.17182C64.093 6.29277 64.3434 6.39675 64.4623 6.5803C64.5737 6.75218 64.5472 7.01743 64.5705 7.24237C64.7286 8.77869 64.8868 10.315 65.0385 11.8513C65.0661 12.1452 65.2157 12.3235 65.5075 12.4073ZM59.9789 10.1697C60.241 9.89167 60.3991 9.59884 60.6697 9.40786C60.5095 9.91289 60.3323 10.4041 60.1487 10.8933C60.0914 11.045 60.068 11.1914 60.0829 11.3558C60.171 12.2821 60.2484 13.2094 60.3301 14.1367C60.4511 15.5277 60.5753 16.9176 60.6909 18.3096C60.7026 18.4518 60.761 18.5176 60.8862 18.5664C61.1727 18.6767 61.4539 18.7987 61.7372 18.9165C62.3156 19.1552 62.3156 19.1552 62.7305 18.6916C62.7432 18.6767 62.7634 18.6651 62.7708 18.6481C62.7931 18.595 62.8313 18.5388 62.827 18.4868C62.7963 18.0889 62.7559 17.6911 62.7135 17.2391C62.5554 17.3919 62.4472 17.5043 62.3304 17.6072C62.2137 17.7102 62.1161 17.846 61.8985 17.9202C61.9728 17.7738 62.0142 17.6858 62.0598 17.6009C62.2275 17.2868 62.4026 16.9759 62.5628 16.6576C62.6095 16.5653 62.6371 16.4529 62.635 16.35C62.6297 16.1325 62.5978 15.916 62.5777 15.6996C62.4673 14.5569 62.3559 13.4131 62.2455 12.2704C62.1383 11.1468 62.0333 10.0232 61.9251 8.89964C61.8932 8.56649 61.854 8.2344 61.8168 7.88851C61.0613 7.73891 60.3758 7.45457 59.7019 7.01425C59.7953 8.09116 59.8844 9.10123 59.9789 10.1697Z" fill="white"/>
<path d="M43.5638 23.9658C43.5256 24.0178 43.4948 24.0645 43.4598 24.1059C42.7732 24.9175 42.3541 25.8576 42.1143 26.8857C42.0856 27.0077 42.0909 27.1138 42.1493 27.2284C42.7128 28.3191 43.272 29.4108 43.8333 30.5026C43.8461 30.5281 43.8684 30.5482 43.9246 30.6193C43.9352 30.4856 43.9458 30.3965 43.9479 30.3074C43.9851 28.3371 44.0222 26.3668 44.0594 24.3966C44.0604 24.3287 44.0657 24.2608 44.071 24.1631C44.5751 24.4666 45.0569 24.7679 45.5492 25.0491C46.0469 25.3334 46.5563 25.5976 47.0646 25.8724C47.0646 26.0507 47.0699 26.2172 47.0635 26.3838C47.0094 27.9382 46.9585 29.4915 46.8969 31.0448C46.8693 31.7376 46.9404 32.4081 47.2853 33.102C47.1134 33.0161 46.9988 32.9599 46.8555 32.8888C46.846 32.9821 46.8332 33.0554 46.8311 33.1286C46.7717 34.8506 46.7017 36.5726 46.6645 38.2956C46.656 38.6648 46.5266 38.9089 46.2464 39.12C45.7286 39.5105 45.1598 39.8075 44.5719 40.0728C44.2674 40.2107 43.9575 40.3349 43.6423 40.4685C43.619 40.4166 43.5967 40.3911 43.5978 40.3677C43.6582 39.0617 43.7198 37.7566 43.7824 36.4505C43.8036 35.9954 43.8312 35.5413 43.8471 35.085C43.8503 35.0012 43.8302 34.9047 43.7898 34.8315C43.1956 33.7577 42.595 32.6872 41.9954 31.6156C41.9827 31.5933 41.9562 31.5784 41.9126 31.5392C41.8967 31.6686 41.8776 31.7726 41.8713 31.8776C41.8044 33.0935 41.7418 34.3105 41.6728 35.5264C41.6633 35.7025 41.6983 35.8521 41.7927 36.0028C41.9827 36.3041 42.1588 36.615 42.3382 36.9216C42.3764 36.9874 42.4093 37.0564 42.4761 37.1848C42.1302 37.0097 41.937 36.7434 41.6357 36.5407C41.6261 36.7858 41.6325 36.9906 41.6081 37.1922C41.5455 37.7195 41.6484 38.2192 41.8649 38.6946C42.1068 39.2251 42.3477 39.7577 42.6311 40.267C42.9409 40.824 43.3632 41.2982 43.8631 41.7226C43.8058 41.711 43.7442 41.7099 43.6922 41.6876C43.3664 41.5444 43.0322 41.416 42.7191 41.2484C41.3725 40.5237 40.131 39.6399 38.8979 38.7402C38.7737 38.65 38.7557 38.546 38.7621 38.4091C38.8119 37.4298 38.8586 36.4505 38.9053 35.4712C38.9488 34.5715 38.9955 33.6707 39.0327 32.771C39.0369 32.6681 38.9976 32.5588 38.9584 32.4612C38.8767 32.2607 38.7812 32.0654 38.6814 31.849C39.0454 31.71 39.1038 31.4257 39.1175 31.084C39.1833 29.4416 39.2693 27.8002 39.3425 26.1578C39.3489 26.0146 39.3998 25.9212 39.5102 25.8353C39.9633 25.4788 40.4525 25.1785 40.965 24.9186C41.7174 24.5366 42.5016 24.2353 43.3091 23.9955C43.3654 23.9785 43.4237 23.9647 43.4821 23.9541C43.5023 23.9478 43.5224 23.9573 43.5638 23.9658Z" fill="white"/>
<path d="M34.927 40.4579C34.7572 40.3868 34.615 40.3433 34.4898 40.2712C33.9932 39.9837 33.4775 39.7216 33.0148 39.3874C32.0364 38.6797 31.0888 37.9306 30.1232 37.2049C29.9831 37.0999 29.9608 36.9832 29.9778 36.8219C30.1168 35.4628 30.2484 34.1036 30.3831 32.7445C30.5328 31.2379 30.6856 29.7313 30.8352 28.2236C30.9445 27.1201 31.0612 26.0178 31.1482 24.9122C31.1758 24.5631 31.3074 24.3414 31.6045 24.1557C32.6402 23.5096 33.764 23.0841 34.9355 22.769C35.1446 22.7128 35.3557 22.6682 35.5711 22.6173C35.8301 23.0173 36.1909 23.2804 36.5771 23.5021C37.2117 23.8661 37.8611 24.2056 38.5053 24.5546C38.6347 24.6247 38.7674 24.6905 38.9149 24.7658C38.9 24.9769 38.8873 25.1817 38.8692 25.3865C38.7196 27.1021 38.5668 28.8177 38.4182 30.5344C38.3089 31.8066 38.2049 33.0798 38.0978 34.3519C38.0161 35.328 37.928 36.3052 37.8526 37.2813C37.8346 37.5147 37.7518 37.6887 37.5629 37.833C37.0547 38.2203 36.488 38.4866 35.8693 38.7381C35.8195 38.3211 35.7781 37.9412 35.7282 37.5635C35.6051 36.6299 35.4215 35.71 35.118 34.8155C35.0756 34.6893 35.0575 34.545 35.066 34.4113C35.0915 33.9869 35.1318 33.5625 35.1711 33.1392C35.1828 33.0172 35.1828 32.9164 35.0713 32.8219C34.5089 32.3519 33.9561 31.8713 33.3979 31.396C33.3777 31.379 33.347 31.3737 33.2939 31.3514C33.2589 31.6983 33.2217 32.0283 33.191 32.3604C33.0711 33.6813 32.948 35.0023 32.8387 36.3243C32.8249 36.4866 32.8684 36.6585 32.9076 36.8198C33.1294 37.7344 33.5189 38.5757 34.0664 39.3396C34.3296 39.7089 34.6182 40.059 34.927 40.4579ZM35.8715 24.8772C35.205 25.3366 34.5312 25.6019 33.8086 25.7631C33.7322 26.5928 33.6589 27.4002 33.5804 28.2066C33.5677 28.335 33.6356 28.4061 33.7162 28.4835C34.2267 28.9801 34.7339 29.4798 35.2443 29.9763C35.2899 30.0209 35.3472 30.0527 35.4258 30.11C35.5743 28.3658 35.7197 26.6565 35.8715 24.8772Z" fill="white"/>
<path d="M51.2042 37.9084C51.757 38.2245 52.3513 38.4293 53.005 38.5651C53.1185 38.2924 53.2448 38.0229 53.2458 37.7237C53.2458 37.3482 53.2182 36.9736 53.2002 36.5429C52.9222 36.7731 52.6739 36.9789 52.4256 37.1858C52.4086 37.1699 52.3927 37.155 52.3757 37.1391C52.555 36.8368 52.7206 36.5248 52.9179 36.2352C53.1153 35.9444 53.1822 35.6474 53.1662 35.2919C53.0813 33.3726 53.024 31.4522 52.9551 29.5318C52.9307 28.8591 52.8914 28.1864 52.8776 27.5127C52.8617 26.7414 52.6357 26.0273 52.2781 25.3589C52.0648 24.96 51.7867 24.595 51.5352 24.2162C51.4822 24.1366 51.4185 24.0645 51.3347 23.9562C51.4238 23.9616 51.4726 23.9552 51.5151 23.9679C52.8086 24.3647 54.0502 24.8729 55.1527 25.6772C55.5326 25.9541 55.5369 25.9562 55.5581 26.4252C55.6059 27.4735 55.6483 28.5228 55.6918 29.571C55.7141 30.1058 55.748 30.6395 55.7523 31.1742C55.7555 31.4925 55.8467 31.7344 56.1778 31.8575C56.1216 31.9859 56.0834 32.11 56.0176 32.2161C55.8319 32.5174 55.816 32.84 55.8329 33.1848C55.9168 34.8962 55.9794 36.6086 56.0632 38.319C56.0749 38.5662 56.0017 38.7126 55.8011 38.8558C54.6795 39.6548 53.5557 40.4494 52.3449 41.1104C51.9385 41.3322 51.5045 41.5041 51.0811 41.6951C51.011 41.7269 50.9314 41.7396 50.8593 41.7598C50.3054 40.6818 49.4416 39.8829 48.5735 39.0871C48.5078 39.0266 48.443 38.9651 48.3751 38.9089C48.2435 38.8007 48.1979 38.6659 48.1936 38.494C48.1448 36.7222 48.0886 34.9503 48.0345 33.1784C48.0313 33.084 48.0228 32.9885 48.0143 32.8633C47.8742 32.9333 47.7628 32.9896 47.6164 33.0628C47.6397 32.9811 47.6482 32.928 47.6694 32.8803C47.887 32.3827 47.9899 31.8607 47.9761 31.3196C47.9485 30.2108 47.9135 29.1021 47.8817 27.9933C47.8615 27.291 47.8392 26.5886 47.8169 25.8586C48.8081 25.344 49.8427 24.8952 50.8009 24.2077C50.8476 25.9244 50.8922 27.587 50.9389 29.3217C51.1946 29.0384 51.3962 28.8156 51.5979 28.5917C51.6127 28.5981 51.6276 28.6055 51.6424 28.6119C51.6286 28.6692 51.6212 28.7286 51.5989 28.7817C51.4206 29.2114 51.2339 29.6379 51.063 30.0697C51.0142 30.1949 50.9824 30.3371 50.9856 30.4697C51.0492 32.8654 51.1193 35.2612 51.1882 37.6569C51.1914 37.7375 51.1989 37.816 51.2042 37.9084Z" fill="white"/>
<path d="M42.9006 10.733C43.1033 10.9718 43.307 11.2105 43.5511 11.497C43.6529 10.4349 43.7102 9.42059 43.7867 8.34368C43.1181 8.80097 42.4411 9.08744 41.694 9.25189C41.6718 9.46091 41.6452 9.66462 41.6283 9.86939C41.52 11.2317 41.4139 12.594 41.3057 13.9564C41.2165 15.0715 41.1231 16.1866 41.0329 17.3017C41.0223 17.4301 41.0234 17.5595 41.0075 17.6868C40.9894 17.8322 41.0287 17.9563 41.1019 18.0815C41.2855 18.3987 41.4616 18.7192 41.6399 19.0396C41.6813 19.1149 41.7184 19.1934 41.7174 19.3112C41.4712 19.0969 41.2261 18.8826 40.9629 18.6534C40.9427 18.7319 40.9205 18.786 40.9151 18.8412C40.8897 19.1467 40.8695 19.4534 40.8462 19.76C40.8377 19.8703 40.8366 19.9743 40.9342 20.0581C41.0977 20.1993 41.2547 20.3489 41.4224 20.5027C41.9455 20.2767 42.4517 20.0581 42.9611 19.8375C43.0417 18.734 43.1213 17.6497 43.2051 16.4943C44.0742 17.4237 45.0611 18.0858 46.1594 18.6014C46.1446 18.8709 46.1339 19.1255 46.117 19.3812C46.083 19.865 46.0406 20.3489 46.013 20.8327C46.0045 20.9738 45.961 21.0863 45.8495 21.1637C45.5482 21.3706 45.2553 21.5945 44.9359 21.7685C44.1952 22.1727 43.4025 22.4571 42.6013 22.7159C42.2437 22.8316 42.2129 22.9441 42.4825 23.2146C42.6279 23.361 42.7945 23.4862 42.9961 23.6602C42.89 23.6379 42.8295 23.6358 42.7785 23.6125C42.4103 23.4427 42.0347 23.2857 41.6792 23.0915C40.4164 22.4029 39.2375 21.5828 38.0681 20.7489C37.9354 20.6544 37.9057 20.5494 37.9184 20.3966C37.9938 19.5584 38.0596 18.7192 38.1317 17.881C38.2187 16.8645 38.3121 15.8492 38.3917 14.8327C38.4023 14.7022 38.3641 14.5601 38.3206 14.4338C38.2538 14.2386 38.1614 14.0529 38.0755 13.8503C38.153 13.8078 38.2134 13.7813 38.2686 13.7442C38.4151 13.6455 38.5084 13.516 38.5233 13.3314C38.5997 12.4232 38.6793 11.5161 38.7568 10.6089C38.8236 9.81952 38.8915 9.03015 38.9509 8.24076C38.9647 8.05721 39.0358 7.93519 39.1897 7.82803C40.1119 7.19038 41.1306 6.76173 42.1917 6.42646C42.6045 6.29596 43.0258 6.19092 43.4428 6.07421C43.7039 6.46571 44.0541 6.7108 44.4286 6.91239C45.0993 7.27419 45.7827 7.61159 46.4618 7.95748C46.603 8.02962 46.7473 8.09434 46.9118 8.17286C46.9118 8.24819 46.9171 8.32458 46.9107 8.40097C46.8184 9.66568 46.725 10.9293 46.6327 12.193C46.5977 12.6672 46.5595 13.1415 46.5361 13.6158C46.5075 14.2004 46.5499 14.42 46.8375 15.3908C46.7621 15.3516 46.7048 15.3272 46.6528 15.2943C45.4962 14.5463 44.4902 13.6274 43.5956 12.5834C43.5383 12.5176 43.4895 12.4391 43.4577 12.3574C43.2614 11.8609 43.0693 11.3612 42.8783 10.8625C42.8656 10.8296 42.8677 10.7914 42.8624 10.7553C42.8741 10.7479 42.8878 10.7405 42.9006 10.733Z" fill="white"/>
<path d="M48.6255 17.9828C48.2425 18.177 47.8955 18.3542 47.5485 18.5303C47.54 18.5186 47.5304 18.507 47.5219 18.4953C47.5867 18.3892 47.6588 18.2863 47.714 18.1749C47.8849 17.8322 47.8212 17.5202 47.4933 17.324C47.2598 17.1839 46.9945 17.081 46.7292 17.0131C46.1414 16.8635 45.5365 16.8285 44.9316 16.8232C44.7162 16.821 44.5008 16.8232 44.2843 16.8232C44.2812 16.8041 44.2769 16.785 44.2737 16.7659C45.6585 16.3775 47.0434 15.9903 48.4505 15.5956C48.4441 15.4598 48.4388 15.3378 48.4313 15.1765C48.2775 15.2593 48.1597 15.324 48.0037 15.4089C48.0398 15.2996 48.0621 15.2285 48.0875 15.1574C48.2817 14.6184 48.3539 14.0667 48.3029 13.4927C48.2276 12.6439 48.1692 11.794 48.1045 10.9452C48.0451 10.1654 47.9857 9.38452 47.9284 8.60468C47.9188 8.4763 47.9156 8.34792 47.9082 8.19832C49.0596 7.59674 50.3011 7.15536 51.3273 6.22169C51.2922 6.51134 51.2668 6.74369 51.2349 6.97499C51.1872 7.31769 51.1299 7.6604 51.0842 8.0031C51.0641 8.15906 51.0482 8.31928 51.0588 8.47631C51.1214 9.42484 51.1914 10.3734 51.2593 11.3219C51.2625 11.359 51.2753 11.3962 51.2954 11.4842C51.5257 11.2158 51.7316 10.976 51.9374 10.7362C51.9523 10.7437 51.9661 10.75 51.9809 10.7574C51.9618 10.8254 51.948 10.8954 51.9226 10.9601C51.7581 11.3951 51.5883 11.828 51.427 12.2651C51.3899 12.3649 51.3559 12.4763 51.3623 12.5802C51.4047 13.272 51.4588 13.9638 51.5108 14.6545C51.514 14.7012 51.5299 14.7479 51.548 14.8306C52.988 14.4624 54.411 14.0975 55.834 13.7335C55.8436 13.7516 55.852 13.7707 55.8616 13.7887C54.4598 14.6672 53.0569 15.5457 51.6435 16.4317C51.7284 17.568 51.8122 18.6926 51.8971 19.8343C52.4022 20.0518 52.8999 20.2661 53.4347 20.4963C53.6013 20.3436 53.7849 20.195 53.943 20.0221C53.9982 19.9616 54.0077 19.8417 54.0024 19.7494C53.9865 19.4332 53.9557 19.117 53.9313 18.8009C53.9218 18.682 53.9239 18.577 54.0184 18.473C54.9554 17.4332 55.6536 16.2396 56.2606 14.9866C56.2903 14.924 56.3221 14.8624 56.355 14.802C56.3635 14.7861 56.3826 14.7765 56.4155 14.7479C56.4346 14.8062 56.4601 14.855 56.4654 14.9059C56.5917 16.3563 56.7158 17.8067 56.8421 19.2571C56.875 19.6422 56.9079 20.0263 56.9503 20.4104C56.9663 20.5558 56.9174 20.6481 56.7997 20.7329C55.609 21.5881 54.4078 22.4295 53.1174 23.1319C52.8224 23.2921 52.5136 23.4289 52.2091 23.5711C52.1221 23.6114 52.0276 23.6326 51.9183 23.6295C51.9671 23.586 52.0149 23.5425 52.0637 23.499C52.1751 23.4013 52.295 23.3112 52.3969 23.204C52.6484 22.9398 52.6187 22.8242 52.2834 22.7181C51.4992 22.4698 50.7256 22.1907 49.9966 21.8077C49.674 21.638 49.3758 21.4226 49.0712 21.2199C48.9237 21.1223 48.8601 20.9823 48.8484 20.7955C48.8028 20.0348 48.7401 19.2741 48.6818 18.5133C48.6669 18.3499 48.6457 18.1865 48.6255 17.9828Z" fill="white"/>
<path d="M14.6727 31.0448C15.0398 31.2368 15.4133 31.432 15.8198 31.6453C15.7253 31.8384 15.6489 32.0283 15.5428 32.2002C15.373 32.4782 15.2032 32.7604 14.9974 33.0108C14.7045 33.3683 14.5018 33.4065 14.0858 33.2188C13.8428 33.1095 13.6126 32.9715 13.377 32.8442C12.3328 32.2787 11.2918 31.7058 10.2444 31.1466C9.05063 30.509 7.76345 30.3732 6.437 30.4686C5.55517 30.5312 4.69033 30.6936 3.84246 30.945C3.80638 30.9556 3.76712 30.9567 3.6992 30.9673C3.74802 30.9047 3.77242 30.8623 3.80744 30.8304C4.3741 30.335 4.93758 29.8374 5.5106 29.3493C6.03163 28.9047 6.64817 28.7138 7.32413 28.7275C7.98735 28.7413 8.64951 28.7785 9.31168 28.805C9.36686 28.8071 9.4231 28.8114 9.52816 28.8177C9.45069 28.735 9.41037 28.683 9.36049 28.6416C7.81544 27.3238 6.2566 26.022 4.59801 24.8475C4.13004 24.5165 3.63766 24.2183 3.14103 23.9318C2.95003 23.8215 2.71869 23.7568 2.49903 23.7239C2.1393 23.6708 1.87083 23.8544 1.66814 24.1398C1.43999 24.4613 1.32751 24.8305 1.25217 25.2114C1.20866 25.4321 1.17895 25.656 1.1312 25.9488C0.993246 25.6973 0.957166 25.4841 0.968839 25.2814C0.98794 24.9377 1.04418 24.595 1.10255 24.2554C1.1174 24.1663 1.18213 24.0708 1.25111 24.0093C1.97588 23.3536 2.7622 22.787 3.69178 22.4581C4.02392 22.3403 4.37941 22.2777 4.72959 22.2279C5.17528 22.1642 5.60399 22.2618 5.97964 22.509C6.38394 22.7754 6.80204 23.0353 7.15434 23.3621C7.8876 24.0411 8.59858 24.7456 9.28727 25.4703C9.97597 26.1949 10.6254 26.9578 11.295 27.7005C11.4669 27.8904 11.6505 28.0697 11.8309 28.2565C12.1577 27.9201 12.4548 27.5933 12.7764 27.292C13.1 26.9886 13.4672 26.7382 13.8577 26.5302C13.8821 26.561 13.9033 26.5758 13.9023 26.5886C13.845 27.2888 14.0381 27.9435 14.2885 28.5822C14.5156 29.1615 14.9931 29.3832 15.5778 29.4214C15.9673 29.4469 16.3472 29.3737 16.7207 29.2708C16.8236 29.2421 16.9266 29.2167 17.1017 29.17C16.8035 29.6771 16.4406 30.0305 16.0076 30.3021C15.5842 30.5673 15.1332 30.7901 14.6727 31.0448Z" fill="white"/>
<path d="M85.5592 28.7997C86.2309 28.7721 86.8528 28.7413 87.4757 28.7233C87.6921 28.7169 87.9108 28.7466 88.1283 28.7551C88.6005 28.7732 89.0112 28.9493 89.3921 29.2177C90.0819 29.7058 90.7048 30.2713 91.3054 30.8623C91.3256 30.8824 91.3362 30.9111 91.3797 30.979C91.2428 30.9429 91.1441 30.9174 91.0465 30.8899C89.9906 30.5991 88.9178 30.4294 87.8216 30.4432C86.7785 30.4559 85.7736 30.6448 84.8451 31.1445C83.7998 31.7079 82.7567 32.2776 81.7125 32.8421C81.4515 32.9832 81.1872 33.119 80.9219 33.2506C80.6227 33.3981 80.368 33.3227 80.1473 33.084C79.7653 32.6702 79.5159 32.179 79.2665 31.6506C79.6613 31.4405 80.0412 31.2379 80.454 31.0172C79.466 30.6087 78.5885 30.1302 77.974 29.1721C78.1385 29.2124 78.2372 29.2347 78.3348 29.2612C78.7964 29.3864 79.2591 29.4734 79.7419 29.3928C80.2906 29.3005 80.6588 29.0013 80.8424 28.474C81.0599 27.848 81.253 27.2188 81.1798 26.5026C81.9969 26.9525 82.6559 27.5212 83.2151 28.2692C83.3159 28.1779 83.4146 28.1016 83.4974 28.0114C84.0036 27.4544 84.5087 26.8963 85.0106 26.335C85.8967 25.3461 86.7817 24.3552 87.7855 23.483C88.1208 23.1913 88.4817 22.9271 88.8414 22.665C89.5078 22.1801 90.2421 22.1144 91.0199 22.3297C91.6768 22.5122 92.2732 22.821 92.826 23.2104C93.1497 23.4374 93.45 23.6974 93.7652 23.9382C93.9074 24.0464 93.9806 24.1875 94.0198 24.3584C94.126 24.8178 94.1684 25.2761 94.0496 25.7398C94.0358 25.795 94.0082 25.8459 93.9583 25.969C93.9222 25.7334 93.8978 25.5668 93.8702 25.4003C93.8097 25.0268 93.7174 24.6629 93.5359 24.3276C93.2165 23.7377 92.7528 23.5584 92.1458 23.8406C91.7437 24.0273 91.3489 24.2459 90.9902 24.5058C90.0044 25.2199 89.0282 25.9499 88.0689 26.7C87.2889 27.3111 86.5408 27.9604 85.7799 28.5949C85.711 28.6501 85.6505 28.7127 85.5592 28.7997Z" fill="white"/>
<path d="M94.9855 15.6444C95.0311 16.0285 94.9643 16.3542 94.8518 16.6725C94.647 17.2497 94.3223 17.7558 93.9286 18.2205C93.4267 18.8147 92.8441 19.3208 92.2169 19.777C90.6528 20.9154 88.9326 21.7621 87.1435 22.4783C86.9504 22.5557 86.7583 22.6374 86.5599 22.6968C86.4867 22.7191 86.3721 22.7128 86.3158 22.6693C85.5284 22.0528 84.7485 21.4268 83.9675 20.803C83.9622 20.7987 83.9643 20.7839 83.9579 20.7478C84.1564 20.7085 84.3569 20.6693 84.5575 20.6311C86.3487 20.2841 88.0625 19.7218 89.6404 18.786C90.3758 18.3499 91.0603 17.846 91.7108 17.2921C91.7978 17.2179 91.9028 17.1446 92.0111 17.1171C92.9948 16.8667 93.8713 16.3935 94.7054 15.8311C94.7849 15.7781 94.8656 15.724 94.9855 15.6444Z" fill="white"/>
<path d="M62.357 2.89546C62.253 2.96973 62.1628 3.03869 62.0673 3.10235C60.8257 3.93311 59.4568 4.46149 58.0136 4.8148C56.2595 5.24451 54.4778 5.37289 52.6781 5.2827C52.4606 5.27209 52.2409 5.26148 52.0276 5.22329C51.4886 5.12886 50.9845 5.25087 50.4911 5.44716C49.7939 5.72302 49.1773 6.13468 48.5937 6.59834C48.339 6.79993 48.0939 7.01319 47.7947 7.19462C47.8562 7.03335 47.8923 6.85616 47.9846 6.71505C48.183 6.40842 48.3868 6.09967 48.6287 5.82912C49.4437 4.91454 50.4115 4.17396 51.4005 3.45991C51.5087 3.3814 51.6148 3.38139 51.7369 3.40368C52.4372 3.53206 53.1344 3.6859 53.8401 3.77502C56.4537 4.10606 59.0366 4.0042 61.5558 3.15116C61.8083 3.06522 62.0545 2.96442 62.305 2.87106C62.3103 2.86787 62.3209 2.87848 62.357 2.89546Z" fill="white"/>
<path d="M32.4832 2.88485C33.0859 3.07689 33.6621 3.28591 34.2521 3.44399C35.6964 3.8302 37.1724 3.96282 38.6655 3.94373C40.1373 3.92463 41.5869 3.73789 43.0216 3.41853C43.1839 3.38246 43.3187 3.38034 43.4662 3.4875C44.3321 4.11773 45.1842 4.766 45.9259 5.54159C46.2252 5.85458 46.4894 6.20471 46.7483 6.55378C46.8884 6.74157 46.9871 6.9612 47.0094 7.25191C46.9065 7.16491 46.8332 7.1055 46.7621 7.04396C46.2263 6.56969 45.6607 6.13787 45.0356 5.78668C44.5316 5.50339 44.0084 5.26148 43.4248 5.21374C43.1415 5.1904 42.8528 5.21904 42.5684 5.24451C41.45 5.3453 40.3315 5.33257 39.2152 5.22223C37.8505 5.08748 36.5156 4.8095 35.2241 4.33842C34.3466 4.01906 33.5104 3.61269 32.7347 3.09068C32.6604 3.04082 32.5893 2.98777 32.5182 2.93472C32.5055 2.92305 32.497 2.90289 32.4832 2.88485Z" fill="white"/>
<path d="M44.3438 23.3472C44.9348 23.1722 45.5079 22.9791 46.0034 22.63C46.4873 22.2894 46.9425 21.9075 47.4243 21.5329C47.6631 21.7313 47.9103 21.9297 48.1491 22.1366C48.7975 22.6979 49.5265 23.0958 50.3743 23.2613C50.4104 23.2687 50.4433 23.2899 50.5197 23.3239C49.3758 23.6401 48.2149 23.8247 47.4041 24.7753C46.7186 23.9308 45.7074 23.7037 44.7194 23.4321C44.5953 23.3982 44.469 23.3748 44.3438 23.3472Z" fill="white"/>
<path d="M89.4314 14.7638C89.5004 15.0789 89.4473 15.3558 89.3677 15.6306C89.2361 16.0858 88.9899 16.4783 88.7024 16.8486C88.28 17.3908 87.7887 17.8682 87.2422 18.281C86.7053 18.6863 86.1376 19.0502 85.5932 19.4459C85.4032 19.5839 85.2515 19.5701 85.0552 19.4566C84.6381 19.2136 84.2052 18.9961 83.7245 18.7404C83.8709 18.681 83.9675 18.6407 84.064 18.6035C85.2313 18.1505 86.3052 17.5446 87.1732 16.629C87.5754 16.2046 87.9744 15.8004 88.4965 15.5118C88.8287 15.3272 89.0992 15.0343 89.4314 14.7638Z" fill="white"/>
<path d="M5.65917 14.7426C5.76847 14.8433 5.83956 14.9081 5.91066 14.9738C6.28101 15.3197 6.67788 15.6274 7.13842 15.8481C7.22332 15.8895 7.30609 15.9553 7.36551 16.0295C8.33223 17.237 9.57803 18.0454 11.0074 18.5972C11.105 18.6353 11.2016 18.6767 11.3343 18.7308C11.2494 18.7871 11.2048 18.8221 11.156 18.8475C10.7464 19.0672 10.3336 19.2804 9.92822 19.5064C9.79663 19.5796 9.69582 19.568 9.57379 19.4926C8.60919 18.9017 7.69553 18.2449 6.89966 17.4364C6.48157 17.012 6.10804 16.5505 5.8576 16.0041C5.67933 15.6221 5.57958 15.2242 5.65917 14.7426Z" fill="white"/>
<path d="M47.4201 4.37555C47.054 3.16389 47.0221 3.10023 46.448 2.43711C46.8863 1.97876 47.0264 1.37929 47.1919 0.791503C47.2598 0.548534 47.3224 0.303445 47.4041 0C47.7087 0.865773 47.7607 1.76125 48.3857 2.44878C47.8329 2.95806 47.5644 3.61694 47.4201 4.37555Z" fill="white"/>
<path d="M44.9996 1.48433C44.7948 1.99467 44.5072 2.43499 44.019 2.70766C43.8928 2.77875 43.7453 2.83711 43.6031 2.8509C42.0983 2.99095 40.773 2.52623 39.5823 1.62863C39.5675 1.61802 39.5611 1.5968 39.5112 1.51829C41.3768 2.35966 43.1871 2.37557 44.9996 1.48433Z" fill="white"/>
<path d="M49.8045 1.43765C50.6916 1.90237 51.5915 2.13685 52.5508 2.14746C53.4973 2.15807 54.3908 1.9342 55.2737 1.57876C55.2397 1.61484 55.2111 1.65728 55.1718 1.68486C54.046 2.49971 52.8065 2.95063 51.3962 2.87C51.0959 2.85302 50.837 2.75753 50.6025 2.58034C50.2629 2.32464 49.9562 1.896 49.8045 1.43765Z" fill="white"/>
<path d="M83.4464 17.5149C83.1801 17.4247 82.9413 17.3431 82.6686 17.2497C82.744 17.1701 82.7906 17.1128 82.8437 17.063C83.2841 16.6608 83.5908 16.177 83.7659 15.6051C83.7998 15.4959 83.8699 15.3972 83.9293 15.2975C84.0386 15.1118 84.1521 14.9293 84.2773 14.7235C84.4259 14.9972 84.4291 15.2741 84.3866 15.5553C84.3017 16.1134 84.0534 16.6046 83.7552 17.0736C83.665 17.2147 83.5642 17.3473 83.4464 17.5149Z" fill="white"/>
<path d="M10.8217 14.7532C10.9692 15.1309 11.2844 15.4036 11.3969 15.8067C11.5295 16.281 11.8256 16.6704 12.1821 17.0099C12.2532 17.0778 12.3243 17.1446 12.4294 17.2444C12.1524 17.3388 11.9052 17.4226 11.6685 17.5033C11.0414 16.8295 10.4259 15.4821 10.8217 14.7532Z" fill="white"/>
</svg>
