<svg width="88" height="62" viewBox="0 0 88 62" fill="none" xmlns="http://www.w3.org/2000/svg">
<path d="M11.3541 0L6.10411 1.932L3.12211 0.21V33.096H7.23811V17.976H13.3701L15.2181 13.86H9.08611L7.23811 17.052V2.058L11.3541 4.452V11.34L15.5121 9.828V2.394L11.3541 0Z" fill="white"/>
<path d="M24.9893 0L16.7573 3.024V30.744L20.8733 33.096L29.1473 30.114V2.394L24.9893 0ZM24.9893 31.038L20.8733 28.686V2.058L24.9893 4.452V31.038Z" fill="white"/>
<path d="M38.6246 0L30.3926 3.024V30.744L34.5086 33.096L42.7826 30.114V2.394L38.6246 0ZM38.6246 31.038L34.5086 28.686V2.058L38.6246 4.452V31.038Z" fill="white"/>
<path d="M48.1018 28.98V2.394L43.9858 0V27.174L47.1778 28.98H43.9858V30.744L48.1018 33.096H52.2598V28.98H48.1018Z" fill="white"/>
<path d="M57.6365 2.394L53.4785 0V33.096H57.6365V2.394Z" fill="white"/>
<path d="M67.1436 0L62.1036 1.848L58.9116 0V33.096H63.0276V2.058L67.1436 4.452V33.096H71.3016V2.394L67.1436 0Z" fill="white"/>
<path d="M84.8948 17.934L86.7428 13.902H78.4268L76.6628 16.968V2.058L80.7788 4.452V11.34L84.8948 9.828V2.394L80.7788 0L72.5468 3.024V30.744L76.6628 33.096L84.8528 30.156L84.8948 17.934ZM76.6628 18.018H80.7788L80.7368 31.038L76.6628 28.686V18.018Z" fill="white"/>
<path d="M8.85 37.456H1.71L0 40.426H2.91V61.096H5.85V41.716L3.6 40.426H7.5L8.85 37.456Z" fill="white"/>
<path d="M17.5266 47.356V39.166L14.5866 37.456V47.356H12.9366L11.6466 49.606V39.166L8.70656 37.456V61.096H11.6466V50.296H14.5866V61.096H17.5266V50.296L18.8766 47.356H17.5266Z" fill="white"/>
<path d="M27.2667 39.166L24.2967 37.456L20.5467 38.836L18.4167 37.606V59.416L21.3567 61.096L27.2667 58.966V54.106L24.2967 53.026V59.626L21.3567 57.946V48.856L24.2967 49.936L27.2667 48.856V39.166ZM21.3567 48.856V38.926L24.2967 40.636V47.776L21.3567 48.856Z" fill="white"/>
<path d="M42.5562 44.476V39.166L39.5862 37.456L33.7062 39.616V59.416L36.6462 61.096L42.5562 58.966V54.106L39.5862 53.026V59.626L36.6462 57.946V38.926L39.5862 40.636V45.556L42.5562 44.476Z" fill="white"/>
<path d="M52.2956 39.166L49.3256 37.456L45.4556 38.866L43.4456 37.696V61.096H46.3856V48.856L49.3256 49.906L49.2956 61.096H52.2656V48.856L49.9256 47.986L52.2956 47.146V39.166ZM46.3856 48.856V38.926L49.3256 40.636V47.776L46.3856 48.856Z" fill="white"/>
<path d="M59.0651 37.456L53.1851 39.616V59.416L56.1251 61.096L62.0351 58.966V39.166L59.0651 37.456ZM59.0651 59.626L56.1251 57.946V38.926L59.0651 40.636V59.626Z" fill="white"/>
<path d="M77.6545 39.166L74.6845 37.456V59.626L71.7445 57.946V39.166L68.8045 37.456V59.626L65.8645 57.946V39.166L62.9245 37.456V59.416L65.8645 61.096L69.4645 59.806L71.7445 61.096L77.6545 58.966V39.166Z" fill="white"/>
<path d="M78.5527 34.066V37.246L81.0727 38.686L78.5527 39.616V59.416L81.4927 61.096L87.4027 58.966V39.166L78.5527 34.066ZM84.4327 59.626L81.4927 57.946V38.926L84.4327 40.636V59.626Z" fill="white"/>
</svg>
