<svg width="111" height="64" viewBox="0 0 111 64" fill="none" xmlns="http://www.w3.org/2000/svg">
<path d="M111 6.23083C109.233 6.86631 107.423 7.33392 105.517 7.43784C104.853 7.47381 104.186 7.45382 103.522 7.44983C102.011 7.43384 100.689 7.53776 100.089 9.37623C99.8333 10.1636 98.8341 10.6951 98.2066 11.3746C97.5791 12.058 96.9357 12.7374 96.4281 13.5048C96.2043 13.8405 96.3042 14.3881 96.2282 15.1115C93.8382 17.7453 92.2036 21.2504 90.533 24.8674C92.9669 26.0704 96.1603 26.1543 96.3002 29.6514C94.5416 28.7841 92.6752 27.9009 90.8447 26.9497C89.3579 26.1783 88.1989 26.7059 87.0319 27.6651C86.0007 28.5124 84.8737 29.2398 83.7866 30.0191C83.9664 30.167 84.1463 30.3189 84.3261 30.4667C82.6235 30.4667 80.9249 30.4667 79.3343 30.4667C79.4302 29.9472 79.8059 29.2118 79.59 28.7402C79.3342 28.1766 78.6029 27.805 78.0273 27.4253C77.7036 27.2134 77.244 27.2254 76.9043 27.0256C74.7421 25.7587 72.7277 26.3901 70.9452 27.697C69.4504 28.7921 67.6479 29.1358 65.8175 30.4148C66.1372 29.2158 66.7687 28.7722 67.3881 28.3925C68.1955 27.9009 68.3993 27.2934 68.2195 26.3821C68.0156 25.351 67.9277 24.2839 67.8877 23.2288C67.8318 21.8179 67.3482 21.6341 66.0772 22.0537C63.967 22.7452 61.7968 23.7523 59.5626 22.1976C59.179 21.9298 58.4516 22.0058 57.932 22.1257C57.2446 22.2855 56.6051 22.6492 55.6219 23.0609C56.0256 22.3695 56.2454 21.9258 56.5292 21.5222C57.5763 20.0314 57.5683 19.7956 56.6211 18.3248C55.3821 16.3984 55.1903 14.2522 55.7418 12.114C56.0695 10.839 56.2014 9.70396 55.7978 8.42102C55.5939 7.77356 55.9097 6.96623 56.0136 6.02701C55.554 5.0718 54.9864 3.89277 54.4069 2.68977C52.7763 2.99751 52.6164 4.20451 52.5205 5.40752C52.3486 7.55374 52.7922 9.97173 51.937 11.7822C50.8858 14.0164 52.2687 14.5719 53.3398 15.6111C53.4277 15.699 53.4677 15.8349 53.6316 16.1306C52.9641 16.1666 52.3806 16.1946 51.7211 16.2266C51.4614 18.6525 52.3886 20.6069 53.9833 22.3295C55.454 23.9162 57.4044 25.1592 57.7042 27.737C56.3933 27.3134 55.2782 26.7658 54.2151 25.7826C52.6164 24.3079 50.738 23.1408 48.9754 21.8419C49.3191 21.0985 50.0265 20.3032 49.9266 19.6277C49.7028 18.137 49.0993 16.7022 48.5797 15.2673C48.4918 15.0235 48.0682 14.8477 47.7644 14.7398C46.8812 14.4201 46.3816 13.8325 46.0938 12.9213C45.6622 11.5544 44.2793 11.3466 43.1842 10.5193C43.2841 13.8325 43.0683 16.834 41.8373 20.0354C42.9644 19.9235 43.8237 19.8396 44.8988 19.7316C43.6119 21.1025 42.4848 22.3735 41.2698 23.5525C40.7582 24.0481 40.0988 24.5037 39.4273 24.7075C37.3331 25.343 36.1061 26.8018 35.2388 28.6882C35.1589 28.8601 34.991 28.992 34.6113 29.4356C35.2668 27.0056 35.5146 24.8354 37.6168 23.4965C38.1004 23.1888 38.2883 22.3974 38.592 21.8179C39.6751 19.7556 40.2387 17.6733 40.4385 15.2474C40.6303 12.9173 40.3785 10.7031 40.2706 8.445C40.2027 7.0022 39.3114 6.14291 37.7727 6.13492C37.9765 8.2052 38.1764 10.2475 38.3762 12.2898C38.2323 12.3258 38.0884 12.3618 37.9446 12.3937C37.377 11.1108 36.8095 9.82786 36.242 8.54492C35.2788 8.68081 35.1509 9.30429 35.3307 9.86782C35.6505 10.871 35.9902 11.9261 36.5897 12.7654C37.1612 13.5688 37.457 14.0963 37.1892 15.2114C36.9893 16.0347 37.433 17.0419 37.0053 18.065C36.3579 19.6157 36.178 21.2904 34.1077 21.9018C33.3843 22.1177 32.9887 23.4406 32.533 24.128C31.2901 23.0009 30.207 21.5741 28.7682 20.8267C26.7578 19.7836 26.7019 18.109 26.526 16.3305C26.4221 15.2953 26.2582 14.2682 26.2023 13.233C26.1663 12.6056 26.1903 11.9421 26.3542 11.3426C26.7738 9.79588 26.546 8.50096 25.2551 7.44583C20.9187 12.1419 22.0058 17.2897 24.7275 21.4582C26.2782 23.8322 28.0767 26.0504 30.0551 28.7402C27.5372 26.9936 25.4069 25.5189 23.0529 23.8882C22.1776 24.2719 21.0386 24.7755 19.5518 25.4309C20.471 23.7203 20.7748 22.1696 20.2952 20.543C20.2432 20.3711 20.2912 20.1153 20.3911 19.9635C21.4382 18.3968 21.0186 16.9499 20.0634 15.5351C15.9428 15.0515 15.9428 15.0515 13.7886 15.8149C13.0532 19.6317 15.3113 22.5533 17.1018 25.7187C15.8189 25.315 14.6758 25.0313 13.5967 24.5956C12.5976 24.1919 11.9181 24.5357 11.0588 25.0712C7.90944 27.0416 4.7001 28.928 1.01516 29.7593C0.847295 29.7953 0.65146 29.7074 0 29.5955C0.907248 29.1119 1.42282 28.6882 2.01033 28.5523C4.91992 27.8689 6.81036 25.5388 9.26033 24.124C9.48414 23.9961 9.61203 23.6804 9.83984 23.5885C11.9821 22.7332 12.058 21.0745 11.7423 19.1361C11.5504 17.9651 11.6863 16.7461 11.5904 15.5551C11.5105 14.5759 11.3106 13.6047 11.1508 12.6295C11.1068 12.3698 10.9309 12.102 10.9669 11.8622C11.3986 9.01653 10.1676 7.07014 7.72959 5.75923C7.44583 5.60735 7.13808 5.48745 7.01818 5.16372C8.90462 5.36355 10.6712 5.48346 12.014 6.93825C13.0612 8.06931 14.3281 7.44183 15.7789 7.1101C15.4112 7.66564 15.1075 8.27714 14.6678 8.76474C13.8765 9.64401 13.9484 10.6552 14.3121 11.5744C14.52 12.098 15.2673 12.8174 15.687 12.7654C16.7741 12.6295 17.7733 12.6815 18.7285 13.1851C19.288 11.7183 19.9235 10.4074 20.2512 9.02452C20.3871 8.445 19.9475 7.66964 19.6197 7.06215C19.4199 6.69845 18.9283 6.49462 18.4127 6.09894C20.2232 5.73924 21.754 7.70961 23.6484 6.17089C20.8547 5.09178 18.2529 4.09261 15.8908 3.18137C18.2888 2.84165 20.8907 3.66496 23.5245 4.19253C23.7123 4.2285 23.9122 4.3404 24.0441 4.47629C24.5517 4.99986 25.0352 5.77122 25.8506 5.39553C26.8497 4.93591 27.8289 4.3444 28.6483 3.617C29.2038 3.12941 29.4676 2.31008 30.163 1.71058C30.163 2.21017 30.3468 2.80967 30.131 3.18536C29.0599 5.0678 29.5835 7.25399 28.896 9.18039C28.6283 9.93577 28.6523 10.5393 28.992 11.2587C29.5915 12.5256 29.9831 13.7686 29.2717 15.2474C28.7002 16.4384 30.199 18.2409 31.5379 18.2809C31.8416 18.2888 32.1653 18.2529 32.4491 18.3368C33.772 18.7205 34.6153 18.1969 34.6912 16.858C34.7192 16.4024 34.6393 15.9228 34.5154 15.4792C34.1517 14.2162 33.82 12.9413 33.3204 11.7303C33.0326 11.0229 32.5051 10.3914 31.9935 9.80787C31.1822 8.88463 31.2181 8.21319 32.3212 7.64567C33.3564 7.11411 34.4475 6.68246 35.7344 6.11093C34.6793 5.58737 33.8999 5.19969 32.9967 4.75206C34.7992 3.11742 36.8135 4.66014 38.6799 3.79685C38.4361 3.30526 38.1923 2.82166 38.0285 2.48993C39.3634 3.07345 40.8182 3.70892 42.3769 4.38836C42.257 4.55223 41.9812 4.88395 41.7494 5.24365C41.2738 5.97904 41.3937 6.55457 42.1211 7.1181C43.428 8.12926 44.611 9.31628 45.9619 10.2595C46.9291 10.9349 48.0921 11.3346 49.443 11.9941C49.2592 10.823 49.0513 10.0637 49.0553 9.30429C49.0593 8.75674 49.2032 8.09729 49.5309 7.67764C51.0017 5.7952 50.7539 4.15655 48.6956 2.96554C47.4886 2.26612 46.2497 1.62265 45.0427 0.923234C44.7149 0.731393 44.4432 0.443632 43.9036 0C46.1657 0.115904 47.7924 1.12706 49.2712 2.14622C50.6101 3.06945 51.853 2.79768 52.7483 2.08228C53.5396 1.4508 54.299 1.46678 54.9585 1.31491C55.5979 1.91841 56.1015 2.59385 56.7769 2.95355C57.2166 3.18936 57.956 3.10943 58.4715 2.92558C60.9495 2.04231 63.2156 2.49393 65.5657 3.93274C66.6208 2.72574 67.6959 1.48677 68.715 0.319736C70.5136 1.25096 72.376 2.18619 74.2065 3.17337C75.2536 3.7409 76.2608 4.06863 77.1481 3.24531C78.3351 4.1006 79.4022 4.87196 80.5932 5.73125C80.9489 5.65531 81.4645 5.5474 81.9801 5.4275C82.6635 5.27163 83.5787 4.75206 83.9784 5.01584C85.1175 5.76722 86.0807 6.80236 87.0319 7.80553C87.2357 8.02135 87.1358 8.57289 87.0878 8.96057C86.92 10.3674 86.7161 11.7742 86.4763 13.5248C86.0927 13.7206 85.3373 14.1003 84.3501 14.5999C84.5699 15.1954 84.6299 15.9268 85.0255 16.3425C86.2046 17.5894 87.0039 19.0482 87.7273 20.571C87.8392 20.8068 88.035 21.0066 88.3708 21.4662C89.6377 19.7077 91.0246 18.4767 91.4482 16.3305C91.744 14.8237 91.5761 13.7886 90.8327 12.5296C90.1053 11.2986 89.5538 9.8998 89.8096 8.34509C90.1613 6.19087 89.23 4.61218 87.4755 3.44914C87.0359 3.15739 86.5763 2.9016 86.2805 2.418C87.7673 1.97436 89.0462 3.36121 90.445 2.14622C91.7599 5.41551 92.1516 8.95258 93.9421 12.118C96.2123 10.9789 96.1763 8.42502 97.8309 6.94624C97.4273 6.5186 97.0636 6.23483 96.8397 5.87113C96.6239 5.52342 96.3402 4.97588 96.4721 4.72409C96.6199 4.44432 97.2114 4.28445 97.6111 4.28445C98.1986 4.28445 98.8621 4.32841 99.3577 4.60419C102.203 6.16689 105.273 5.70327 108.294 5.71526C109.182 5.71926 110.069 5.71526 110.956 5.71526C110.972 5.89512 110.984 6.06297 111 6.23083ZM70.5256 6.8783C70.5575 7.0022 70.5855 7.12609 70.6175 7.24999C69.1747 8.13326 67.7319 9.01653 66.0093 10.0677C65.202 8.65683 64.5265 7.38987 63.7512 6.18687C63.4674 5.74723 62.9558 5.1797 62.5202 5.15572C59.8864 5.01184 58.1558 6.76639 58.0958 9.4122C58.0719 10.5313 58.0679 11.6863 57.7841 12.7494C57.5123 13.7646 57.6962 14.5799 58.2197 15.3833C58.6754 16.0747 59.183 16.7341 59.6546 17.3856C60.4819 17.1258 61.2372 16.882 62.2924 16.5503C61.9207 17.6294 61.6889 18.2928 61.4691 18.9283C64.5025 20.7068 66.6608 19.1921 67.3242 14.9876C65.6536 14.492 63.983 13.9924 61.9447 13.3889C65.2979 11.9661 68.3554 12.1539 71.3649 12.6055C73.3792 12.9093 74.5542 11.7902 75.8291 10.6831C76.001 10.5353 76.1169 10.1916 76.0849 9.96375C75.6853 7.03817 74.6262 4.45231 72.0163 2.80168C70.9812 2.14622 69.8301 1.67062 68.6351 1.06312C68.3274 1.67062 68.0556 2.19019 67.7958 2.71775C67.532 3.24931 67.2842 3.79286 67.0165 4.32442C66.341 5.65132 66.6847 6.43866 68.1795 6.72643C68.9389 6.87031 69.7382 6.83034 70.5256 6.8783ZM86.2006 23.0769C85.3732 21.2424 84.6738 19.5518 83.8545 17.9251C82.5356 15.3033 81.4205 14.6479 79.1184 14.9876C79.0105 16.4624 78.8067 17.9451 78.8187 19.4279C78.8307 20.9866 78.7148 22.6972 80.9369 23.0769C81.7922 23.2248 81.8921 23.8762 81.5005 24.5676C80.6771 24.8714 79.8938 25.1631 79.1144 25.4509C80.5732 26.0424 81.6483 27.3933 83.3989 26.4701C84.9096 25.6747 85.661 24.4997 86.2006 23.0769ZM70.0859 26.3582C72.7197 25.4749 72.9276 24.9353 71.6446 23.0089C71.2689 22.4454 70.9772 21.8259 70.6494 21.2304C71.6087 21.678 72.2601 22.3375 73.0035 22.881C74.0906 23.6764 74.806 23.3566 75.0618 22.0297C75.4295 20.0993 75.8571 18.1729 76.1129 16.2266C76.1929 15.6151 75.8092 14.9396 75.5614 14.0204C74.3824 14.6599 73.5111 15.1315 72.6318 15.6031C72.1602 15.2753 71.5087 14.8277 70.8053 14.3441C69.4265 18.4207 69.5184 22.2855 70.0859 26.3582ZM84.3821 7.8375C83.7626 7.77356 83.1271 7.66565 82.4876 7.64966C81.1088 7.61369 79.3103 8.26915 79.67 10.1636C79.7779 10.7271 79.9857 11.2747 80.1536 11.8462C80.861 11.8462 81.4445 11.7982 82.02 11.8582C82.8713 11.9461 83.8385 12.2419 84.2382 11.1867C84.6379 10.1196 85.8009 9.00853 84.3821 7.8375Z" fill="white"/>
<path d="M66.5768 53.0999C66.5488 53.5715 66.4089 54.0671 66.5128 54.5067C66.7286 55.4499 67.0724 56.3652 67.524 57.812C66.0812 57.1725 64.9581 56.8968 64.1108 56.2533C61.9166 54.5867 59.4147 53.8872 56.8289 54.3189C54.8625 54.6466 53 55.6778 51.1496 56.5171C50.8298 56.6609 50.662 57.4163 50.642 57.8999C50.61 58.6233 50.8498 59.3587 50.8218 60.0821C50.7939 60.8814 50.59 61.6728 50.2703 62.4521C48.9274 60.8974 48.8195 59.043 48.5637 57.3923C47.4047 57.0206 46.3615 56.6649 45.3024 56.3572C44.9307 56.2493 44.5151 56.1813 44.1354 56.2253C41.6614 56.5211 41.6654 56.5331 39.9828 55.5698C39.2514 55.9735 38.6 56.4771 37.8606 56.7009C36.9653 56.9767 36.2379 56.4531 35.5305 55.8896C35.2348 55.6538 34.6752 55.6658 34.2436 55.6858C32.8607 55.7457 31.4779 55.8616 29.8592 55.9735C29.4715 56.649 28.948 57.5522 28.2445 58.7672C27.705 58.0558 27.2174 57.5682 26.9177 56.9807C25.9704 55.1262 25.3629 54.8584 23.5285 55.5179C22.9809 55.7137 22.3374 55.9375 21.8019 55.8296C20.1353 55.4939 18.6845 56.0455 17.1657 56.573C16.1626 56.9207 15.0595 56.9727 14.0004 57.1565C13.9484 57.0127 13.9004 56.8728 13.8485 56.7289C15.0475 55.7177 16.1865 54.6226 17.4695 53.7314C17.9451 53.4036 18.7564 53.4796 19.4079 53.5076C21.7419 53.6075 24.06 53.6754 25.8865 52.3285C26.1503 51.5252 26.3141 50.8218 26.6019 50.1743C27.4012 48.3878 26.6579 46.6293 26.554 44.8627C26.522 44.3392 26.3341 43.8236 26.2662 43.3C26.0104 41.3656 25.267 40.858 23.0049 41.2217C23.0049 41.7173 23.0049 42.2329 23.0049 42.7485C23.0089 44.4431 22.2056 45.3663 20.5349 45.4662C19.3399 45.5382 18.1409 45.5182 16.9419 45.5262C15.9747 45.5342 15.4791 45.8099 15.671 46.969C15.8788 48.212 15.8148 49.4509 17.0378 50.3262C17.4215 50.598 17.4255 51.3973 17.6493 52.0967C16.9459 52.2046 16.5502 52.3605 16.1865 52.3085C13.5008 51.9009 12.1899 53.6394 11.1747 55.6298C9.87177 58.1837 9.19234 60.9134 9.55204 63.855C9.22032 61.6488 7.9134 59.6585 8.49692 57.2764C8.84463 55.8536 8.70075 54.4028 7.88143 53.0479C7.42181 52.2886 7.25794 51.3533 6.95819 50.4981C7.08608 50.4141 7.20998 50.3342 7.33788 50.2503C7.93338 50.8937 8.5209 51.5492 9.12839 52.1807C9.89176 52.976 10.6871 53.0599 11.3426 52.2526C12.8693 50.3822 14.2761 48.5756 12.9213 45.8019C12.3178 44.567 12.6575 42.8524 12.6655 41.3536C12.6695 40.7102 12.7494 39.9428 11.994 39.9548C10.3514 39.9748 9.0045 38.9436 7.18201 39.2034C4.92388 39.5272 3.21729 40.4943 1.49072 41.7693C2.04227 40.1586 3.01746 38.9396 4.68408 38.436C6.96219 37.7486 9.26428 37.1331 11.6983 36.4457C11.6543 35.7183 11.6103 34.907 11.5344 33.5841C12.6535 34.5912 13.4408 35.2987 14.42 36.1779C14.5839 35.3906 14.6958 34.851 14.8077 34.3075C14.9396 34.3355 15.1274 34.3195 15.1834 34.3994C16.0666 35.6424 17.4535 35.8942 18.7724 36.3538C19.9914 36.7814 21.1265 37.4569 22.2975 38.0284C22.5852 38.1683 22.853 38.4241 23.1488 38.46C24.2519 38.5959 25.3629 38.6639 26.7298 38.7758C26.4181 37.7806 26.1583 36.9533 25.8985 36.11C27.1375 36.2299 28.3684 36.3538 29.6754 36.4817C29.7073 37.1691 29.7353 37.8086 29.7793 38.7518C31.7417 38.1723 33.72 38.1203 35.4506 36.7135C35.0229 36.102 34.6632 35.5864 34.3915 35.1987C35.9542 35.1987 37.6008 35.1987 39.3673 35.1987C38.8757 35.6104 38.4041 36.0061 37.9285 36.3977C37.9405 36.5376 37.9525 36.6815 37.9645 36.8214C40.7822 36.03 43.5639 35.5584 46.2816 37.5568C46.8491 36.9573 47.4486 36.3218 48.256 35.4665C47.0809 34.851 46.1217 34.3514 45.1625 33.8478C45.1865 33.7559 45.2065 33.66 45.2305 33.5681C46.7812 33.656 48.3359 33.692 49.8786 33.8638C50.3702 33.9198 50.8538 34.2875 51.2815 34.5952C52.5444 35.5065 53.7554 36.4897 55.0343 37.3809C55.3101 37.5728 55.8017 37.5967 56.1574 37.5208C57.84 37.1491 59.5146 36.7454 61.1733 36.2858C61.513 36.1939 61.7688 35.8142 62.0925 35.5464C62.7639 36.7454 63.959 36.4817 65.0461 36.3378C66.1451 36.1899 67.2282 35.8822 68.3113 35.6264C68.759 35.5185 69.2665 35.4665 69.6263 35.2187C71.9124 33.628 74.5622 33.9278 77.3199 33.5481C75.5733 35.3186 72.7517 34.7431 71.2209 37.1971C73.511 37.1971 75.4814 37.1971 77.6236 37.1971C77.1001 36.7015 76.5925 36.2219 75.945 35.6104C78.423 35.0269 80.1216 36.7295 82.4916 37.7886C82.016 36.8773 81.7682 36.4097 81.6043 36.098C82.9312 36.6775 84.39 37.313 85.9367 37.9884C85.8648 38.0963 85.6769 38.4201 85.4491 38.7078C84.7617 39.5831 84.9136 40.2066 85.8688 40.8221C86.868 41.4695 87.8951 42.161 88.6545 43.0522C89.7975 44.3951 91.2044 45.0026 92.9829 45.3303C92.847 44.4471 92.6352 43.6877 92.6392 42.9283C92.6432 42.3808 92.791 41.7293 93.1148 41.3057C94.5656 39.4032 94.3178 37.7646 92.2675 36.5656C91.0645 35.8622 89.8215 35.2267 88.6105 34.5313C88.2828 34.3434 88.015 34.0517 87.5354 33.652C89.5457 33.644 90.9885 34.5753 92.3234 35.4665C93.7263 36.4057 94.9693 36.4417 96.3961 35.7823C97.1714 35.4226 97.9867 35.1428 98.9539 35.0269C98.5583 35.3666 98.1946 35.7623 97.7549 36.038C96.496 36.8374 96.0643 37.9844 96.0803 39.4272C96.1003 40.874 96.1802 42.2929 95.5767 43.7317C95.1851 44.6629 95.8445 45.9019 94.9772 46.8851C94.8693 47.005 95.3809 47.7803 95.7126 48.156C96.1683 48.6716 96.7278 49.0952 97.4991 49.7866C96.516 49.7866 95.9444 49.7866 95.281 49.7866C95.0452 52.3365 96.0164 54.3549 97.691 56.0854C99.1618 57.6002 100.916 58.8991 101.328 61.2931C99.9132 61.0213 98.846 60.3659 97.7829 59.3947C96.1762 57.9279 94.3098 56.7449 92.4074 55.334C93.9581 54.1151 93.4825 52.6763 92.9389 51.1295C92.4513 49.7387 92.1556 48.3319 90.473 47.8602C90.2252 47.7923 89.9734 47.3886 89.9015 47.0969C89.4898 45.4383 88.1309 44.9107 86.7401 44.2632C86.8999 47.4126 86.6282 50.4021 85.4371 53.6355C86.5442 53.5235 87.3995 53.4396 88.2388 53.3557C86.7281 55.414 85.2173 57.5722 82.7074 58.4595C80.9728 59.071 79.9857 60.266 79.1024 61.6928C78.8946 62.0245 78.7267 62.3802 78.435 62.672C78.8346 60.5777 79.1544 58.5114 81.1567 57.1166C81.8361 56.645 82.1359 55.5898 82.5435 54.7705C83.4348 52.988 84.354 51.2215 83.8864 49.0832C83.7745 48.5757 84.1063 47.9722 84.2342 47.4086C82.1519 46.7811 81.6483 47.0809 81.3366 49.0832C81.2047 49.9305 80.9729 50.7658 80.761 51.5971C80.2574 53.5915 78.9985 54.7625 76.9882 55.2781C76.021 55.5259 75.1337 56.0934 74.2065 56.5171C74.2144 56.6849 74.2224 56.8568 74.2304 57.0246C74.8779 57.3923 75.5214 57.76 76.2328 58.1677C75.0298 58.3156 73.7948 58.7033 72.6358 58.5354C71.6805 58.3955 70.6774 57.748 69.954 57.0566C68.8589 56.0055 67.9916 54.7186 67.0244 53.5315C67.4441 53.5515 67.8677 53.5715 68.3913 53.5955C68.1595 52.1047 67.9516 50.7738 67.7438 49.4429C66.9325 50.6259 65.9373 51.6571 66.5768 53.0999ZM52.6403 45.3463C54.4588 44.0034 53.9632 41.9651 54.1311 40.1546C54.1671 39.7589 53.6835 39.1634 53.2838 38.8997C51.813 37.9365 50.2743 37.0732 48.7635 36.1739C48.4398 36.7814 48.16 37.305 47.8803 37.8325C47.1249 39.2554 47.4966 40.0667 49.0913 40.3345C49.8386 40.4584 50.614 40.4344 51.3774 40.4744C50.7779 41.2377 50.0745 41.6814 49.3631 42.109C48.6357 42.5486 47.8963 42.9803 47.1769 43.4039C45.6781 42.6086 45.3783 41.0699 44.611 39.8629C44.3232 39.4072 43.8716 38.7918 43.432 38.7358C40.966 38.4121 38.9796 40.3185 38.9117 42.8724C38.8837 43.9914 38.9197 45.1545 38.6239 46.2176C38.2962 47.3846 38.548 48.2959 39.1915 49.2031C39.6031 49.7866 40.0268 50.3582 40.4464 50.9377C41.2378 50.7099 42.0251 50.4861 43.0803 50.1863C42.7325 51.1735 42.4967 51.8369 42.2689 52.4844C45.2704 54.3189 47.9282 52.4245 48.0481 48.5277C46.3935 48.0441 44.7549 47.5685 42.7725 46.989C46.3975 45.3743 49.8067 45.9938 53.4676 46.2416C53.06 45.7979 52.8522 45.5741 52.6403 45.3463ZM75.7412 52.932C78.7787 51.9608 79.5101 50.7898 79.1424 47.8283C79.0065 46.7172 79.1344 45.5701 79.0345 44.4511C78.9305 43.272 78.7427 42.093 78.5149 40.93C78.2311 39.4952 77.2439 38.7838 75.8411 38.6998C74.3783 38.6119 72.9755 38.9716 72.292 40.3585C71.3528 42.2609 69.8181 44.0794 70.8093 46.4814C70.8732 46.6373 70.8133 46.893 70.7213 47.0529C69.5743 48.9993 70.9012 50.602 71.5167 52.2566C71.7285 52.8241 72.4759 53.1958 73.0954 53.7633C73.6069 52.8441 73.9746 52.1767 74.4143 51.3853C74.9259 51.9888 75.3455 52.4724 75.7412 52.932ZM38.0764 53.2358C37.9365 52.932 37.8206 52.6163 37.6527 52.3365C36.2739 50.0304 35.9422 47.6244 36.7215 45.0226C36.9373 44.3032 36.9254 43.4359 36.7535 42.7005C36.5577 41.8572 36.3378 41.1778 36.8254 40.2945C37.2811 39.4672 36.5057 38.7678 35.5705 39.0715C33.9358 39.6031 32.3252 40.2186 30.6825 40.7102C29.6953 41.0059 29.3316 41.5495 29.3476 42.5806C29.3916 45.3024 29.3077 48.0281 29.3396 50.7498C29.3596 52.4444 30.5386 53.6674 32.2213 53.6395C33.5362 53.6155 34.6952 53.8313 35.7383 54.6546C36.3258 55.1182 36.9733 55.1782 37.4569 54.4827C37.7167 54.1071 37.8686 53.6594 38.0764 53.2358ZM64.3746 52.7722C64.4785 52.3085 64.6024 52.0528 64.5864 51.801C64.4865 50.2103 64.5904 48.7555 66.4209 48.104C66.6527 48.0201 66.7646 47.5885 66.9804 47.2408C66.4409 46.8651 65.9733 46.5373 65.4657 46.1856C68.5312 45.1585 68.6271 44.9347 67.4481 41.6094C67.1443 42.4607 66.8725 43.2201 66.6008 43.9755C66.4769 43.9515 66.353 43.9275 66.2331 43.8995C66.0412 42.3448 65.8494 40.7941 65.6496 39.1554C64.9781 39.1554 64.4146 39.1554 63.7311 39.1554C63.5992 41.1578 63.4753 43.0642 63.3435 44.9706C63.2156 46.8171 63.6312 48.7195 62.8479 50.518C62.4002 49.4309 62.0645 48.3518 61.8927 47.2487C61.7088 46.0777 61.0614 45.6541 59.9623 45.766C59.3867 45.8219 58.8192 45.9178 57.9359 46.0377C57.9359 47.6444 57.856 49.1672 57.9839 50.6699C58.0239 51.1295 58.5674 51.8329 58.9911 51.9249C60.7057 52.3086 62.4682 52.4924 64.3746 52.7722ZM57.5043 39.2554C57.4084 39.5471 57.3005 39.7909 57.2485 40.0427C56.5531 43.4399 56.9767 43.6357 60.3939 43.5478C61.3251 43.5238 61.7288 42.9723 61.7728 42.169C61.8367 40.9979 61.7887 39.8229 61.7887 38.516C60.29 38.7718 58.9991 38.9956 57.5043 39.2554ZM54.5947 46.993C54.5188 47.0209 54.4428 47.0489 54.3709 47.0729C54.1631 47.8483 53.9512 48.6196 53.7554 49.347C52.9361 48.8234 52.2886 48.4118 51.4293 47.8602C51.2495 50.3142 50.0265 52.2486 50.7539 54.6306C52.0848 53.9352 53.2878 53.3077 54.3189 52.7682C54.4149 50.6579 54.5068 48.8274 54.5947 46.993ZM20.3951 42.8564C18.6405 41.4136 17.2257 40.2665 16.3544 38.5719C16.1825 38.2362 15.683 38.0644 15.3313 37.8206C15.1474 38.1922 14.7757 38.5879 14.8197 38.9316C14.9835 40.1426 15.2953 41.3336 15.5511 42.5327C15.9148 44.2392 16.3624 44.547 17.989 44.0154C18.7684 43.7556 19.4798 43.304 20.3951 42.8564ZM83.6866 40.934C83.5107 40.918 83.3349 40.902 83.159 40.886C83.0072 41.2217 82.8593 41.5575 82.7074 41.8892C82.2558 41.8013 81.8441 41.7213 81.4085 41.6334C81.1847 45.1385 81.6363 45.8619 84.2221 45.8459C84.0423 44.1913 83.8664 42.5646 83.6866 40.934Z" fill="white"/>
</svg>
