<svg width="88" height="106" viewBox="0 0 88 106" fill="none" xmlns="http://www.w3.org/2000/svg">
<path d="M16.5284 87.2819C16.4637 87.3003 16.37 87.3267 16.2472 87.3611C16.2393 87.4416 16.2248 87.5353 16.2208 87.629C16.2103 87.9009 16.3159 88.1808 16.1588 88.4461C16.1364 88.4831 16.1707 88.5662 16.1984 88.619C16.267 88.7484 16.2288 88.8342 16.1482 88.9543C15.9595 89.2394 15.7047 89.4995 15.6968 89.877C15.6955 89.9192 15.6823 89.9879 15.6559 89.9971C15.4935 90.0605 15.545 90.2043 15.5239 90.3429C15.3087 90.2664 15.1741 90.0974 15.013 89.9694C14.8454 89.8361 14.687 89.6922 14.5048 89.5694C14.7622 89.9153 15.0104 90.2703 15.3391 90.5541C15.5107 90.7033 15.607 90.8445 15.578 91.0993C15.4737 92.0154 15.3906 92.9341 15.3219 93.8541C15.3034 94.1089 15.3655 94.3689 15.3919 94.6263C15.3998 94.7068 15.4222 94.7861 15.4249 94.8653C15.4394 95.2956 15.4368 95.7259 15.4698 96.1549C15.4856 96.3648 15.5529 96.5747 15.6216 96.7766C15.6968 97.001 15.7998 97.2175 15.8539 97.4683C15.6796 97.2941 15.5001 97.1277 15.3351 96.9456C15.0328 96.6143 14.8969 96.1892 14.7055 95.7959C14.584 95.5464 14.4824 95.2863 14.3728 95.0316C14.3662 95.0157 14.353 94.9999 14.3504 94.9827C14.221 94.2647 13.6878 93.7393 13.4449 93.0753C13.4185 93.0027 13.3683 92.9249 13.3063 92.88C13.0172 92.6661 12.8984 92.344 12.7532 92.0378C12.6212 91.7606 12.5446 91.6854 12.2806 91.5785C12.2529 91.6854 12.2265 91.791 12.1869 91.9415C12.0866 91.8213 12.0114 91.7369 11.9414 91.6471C11.6972 91.3356 11.3949 91.1191 11.0134 90.9897C10.7534 90.9026 10.5118 90.7548 10.2742 90.6149C10.1805 90.5594 10.1185 90.4472 10.0287 90.3456C9.99836 90.3707 9.96404 90.3944 9.93632 90.4235C9.90596 90.4551 9.88088 90.4908 9.85184 90.5251C9.60236 90.269 9.37004 90.009 9.11528 89.7727C8.7272 89.4137 8.3246 89.0718 7.9286 88.722C7.84148 88.6454 7.74512 88.5741 7.67252 88.4857C7.50488 88.2837 7.32536 88.1016 7.07852 87.9933C6.90032 87.9155 6.81848 87.7465 6.75248 87.5815C6.6548 87.3386 6.51092 87.1657 6.26936 87.0363C6.0212 86.903 5.81528 86.6892 5.59088 86.511C5.4998 86.4384 5.41796 86.3447 5.315 86.3011C5.05496 86.1915 4.8728 86.0054 4.71176 85.7836C4.58504 85.6107 4.424 85.4616 4.30388 85.2847C4.19432 85.1237 4.09532 84.9481 4.03328 84.7659C3.94748 84.5165 3.83396 84.2894 3.67952 84.0756C3.57656 83.933 3.50132 83.7667 3.43004 83.6043C3.24656 83.1859 3.09476 82.7516 2.8862 82.3464C2.75684 82.0956 2.55224 81.883 2.37404 81.6587C2.28164 81.5425 2.20904 81.4263 2.22356 81.2706C2.26184 80.8601 2.0942 80.5142 1.85528 80.2027C1.718 80.0245 1.64012 79.8437 1.63748 79.614C1.63616 79.4278 1.57808 79.2431 1.54376 79.0583C1.4936 78.7863 1.45532 78.5105 1.388 78.2438C1.34312 78.0643 1.27316 77.8835 1.1834 77.7224C1.04216 77.4703 0.988043 77.205 0.995963 76.9212C0.999923 76.7865 1.00256 76.6519 1.00916 76.5173C1.02104 76.3087 0.997283 76.1054 0.911483 75.9127C0.790043 75.6395 0.784763 75.3583 0.849443 75.0692C0.902243 74.8329 0.939202 74.594 0.986722 74.3564C0.995962 74.3089 1.02236 74.2653 1.091 74.2231C1.1438 74.5201 1.18736 74.8184 1.2494 75.1128C1.33652 75.5246 1.42496 75.9365 1.53584 76.3417C1.58204 76.5107 1.67444 76.673 1.7708 76.8222C1.949 77.098 2.06252 77.3898 2.11268 77.7185C2.18132 78.1739 2.32388 78.6068 2.60372 78.9843C2.6354 79.0279 2.66048 79.0754 2.6882 79.1216C2.91392 79.5176 3.1304 79.9215 3.37196 80.3083C3.44852 80.4311 3.57656 80.5367 3.70328 80.6119C3.91712 80.7386 4.09796 80.8878 4.22996 81.099C4.34876 81.2877 4.51772 81.3788 4.75004 81.3683C4.8464 81.3643 4.95728 81.4105 5.04308 81.4633C5.21864 81.5715 5.37704 81.7049 5.54996 81.8171C5.63576 81.8725 5.7374 81.9042 5.85752 81.9583C5.89712 81.8342 5.9288 81.7431 5.9552 81.6494C6.04232 81.3405 6.12812 81.0303 6.21656 80.7215C6.23108 80.6713 6.24956 80.6119 6.28652 80.5789C6.45284 80.4297 6.46076 80.2357 6.45812 80.0351C6.45548 79.8054 6.47528 79.5876 6.69836 79.4437C6.77096 79.3975 6.82244 79.3157 6.88316 79.2483C6.91352 79.2153 6.96632 79.1771 6.96368 79.1441C6.9452 78.822 7.25804 78.6464 7.3016 78.3521C7.3214 78.2201 7.40984 78.1277 7.52732 78.0669C7.62236 78.0168 7.65404 77.9349 7.68572 77.8346C7.76096 77.597 7.84676 77.3621 7.95236 77.1376C8.04476 76.9397 8.07644 76.7496 7.99856 76.541C7.93916 76.38 7.87316 76.215 8.021 76.0579C7.9682 75.9932 7.93256 75.9431 7.89032 75.9008C7.72928 75.7384 7.61972 75.5497 7.54052 75.3332C7.47716 75.159 7.3742 74.9979 7.29104 74.8303C7.18544 74.6165 7.02836 74.4528 6.83696 74.3102C6.62444 74.1505 6.55448 73.8957 6.5096 73.6489C6.47132 73.4377 6.37496 73.2727 6.26012 73.0958C6.07532 72.8133 5.942 72.4979 5.78624 72.1956C5.7704 72.1652 5.75984 72.1322 5.7242 72.0517C5.67404 72.1929 5.63972 72.2933 5.612 72.3711C5.48396 72.0411 5.36252 71.6966 5.21468 71.3653C5.15132 71.2227 5.02856 71.1066 4.94276 70.9733C4.87148 70.8624 4.79756 70.7489 4.754 70.6274C4.70912 70.502 4.67348 70.3925 4.51508 70.3806C4.3778 70.37 4.3118 70.2657 4.2854 70.1483C4.22732 69.8922 4.14548 69.6519 3.98708 69.4355C3.93164 69.3589 3.93032 69.2309 3.93296 69.1279C3.93824 68.9405 3.96596 68.7543 3.98576 68.5458C3.74948 68.4798 3.70196 68.2461 3.65048 68.0587C3.55676 67.7181 3.36668 67.4436 3.18188 67.1571C3.13436 67.0832 3.07892 67.004 3.0644 66.9209C2.99708 66.5117 2.84924 66.1289 2.71592 65.7408C2.70668 65.7157 2.6948 65.6893 2.69348 65.6629C2.67368 65.2365 2.48624 64.8788 2.28164 64.5132C2.15096 64.2795 2.12984 63.9865 2.09552 63.6974C2.15492 63.7476 2.21564 63.7938 2.2724 63.8466C2.51 64.0657 2.74496 64.2861 2.98388 64.5053C3.14756 64.6557 3.27296 64.826 3.28616 65.0557C3.2954 65.1996 3.36008 65.3118 3.46436 65.4055C3.66236 65.5824 3.80888 65.7923 3.89336 66.047C3.9158 66.1143 3.9422 66.1922 3.99368 66.2358C4.30652 66.4985 4.51244 66.8799 4.9124 67.0423C5.13548 67.1334 5.28728 67.2878 5.4008 67.5135C5.5328 67.7749 5.74664 67.9927 5.89184 68.2475C6.13868 68.6817 6.55316 68.8837 6.96896 69.0962C7.163 69.1952 7.32668 69.3127 7.37948 69.5569C7.40456 69.677 7.52468 69.7787 7.60784 69.8829C7.6844 69.9793 7.77152 70.069 7.8494 70.1562C7.7834 70.2776 7.72136 70.3753 7.67384 70.4809C7.62632 70.5865 7.58012 70.6947 7.67384 70.8083C7.70288 70.8426 7.7174 70.9205 7.69892 70.9587C7.6118 71.1317 7.70816 71.228 7.82828 71.3217C7.856 71.3442 7.88108 71.3706 7.90616 71.397C8.07248 71.5646 8.25464 71.6821 8.49884 71.5844C8.51336 71.6082 8.53052 71.6227 8.53184 71.6385C8.5358 72.0662 8.72588 72.3909 9.06248 72.647C9.16016 72.7209 9.22352 72.8384 9.31592 72.9229C9.36212 72.9651 9.44 72.9981 9.4994 72.9915C9.54032 72.9863 9.59444 72.9097 9.60236 72.8582C9.62084 72.746 9.66836 72.6642 9.74888 72.5823C9.7964 72.5335 9.80432 72.4371 9.81356 72.3593C9.83204 72.2048 9.87428 72.0649 9.97856 71.9408C10.0406 71.8669 10.0842 71.7745 10.1224 71.6847C10.2597 71.364 10.3917 71.0392 10.5264 70.7172C10.5369 70.6921 10.5475 70.667 10.5594 70.6446C10.6755 70.436 10.793 70.2288 10.9184 70.007C10.9989 70.0295 11.1045 70.0598 11.2022 70.0875C11.1705 69.8724 11.1362 69.6744 11.1124 69.4751C11.0992 69.3602 11.1441 69.2705 11.2484 69.2031C11.3131 69.1609 11.3672 69.0949 11.4121 69.0289C11.5269 68.8586 11.6312 68.6817 11.7434 68.5115C11.8345 68.3729 11.853 68.225 11.8002 68.0745C11.7579 67.9518 11.7936 67.8713 11.8899 67.796C12.1236 67.6165 12.2674 67.3974 12.2212 67.0806C12.2133 67.0225 12.274 66.9288 12.3308 66.8918C12.4918 66.7862 12.6001 66.6621 12.5961 66.4575C12.5948 66.4074 12.6238 66.3533 12.6516 66.3084C12.8337 66.0219 13.0251 65.7408 13.2007 65.4491C13.264 65.3448 13.3129 65.2207 13.3274 65.1006C13.3723 64.7402 13.5109 64.4353 13.7617 64.1687C13.8607 64.0631 13.9201 63.9086 13.9623 63.7661C14.0481 63.473 14.2699 63.2618 14.5735 63.2645C14.9233 63.2671 15.2718 63.2961 15.6202 63.3159C15.7272 63.3212 15.8328 63.3331 15.9964 63.3476C15.78 63.0968 15.6255 62.8685 15.3166 62.8091C15.1358 62.7734 14.9391 62.7549 14.8058 62.5794C14.8903 62.2903 14.984 62.0197 15.215 61.7874C15.3549 61.6475 15.417 61.4125 15.4671 61.2092C15.5067 61.0495 15.5569 60.9215 15.7008 60.8396C15.8341 60.7631 15.912 60.6482 15.9436 60.5004C15.9766 60.3446 16.0506 60.2179 16.1931 60.1347C16.3291 60.0542 16.3753 59.9275 16.3872 59.7731C16.3964 59.6701 16.4254 59.5579 16.4809 59.4721C16.5482 59.3678 16.597 59.282 16.5574 59.1513C16.5192 59.0286 16.6182 58.9586 16.7 58.886C16.8333 58.7672 16.9719 58.6524 17.0894 58.5177C17.1699 58.4253 17.2293 58.3105 17.2795 58.197C17.4524 57.7983 17.6808 57.4353 17.9408 57.0908C18.1177 56.8559 18.222 56.6011 18.2866 56.3133C18.383 55.8923 18.5586 55.4989 18.8028 55.1385C18.9136 54.9762 19.0034 54.8006 19.1064 54.633C19.1433 54.5723 19.1856 54.5142 19.2291 54.4574C19.2793 54.3941 19.3519 54.3413 19.3822 54.2713C19.5525 53.8845 19.8482 53.5955 20.1294 53.2958C20.2033 53.2179 20.2693 53.1229 20.3577 53.0701C20.631 52.9064 20.7788 52.6385 20.9517 52.3916C20.9913 52.3362 21.0006 52.2583 21.0256 52.1923C21.0586 52.1025 21.0982 52.0141 21.1246 51.9217C21.1669 51.7778 21.2184 51.6326 21.2368 51.4848C21.2646 51.2564 21.324 51.0465 21.4718 50.834C21.3926 50.8551 21.3147 50.8789 21.2355 50.8947C21.0732 50.9264 20.9781 50.8736 20.9821 50.7113C20.9874 50.4235 20.891 50.1635 20.7946 49.9047C20.7379 49.7503 20.6455 49.5959 20.532 49.4771C20.3524 49.2896 20.1993 49.1061 20.2086 48.8263C20.2112 48.7563 20.1624 48.6719 20.1122 48.6164C19.9789 48.4725 19.839 48.3313 19.6858 48.2085C19.542 48.0937 19.4522 47.9643 19.4469 47.7795C19.4403 47.5591 19.3611 47.3756 19.2423 47.1842C18.9915 46.7816 18.783 46.3539 18.5559 45.9368C18.5348 45.8972 18.519 45.8523 18.4912 45.8193C18.1784 45.4497 18.0306 44.9917 17.8207 44.5667C17.7613 44.4465 17.7177 44.3145 17.6425 44.205C17.554 44.0796 17.5303 43.9489 17.525 43.8011C17.5144 43.4882 17.426 43.3787 17.1264 43.3298C16.9917 43.3074 16.9086 43.2374 16.8676 43.1252C16.7634 42.8401 16.6551 42.5537 16.5759 42.2619C16.5007 41.9861 16.4545 41.7009 16.5442 41.4132C16.5614 41.3577 16.5469 41.2917 16.5469 41.2165C16.465 41.2007 16.3964 41.1901 16.3291 41.1729C16.1628 41.1307 16.069 40.9617 16.1654 40.8245C16.3027 40.6304 16.275 40.4601 16.1707 40.274C16.1456 40.2291 16.1298 40.1737 16.1245 40.1222C16.0968 39.8292 16.0743 39.5348 16.0479 39.2418C16.044 39.1982 16.0387 39.1428 16.0123 39.1151C15.772 38.8748 15.846 38.5409 15.7549 38.2571C15.6942 38.0696 15.7575 37.8716 15.8763 37.6961C16.0558 37.4307 16.2182 37.1549 16.4122 36.846C15.8988 36.9978 15.4302 37.1377 14.9378 37.2829C14.8533 37.2156 14.757 37.1364 14.6566 37.0611C14.5207 36.9595 14.3926 36.8433 14.2448 36.7641C14.1075 36.6902 14.0178 36.5965 13.9729 36.4513C13.9623 36.417 13.9465 36.384 13.9386 36.3497C13.8409 35.9299 13.6284 35.5722 13.3657 35.2356C13.1677 34.9821 12.9842 34.7155 12.8218 34.4383C12.7387 34.2957 12.7189 34.1175 12.6674 33.9565C12.6344 33.8562 12.612 33.7466 12.5539 33.6635C12.2608 33.245 11.9559 32.8345 11.6563 32.4213C11.4622 32.1534 11.2735 31.8815 11.0715 31.6188C11.0346 31.5699 10.9514 31.5528 10.8867 31.5317C10.7085 31.4762 10.5105 31.4577 10.43 31.2452C10.4221 31.2228 10.3904 31.1937 10.3719 31.1951C10.1277 31.2122 9.92048 31.0195 9.671 31.0776C9.65516 31.0815 9.63404 31.1 9.6248 31.0947C9.35948 30.9575 9.28688 31.1462 9.15488 31.3244C8.91992 31.6399 8.75492 31.9659 8.67044 32.354C8.63084 32.5375 8.46188 32.7117 8.3114 32.8464C7.86524 33.249 7.82168 33.2675 7.70684 33.9539C7.31084 33.8047 7.14056 34.1373 6.90296 34.3353C6.88448 34.3512 6.86204 34.3868 6.86864 34.404C6.92144 34.5729 6.83828 34.7274 6.83036 34.8831C6.82376 35.0244 6.95048 35.1722 7.0178 35.3187C7.0244 35.3346 7.02704 35.3531 7.03892 35.3953C6.9782 35.4626 6.91088 35.5445 6.83828 35.621C6.701 35.7649 6.57824 35.9101 6.52676 36.1147C6.50564 36.1979 6.41984 36.2797 6.34328 36.3312C6.17168 36.4434 5.98556 36.5345 5.80604 36.6374C5.54996 36.7839 5.32952 36.9555 5.14868 37.209C4.919 37.5311 4.68932 37.8465 4.50056 38.195C4.44644 38.2967 4.32764 38.3785 4.22072 38.4339C3.9554 38.5725 3.698 38.7111 3.53168 38.9738C3.49868 39.0253 3.44456 39.0649 3.39308 39.0992C3.236 39.2035 3.13832 39.3474 3.07892 39.5229C3.00236 39.7487 2.87432 39.9414 2.6948 40.0985C2.56808 40.2093 2.48624 40.34 2.477 40.5143C2.46776 40.7043 2.36744 40.8548 2.23412 40.9815C1.94108 41.2601 1.64408 41.532 1.34708 41.8065C1.3286 41.8237 1.30088 41.829 1.25204 41.8527C1.3682 41.4594 1.3814 41.0607 1.63748 40.7307C1.73252 40.6093 1.77872 40.4417 1.8236 40.2885C1.89884 40.0325 1.95296 39.7711 2.02292 39.5137C2.06384 39.3579 2.11664 39.2048 2.16416 39.0517C2.18264 38.9923 2.22224 38.9329 2.22092 38.8735C2.21432 38.562 2.41232 38.3442 2.55752 38.1C2.65784 37.9323 2.73308 37.7502 2.8136 37.5707C2.87828 37.4241 2.92184 37.2671 2.99576 37.1271C3.02744 37.0664 3.11456 37.0334 3.1832 36.9819C3.17132 36.8803 3.15944 36.7747 3.14492 36.6691C3.10268 36.3761 3.11984 36.1055 3.32708 35.8613C3.4076 35.7662 3.42212 35.6131 3.4538 35.4837C3.49736 35.3069 3.5594 35.163 3.77192 35.1379C3.82472 35.1313 3.89732 35.0574 3.91184 35.0019C3.96728 34.7749 4.12172 34.6205 4.24844 34.437C4.42532 34.1849 4.53488 33.8826 4.65764 33.5961C4.71572 33.4602 4.73684 33.3097 4.78964 33.1117C4.83452 33.2543 4.86356 33.3453 4.90316 33.4668C4.94012 33.4047 4.96784 33.3665 4.985 33.3229C5.12624 32.9731 5.27936 32.6312 5.5262 32.3369C5.60804 32.2392 5.64104 32.0993 5.68592 31.9752C5.74928 31.7983 5.79548 31.6161 5.8628 31.4419C5.89052 31.3693 5.94068 31.2914 6.00272 31.2492C6.40796 30.9693 6.60596 30.5549 6.77624 30.114C6.833 29.9675 6.93596 29.8368 7.02704 29.7048C7.13792 29.5437 7.25936 29.3893 7.37552 29.2322C7.40192 29.1966 7.42436 29.1517 7.46132 29.1306C7.61576 29.0421 7.66064 28.8969 7.71344 28.7372C7.74908 28.6303 7.8494 28.53 7.94444 28.46C8.186 28.2818 8.20184 28.2541 8.03024 28.0244C7.95896 27.9294 7.93652 27.8343 7.97876 27.7235C8.05664 27.5123 8.05664 27.3024 7.96952 27.0938C7.96556 27.0859 7.96028 27.0767 7.96028 27.0687C7.96028 26.5922 7.70156 26.2081 7.50884 25.7989C7.48244 25.7421 7.46396 25.6814 7.4534 25.6194C7.39004 25.2471 7.19864 24.933 7.00196 24.6215C6.833 24.3548 6.67328 24.0908 6.6416 23.7635C6.61652 23.5061 6.55316 23.2539 6.50828 22.9979C6.47924 22.8355 6.44888 22.8065 6.27728 22.8065C6.206 22.8065 6.12944 22.8342 6.06344 22.8157C5.9948 22.7972 5.89316 22.7497 5.87996 22.6969C5.79284 22.3194 5.50244 22.0897 5.25956 21.8336C5.01404 21.5736 4.86752 21.2581 4.68008 20.9651C4.67084 20.9505 4.6616 20.9321 4.66028 20.9162C4.6286 20.5532 4.358 20.3618 4.10852 20.1599C3.93428 20.0186 3.74948 19.8906 3.63464 19.6899C3.61748 19.6596 3.59108 19.6319 3.56468 19.6094C3.27428 19.3731 2.97596 19.1474 2.69612 18.9006C2.5034 18.7316 2.2922 18.5653 2.22092 18.3C2.08628 17.8037 1.79984 17.4116 1.3946 17.108C1.0976 16.8863 0.988042 16.5827 0.937882 16.2236C1.0844 16.3094 1.20716 16.3965 1.34312 16.4546C1.43816 16.4955 1.55168 16.5153 1.65596 16.5101C1.81568 16.5021 1.9754 16.4678 2.1338 16.4361C2.29352 16.4045 2.4242 16.3173 2.46512 16.155C2.5496 15.8223 2.70932 15.4884 2.49152 15.1465C2.47436 14.7531 2.3978 14.3505 2.45324 13.9677C2.56148 13.2167 2.83736 12.5131 3.302 11.8993C3.50396 11.6327 3.70592 11.3634 3.99236 11.168C3.91976 11.2763 3.8498 11.3858 3.77588 11.4927C3.43796 11.9785 3.31652 12.5184 3.37592 13.1018C3.4142 13.4859 3.44984 13.8714 3.51584 14.2502C3.61484 14.8099 3.93692 15.2059 4.49528 15.4409C4.52036 15.2587 4.54544 15.0871 4.57448 14.8719C4.63916 14.9472 4.6814 14.9855 4.71176 15.033C4.88864 15.3023 5.13812 15.495 5.4008 15.6653C5.52224 15.7445 5.68328 15.7854 5.8298 15.8025C6.11756 15.8355 6.3644 15.9411 6.57824 16.1339C6.62972 16.1801 6.68912 16.2329 6.75248 16.2474C7.07852 16.3253 7.3412 16.4955 7.54844 16.7582C7.592 16.8137 7.6514 16.8572 7.7108 16.9113C7.84544 16.8348 7.88768 16.716 7.889 16.5774C7.89164 16.0863 8.12528 15.7035 8.45396 15.3656C8.4698 15.3485 8.49356 15.3392 8.51996 15.3221C8.51996 15.5174 8.52524 15.7009 8.51864 15.8857C8.51204 16.0349 8.5688 16.1246 8.714 16.1616C8.77472 16.1774 8.83544 16.1972 8.89088 16.2263C9.10208 16.3371 9.27896 16.3741 9.47696 16.1576C9.57596 16.0494 9.78716 16.0375 9.95084 15.9992C10.0538 15.9755 10.166 15.9755 10.2729 15.9794C10.4868 15.9887 10.6834 15.9807 10.7917 15.7471C10.8128 15.7009 10.888 15.6719 10.9448 15.6521C11.0029 15.6309 11.0689 15.6138 11.1296 15.6204C11.515 15.656 11.8622 15.4752 12.2331 15.4329C12.3308 15.4224 12.3968 15.3762 12.4272 15.2745C12.4496 15.198 12.476 15.1148 12.5262 15.0567C12.6938 14.8653 12.8218 14.6568 12.9037 14.4139C12.9499 14.2793 13.0634 14.2133 13.2139 14.1921C13.4277 14.1631 13.6178 14.0879 13.7881 13.9321C14.0178 13.7222 14.3042 13.61 14.625 13.6166C14.823 13.6206 15.0223 13.6298 15.1873 13.4886C15.2005 13.478 15.219 13.4675 15.2361 13.4675C15.5041 13.4556 15.7179 13.3579 15.8592 13.115C15.8816 13.0767 15.9714 13.0569 16.0281 13.0609C16.2261 13.0767 16.3713 12.9817 16.5112 12.8616C16.7436 12.6609 16.9838 12.4748 17.2834 12.3851C17.3244 12.3719 17.3679 12.3653 17.4722 12.3428C17.4009 12.4629 17.3547 12.5421 17.3072 12.6213C16.9878 13.1467 16.7884 13.7222 16.6274 14.3109C16.5772 14.4944 16.5759 14.6819 16.6353 14.8693C16.6617 14.9538 16.671 15.0462 16.671 15.1346C16.671 15.4857 16.7119 15.8303 16.7898 16.1748C16.836 16.3807 16.8188 16.6025 16.8122 16.8176C16.8056 17.0645 16.8412 17.2849 16.9746 17.508C17.1052 17.7271 17.1607 17.9898 17.2491 18.2366C17.2082 18.2947 17.1752 18.3462 17.1369 18.395C17.0287 18.5349 16.9746 18.6894 16.9851 18.8702C17.0062 19.2279 17.0221 19.587 17.0313 19.946C17.0379 20.2179 17.2042 20.4107 17.3917 20.5506C17.6451 20.7407 17.6438 21.0113 17.7032 21.266C17.7138 21.3135 17.6689 21.3875 17.6293 21.4297C17.5263 21.5419 17.4128 21.6435 17.3019 21.7491C16.9323 22.1016 16.7673 22.5464 16.7224 23.0427C16.7172 23.1008 16.7449 23.1602 16.7634 23.2487C16.8294 23.1932 16.8808 23.1629 16.9191 23.1193C17.1805 22.8157 17.4973 22.5834 17.8418 22.3854C18.057 22.2613 18.2721 22.1768 18.5295 22.2666C18.713 22.3313 18.9084 22.3616 19.1143 22.4105C19.1262 22.5715 19.138 22.7207 19.1486 22.8711C19.1631 23.0612 19.2384 23.2104 19.4073 23.316C19.67 23.4783 19.8376 23.6948 19.8838 24.0222C19.9287 24.3403 20.0185 24.6518 20.0145 24.9792C20.0132 25.065 20.0449 25.1508 20.0634 25.2511C20.2218 25.2339 20.3604 25.2194 20.4976 25.2049C20.664 25.5692 20.8263 25.9164 20.9821 26.2675C21.0151 26.3401 21.0428 26.4193 21.052 26.4985C21.1246 27.1242 21.3926 27.6839 21.6434 28.2475C21.7926 28.5815 21.8863 28.9431 22.1226 29.2349C22.1833 29.3101 22.2414 29.4078 22.3232 29.4434C22.5753 29.5543 22.7562 29.7589 22.9819 29.9028C23.0809 29.9661 23.131 30.044 23.139 30.1641C23.1574 30.4466 23.2617 30.7027 23.3911 30.9535C23.4676 31.1027 23.5653 31.2228 23.7092 31.3073C23.898 31.4181 24.059 31.5581 24.1593 31.7587C24.1791 31.7983 24.2082 31.8353 24.2398 31.8669C24.4154 32.0438 24.6015 32.2088 24.7652 32.3949C24.8695 32.5137 24.9672 32.651 25.0226 32.7962C25.086 32.9612 25.1678 33.1011 25.2945 33.2213C25.4028 33.3242 25.4912 33.4285 25.4014 33.5961C25.3711 33.6529 25.3777 33.7387 25.3909 33.8073C25.4344 34.0449 25.478 34.2825 25.54 34.5149C25.5968 34.7274 25.7644 34.8488 25.9677 34.8779C26.1802 34.9082 26.2555 35.0231 26.2792 35.2131C26.3202 35.5445 26.4878 35.8019 26.7531 35.9959C27.0013 36.1767 27.1465 36.3972 27.132 36.7206C27.1188 37.0176 27.2125 37.2776 27.4514 37.4849C27.5794 37.5957 27.656 37.7568 27.6243 37.9442C27.8104 38.0036 27.9345 38.1554 28.0507 38.3006C28.1233 38.3917 28.18 38.529 28.1761 38.6438C28.1642 39.0517 28.2936 39.3923 28.5444 39.7117C28.6737 39.8767 28.7516 40.0879 28.8268 40.2872C28.8994 40.4799 28.9918 40.6476 29.1819 40.7387C29.3271 40.8086 29.3892 40.9314 29.4156 41.0766C29.4578 41.3089 29.5383 41.5214 29.6796 41.7168C29.7495 41.8145 29.7693 41.9478 29.8155 42.0639C29.9 42.2765 29.9858 42.489 30.0967 42.7635C30.2221 42.588 30.3132 42.4599 30.4082 42.3279C30.6484 42.5088 30.7303 42.7094 30.8108 42.9035C30.8623 43.0275 30.9243 43.112 31.051 43.1688C31.2886 43.2757 31.4919 43.6559 31.4576 43.9212C31.4365 44.0888 31.3956 44.2565 31.352 44.4201C31.1144 45.3164 31.1764 46.1955 31.5355 47.0681C31.6028 46.7328 31.682 46.4001 31.7335 46.0622C31.7652 45.851 31.8285 45.6623 31.9566 45.4946C32.2602 45.0986 32.4516 44.6485 32.6086 44.1786C32.6852 43.9515 32.7895 43.7298 32.9136 43.5252C33.0244 43.343 33.0627 43.1635 33.0218 42.9615C33.002 42.8652 32.9677 42.7715 32.9452 42.6764C32.8462 42.2685 32.7301 41.8633 32.6575 41.4515C32.6284 41.2851 32.6905 41.1017 32.7208 40.9274C32.7486 40.7703 32.7882 40.6146 32.8225 40.4588C32.8634 40.2753 32.9122 40.0932 32.9426 39.9084C32.9769 39.7064 33.0007 39.5018 33.0192 39.2985C33.0469 38.9699 33.0667 38.6399 33.0891 38.3099C33.0904 38.2861 33.0825 38.261 33.0759 38.2201C32.7723 38.364 32.5704 38.6069 32.3407 38.8445C32.3354 38.7864 32.3262 38.7283 32.3275 38.6702C32.338 38.0049 32.2984 37.3423 32.1902 36.6849C32.1598 36.5001 32.181 36.3285 32.2813 36.1688C32.4608 35.8797 32.47 35.5775 32.3473 35.2659C32.2536 35.027 32.2483 34.7828 32.2681 34.5267C32.3011 34.0991 32.2984 33.6674 32.3024 33.2371C32.305 32.9863 32.2918 32.7342 32.2839 32.4834C32.2786 32.3184 32.2958 32.1666 32.4001 32.0253C32.4463 31.962 32.4568 31.8577 32.4542 31.7732C32.4423 31.4063 32.4318 31.038 32.3961 30.6723C32.3539 30.2328 32.3565 29.7959 32.3763 29.3563C32.3935 28.9788 32.2681 28.6752 31.9447 28.4561C31.777 28.3425 31.7797 28.2185 31.9302 28.0891C32.0806 27.9611 32.239 27.8423 32.3882 27.7129C32.4806 27.6324 32.5638 27.54 32.6905 27.4133C32.404 27.3525 32.1664 27.3024 31.9077 27.2469C31.9882 26.9526 32.0476 26.6635 32.148 26.3889C32.2694 26.0576 32.2852 25.725 32.2536 25.3818C32.2021 24.8287 32.1387 24.2743 32.1136 23.7199C32.0965 23.3186 32.1282 22.9134 32.1519 22.5108C32.1572 22.4303 32.2272 22.3537 32.2602 22.2732C32.3209 22.1253 32.4106 21.9801 32.4265 21.827C32.4832 21.2937 32.4225 20.7671 32.2153 20.2694C32.1229 20.0477 32.082 19.8246 32.0754 19.5896C32.0542 18.7818 32.0146 17.9739 32.0186 17.1674C32.0199 16.8717 31.8866 16.7252 31.649 16.6605C31.4022 16.5932 31.2147 16.4652 31.055 16.2738C30.9415 16.1378 30.7857 16.0824 30.6022 16.0718C30.3897 16.0599 30.1772 16.0217 29.9673 15.9821C29.6822 15.9293 29.4354 15.9728 29.244 16.2144C29.1832 16.2909 29.108 16.3596 29.0275 16.415C28.8678 16.5272 28.7001 16.6275 28.5153 16.7463C28.4982 16.6223 28.485 16.5272 28.4704 16.4269C28.3332 16.3807 28.2513 16.4823 28.151 16.5299C27.9741 16.6117 27.7933 16.6856 27.6151 16.7675C27.528 16.8071 27.4369 16.8467 27.3603 16.9034C27.1372 17.0697 26.9221 17.244 26.703 17.4156C26.6752 17.438 26.6422 17.4552 26.6172 17.4803C26.266 17.8195 25.9162 18.1601 25.5519 18.5125C25.5427 18.4386 25.5348 18.3739 25.5255 18.3066C25.3473 18.3251 25.2312 18.4201 25.1163 18.5415C24.9711 18.6973 24.7995 18.828 24.6438 18.9732C24.5606 19.0511 24.4576 19.1263 24.4141 19.2253C24.3415 19.3929 24.2306 19.5078 24.0748 19.5909C23.7752 19.752 23.5389 19.9777 23.3792 20.2826C23.263 20.1361 23.263 20.1361 23.263 19.6028C23.263 19.3718 23.263 19.1395 23.263 18.8729C23.0584 18.927 22.8776 18.9666 22.7047 19.0247C22.6558 19.0405 22.5978 19.1118 22.5925 19.1606C22.57 19.3995 22.3971 19.5131 22.2255 19.6279C22.1516 19.6781 22.0711 19.7256 21.9866 19.7507C21.7028 19.8325 21.4612 19.9698 21.2751 20.2074C21.2302 20.2655 21.1431 20.3064 21.0692 20.3235C20.7075 20.4027 20.425 20.6311 20.1162 20.8093C20.0528 20.8463 20.0119 20.9281 19.9723 20.9967C19.9287 21.072 19.897 21.1538 19.8535 21.2489C19.608 21.0799 19.4218 20.8766 19.2766 20.6403C19.241 20.5809 19.2714 20.4819 19.2714 20.3882C18.9915 20.3684 18.874 20.1546 18.8278 19.9104C18.7909 19.7124 18.7011 19.5857 18.5295 19.4959C18.4622 19.4603 18.4068 19.4009 18.3434 19.3507C18.4318 19.1355 18.5176 18.9507 18.7354 18.8742C18.7526 18.8689 18.775 18.861 18.7816 18.8491C18.911 18.5785 19.2159 18.5231 19.4086 18.3383C19.6423 18.1139 19.8706 17.904 20.1742 17.7693C20.33 17.6994 20.4356 17.5265 20.5834 17.4275C20.6983 17.3509 20.8382 17.2849 20.9715 17.273C21.2302 17.2493 21.4652 17.1674 21.6777 17.0328C21.9034 16.8902 22.1094 16.7133 22.3338 16.5668C22.4908 16.4652 22.6545 16.349 22.8314 16.3081C23.1324 16.2395 23.3766 16.089 23.6247 15.8659C23.6247 15.9491 23.6247 16.0019 23.6247 16.0771C23.9164 15.9847 24.1118 15.7497 24.3679 15.6164C24.6292 15.4805 24.8774 15.3194 25.1784 15.1425C25.082 15.3696 25.0002 15.5636 24.9183 15.7577C24.9315 15.7669 24.946 15.7748 24.9592 15.7841C25.0226 15.7049 25.0899 15.6283 25.148 15.5438C25.2444 15.4039 25.317 15.2402 25.4331 15.1201C25.6496 14.897 25.8898 14.6977 26.1248 14.4931C26.1618 14.4601 26.2251 14.4575 26.2753 14.4403C26.4693 14.373 26.6739 14.3268 26.8548 14.2357C27.1782 14.072 27.5266 14.0733 27.8712 14.0364C27.9939 14.0232 28.1167 14.01 28.2394 13.9915C28.3015 13.9823 28.3609 13.9427 28.4203 13.944C28.7714 13.9585 29.042 13.8041 29.2413 13.5744C29.3509 13.6087 29.4393 13.6655 29.5146 13.6536C29.6149 13.6377 29.7205 13.5836 29.7984 13.5163C30.0439 13.3064 30.3052 13.1507 30.6445 13.1705C30.688 13.1731 30.7356 13.1625 30.7752 13.1441C31.1157 12.983 31.4048 12.4603 31.3586 12.0933C31.3388 11.9389 31.1448 11.7409 30.9468 11.7198C30.7237 11.696 30.6062 11.5904 30.5112 11.3871C30.3924 11.1337 30.16 10.9634 29.933 10.8024C29.8696 10.7575 29.7997 10.7205 29.7244 10.6757C29.8908 10.5331 30.0782 10.5463 30.2524 10.5397C30.5362 10.5305 30.8042 10.4777 31.0444 10.3206C31.1448 10.2559 31.2438 10.2533 31.352 10.2955C31.5421 10.3694 31.7322 10.3523 31.9328 10.3259C32.1321 10.2995 32.3605 10.2863 32.5387 10.3589C32.7763 10.4565 32.973 10.4103 33.1855 10.3311C33.2264 10.3166 33.262 10.2915 33.3082 10.2665C33.361 10.3575 33.4086 10.4381 33.4574 10.5212C33.7267 10.2665 33.7306 10.2915 34.1412 10.2453C34.417 10.215 34.718 10.2599 34.9662 10.0632C35.0124 10.0262 35.1206 10.0619 35.1985 10.0711C35.4625 10.1041 35.7265 10.1397 36.0314 10.1793C35.943 9.97606 35.7423 9.99058 35.6592 9.84406C35.7159 9.8203 35.7687 9.79126 35.8242 9.77674C36.0142 9.7279 36.174 9.63286 36.2743 9.46126C36.3997 9.24874 36.5739 9.11806 36.8208 9.06658C36.9488 9.04018 37.0663 8.96098 37.1864 8.90158C37.3699 8.8105 37.4623 8.65211 37.5045 8.45939C37.5256 8.36303 37.5375 8.26534 37.5534 8.16766C37.5824 8.0053 37.6603 7.8799 37.8306 7.84162C38.1328 7.7743 38.2503 7.61986 38.249 7.24498C38.2477 7.01398 38.2041 6.78166 38.1764 6.55066C38.1658 6.46354 38.1474 6.37775 38.1276 6.26026C38.3929 6.36719 38.5764 6.53351 38.7598 6.69587C38.938 6.85295 39.012 6.87274 39.21 6.74998C39.4938 6.5731 39.7564 6.37774 39.8185 6.0055C39.8673 5.7151 39.9795 5.43526 40.0138 5.14354C40.0442 4.88878 39.9967 4.62478 39.9993 4.36606C40.002 4.1707 40.0152 3.97271 40.0508 3.77999C40.1696 3.13319 40.1564 2.49958 39.9333 1.87391C39.829 1.58219 39.6984 1.29575 39.6799 0.947266C39.903 1.27331 40.1524 1.54127 40.2422 1.91615C40.2778 2.06398 40.3927 2.19995 40.4904 2.32667C40.8771 2.82035 41.1068 3.39455 41.3523 3.96083C41.3985 4.06775 41.4381 4.17994 41.5028 4.27366C41.6638 4.50334 41.7391 4.75151 41.7338 5.03135C41.7298 5.29271 41.7628 5.54219 41.8856 5.78639C41.9516 5.91839 41.9437 6.10318 41.9239 6.25894C41.8962 6.47938 41.9278 6.66947 42.0744 6.83578C42.242 7.02587 42.3159 7.24234 42.3199 7.49842C42.3225 7.64494 42.374 7.79675 42.4321 7.93535C42.5403 8.19407 42.5562 8.44882 42.4875 8.72206C42.4453 8.89102 42.4519 9.07318 42.4492 9.25006C42.4453 9.4903 42.4519 9.73186 42.4585 9.9721C42.4651 10.2453 42.4677 10.5199 42.4875 10.7918C42.5179 11.2037 42.5786 11.6168 42.3463 11.997C42.3186 12.0419 42.2948 12.096 42.2908 12.1475C42.2605 12.5844 42.0968 13.0055 42.1338 13.4516C42.1522 13.6747 42.1509 13.9004 42.1417 14.1248C42.1311 14.3558 42.0955 14.5868 42.077 14.8178C42.0585 15.0501 42.0334 15.2825 42.0414 15.5148C42.0453 15.623 42.114 15.7326 42.1654 15.8342C42.205 15.9121 42.2631 15.9807 42.3436 16.0969C42.2209 16.1114 42.1377 16.122 42.0559 16.1299C41.8288 16.151 41.8117 16.1748 41.85 16.4401C41.8104 16.4441 41.7708 16.448 41.7325 16.452C41.6982 16.4559 41.6638 16.4586 41.644 16.4612C41.5939 16.745 41.5094 17.0169 41.5081 17.2889C41.5054 17.5898 41.5582 17.8961 41.6256 18.1904C41.7008 18.5191 41.6929 18.5983 41.4236 18.795C41.3946 18.8161 41.3642 18.8372 41.3325 18.8517C41.1068 18.9455 41.0355 19.121 41.0646 19.3665C41.2546 19.3481 41.446 19.3375 41.6361 19.3085C41.7958 19.2847 41.9014 19.3467 41.9622 19.4827C42.0216 19.616 42.0612 19.7573 41.9292 19.8787C41.8302 19.9698 41.8354 20.0859 41.8566 20.2034C41.8711 20.2826 41.9133 20.3618 41.908 20.4384C41.8869 20.7354 41.9859 20.9756 42.1826 21.1974C42.2499 21.2739 42.2618 21.4125 42.2724 21.5261C42.2869 21.6858 42.2658 21.8495 42.2803 22.0105C42.2922 22.1517 42.3001 22.3062 42.3634 22.4276C42.5232 22.7352 42.5535 23.0612 42.5575 23.3939C42.576 24.6769 42.5944 25.9613 42.605 27.2443C42.6063 27.4581 42.6657 27.635 42.7674 27.8238C42.9363 28.1379 43.0564 28.4785 43.1911 28.8098C43.2122 28.8639 43.2109 28.9365 43.1964 28.9946C43.1475 29.1966 43.195 29.3814 43.265 29.5715C43.3719 29.8619 43.3891 30.1602 43.3323 30.4717C43.2835 30.7344 43.2874 31.0063 43.2756 31.2743C43.269 31.4379 43.2465 31.5871 43.1502 31.731C43.0604 31.863 43.0221 32.0293 42.9363 32.1639C42.7845 32.4055 42.6156 32.6339 42.4532 32.8688C42.6829 32.7593 42.9271 32.6444 43.2043 32.5124C43.2043 32.8358 43.2043 33.1117 43.2043 33.3876C43.2069 34.1598 43.2069 34.932 43.2135 35.7042C43.2148 35.8203 43.2439 35.9352 43.2518 36.0513C43.2637 36.2282 43.2676 36.4064 43.2742 36.5846C43.2756 36.6203 43.2676 36.6572 43.2742 36.6915C43.327 36.9819 43.397 37.2697 43.43 37.5614C43.4604 37.8267 43.467 38.0987 43.4577 38.3653C43.434 39.0649 43.3719 39.7632 43.3719 40.4615C43.3719 40.934 43.4353 41.4092 43.5 41.8805C43.6069 42.6579 43.5765 43.4394 43.5818 44.2195C43.5831 44.3396 43.5409 44.4677 43.4907 44.5812C43.3191 44.9719 43.3099 45.3745 43.3297 45.7943C43.3653 46.5467 43.3614 47.3004 43.3706 48.0541C43.3746 48.3762 43.3548 48.6996 43.3653 49.0217C43.3772 49.3556 43.335 49.6803 43.2993 50.0117C43.2426 50.5423 43.1449 51.0782 43.2967 51.6128C43.335 51.7488 43.3323 51.8979 43.3574 52.0392C43.3838 52.187 43.4208 52.3335 43.4511 52.4814C43.467 52.5593 43.4854 52.6385 43.492 52.7177C43.5132 52.9856 43.5396 53.2549 43.5435 53.5229C43.5462 53.7354 43.5198 53.9492 43.5066 54.1631C43.4868 54.4667 43.4656 54.7716 43.4445 55.0752C43.4353 55.2098 43.4221 55.3431 43.4155 55.4778C43.4076 55.6507 43.3944 55.8144 43.2412 55.9371C43.1937 55.9754 43.1739 56.0639 43.1686 56.1312C43.162 56.2368 43.1607 56.3503 43.1898 56.4519C43.3152 56.906 43.4524 57.3575 43.5937 57.8406C43.5884 57.8445 43.5554 57.8907 43.5105 57.9132C43.3944 57.9726 43.3455 58.0703 43.3244 58.1917C43.3046 58.3065 43.2742 58.4201 43.265 58.5362C43.2505 58.7105 43.2333 58.8715 43.0591 58.9771C43.0129 59.0048 42.9891 59.1012 42.9865 59.1672C42.9786 59.3916 42.8994 59.5803 42.77 59.7638C42.7066 59.8536 42.6684 59.979 42.6657 60.0899C42.6525 60.6284 42.5773 61.1802 42.671 61.7016C42.7911 62.3655 42.7594 63.0229 42.7872 63.6842C42.7898 63.7476 42.7885 63.8123 42.803 63.8717C42.9482 64.463 42.9192 65.0649 42.9139 65.6655C42.9112 66.0602 42.9112 66.4562 42.9152 66.8509C42.9165 67.0119 42.8664 67.1347 42.7462 67.2522C42.5694 67.4251 42.4202 67.6284 42.242 67.8422C42.3832 67.8343 42.502 67.8264 42.6182 67.8198C42.7621 67.9967 42.7476 68.1867 42.6657 68.3597C42.5522 68.6012 42.5139 68.8533 42.4836 69.1121C42.4717 69.2084 42.4506 69.3127 42.4017 69.3932C42.2922 69.5741 42.2737 69.7681 42.2948 69.9648C42.3172 70.1852 42.275 70.3898 42.2103 70.5984C42.1588 70.7673 42.1285 70.9429 42.0862 71.133C42.2037 71.0828 42.3014 71.0406 42.4426 70.9799C42.4532 71.1264 42.4611 71.228 42.469 71.331C42.5218 72.0279 42.5746 72.7262 42.6314 73.4232C42.638 73.5024 42.6565 73.5908 42.7 73.6529C42.8254 73.8258 42.8334 74.0185 42.8334 74.2178C42.832 74.7643 42.8334 75.3108 42.8334 75.8995C42.9139 75.8506 42.9535 75.8256 43.0116 75.7913C43.0234 75.8348 43.0446 75.8731 43.0432 75.9101C43.0314 76.4169 42.972 76.9106 42.7212 77.366C42.5628 77.6525 42.4875 77.9627 42.4796 78.294C42.4743 78.5434 42.4268 78.7916 42.3978 79.0398C42.3384 79.5387 42.2658 80.035 42.3608 80.5393C42.3991 80.7399 42.4004 80.9498 42.403 81.1557C42.411 81.9002 42.4149 82.646 42.4123 83.3905C42.411 84.0373 42.4136 84.6828 42.502 85.3243C42.5667 85.7995 42.5403 86.2734 42.444 86.7433C42.3582 87.1591 42.3397 87.5789 42.3344 88.0013C42.3331 88.1187 42.3054 88.2653 42.2328 88.3484C42.0427 88.5702 42.0018 88.8328 41.9833 89.1008C41.9516 89.5853 41.9727 90.0644 42.0361 90.5502C42.0928 90.9818 42.077 91.4267 42.0506 91.8636C42.0282 92.2319 42.007 92.5948 42.0453 92.9645C42.081 93.3103 42.0823 93.6601 42.0889 94.0086C42.0928 94.1973 42.0876 94.3861 42.0717 94.5735C42.0572 94.7425 42.04 94.9154 41.9899 95.0751C41.9067 95.3444 41.8592 95.615 41.8645 95.8962C41.8671 95.9952 41.8605 96.0942 41.8605 96.1919C41.8605 97.0169 41.8552 97.8405 41.6414 98.6497C41.5622 98.9493 41.553 99.2714 41.545 99.5843C41.5173 100.624 41.5068 101.666 41.4843 102.707C41.479 102.967 41.4408 103.226 41.4315 103.485C41.421 103.825 41.413 104.167 41.4262 104.508C41.4394 104.846 41.479 105.184 41.5134 105.588C41.4434 105.446 41.388 105.359 41.3536 105.266C41.2348 104.936 41.0817 104.629 40.8811 104.335C40.6342 103.975 40.4481 103.572 40.2475 103.181C40.2 103.089 40.1841 102.975 40.1775 102.87C40.167 102.71 40.0904 102.581 39.9637 102.516C39.7446 102.405 39.6812 102.214 39.6812 102.008C39.6812 101.799 39.6086 101.653 39.4225 101.584C39.0714 101.453 38.9803 101.17 38.9011 100.841C38.8219 100.514 38.6714 100.203 38.5473 99.8892C38.5011 99.773 38.4246 99.6674 38.3863 99.5499C38.2807 99.2331 38.1579 98.9295 37.9243 98.6787C37.849 98.5982 37.824 98.4715 37.7751 98.3659C37.725 98.259 37.75 98.1111 37.5916 98.061C37.5652 98.053 37.5534 97.9673 37.5507 97.9171C37.5336 97.6227 37.5322 97.3323 37.4438 97.0406C37.3778 96.8228 37.3923 96.5786 37.3857 96.3463C37.3752 95.9648 37.3171 95.6084 37.0861 95.2797C36.9171 95.0395 36.8168 94.7504 36.8076 94.4481C36.7983 94.1762 36.6597 94.0165 36.4155 93.932C36.0842 93.8159 35.778 93.6601 35.5021 93.4331C35.3476 93.305 35.1496 93.2271 34.9714 93.1294C34.9239 93.1044 34.8685 93.0951 34.8236 93.0674C34.186 92.6754 33.4719 92.6859 32.7657 92.7018C32.4331 92.7097 32.1202 92.6925 31.8338 92.5183C31.6503 92.4061 31.4563 92.3507 31.2451 92.3573C31.0814 92.3612 30.952 92.3005 30.8306 92.1989C30.7131 92.1012 30.5917 92.0075 30.461 91.9309C30.3 91.8372 30.2168 91.8596 30.0927 92.0035C30.0386 91.9573 29.9818 91.9151 29.933 91.8649C29.7667 91.6959 29.5634 91.622 29.3311 91.6049C29.2426 91.5983 29.1568 91.5718 29.0684 91.56C28.9285 91.5402 28.7886 91.5243 28.6473 91.5098C28.32 91.4768 27.9913 91.4649 27.6811 91.3237C27.487 91.2353 27.2719 91.1957 27.0792 91.1059C26.9287 91.0359 26.7927 90.9316 26.6581 90.8313C26.3439 90.599 26.1195 90.2901 25.9242 89.9575C25.8819 89.8862 25.8172 89.8268 25.7222 89.7885C25.8067 89.9799 25.8925 90.1713 25.977 90.3641C25.9677 90.3746 25.9572 90.3839 25.9479 90.3944C25.4503 90.0855 24.9513 89.7767 24.4286 89.4519C24.4378 89.5417 24.4444 89.5971 24.4537 89.6843C24.3679 89.6183 24.3058 89.5694 24.2438 89.5232C24.0933 89.4084 23.9336 89.3226 23.7435 89.2751C23.4914 89.213 23.271 89.0797 23.0611 88.916C22.673 88.6137 22.281 88.3035 21.7543 88.2785C21.489 88.2653 21.3226 88.0791 21.1392 87.9221C21.0784 87.8706 21.0309 87.7874 20.961 87.7623C20.6758 87.6554 20.4858 87.4257 20.2521 87.2555C19.9762 87.0535 19.7149 86.837 19.4469 86.6258C19.3162 86.5229 19.2106 86.3803 19.1182 86.2404C19.0192 86.0899 18.9097 85.9737 18.7222 85.9513C18.68 85.946 18.6298 85.9288 18.6008 85.8998C18.4596 85.7546 18.3104 85.6279 18.1335 85.5196C17.95 85.4061 17.8154 85.2134 17.6161 85.0101C17.6478 84.8267 17.6926 84.5917 17.7256 84.3567C17.7415 84.2432 17.7428 84.1244 17.7375 84.0096C17.7322 83.8934 17.76 83.805 17.8524 83.7258C17.9157 83.6717 17.9738 83.5911 17.9936 83.5106C18.0451 83.3047 18.0741 83.0935 18.119 82.844C18.1665 82.9074 18.1969 82.9311 18.2048 82.9615C18.2655 83.1846 18.4186 83.3047 18.6351 83.3588C18.6615 83.3654 18.6906 83.3681 18.7117 83.3826C19.0245 83.5806 19.336 83.7812 19.6621 83.9911C19.8495 83.8736 19.9353 84.1138 20.1056 84.1653C20.1386 84.1297 20.1769 84.0888 20.2191 84.0439C20.2785 84.1535 20.33 84.2498 20.4052 84.3884C20.4607 84.2591 20.4937 84.1799 20.5491 84.0465C20.6151 84.1904 20.6706 84.2947 20.7088 84.4043C20.7788 84.597 20.891 84.7356 21.0784 84.8412C21.3517 84.9956 21.6157 85.1606 21.9232 85.2451C21.9945 85.2649 22.0671 85.3217 22.116 85.3811C22.281 85.5843 22.4988 85.6926 22.739 85.7836C22.9106 85.8483 23.0743 85.9553 23.2168 86.0714C23.2987 86.1374 23.3502 86.2562 23.3845 86.3618C23.4162 86.4582 23.4624 86.5202 23.5574 86.5453C23.7118 86.5862 23.8663 86.6258 24.0458 86.672C24.0564 86.5915 24.0722 86.5255 24.0722 86.4582C24.0735 86.1796 24.0643 85.9011 24.0696 85.6239C24.0722 85.5051 24.1026 85.3863 24.129 85.2042C24.2082 85.3203 24.2398 85.3837 24.2874 85.4325C24.4378 85.5843 24.5791 85.752 24.752 85.8734C24.9513 86.0133 25.1546 86.1295 25.2457 86.379C25.2787 86.4674 25.3962 86.5242 25.4767 86.5941C25.6113 86.7116 25.7618 86.8146 25.8766 86.9479C25.9968 87.0905 26.1208 87.2092 26.3294 87.2502C26.336 87.1789 26.3426 87.1076 26.3505 87.0337C26.3716 87.039 26.3941 87.039 26.3994 87.0482C26.5023 87.2198 26.6356 87.3571 26.8112 87.4627C26.9234 87.53 27.0105 87.6396 27.1042 87.7346C27.2112 87.8415 27.3062 87.9643 27.421 88.062C27.6824 88.2798 27.953 88.487 28.221 88.6969C28.2619 88.7286 28.312 88.7669 28.3609 88.7721C28.6222 88.7985 28.8334 88.9292 29.0433 89.0704C29.0988 89.1074 29.1714 89.1206 29.2624 89.1563C29.2822 89.0309 29.2994 88.9292 29.3192 88.8078C29.5806 88.9781 29.8498 89.1114 30.0624 89.3397C30.1746 89.4599 30.3264 89.5602 30.4782 89.6235C30.9098 89.8031 31.3612 89.9311 31.8338 89.9219C32.1044 89.9166 32.346 90.009 32.5836 90.1093C32.6694 90.1462 32.7446 90.2241 32.804 90.2994C32.8951 90.4142 33.0073 90.4683 33.1498 90.4749C33.3426 90.4842 33.5366 90.5568 33.7293 90.4406C33.7716 90.4155 33.8653 90.4578 33.9273 90.4842C34.1161 90.566 34.2982 90.665 34.491 90.7389C34.7127 90.8234 34.9384 90.8643 35.147 90.6848C35.2473 90.599 35.3622 90.6083 35.4691 90.6888C35.5047 90.7152 35.5417 90.7416 35.5813 90.764C35.8294 90.9092 35.8981 90.9013 36.0538 90.6611C36.1647 90.4908 36.2518 90.3046 36.3456 90.1225C36.3904 90.0354 36.4102 89.9324 36.4657 89.8532C36.6201 89.6354 36.6531 89.4189 36.504 89.1853C36.4868 89.1576 36.4828 89.1167 36.4828 89.081C36.4934 88.5887 36.4393 88.0937 36.5541 87.6053C36.6241 87.3096 36.5673 87.0165 36.5211 86.7235C36.504 86.6179 36.4868 86.511 36.4802 86.4041C36.4446 85.7507 36.4129 85.0959 36.3786 84.4412C36.3759 84.399 36.3654 84.3567 36.3535 84.2775C36.1383 84.4399 36.1106 84.6643 36.0472 84.8676C35.9839 85.0709 35.9324 85.2781 35.8374 85.4827C35.8242 85.4154 35.8096 85.3481 35.7978 85.2807C35.7859 85.2187 35.7964 85.1408 35.7621 85.0986C35.6064 84.9059 35.6222 84.6801 35.6209 84.4571C35.6182 84.1601 35.514 83.8987 35.3556 83.6505C35.2156 83.4314 35.0968 83.1991 34.9582 82.98C34.8817 82.8598 34.7932 82.745 34.6916 82.646C34.4606 82.4203 34.2877 82.1668 34.2415 81.8395C34.1992 81.5385 34.1385 81.2376 34.1227 80.9353C34.1029 80.5406 33.963 80.2238 33.633 79.9981C33.5894 79.9677 33.5353 79.9321 33.5194 79.8872C33.4125 79.5757 33.237 79.2853 33.2238 78.9434C33.2145 78.6926 33.2053 78.4405 33.1987 78.1897C33.1934 77.9851 33.1366 77.8003 33.002 77.6445C32.7736 77.3805 32.6271 77.0796 32.5862 76.7285C32.573 76.6136 32.5308 76.5014 32.4951 76.3919C32.4304 76.1925 32.3196 76.0381 32.0938 76.0038C32.0595 75.9985 32.008 75.9919 31.9948 75.9681C31.843 75.7107 31.5579 75.5444 31.5236 75.2065C31.4866 74.8422 31.4154 74.4805 31.3573 74.1175C31.3256 73.9182 31.2477 73.7426 31.0999 73.5961C30.8464 73.3453 30.7158 73.0443 30.7065 72.6813C30.7012 72.4781 30.6379 72.2774 30.6062 72.0741C30.5917 71.9857 30.5838 71.8959 30.5838 71.8075C30.5838 71.5171 30.5336 71.2373 30.4254 70.9667C30.296 70.6446 30.1732 70.3185 30.0399 69.9753C30.0122 70.0757 29.9845 70.1707 29.9475 70.3001C29.8327 70.1496 29.7759 70.0031 29.7469 69.8499C29.6347 69.2784 29.5238 68.7055 29.4274 68.1313C29.3892 67.9069 29.3403 67.6944 29.2123 67.5017C29.0724 67.2905 28.9707 67.0621 28.9298 66.8087C28.8744 66.4615 28.7384 66.1394 28.6183 65.8107C28.4361 65.3144 28.283 64.8075 28.114 64.3059C28.089 64.232 28.0599 64.1489 28.0071 64.0961C27.8395 63.9311 27.7642 63.935 27.5662 64.0763C27.363 64.2201 27.2046 64.4287 26.9485 64.496C26.9168 64.5039 26.8772 64.5343 26.8693 64.562C26.7676 64.8973 26.4574 65.0887 26.3083 65.391C26.2779 65.4517 26.2212 65.5045 26.1644 65.5467C26.0364 65.6418 25.9492 65.75 25.9242 65.9177C25.9123 65.9942 25.8423 66.0787 25.775 66.1289C25.5691 66.2846 25.4265 66.4813 25.3011 66.7057C25.1559 66.9671 24.954 67.1875 24.7058 67.3565C24.5421 67.4673 24.451 67.6007 24.4682 67.8039C24.4814 67.9491 24.4774 68.093 24.3032 68.1603C24.2689 68.1735 24.2412 68.2263 24.228 68.2659C24.1554 68.4864 23.9917 68.6131 23.7963 68.7213C23.5706 68.8454 23.3568 68.988 23.1046 69.1424C23.1931 69.2744 23.2855 69.413 23.3898 69.5688C23.3409 69.6387 23.271 69.7193 23.2234 69.8117C23.1588 69.937 23.0928 70.0677 23.0624 70.205C22.9779 70.5825 22.8934 70.9587 22.6941 71.294C22.5991 71.4537 22.4644 71.5897 22.3588 71.7455C22.2493 71.9078 22.1569 72.0807 22.0526 72.2471C21.9061 72.4807 21.753 72.7117 21.6078 72.9466C21.5484 73.043 21.4705 73.1447 21.4546 73.2503C21.4282 73.4337 21.3477 73.5776 21.2065 73.6806C20.9359 73.8786 20.8276 74.1716 20.7075 74.462C20.6534 74.5927 20.5848 74.7181 20.5227 74.8461C20.499 74.8937 20.462 74.9372 20.4488 74.9874C20.2706 75.65 19.8667 76.1899 19.4971 76.7483C19.3981 76.8974 19.3057 77.0532 19.2384 77.2182C19.1394 77.4624 19.0232 77.6907 18.845 77.8874C18.6906 78.0564 18.6483 78.2465 18.7526 78.4576C18.8371 78.6292 18.8094 78.7745 18.6906 78.9289C18.4714 79.2153 18.288 79.5203 18.2589 79.8978C18.2523 79.9875 18.1758 80.0733 18.1322 80.1605C18.0926 80.2397 18.0187 80.3228 18.0226 80.4007C18.0477 80.8178 17.7639 81.132 17.6742 81.5069C17.5686 81.9464 17.2438 82.2632 17.0538 82.6553C16.9759 82.8176 16.8637 82.8704 16.5482 82.9839C16.6406 83.2229 16.8901 83.3179 17.0155 83.4829C16.9627 83.6928 16.9204 83.8815 16.8676 84.0676C16.8492 84.135 16.8162 84.2023 16.7726 84.2564C16.6472 84.4122 16.605 84.5864 16.6195 84.7831C16.6327 84.96 16.6617 85.1408 16.4822 85.2728C16.4518 85.2952 16.4611 85.4114 16.4901 85.4642C16.5614 85.5936 16.5482 85.7071 16.5126 85.8483C16.4426 86.1334 16.3806 86.4265 16.3713 86.7182C16.374 86.8938 16.4716 87.0812 16.5284 87.2819Z" fill="white"/>
<path d="M71.3295 83.4765C71.4681 83.3035 71.703 83.2085 71.8047 82.9471C71.3427 82.9458 71.2661 82.5511 71.0694 82.2792C71.0074 82.1921 70.9493 82.1023 70.8925 82.0126C70.8503 81.9453 70.8002 81.8793 70.7724 81.8053C70.6814 81.5625 70.5995 81.3156 70.5124 81.0714C70.4939 81.0213 70.482 80.9592 70.4464 80.9262C70.3236 80.8154 70.3382 80.6741 70.3263 80.5302C70.317 80.418 70.2972 80.2913 70.2378 80.2002C70.1428 80.0524 70.0913 79.9006 70.053 79.7316C70.0134 79.56 69.9395 79.3924 69.859 79.2353C69.7785 79.0782 69.6702 78.9343 69.5528 78.7535C69.9356 78.8327 70.218 79.0716 70.5876 79.1786C70.5665 78.8578 70.4517 78.5991 70.2814 78.3681C70.0768 78.0909 69.8366 77.8467 69.5105 77.7133C69.3178 77.6341 69.228 77.4916 69.1435 77.3134C69.0313 77.0718 68.8835 76.8461 68.7462 76.6151C68.6551 76.4607 68.5548 76.3115 68.4624 76.1584C68.3318 75.9445 68.2037 75.7294 68.0757 75.5129C68.044 75.4588 68.011 75.402 67.9978 75.3426C67.9001 74.911 67.644 74.5453 67.4883 74.1375C67.4302 73.9857 67.3101 73.8497 67.1913 73.7322C67.0421 73.5831 66.8982 73.4458 66.889 73.2148C66.8864 73.1488 66.8468 73.0762 66.8045 73.0208C66.563 72.7092 66.3504 72.3832 66.1868 72.0202C66.1115 71.8539 65.9703 71.714 65.8462 71.5727C65.6337 71.3312 65.5109 71.046 65.4225 70.7438C65.3591 70.5299 65.3354 70.3015 65.2575 70.093C65.1875 69.9042 65.0687 69.7326 64.9658 69.5425C65.0463 69.4211 65.1426 69.2759 65.2364 69.1333C64.9803 68.9776 64.7546 68.835 64.5249 68.7017C64.3414 68.5961 64.1843 68.472 64.1157 68.2608C64.1051 68.2278 64.088 68.1816 64.0629 68.1711C63.8609 68.0879 63.8701 67.9123 63.8715 67.7434C63.8728 67.5863 63.8121 67.4715 63.6814 67.3817C63.3646 67.1639 63.1336 66.8722 62.9448 66.5382C62.8683 66.4009 62.7455 66.2848 62.628 66.1792C62.5119 66.0749 62.405 65.9785 62.3891 65.8069C62.3838 65.7449 62.3271 65.6815 62.2835 65.6274C62.17 65.4915 62.0499 65.3608 61.9311 65.2288C61.8202 65.1047 61.7793 64.9212 61.609 64.846C61.5879 64.8367 61.5668 64.8051 61.5641 64.7813C61.5377 64.5477 61.3582 64.4764 61.1787 64.3853C61.0374 64.314 60.9279 64.1833 60.7985 64.0883C60.7233 64.0329 60.6348 63.9933 60.5134 63.9246C60.4395 64.2163 60.3748 64.4724 60.3035 64.7523C60.1728 64.7008 60.0606 64.6572 59.9247 64.6044C59.8362 64.7074 59.7359 64.809 59.6528 64.9239C59.3294 65.3674 59.0627 65.8452 58.8436 66.3481C58.7816 66.4907 58.7604 66.6649 58.771 66.8207C58.7948 67.1679 58.771 67.5203 58.8885 67.8596C58.9598 68.0668 58.9228 68.2714 58.7882 68.4456C58.5809 68.7149 58.4938 69.0159 58.507 69.3511C58.5202 69.6851 58.3922 69.9676 58.1651 70.2026C57.6239 70.7649 57.4022 71.4447 57.3982 72.2103C57.3969 72.3634 57.3903 72.5152 57.3942 72.6683C57.4101 73.1725 57.3731 73.6715 57.29 74.1691C57.2477 74.4252 57.2424 74.6866 57.2174 74.9453C57.2108 75.0153 57.2015 75.0892 57.1738 75.1525C56.9982 75.5459 56.9243 75.9591 56.9507 76.3841C56.9745 76.7801 56.8794 77.1484 56.758 77.5153C56.7554 77.5233 56.7527 77.5338 56.7488 77.5404C56.4821 77.9193 56.3752 78.372 56.1825 78.7852C56.1508 78.8538 56.098 78.9119 56.0267 79.0149C55.896 78.6796 55.9224 78.3826 55.9528 78.0262C55.8221 78.2546 55.7192 78.4288 55.6228 78.607C55.6043 78.6426 55.6136 78.6941 55.6136 78.7377C55.6149 78.9977 55.603 79.2577 55.6215 79.5165C55.6677 80.1342 55.6149 80.7507 55.5977 81.3671C55.5924 81.5638 55.6056 81.7618 55.6149 81.9585C55.6241 82.1604 55.5502 82.3373 55.467 82.5525C55.2532 82.1974 55.1885 81.7987 54.9021 81.5176C54.7846 81.573 54.7542 81.672 54.7371 81.7803C54.7199 81.8872 54.7173 81.9994 54.679 82.0971C54.6222 82.2449 54.5642 82.4059 54.4625 82.5208C54.1312 82.8943 53.9226 83.3286 53.8302 83.8078C53.7603 84.1708 53.6098 84.4691 53.3432 84.712C53.1557 84.8823 53.033 85.0763 53.0026 85.3324C52.9881 85.4552 52.9406 85.5753 52.8917 85.6901C52.7716 85.9752 52.7069 86.2709 52.6937 86.5785C52.6726 87.0827 52.5736 87.5566 52.2225 87.9486C52.0509 88.14 52.0337 88.3869 51.9968 88.6271C51.9492 88.936 51.8872 89.2422 51.8331 89.5511C51.8238 89.6013 51.8014 89.6646 51.8212 89.7029C51.9954 90.0342 52.0641 90.4157 52.3202 90.7101C52.4522 90.8619 52.4733 90.8856 52.6515 90.8143C52.6845 90.8011 52.7214 90.7893 52.7478 90.7668C52.9353 90.6111 53.1214 90.5503 53.3102 90.7655C53.4778 90.7602 53.6534 90.7866 53.8091 90.7417C54.0137 90.685 54.2051 90.5754 54.3992 90.483C54.4982 90.4368 54.5826 90.4315 54.7001 90.4566C55.0169 90.5226 55.3337 90.5371 55.5832 90.2454C55.7878 90.0065 56.0927 89.9352 56.3858 89.9247C56.8491 89.9075 57.2926 89.827 57.7269 89.6739C57.9579 89.592 58.1546 89.4693 58.3341 89.2937C58.5294 89.1023 58.771 88.9584 59.0258 88.771C59.0456 88.9135 59.0601 89.0125 59.0799 89.1538C59.2013 89.097 59.3003 89.0482 59.402 89.0033C59.5722 88.9281 59.7452 88.8581 59.9141 88.7802C60.0092 88.7367 60.1081 88.6918 60.1913 88.6297C60.4078 88.47 60.6203 88.305 60.8262 88.1321C60.9688 88.012 61.0982 87.8747 61.2315 87.7427C61.3133 87.6609 61.3872 87.5685 61.4744 87.4919C61.6473 87.3414 61.8255 87.2002 62.0037 87.0537C62.0076 87.0867 62.0142 87.1514 62.0235 87.2279C62.1977 87.2147 62.3126 87.1197 62.4261 86.9982C62.5713 86.8438 62.7442 86.7144 62.8986 86.5666C62.9884 86.4821 63.0927 86.3976 63.1415 86.2907C63.2102 86.1429 63.3065 86.0346 63.4438 85.962C63.7527 85.797 63.9995 85.5713 64.1751 85.2308C64.3454 85.4657 64.2662 85.7099 64.278 85.9369C64.2899 86.1679 64.2807 86.4003 64.2807 86.6616C64.4813 86.6101 64.6542 86.5745 64.8219 86.5204C64.872 86.5032 64.9367 86.4412 64.9433 86.3923C65.0001 86.032 65.2839 85.8934 65.565 85.7865C65.8317 85.6848 66.0706 85.5687 66.2554 85.3443C66.3082 85.2809 66.4006 85.2321 66.4824 85.2136C66.8415 85.1291 67.1292 84.9087 67.4315 84.7212C67.5134 84.6711 67.5582 84.5536 67.6058 84.4599C67.6691 84.3345 67.718 84.2025 67.7919 84.0282C67.8473 84.1616 67.8816 84.2447 67.9397 84.3833C68.0163 84.2394 68.0691 84.1418 68.1272 84.0309C68.1628 84.0718 68.1984 84.114 68.2433 84.1681C68.3199 84.1114 68.3912 84.0586 68.4624 84.0098C68.4981 83.986 68.5601 83.9411 68.5746 83.9517C68.7251 84.0665 68.766 83.9055 68.8545 83.8553C69.1224 83.7009 69.3785 83.5213 69.6504 83.3775C69.9923 83.1966 70.0068 83.2243 70.2088 82.8481C70.2616 83.0567 70.3183 83.2217 70.3408 83.3907C70.3593 83.5306 70.3778 83.6534 70.5084 83.7352C70.6008 83.7946 70.6299 83.8896 70.6074 83.9952C70.5731 84.1602 70.618 84.3094 70.6615 84.4678C70.7077 84.6381 70.7038 84.8229 70.7038 85.0011C70.7038 85.0486 70.6431 85.1014 70.6008 85.1436C70.482 85.2637 70.3751 85.4089 70.2339 85.4895C70.0306 85.6056 69.8748 85.7693 69.7032 85.9185C69.6795 85.9396 69.6359 85.9422 69.6016 85.9475C69.4379 85.9726 69.3389 86.0742 69.2452 86.2062C69.1119 86.3923 69.0102 86.6167 68.7608 86.6893C68.6261 86.9679 68.3318 87.0457 68.1074 87.2107C68.0862 87.2266 68.0625 87.2438 68.048 87.2662C67.8922 87.4998 67.6572 87.6173 67.4144 87.7414C67.2441 87.8285 67.12 88.0014 66.9603 88.1123C66.8547 88.1862 66.7214 88.2535 66.5973 88.2628C66.0812 88.2984 65.6918 88.5941 65.3103 88.8871C65.1294 89.0257 64.9486 89.1657 64.7361 89.2211C64.4325 89.3003 64.1698 89.4363 63.9256 89.6633C63.9137 89.5801 63.9058 89.5247 63.8952 89.4561C63.3897 89.7716 62.8986 90.0778 62.3548 90.4157C62.4538 90.1781 62.5343 89.9867 62.6135 89.794C62.599 89.7861 62.5845 89.7768 62.57 89.7689C62.5026 89.856 62.4208 89.9365 62.372 90.0329C62.1674 90.4355 61.8242 90.7101 61.4915 90.9926C61.4321 91.0427 61.3529 91.0731 61.2777 91.0981C61.143 91.1443 60.9926 91.1576 60.8711 91.2249C60.5741 91.3899 60.2454 91.4308 59.922 91.4915C59.8521 91.5047 59.7795 91.4941 59.7082 91.5007C59.559 91.5166 59.4099 91.5364 59.2607 91.5562C59.2172 91.5628 59.1736 91.5918 59.1314 91.5892C58.7829 91.5747 58.5083 91.7238 58.2694 91.9931C58.1453 91.803 57.9948 91.8505 57.8523 91.939C57.7229 92.0195 57.6015 92.1132 57.4853 92.2109C57.3771 92.302 57.2596 92.3469 57.117 92.3442C56.8979 92.3403 56.6933 92.3957 56.5032 92.5119C56.2168 92.6874 55.904 92.7046 55.5713 92.6901C55.207 92.6742 54.8387 92.7178 54.4731 92.7495C54.1312 92.7785 53.8223 92.896 53.5082 93.0491C53.1663 93.2167 52.8561 93.4108 52.5525 93.6352C52.3769 93.7646 52.1538 93.8345 51.9453 93.915C51.7037 94.0074 51.5651 94.1553 51.5414 94.4259C51.511 94.7889 51.3843 95.1228 51.1678 95.4198C51.0239 95.6165 51.0015 95.8528 50.9764 96.0825C50.946 96.3583 50.9606 96.6395 50.917 96.9128C50.8629 97.256 50.785 97.5952 50.7982 97.9463C50.7995 97.9793 50.785 98.0334 50.7626 98.0413C50.5962 98.106 50.62 98.275 50.5566 98.3964C50.4867 98.5297 50.4075 98.6591 50.3336 98.7911C50.2385 98.9614 50.1382 99.129 50.0524 99.3046C49.9851 99.4405 49.9521 99.595 49.8782 99.727C49.6392 100.153 49.4663 100.603 49.3779 101.083C49.3422 101.277 49.2551 101.409 49.069 101.485C48.9792 101.522 48.9053 101.595 48.8195 101.642C48.7139 101.703 48.6704 101.793 48.6717 101.909C48.6717 102.173 48.6136 102.397 48.3509 102.536C48.2453 102.591 48.1912 102.713 48.1701 102.85C48.145 103.014 48.0988 103.185 48.0183 103.329C47.786 103.753 47.5233 104.16 47.2923 104.583C47.1682 104.81 47.0864 105.06 46.9781 105.296C46.9372 105.386 46.928 105.509 46.7722 105.54C46.7656 105.481 46.7564 105.432 46.755 105.384C46.7511 104.9 46.7484 104.416 46.7458 103.931C46.7458 103.888 46.7392 103.837 46.755 103.799C46.8646 103.533 46.8316 103.251 46.8488 102.976C46.8804 102.484 46.9425 101.995 46.961 101.502C46.9847 100.848 47.0032 100.192 46.9742 99.5382C46.9583 99.1766 46.8382 98.8188 46.7696 98.4585C46.7458 98.3357 46.7313 98.2116 46.726 98.0862C46.7075 97.6916 46.697 97.2982 46.6798 96.9035C46.6613 96.4771 46.5293 96.0759 46.4105 95.6719C46.3736 95.5452 46.3406 95.4093 46.3406 95.2786C46.3392 94.3625 46.3472 93.4477 46.3538 92.5317C46.3551 92.4247 46.3643 92.3165 46.3802 92.2109C46.4778 91.6037 46.4792 90.9952 46.4092 90.3867C46.3749 90.0857 46.4039 89.8138 46.5729 89.5392C46.7643 89.2264 46.8804 88.8713 46.92 88.5004C46.9293 88.408 46.9121 88.313 46.9042 88.1876C46.8012 88.243 46.7352 88.28 46.6679 88.3169C46.6679 87.9777 46.6666 87.649 46.6679 87.319C46.6706 86.9005 46.5887 86.5019 46.429 86.1138C46.3788 85.9924 46.3524 85.8538 46.3511 85.7231C46.3458 84.8347 46.3406 83.9451 46.3551 83.0567C46.3604 82.7439 46.4277 82.4337 46.4541 82.1208C46.5082 81.4951 46.5491 80.8681 46.4594 80.2411C46.4422 80.1184 46.4501 79.9903 46.4528 79.8649C46.4633 79.4241 46.4211 78.9885 46.3643 78.5516C46.3287 78.2796 46.3524 77.9958 46.3868 77.7226C46.4171 77.481 46.4052 77.2619 46.2891 77.0454C46.1294 76.7471 46.0554 76.4277 46.0673 76.0871C46.0766 75.8178 46.0541 75.5472 46.0739 75.2793C46.1201 74.6536 46.1663 74.0279 46.1426 73.3996C46.1412 73.3613 46.165 73.3217 46.1861 73.2531C46.2706 73.3534 46.3353 73.4299 46.4435 73.5593C46.4435 73.4128 46.4435 73.327 46.4435 73.2425C46.4448 72.7937 46.4422 72.3449 46.4501 71.8961C46.4528 71.7364 46.4792 71.5753 46.5003 71.4169C46.5544 71.0064 46.462 70.6355 46.2231 70.2963C46.1571 70.2025 46.095 70.0983 46.0673 69.99C46.037 69.8699 46.0554 69.7445 46.1412 69.6336C46.2521 69.4924 46.2785 69.3313 46.2482 69.1505C46.2125 68.938 46.2218 68.7347 46.33 68.5248C46.3894 68.4073 46.3736 68.2133 46.3194 68.0853C46.2402 67.8965 46.2204 67.7051 46.1993 67.5111C46.169 67.2391 46.1003 66.9989 45.8007 66.9039C45.699 66.8722 45.6779 66.7864 45.6872 66.6861C45.7307 66.2412 45.7664 65.7951 45.8192 65.3502C45.831 65.2499 45.9102 65.1601 45.9498 65.0625C45.9947 64.9489 46.0409 64.8341 46.0686 64.7153C46.1175 64.5067 46.1148 64.2771 46.2033 64.0883C46.2904 63.9009 46.4607 63.7517 46.6019 63.592C46.66 63.526 46.7366 63.4771 46.8316 63.3979C46.5465 63.2963 46.3049 63.3716 46.0317 63.489C46.0317 63.3636 46.0343 63.2686 46.0317 63.1735C46.0132 62.5373 45.9908 61.9011 45.9749 61.2648C45.9657 60.9322 45.971 60.6022 46.1043 60.2854C46.2072 60.0399 46.165 59.7851 46.0884 59.5462C45.9657 59.1594 45.8667 58.7714 45.8376 58.3661C45.8324 58.2869 45.8139 58.2037 45.7809 58.1311C45.6462 57.8275 45.6264 57.5094 45.6344 57.1834C45.6423 56.8877 45.633 56.5907 45.6291 56.295C45.6251 56.0667 45.5723 55.8568 45.4509 55.6561C45.2582 55.3367 45.1631 54.9816 45.1341 54.6094C45.1248 54.484 45.1248 54.3573 45.1024 54.2345C45.0364 53.8649 45.1156 53.527 45.2727 53.1917C45.3545 53.0188 45.3783 52.8168 45.4245 52.6281C45.4482 52.533 45.4456 52.4287 45.4839 52.3403C45.5829 52.1119 45.608 51.8743 45.604 51.6301C45.6014 51.5219 45.5908 51.411 45.6119 51.3081C45.7017 50.8566 45.6106 50.4303 45.4205 50.0263C45.2912 49.7505 45.3057 49.4825 45.4139 49.2211C45.5763 48.8291 45.6146 48.4265 45.6014 48.0094C45.5882 47.6055 45.5908 47.2015 45.5895 46.7976C45.5895 46.5957 45.5525 46.4043 45.4469 46.23C45.2753 45.9449 45.2014 45.6387 45.2212 45.3047C45.2397 44.9972 45.1935 44.7028 45.0654 44.4137C44.9955 44.2553 44.9942 44.0652 44.9744 43.8883C44.9638 43.7907 44.9836 43.6903 44.977 43.5927C44.9506 43.165 45.0707 42.7743 45.2766 42.4086C45.5459 41.9308 45.6502 41.4239 45.5895 40.8827C45.571 40.7177 45.6251 40.6068 45.7703 40.5316C45.9129 40.4563 46.0515 40.3758 46.2297 40.2781C46.1465 40.1963 46.0818 40.129 46.0132 40.0656C45.7914 39.861 45.6687 39.6287 45.6872 39.3093C45.7122 38.8882 45.703 38.4658 45.6898 38.0434C45.6779 37.6672 45.6357 37.2923 45.6146 36.9161C45.6027 36.7023 45.5948 36.4858 45.604 36.2719C45.6172 35.9683 45.6423 35.6634 45.6713 35.3611C45.6924 35.1394 45.7162 34.915 45.7624 34.6972C45.8033 34.5031 45.7994 34.3249 45.7056 34.1494C45.6726 34.0873 45.6528 34.0161 45.6278 33.9501C45.571 33.7996 45.6 33.6755 45.7202 33.5607C45.8561 33.4313 45.9828 33.2901 46.1016 33.1435C46.2482 32.964 46.2732 32.8254 46.1162 32.6591C45.8456 32.3727 45.8007 32.0413 45.7888 31.6717C45.7809 31.446 45.6792 31.2229 45.6225 30.9985C45.5736 30.8098 45.5288 30.6184 45.4799 30.4296C45.4311 30.2395 45.3928 30.0455 45.3242 29.8633C45.2146 29.5716 45.2793 29.3472 45.5631 29.2245C45.7716 29.1334 45.8601 28.9921 45.8786 28.7717C45.9063 28.4496 45.9604 28.1328 46.132 27.8451C46.1782 27.7659 46.1874 27.6563 46.1901 27.5613C46.198 27.2009 46.2204 26.8485 46.3485 26.5039C46.4409 26.2571 46.4409 25.9918 46.3564 25.7357C46.2495 25.4097 46.2389 25.0863 46.3326 24.7563C46.3617 24.6533 46.3551 24.5411 46.3828 24.4381C46.4237 24.285 46.462 24.1266 46.5346 23.9867C46.6072 23.8481 46.6719 23.7135 46.66 23.5551C46.6257 23.134 46.8659 22.8779 47.2038 22.7063C47.382 22.6152 47.456 22.5162 47.4414 22.3169C47.4216 22.0305 47.4414 21.7414 47.4177 21.4563C47.4045 21.3005 47.3345 21.15 47.287 20.9969C47.2606 20.9124 47.2104 20.8332 47.2012 20.7474C47.1827 20.5785 47.2038 20.4029 47.1735 20.2379C47.1431 20.0769 47.0679 19.9251 47.0058 19.7535C47.2646 19.735 47.5206 19.7165 47.811 19.6967C47.7582 19.6188 47.7252 19.5713 47.6936 19.5238C47.6144 19.405 47.5391 19.2835 47.4546 19.1687C47.3226 18.9892 47.1946 18.8044 47.0441 18.642C46.9359 18.5259 46.8804 18.4203 46.9187 18.2605C47.0177 17.854 46.9742 17.4395 46.9794 17.0277C46.9834 16.6528 46.862 16.3241 46.6547 16.0231C46.5768 15.9109 46.5689 15.8001 46.5729 15.6681C46.5848 15.1942 46.594 14.719 46.5808 14.2451C46.5729 13.9851 46.5425 13.9679 46.3313 13.7871C46.4567 13.4689 46.7181 13.2459 46.9742 12.9383C46.8078 12.9594 46.6983 12.97 46.59 12.9871C46.4739 13.0056 46.359 13.0333 46.2363 12.9198C46.227 12.4222 46.2046 11.9021 46.2112 11.3833C46.2152 11.0824 46.1439 10.8171 45.9828 10.5689C45.9102 10.4567 45.8231 10.3471 45.901 10.2006C45.905 10.194 45.9036 10.1821 45.901 10.1742C45.8007 9.70299 45.9234 9.25551 46 8.79351C46.0713 8.36451 46.0356 7.91571 46.0343 7.47615C46.033 7.28871 46.0673 7.12371 46.1835 6.97455C46.2376 6.90459 46.2759 6.82143 46.3274 6.74751C46.4132 6.62343 46.4514 6.49143 46.4211 6.34095C46.3709 6.09543 46.4079 5.86971 46.5108 5.63607C46.5848 5.47107 46.6059 5.27043 46.6032 5.08695C46.5993 4.77807 46.6706 4.50483 46.8501 4.25271C46.9108 4.16691 46.9464 4.06131 46.9887 3.96363C47.2289 3.40395 47.4546 2.83767 47.8348 2.35059C47.9906 2.15127 48.1252 1.94271 48.182 1.68927C48.2031 1.59555 48.2546 1.50447 48.31 1.42527C48.4103 1.28007 48.5238 1.14279 48.6638 1.01343C48.6374 1.13355 48.6176 1.25499 48.5819 1.37115C48.5331 1.53351 48.4763 1.69587 48.4156 1.85427C48.1701 2.49579 48.1846 3.14787 48.2942 3.81447C48.3456 4.12995 48.3496 4.45731 48.3338 4.77675C48.3166 5.14107 48.3417 5.49351 48.4737 5.83539C48.4935 5.88555 48.5146 5.93571 48.5238 5.98851C48.603 6.44391 48.9291 6.66303 49.3198 6.81747C49.4399 6.86499 49.5416 6.91779 49.5983 7.04847C49.6326 7.12635 49.7132 7.18443 49.7752 7.24779C49.9072 7.38243 50.0339 7.52235 50.1752 7.64511C50.261 7.71903 50.3626 7.79163 50.4695 7.82067C50.6873 7.88007 50.7744 8.02395 50.8008 8.22723C50.8035 8.24439 50.8061 8.26287 50.8074 8.28003C50.8233 8.66019 51.0384 8.88723 51.3764 9.01923C51.4437 9.04563 51.511 9.06939 51.581 9.08391C51.7763 9.12483 51.9242 9.22515 52.0245 9.40071C52.1472 9.61455 52.3373 9.73863 52.5789 9.78879C52.7888 9.83235 52.9986 9.87855 53.2046 9.93663C53.2772 9.95643 53.3366 10.0185 53.4039 10.0554C53.4884 10.1016 53.5715 10.1689 53.6613 10.1821C53.8989 10.2178 54.1418 10.2481 54.382 10.2455C54.5734 10.2429 54.7133 10.2891 54.8057 10.4593C54.8176 10.4805 54.8453 10.4937 54.8796 10.5227C54.9311 10.4369 54.98 10.3564 55.0288 10.2759C55.1568 10.3194 55.2796 10.3788 55.4076 10.3999C55.508 10.4171 55.6241 10.4105 55.7192 10.3749C55.9541 10.2877 56.1904 10.2627 56.4306 10.3181C56.622 10.363 56.8042 10.3617 56.985 10.2917C57.1025 10.2455 57.2081 10.2521 57.3164 10.3221C57.5408 10.4659 57.7916 10.5214 58.0569 10.5319C58.2417 10.5399 58.437 10.5214 58.5981 10.6481C58.4159 10.8025 58.2285 10.9477 58.0582 11.1114C57.9566 11.2078 57.8549 11.3213 57.8034 11.448C57.7335 11.6157 57.6186 11.6777 57.4589 11.7054C57.3903 11.7173 57.3164 11.7318 57.257 11.7648C56.9837 11.9193 56.9072 12.2255 57.0537 12.5608C57.158 12.7984 57.3626 12.9555 57.55 13.1178C57.62 13.1772 57.7533 13.1759 57.8589 13.1785C58.0569 13.1838 58.2232 13.2485 58.371 13.3805C58.4582 13.4584 58.5532 13.527 58.6522 13.5891C58.7974 13.6801 58.9452 13.7065 59.0799 13.5495C59.1446 13.6089 59.2026 13.6643 59.2634 13.7171C59.4099 13.8451 59.5815 13.9111 59.7742 13.9309C59.889 13.9428 60.0026 13.9719 60.1161 13.989C60.2296 14.0062 60.3431 14.0247 60.458 14.0313C60.8144 14.0511 61.1681 14.0709 61.4994 14.2359C61.6737 14.3217 61.8651 14.3863 62.0552 14.4286C62.2452 14.4708 62.3588 14.6094 62.5026 14.7137C62.8208 14.946 63.0333 15.2628 63.2326 15.5928C63.2722 15.6588 63.3329 15.7116 63.424 15.7473C63.3448 15.5651 63.2669 15.3829 63.1877 15.2008C63.2009 15.1889 63.2141 15.177 63.2286 15.1651C63.7157 15.4674 64.2015 15.7684 64.7057 16.0799C64.7057 16.0073 64.7057 15.9505 64.7057 15.8925C64.7282 15.8925 64.748 15.8859 64.7572 15.8938C64.9684 16.0773 65.1928 16.2251 65.4779 16.2911C65.7116 16.3452 65.9109 16.4878 66.1062 16.6383C66.5022 16.9432 66.9022 17.256 67.4434 17.2719C67.6757 17.2785 67.8302 17.454 67.9846 17.5992C68.1034 17.7114 68.2222 17.8117 68.3753 17.8738C68.5337 17.9371 68.6842 18.019 68.77 18.1827C68.7898 18.2209 68.8254 18.2553 68.8637 18.2777C69.0142 18.3701 69.1766 18.4453 69.3204 18.5483C69.463 18.6486 69.5039 18.8466 69.6966 18.9153C69.8643 18.976 69.9237 19.1568 70.0095 19.339C69.9421 19.3931 69.8814 19.4591 69.8075 19.4974C69.6425 19.5832 69.5514 19.7073 69.5211 19.8921C69.5039 19.995 69.4458 20.0914 69.4023 20.1891C69.3363 20.3409 69.1884 20.3607 69.0168 20.3897C69.1132 20.5164 69.1924 20.6207 69.2954 20.754C69.1858 20.9718 69.0696 21.2041 68.9416 21.4589C68.8677 21.3573 68.8083 21.2767 68.7317 21.1711C68.6868 21.2873 68.6552 21.3678 68.6037 21.4998C68.5377 21.3573 68.4796 21.253 68.4413 21.1421C68.3727 20.9481 68.2592 20.8108 68.073 20.7039C67.7998 20.5481 67.5358 20.3857 67.2282 20.3013C67.1569 20.2815 67.0844 20.2247 67.0355 20.1653C66.8692 19.962 66.6554 19.8485 66.4112 19.7653C66.2699 19.7178 66.134 19.6373 66.0112 19.5502C65.8884 19.4631 65.7723 19.3588 65.7617 19.1859C65.7551 19.0842 65.6878 19.0248 65.5928 18.9997C65.4383 18.9588 65.2826 18.9219 65.107 18.8783C65.0978 18.9588 65.0845 19.0248 65.0845 19.0921C65.0832 19.3707 65.0898 19.6492 65.0845 19.9264C65.0819 20.0399 65.0568 20.1534 65.0357 20.3171C64.9684 20.2419 64.9328 20.2102 64.9064 20.1706C64.7559 19.9409 64.5684 19.7548 64.3256 19.6215C64.15 19.5264 64.0008 19.4103 63.9269 19.2057C63.8939 19.1146 63.7896 19.0473 63.7118 18.976C63.5481 18.8255 63.3712 18.6869 63.2194 18.5259C63.1098 18.411 62.9937 18.3318 62.826 18.2975C62.8208 18.378 62.8155 18.444 62.8128 18.4889C62.6188 18.3265 62.4208 18.1668 62.2268 18.0005C62.1594 17.9424 62.1053 17.8685 62.042 17.8065C61.8954 17.6626 61.7502 17.5174 61.5958 17.3827C61.4955 17.2943 61.3767 17.2257 61.2724 17.1425C61.0374 16.9537 60.8328 16.7227 60.4976 16.695C60.3933 16.6858 60.2969 16.5841 60.194 16.5287C60.1029 16.4799 60.0078 16.4363 59.8851 16.3743C59.8679 16.5142 59.856 16.6158 59.8402 16.7478C59.5775 16.5696 59.2937 16.4495 59.0984 16.2066C58.9056 15.9664 58.6601 15.9228 58.375 15.9783C58.1744 16.0179 57.9711 16.0575 57.7665 16.0641C57.5513 16.072 57.3824 16.1512 57.2504 16.3096C57.1144 16.4719 56.9626 16.6013 56.7422 16.6343C56.6828 16.6435 56.63 16.6897 56.5719 16.7135C56.4016 16.7821 56.3396 16.8996 56.3369 17.0884C56.3237 17.8777 56.2907 18.6671 56.2722 19.4578C56.2643 19.7653 56.2208 20.0571 56.102 20.3475C55.9026 20.8385 55.871 21.3599 55.9304 21.8839C55.9449 22.0107 56.0043 22.1453 56.0795 22.2496C56.1706 22.375 56.201 22.4977 56.2036 22.6482C56.2089 22.9083 56.2564 23.1683 56.2445 23.4257C56.2168 24.0171 56.1785 24.6084 56.1178 25.1971C56.0742 25.6222 56.0465 26.0367 56.2234 26.4406C56.2551 26.5145 56.2775 26.5937 56.2934 26.6716C56.358 27.0187 56.4742 27.3461 56.6326 27.6035C56.5917 27.8266 56.5521 28.0061 56.5283 28.1869C56.4729 28.6133 56.4148 29.041 56.3752 29.4687C56.3409 29.8435 56.3409 30.2211 56.3092 30.5973C56.292 30.8005 56.2392 31.0012 56.2036 31.2018C56.1574 31.4658 56.0914 31.7285 56.0703 31.9938C56.0478 32.2882 56.0637 32.5865 56.0703 32.8822C56.0729 33.0234 56.0676 33.1673 56.1812 33.2861C56.2168 33.3244 56.2208 33.4036 56.2208 33.463C56.2194 34.2431 56.2326 35.0245 56.2049 35.8047C56.1851 36.3591 56.0967 36.9108 56.0558 37.4652C56.0294 37.8322 56.0333 38.2005 56.0254 38.5687C56.0228 38.6559 56.0254 38.7443 56.0254 38.8618C55.7759 38.7879 55.7931 38.4381 55.4908 38.446C55.7535 38.7417 55.7139 39.1033 55.772 39.4373C55.797 39.5825 55.8168 39.7198 55.9185 39.8307C56.0082 39.9297 56.0465 40.0445 56.0333 40.1765C56.032 40.1857 56.032 40.195 56.0333 40.2029C56.0967 40.6253 55.9568 41.0134 55.8406 41.4067C55.764 41.6655 55.7073 41.9255 55.8168 42.1948C55.8446 42.2621 55.8155 42.3532 55.8076 42.4324C55.797 42.5393 55.772 42.6449 55.768 42.7518C55.7456 43.4356 55.7627 43.4686 56.127 44.0916C56.2392 44.283 56.3132 44.4955 56.399 44.7015C56.4887 44.9166 56.5679 45.1357 56.663 45.3483C56.7131 45.4605 56.7884 45.5621 56.89 45.6545C56.8794 45.6017 56.8715 45.5476 56.8596 45.4948C56.7686 45.1107 56.6788 44.7265 56.5851 44.3438C56.5508 44.2038 56.5204 44.0613 56.4636 43.9306C56.3858 43.7511 56.4174 43.6019 56.5349 43.4567C56.6194 43.3524 56.6907 43.2363 56.7857 43.1425C56.8346 43.0937 56.9204 43.0673 56.993 43.0607C57.1421 43.0488 57.2451 42.9855 57.315 42.8548C57.3863 42.7201 57.4893 42.5974 57.5368 42.4561C57.616 42.2225 57.785 42.0958 57.9896 41.9928C58.1691 41.9031 58.214 41.9097 58.3222 42.0707C58.3605 42.1288 58.3961 42.1882 58.4608 42.2911C58.4872 42.1816 58.511 42.1182 58.5176 42.0522C58.5374 41.8384 58.5492 41.6232 58.5677 41.4081C58.5783 41.2879 58.6007 41.1797 58.7512 41.1493C58.9241 41.1137 58.9822 40.9843 58.9558 40.8246C58.8911 40.4154 59.0086 40.0894 59.3439 39.832C59.4231 39.7713 59.4666 39.634 59.4825 39.5257C59.5115 39.3317 59.5155 39.1324 59.5155 38.9357C59.5142 38.7601 59.5709 38.6308 59.7122 38.5199C59.8653 38.3998 59.9946 38.2506 60.1385 38.116C60.1768 38.0803 60.223 38.0526 60.2679 38.0236C60.3682 37.9576 60.4711 37.8929 60.5873 37.819C60.6084 37.8427 60.648 37.885 60.689 37.9299C60.6956 37.9153 60.7088 37.9021 60.7061 37.8916C60.6929 37.8309 60.685 37.7662 60.6599 37.7094C60.6032 37.5814 60.6414 37.4784 60.7431 37.4005C60.8685 37.3042 60.9147 37.1788 60.92 37.027C60.9292 36.796 61.0176 36.5914 61.1496 36.4039C61.1655 36.3815 61.1879 36.363 61.1958 36.3379C61.2948 36.0541 61.4717 35.8575 61.7661 35.7558C61.9113 35.7057 61.9614 35.5459 61.9773 35.4007C62.0156 35.0721 62.1674 34.8292 62.467 34.6787C62.5119 34.6563 62.5581 34.614 62.5805 34.5691C62.6492 34.4345 62.7099 34.2959 62.7693 34.1573C62.8802 33.8973 62.8736 33.6517 62.6307 33.4247C62.7495 33.3099 62.8379 33.1937 62.9528 33.1185C63.1164 33.0115 63.23 32.8716 63.3316 32.7093C63.523 32.407 63.7619 32.143 64.0378 31.9133C64.0655 31.8909 64.0972 31.8684 64.1157 31.8394C64.2675 31.5886 64.4245 31.3404 64.5645 31.083C64.7242 30.7926 64.8588 30.489 65.0238 30.2026C65.0832 30.0996 65.1888 30.0112 65.2918 29.9452C65.829 29.6007 66.1141 29.0872 66.2976 28.4971C66.497 27.8556 66.7121 27.2181 66.9167 26.5779C66.9735 26.3997 67.0183 26.2162 67.0632 26.034C67.1213 25.7951 67.2084 25.576 67.4064 25.411C67.6203 25.2315 67.6493 24.9609 67.7193 24.7114C67.7721 24.5226 67.8328 24.3352 67.8975 24.1504C67.9555 23.9867 68.0704 23.8666 68.1892 23.7399C68.3397 23.5801 68.4743 23.3927 68.5707 23.1947C68.7581 22.8079 68.9825 22.4634 69.3548 22.2285C69.4313 22.1796 69.4934 22.0925 69.5343 22.0093C69.6082 21.8575 69.6597 21.6952 69.7283 21.5183C70.0319 21.8113 70.2444 22.1677 70.6418 22.3829C70.6246 22.3024 70.6193 22.2483 70.6022 22.1981C70.4504 21.7863 70.3025 21.3718 70.1402 20.9639C70.0438 20.7223 70.1336 20.5534 70.2999 20.391C70.4015 20.292 70.4952 20.1825 70.5837 20.0703C70.8411 19.7442 70.8569 19.3627 70.8411 18.9707C70.8305 18.7199 70.8384 18.4691 70.8477 18.2183C70.853 18.0929 70.8596 17.9767 70.8081 17.8527C70.7764 17.7774 70.8147 17.6665 70.8371 17.5755C70.849 17.5279 70.8926 17.4831 70.9308 17.4461C71.3796 17.025 71.3414 16.4983 71.2252 15.973C71.1777 15.7565 71.1764 15.5677 71.3334 15.4278C71.6463 15.148 71.6238 14.7969 71.5922 14.4352C71.5882 14.3903 71.5856 14.3401 71.5644 14.3045C71.3612 13.9771 71.3493 13.5864 71.2133 13.2379C71.0932 12.9304 70.9454 12.6347 70.8041 12.3205C71.0589 12.3601 71.2938 12.4552 71.5064 12.6043C71.6238 12.6862 71.736 12.7773 71.8443 12.871C71.9776 12.9845 72.1175 13.0756 72.3036 13.0558C72.4145 13.0439 72.4911 13.0954 72.5478 13.1878C72.6482 13.3528 72.792 13.4452 72.9914 13.4425C73.0349 13.4425 73.089 13.4478 73.1207 13.4729C73.3213 13.6326 73.5563 13.6115 73.7886 13.6168C74.0883 13.6234 74.3536 13.7422 74.5661 13.9415C74.7206 14.0867 74.9001 14.1619 75.0915 14.1831C75.304 14.2068 75.4162 14.3151 75.4769 14.5012C75.5337 14.6741 75.6155 14.8272 75.7449 14.9605C75.8161 15.0345 75.8703 15.1374 75.9019 15.2377C75.9389 15.3579 76.0062 15.4107 76.1264 15.4344C76.2914 15.4674 76.4511 15.5295 76.6161 15.5638C76.7375 15.5889 76.8642 15.5889 76.9896 15.5981C77.2035 15.6139 77.4226 15.6087 77.6034 15.7591C77.6721 15.7327 77.7473 15.7182 77.8041 15.6773C77.9678 15.5625 78.1512 15.5281 78.3413 15.5387C78.6053 15.5545 78.8139 15.4687 78.967 15.2483C79.0898 15.0714 79.2666 15.012 79.4765 15.0001C79.7709 14.9843 80.0652 14.946 80.3596 14.917C80.4045 14.913 80.4494 14.9011 80.4929 14.9051C80.9087 14.9434 80.9404 14.946 81.0288 15.3275C81.0354 15.3539 81.0407 15.3803 81.0473 15.4054C81.1186 15.6681 81.1951 15.7209 81.4222 15.5783C81.7786 15.3539 82.1931 15.3539 82.5745 15.2285C82.9059 15.1203 83.2385 15.0147 83.5685 14.9038C83.7058 14.8576 83.8325 14.8668 83.946 14.9579C84.0437 15.0358 84.1361 15.1189 84.2417 15.2087C84.6126 14.9698 84.7631 14.5975 84.8383 14.1963C84.9057 13.8359 84.9255 13.4663 84.9651 13.1007C85.0192 12.6149 84.9532 12.1423 84.7063 11.7213C84.5189 11.4005 84.2747 11.1127 84.0793 10.8421C84.7024 11.415 85.2885 12.0671 85.5973 12.9211C85.7122 13.2393 85.8125 13.5666 85.8798 13.8993C85.9247 14.1237 85.9128 14.3626 85.9023 14.5949C85.8891 14.8417 85.8534 15.0833 85.7795 15.3288C85.6831 15.6496 85.7755 15.9862 85.9498 16.2792C85.9894 16.3465 86.0884 16.4007 86.1689 16.4191C86.5834 16.5168 87.0005 16.596 87.3477 16.2409C87.3516 16.237 87.3648 16.2436 87.3925 16.2502C87.3635 16.5907 87.2434 16.8811 86.9609 17.0963C86.5504 17.4091 86.26 17.8012 86.1174 18.3067C86.0422 18.5721 85.8284 18.7503 85.6172 18.9205C85.4997 19.0156 85.3888 19.1159 85.2753 19.2149C85.2621 19.2268 85.2541 19.2453 85.2383 19.2545C84.8133 19.4868 84.5717 19.9224 84.1849 20.2009C83.9487 20.3712 83.748 20.5719 83.6728 20.8939C83.6187 21.1276 83.455 21.3427 83.3111 21.546C83.1659 21.7493 82.989 21.9315 82.8188 22.1149C82.6762 22.2681 82.5376 22.4185 82.4914 22.6311C82.4584 22.7815 82.366 22.8396 82.2168 22.8198C82.164 22.8132 82.1099 22.8053 82.0558 22.8066C81.8868 22.8093 81.8578 22.8409 81.8314 23.0046C81.7773 23.3399 81.739 23.6805 81.6532 24.0078C81.603 24.2032 81.4908 24.3867 81.3786 24.5596C81.1529 24.9081 80.9694 25.2684 80.8625 25.6763C80.7939 25.9403 80.6526 26.1871 80.5259 26.4327C80.4665 26.5462 80.4084 26.6505 80.4164 26.7838C80.4203 26.8458 80.415 26.9118 80.3965 26.9699C80.3107 27.2405 80.2764 27.5058 80.3675 27.787C80.3899 27.8583 80.3279 27.9718 80.2778 28.0483C80.1576 28.2279 80.155 28.3097 80.3385 28.4179C80.5219 28.5262 80.6487 28.6569 80.6672 28.8773C80.6711 28.9195 80.6909 28.9763 80.7226 28.9961C80.9972 29.173 81.075 29.5083 81.3139 29.7181C81.4288 29.8185 81.4921 29.9821 81.5674 30.1234C81.6717 30.3201 81.7693 30.5207 81.8644 30.7227C81.9634 30.9325 82.1191 31.0843 82.3013 31.2229C82.5138 31.384 82.5891 31.6321 82.6326 31.8803C82.6696 32.0915 82.762 32.2591 82.8808 32.4347C83.059 32.7 83.1897 32.9983 83.3388 33.2835C83.3679 33.3376 83.385 33.3983 83.4259 33.4986C83.4682 33.36 83.4985 33.2623 83.5395 33.1317C83.5711 33.2188 83.6015 33.2742 83.6108 33.3323C83.6609 33.6385 83.7982 33.9105 83.9328 34.185C83.9869 34.2972 84.0437 34.4213 84.1361 34.4979C84.2839 34.6206 84.3671 34.7685 84.408 34.948C84.4344 35.0655 84.4846 35.142 84.6179 35.1539C84.7644 35.1671 84.8357 35.2701 84.8634 35.4034C84.9175 35.6608 85.0086 35.8971 85.1657 36.1149C85.2211 36.1914 85.2198 36.3195 85.2159 36.4237C85.2106 36.6112 85.1829 36.7973 85.1631 37.0019C85.406 37.0626 85.4389 37.2976 85.4904 37.4731C85.5907 37.8203 85.7808 38.1054 85.9749 38.3958C86.0092 38.4473 86.0593 38.5001 86.0673 38.5569C86.1372 39.0109 86.3128 39.4333 86.4474 39.8676C86.5055 40.0537 86.5227 40.2531 86.5649 40.4458C86.5807 40.5144 86.6085 40.5831 86.6415 40.6464C86.7391 40.8365 86.8632 41.016 86.9372 41.2153C87.0111 41.4147 87.0361 41.6311 87.0889 41.8674C87.0295 41.8239 86.982 41.7961 86.9411 41.7592C86.6705 41.5097 86.3986 41.2615 86.1319 41.0094C85.9854 40.8708 85.8719 40.7137 85.864 40.4986C85.8587 40.3573 85.7967 40.2399 85.6911 40.1461C85.4772 39.9574 85.3386 39.7237 85.2317 39.4597C85.1802 39.3344 85.0667 39.2314 84.9743 39.1245C84.9215 39.0637 84.841 39.0255 84.7974 38.9608C84.6324 38.7073 84.3856 38.5687 84.1255 38.4433C83.9658 38.3668 83.8576 38.2506 83.7771 38.0869C83.6226 37.7728 83.3956 37.5035 83.1976 37.2171C83.0141 36.9517 82.7844 36.7801 82.5191 36.6297C82.4016 36.5637 82.2815 36.5043 82.164 36.4396C81.9819 36.3393 81.8195 36.2323 81.768 35.9974C81.7416 35.8773 81.6281 35.773 81.5449 35.6687C81.4671 35.571 81.3773 35.4839 81.2928 35.3915C81.3588 35.2687 81.4235 35.1618 81.475 35.0496C81.5199 34.952 81.5502 34.8569 81.4776 34.746C81.442 34.6906 81.4697 34.5955 81.4644 34.519C81.4605 34.4596 81.4723 34.3751 81.438 34.3461C81.2044 34.1428 81.0302 33.8115 80.6328 33.9593C80.4995 33.3336 80.4929 33.3402 79.9953 32.8215C79.7986 32.6169 79.6151 32.3925 79.5927 32.0809C79.5782 31.879 79.4778 31.71 79.3445 31.5543C79.2587 31.4539 79.1927 31.3338 79.1254 31.2203C79.033 31.0645 78.9709 31.0553 78.7967 31.0553C78.5485 31.0566 78.3202 31.1437 78.0813 31.1807C78.0166 31.1899 77.9255 31.2203 77.9031 31.2678C77.8226 31.4407 77.6707 31.4856 77.511 31.516C77.3605 31.5437 77.2682 31.615 77.1837 31.7509C77.0134 32.0229 76.7995 32.2697 76.6174 32.535C76.554 32.6274 76.5105 32.7423 76.4867 32.8531C76.4128 33.1937 76.2676 33.4947 76.0538 33.7692C75.927 33.9316 75.8227 34.1111 75.7013 34.2774C75.5376 34.5005 75.3555 34.7117 75.2037 34.9427C74.9265 35.3651 74.541 35.7215 74.4302 36.2482C74.3826 36.4726 74.2942 36.6679 74.0566 36.8052C73.8982 36.8963 73.7979 37.122 73.72 37.3081C73.6342 37.5101 73.5048 37.6355 73.3042 37.6923C73.0587 37.7622 72.9306 37.9127 72.8528 38.1648C72.73 38.5635 72.5412 38.9423 72.3987 39.337C72.3393 39.502 72.3102 39.6841 72.2997 39.861C72.2772 40.228 72.272 40.5963 72.2667 40.9645C72.2654 41.1137 72.2469 41.2576 72.136 41.3619C71.8826 41.5995 71.8364 41.9176 71.7611 42.2331C71.6885 42.5353 71.5776 42.831 71.4734 43.1254C71.4298 43.2495 71.3347 43.3168 71.1895 43.3366C70.9348 43.3709 70.8239 43.4857 70.8147 43.7458C70.8068 43.9517 70.7394 44.122 70.6484 44.3002C70.4754 44.6341 70.3263 44.9813 70.1679 45.3232C70.1415 45.3799 70.1217 45.442 70.086 45.4921C69.7164 46.0017 69.4617 46.5785 69.1475 47.1197C69.1119 47.1817 69.0762 47.2451 69.0287 47.2992C68.9416 47.3995 68.9033 47.5144 68.906 47.6451C68.9112 47.9051 68.8175 48.1071 68.5944 48.2615C68.4492 48.3618 68.3265 48.5004 68.2129 48.6377C68.1615 48.6997 68.1324 48.7987 68.1298 48.8819C68.1245 49.0852 68.048 49.2581 67.9014 49.3822C67.5107 49.7122 67.4394 50.1715 67.3615 50.6322C67.3563 50.6679 67.3602 50.7048 67.3549 50.7391C67.3312 50.8738 67.2665 50.9239 67.1305 50.9041C67.0342 50.8896 66.9391 50.8579 66.8428 50.8408C66.4336 50.7695 66.0679 50.8421 65.7366 51.118C65.6112 51.2223 65.4291 51.2592 65.2733 51.3252C65.0779 51.4084 64.8839 51.4915 64.6952 51.6011C64.8747 51.6565 65.045 51.609 65.2034 51.5549C65.5769 51.4282 65.9623 51.3965 66.3465 51.4282C66.6012 51.4493 66.8507 51.5364 67.0975 51.5919C67.2375 51.9931 67.3629 52.3891 67.6058 52.731C67.6665 52.8168 67.7589 52.8802 67.8381 52.9528C68.2328 53.3171 68.6446 53.6656 68.8862 54.1619C68.8901 54.1698 68.8954 54.1777 68.8994 54.1857C69.1066 54.4972 69.3099 54.8127 69.5224 55.1202C69.7917 55.5096 69.9738 55.936 70.0742 56.3953C70.123 56.6197 70.2061 56.8191 70.3395 57.0052C70.6338 57.4131 70.8991 57.8341 71.1064 58.2975C71.208 58.5245 71.4232 58.7014 71.6238 58.9443C71.6001 59.0169 71.5658 59.1449 71.5156 59.265C71.4654 59.3865 71.4826 59.4921 71.5552 59.595C71.6648 59.7481 71.773 59.9026 71.8839 60.0557C72.0779 60.3223 72.1914 60.6167 72.2482 60.9414C72.3485 61.5117 72.5663 62.0238 73.0534 62.3855C73.1893 62.4871 73.32 62.5993 73.4415 62.7181C73.5339 62.8092 73.6514 62.8963 73.6052 63.0587C73.5986 63.0812 73.6012 63.1247 73.6131 63.1326C73.8599 63.2673 73.8335 63.5695 74.0012 63.7557C74.1688 63.9418 74.3179 64.1451 74.4737 64.3417C74.4961 64.3695 74.5186 64.3998 74.5305 64.4328C74.6849 64.8526 74.8314 65.2763 74.9925 65.6934C75.1469 66.0934 75.2763 66.5118 75.4901 66.8788C75.7435 67.3144 75.9072 67.7671 76.0115 68.2529C76.0828 68.5855 76.1659 68.9169 76.2544 69.2456C76.3111 69.4541 76.3191 69.4515 76.5316 69.4594C76.5765 69.4607 76.6213 69.4581 76.6662 69.4607C76.8444 69.4713 76.8682 69.4911 76.8722 69.6653C76.8748 69.7735 76.8603 69.8818 76.8722 69.9874C76.8788 70.0521 76.9038 70.1326 76.95 70.1709C77.1018 70.2976 77.1639 70.4679 77.1625 70.6487C77.1573 71.0856 77.3011 71.4473 77.6087 71.7615C77.8331 71.9911 78.0179 72.2578 78.2344 72.4967C78.4179 72.7 78.5037 72.9402 78.5406 73.2003C78.5683 73.3996 78.666 73.5461 78.8389 73.69C78.8759 73.6187 78.905 73.5699 78.9261 73.5171C79.0304 73.2597 79.1293 72.9996 79.2363 72.7436C79.26 72.6881 79.2983 72.6313 79.3445 72.5944C79.6402 72.3528 79.8078 72.0505 79.7986 71.6625C79.7986 71.6466 79.8131 71.6308 79.8289 71.5978C80.2012 71.7285 80.3834 71.4275 80.617 71.2321C80.6421 71.211 80.6724 71.1701 80.6685 71.1411C80.6315 70.8335 80.8071 70.489 80.5167 70.2223C80.5061 70.2118 80.5061 70.1907 80.4942 70.155C80.5576 70.0838 80.6249 70.0006 80.6988 69.924C80.8374 69.7815 80.9641 69.6363 81.0103 69.4303C81.0262 69.3604 81.0896 69.2891 81.1503 69.2469C81.2823 69.1558 81.4222 69.0726 81.5674 69.004C81.9753 68.8113 82.2947 68.5235 82.5349 68.1447C82.6788 67.9176 82.8412 67.7011 82.9653 67.4649C83.0537 67.2959 83.1672 67.1705 83.3349 67.0926C83.5883 66.9738 83.8299 66.8405 83.9843 66.591C84.016 66.5396 84.0688 66.496 84.1216 66.463C84.2971 66.3508 84.4041 66.1911 84.4688 65.9983C84.54 65.7898 84.6575 65.6116 84.8225 65.4651C84.9624 65.341 85.0403 65.1958 85.0707 65.0044C85.0918 64.8711 85.1578 64.7219 85.2515 64.6269C85.5723 64.3035 85.9142 63.9999 86.2679 63.6989C86.161 64.0698 86.1557 64.4605 85.9142 64.7945C85.7887 64.9687 85.7201 65.2011 85.6845 65.4175C85.6251 65.7647 85.4957 66.0868 85.402 66.4207C85.3782 66.5065 85.3241 66.5897 85.3215 66.6755C85.3109 66.9831 85.1301 67.2061 84.9769 67.4464C84.8859 67.5889 84.8146 67.7447 84.7459 67.8991C84.6747 68.0615 84.6258 68.2357 84.5493 68.3955C84.5189 68.4588 84.4397 68.4984 84.3605 68.5684C84.3764 68.7347 84.3922 68.9301 84.4133 69.1241C84.4291 69.2733 84.4041 69.4106 84.3051 69.528C84.1863 69.6706 84.1269 69.8356 84.0925 70.0151C84.0569 70.2065 84.0001 70.3794 83.7559 70.4085C83.7005 70.4151 83.6332 70.5088 83.6134 70.5748C83.5566 70.7583 83.484 70.918 83.3296 71.0487C83.2332 71.1305 83.1686 71.2651 83.1171 71.3866C82.9824 71.706 82.861 72.0307 82.729 72.37C82.6947 72.2736 82.663 72.1825 82.6247 72.073C82.5033 72.3343 82.4188 72.5851 82.2802 72.8003C82.0518 73.1541 81.8261 73.4986 81.7495 73.9276C81.7152 74.1203 81.5872 74.2787 81.4103 74.3949C81.1529 74.5638 81.0117 74.8384 80.8968 75.105C80.7503 75.4443 80.6262 75.7888 80.3108 76.0396C80.4467 76.2046 80.4124 76.3683 80.3477 76.5306C80.254 76.7669 80.3015 76.9768 80.4203 77.1972C80.5246 77.3913 80.588 77.6091 80.65 77.8229C80.6817 77.9325 80.7134 78.0235 80.8216 78.0777C80.9602 78.1476 81.0275 78.2704 81.0592 78.4182C81.0724 78.479 81.0869 78.5463 81.1252 78.5925C81.2519 78.7443 81.3324 78.9013 81.372 79.1073C81.3997 79.2525 81.57 79.3739 81.6875 79.4953C81.8697 79.6828 81.8723 79.6775 81.7245 79.8861C81.5898 80.0761 81.4565 80.2675 81.3272 80.4616C81.3047 80.4946 81.3034 80.5408 81.2836 80.6121C81.4948 80.5197 81.673 80.4431 81.8618 80.3599C81.9924 80.4946 82.1099 80.6253 82.1561 80.8233C82.2274 81.1361 82.3277 81.4424 82.4175 81.7512C82.4346 81.8093 82.461 81.8661 82.4953 81.9545C82.6009 81.9096 82.7013 81.8779 82.7871 81.8265C82.9098 81.7525 83.0273 81.6681 83.1395 81.5796C83.3111 81.445 83.4801 81.3341 83.7216 81.3618C83.884 81.3803 84.0107 81.2641 84.0939 81.1308C84.2404 80.8945 84.4384 80.723 84.6839 80.5962C84.8397 80.5157 84.94 80.3824 85.0271 80.2293C85.2924 79.762 85.5709 79.3026 85.8429 78.8393C86.0488 78.4869 86.1847 78.1054 86.2375 77.7028C86.2771 77.4005 86.3709 77.1273 86.5425 76.8791C86.7299 76.6085 86.8368 76.3089 86.8975 75.9868C86.9886 75.4931 87.0942 75.0034 87.1945 74.5123C87.2157 74.4094 87.246 74.3077 87.3094 74.2061C87.3305 74.28 87.3582 74.3526 87.3727 74.4279C87.4255 74.7011 87.4744 74.9743 87.5232 75.2489C87.5615 75.4588 87.5338 75.6621 87.4493 75.8548C87.3437 76.1003 87.3107 76.3538 87.3305 76.6178C87.3397 76.7339 87.3397 76.8514 87.3424 76.9676C87.3463 77.2223 87.3094 77.4665 87.1748 77.6909C87.0309 77.9312 86.9187 78.1819 86.9398 78.4776C86.9464 78.5806 86.9055 78.6888 86.8738 78.7918C86.7748 79.1191 86.7022 79.4491 86.6837 79.7923C86.6771 79.9006 86.6124 80.0088 86.557 80.1091C86.4923 80.2266 86.4052 80.3309 86.3339 80.4444C86.1808 80.686 86.1003 80.95 86.124 81.2364C86.1372 81.3895 86.1016 81.5268 85.9933 81.6311C85.4099 82.1961 85.1921 82.9564 84.8925 83.6731C84.8317 83.8197 84.7512 83.9649 84.6562 84.0916C84.5031 84.2962 84.3869 84.5127 84.3169 84.7582C84.2496 84.9945 84.1348 85.2004 83.9619 85.3812C83.7955 85.5555 83.6583 85.7588 83.5038 85.9449C83.4418 86.0201 83.3797 86.1138 83.2953 86.1495C82.9323 86.3079 82.6801 86.6088 82.3686 86.8345C82.2313 86.9335 82.0888 87.0273 81.9409 87.1104C81.7905 87.1949 81.6941 87.3256 81.6387 87.4761C81.5304 87.7691 81.3654 87.9961 81.0605 88.1083C81.0051 88.1295 80.951 88.1757 80.9127 88.2232C80.5602 88.6628 80.0771 88.9545 79.6785 89.3412C79.3062 89.7029 78.9512 90.0817 78.5868 90.4527C78.5631 90.4777 78.5367 90.5002 78.468 90.5636C78.4258 90.4751 78.3875 90.3946 78.3492 90.3128C78.3281 90.3194 78.3057 90.326 78.2845 90.3326C78.1842 90.5952 77.9611 90.6797 77.7328 90.7747C77.4543 90.8922 77.1824 91.0295 76.9197 91.1787C76.6992 91.3027 76.5157 91.4743 76.3692 91.6856C76.3151 91.7648 76.2438 91.8334 76.1514 91.939C76.1158 91.7977 76.0894 91.6921 76.0604 91.5733C75.8901 91.6143 75.7818 91.7159 75.6987 91.8426C75.6353 91.9403 75.5891 92.0485 75.5363 92.1515C75.4043 92.4036 75.3053 92.6729 75.0624 92.8564C74.9687 92.9264 74.9212 93.0583 74.8592 93.1666C74.6955 93.4543 74.5331 93.7408 74.3774 94.0325C74.281 94.2147 74.1741 94.3955 74.1134 94.5896C73.9404 95.1387 73.687 95.6522 73.4534 96.1749C73.3359 96.4376 73.2237 96.7016 73.0283 96.9167C72.8554 97.1068 72.6706 97.2863 72.4502 97.4408C72.5254 97.256 72.598 97.0698 72.6772 96.8877C72.8197 96.5629 72.8712 96.2303 72.8858 95.8713C72.9069 95.3195 72.8726 94.7585 73.0178 94.2133C73.0468 94.1038 73.0362 93.981 73.027 93.8662C72.9874 93.3752 72.9425 92.8841 72.8963 92.3931C72.8831 92.2505 72.8514 92.1093 72.8382 91.9667C72.8145 91.708 72.7894 91.4493 72.7815 91.1892C72.7762 91.0295 72.73 90.8817 72.8158 90.7035C72.8897 90.549 72.8145 90.3233 72.7986 90.1293C72.796 90.0989 72.7722 90.054 72.7458 90.0435C72.6284 89.992 72.6363 89.8851 72.631 89.7913C72.6218 89.6316 72.5624 89.5023 72.4647 89.3769C72.3393 89.2158 72.2271 89.0429 72.1254 88.866C72.0964 88.8159 72.1149 88.7327 72.1254 88.668C72.1373 88.5915 72.2059 88.4898 72.1782 88.4449C72.0277 88.2047 72.1149 87.9539 72.1215 87.7097C72.1307 87.3824 72.1399 87.3823 71.8271 87.2952C71.8113 87.2913 71.7967 87.2781 71.7677 87.2596C72.0198 86.9573 72.0093 86.6247 71.8931 86.2709C71.835 86.0954 71.8073 85.9079 71.7862 85.7231C71.777 85.6413 71.8113 85.5489 71.8456 85.4697C71.8852 85.3786 71.909 85.2928 71.8192 85.2294C71.7057 85.1476 71.6978 85.0354 71.7057 84.9179C71.7268 84.6526 71.7149 84.3978 71.5156 84.1893C71.4879 84.1602 71.4786 84.1088 71.4681 84.0652C71.4298 83.8738 71.3836 83.6863 71.3295 83.4765Z" fill="white"/>
</svg>
