<svg width="92" height="85" viewBox="0 0 92 85" fill="none" xmlns="http://www.w3.org/2000/svg">
<path d="M43.9693 50.2325C43.766 50.4681 43.6382 50.6221 43.5042 50.77C43.0653 51.2536 42.8574 51.8003 42.8635 52.4718C42.8866 54.9498 42.8728 57.4294 42.8728 59.909C42.8728 60.1169 42.8728 60.3233 42.8728 60.6205C42.6341 60.4034 42.4539 60.2401 42.2567 60.0599C41.9734 60.4326 42.095 60.7468 42.2598 61.0502C42.4385 61.3798 42.6325 61.7017 42.8389 62.0605C42.9344 62.0113 43.0422 61.9574 43.1469 61.9035C43.4057 62.25 43.6629 62.5965 43.9447 62.9754C43.823 63.0555 43.7044 63.1371 43.5812 63.2126C42.3183 63.9734 41.3019 65.0206 40.2638 66.0448C40.0559 66.2497 40.1345 66.4483 40.1991 66.6701C40.5534 67.8668 40.903 69.0665 41.2541 70.2647C41.8024 72.1344 42.3692 73.9995 42.8882 75.8769C43.1269 76.7425 43.6413 77.3831 44.2989 77.9715C45.3015 77.2923 45.4402 76.2927 45.3339 75.1839C45.5757 75.15 45.7713 75.1238 45.9961 75.093C45.9438 74.7095 45.685 74.6494 45.3462 74.6248C45.3462 74.4431 45.3462 74.2567 45.3462 74.0704C45.3462 72.0251 45.3539 69.9798 45.3385 67.9361C45.3354 67.5711 45.4355 67.2908 45.6742 67.0166C46.1517 66.4668 46.0362 65.9832 45.3354 65.6459C45.4586 64.6187 45.2369 63.6746 44.2912 63.0231C44.5038 62.7659 44.6732 62.5642 44.838 62.3609C45.183 61.9327 45.3493 61.4476 45.3477 60.8916C45.34 58.0516 45.34 55.2117 45.3493 52.3717C45.3508 51.8326 45.1891 51.3691 44.8518 50.9594C44.684 50.7561 44.5099 50.559 44.3359 50.3541C44.7071 50.2063 49.8587 50.1493 51.4358 50.2694C51.4081 50.5543 51.3557 50.8408 51.3557 51.1257C51.3496 54.6849 51.3496 58.2457 51.3542 61.8049C51.3557 62.5272 51.3942 63.2495 51.3588 63.9749C51.3234 64.7111 51.3511 65.4519 51.3511 66.1896C51.3511 66.9273 51.3511 67.6666 51.3511 68.4043C51.3511 69.1235 51.3511 69.8427 51.3511 70.5635C51.3511 71.3012 51.3511 72.0405 51.3511 72.7782C51.3511 73.5159 51.3511 74.2552 51.3511 74.9929C51.3511 75.7306 51.345 76.4699 51.3542 77.2076C51.3588 77.5002 51.3989 77.7928 51.425 78.1116C50.4809 78.1116 49.5014 78.1116 48.505 78.1116C48.4526 77.9961 48.4018 77.8806 48.3294 77.7174C48.2047 77.779 48.0399 77.8082 47.9998 77.8929C47.9013 78.1101 47.7472 78.1347 47.5439 78.1347C44.0787 78.127 40.615 78.1239 37.1497 78.1162C37.0773 78.1162 37.0065 78.0947 36.8725 78.0731C36.9695 77.9391 37.0404 77.8421 37.1112 77.7451C37.3006 77.4863 37.5086 77.2384 37.6749 76.9658C37.8582 76.6639 37.8967 76.3405 37.775 75.9878C37.6025 75.4873 37.4824 74.9698 37.3176 74.4662C37.1574 73.9749 37.3361 73.5421 37.5501 73.077C37.5963 73.2156 37.6441 73.3558 37.6888 73.4913C38.0353 73.4512 38.3602 73.4143 38.7607 73.3681C38.7206 72.8953 38.679 72.4178 38.6344 71.8849C38.4372 71.8618 38.2401 71.8387 38.0214 71.8126C38.1493 72.1129 38.2601 72.3732 38.371 72.635C38.3464 72.6642 38.3233 72.692 38.2986 72.7212C37.9614 72.4117 37.6903 72.8629 37.3869 72.6827C37.2852 72.9461 37.2082 73.1463 37.1312 73.3465C37.0896 73.3496 37.0496 73.3511 37.008 73.3542C36.5629 71.848 36.1178 70.3433 35.6558 68.7847C35.2739 69.1004 35.0783 69.4192 35.0813 69.8782C35.0967 72.5672 35.0967 75.2547 35.1014 77.9438C35.1014 77.9807 35.0875 78.0161 35.0736 78.0931C32.785 78.0931 30.4887 78.0931 28.0784 78.0931C28.2756 77.8667 28.4049 77.7158 28.5343 77.5664C28.9347 77.1075 29.1365 76.5946 29.1319 75.9647C29.1134 72.3855 29.1057 68.8078 29.135 65.2286C29.1411 64.3954 28.9625 63.6992 28.3048 63.1617C28.2617 63.1263 28.2324 63.0755 28.1986 63.0308C28.1878 63.0169 28.1862 62.9969 28.1662 62.9338C28.3017 62.7659 28.4542 62.5765 28.6052 62.387C28.9563 61.9419 29.1334 61.4476 29.1273 60.8654C29.1103 59.1051 29.1226 57.3432 29.1195 55.5828C29.1195 55.398 29.1042 55.2132 29.0934 54.9729C28.5667 55.0469 28.0908 55.1146 27.5856 55.187C27.5856 63.4097 27.5856 71.5831 27.5856 79.7796C27.4531 79.8396 27.3423 79.8905 27.179 79.9659C27.2083 80.1646 27.2391 80.3771 27.2699 80.5897C27.3084 80.602 27.3453 80.6128 27.3838 80.6251C27.4778 80.4834 27.5717 80.3433 27.7073 80.1415C28.1801 81.2211 28.7946 82.176 29.6617 82.9276C29.5723 83.1309 29.4969 83.3018 29.423 83.4743C29.4568 83.4974 29.4907 83.522 29.5231 83.5452C29.6524 83.4435 29.7818 83.3419 29.9019 83.2464C30.712 83.6406 31.5129 84.0318 32.437 84.4831C31.8933 84.5462 31.4559 84.6032 31.0154 84.6479C30.846 84.6648 30.6751 84.6463 30.5041 84.6587C30.0698 84.6879 29.674 84.6433 29.4414 84.2012C29.4199 84.1612 29.349 84.1473 29.2335 84.0857C29.2736 84.2644 29.3013 84.3907 29.3521 84.6202C29.1119 84.5016 28.9424 84.4169 28.7391 84.3167C28.4126 84.5447 28.0769 84.3229 27.6919 84.2136C27.7196 83.8624 27.7658 83.5297 27.7673 83.1971C27.7689 82.8767 27.7273 82.5549 27.7011 82.2345C27.6811 81.9896 27.6842 81.7371 27.621 81.503C27.5717 81.3228 27.4362 81.1672 27.2914 80.9193C27.102 81.3012 26.9064 81.5553 27.2375 81.8387C27.273 81.8695 27.2914 81.9404 27.2899 81.9912C27.273 82.6657 27.2498 83.3403 27.2267 84.0904C26.9449 83.9825 26.7432 83.904 26.5445 83.8285C26.5891 83.6037 26.6246 83.4235 26.68 83.1416C26.4413 83.1955 26.2673 83.2356 26.0316 83.2895C26.1887 83.4589 26.2796 83.5559 26.3704 83.653C26.3535 83.6838 26.3366 83.7161 26.3181 83.7469C26.1317 83.6761 25.9408 83.616 25.7606 83.5313C24.664 83.0169 23.5705 82.4979 22.477 81.9758C21.3835 81.4537 20.287 80.9424 19.1119 80.622C18.3218 80.4064 17.5209 80.2817 16.7001 80.314C16.5553 80.3202 16.409 80.3155 16.121 80.3155C16.3612 80.1061 16.5029 79.969 16.6569 79.8504C17.2545 79.3853 17.8736 78.9479 18.4527 78.4612C19.3352 77.7174 19.9174 76.7825 20.0868 75.6228C20.1284 75.3425 20.1453 75.0576 20.1453 74.7757C20.1561 71.7278 20.1545 68.6784 20.1776 65.6305C20.1807 65.167 20.0529 64.7804 19.7988 64.4138C19.3922 63.8286 18.887 63.3542 18.2756 63.0401C18.6714 62.7135 19.0934 62.4225 19.4445 62.0636C19.9482 61.5492 20.2531 60.944 20.1792 60.1739C20.1268 59.6164 20.1684 59.0496 20.2593 58.4536C20.4102 58.6615 20.5611 58.871 20.7644 59.1513C20.7875 58.66 20.806 58.2703 20.826 57.8452C20.729 57.816 20.5503 57.796 20.4148 57.7097C20.3085 57.6419 20.1653 57.4279 20.193 57.3894C20.3394 57.1845 20.2377 57.0305 20.1853 56.8349C20.1176 56.5839 20.1099 56.299 20.4687 56.1865C20.3347 55.8754 20.2054 55.5782 20.0652 55.2548C20.0175 55.2486 19.9435 55.2332 19.8696 55.2317C17.5779 55.2224 15.2878 55.1793 12.9976 55.224C11.7717 55.2486 10.5488 55.4196 9.32445 55.5382C8.91477 55.5782 8.51435 55.6059 8.10929 55.3965C8.15396 55.7445 7.89368 55.8231 7.6026 55.9016C6.16259 56.2866 4.81807 56.8765 3.6368 57.8006C1.82716 59.2144 0.802987 61.1149 0.250085 63.3034C0.197721 63.5129 0.143818 63.7239 0.0390902 63.921C-0.125702 61.1965 0.196181 58.5768 1.66699 56.1912C2.04894 56.4176 2.04894 56.4176 2.38622 57.22C2.75739 57.0398 2.80668 56.9489 2.69579 56.5361C2.6234 56.2682 2.51867 56.0094 2.42473 55.7338C2.71119 55.7661 2.71119 55.7661 3.01613 55.937C2.88214 55.6983 2.74969 55.4581 2.60184 55.1962C3.08082 55.0299 3.36882 55.3195 3.72613 55.5305C3.78927 55.3764 3.86936 55.2502 3.88938 55.1146C3.94328 54.7527 3.80467 54.6341 3.44274 54.7065C3.24869 54.745 3.05309 54.785 2.84364 54.7727C5.07373 52.4564 7.93834 51.5924 10.9862 51.1288C11.151 51.4045 11.3836 51.6186 11.0987 51.9204C11.3559 52.3055 11.7794 52.3101 12.1583 52.3132C12.4201 52.3162 12.4909 52.0175 12.4986 51.7941C12.5079 51.5231 12.4524 51.2505 12.4124 50.8377C12.5371 51.0549 12.5957 51.155 12.6881 51.3152C12.7527 51.1796 12.802 51.0764 12.8883 50.8978C13.8447 50.8654 14.8427 50.8208 15.8422 50.8054C16.0116 50.8023 16.181 50.9224 16.238 50.944C16.6138 50.8824 16.8957 50.7992 17.1775 50.7946C19.1843 50.7561 21.191 50.7653 23.1963 50.6976C26.5691 50.5836 29.9173 50.2479 33.1839 49.3315C34.7194 48.9003 36.1979 48.3243 37.5763 47.5095C38.6929 46.8504 39.6924 46.048 40.5549 45.0762C40.6396 44.9807 40.7305 44.8883 40.9076 44.7019C40.635 46.9027 39.5862 48.5861 38.1585 50.2355C40.1483 50.234 42.0026 50.2232 43.9693 50.2325ZM35.146 53.8024C35.029 54.6634 35.069 64.8774 35.1999 65.3487C35.9084 64.6926 36.6784 64.1489 37.2668 63.4051C37.5963 62.9877 37.7411 62.5149 37.7365 61.982C37.7273 60.9224 37.7334 59.8643 37.7334 58.8047C37.7334 58.3904 37.7334 57.9762 37.7334 57.5372C37.966 57.5634 38.1785 57.6574 38.2663 57.3586C38.4049 56.8873 37.9829 56.8087 37.7042 56.5623C37.7042 55.6691 37.7042 54.7512 37.7042 53.784C37.2544 53.784 36.8633 53.784 36.5183 53.784C36.3427 53.5807 36.2118 53.4313 36.01 53.1972C36.0223 53.4467 36.0285 53.5822 36.0362 53.7378C35.7266 53.7593 35.4494 53.7793 35.146 53.8024ZM27.0512 77.8221C27.0789 77.8221 27.1066 77.8221 27.1328 77.8236C27.1328 70.3032 27.1328 62.7829 27.1328 55.2748C26.8386 55.167 26.7416 55.2825 26.7416 55.5258C26.7401 55.954 26.7416 56.3837 26.7416 56.8118C26.489 56.8118 26.3088 56.8118 26.0886 56.8118C26.1379 57.2061 26.181 57.5542 26.2241 57.8961C26.4105 57.9423 26.5645 57.9808 26.7385 58.0239C26.7385 58.2056 26.7385 58.3566 26.7385 58.506C26.7339 63.5945 26.7247 68.683 26.7324 73.7716C26.7339 74.7157 26.7909 75.6613 26.8525 76.6038C26.8787 77.012 26.9819 77.4155 27.0512 77.8221ZM34.6424 66.2882C34.6424 62.1268 34.6424 57.9746 34.6424 53.8348C34.4037 53.7501 34.262 53.7824 34.2451 54.0211C34.2343 54.1721 34.2389 54.3245 34.2389 54.4755C34.2389 57.7113 34.2389 60.9486 34.2389 64.1844C34.2389 64.4046 34.2389 64.6248 34.2389 64.8389C33.9232 64.8574 33.6891 64.8728 33.3487 64.8928C33.5412 65.244 33.6906 65.515 33.84 65.7876C33.435 66.1388 33.435 66.1388 33.666 66.5623C33.9832 66.4745 34.3036 66.3836 34.6424 66.2882ZM50.943 77.129C50.943 76.6424 50.943 76.1557 50.943 75.6675C50.943 75.1762 50.943 74.6849 50.943 74.1936C50.943 73.6838 50.943 73.1725 50.943 72.6627C50.943 72.1714 50.943 71.6801 50.943 71.1888C50.943 70.6975 50.943 70.2062 50.943 69.7149C50.943 69.2236 50.943 68.7323 50.943 68.241C50.943 67.7312 50.943 67.2199 50.943 66.7101C50.943 66.2189 50.9568 65.7276 50.9384 65.2363C50.9199 64.7681 51.0184 64.2891 50.8552 63.7531C50.5579 64.1351 50.501 64.5032 50.4917 64.8805C50.4809 65.3718 50.4871 65.8631 50.4871 66.3544C50.4871 69.5671 50.4871 72.7797 50.4871 75.9909C50.4887 76.4113 50.521 76.8164 50.943 77.129ZM50.8121 62.0498C50.8567 62.039 50.8999 62.0297 50.9445 62.019C50.9445 61.5092 50.9445 61.0009 50.9445 60.4912C50.9445 59.9614 50.9445 59.4316 50.9445 58.9033C50.9445 58.3935 50.9445 57.8822 50.9445 57.3724C50.9445 56.8426 50.9445 56.3128 50.9445 55.7846C50.9445 55.2748 50.9445 54.7635 50.9445 54.2537C50.9445 53.7239 50.9553 53.1941 50.9414 52.6658C50.9276 52.1761 51.0092 51.6771 50.8675 51.1442C50.5241 51.4815 50.4902 51.8496 50.4902 52.2315C50.4917 53.8948 50.4902 55.5597 50.4902 57.223C50.4902 58.4521 50.4902 59.6811 50.4902 60.9101C50.4886 61.3244 50.5518 61.7186 50.8121 62.0498ZM34.6008 77.3139C34.7271 76.7255 34.7132 70.9301 34.5515 70.5004C34.4129 70.8854 34.2327 71.2766 34.2204 71.6739C34.1665 73.2387 34.1526 74.8065 34.1511 76.3728C34.1511 76.7209 34.2897 77.0567 34.6008 77.3139ZM21.8271 65.9201C21.9703 66.6886 21.8163 67.3354 21.3512 67.9114C21.0309 68.3088 20.9508 68.7862 21.094 69.2483C21.2295 69.6857 21.479 70.0861 21.6947 70.5389C21.6793 70.5574 21.6099 70.6436 21.5406 70.7283C21.5653 70.7576 21.5899 70.7868 21.6161 70.8161C21.7686 70.7175 21.9226 70.6205 22.0735 70.5235C21.3851 69.4238 21.4575 68.5198 22.2091 67.8421C22.2091 67.605 22.1967 67.397 22.2121 67.1922C22.2291 66.9673 22.2861 66.7456 22.303 66.5207C22.3353 66.0941 22.2799 66.0263 21.8271 65.9201ZM25.3878 70.7591C25.9469 70.5589 26.3212 70.0245 26.278 69.5132C26.2442 69.1127 26.0347 68.9387 25.6266 68.9295C25.548 69.5424 25.4695 70.1462 25.3878 70.7591ZM24.2343 56.8088C23.9355 56.6778 23.6645 56.5608 23.321 56.4099C23.418 56.7826 23.4966 57.0814 23.5721 57.3694C24.0865 57.3386 24.0865 57.3385 24.2343 56.8088ZM25.7991 76.6978C25.9331 76.8564 26.0516 76.9735 26.144 77.109C26.3504 77.4124 26.3566 77.4186 26.7709 77.2107C26.6969 77.1013 26.623 76.9997 26.5568 76.8903C26.5014 76.7994 26.432 76.707 26.4136 76.6085C26.3612 76.3251 26.3319 76.2927 26.1348 76.4206C26.027 76.493 25.9331 76.5869 25.7991 76.6978ZM18.5636 53.3127C18.7222 53.7809 19.0657 53.958 19.5277 54.0273C19.443 53.342 19.2566 53.2064 18.5636 53.3127ZM21.5915 57.4233C21.2265 57.8083 21.6947 58.1225 21.6192 58.4675C21.6084 58.5152 21.7162 58.5876 21.7794 58.66C22.0828 58.1271 22.0273 57.7744 21.5915 57.4233ZM13.4273 54.2491C13.4073 54.2137 13.3888 54.1767 13.3688 54.1413C13.1239 54.1675 12.8837 53.9703 12.5756 54.1798C12.6973 54.3861 12.8082 54.5771 12.9637 54.8405C13.1609 54.5879 13.2933 54.4185 13.4273 54.2491ZM20.2331 76.647C20.1853 76.6439 20.1361 76.6408 20.0883 76.6377C20.0221 76.7733 19.9235 76.9026 19.8973 77.0459C19.8681 77.2076 19.8912 77.4371 20.1222 77.3955C20.2238 77.377 20.3301 77.1583 20.3563 77.0166C20.3779 76.9057 20.2793 76.7717 20.2331 76.647ZM28.8932 54.3338C28.9933 53.8009 28.9486 53.7147 28.5281 53.6623C28.5435 53.9518 28.5004 54.2506 28.8932 54.3338ZM28.5651 54.3646C28.2432 54.3985 28.003 54.4231 27.7642 54.4493C27.7627 54.4724 27.7612 54.4955 27.7596 54.5186C28.0276 54.6156 28.2956 54.7127 28.6098 54.8251C28.5944 54.668 28.582 54.5309 28.5651 54.3646ZM35.5865 66.0972C35.454 65.8692 35.3416 65.6767 35.2292 65.4827C35.1999 65.495 35.1707 65.5089 35.1414 65.5212C35.1414 65.7584 35.1414 65.994 35.1414 66.2897C35.3185 66.2142 35.4279 66.165 35.5865 66.0972ZM21.7824 76.0124C21.8302 76.0232 21.8764 76.0325 21.9241 76.0433C21.9996 75.9308 22.0751 75.8184 22.1813 75.6598C21.9888 75.5812 21.8456 75.5227 21.5668 75.4103C21.6685 75.6936 21.7255 75.8523 21.7824 76.0124ZM22.8405 55.3133C22.5879 55.1023 22.4354 54.9729 22.2044 54.7789C22.1382 55.0068 22.0997 55.1393 22.0489 55.3133C22.3184 55.3133 22.5078 55.3133 22.8405 55.3133ZM21.5391 56.8642C21.63 56.319 21.63 56.319 21.1017 56.3868C21.2588 56.5593 21.3789 56.6902 21.5391 56.8642ZM26.3828 78.3642C26.355 78.395 26.3258 78.4258 26.2981 78.4566C26.3658 78.6229 26.4336 78.7893 26.5014 78.9556C26.5476 78.9541 26.5953 78.951 26.6415 78.9495C26.6815 78.8262 26.7909 78.663 26.7462 78.5921C26.68 78.4813 26.5091 78.4366 26.3828 78.3642ZM22.688 75.3641C22.688 75.1484 22.688 74.9682 22.688 74.7865C22.6649 74.785 22.6418 74.785 22.6187 74.7834C22.5479 74.9636 22.4755 75.1423 22.3815 75.381C22.5325 75.3733 22.6156 75.3687 22.688 75.3641ZM20.6982 77.0289C20.5842 77.2476 20.4549 77.3816 20.4826 77.4632C20.5457 77.6465 20.7028 77.5957 20.8676 77.4817C20.8291 77.3785 20.7891 77.2692 20.6982 77.0289ZM25.0937 69.1127C24.9366 68.7908 24.8565 68.5567 24.5177 68.4305C24.5762 68.7785 24.7502 68.9387 25.0937 69.1127ZM21.208 53.1956C21.1371 53.1956 21.0663 53.1956 20.9939 53.1956C20.9877 53.3219 20.9816 53.4482 20.977 53.5745C21.0601 53.573 21.1433 53.5699 21.2265 53.5683C21.2218 53.4436 21.2157 53.3204 21.208 53.1956ZM13.7985 54.1089C13.7461 54.1212 13.6938 54.1351 13.6414 54.1474C13.6506 54.3369 13.6167 54.5432 13.954 54.7234C13.8847 54.4539 13.8416 54.2814 13.7985 54.1089ZM22.9452 75.7614C22.5171 75.7907 22.5171 75.7907 22.4955 76.071C22.6665 75.9524 22.8051 75.8569 22.9452 75.7614Z" fill="white"/>
<path d="M70.869 47.8623C69.9496 47.4588 69.1241 47.0969 68.257 46.718C67.8504 43.1341 67.4685 39.5272 67.7765 35.8725C67.1912 36.0003 67.1866 36.0188 67.1989 36.4916C67.2713 39.1791 67.3375 41.8651 67.4053 44.5526C67.4115 44.7775 67.4284 44.9915 67.2005 45.1532C67.1389 45.1979 67.1373 45.4782 67.1851 45.5028C67.6579 45.7462 67.3206 46.122 67.4068 46.4623C61.5544 45.1502 55.759 44.9915 49.8711 46.5609C50.1006 46.3638 50.2577 46.2313 50.4117 46.0958C51.3173 45.2903 52.2367 44.5018 53.1223 43.6747C55.474 41.4739 56.8417 38.7433 57.413 35.5953C57.564 34.7621 57.6887 33.9243 57.835 33.0264C57.9552 33.1311 58.0537 33.2019 58.1353 33.2897C58.5373 33.7163 58.9208 34.163 59.3397 34.5726C60.2607 35.4752 60.7705 35.7955 62.2829 36.4793C61.7731 36.7011 61.8578 37.1277 61.8578 37.5281C61.8578 38.5508 61.8578 39.5734 61.8578 40.596C61.8578 40.8009 61.8578 41.0072 61.8578 41.2752C63.1453 41.3907 64.3821 41.5016 65.6727 41.6171C65.6912 41.4108 65.7189 41.2475 65.7189 41.0843C65.7235 39.4748 65.7143 37.8654 65.7358 36.256C65.7404 35.8864 65.608 35.6738 65.3123 35.4705C62.8466 33.7779 60.3947 32.0653 57.9274 30.3727C57.6117 30.1571 57.4146 29.9046 57.2945 29.5457C57.0527 28.8203 56.7338 28.1411 56.0577 27.6929C55.9499 27.6221 55.8991 27.4019 55.8945 27.2494C55.8775 26.5702 55.8868 25.8895 55.8868 25.2103C55.8868 23.4499 55.8606 21.688 55.8976 19.9277C55.916 19.0991 55.7066 18.3999 55.1136 17.8208C55.0474 17.7561 54.9981 17.676 54.8718 17.5143C55.1367 17.5005 55.3308 17.482 55.5233 17.4804C57.6625 17.4789 59.8018 17.4804 61.9425 17.4774C62.1412 17.4774 62.3383 17.462 62.5693 17.3434C62.0241 16.9229 61.4789 16.5025 60.9337 16.0805C61.673 15.9326 62.3968 15.9619 63.1192 15.9557C63.8569 15.9511 64.5961 15.9542 65.3338 15.9542C66.0716 15.9542 66.8108 15.9542 67.5485 15.9542C68.2862 15.9542 69.0255 15.9542 69.7632 15.9542C70.5009 15.9542 71.2402 15.9542 71.9779 15.9542C72.6971 15.9542 73.4164 15.9542 74.1371 15.9542C74.8749 15.9542 75.6141 15.9542 76.3518 15.9542C77.0896 15.9542 77.8288 15.9542 78.5665 15.9542C79.3042 15.9542 80.0435 15.9542 80.7812 15.9542C81.5189 15.9542 82.2582 15.9542 82.9959 15.9542C83.7305 15.9542 84.4636 15.9542 85.2244 15.9542C85.2352 15.4275 85.3646 15.007 85.7666 14.6836C85.9822 15.3736 86.4257 15.8895 86.8862 16.3947C87.5485 17.1231 88.2215 17.8424 88.8668 18.5847C89.4136 19.2162 89.8864 19.9061 90.1682 20.7024C90.4855 21.5956 90.487 22.4735 89.9726 23.4053C89.9095 23.2374 89.871 23.1465 89.8402 23.0541C89.4582 21.8913 88.4695 21.1598 87.2358 21.1475C86.0053 21.1336 84.7747 21.1382 83.5442 21.1274C83.2577 21.1244 83.0267 21.0643 82.7541 20.8641C82.4076 20.6084 81.9409 20.2326 81.3834 20.6361C81.405 20.7624 81.4296 20.9026 81.465 21.109C80.3623 21.109 79.2796 21.109 78.1276 21.109C78.1276 21.3754 78.1276 21.5802 78.1276 21.7835C78.1276 23.3544 78.1445 24.9269 78.1168 26.4978C78.1076 26.9891 78.2246 27.3803 78.5912 27.7053C78.7159 27.8146 78.8068 27.9625 78.9361 28.1211C78.756 28.3413 78.6019 28.5539 78.4218 28.7433C78.2169 28.962 78.1214 29.1976 78.1214 29.5057C78.1291 34.4279 78.126 39.3516 78.1276 44.2738C78.1276 44.3847 78.1461 44.4956 78.1615 44.6666C78.7821 44.548 79.315 44.1491 80.005 44.1922C79.7509 44.7482 79.4752 45.2549 79.2858 45.7939C79.0932 46.3407 78.9854 46.9182 78.836 47.5004C78.7005 47.3233 78.5711 47.1523 78.4418 46.9829C78.3293 47.3002 78.5296 47.4696 78.662 47.6729C78.7483 47.8069 78.8391 47.9532 78.8668 48.1056C78.9515 48.5692 78.9993 49.039 79.0748 49.5056C79.141 49.923 79.3166 50.3342 78.9993 50.7577C79.044 50.77 79.0902 50.7808 79.1348 50.7931C79.2211 50.6977 79.3073 50.6022 79.4336 50.4605C80.0989 51.6402 81.1092 52.284 82.4476 52.438C80.3854 53.1434 78.354 53.2373 76.3133 52.2316C76.3287 51.996 76.3441 51.7788 76.358 51.5617C76.3826 51.5601 76.4073 51.557 76.4319 51.5555C76.4889 51.7311 76.5459 51.9066 76.6167 52.1253C76.9525 51.9251 76.8678 51.6972 76.7754 51.4708C76.6706 51.2121 76.5644 50.9549 76.4211 50.6052C76.321 50.5775 76.1331 50.5267 75.8759 50.4574C75.8528 50.9564 75.8344 51.3815 75.8113 51.8697C75.6603 51.7988 75.5402 51.765 75.4462 51.6956C73.6874 50.3866 72.5909 48.6447 72.1119 46.5132C72.0472 46.2221 72.058 45.911 72.058 45.6091C72.0703 40.8378 72.0719 36.0666 72.1134 31.2953C72.1211 30.4405 71.8716 29.7444 71.308 29.1299C71.0138 28.8111 70.7304 28.4815 70.4301 28.1427C71.0092 27.4003 71.5729 26.678 72.1704 25.9126C72.5246 26.1297 72.6124 26.5902 72.8188 27.0415C73.4672 26.4932 72.8666 25.9511 72.8542 25.3258C73.0745 25.5029 73.2177 25.6169 73.3594 25.7324C73.3856 25.717 73.4118 25.7016 73.4379 25.6862C73.2962 25.4459 73.1546 25.2057 73.0036 24.9485C73.461 24.7621 73.7567 25.0332 74.1171 25.2611C74.1834 25.1133 74.2681 24.9931 74.2942 24.8607C74.3635 24.5111 74.2126 24.3709 73.8507 24.4402C73.3871 24.5296 72.9251 24.6343 72.4615 24.7251C72.3722 24.7421 72.2782 24.7282 72.1427 24.7282C72.1427 23.7148 72.1427 22.723 72.1427 21.7065C72.2628 21.6927 72.383 21.6773 72.5092 21.6634C72.5092 21.5833 72.5262 21.5217 72.5062 21.4755C72.383 21.1906 72.1104 21.1228 71.8516 21.1136C71.1909 21.0905 70.5287 21.1059 69.8248 21.1059C69.8048 21.2768 69.774 21.4201 69.7725 21.5633C69.7678 22.264 69.7694 22.9648 69.7694 23.6655C69.7694 25.6477 69.7694 27.6298 69.7694 29.6104C69.7694 29.7983 69.7694 29.9877 69.7694 30.2927C69.4383 30.0201 69.1811 29.7937 68.91 29.5873C68.6081 29.3594 68.2986 29.1407 67.9828 28.9327C67.6825 28.7356 67.3699 28.5554 67.048 28.3583C67.0126 27.9086 66.9664 27.4496 66.9448 26.9891C66.9232 26.5255 67.0572 26.0543 66.9002 25.6046C66.6445 25.5352 66.6137 25.6831 66.6168 25.8479C66.626 26.3392 66.6414 26.832 66.6583 27.3233C66.6661 27.5667 66.683 27.81 66.6984 28.1057C65.5726 27.639 64.4976 27.194 63.3594 26.7227C63.5242 26.6226 63.6751 26.5286 63.8276 26.4378C64.2096 26.2098 64.553 25.9588 64.6285 25.469C64.6454 25.3628 64.7671 25.258 64.8626 25.181C64.9627 25.1009 65.0905 25.0532 65.2861 24.95C65.0089 24.8283 64.9134 24.7868 64.8518 24.7606C64.8333 24.4834 64.8164 24.2369 64.7963 23.9397C64.8302 23.9135 64.9165 23.8473 65.0366 23.7549C64.4052 22.9525 64.7486 21.9791 64.5884 21.0612C63.6844 21.0612 62.8065 21.0612 61.8948 21.0612C61.8794 21.2614 61.8563 21.4262 61.8563 21.591C61.8532 23.5038 61.8655 25.4151 61.8455 27.3279C61.8409 27.7022 61.9841 27.907 62.2767 28.1088C64.9704 29.9708 67.6486 31.8543 70.3485 33.7102C70.7366 33.9766 70.8783 34.2585 70.8752 34.7282C70.8567 38.9127 70.8659 43.0972 70.8659 47.2817C70.869 47.448 70.869 47.6159 70.869 47.8623ZM77.7395 29.8922C77.316 30.1956 77.2543 30.6099 77.2543 31.0473C77.2543 35.6045 77.2543 40.1633 77.2559 44.7205C77.2559 44.8498 77.2759 44.9777 77.2882 45.1132C77.7349 44.9499 77.7379 44.9499 77.7379 44.4124C77.7379 39.7228 77.7379 35.0316 77.7379 30.3419C77.7395 30.1926 77.7395 30.0432 77.7395 29.8922ZM60.3269 24.816C60.6072 24.9515 60.8229 25.0578 61.0523 25.1687C61.0523 25.7755 61.0523 26.3623 61.0523 26.9475C61.0523 27.197 61.1093 27.3942 61.442 27.3926C61.4543 27.2879 61.4743 27.197 61.4743 27.1062C61.4759 25.2318 61.4759 23.3575 61.4759 21.4847C61.4759 21.3908 61.4882 21.2861 61.4528 21.2044C61.422 21.1351 61.328 21.052 61.2633 21.052C61.1986 21.052 61.0908 21.1382 61.0754 21.2029C61.0431 21.3477 61.0523 21.5032 61.0523 21.6542C61.0508 22.5043 61.0523 23.3544 61.0523 24.1368C60.7828 24.3894 60.5687 24.5896 60.3269 24.816ZM77.2543 21.1351C77.2543 21.5217 77.2543 21.8575 77.2543 22.1947C77.2543 23.2312 77.2543 24.2677 77.2574 25.3042C77.259 25.7154 77.3514 26.0943 77.701 26.4917C77.701 24.6358 77.701 22.8955 77.701 21.1351C77.5531 21.1351 77.4453 21.1351 77.2543 21.1351ZM61.4112 41.1905C61.5313 40.4975 61.5005 37.5774 61.3665 37.1739C61.0739 37.368 61.0261 37.6529 61.0261 37.9609C61.0261 38.5846 61.0246 39.2084 61.0246 39.8321C61.0246 40.191 61.0261 40.5498 61.0261 40.9102C61.0246 41.1443 61.117 41.2675 61.4112 41.1905ZM87.1326 20.4806C86.8816 20.1279 86.7214 20.0571 86.5859 20.2219C86.3857 20.4652 86.552 20.6269 86.7507 20.7763C86.8908 20.6669 87.0171 20.5699 87.1326 20.4806ZM80.695 17.3896C80.7365 17.3603 80.7781 17.3326 80.8197 17.3033C80.7781 17.1847 80.7673 16.9984 80.6857 16.9599C80.5163 16.8798 80.3685 16.9614 80.3407 17.2186C80.4532 17.2725 80.5733 17.3311 80.695 17.3896ZM73.4256 21.8467C73.4888 21.591 73.5812 21.4401 73.5396 21.3461C73.4487 21.1398 73.2516 21.1244 73.0313 21.1798C73.1499 21.3816 73.2485 21.5479 73.4256 21.8467ZM83.0821 21.0088C83.2223 20.3959 83.1792 20.3327 82.8265 20.4775C82.9127 20.6608 82.9974 20.8348 83.0821 21.0088ZM84.3265 19.6936C84.1202 19.5658 84.0016 19.4888 83.8753 19.4241C83.8691 19.421 83.7659 19.5396 83.7767 19.5842C83.8291 19.7875 83.9723 19.8291 84.3265 19.6936Z" fill="white"/>
<path d="M69.9773 70.1444C69.9773 69.8811 69.9927 69.6177 69.9742 69.3559C69.945 68.9416 69.8002 68.6505 69.3644 68.4442C68.9362 68.2409 68.5974 67.8466 68.2216 67.5355C67.9998 67.3522 68.0414 67.095 68.0398 66.8532C68.0229 64.4553 68.0075 62.0588 67.9906 59.6609C67.9875 59.1511 67.9567 58.6398 67.9798 58.1315C68.0475 56.7254 67.5562 55.5072 66.7693 54.3798C66.5968 54.1334 66.4366 53.8808 66.2703 53.6298C67.1512 54.309 68.0337 54.9866 68.9146 55.6658C68.8207 55.1853 68.5789 54.8249 68.1554 54.6771C67.7888 54.5492 67.5717 54.2982 67.3422 54.0194C67.105 53.7314 66.8493 53.4481 66.5613 53.214C66.3534 53.0461 66.0793 52.889 65.8175 53.1755C62.8543 50.28 59.1749 48.6814 55.3339 47.3723C54.9612 47.2445 54.5869 47.1228 54.2142 46.9057C54.3698 46.8841 54.5253 46.8487 54.6824 46.841C57.1235 46.7224 59.5646 46.6854 61.9995 46.9395C63.4518 47.0905 64.8842 47.3415 66.2795 47.7804C67.9613 48.3102 69.4722 49.145 70.8136 50.297C71.6745 51.0378 72.5478 51.7647 73.4564 52.4439C74.0602 52.8952 74.7147 53.2894 75.3831 53.6375C77.4315 54.7048 79.5183 54.7233 81.6129 53.7592C82.0025 53.579 82.3829 53.3772 82.7895 53.1755C82.3968 54.3829 80.1036 56.2018 78.4449 56.6222C78.4017 56.3296 78.3586 56.0401 78.3093 55.7136C77.8196 55.9461 77.7934 56.3958 77.684 56.8933C77.2744 56.9518 76.8339 57.0411 76.3904 57.0735C75.9591 57.1058 75.5233 57.0797 75.0227 57.0797C75.012 57.2814 74.995 57.4816 74.9935 57.6818C74.9904 58.9694 75.015 60.2569 74.9796 61.5429C74.9673 62.0203 75.1305 62.3391 75.5109 62.5809C75.7173 62.7119 75.9268 62.8366 76.1362 62.966C76.1116 63.0029 76.0993 63.0399 76.0731 63.0553C74.9919 63.7191 74.9904 63.7191 74.9904 64.982C74.9904 68.0684 75.0042 71.1532 74.9781 74.2396C74.9734 74.7509 75.1583 75.042 75.5787 75.273C76.3734 75.7104 77.2282 75.9045 78.1168 76.0323C79.1579 76.1802 80.1806 76.0462 81.1971 75.8814C82.2459 75.712 83.2547 75.3824 84.2234 74.9404C84.3943 74.8618 84.5653 74.7817 84.7516 74.697C84.8825 74.7879 85.0119 74.8803 85.2168 75.0235C85.1721 74.4214 85.554 74.2211 85.9268 73.9963C87.2743 73.1816 88.3001 72.0434 89.1317 70.7251C89.9634 69.4067 90.4331 67.959 90.6056 66.4128C90.6133 66.3388 90.6318 66.2649 90.6503 66.1925C90.6534 66.1771 90.6734 66.1663 90.7227 66.1171C90.7874 66.2264 90.8613 66.3219 90.9044 66.4281C91.234 67.2429 91.4142 68.0946 91.4681 68.9663C91.6822 72.5085 90.658 75.6889 88.622 78.5673C88.5896 78.6135 88.5465 78.6505 88.508 78.6906C88.1276 78.4996 88.1014 78.5088 87.9043 78.9C87.952 78.9247 87.9967 78.957 88.0475 78.9724C88.0999 78.9893 88.1568 78.9893 88.2092 78.9955C88.3586 79.7009 84.0031 83.0629 82.078 83.7206C82.0457 83.5758 82.0102 83.4356 81.9856 83.294C81.9686 83.2015 81.9702 83.1061 81.9579 83.0121C81.7654 81.5567 81.003 80.9299 79.5491 81.1316C78.8807 81.224 78.2277 81.4489 77.5778 81.646C77.108 81.7877 76.6522 81.9787 76.1932 82.1543C75.7527 82.3221 75.3154 82.4962 74.8348 82.6841C74.7794 82.5824 74.727 82.4839 74.6839 82.4022C74.5869 82.4608 74.533 82.4731 74.5268 82.4993C74.4483 82.8057 74.2327 82.9521 73.9462 83.0398C73.6751 83.123 73.4133 83.237 73.1469 83.3325C72.6587 83.5065 72.1751 83.8392 71.5991 83.2C71.6329 83.5219 71.6453 83.6559 71.6668 83.8607C71.4897 83.7729 71.348 83.7021 71.1524 83.6035C71.0816 84.1071 70.6842 84.1456 70.3254 84.2442C68.3972 84.7709 66.4428 85.0682 64.436 84.9865C61.7793 84.8787 59.3521 84.0686 57.125 82.6332C55.6188 81.663 54.3005 80.474 53.1069 79.1433C53.0622 79.0941 53.0268 79.0371 53.0345 78.9262C53.2486 79.0309 53.4642 79.1341 53.6767 79.2435C55.3324 80.0859 57.0219 80.8359 58.8407 81.2672C61.3188 81.857 63.6074 81.4597 65.7127 80.0181C65.8513 79.9226 65.9961 79.8349 66.1809 79.7178C66.2764 79.8888 66.3611 80.0412 66.4674 80.2322C66.5921 80.1937 66.7261 80.1537 66.9679 80.0797C66.7431 79.8749 66.586 79.7301 66.415 79.5746C66.8047 79.2465 67.1974 78.8985 67.6086 78.5781C67.8535 78.3871 67.9551 78.17 67.9644 77.8543C67.9813 77.1766 68.0599 76.5005 68.0799 75.8244C68.0891 75.5071 67.9921 75.1868 67.9936 74.8695C67.9983 72.9013 68.0167 70.9314 68.0337 68.9632C68.0352 68.8369 68.063 68.7106 68.0845 68.5335C68.776 68.9339 69.1903 69.4329 69.1287 70.2261C69.1133 70.414 69.1087 70.5803 69.292 70.7328C69.3998 70.8221 69.4213 71.0316 69.4521 71.1933C69.4906 71.3935 69.4783 71.6076 69.7278 71.7508C69.8664 71.5937 69.8325 71.4166 69.7725 71.2795C69.6323 70.953 69.6446 70.6666 69.8787 70.3909C69.9373 70.3231 69.9557 70.2199 69.9927 70.1321C70.1683 70.2769 70.3408 70.4217 70.5764 70.6188C70.504 70.1814 70.4594 70.1537 69.9773 70.1444ZM74.5468 64.6909C74.2188 65.0128 74.1033 65.3809 74.1064 65.7905C74.111 66.2818 74.1079 66.7747 74.1079 67.266C74.1094 69.1187 74.111 70.973 74.1141 72.8258C74.1141 73.2924 74.1726 73.7437 74.5453 74.1087C74.5468 70.97 74.5468 67.8297 74.5468 64.6909ZM74.1017 56.9657C74.1017 57.1905 74.1094 57.3938 74.0987 57.5971C74.091 57.7635 74.1141 57.9652 74.0309 58.0884C73.8769 58.3148 73.9554 58.5181 73.9893 58.7353C74.0263 58.974 74.0802 59.2096 74.0971 59.4499C74.1171 59.7502 74.0817 60.0552 74.1125 60.3539C74.1495 60.7128 74.2203 61.0732 74.5823 61.4028C74.5823 60.6127 74.5823 59.9165 74.5823 59.2204C74.5823 58.5982 74.5776 57.976 74.5823 57.3522C74.5853 57.0889 74.5222 56.9056 74.1017 56.9657ZM75.1521 75.9738C75.0397 76.2664 74.9195 76.5144 74.8518 76.7747C74.801 76.9702 74.7933 77.1843 74.8102 77.3861C74.8271 77.5909 74.8918 77.7927 74.9473 77.9913C75.0612 78.3979 75.1167 78.7968 74.8441 79.1711C75.3184 79.3128 75.5371 79.208 75.6095 78.8091C75.6773 78.438 75.591 78.0991 75.3477 77.8019C75.0566 77.4461 75.0581 77.1889 75.3431 76.847C75.283 76.7515 75.2214 76.6576 75.1721 76.5806C75.2799 76.4189 75.3754 76.2756 75.4971 76.0939C75.3277 76.0354 75.2306 76 75.1521 75.9738ZM62.5386 50.126C62.5771 50.0983 62.614 50.069 62.6525 50.0413C62.3861 49.6902 62.0781 49.3621 61.864 48.9817C61.6484 48.5982 61.5236 48.1639 61.3558 47.7435C61.1848 47.7435 60.9861 47.7435 60.7643 47.7435C60.8413 48.9602 61.6345 49.5855 62.5386 50.126ZM80.9014 77.4184C81.1493 77.5016 81.2633 77.4169 81.2633 77.1658C81.2633 76.8686 81.2063 76.827 80.7304 76.8008C80.7889 77.0103 80.8459 77.2151 80.9014 77.4184ZM88.5942 77.8096C88.8283 77.8866 88.9669 77.8404 88.97 77.577C88.9731 77.2937 88.9177 77.2505 88.4325 77.1951C88.4895 77.4092 88.5419 77.6109 88.5942 77.8096ZM74.8887 81.3165C74.9966 81.6938 75.0659 81.9371 75.1552 82.2482C75.3847 81.934 75.4062 81.6691 75.2815 81.4089C75.2537 81.3488 75.0797 81.358 74.8887 81.3165ZM62.9821 50.1507C63.0961 50.4495 63.1823 50.7436 63.5905 50.7529C63.5304 50.2077 63.4719 50.1491 62.9821 50.1507ZM70.4409 67.4662C70.0589 67.822 70.0666 67.9174 70.4409 68.3117C70.4409 68.0453 70.4409 67.7973 70.4409 67.4662ZM87.4792 75.022C87.4268 74.4614 87.339 74.3443 86.8585 74.1703C87.1065 74.5107 87.2928 74.7663 87.4792 75.022ZM69.8048 78.7321C69.9943 79.0941 70.1298 79.3543 70.2915 79.6639C70.4132 79.1356 70.3747 79.0602 69.8048 78.7321ZM85.648 78.2362C85.477 78.0129 85.3338 77.8373 85.052 77.922C85.0212 77.9313 84.9811 78.0314 84.9965 78.0591C85.1398 78.304 85.3507 78.3286 85.648 78.2362ZM55.7097 80.4078C55.5341 80.6819 55.5434 80.8898 55.7774 81.1224C55.9453 80.859 55.9715 80.648 55.7097 80.4078ZM77.2467 77.5663C77.5408 77.9066 77.5408 77.9066 77.9212 77.7511C77.7226 77.6063 77.5839 77.383 77.2467 77.5663ZM71.6868 59.0741C71.6391 59.088 71.5898 59.1003 71.5421 59.1141C71.4805 59.3328 71.4989 59.5115 71.8994 59.5962C71.807 59.3698 71.7469 59.2219 71.6868 59.0741ZM80.6796 78.2193C80.2915 78.1931 80.2915 78.1931 80.2714 78.5535C80.5071 78.5566 80.6673 78.4888 80.6796 78.2193ZM89.2996 72.5193C89.1287 72.8628 89.1286 72.8628 89.4012 73.1338C89.3612 72.8951 89.3381 72.7596 89.2996 72.5193ZM87.5439 75.3408C87.6424 75.5872 87.701 75.732 87.8011 75.9815C87.9135 75.6534 87.9258 75.4825 87.5439 75.3408Z" fill="white"/>
<path d="M38.9378 13.909C38.1801 14.3464 37.487 14.8669 36.8818 15.5045C36.6754 15.7217 36.5845 15.9573 36.5845 16.2669C36.5922 23.2913 36.5922 30.3174 36.583 37.3418C36.583 37.6991 36.7232 37.8978 37.0096 38.0626C37.8105 38.5277 38.6853 38.7526 39.5924 38.8696C41.6608 39.1361 43.7107 38.9512 45.7498 38.5832C46.0085 38.537 46.2657 38.4892 46.5352 38.4399C46.7971 41.0396 47.0573 43.6116 47.3238 46.2468C47.2298 46.293 47.0897 46.3885 46.9341 46.4331C46.027 46.6949 45.1152 46.946 44.205 47.1986C44.1142 47.2232 44.0017 47.2663 43.9278 47.234C43.3857 46.9922 42.936 47.2709 42.4462 47.4327C42.1382 47.5343 41.7778 47.485 41.4436 47.502C41.6022 46.735 41.7886 46.0204 41.8856 45.295C41.9426 44.873 41.8641 44.431 41.8271 44.0013C41.8086 43.7857 41.6146 43.5855 41.7794 43.3544C41.5191 43.1203 41.5945 42.6691 41.1464 42.3734C41.2881 43.0033 40.9646 43.3282 40.6782 43.664C39.9358 44.5372 39.0456 45.2395 38.0923 45.8664C36.9958 46.5856 35.8299 47.1678 34.6132 47.6514C34.5115 47.6914 34.4037 47.716 34.1989 47.7776C34.4392 47.368 34.2975 47.0291 34.2605 46.6795C34.2389 46.4685 34.3837 46.2113 34.5192 46.0234C34.6594 45.8279 34.644 45.6923 34.4792 45.4983C34.2066 45.8402 33.9402 46.1713 33.6753 46.5024C33.8924 46.8798 33.4319 46.8844 33.3611 47.0569C33.4843 47.368 33.5952 47.6514 33.7353 48.004C32.9838 48.2227 32.323 48.4599 31.6439 48.6016C30.4225 48.8557 29.1905 49.0575 27.9614 49.2716C27.6226 49.3301 27.3084 49.3178 27.0019 49.079C26.8279 48.9435 26.5476 48.942 26.2735 48.8711C26.0471 48.4399 25.8161 47.9347 25.1369 47.85C25.0876 48.5539 25.642 48.7756 26.0594 49.0806C25.9285 49.3917 25.6928 49.4317 25.4403 49.4225C24.0603 49.3701 22.6804 49.3147 21.3004 49.2561C21.0925 49.2469 20.8877 49.2053 20.6798 49.1853C20.3055 49.1468 19.9251 49.1345 19.7157 48.731C19.6818 48.6647 19.5601 48.6432 19.4354 48.58C19.3784 48.711 19.3306 48.8188 19.2629 48.9712C17.578 48.7156 15.9177 48.3182 14.2791 47.7268C14.641 47.6929 15.0029 47.6621 15.3648 47.6252C16.851 47.4758 18.3527 47.4111 19.8204 47.1508C21.5299 46.8459 23.2148 46.39 24.7703 45.5583C27.1128 44.3062 28.6622 42.415 29.4292 39.8799C29.5154 39.595 29.5478 39.287 29.557 38.9882C29.5801 38.269 29.5647 37.5497 29.5893 36.8305C29.6001 36.5209 29.4831 36.1852 29.7249 35.9034C29.751 35.8726 29.7464 35.7894 29.7249 35.7447C29.5016 35.255 29.6109 34.7375 29.6047 34.2308C29.5909 33.2836 29.5601 32.3349 29.6155 31.3908C29.6756 30.3528 29.249 29.555 28.539 28.8727C28.2556 28.6001 27.9214 28.3784 27.5795 28.1088C27.6858 28.0441 27.8028 27.9764 27.9152 27.9009C28.9641 27.1955 29.6633 26.29 29.6017 24.9485C29.5878 24.6467 29.6001 24.3448 29.6001 24.0044C29.7695 23.9598 29.9266 23.9166 30.1669 23.8535C30.1977 23.5716 30.2331 23.2482 30.2685 22.9263C30.0129 22.8262 29.8234 22.7508 29.5878 22.6584C29.5878 22.3796 29.594 22.0978 29.5863 21.8159C29.5539 20.5869 29.577 19.3517 29.4692 18.1289C29.2859 16.0759 28.5713 14.1908 27.4239 12.4767C27.2437 12.2071 27.1513 11.97 27.1883 11.608C27.2576 10.9365 26.9265 10.3913 26.3613 9.94933C26.1118 10.3883 26.2581 10.7286 26.4983 11.1907C25.9716 10.7379 25.5619 10.339 25.1045 10.0063C24.6317 9.66287 24.1296 9.35331 23.6091 9.08841C23.0978 8.82813 22.5479 8.64331 21.9042 8.38149C23.9818 7.69152 25.9038 7.8979 27.8043 8.56015C27.8706 8.81735 27.9276 9.0345 27.9845 9.25166C28.1031 9.70907 28.0893 9.73064 27.6164 9.87387C27.5672 9.88927 27.5256 9.92623 27.4501 9.97089C27.7936 10.4499 28.2171 10.071 28.693 10.1865C28.7623 10.2327 28.9394 10.3528 29.1504 10.493C29.232 10.0772 28.8177 10.071 28.7207 9.78454C29.0195 9.63361 29.3044 9.43493 29.6186 9.35485C29.7803 9.3148 30.0021 9.47652 30.1854 9.57046C31.3805 10.185 32.5679 10.8118 33.7646 11.4232C35.0999 12.1055 36.4737 12.6861 37.9691 12.9295C38.0415 12.9418 38.1108 12.9695 38.2017 12.9972C38.2017 13.2452 38.2017 13.4839 38.2017 13.7811C38.4465 13.8273 38.696 13.8735 38.9455 13.9197L38.9378 13.909ZM32.5448 17.3835C32.8944 17.7469 33.2009 18.0657 33.5444 18.423C33.529 18.5586 33.5074 18.7573 33.4858 18.9513C34.0495 19.1823 34.5855 19.3995 35.1107 19.6151C35.0552 19.8215 35.0182 19.9585 34.9828 20.0925C35.26 20.2234 35.4941 20.3328 35.7421 20.4498C35.7421 20.6485 35.7421 20.8179 35.7421 20.9873C35.7375 25.831 35.7329 30.6747 35.7298 35.5183C35.7298 35.7447 35.7205 35.9742 35.7529 36.1975C35.7975 36.504 35.8345 36.8243 36.0917 37.0846C36.2211 36.5286 36.2103 17.3065 36.0794 16.8475C35.7128 17.5436 35.8099 18.2875 35.7744 19.1484C35.5604 18.8943 35.4541 18.748 35.3278 18.6202C35.1692 18.46 35.0198 18.2351 34.8257 18.1782C34.47 18.0734 34.2775 17.8301 34.0526 17.5775C33.6491 17.1232 33.1701 17.057 32.5448 17.3835ZM31.881 43.3221C31.6254 43.2897 31.6285 43.0634 31.6916 42.8493C31.0725 42.7461 31.0078 43.3883 30.5581 43.5577C30.7752 44.2123 30.2547 44.6712 30.1345 45.2426C29.9097 45.429 29.5154 45.3997 29.4045 45.7878C29.9744 45.9557 30.3702 45.6184 30.823 45.4336C30.8507 44.8468 31.342 44.6343 31.6038 44.411C31.7101 43.9905 31.7871 43.6902 31.881 43.3221ZM31.667 19.2439C31.7717 19.0791 31.8256 18.9944 31.8841 18.9005C32.1767 18.9944 32.3338 19.13 32.226 19.4472C32.1521 19.6613 32.109 19.8846 32.2938 20.091C32.3754 20.0525 32.4493 20.0171 32.5248 19.9816C32.5941 20.1911 32.6572 20.3882 32.7589 20.6947C33.0053 20.4129 33.167 20.2265 33.3857 19.977C33.1439 19.9401 33.0069 19.9185 32.8821 19.8985C32.8636 19.6752 32.8913 19.4364 32.8128 19.2393C32.7266 19.0206 32.5433 18.8404 32.3908 18.6294C32.454 18.4615 32.5202 18.2891 32.5895 18.1027C32.3723 17.9225 32.2368 17.6268 31.8856 17.7593C31.7778 18.5355 31.7778 18.5355 31.4945 18.7542C31.5391 18.8805 31.5884 19.0175 31.667 19.2439ZM22.8929 48.0333C23.0069 48.3151 23.0346 48.5739 23.1778 48.7002C23.4397 48.9327 23.7708 49.0883 24.1835 49.3439C23.9987 48.8403 23.857 48.4538 23.7015 48.0318C23.5059 48.0333 23.2687 48.0333 22.8929 48.0333ZM43.7415 44.6774C43.7045 44.699 43.666 44.7205 43.629 44.7436C43.7137 45.0963 43.7969 45.4505 43.8893 45.8386C44.0957 45.6538 44.2497 45.5152 44.4515 45.335C44.1943 45.0963 43.9679 44.8868 43.7415 44.6774ZM36.1287 40.0062C36.2103 39.2362 36.0671 39.0606 35.5095 39.2161C35.5465 39.5873 35.7575 39.8137 36.1287 40.0062ZM24.51 9.39335C24.9536 9.53504 24.9536 9.53504 25.2216 9.29632C25.0475 9.18697 24.8843 9.08378 24.6902 8.96057C24.6178 9.13307 24.5639 9.26244 24.51 9.39335ZM31.382 17.3681C31.2773 16.9738 31.094 16.7782 30.7028 16.6442C30.8322 17.0077 30.8738 17.3188 31.382 17.3681ZM24.0264 47.7484C23.7908 47.5836 23.6784 47.3125 23.358 47.3218C23.3318 47.7807 23.5013 47.8962 24.0264 47.7484ZM30.9046 28.1797C30.4826 28.3121 30.6074 28.6171 30.5904 28.9574C30.9169 28.7326 31.0278 28.517 30.9046 28.1797ZM44.1573 39.193C44.1157 39.2054 44.0741 39.2177 44.0325 39.23C43.9894 39.7305 43.9971 39.7429 44.433 39.846C44.3313 39.6073 44.2435 39.3994 44.1573 39.193ZM33.0084 37.7268C32.7327 37.3803 32.7327 37.3803 32.3785 37.6452C32.5849 37.6714 32.7404 37.6914 33.0084 37.7268ZM24.929 47.2879C24.835 47.4542 24.7626 47.5975 24.9336 47.7314C24.9659 47.7561 25.0984 47.7176 25.123 47.6745C25.2231 47.4912 25.1569 47.3649 24.929 47.2879Z" fill="white"/>
<path d="M65.3261 78.8848C65.1905 78.6415 65.2583 78.2395 64.8394 78.4967C64.8702 78.7046 64.901 78.9064 64.9349 79.1374C63.8275 79.9259 62.5477 80.1323 61.1908 80.3371C61.1908 75.3718 61.1908 70.4604 61.1908 65.5043C60.3807 65.2486 59.6138 65.0053 58.7652 64.7373C58.7528 65.0099 58.7359 65.2255 58.7359 65.4396C58.7344 69.889 58.7344 74.3368 58.7344 78.7862C58.7344 78.9372 58.7421 79.0896 58.7282 79.2406C58.7066 79.4824 58.565 79.4993 58.3232 79.3915C58.3232 79.1836 58.3232 78.9603 58.3232 78.7369C58.3232 74.2691 58.3232 69.8012 58.3232 65.3333C58.3232 65.1624 58.3216 64.993 58.3185 64.822C58.3124 64.5633 58.146 64.5186 57.8704 64.5309C57.8704 67.0829 57.8704 69.6272 57.8704 72.1945C57.6563 72.233 57.4977 72.2623 57.3513 72.2885C57.3513 72.6997 57.3513 73.0816 57.3513 73.5006C57.5377 73.4913 57.6778 73.4836 57.8319 73.4744C57.8319 75.4781 57.8319 77.4633 57.8319 79.4439C57.7795 79.4593 57.7394 79.487 57.7117 79.4777C56.204 78.9587 54.7362 78.3565 53.4394 77.4047C53.287 77.2939 53.0683 77.243 53.0821 76.9504C53.0868 76.8549 52.8126 76.7471 52.6324 76.6208C52.6324 76.4175 52.6324 76.1927 52.6324 75.9663C52.6401 67.9392 52.6324 59.9121 52.674 51.8866C52.6802 50.656 52.1411 49.9322 51.0908 49.4686C50.3392 49.1359 49.5414 48.9711 48.7329 48.8726C46.8447 48.64 44.955 48.7032 43.0683 48.9095C42.6001 48.9604 42.1319 49.022 41.6406 49.082C42.1658 48.4937 44.1279 47.7899 45.8682 47.5573C45.899 47.7298 45.9283 47.9038 45.9591 48.0763C45.9899 48.0825 46.0223 48.0902 46.0531 48.0964C46.1054 47.9162 46.1593 47.7344 46.2271 47.5019C46.4981 47.4695 46.7938 47.4156 47.0926 47.4018C52.9204 47.1584 58.1845 48.8233 62.9481 52.1361C64.1987 53.0062 65.2829 54.0597 66.1362 55.3395C66.3641 55.6814 66.4734 56.0295 66.4719 56.4515C66.4349 63.4929 66.4088 70.5358 66.3903 77.5788C66.3887 77.913 66.3086 78.1548 66.0268 78.3427C65.7912 78.4967 65.5802 78.6846 65.3261 78.8848ZM61.1308 62.1668C61.1493 61.9589 61.1724 61.8126 61.1724 61.6678C61.1754 60.117 61.1847 58.5645 61.1708 57.0136C61.16 55.6814 60.142 54.6696 58.7636 54.6003C58.7636 56.8658 58.7636 59.1297 58.7636 61.4307C59.5506 61.6725 60.3191 61.9127 61.1308 62.1668ZM58.3247 61.2043C58.3247 61.0056 58.3247 60.8038 58.3247 60.6021C58.3247 59.3931 58.3247 58.1856 58.3247 56.9767C58.3247 56.1835 58.3309 55.3903 58.3216 54.5972C58.317 54.2091 58.3047 54.2091 57.8473 54.1428C57.8473 54.3354 57.8473 54.5217 57.8473 54.7096C57.8457 55.8801 57.8457 57.0506 57.8442 58.2211C57.8442 59.0712 57.8488 59.9198 57.8396 60.77C57.838 61.0641 57.9181 61.2505 58.3247 61.2043ZM63.7444 59.1652C64.4482 59.2545 64.9226 58.8032 64.8117 58.1687C64.7639 57.8946 64.5283 57.6127 64.3173 57.6173C64.0339 57.6235 63.8676 57.8206 63.7952 58.0624C63.6889 58.4213 63.635 58.7955 63.7444 59.1652ZM64.9349 73.5729C64.7023 73.8348 64.6515 74.0704 64.6854 74.3184C64.7208 74.5786 64.7793 74.8374 64.844 75.093C64.9472 75.5042 65.015 75.9078 64.7223 76.2835C65.2691 76.3898 65.4831 76.2512 65.517 75.7815C65.5417 75.4488 65.4523 75.15 65.2337 74.8882C64.941 74.5355 64.9472 74.2829 65.2491 73.9349C65.1582 73.8286 65.0642 73.7223 64.9349 73.5729ZM55.7727 50.1401C56.0777 50.7438 57.644 52.0206 58.2939 52.2038C58.3894 51.8958 58.1753 51.7818 57.9566 51.7233C57.6763 51.6479 57.5131 51.46 57.3467 51.2505C57.1234 50.9702 56.897 50.6899 56.6413 50.4404C56.4119 50.2171 56.1347 50.0538 55.7727 50.1401ZM54.9241 62.9446C54.2788 62.9076 53.7675 62.9939 53.2685 63.1525C53.0667 63.2172 52.9066 63.3327 52.9589 63.6438C53.5858 63.3604 54.2742 63.4005 54.9241 62.9446ZM64.4805 56.2821C64.6114 55.6845 64.4836 55.4596 63.8968 55.2548C63.7628 55.9586 63.8891 56.1804 64.4805 56.2821ZM65.5294 66.9335C65.785 66.6825 65.6064 66.4961 65.497 66.3175C65.3522 66.0834 65.1905 65.86 65.0134 65.5998C64.9734 65.8878 64.9364 66.1604 64.9041 66.3975C65.1228 66.5854 65.3045 66.741 65.5294 66.9335ZM65.1536 63.0447C64.9102 63.2711 64.7023 63.4636 64.4744 63.6746C64.6191 63.921 64.8086 64.0797 65.1536 64.0658C65.1536 63.7085 65.1536 63.3866 65.1536 63.0447ZM56.8031 77.1922C56.666 76.895 56.4889 76.7533 56.13 76.7671C56.207 76.9828 56.2671 77.1475 56.3349 77.337C56.5027 77.2846 56.6367 77.243 56.8031 77.1922ZM54.6623 71.2843C54.6161 71.4337 54.5915 71.4984 54.5745 71.5662C54.5375 71.7171 54.5899 71.8265 54.7485 71.8542C54.8132 71.865 54.9395 71.8496 54.9411 71.8342C54.9565 71.7171 54.9719 71.5893 54.9349 71.4815C54.9133 71.4152 54.8009 71.3798 54.6623 71.2843ZM56.0453 76.4637C56.2163 76.4838 56.3687 76.5022 56.5643 76.5253C56.5412 76.3236 56.5243 76.1742 56.5043 76.0002C56.2132 76.0417 56.0576 76.148 56.0453 76.4637ZM64.9734 73.5822C65.2383 73.459 65.4308 73.3958 65.2583 73.1479C65.2152 73.0863 65.1089 73.0709 64.9734 73.0062C64.9734 73.2141 64.9734 73.3527 64.9734 73.5822ZM61.696 56.7287C61.7591 56.4191 61.6791 56.2682 61.4496 56.1558C61.351 56.4068 61.4142 56.5654 61.696 56.7287ZM64.7039 54.6572C64.7531 54.6295 64.8009 54.6018 64.8502 54.5741C64.9241 54.2922 64.804 54.1736 64.3927 54.1783C64.5267 54.3862 64.6145 54.5217 64.7039 54.6572ZM64.4774 61.6971C64.4051 61.7141 64.3327 61.731 64.2603 61.7479C64.305 61.8835 64.345 62.019 64.3989 62.1499C64.402 62.1576 64.5406 62.1253 64.5391 62.1206C64.5252 61.979 64.5006 61.8388 64.4774 61.6971ZM56.2625 75.4888C56.3195 75.823 56.4766 75.8492 56.7122 75.7584C56.6783 75.5012 56.5397 75.4426 56.2625 75.4888ZM54.3327 76.2373C54.6746 76.5377 54.6746 76.5377 55.0658 76.2912C54.7732 76.2697 54.5853 76.2558 54.3327 76.2373ZM56.7938 73.9164C56.3503 73.6253 56.3503 73.6253 56.2933 74.0596C56.4442 74.018 56.5782 73.9795 56.7938 73.9164Z" fill="white"/>
<path d="M45.8375 17.8915C46.1008 17.8161 46.3318 17.7483 46.5998 17.6713C46.5351 17.0029 46.318 16.3791 46.0577 15.6799C45.4201 16.3622 45.9037 17.1461 45.6511 17.8207C45.5433 17.8145 45.4386 17.8084 45.3 17.8007C45.3 17.0244 45.2938 16.2713 45.3077 15.5197C45.3092 15.4304 45.4016 15.3211 45.4801 15.2579C45.5649 15.1902 45.685 15.164 45.7897 15.1224C48.2909 14.1075 50.6503 12.8322 52.8558 11.2783C53.2577 10.9949 53.652 10.9117 54.1325 10.9764C55.9129 11.2167 57.6933 11.4708 59.4813 11.6448C61.4712 11.8389 63.4564 11.7295 65.4015 11.2398C69.1163 10.3018 71.6051 7.98858 72.9743 4.43553C73.4949 3.08639 73.8029 1.68489 74.0015 0.257201C74.0139 0.170955 74.0262 0.0831662 74.0739 0C74.154 1.11812 74.1217 2.23163 73.9784 3.34051C73.7767 4.90681 73.387 6.42382 72.7078 7.85459C71.4357 10.539 69.3858 12.4164 66.6937 13.6223C64.8271 14.4586 62.8603 14.936 60.8305 15.0885C59.3227 15.2025 57.8057 15.1748 56.2933 15.2194C55.6341 15.2394 54.9765 15.2826 54.2711 15.318C54.2449 15.5367 54.2111 15.6984 54.2095 15.8601C54.2064 16.4284 54.2234 16.9967 54.2126 17.5635C54.208 17.7837 54.1464 18.0024 54.1202 18.2226C54.1079 18.3305 54.114 18.4413 54.1233 18.5507C54.1541 18.9619 54.1987 19.3716 54.2172 19.7828C54.2218 19.8875 54.1679 20.003 54.1156 20.1C53.9908 20.3311 53.9015 20.5374 54.1679 20.7484C54.2326 20.7993 54.2249 20.961 54.2265 21.0719C54.2311 22.1684 54.2295 23.2665 54.2295 24.4016C54.0802 24.3677 53.9554 24.3384 53.6797 24.2753C54.2126 24.9021 54.4837 25.4689 54.0062 26.1712C54.2865 26.4684 54.2372 26.8889 54.2357 27.3001C54.2342 28.8525 54.2265 30.405 54.2372 31.9574C54.2388 32.2623 54.1448 32.4887 53.9539 32.7228C52.7018 34.2568 51.2417 35.5197 49.3982 36.2959C49.2935 36.3406 49.1918 36.3898 49.0856 36.4314C49.0532 36.4438 49.0116 36.4391 48.9685 36.4422C48.699 36.2189 48.6312 35.9679 48.7036 35.5982C48.8499 34.839 48.9839 34.0674 49.0024 33.2973C49.0455 31.5369 49.0178 29.7766 49.0147 28.0147C49.0147 27.8853 48.9916 27.756 48.9747 27.5788C48.5619 27.6774 48.1753 27.7698 47.7888 27.8622C47.7703 27.8237 47.7518 27.7852 47.7333 27.7467C47.8211 27.6358 47.8997 27.5172 47.9967 27.4156C48.6112 26.7641 48.5943 26.6332 47.7888 26.1496C47.527 26.5239 47.3498 26.9274 47.3514 27.3894C47.1774 27.4603 47.0249 27.5219 46.8832 27.5804C46.7661 27.8499 47.0079 28.2088 46.6106 28.3843C46.5382 28.4167 46.5705 28.7031 46.5705 28.8725C46.569 31.3906 46.5551 33.9087 46.5813 36.4268C46.586 36.915 46.4242 37.1876 45.9976 37.4002C45.2584 37.7667 44.4852 37.9993 43.6736 38.1055C42.1766 38.3011 40.6904 38.2672 39.2304 37.836C39.0502 37.7821 38.8731 37.7128 38.6975 37.642C38.5943 37.6004 38.4973 37.5419 38.3386 37.4602C38.4896 37.3601 38.6005 37.2816 38.7175 37.2092C38.9901 37.0398 39.2719 36.8827 39.5368 36.7025C40.0743 36.3359 40.3346 35.8077 40.3777 35.167C40.3901 34.9776 40.3916 34.7881 40.3916 34.5987C40.3947 29.7134 40.3978 24.8297 40.4008 19.9445C40.4008 19.7751 40.4008 19.6072 40.4008 19.4039C39.0609 19.0543 37.6671 18.8264 36.9248 17.4895C38.8915 17.0845 40.8121 16.6887 42.8019 16.279C42.9451 16.316 42.6956 16.8473 43.19 16.6548C43.1392 16.4916 43.0883 16.3268 43.0237 16.1235C43.5904 15.934 44.1556 15.7446 44.7809 15.5351C44.861 16.1943 44.9596 16.7903 44.9996 17.391C45.0597 18.2596 45.0982 19.1298 45.109 19.9999C45.1259 21.4415 45.1891 22.8723 45.6357 24.2645C45.7327 24.5664 45.802 24.9268 45.5495 25.2286C45.5171 25.2687 45.4879 25.3334 45.4956 25.3811C45.6157 26.1234 45.5017 26.9012 45.8298 27.6127C45.8375 27.6297 45.8544 27.642 45.8729 27.662C46.2102 27.4048 46.164 27.0352 46.1578 26.6825C46.1501 26.1773 46.127 25.6706 46.1285 25.1655C46.1332 23.1033 46.1455 21.0395 46.1532 18.9773C46.1532 18.9403 46.1362 18.9049 46.1147 18.8202C45.7466 19.0697 45.7327 19.4486 45.7035 19.7997C45.6727 20.1724 45.6958 20.5513 45.6172 20.9302C45.5972 20.77 45.5479 20.6067 45.5633 20.4497C45.6465 19.5995 45.7435 18.7571 45.8375 17.8915ZM46.5644 18.2581C46.589 20.502 46.5428 22.7028 46.5936 24.9761C47.45 24.7081 48.22 24.4663 48.967 24.2322C49.0825 23.3743 49.0394 17.582 48.9115 17.1569C48.1261 17.5265 47.3437 17.8931 46.5644 18.2581ZM45.973 28.0393C45.879 28.3689 45.7096 28.697 45.705 29.0281C45.6804 30.7499 45.6911 32.4718 45.7081 34.1936C45.7127 34.6834 45.7605 35.1762 45.8267 35.6629C45.8621 35.9263 45.8652 36.222 46.1085 36.4592C46.224 35.6121 46.184 28.4506 45.973 28.0393ZM51.0292 20.2171C51.2694 20.2633 51.4774 20.3049 51.6991 20.348C51.3757 19.6349 51.3126 19.5903 50.8136 19.732C50.8813 19.886 50.9491 20.0369 51.0292 20.2171ZM42.1104 18.7648C41.733 19.022 41.6684 19.1498 41.7793 19.35C41.8963 19.561 42.0442 19.5733 42.4092 19.3824C42.3152 19.1898 42.2213 18.9958 42.1104 18.7648ZM50.2191 23.2619C50.3639 22.6828 50.3577 22.6597 49.9973 22.4472C49.9326 22.6982 49.871 22.9354 49.7986 23.2095C49.9711 23.2296 50.0743 23.2434 50.2191 23.2619ZM43.7398 17.2324C43.997 17.18 44.171 17.1461 44.4529 17.0891C44.265 16.8258 44.1356 16.644 43.9431 16.3745C43.863 16.7087 43.8137 16.9197 43.7398 17.2324ZM43.6197 30.4619C43.4996 30.0692 43.4149 29.6657 42.9682 29.3993C43.056 29.8875 43.1915 30.2648 43.6197 30.4619ZM45.0628 35.2363C45.3415 35.1747 45.3816 35.0007 45.3462 34.8081C45.3107 34.611 45.2399 34.4216 44.9396 34.4062C44.9827 34.6942 45.0212 34.9545 45.0628 35.2363ZM51.0615 27.1076C51.3634 27.1076 51.5128 27.1076 51.7376 27.1076C51.6683 26.8904 51.6175 26.7364 51.5297 26.4653C51.3495 26.7118 51.2494 26.8504 51.0615 27.1076ZM50.8382 20.7069C51.0138 20.6191 51.1293 20.5605 51.3434 20.4527C51.0831 20.3773 50.9245 20.3326 50.6996 20.2664C50.7566 20.4512 50.7889 20.5498 50.8382 20.7069ZM45.226 35.3718C44.9411 35.6691 44.9426 35.6845 45.226 36.0325C45.226 35.8 45.226 35.609 45.226 35.3718ZM45.186 33.0601C45.1367 32.6782 45.1367 32.6782 44.958 32.5303C44.9041 32.8614 44.9041 32.8614 45.186 33.0601Z" fill="white"/>
<path d="M46.8726 38.3411C48.6314 37.9484 50.1638 37.2276 51.5915 36.2759C53.4874 35.013 54.9458 33.3928 55.6451 31.1858C55.8591 30.5112 55.9793 29.8074 56.1394 29.1282C56.9834 30.2109 56.871 34.075 56.0809 36.1973C55.9331 36.1819 55.776 36.1634 55.6189 36.1465C55.5619 36.6208 55.5619 36.6208 55.9238 36.8642C55.8114 37.1691 55.7051 37.4879 55.5788 37.799C54.3437 40.8485 52.4077 43.3265 49.614 45.1023C49.3999 45.2378 49.2089 45.4365 48.8901 45.3132C48.8023 45.2794 48.5544 45.4349 48.5112 45.552C48.3742 45.9231 48.0507 45.937 47.7104 46.091C47.5425 45.0175 47.3423 44.0011 47.4855 42.9615C47.5364 42.5949 47.4886 42.2669 47.3746 41.9127C47.2083 41.3952 47.1005 40.8515 47.0297 40.311C46.9449 39.678 46.9249 39.0357 46.8726 38.3411ZM49.9944 39.9259C49.7695 40.0122 49.5601 40.0923 49.3475 40.1754C49.3829 40.5728 49.5955 40.7206 49.962 40.7483C50.0236 40.465 50.3055 40.2201 49.9944 39.9259ZM54.761 34.2013C54.9582 33.9395 54.952 33.7531 54.6917 33.5529C54.5008 33.8132 54.5993 33.9872 54.761 34.2013Z" fill="white"/>
<path d="M38.9517 13.9181C38.8654 13.7887 38.7807 13.6594 38.6914 13.5254C38.9394 12.8677 39.4969 12.9602 40.0775 13.0556C39.6956 13.339 39.3136 13.6209 38.9347 13.9058C38.9378 13.9089 38.9517 13.9181 38.9517 13.9181Z" fill="white"/>
<path d="M69.3657 69.0232C69.6506 69.2835 69.6506 69.2835 69.3657 69.5792C69.3657 69.379 69.3657 69.2357 69.3657 69.0232Z" fill="white"/>
<path d="M68.522 68.5165C68.6144 68.4934 68.7052 68.4718 68.7976 68.4487C68.8084 68.4965 68.8177 68.5458 68.8285 68.5935C68.733 68.6104 68.639 68.6274 68.5435 68.6459C68.5358 68.6012 68.5297 68.5596 68.522 68.5165Z" fill="white"/>
<path d="M35.6112 19.7136C35.5804 19.5981 35.5496 19.481 35.5188 19.3655C35.5573 19.3532 35.5943 19.3424 35.6328 19.3301C35.6759 19.444 35.719 19.558 35.7606 19.672C35.7113 19.6858 35.6605 19.6997 35.6112 19.7136Z" fill="white"/>
</svg>
