<svg width="85" height="85" viewBox="0 0 85 85" fill="none" xmlns="http://www.w3.org/2000/svg">
<path d="M18.3457 18.1271C16.0046 20.4905 14.0169 23.009 12.4811 25.8638C10.5683 29.4175 9.25976 33.1854 8.60814 37.1713C8.17197 39.8395 8.08263 42.5235 8.32174 45.2194C8.65149 48.9176 9.58163 52.4621 11.0084 55.8805C11.2908 56.5584 11.1989 57.2284 11.1161 57.9103C10.8612 60.0083 10.605 62.1077 10.3449 64.2058C10.1465 65.8112 9.9416 67.4166 9.73665 69.022C9.72614 69.1009 9.69855 69.1771 9.6644 69.3097C9.43712 69.026 9.23611 68.779 9.03905 68.5294C5.31717 63.7933 2.72119 58.5041 1.25767 52.6631C0.498314 49.631 0.0529507 46.5515 0.0056554 43.4222C-0.169074 31.8151 3.70519 21.736 11.6074 13.2649C17.6113 6.82877 25.0196 2.77845 33.6221 0.919487C36.2194 0.358512 38.8469 0.0432096 41.5059 0.00511066C51.9148 -0.147285 61.1479 3.10952 69.2196 9.64677C73.9597 13.4856 77.6566 18.1796 80.3577 23.6501C82.306 27.5953 83.5895 31.7507 84.2398 36.1032C84.6169 38.623 84.7916 41.1546 84.6983 43.698C84.3712 52.6855 81.5558 60.8176 76.1155 67.9842C70.1261 75.8759 62.283 81.0219 52.6663 83.4313C49.3477 84.2629 45.9688 84.661 42.5464 84.7267C36.2811 84.8462 30.3075 83.6074 24.6399 80.9312C21.0494 79.2365 17.7768 77.0491 14.7683 74.4662C13.9236 73.741 13.1196 72.9712 12.2906 72.2276C11.9451 71.9189 11.8032 71.5536 11.8623 71.0912C12.0988 69.2349 12.3261 67.3772 12.556 65.5195C12.7898 63.6317 13.0237 61.7451 13.2562 59.8573C13.5111 57.7894 13.762 55.7202 14.0156 53.6524C14.2507 51.7343 14.4846 49.8162 14.7197 47.8994C14.9707 45.8513 15.2229 43.8032 15.4738 41.755C15.709 39.8369 15.9428 37.9188 16.178 36.0021C16.4289 33.9539 16.6825 31.9058 16.9334 29.8576C17.1896 27.7687 17.4432 25.6799 17.698 23.5923C17.8885 22.0355 18.0803 20.48 18.2695 18.9232C18.3023 18.6841 18.3181 18.445 18.3457 18.1271ZM32.1034 74.9418C43.5186 78.8345 59.7369 76.2227 69.8121 62.825C78.6879 51.0209 77.6474 36.2517 73.3015 28.1064C73.2962 28.1418 73.2857 28.1708 73.2897 28.197C73.3015 28.2772 73.3146 28.3573 73.3356 28.4348C73.6391 29.6119 73.7665 30.8075 73.5971 32.0135C73.4407 33.1341 73.2647 34.2534 73.044 35.3636C72.2478 39.3561 70.4427 42.8218 67.5459 45.6976C66.3583 46.876 65.0629 47.9257 63.6716 48.8559C59.7317 51.4899 55.3464 52.8352 50.6746 53.3423C48.5004 53.5775 46.3156 53.5933 44.1308 53.5906C41.5585 53.588 38.9875 53.5893 36.4151 53.5906C35.9514 53.5906 35.4876 53.6011 35.0225 53.6051C34.8215 53.6077 34.7283 53.6826 34.702 53.9073C34.5456 55.2736 34.3709 56.6386 34.2014 58.0035C33.9269 60.2212 33.6497 62.4401 33.3751 64.6577C33.1202 66.7151 32.864 68.7737 32.6105 70.8311C32.4423 72.1961 32.2742 73.5611 32.1034 74.9418ZM36.1576 39.9788C36.7514 40.0064 37.3032 40.0419 37.8563 40.0537C38.9586 40.0773 40.0608 40.0957 41.163 40.0997C42.0222 40.1023 42.8814 40.0905 43.7406 40.0695C45.2475 40.0327 46.7307 39.8448 48.1798 39.4073C51.4787 38.4115 53.4138 35.4096 52.8923 32.0306C52.6032 30.1624 51.501 28.934 49.7445 28.3153C48.482 27.8699 47.142 27.8646 45.8256 27.8581C40.6126 27.8292 35.3983 27.8463 30.1853 27.8463C30.0868 27.8463 29.9895 27.8463 29.8174 27.8463C29.9107 27.8883 29.9357 27.9041 29.9619 27.9106C32.3228 28.4151 34.6836 28.9209 37.047 29.4188C37.3847 29.4898 37.4635 29.5673 37.4201 29.9062C37.3479 30.4685 37.2743 31.0295 37.2034 31.5918C36.9459 33.6281 36.6884 35.6644 36.4335 37.7021C36.3389 38.4522 36.2509 39.205 36.1576 39.9788ZM24.3246 13.324C24.3391 13.3608 24.3548 13.3976 24.3693 13.433C24.4074 13.437 24.4442 13.4435 24.4823 13.4435C26.6986 13.4475 28.9149 13.4606 31.1312 13.4514C33.8638 13.4409 36.5977 13.391 39.3303 13.3989C42.4781 13.4081 45.6259 13.4173 48.7723 13.5092C51.208 13.5802 53.6424 13.7312 56.0702 13.9349C58.6636 14.153 61.1702 14.7836 63.5718 15.8057C63.6362 15.8333 63.7058 15.849 63.7728 15.87C63.7242 15.7689 63.6611 15.7032 63.5928 15.6454C63.447 15.5206 63.3038 15.3905 63.1475 15.2789C60.4424 13.3542 57.5758 11.7225 54.4872 10.4941C48.9641 8.29755 43.269 7.63279 37.3978 8.60102C33.9453 9.16988 30.6477 10.2472 27.4842 11.7291C26.4161 12.2283 25.3769 12.7906 24.3246 13.324Z" fill="white"/>
</svg>
