<svg width="83" height="101" viewBox="0 0 83 101" fill="none" xmlns="http://www.w3.org/2000/svg">
<path d="M43.3158 62.9499C43.2055 63.0475 43.0942 63.1451 42.985 63.2449C42.6858 63.5148 42.3981 63.7972 42.0873 64.0534C41.4541 64.5742 40.7317 64.9175 39.9316 65.095C39.8497 65.1129 39.7689 65.1349 39.6618 65.1611C39.6555 65.2357 39.6418 65.3166 39.6429 65.3985C39.645 66.8674 39.6502 68.3363 39.6523 69.8053C39.6544 71.249 39.6513 72.6938 39.6523 74.1376C39.6544 76.6649 39.6597 79.1923 39.6628 81.7197C39.6691 86.7912 39.6754 91.8626 39.6817 96.9342C39.6817 97.0423 39.6817 97.1505 39.6817 97.2492C39.5389 97.3048 39.5137 97.1988 39.4707 97.1379C39.163 96.7074 38.8596 96.2748 38.554 95.8422C38.2296 95.3823 37.9062 94.9224 37.5817 94.4635C37.5345 94.3963 37.482 94.3333 37.4053 94.2346C37.3612 94.3302 37.3245 94.3911 37.3035 94.4572C37.1355 94.9875 37.1092 95.5198 37.2069 96.0721C37.3455 96.8565 37.4946 97.6419 37.4893 98.4441C37.4872 98.8126 37.462 99.1822 37.4431 99.5508C37.4389 99.6337 37.42 99.7177 37.3959 99.7965C37.3549 99.9319 37.2573 100 37.1155 100.008C36.9727 100.015 36.8625 99.9529 36.8142 99.8259C36.7701 99.7104 36.7491 99.5833 36.7354 99.4594C36.6514 98.7255 36.5737 97.9915 36.4876 97.2586C36.4656 97.0675 36.432 96.8754 36.3805 96.6906C36.1842 95.9892 36.1296 95.272 36.1222 94.5475C36.1191 94.2619 36.0949 93.9773 36.0781 93.6928C36.054 93.276 35.9091 92.8896 35.761 92.5063C35.6949 92.3341 35.6172 92.1672 35.5405 91.9992C35.4996 91.9078 35.4691 91.8018 35.403 91.7325C35.2003 91.5214 35.1027 91.2526 34.9693 91.0027C34.8874 90.8473 34.7919 90.6972 34.6858 90.5575C34.3551 90.1228 34.017 89.6954 33.681 89.265C33.6505 89.2261 33.6148 89.1936 33.5518 89.1274C33.5455 89.2156 33.534 89.2681 33.5392 89.3196C33.6075 90.105 33.5172 90.8788 33.3733 91.6485C33.3156 91.9561 33.1276 92.0989 32.8693 92.0453C32.6898 92.0086 32.5659 91.8721 32.5827 91.6884C32.611 91.3734 32.5438 91.071 32.4934 90.7644C32.4588 90.5575 32.4283 90.3496 32.4094 90.1417C32.3748 89.7448 32.2194 89.433 31.834 89.2681C31.5988 89.1684 31.4791 88.994 31.5054 88.7326C31.5379 88.4061 31.4056 88.1446 31.1914 87.9136C31.1568 87.8769 31.1253 87.8359 31.0843 87.8065C30.7693 87.5766 30.6286 87.2637 30.616 86.8773C30.6087 86.6515 30.5614 86.4268 30.5457 86.2011C30.5079 85.6519 30.3094 85.17 29.9346 84.771C29.0043 83.7798 28.0855 82.776 27.1269 81.8121C25.68 80.3599 24.1428 79.0054 22.5478 77.7181C20.8153 76.3205 19.0209 75.007 17.1592 73.7859C17.0962 73.7449 17.0343 73.7008 16.9713 73.6588C16.7959 73.5433 16.7088 73.3795 16.7077 73.1716C16.7067 72.9616 16.713 72.7516 16.714 72.5416C16.7151 70.997 16.714 69.4515 16.714 67.9069C16.714 67.8324 16.7077 67.7578 16.7035 67.6591C16.6363 67.6822 16.5817 67.6917 16.5355 67.7169C16.4253 67.7767 16.3171 67.8418 16.2111 67.909C15.495 68.3636 14.7117 68.4949 13.8738 68.4392C13.0401 68.3836 12.2841 68.118 11.5722 67.7001C11.4462 67.6255 11.3128 67.5636 11.1543 67.531C11.1837 67.5751 11.2089 67.6234 11.2435 67.6633C11.4514 67.9006 11.7055 68.0812 11.9943 68.202C12.2799 68.3217 12.5728 68.4277 12.8658 68.5275C13.0779 68.5999 13.2543 68.7112 13.4044 68.8802C14.1615 69.7349 14.9206 70.5876 15.6903 71.4307C15.8908 71.6502 15.9885 71.8811 15.9727 72.1794C15.9549 72.5227 15.9738 72.8681 15.9675 73.2115C15.9591 73.705 16.1764 74.0378 16.6048 74.2941C17.1655 74.629 17.6947 75.0186 18.2323 75.3913C20.4835 76.9548 22.6276 78.6547 24.6562 80.4954C26.017 81.7301 27.36 82.9881 28.5853 84.3625C28.6452 84.4297 28.6998 84.5001 28.7754 84.5903C28.6567 84.6282 28.5853 84.5819 28.5139 84.5578C27.0639 84.0748 25.6495 83.5015 24.2646 82.8547C23.9601 82.713 23.6598 82.5639 23.3574 82.4179C23.1096 82.2982 22.8555 82.2383 22.5772 82.3024C22.3242 82.3612 22.1551 82.5051 22.0858 82.7529C22.0501 82.881 22.026 83.0154 22.0176 83.1487C21.9892 83.5813 21.921 84.0129 22.0711 84.4434C22.1299 84.6114 22.1163 84.8088 22.1152 84.9925C22.1121 85.5679 22.1992 86.1265 22.342 86.6841C22.4155 86.9717 22.4355 87.2836 22.4218 87.5818C22.3882 88.3777 22.4932 89.1558 22.6549 89.9307C22.6707 90.0042 22.6833 90.0787 22.6917 90.1533C22.7116 90.3297 22.6465 90.4662 22.4901 90.5533C22.3305 90.6415 22.173 90.6489 22.0165 90.5397C21.4905 90.1732 21.1702 89.7154 21.1786 89.0308C21.1944 87.7131 21.165 86.3953 21.1566 85.0776C21.1555 84.8455 21.1051 84.6271 21.0001 84.4224C20.536 83.5225 20.262 82.5502 19.9186 81.6052C19.8735 81.4802 19.8588 81.3438 19.822 81.2146C19.7475 80.9542 19.5795 80.8482 19.3285 80.9479C19.1479 81.0193 19.0419 80.9605 18.9012 80.8639C18.4875 80.5794 18.1777 80.2255 18.0034 79.7477C17.9121 79.4978 17.785 79.2606 17.6653 79.0222C17.6328 78.9582 17.575 78.9004 17.5162 78.8552C16.9471 78.4111 16.3749 77.9701 15.8037 77.5302C15.4656 77.2698 15.1264 77.0104 14.7862 76.7521C14.7537 76.7269 14.7106 76.7143 14.6791 76.688C14.5699 76.5998 14.4418 76.5243 14.361 76.4151C13.9095 75.7956 13.3414 75.3042 12.7062 74.8873C12.4636 74.7288 12.2452 74.5523 12.0678 74.3255C11.8651 74.0683 11.6656 73.809 11.463 73.5517C11.4073 73.4813 11.3464 73.4142 11.2698 73.3239C11.253 73.3921 11.2372 73.4288 11.2351 73.4667C11.19 74.2142 11.1564 74.9608 11.4 75.6863C11.4861 75.9446 11.5239 76.2072 11.5144 76.4791C11.5039 76.8151 11.506 77.1511 11.4955 77.4861C11.4924 77.5764 11.4766 77.6709 11.4462 77.7559C11.3968 77.8914 11.2929 77.9722 11.1448 77.989C10.9905 78.0069 10.8592 77.9649 10.771 77.8326C10.7301 77.7706 10.6996 77.6992 10.6776 77.6278C10.5484 77.2162 10.476 76.7972 10.4928 76.3636C10.5022 76.1127 10.4991 75.8596 10.4907 75.6087C10.4802 75.3021 10.413 75.0112 10.2198 74.7592C10.0854 74.5838 10.0602 74.3759 10.0623 74.1618C10.0644 73.935 10.0633 73.7092 10.0612 73.4824C10.0581 73.1716 9.95413 72.8944 9.70633 72.7075C9.24118 72.3568 8.96608 71.8707 8.71513 71.3677C8.63428 71.2049 8.59438 71.0212 8.54188 70.8448C8.48728 70.66 8.44738 70.47 8.38543 70.2883C8.29618 70.0258 8.13133 69.8158 7.88773 69.6772C7.56748 69.4956 7.40158 69.2131 7.39003 68.854C7.37638 68.4119 7.22518 68.0235 7.01518 67.6423C6.16783 66.1072 5.31628 64.5732 4.57288 62.9824C4.07203 61.9093 3.64153 60.8078 3.23833 59.6949C3.05563 59.1908 2.82358 58.7005 2.68603 58.1839C2.03503 55.7342 1.43758 53.273 1.16353 50.7436C0.958777 48.8546 0.835927 46.9625 0.893677 45.0631C0.999727 41.5991 1.50373 38.1961 2.46658 34.8634C2.88658 33.4112 3.38218 31.9853 3.95758 30.5867C4.00798 30.4649 4.06783 30.3484 4.15078 30.172C4.18228 30.2843 4.20118 30.3337 4.20853 30.3841C4.29043 30.9742 4.33978 31.5706 4.45738 32.1533C4.69678 33.3451 4.92988 34.5421 5.39608 35.675C5.53993 36.0236 5.69113 36.3712 5.86333 36.7061C6.18358 37.3309 6.26443 37.9682 6.09223 38.657C5.75833 39.9863 5.55148 41.3398 5.45488 42.7058C5.37403 43.844 5.30998 44.9843 5.28478 46.1246C5.26903 46.8617 5.33728 47.5999 5.36668 48.3381C5.37613 48.5774 5.48428 48.7654 5.64598 48.9386C6.69703 50.0685 7.92238 50.9725 9.26323 51.7243C10.6471 52.5002 12.1266 53.0147 13.6974 53.2142C14.4114 53.3045 15.1275 53.3938 15.8436 53.4673C16.2909 53.5125 16.7319 53.4484 17.1645 53.3329C17.3661 53.2783 17.4868 53.1974 17.6758 53.0011C17.511 52.9286 17.3661 53.0137 17.2191 53.0315C17.0626 53.0504 16.9072 53.0767 16.7298 53.1029C16.7245 53 16.7172 52.9192 16.7172 52.8373C16.714 51.3684 16.7088 49.8983 16.7088 48.4294C16.7088 47.5484 16.7256 46.6665 16.7214 45.7855C16.7172 44.7481 16.5523 43.7296 16.3423 42.7174C15.9727 40.9418 15.5611 39.1778 15.0351 37.4411C14.9994 37.3225 14.9542 37.2059 14.9101 37.0799C14.3526 37.1083 13.8181 37.187 13.2963 37.3603C12.1024 37.7561 11.1564 38.4932 10.3699 39.4571C10.2303 39.6293 10.2355 39.8005 10.3111 39.9968C10.6534 40.8904 10.9894 41.786 11.3223 42.6827C11.3706 42.8108 11.3926 42.9494 11.4273 43.0828C11.4105 43.0922 11.3937 43.1027 11.3758 43.1122C11.3118 43.0639 11.2414 43.0219 11.1847 42.9652C9.13093 40.9187 7.43203 38.6255 6.31903 35.9291C5.68798 34.4003 5.27953 32.8117 5.04748 31.1747C4.90678 30.1814 4.86268 29.186 4.90678 28.1854C4.94248 27.3664 5.10733 26.5705 5.40763 25.8061C5.67118 25.1351 6.13528 24.6416 6.78628 24.3361C8.10928 23.7145 9.49423 23.3501 10.9674 23.369C12.5655 23.39 14.0449 23.8237 15.4204 24.6301C15.5191 24.6878 15.6189 24.7424 15.7281 24.8044C15.7785 24.2783 15.0949 22.5658 14.5752 21.9022C14.5279 21.9442 14.4765 21.9809 14.4366 22.0282C14.2171 22.2823 14.0008 22.5385 13.7835 22.7947C13.6134 22.9952 13.5451 23.0194 13.3036 22.9354C12.9204 22.801 12.5235 22.7369 12.1192 22.717C11.6499 22.6939 11.1795 22.6498 10.7112 22.6666C10.0917 22.6886 9.47323 22.7548 8.85478 22.8146C8.69938 22.8304 8.54923 22.8986 8.39593 22.9396C8.31403 22.9616 8.22898 22.9774 8.13343 22.97C10.0875 20.1067 12.3744 17.5583 15.0277 15.2746C15.0634 15.5066 15.1012 15.6935 15.1201 15.8825C15.2608 17.2937 15.3973 18.706 15.5359 20.1172C15.5485 20.2421 15.5706 20.366 15.5895 20.491C15.6157 20.6684 15.5716 20.827 15.4467 20.9551C15.3175 21.0863 15.18 21.2092 15.0309 21.3488C14.6413 20.9813 14.3484 20.4721 13.7278 20.2631C13.7761 20.3629 13.7898 20.4164 13.8223 20.4553C13.9074 20.5592 13.9893 20.6684 14.0901 20.7556C14.9007 21.4601 15.474 22.3295 15.8436 23.3302C16.0347 23.8489 16.1722 24.3865 16.336 24.9157C16.3696 25.0238 16.4106 25.1299 16.4536 25.2559C16.5744 25.1624 16.5418 25.0637 16.5397 24.9808C16.5219 24.3518 16.5082 23.7218 16.4746 23.0929C16.4211 22.087 16.3686 21.0811 16.2856 20.0773C16.1943 18.9653 16.0756 17.8544 15.9549 16.7446C15.8457 15.7355 15.7197 14.7275 15.5979 13.7195C15.2892 11.168 14.4439 8.79819 13.2081 6.55224C12.177 4.67904 11.002 2.90454 9.68008 1.22559C9.58138 1.10064 9.48898 0.970443 9.39658 0.840243C9.38398 0.823443 9.39133 0.792993 9.38818 0.757293C9.54673 0.719493 9.68743 0.779343 9.82603 0.827643C10.8078 1.17099 11.7948 1.50069 12.7681 1.86504C14.7589 2.61054 16.6972 3.47259 18.5442 4.52994C20.0667 5.40144 21.4716 6.42939 22.7074 7.68099C24.1029 9.09324 24.9996 10.7711 25.408 12.7115C25.6527 13.876 25.7125 15.0572 25.723 16.2416C25.7409 18.265 25.7524 20.2883 25.7671 22.3117C25.7692 22.6193 25.8312 22.6981 26.1157 22.822C26.4349 22.9616 26.7709 22.9543 27.1059 22.948C28.2063 22.9291 29.2237 22.6309 30.1488 22.0292C30.2328 21.9746 30.3157 21.9137 30.384 21.8423C30.7441 21.4664 31.1032 21.0895 31.456 20.7062C31.5631 20.5897 31.6545 20.4563 31.7427 20.3251C31.8078 20.2274 31.8004 20.2222 31.7311 20.0489C31.3857 20.3639 31.0644 20.701 30.6192 20.9267C30.6097 20.8039 30.5992 20.723 30.5971 20.6422C30.5635 19.6352 30.5257 18.6293 30.4995 17.6224C30.4648 16.3141 30.1603 15.0656 29.7036 13.8476C29.23 12.5855 28.5916 11.4053 27.9196 10.2409C27.4503 9.42714 26.9767 8.61444 26.5074 7.79964C26.4507 7.70094 26.4066 7.59489 26.3562 7.49199C26.3677 7.47729 26.3782 7.46154 26.3898 7.44684C26.4696 7.47729 26.5515 7.50564 26.6302 7.53924C27.5983 7.94874 28.5139 8.45904 29.4316 8.96724C31.2618 9.98154 33.0279 11.0966 34.7226 12.323C34.8307 12.4018 34.9431 12.4742 35.047 12.5446C35.5101 12.3451 36.1485 10.9727 36.012 10.3175C35.9049 10.3228 35.7894 10.3165 35.6791 10.3364C35.1342 10.4351 34.5892 10.5328 34.0474 10.6472C33.808 10.6976 33.6106 10.6556 33.4059 10.5233C32.4892 9.93114 31.5694 9.34419 30.6433 8.76774C30.2947 8.55144 29.9241 8.37084 29.565 8.17029C29.2594 7.99914 28.956 7.82169 28.6032 7.61904C28.7596 7.54449 28.8583 7.48149 28.9665 7.44789C29.6794 7.22844 30.3892 6.99429 31.1106 6.80529C32.6446 6.40209 34.1986 6.08709 35.7684 5.85399C36.9402 5.67969 38.1204 5.59149 39.3027 5.53059C40.5606 5.46654 41.8195 5.45814 43.0785 5.50014C44.539 5.54949 45.9933 5.67549 47.4402 5.88339C49.7712 6.21939 52.0507 6.77379 54.2862 7.50879C54.3261 7.52139 54.3639 7.54029 54.4227 7.56549C54.3723 7.61169 54.3366 7.65369 54.2914 7.68204C53.9827 7.88154 53.6961 8.11884 53.3265 8.21229C53.233 8.23644 53.149 8.30574 53.064 8.35929C51.8911 9.09534 50.7172 9.83034 49.5475 10.5706C49.3858 10.6724 49.2252 10.6903 49.0435 10.6577C48.1521 10.4992 47.2627 10.3196 46.366 10.1947C45.5019 10.075 44.6304 10.013 43.762 9.92904C43.6717 9.92064 43.5804 9.92799 43.4659 9.92799C43.4554 10.0466 43.4365 10.1443 43.4397 10.2409C43.4565 10.643 43.4649 11.0473 43.5079 11.4473C43.5268 11.6237 43.5835 11.8222 43.6885 11.9597C44.2975 12.7619 45.0525 13.3667 46.051 13.6198C46.4164 13.7122 46.7451 13.6691 47.037 13.4087C48.6109 12.007 50.3539 10.8436 52.1578 9.76314C54.3943 8.42334 56.7432 7.30929 59.1214 6.25404C62.2588 4.86174 65.4319 3.55764 68.6638 2.40054C70.1328 1.87449 71.6101 1.37364 73.0854 0.865444C73.2639 0.804544 73.4424 0.723693 73.6839 0.754143C73.5894 0.889593 73.5127 1.00509 73.4319 1.11639C72.8565 1.90179 72.258 2.67144 71.7078 3.47364C70.5202 5.20929 69.4713 7.02369 68.6628 8.97039C68.0475 10.4519 67.6516 11.9902 67.4679 13.5851C67.2957 15.0856 67.0983 16.5839 66.9355 18.0854C66.8242 19.1113 66.7507 20.1424 66.6615 21.1703C66.6394 21.4213 66.6195 21.6722 66.5995 21.9232C66.5838 22.1216 66.5008 22.276 66.3181 22.3694C66.2887 22.3841 66.2614 22.4062 66.2341 22.424C66.0378 22.5521 65.8498 22.6991 65.6419 22.8031C65.4351 22.907 65.2062 22.969 64.9794 23.0519C65.1568 23.1643 65.3521 23.1517 65.5317 23.0908C65.7931 23.0036 66.0567 22.906 66.294 22.7695C66.7308 22.5196 67.155 22.2466 67.5729 21.9673C67.7587 21.8434 67.9194 21.6806 68.1126 21.5179C67.9509 21.3404 67.8133 21.1735 67.6579 21.0233C67.4868 20.8585 67.4164 20.6684 67.4395 20.4353C67.5372 19.441 67.6285 18.4466 67.7304 17.4533C67.7976 16.8023 67.8774 16.1524 67.9519 15.5024C67.9593 15.4363 67.9719 15.3712 67.9887 15.2599C70.6431 17.5447 72.9415 20.1025 74.9176 22.9511C74.9082 22.9669 74.8998 22.9826 74.8903 22.9984C74.8116 22.9837 74.7307 22.9784 74.6551 22.9532C73.9947 22.7327 73.3122 22.6561 72.6213 22.6603C72.0091 22.6645 71.3959 22.676 70.7848 22.7128C70.41 22.7348 70.032 22.7779 69.6834 22.9448C69.55 23.0089 69.4209 22.9984 69.319 22.8766C69.1143 22.633 68.9106 22.3883 68.6985 22.1332C68.9137 21.8287 69.1237 21.5305 69.3421 21.2218C69.172 21.1819 69.0786 21.2627 68.9809 21.3467C68.311 21.9169 67.8049 22.6109 67.4374 23.4058C67.2022 23.9161 66.9817 24.4337 66.757 24.9482C66.7287 25.0133 66.7161 25.0858 66.735 25.1834C66.8526 25.1078 66.9712 25.0333 67.0878 24.9566C67.9393 24.3917 68.8444 23.9371 69.8356 23.6735C71.7834 23.1559 73.6912 23.284 75.5581 24.0421C75.7597 24.124 75.9603 24.2122 76.1608 24.2983C76.8885 24.6091 77.3736 25.1488 77.6529 25.8827C77.9857 26.7563 78.118 27.6635 78.1275 28.5949C78.1716 33.0605 76.7131 37.0064 74.0115 40.5229C73.3615 41.3692 72.6475 42.1609 71.8884 42.9116C71.8033 42.9956 71.7277 43.1006 71.5534 43.1227C71.5881 43.0145 71.6122 42.9295 71.6427 42.8476C72.0921 41.618 72.5656 40.3969 72.9877 39.1589C73.5253 37.5839 73.9243 35.9711 74.1543 34.3205C74.1879 34.0801 74.2204 33.8375 74.2383 33.595C74.2666 33.2117 74.127 33.0154 73.7553 32.9093C73.2691 32.7718 72.7756 32.7886 72.2821 32.86C71.1492 33.0248 70.1664 33.5383 69.235 34.1714C69.0723 34.2817 68.9935 34.4465 68.9326 34.6229C68.6491 35.4566 68.3488 36.2861 68.0874 37.1272C67.4332 39.2293 66.9471 41.3723 66.5239 43.5311C66.5029 43.6372 66.4767 43.7422 66.4483 43.864C66.2698 43.7947 66.2404 43.6466 66.2079 43.5017C66.1774 43.3642 66.1501 43.2266 66.1186 43.0744C65.8782 43.277 65.8204 43.5815 65.9811 43.8619C66.1218 44.1086 66.2719 44.3575 66.4578 44.5706C67.9771 46.3042 69.8073 47.5841 72.0039 48.3149C73.0822 48.674 74.1973 48.7948 75.3303 48.7643C75.9256 48.7475 76.522 48.7465 77.1163 48.7055C77.7726 48.6604 78.3994 48.4609 79.0263 48.2719C79.0651 48.2603 79.1019 48.2372 79.1365 48.2152C79.1481 48.2078 79.1523 48.1868 79.1607 48.17C79.1355 48.043 79.0347 48.0598 78.9444 48.0598C78.6084 48.0608 78.2734 48.063 77.9374 48.0619C77.8713 48.0619 77.8062 48.0535 77.7138 48.0472C77.7085 47.9422 77.698 47.8445 77.6991 47.7469C77.7022 47.0581 77.7064 46.3703 77.7138 45.6815C77.7337 43.5574 77.4964 41.4595 77.0785 39.3794C76.9861 38.9185 76.9011 38.4565 76.8087 37.9955C76.7625 37.7645 76.7877 37.5503 76.8885 37.3351C77.0995 36.8867 77.2917 36.431 77.5017 35.9827C77.8051 35.3338 78.0414 34.6628 78.1779 33.9583C78.3616 33.0112 78.5517 32.0651 78.7302 31.118C78.7722 30.8965 78.7806 30.6676 78.8079 30.4429C78.8163 30.3788 78.8373 30.3158 78.9003 30.2371C78.9496 30.3347 79.0063 30.4303 79.0473 30.5321C79.7602 32.2562 80.3556 34.0192 80.8239 35.8252C81.2817 37.5902 81.6156 39.3784 81.8445 41.1875C82.1091 43.2749 82.1983 45.3686 82.1196 47.4697C81.9705 51.4114 81.288 55.2575 80.0259 58.9977C79.629 60.1747 79.1806 61.3328 78.6766 62.4689C78.5359 62.785 78.4425 63.1115 78.3868 63.4549C78.3427 63.7258 78.2451 63.9883 78.1663 64.2529C78.1264 64.3862 78.0477 64.4944 77.9185 64.5564C77.7012 64.6603 77.6056 64.8514 77.55 65.0698C77.4481 65.4688 77.3494 65.8678 77.2507 66.2668C77.1237 66.7792 76.8969 67.2412 76.5756 67.6612C76.4916 67.7704 76.4317 67.9069 76.396 68.0413C76.2448 68.6083 76.1083 69.1795 75.9634 69.7486C75.8742 70.1003 75.8164 70.4553 75.828 70.8196C75.8448 71.352 75.7702 71.8749 75.6694 72.3946C75.6642 72.4198 75.66 72.4439 75.6526 72.4681C75.6064 72.6382 75.535 72.7096 75.409 72.7159C75.2694 72.7233 75.178 72.6487 75.1381 72.4723C75.1066 72.3337 75.0804 72.1919 75.0762 72.0502C75.0489 71.2617 75.0279 70.4731 75.0048 69.6846C75.0006 69.5586 75.0006 69.4315 74.8651 69.3202C74.8063 69.3842 74.7423 69.4441 74.6898 69.5145C74.1984 70.1644 73.7101 70.8154 73.2219 71.4664C73.1715 71.5336 73.12 71.6029 73.0875 71.6796C72.8575 72.2203 72.6202 72.7589 72.6444 73.368C72.6496 73.4929 72.6244 73.6189 72.6171 73.7439C72.6024 73.9864 72.5089 74.1796 72.2863 74.3003C72.1771 74.3591 72.1194 74.4557 72.0847 74.5765C71.9587 75.0144 71.8705 75.4522 71.8863 75.9142C71.8999 76.3416 71.8695 76.77 71.8579 77.1973C71.8579 77.2141 71.8579 77.2309 71.8558 77.2477C71.8359 77.4546 71.7487 77.5658 71.6049 77.5701C71.4621 77.5742 71.3581 77.4692 71.3182 77.2719C71.3056 77.2067 71.3056 77.1385 71.3025 77.0713C71.2657 76.2744 71.2321 75.4784 71.1922 74.6815C71.1817 74.4662 71.1954 74.2415 71.0232 74.0305C70.9329 74.1114 70.8394 74.187 70.7554 74.272C69.3852 75.6832 67.9267 76.9967 66.3685 78.2001C65.0718 79.2018 63.7225 80.1279 62.3061 80.9521C61.989 81.1369 61.8126 81.3816 61.7349 81.7312C61.5994 82.3413 61.5343 82.9566 61.528 83.5792C61.5259 83.7304 61.5301 83.8816 61.527 84.0328C61.5207 84.3047 61.4104 84.4654 61.2046 84.5106C60.9726 84.562 60.6996 84.4203 60.6082 84.1935C60.5778 84.1168 60.562 84.0318 60.5568 83.9488C60.541 83.6727 60.5326 83.3955 60.5232 83.1183C60.52 83.0269 60.5232 82.9366 60.5232 82.8337C60.2397 82.7781 59.974 82.8169 59.7094 82.8242C59.4742 82.8316 59.238 82.8306 59.0059 82.861C58.8096 82.8862 58.6153 82.9429 58.4253 83.0007C58.2982 83.0395 58.1806 83.1099 58.0567 83.1624C57.9003 83.2285 57.7911 83.3377 57.7501 83.5047C57.6808 83.7871 57.5685 84.0443 57.3543 84.2502C57.2482 84.352 57.2514 84.4917 57.2482 84.6271C57.2272 85.3737 57.2062 86.1202 57.1821 86.8668C57.1768 87.0432 57.1653 87.2196 57.1506 87.3949C57.1443 87.4684 57.1264 87.544 57.1002 87.6133C57.0582 87.7278 56.9668 87.7855 56.8471 87.7876C56.7169 87.7897 56.613 87.7288 56.5752 87.6039C56.5384 87.4852 56.5164 87.3592 56.5059 87.2353C56.4933 87.0852 56.4859 86.9319 56.4985 86.7828C56.5405 86.2578 56.4324 85.7475 56.3442 85.2361C56.3242 85.1217 56.2591 84.9841 56.1699 84.918C55.941 84.7458 55.8034 84.5315 55.752 84.2554C55.7478 84.2312 55.7331 84.2092 55.7215 84.1872C55.7184 84.1798 55.71 84.1756 55.6837 84.1525C55.2312 84.3058 54.7671 84.4623 54.303 84.6198C54.2914 84.6061 54.2788 84.5925 54.2673 84.5799C54.345 84.479 54.4164 84.3709 54.5014 84.2775C55.5787 83.1004 56.718 81.9832 57.895 80.9059C59.7934 79.1713 61.7632 77.5238 63.8632 76.0381C64.7536 75.4081 65.6619 74.8023 66.5712 74.1996C66.8715 74.0011 67.0395 73.7502 67.0437 73.3932C67.0489 72.9742 67.0594 72.5542 67.0447 72.1352C67.0353 71.8623 67.1172 71.647 67.3114 71.4591C67.5519 71.227 67.7808 70.9834 68.037 70.722C67.7283 70.555 67.4343 70.4164 67.1634 70.2432C66.8893 70.0678 66.6373 69.8578 66.3685 69.6572C66.2856 69.7465 66.3139 69.8515 66.3129 69.9439C66.3097 70.4731 66.3108 71.0023 66.3108 71.5304C66.3108 72.0512 66.3003 72.5721 66.316 73.0918C66.3244 73.368 66.2163 73.5454 65.9895 73.6935C64.0701 74.9482 62.2179 76.2964 60.435 77.7402C57.5433 80.0816 54.8868 82.6647 52.4497 85.4745C52.2639 85.6887 52.1347 85.9249 52.0591 86.1979C51.9016 86.766 51.6948 87.314 51.3966 87.8254C51.363 87.8831 51.3304 87.9441 51.3126 88.0081C51.2496 88.237 51.1131 88.4071 50.923 88.5468C50.5671 88.8082 50.4001 89.1631 50.4012 89.6094C50.4012 89.8677 50.3802 90.1312 50.3308 90.3853C50.2426 90.841 50.23 91.302 50.1922 91.7608C50.1523 92.2543 50.0851 92.7447 50.0295 93.2361C50.0263 93.2613 50.0211 93.2854 50.0148 93.3106C49.9602 93.509 49.8111 93.6319 49.6179 93.6361C49.4226 93.6414 49.2409 93.507 49.1968 93.3054C49.1737 93.2004 49.1737 93.0891 49.1737 92.9799C49.1716 92.1399 49.1727 91.3009 49.1727 90.4609C49.1727 90.2058 49.137 89.9611 48.9375 89.7427C48.8598 89.8509 48.7915 89.9517 48.718 90.0483C48.403 90.462 48.0901 90.8788 47.7678 91.2873C47.6208 91.4742 47.5473 91.6705 47.5546 91.912C47.5641 92.2396 47.5126 92.5588 47.4034 92.8749C47.3373 93.067 47.3415 93.2875 47.3394 93.4954C47.3257 94.6367 47.3215 95.7781 47.3835 96.9195C47.4171 97.5474 47.3824 98.1784 47.3793 98.8074C47.3772 99.0846 47.3793 99.3618 47.3719 99.6379C47.3688 99.7629 47.3614 99.891 47.3331 100.012C47.2921 100.19 47.1903 100.269 47.0391 100.268C46.8921 100.267 46.7724 100.182 46.7325 100.018C46.6999 99.8805 46.6831 99.7366 46.681 99.5949C46.6726 99.1497 46.6747 98.7055 46.6737 98.2603C46.6726 98.0083 46.6726 97.7563 46.6737 97.5043C46.6779 96.931 46.6348 96.3661 46.4679 95.8117C46.3366 95.3749 46.3366 94.9171 46.3188 94.4635C46.3083 94.2042 46.2894 93.9448 46.2694 93.6854C46.2642 93.6225 46.2411 93.5605 46.2159 93.4534C45.2268 94.7103 44.3658 96.007 43.4155 97.3174C43.384 97.1757 43.3599 97.099 43.3515 97.0213C43.3431 96.9468 43.3494 96.8701 43.3494 96.7945C43.3494 91.6033 43.3483 86.4132 43.3494 81.222C43.3504 78.7702 43.3536 76.3185 43.3578 73.8667C43.3599 72.0618 43.362 70.2568 43.3693 68.4508C43.3767 66.6963 43.3903 64.9417 43.4008 63.1872C43.4008 63.1147 43.3914 63.0423 43.3872 62.9698C43.3567 62.9729 43.3368 62.9614 43.3158 62.9499ZM52.2912 31.9843C52.2187 35.927 52.2933 39.8603 52.2534 43.8178C52.1547 43.7905 52.0749 43.7695 51.9972 43.7464C51.6118 43.6309 51.2286 43.507 50.8401 43.403C50.5965 43.3379 50.3466 43.3169 50.0452 43.4587C50.2038 43.5091 50.3098 43.5479 50.419 43.5774C50.5156 43.6046 50.6206 43.6088 50.7109 43.6477C51.2674 43.8829 51.8271 44.1107 52.3731 44.368C53.5354 44.9129 54.2904 45.8107 54.6316 47.0507C54.6999 47.2985 54.7534 47.5505 54.8143 47.8004C54.7219 47.7847 54.6694 47.7479 54.6211 47.707C54.4668 47.5778 54.3177 47.4413 54.1581 47.3195C53.9691 47.1757 53.758 47.0749 53.5197 47.0381C53.2593 46.9982 53.0293 47.0633 52.8645 47.2702C52.7458 47.4193 52.6398 47.5852 52.5589 47.7584C52.3678 48.1659 52.2817 48.6047 52.2523 49.0499C52.1967 49.912 52.1347 50.7751 52.1158 51.6392C52.0707 53.6363 52.0381 55.6345 52.0234 57.6316C52.0066 59.9405 52.014 62.2495 52.0098 64.5585C52.0098 64.7097 52.0098 64.8609 52.0024 65.0121C51.9993 65.073 51.9772 65.1328 51.9562 65.2304C51.6874 64.9827 51.4806 64.7243 51.2086 64.529C51.2065 64.6309 51.2118 64.7264 51.2559 64.7989C51.6307 65.4184 52.1127 65.9045 52.8267 66.1398C53.5344 66.3728 54.2421 66.5555 54.9949 66.5041C55.1703 66.4925 55.3498 66.4852 55.5231 66.5062C55.8769 66.5492 56.1352 66.4033 56.3599 66.146C57.076 65.3281 57.6787 64.4303 58.251 63.5105C58.2709 63.478 58.2688 63.4318 58.2762 63.3919C58.2604 63.3835 58.2457 63.3751 58.23 63.3667C57.8635 63.7846 57.4971 64.2035 57.1306 64.6214C57.1128 64.6162 57.0949 64.612 57.076 64.6067C57.0655 64.4944 57.0456 64.3821 57.0456 64.2708C57.0487 63.7584 57.0624 63.247 57.0655 62.7346C57.075 60.6273 57.0834 58.5199 57.0897 56.4125C57.096 54.3556 57.097 52.2986 57.1033 50.2417C57.1086 48.5963 57.1201 46.951 57.1285 45.3056C57.1411 42.6943 57.1537 40.084 57.1674 37.4726C57.1716 36.5917 57.1747 35.7097 57.1842 34.8287C57.1873 34.5809 57.0886 34.3982 56.8996 34.2439C55.9252 33.449 54.8689 32.7865 53.7192 32.2762C53.5606 32.2058 53.3863 32.1628 53.2152 32.1271C52.9779 32.0777 52.7374 32.0462 52.498 32.0095C52.4403 31.9969 52.3825 31.9937 52.2912 31.9843ZM30.7525 43.9144C30.7525 43.7852 30.7525 43.7033 30.7525 43.6214C30.7504 42.9914 30.7483 42.3625 30.7462 41.7325C30.7378 37.4842 30.7357 33.2369 30.72 28.9886C30.7137 27.1417 30.6822 25.2958 30.6601 23.4499C30.657 23.2105 30.6391 22.9721 30.6286 22.7306C30.5814 22.7369 30.5593 22.7338 30.552 22.7422C30.5005 22.7978 30.4512 22.8545 30.4039 22.9133C29.8936 23.5486 29.3749 24.1775 28.7691 24.7246C27.9312 25.4816 27.0082 26.0938 25.8921 26.3668C25.8616 26.3741 25.8364 26.3993 25.7913 26.4277C25.7913 26.5831 25.7902 26.7416 25.7913 26.9002C25.8112 28.9057 25.8343 30.9122 25.8501 32.9177C25.8648 34.7479 25.8711 36.578 25.8816 38.4071C25.8921 40.2121 25.9068 42.017 25.9131 43.8209C25.9194 45.6595 25.9183 47.4981 25.9215 49.3366C25.9225 49.723 25.9278 50.1083 25.9278 50.4948C25.9288 51.2592 25.9299 52.0225 25.9278 52.7869C25.9278 52.8646 25.911 52.9412 25.9015 53.0189C25.8816 53.0231 25.8606 53.0284 25.8406 53.0326C25.638 52.7491 25.4364 52.4646 25.2337 52.181C25.1938 52.4635 25.2862 52.6966 25.4164 52.9129C25.9761 53.8453 26.6754 54.6517 27.5742 55.2743C28.1002 55.6387 28.6819 55.8603 29.3203 55.9369C29.8432 55.9999 30.3588 55.9421 30.8764 55.8917C31.288 55.8518 31.6891 55.771 32.0629 55.5872C32.1385 55.5505 32.233 55.5337 32.2603 55.4077C31.8382 55.436 31.4434 55.6146 31.0066 55.4896C30.993 55.2019 30.9741 54.9195 30.9657 54.636C30.93 53.4117 30.9037 52.1863 30.8607 50.962C30.8355 50.2501 30.8019 49.5372 30.7378 48.8274C30.6948 48.3412 30.5677 47.8676 30.3 47.4476C30.0175 47.0035 29.6332 46.8974 29.1786 47.16C28.9108 47.3143 28.6662 47.5096 28.4121 47.687C28.3596 47.7238 28.3092 47.7616 28.2262 47.8225C28.2336 47.7259 28.2315 47.6692 28.2441 47.6157C28.2871 47.4277 28.3302 47.2387 28.3816 47.0528C28.5633 46.3977 28.8804 45.8243 29.4243 45.4001C29.8348 45.0799 30.2527 44.7701 30.6727 44.4636C31.0539 44.1853 31.4613 43.9532 31.8991 43.7758C31.9768 43.7443 32.0535 43.7096 32.1249 43.6666C32.1973 43.6225 32.2299 43.5595 32.1585 43.4587C31.666 43.444 31.2523 43.7285 30.7525 43.9144ZM75.7198 57.9844C75.7765 57.8007 75.8154 57.6662 75.8595 57.5339C76.2711 56.2729 76.626 54.9971 76.9084 53.7004C76.9515 53.504 76.9504 53.3193 76.8528 53.1397C76.1388 51.8157 75.1833 50.731 73.8151 50.0485C72.9919 49.638 72.1404 49.2925 71.2153 49.2295C70.0026 49.1465 68.7856 49.1045 67.5708 49.0699C67.156 49.0583 66.7402 49.1255 66.3045 49.1591C66.3045 49.2915 66.3045 49.3901 66.3045 49.4899C66.3045 52.5874 66.3055 55.6849 66.3034 58.7813C66.3034 58.9819 66.2877 59.1835 66.274 59.384C66.2709 59.4355 66.2488 59.4848 66.2247 59.5804C65.9758 59.2643 65.6902 59.0365 65.5768 58.6763C65.5443 58.5734 65.5086 58.4558 65.3689 58.4065C65.3259 58.6753 65.3532 58.9105 65.4813 59.13C65.7984 59.6739 66.2068 60.1348 66.7255 60.496C67.0657 60.7333 67.4448 60.8918 67.827 61.043C68.2711 61.2184 68.7058 61.4273 69.1626 61.5586C69.9438 61.7822 70.7491 61.82 71.5587 61.7602C72.3283 61.7035 73.0413 61.4819 73.6555 60.9979C73.9254 60.7847 74.19 60.5643 74.4472 60.3364C74.757 60.0623 75.0268 59.7526 75.1948 59.3673C75.2179 59.3148 75.2536 59.2643 75.2956 59.2255C75.6684 58.8737 75.9088 58.4306 76.1598 57.9939C76.1902 57.9413 76.2007 57.8783 76.2333 57.7849C76.0548 57.8531 75.9172 57.9078 75.7198 57.9844ZM17.7147 65.7386C17.3892 65.8279 17.0637 65.9161 16.7119 66.0127C16.7119 65.8709 16.7119 65.7712 16.7119 65.6714C16.7119 63.6901 16.7098 61.7088 16.714 59.7274C16.7151 59.3778 16.6636 59.0386 16.5198 58.7215C16.336 58.3172 16.1533 57.9099 15.936 57.5235C15.4624 56.6782 14.907 55.8928 14.1972 55.2218C13.9179 54.9583 13.6155 54.8323 13.2238 54.8512C12.4426 54.888 11.6614 54.8292 10.8918 54.6874C9.25273 54.3871 7.66198 53.9146 6.12373 53.2762C5.53678 53.0326 4.92988 52.8845 4.30513 52.7942C4.25578 52.7869 4.20538 52.7795 4.15498 52.7806C4.06363 52.7816 3.99118 52.8194 3.96178 52.9118C3.93133 53.0105 3.98383 53.0735 4.06363 53.1166C4.12243 53.1481 4.18438 53.1744 4.24738 53.1996C4.76188 53.4043 5.27428 53.6153 5.79298 53.8086C6.05443 53.9062 6.20458 54.0679 6.26653 54.342C6.36943 54.7998 6.48703 55.2554 6.61093 55.709C7.27558 58.1471 8.19538 60.4855 9.36403 62.7262C9.46693 62.9236 9.60238 63.1168 9.76303 63.269C10.7332 64.1805 11.7958 64.9711 12.9519 65.6337C13.4496 65.9182 13.9756 66.1324 14.5332 66.2721C15.0739 66.4075 15.621 66.4705 16.1775 66.4789C16.4211 66.4831 16.6657 66.5377 16.8442 66.3015C16.8663 66.272 16.9198 66.2689 16.9576 66.2511C17.1172 66.1776 17.2789 66.1061 17.4364 66.0274C17.553 65.9665 17.6695 65.9014 17.7147 65.7386ZM38.889 25.2842C38.7504 25.5184 38.742 25.6034 38.8921 25.7662C39.1882 26.0864 39.4696 26.4287 39.8077 26.6975C40.5837 27.316 41.4615 27.6866 42.4821 27.5974C42.6805 27.5806 42.8874 27.5816 43.0617 27.4588C43.2948 27.295 43.5363 27.1406 43.7589 26.9632C43.9353 26.8225 44.0917 26.6566 44.2524 26.498C44.3175 26.4329 44.3805 26.3563 44.2734 26.2544C44.0119 26.4277 43.7599 26.6198 43.4061 26.6986C43.4061 26.5789 43.4061 26.4812 43.4061 26.3836C43.4061 24.2846 43.4061 22.1867 43.4061 20.0878C43.4061 19.2908 43.4071 18.4939 43.4103 17.6969C43.4113 17.3116 43.5415 16.9829 43.8135 16.6973C44.16 16.333 44.4855 15.9476 44.8183 15.5696C44.8614 15.5213 44.896 15.4657 44.938 15.4079C44.8813 15.3302 44.8341 15.262 44.7826 15.1958C43.8691 14.024 43.1142 12.7567 42.5482 11.3854C42.1188 10.3448 41.6925 9.30639 41.1013 8.34459C41.0709 8.29419 41.0457 8.24064 41.0152 8.19129C40.968 8.11464 40.9081 8.05584 40.8094 8.10519C40.7265 8.14614 40.7202 8.21964 40.7422 8.29944C40.7716 8.40444 40.8021 8.50944 40.8336 8.61339C40.9575 9.01134 41.0814 9.40824 41.2147 9.83769C39.7038 9.93744 38.2107 10.0351 36.7071 10.1348C36.6966 10.0498 36.6903 10.0015 36.685 9.95319C36.6514 9.61929 36.6168 9.28539 36.5842 8.95149C36.5716 8.82339 36.5443 8.70579 36.4057 8.65224C36.2388 8.75304 36.1915 8.89584 36.2272 9.06699C36.348 9.63819 36.3354 10.2188 36.3511 10.7963C36.3595 11.1124 36.2913 11.4137 36.139 11.693C36.0099 11.9282 35.8776 12.1624 35.7442 12.3955C35.6445 12.5698 35.5416 12.7409 35.4366 12.9194C35.5048 12.9824 35.5647 13.0412 35.6277 13.0948C36.915 14.192 38.0752 15.4142 39.1924 16.6805C39.4665 16.9913 39.6061 17.3399 39.6051 17.7557C39.6019 20.324 39.604 22.8934 39.6019 25.4617C39.6019 25.6181 39.5872 25.7746 39.5778 25.9594C39.2649 25.8029 39.0412 25.6045 38.889 25.2842ZM43.3924 43.7779C43.2885 43.7957 43.215 43.8041 43.1436 43.822C42.3718 44.0215 41.598 44.2105 40.8325 44.4289C40.4955 44.5244 40.1731 44.6735 39.8497 44.8111C39.6922 44.8783 39.6135 45.0043 39.6145 45.1901C39.6219 47.5159 39.6261 49.8416 39.6271 52.1674C39.6292 55.4591 39.6271 58.7498 39.6292 62.0416C39.6292 62.239 39.6523 62.4364 39.666 62.6485C39.814 62.6601 39.9295 62.6758 40.045 62.6779C40.3222 62.6821 40.5994 62.6716 40.8766 62.681C41.5549 62.7021 42.2164 62.6107 42.8548 62.3776C42.9798 62.3325 43.1058 62.2768 43.2118 62.2001C43.9342 61.6793 44.3479 60.9338 44.686 60.1379C44.7385 60.014 44.7417 59.8796 44.5978 59.7641C44.4718 59.9594 44.3574 60.1432 44.2366 60.3228C44.119 60.497 44.0004 60.6703 43.8733 60.8372C43.7452 61.0053 43.6255 61.1838 43.4239 61.3013C43.3914 58.3802 43.3924 55.4718 43.3924 52.5633C43.3924 49.6401 43.3924 46.72 43.3924 43.7779ZM57.2419 29.6186C57.2419 28.24 57.2398 26.9138 57.243 25.5887C57.2461 24.2626 57.265 22.9364 57.2566 21.6103C57.2482 20.2883 57.307 18.9674 57.2797 17.635C57.2199 17.6434 57.1926 17.6402 57.1726 17.6507C57.0025 17.7421 56.8303 17.8303 56.6644 17.9279C55.2847 18.7459 53.9722 19.6657 52.6692 20.6002C52.4896 20.7283 52.4035 20.891 52.4046 21.1105C52.4056 21.4381 52.3993 21.7646 52.393 22.0922C52.3657 23.5769 52.3342 25.0616 52.3132 26.5463C52.2964 27.7381 52.2933 28.9298 52.2817 30.1216C52.2807 30.235 52.2628 30.3494 52.2523 30.4649C52.1935 30.4681 52.1599 30.4754 52.1284 30.4702C51.5005 30.362 50.9031 30.1814 50.4253 29.7289C50.3476 29.6554 50.2815 29.5577 50.1513 29.605C50.0568 29.7383 50.1093 29.8423 50.2006 29.9452C50.4904 30.2728 50.8359 30.5342 51.2527 30.655C51.888 30.8387 52.5306 31.012 53.1805 31.1243C53.6751 31.2104 54.1843 31.1548 54.682 31.0498C55.7152 30.8324 56.6434 30.3694 57.5349 29.8255C57.9087 29.5976 58.1649 29.2501 58.356 28.8584C58.4589 28.6474 58.4284 28.5686 58.2006 28.4269C57.999 28.8983 57.7291 29.3131 57.2419 29.6186ZM43.489 39.1568C43.4649 39.1505 43.4407 39.1432 43.4166 39.1369C43.4134 39.0392 43.4071 38.9416 43.4071 38.845C43.4061 36.8552 43.4071 34.8665 43.4071 32.8768C43.4071 31.391 43.4071 29.9053 43.4071 28.4195C43.4071 28.324 43.3998 28.2284 43.3945 28.1161C42.7152 28.2956 42.0684 28.3261 41.4184 28.1591C40.7758 27.9943 40.2214 27.6562 39.6628 27.2278C39.6492 27.5144 39.6303 27.7538 39.6282 27.9922C39.6177 29.0579 39.6072 30.1237 39.6072 31.1894C39.6061 33.4973 39.6051 35.8063 39.6145 38.1142C39.6219 39.8677 39.645 41.6222 39.6628 43.3757C39.6639 43.4818 39.6733 43.5878 39.6796 43.7002C39.7321 43.696 39.7563 43.6981 39.7783 43.6907C39.834 43.6708 39.8886 43.6487 39.9411 43.6246C40.5963 43.3253 41.1423 42.8843 41.5749 42.3142C42.4474 41.1644 43.3221 40.0147 44.1558 38.8376C44.4183 38.468 44.559 38.0113 44.7459 37.5902C44.7973 37.4747 44.7931 37.3487 44.6986 37.2416C44.5222 37.5818 44.3658 37.921 44.1757 38.2391C43.9804 38.5688 43.7421 38.8702 43.489 39.1568ZM25.9435 56.8052C25.9435 57.2987 25.9425 57.7429 25.9435 58.1871C25.9477 59.6802 25.953 61.1743 25.9572 62.6674C25.9614 63.9179 25.9645 65.1674 25.9719 66.418C25.9729 66.5902 25.995 66.7624 26.0097 66.9556C26.647 66.9188 27.2529 66.9367 27.8451 66.8128C28.6588 66.6416 29.4022 66.2878 30.0921 65.8342C30.9888 65.2441 31.8697 64.6299 32.757 64.0261C32.8053 63.9935 32.862 63.9631 32.8935 63.9169C32.925 63.8707 32.9281 63.8056 32.9439 63.7489C32.9281 63.7374 32.9134 63.7258 32.8977 63.7153C32.8252 63.7489 32.7507 63.7804 32.6803 63.8182C32.232 64.0639 31.7847 64.3117 31.3353 64.5553C31.2366 64.6088 31.1305 64.6477 30.9993 64.7054C30.9993 64.5773 30.9993 64.4944 30.9993 64.4104C30.9972 62.4805 30.9951 60.5506 30.9919 58.6207C30.9919 58.5451 30.9951 58.4695 30.9888 58.3939C30.9762 58.229 30.9184 58.0831 30.7956 57.9687C30.532 57.7229 30.2716 57.472 29.9986 57.2378C29.6763 56.9617 29.313 56.7454 28.8856 56.6845C28.1863 56.5848 27.4828 56.5344 26.7793 56.632C26.5011 56.673 26.227 56.7464 25.9435 56.8052ZM66.2814 68.0077C66.2614 68.014 66.2415 68.0203 66.2226 68.0256C66.0693 67.8764 65.9485 67.7001 65.8288 67.5226C65.707 67.341 65.5968 67.152 65.4813 66.9661C65.4603 66.9734 65.4393 66.9808 65.4183 66.9871C65.4277 67.09 65.4172 67.2003 65.4498 67.2958C65.6482 67.8859 65.9454 68.4172 66.4399 68.8141C66.7938 69.0976 67.1539 69.3727 67.5225 69.6363C68.037 70.0048 68.6229 70.114 69.2434 70.0604C69.3453 70.052 69.4671 70.0499 69.507 69.9124C69.4419 69.8578 69.381 69.8064 69.3106 69.7476C69.571 69.4977 69.8178 69.2583 70.0677 69.022C70.1034 68.9884 70.1538 68.9443 70.1937 68.9474C70.4005 68.9653 70.4352 68.8152 70.494 68.6723C70.9612 67.5331 71.061 66.3466 70.9339 65.137C70.7995 63.8466 70.1191 62.9341 68.9221 62.4406C68.1787 62.134 67.4133 61.882 66.6552 61.6101C66.5586 61.5754 66.4504 61.5733 66.3118 61.5491C66.3118 61.6835 66.3118 61.7823 66.3118 61.881C66.3108 63.8193 66.3087 65.7576 66.3066 67.6969C66.3045 67.8019 66.2887 67.9048 66.2814 68.0077ZM14.6098 32.6489C14.6235 32.6384 14.6371 32.6279 14.6508 32.6174C14.6224 32.5523 14.6035 32.4809 14.5657 32.4232C14.0838 31.6924 13.5546 30.9994 12.9141 30.3998C12.4972 30.0092 11.9995 29.8234 11.421 29.8559C11.1963 29.8685 10.9684 29.858 10.7427 29.8412C10.3741 29.8139 10.0465 29.9063 9.74938 30.1237C9.41338 30.3704 9.19288 30.7022 9.04483 31.0844C8.84953 31.5916 8.76868 32.1197 8.75713 32.6605C8.72878 33.931 8.99023 35.1626 9.25063 36.3943C9.27688 36.5182 9.35038 36.6053 9.47008 36.6494C9.54883 36.6778 9.62863 36.704 9.70948 36.7271C10.3993 36.9203 11.1018 36.9245 11.8074 36.8615C11.9806 36.8458 12.1686 36.8332 12.3198 36.7597C13.0212 36.4163 13.6207 35.9344 14.1363 35.3474C14.2476 35.2204 14.2686 35.0849 14.2045 34.9285C14.1058 34.688 14.0124 34.4455 13.921 34.2019C13.4097 32.8432 12.7954 31.5433 11.8 30.4586C11.7706 30.4271 11.7601 30.3778 11.7234 30.298C11.8483 30.3221 11.9386 30.3337 12.0237 30.3578C12.3733 30.4586 12.6516 30.6718 12.9015 30.9248C13.4023 31.432 13.899 31.9444 14.3988 32.4536C14.466 32.5219 14.5395 32.5849 14.6098 32.6489ZM30.9583 65.977C30.8586 66.0442 30.7819 66.0946 30.7063 66.145C30.2527 66.4495 29.7718 66.7036 29.272 66.9241C28.6021 67.2202 27.9081 67.3788 27.1731 67.3546C26.8717 67.3441 26.5693 67.3493 26.268 67.3493C26.206 67.3493 26.1441 67.3609 26.0422 67.3714C26.1168 67.4669 26.1609 67.5363 26.2176 67.5919C26.8339 68.1915 30.7641 71.5231 30.9436 71.6029C30.9993 71.437 31.0192 66.3876 30.9583 65.977ZM14.7642 54.0406C14.7642 54.0164 14.7642 53.9923 14.7642 53.9682C14.6518 53.9566 14.5405 53.9388 14.4282 53.9346C13.2942 53.8978 12.1948 53.6637 11.1333 53.2825C8.48413 52.3312 6.27178 50.7751 4.59073 48.4945C4.47628 48.3401 4.33873 48.2026 4.21168 48.0566C4.14343 47.979 4.06153 47.8866 3.95863 47.9684C3.86833 48.0398 3.94183 48.1417 3.98173 48.2204C4.04998 48.3549 4.11718 48.4913 4.20538 48.6121C4.56973 49.115 4.93933 49.6138 5.31313 50.1105C5.47378 50.3225 5.58088 50.5493 5.61658 50.8171C5.68168 51.3158 5.76463 51.8125 5.83393 52.3112C5.86438 52.5286 5.97568 52.6556 6.18673 52.7176C7.16848 53.0042 8.14393 53.315 9.13093 53.5817C10.1526 53.8568 11.1942 54.0469 12.2578 54.0637C13.0548 54.0763 13.8528 54.0637 14.6497 54.0616C14.6886 54.0616 14.7264 54.0479 14.7642 54.0406ZM69.5007 33.3902C70.8258 32.2867 72.2433 31.4099 74.0304 31.2881C73.9107 30.8419 73.6933 30.4922 73.371 30.2087C72.9909 29.8738 72.5583 29.7541 72.0627 29.8948C71.9503 29.9273 71.8359 29.963 71.7204 29.9746C71.1891 30.0271 70.7166 30.2255 70.2787 30.5248C69.0544 31.3595 68.1546 32.4641 67.5435 33.8092C67.5088 33.8848 67.4826 33.9656 67.4605 34.0454C67.45 34.0843 67.4584 34.1273 67.4584 34.1693C67.5445 34.1137 67.5928 34.0486 67.6411 33.9835C67.9446 33.5708 68.2365 33.1498 68.5525 32.7487C69.0807 32.0788 69.6886 31.4918 70.4205 31.0435C70.5391 30.971 70.663 30.907 70.7838 30.8387C70.2682 31.6504 69.7926 32.4694 69.5007 33.3902ZM65.4519 49.0499C65.4928 49.0762 65.5065 49.0919 65.517 49.0909C65.5663 49.0835 65.6157 49.073 65.664 49.0594C66.5386 48.8032 67.4353 48.6929 68.3436 48.6562C69.0639 48.6268 69.7852 48.6047 70.5055 48.5774C70.558 48.5753 70.6095 48.5617 70.7113 48.5449C70.5916 48.4787 70.5202 48.4388 70.4488 48.3989C70.054 48.1784 69.6424 47.981 69.2665 47.7322C68.2785 47.077 67.3555 46.3399 66.5607 45.4526C66.4977 45.3823 66.4368 45.2952 66.3003 45.3036C66.3003 46.4176 66.3003 47.5222 66.3003 48.632C66.0136 48.7738 65.7396 48.9082 65.4519 49.0499ZM9.14773 63.4098C8.97763 63.6376 8.97448 63.7258 9.12358 63.9473C9.28948 64.1931 9.48478 64.4094 9.72733 64.5826C10.014 64.7863 10.3111 64.9784 10.5873 65.1968C10.7626 65.3354 10.9296 65.4961 11.0598 65.6767C11.4126 66.167 11.7475 66.669 12.0793 67.174C12.2253 67.3955 12.4132 67.5394 12.6684 67.6129C13.1881 67.763 13.7163 67.846 14.2581 67.8092C14.9227 67.7641 15.5527 67.615 16.0641 67.1498C16.1019 67.1152 16.1292 67.0701 16.1607 67.0312C15.7753 66.9955 15.4026 66.9955 15.0445 66.921C13.8066 66.6627 12.6652 66.1671 11.6436 65.4163C10.7878 64.7863 9.93628 64.15 9.14773 63.4098ZM56.9794 66.8768C56.7379 66.9052 56.5384 66.9787 56.3956 67.1414C56.0008 67.5888 55.5 67.8964 55.0107 68.2198C54.2988 68.6902 53.5155 68.9663 52.6713 69.0777C52.4571 69.106 52.2429 69.1375 52.0161 69.169C52.0035 70.0027 51.994 70.8164 52.0213 71.6806C52.1851 71.5493 52.3048 71.4591 52.4182 71.3624C53.7748 70.2011 55.1314 69.0388 56.487 67.8764C56.6077 67.7725 56.7358 67.6749 56.8429 67.5583C57.0172 67.3672 57.0918 67.1478 56.9794 66.8768ZM71.7897 65.7953C71.8107 65.7985 71.8327 65.8017 71.8537 65.8048C71.922 65.7019 71.9944 65.6021 72.0564 65.4961C72.5824 64.5879 73.1095 63.6817 73.6282 62.7692C73.7637 62.5319 73.938 62.3671 74.1994 62.2705C74.5365 62.1445 74.8662 61.9944 75.1917 61.84C75.3334 61.7728 75.4626 61.6741 75.5865 61.5754C75.6726 61.5071 75.6925 61.4011 75.6453 61.3003C75.6001 61.2037 75.5077 61.1827 75.409 61.2016C75.1119 61.2593 74.8221 61.3329 74.5627 61.5051C74.1364 61.7875 73.7028 62.0605 73.2702 62.3335C73.1862 62.386 73.0938 62.4406 72.9982 62.4595C72.3084 62.6023 71.6175 62.7482 70.9045 62.6926C70.8415 62.6874 70.7775 62.701 70.6609 62.7094C71.4631 63.6103 71.7666 64.653 71.7897 65.7953ZM74.19 49.4846C74.1837 49.5004 74.1763 49.5172 74.17 49.533C74.2456 49.5802 74.3202 49.6295 74.3968 49.6757C74.5984 49.7965 74.8137 49.8973 75.0006 50.0369C75.9834 50.7719 76.7898 51.6571 77.3064 52.7848C77.3862 52.9602 77.4828 53.1282 77.5857 53.292C77.6739 53.4316 77.7778 53.4589 77.9059 53.4064C78.0393 53.3507 78.1159 53.2279 78.0823 53.083C78.0603 52.9874 78.0204 52.8898 77.9668 52.8068C77.8104 52.5685 77.6529 52.3291 77.4765 52.1054C77.319 51.9059 77.2707 51.6938 77.3064 51.4471C77.3841 50.899 77.4555 50.3498 77.5227 49.7996C77.5374 49.6799 77.5248 49.556 77.5248 49.4111C76.3992 49.4363 75.2946 49.4605 74.19 49.4846ZM55.2322 67.2013C55.2249 67.1824 55.2175 67.1635 55.2102 67.1446C54.9288 67.1205 54.6463 67.1099 54.3681 67.069C54.0961 67.0291 53.8221 66.9777 53.5596 66.8958C53.2897 66.8118 53.0251 66.6983 52.7721 66.5713C52.5243 66.4464 52.2933 66.2878 52.0245 66.1261C52.0182 66.2542 52.0098 66.3445 52.0098 66.4338C52.0066 66.9619 52.0077 67.4901 52.0024 68.0172C52.0003 68.2807 51.9321 68.3605 51.6727 68.4025C51.4995 68.4308 51.3231 68.4403 51.1488 68.4645C51.0574 68.4781 50.9671 68.5065 50.8768 68.5285C50.8789 68.5495 50.8821 68.5705 50.8842 68.5915C51.2317 68.6965 51.5887 68.7836 51.9489 68.6618C52.2439 68.5621 52.5432 68.4981 52.8456 68.4319C53.5176 68.2849 54.115 67.9636 54.6862 67.5919C54.8742 67.4701 55.0516 67.3315 55.2322 67.2013ZM29.0116 23.4803C28.7092 23.5381 28.4079 23.6032 28.1044 23.6525C27.4986 23.7512 26.8917 23.8352 26.2774 23.7292C26.1084 23.6998 25.9435 23.6441 25.7577 23.5948C25.8091 24.3707 25.743 25.1288 25.8207 25.9142C27.1311 25.3882 28.1559 24.5534 29.0116 23.4803ZM17.8291 59.3441C17.7903 59.2276 17.7682 59.1342 17.7294 59.047C17.449 58.4191 17.1697 57.7901 16.8799 57.1675C16.7602 56.9102 16.7077 56.6456 16.7098 56.3642C16.7151 55.7605 16.7119 55.1557 16.7109 54.552C16.7109 54.4701 16.7035 54.3892 16.6983 54.2726C16.0116 54.4826 15.3522 54.6832 14.6497 54.8984C14.7925 55.057 14.907 55.1862 15.0246 55.3132C15.8341 56.1963 16.5177 57.1675 17.0616 58.2353C17.218 58.5419 17.3755 58.8475 17.5372 59.151C17.5866 59.2444 17.6359 59.3483 17.8291 59.3441ZM58.0252 34.1452C58.0084 34.0318 58.0168 33.9646 57.9885 33.9247C57.8793 33.7672 57.7848 33.5813 57.6367 33.4732C57.2346 33.1802 57.1327 32.7949 57.1663 32.3266C57.1947 31.9349 57.1852 31.5391 57.1894 31.1464C57.1894 31.1191 57.1705 31.0918 57.1516 31.0445C56.4702 31.4981 55.7383 31.7984 54.9235 32.0546C56.0943 32.5891 56.9752 33.4448 58.0252 34.1452ZM11.778 37.4611C11.3643 37.4296 10.9789 37.4222 10.6009 37.3666C10.2177 37.3109 9.84178 37.208 9.41653 37.1156C9.63388 37.8475 9.84073 38.5436 10.0539 39.2598C10.3416 38.9248 10.5894 38.6087 10.8655 38.32C11.148 38.026 11.4588 37.7582 11.778 37.4611ZM43.3767 41.2862C43.3609 41.281 43.3441 41.2757 43.3284 41.2705C43.1929 41.4899 43.0617 41.7136 42.9199 41.9299C42.7771 42.1472 42.6301 42.3625 42.4737 42.5693C42.312 42.7835 42.1408 42.9904 41.9655 43.193C41.8006 43.3841 41.6253 43.5658 41.4541 43.7516C42.1408 43.6729 42.7782 43.487 43.3924 43.2099C43.3924 42.5851 43.3924 41.9813 43.3914 41.3776C43.3903 41.3482 43.3819 41.3167 43.3767 41.2862ZM39.6492 64.6876C40.3296 64.5217 41.4667 63.8256 41.6715 63.4507C40.9984 63.3888 40.3359 63.3279 39.6492 63.2649C39.6492 63.7521 39.6492 64.2088 39.6492 64.6876ZM26.0065 54.7199C25.9897 54.7273 25.9719 54.7336 25.9551 54.741C25.9467 54.8449 25.932 54.9488 25.9309 55.0528C25.9278 55.3457 25.9225 55.6397 25.932 55.9327C25.9393 56.1553 25.8637 56.3191 25.6705 56.4377C25.5855 56.4902 25.5183 56.5711 25.4437 56.6383C25.828 56.5617 26.1777 56.4272 26.5389 56.3359C26.9032 56.2435 27.2781 56.1941 27.697 56.1175C27.0418 55.7132 26.5 55.246 26.0065 54.7199ZM42.8979 9.86709C42.7498 9.89334 42.6217 9.91644 42.4915 9.93849C42.6438 10.4519 42.9682 11.1061 43.1278 11.2216C43.1373 11.1974 43.1509 11.1754 43.153 11.1512C43.2265 10.3847 43.3011 9.61719 43.3693 8.85069C43.3777 8.75094 43.383 8.63754 43.2685 8.54514C42.9882 8.94729 43.0239 9.42084 42.8979 9.86709ZM71.3854 32.5565C71.8695 32.4767 72.3357 32.3833 72.8071 32.3276C73.2901 32.2699 73.7658 32.3644 74.2635 32.5051C74.2278 32.2573 74.1984 32.0557 74.169 31.8488C73.1494 31.81 72.2412 32.0588 71.3854 32.5565ZM44.4109 13.4003C44.685 13.9337 44.9874 14.4409 45.4273 14.8724C45.6793 14.6341 45.9166 14.4094 46.1644 14.1752C45.8316 14.0566 45.5271 13.9673 45.2394 13.8392C44.9548 13.7132 44.686 13.5484 44.4109 13.4003ZM31.7805 57.4489C31.7479 57.2452 31.6314 57.1895 31.5169 57.1381C31.2387 57.0121 30.9573 56.8913 30.9552 56.4965C30.7347 56.5501 30.5446 56.5952 30.3199 56.6498C30.6528 57.0909 31.1305 57.2295 31.5579 57.4447C31.6125 57.4731 31.6923 57.4489 31.7805 57.4489ZM13.7688 36.5654C13.7761 36.5864 13.7835 36.6074 13.7908 36.6284C14.0974 36.577 14.404 36.5255 14.7295 36.4709C14.655 36.2641 14.593 36.095 14.5216 35.8997C14.2528 36.1381 14.0103 36.3523 13.7688 36.5654ZM66.5344 23.8688C66.5523 23.8772 66.5701 23.8856 66.589 23.8951C66.756 23.5685 66.9229 23.2409 67.1004 22.8913C66.5733 23.0099 66.4725 23.1937 66.5344 23.8688Z" fill="white"/>
</svg>
