<svg width="563" height="591" viewBox="0 0 563 591" fill="none" xmlns="http://www.w3.org/2000/svg">
<path d="M195.196 424.684C195.899 424.364 196.591 424.018 197.513 423.579C198.268 425.731 197.776 427.375 197.209 428.979C195.249 434.466 192.174 439.31 188.762 443.992C180.358 455.523 171.351 466.553 161.876 477.214C155.146 484.794 151.035 493.761 148.954 503.628C147.699 509.568 146.921 515.6 145.981 521.601C145.779 522.836 145.496 523.841 144.336 524.628C135.148 530.863 125.984 537.138 116.844 543.438C110.076 548.103 102.628 551.493 95.2525 554.998C94.5353 555.343 93.7112 555.469 92.2341 555.904C93.216 553.92 93.8595 552.687 94.4533 551.426C98.1517 543.56 102.025 535.764 105.461 527.789C107.662 522.689 109.264 517.343 111.041 512.065C114.386 502.111 113.955 491.899 112.917 481.68C112.345 476.037 110.256 470.904 106.901 466.314C106.393 465.614 105.975 464.84 105.433 463.975C106.357 463.472 107.075 463.127 107.743 462.717C111.01 460.704 114.495 458.976 117.47 456.612C129.99 446.642 134.488 433.697 130.992 418.029C130.671 416.588 130.798 415.312 131.119 413.903C132.457 408.092 133.922 402.285 134.859 396.411C136.079 388.734 136.015 380.915 137.072 373.169C139.226 357.236 138.567 341.24 136.253 325.331C136.148 324.643 136.007 323.879 136.215 323.252C137.133 320.481 138.014 317.658 139.231 315.011C140.948 311.289 142.024 307.459 142.439 303.38C143.381 294.034 142.732 284.753 141.108 275.555C140.108 269.886 138.739 264.294 135.856 259.148C137.038 257.614 155.25 215.492 157.081 215.043C164.34 213.27 170.307 209.226 175.844 204.37C178.424 202.107 179.723 199.26 180.04 195.9C180.135 194.838 180.218 193.777 180.314 192.716C181.928 193.983 182.725 195.591 183.407 197.196C184.689 200.252 186.438 203.322 186.844 206.527C188.215 217.403 186.473 227.724 180.108 236.949C178.59 239.157 176.938 241.17 174.311 242.063C172.883 242.55 172.523 243.578 172.697 244.913C172.891 246.414 173.135 247.917 173.405 249.408C174.677 256.492 175.771 263.633 175.26 270.839C174.726 278.398 173.839 285.946 172.914 293.48C171.823 302.327 170.569 311.143 169.289 319.959C169.064 321.535 168.783 323.313 167.887 324.539C166.122 326.966 166.25 329.378 166.977 332.01C167.33 333.276 167.542 334.574 167.742 335.873C168.708 342.251 171 348.176 173.917 353.88C174.512 355.039 175.273 356.152 176.101 357.154C178.194 359.677 180.298 360.187 183.386 359.08C183.985 358.871 184.597 358.675 185.604 358.339C185.243 359.848 184.958 360.903 184.736 361.961C183.789 366.517 182.805 371.059 181.971 375.632C181.453 378.517 181.187 381.448 180.795 384.362C179.288 395.679 179.832 406.769 184.236 417.486C185.223 419.86 186.469 422.028 188.437 423.699C190.466 425.422 192.738 425.823 195.196 424.684Z" fill="white"/>
<path d="M97.8325 382.497C98.4231 382.395 99.0098 382.271 99.7875 382.121C99.9357 383.884 99.2468 385.022 98.5099 386.115C95.9723 389.849 92.7217 392.883 89.2507 395.728C80.7009 402.737 71.7956 409.252 62.6105 415.398L52.9898 423.969C52.9898 423.969 42.1389 418.815 33.946 418.756C25.7532 418.697 15.4182 420.742 15.4182 420.742C22.1418 414.012 25.0813 400.552 23.4544 396.45C23.2086 395.824 23.045 395.162 22.8068 394.406C23.5983 394.21 24.2037 394.091 24.7854 393.915C27.6292 393.044 30.5815 392.43 33.2742 391.238C44.6113 386.207 50.5032 377.371 50.9231 364.928C50.9616 363.783 51.3051 362.85 51.8197 361.855C53.9539 357.756 56.182 353.685 58.0269 349.459C60.4339 343.936 61.9054 338.055 64.2042 332.449C68.9168 320.912 71.5304 308.776 72.8839 296.383C72.9385 295.846 72.9814 295.245 73.2598 294.815C74.4871 292.915 75.6974 290.969 77.1253 289.22C79.1371 286.763 80.6893 284.099 81.7935 281.119C84.3168 274.289 85.6324 267.196 86.2004 259.974C86.5512 255.523 86.6103 251.058 85.4451 246.631C86.631 245.712 108.488 217.663 109.95 217.685C115.745 217.775 121.01 215.909 126.111 213.349C128.487 212.156 130.016 210.273 130.907 207.813C131.185 207.035 131.453 206.255 131.731 205.477C132.697 206.744 132.982 208.108 133.183 209.446C133.552 211.99 134.268 214.637 133.95 217.123C132.866 225.553 129.553 232.959 122.982 238.637C121.413 239.996 119.782 241.183 117.636 241.339C116.469 241.425 116 242.126 115.871 243.163C115.724 244.327 115.616 245.503 115.529 246.674C115.108 252.241 114.541 257.815 112.758 263.123C110.888 268.692 108.755 274.183 106.597 279.657C104.059 286.084 101.404 292.455 98.7309 298.821C98.2557 299.96 97.699 301.239 96.7883 301.984C94.9913 303.46 94.619 305.295 94.6533 307.413C94.6721 308.432 94.5793 309.449 94.4772 310.462C93.9631 315.438 94.5326 320.334 95.6143 325.187C95.8362 326.173 96.1911 327.158 96.6177 328.072C97.6989 330.376 99.1799 331.17 101.713 330.945C102.204 330.905 102.701 330.878 103.522 330.823C102.958 331.885 102.539 332.621 102.167 333.371C100.571 336.605 98.9491 339.822 97.4344 343.091C96.4855 345.155 95.716 347.302 94.8554 349.413C91.5249 357.611 89.7785 366.041 91.0026 374.947C91.2824 376.923 91.7968 378.794 92.9496 380.434C94.1383 382.125 95.766 382.87 97.8325 382.497Z" fill="white"/>
<path d="M40.4517 417.133C41.0988 416.385 72.8762 389.341 73.4079 388.948C75.6417 390.037 88.2384 400.625 90.6645 401.215C97.1838 405.344 100.41 406.956 107.315 404.947C109.554 404.284 111.409 403.337 113.313 401.886C115.31 400.379 116.69 400.231 116.201 397.732C115.944 396.376 116.119 394.373 115.856 392.915C116.967 392.47 117.902 392.107 118.817 391.71C126.999 388.182 133.499 382.72 137.097 374.451C138.477 371.293 140.437 369.586 143.556 368.829C143.949 368.732 144.325 368.612 144.711 368.478C157.09 364.345 169.908 362.011 182.675 359.532C183.79 359.318 182.809 360.151 184.592 359.944C182.483 362.179 182.914 362.848 181.476 364.614C178.183 368.672 175.834 373.061 177.568 378.563C177.954 379.78 177.477 380.69 176.645 381.548C172.46 385.845 169.238 390.868 165.901 395.822C162.635 400.673 159.33 405.518 156.052 410.371C151.976 416.411 147.909 422.436 143.862 428.496C143.005 429.784 142.118 430.485 140.376 429.99C135.134 428.494 129.813 428.698 124.486 429.573C119.408 430.415 114.343 431.254 109.257 432.047C105.069 432.702 100.797 432.961 96.7109 433.971C93.3112 434.805 90.1459 434.452 86.8762 433.731C82.3375 432.726 77.8021 431.81 73.2578 430.844C62.8235 428.628 52.8155 425.292 43.7686 419.467C42.6828 418.775 41.6705 417.993 40.4517 417.133Z" fill="white"/>
<path d="M271.436 442C269.742 439.454 269.624 436.711 269.716 433.824C270.281 416.815 269.926 399.819 268.98 382.836C268.836 380.329 268.718 377.875 267.431 375.526C266.721 374.213 266.643 372.494 266.551 370.932C266.301 367.06 266.051 363.176 266.078 359.291C266.34 329.157 265.066 299.05 264.134 268.943C263.897 261.187 263.648 253.417 263.412 245.661C263.293 241.71 266.485 237.274 270.425 236.894C278.687 236.119 286.987 235.607 295.222 237.274C299.176 238.075 300.778 240.07 300.831 244.453C300.909 249.598 300.739 254.743 300.581 259.874C300.029 278.34 299.36 296.793 298.913 315.259C298.519 331.52 298.48 347.794 298.033 364.055C297.849 370.538 296.995 377.009 296.431 383.479C296.391 383.899 296.404 384.437 296.155 384.686C293.961 386.931 294.395 389.739 294.461 392.43C294.776 407.116 295.13 421.815 295.524 436.501C295.577 438.457 295.432 440.268 293.581 441.974C286.449 442 279.015 442 271.436 442ZM278.634 385.119C278.752 385.119 278.857 385.106 278.975 385.106C278.975 384.49 278.975 383.86 278.975 383.243C279.107 353.752 279.304 324.275 279.343 294.785C279.356 279.994 279.08 265.203 278.923 250.412C278.923 249.992 279.015 249.493 278.818 249.178C278.568 248.758 278.069 248.496 277.163 247.734C277.163 251.829 277.163 255.268 277.163 258.706C277.215 286.832 277.202 314.957 277.334 343.069C277.386 354.5 277.741 365.932 278.017 377.376C278.082 379.962 278.424 382.547 278.634 385.119Z" fill="#BA2425"/>
<path d="M361.297 184.541C361.152 185.446 361.113 186.299 360.864 187.087C357.212 197.993 356.253 209.254 356.713 220.646C357.002 227.562 357.777 234.453 358.25 241.356C358.394 243.535 358.302 245.739 358.263 247.931C358.25 249.191 358 250.451 358.092 251.698C358.749 260.701 359.537 269.691 362.939 278.695C360.864 281.136 358.762 283.879 356.359 286.333C348.885 293.971 340.007 299.785 331.089 305.56C328.462 307.266 325.717 308.815 323.05 310.429C322.341 309.97 321.79 309.668 321.304 309.287C319.11 307.594 319.097 307.581 319.938 304.812C322.17 297.436 323.458 289.968 323.274 282.199C323.05 272.342 323.326 262.473 323.3 252.603C323.261 241.002 321.593 229.623 318.309 218.48C318.007 217.47 317.731 216.459 317.521 215.435C316.418 209.949 315.209 204.516 310.494 200.657C310.98 199.503 311.361 198.544 311.768 197.613C314.894 190.512 316.864 183.163 316.339 175.328C315.945 169.579 315.485 163.831 314.907 158.108C313.935 148.436 313.778 138.842 316.943 129.471C317.206 128.684 317.495 127.883 317.889 127.148C318.335 126.335 318.9 125.586 319.754 124.313C319.977 125.468 320.174 126.085 320.2 126.728C320.345 130.075 320.345 133.448 320.581 136.781C320.818 140.181 321.987 143.331 323.681 146.283C325.401 149.289 327.109 152.294 328.843 155.3C333.899 164.08 340.598 171.364 348.964 177.112C349.739 177.651 350.527 178.176 351.289 178.74C352.812 179.855 354.231 181.142 355.846 182.1C357.462 183.018 359.261 183.648 361.297 184.541Z" fill="#BA2425"/>
<path d="M245.824 124.983C248.976 132.49 250.184 139.511 249.698 146.848C248.923 158.45 248.188 170.051 247.492 181.666C247.374 183.648 247.439 185.656 247.571 187.638C247.859 192.205 248.753 196.549 251.839 200.211C253.218 201.852 253.179 202.547 251.682 203.991C247.229 208.283 244.799 213.821 242.737 219.386C240.636 225.055 239.375 231.053 237.97 236.959C237.392 239.387 237.352 241.946 237.155 244.453C236.104 257.63 235.33 270.82 235.54 284.062C235.632 289.496 236.577 294.654 238.705 299.667C239.716 302.043 240.176 304.681 240.701 307.24C240.859 308.014 240.439 308.92 240.229 310.075C238.626 309.523 237.444 309.169 236.288 308.723C228.303 305.652 221.184 300.993 213.855 296.688C208.3 293.42 204.307 289.076 201.286 283.485C199.828 280.794 199.395 278.471 200.301 275.518C202.836 267.289 205.226 258.955 205.555 250.32C205.843 242.537 207.157 234.885 207.656 227.155C208.562 213.047 207.998 199.043 203.282 185.499C203.007 184.711 202.823 183.884 202.639 183.071C202.573 182.782 202.626 182.454 202.626 182.113C202.928 181.955 203.203 181.693 203.453 181.706C207.59 182.073 210.913 180.249 214.21 178.018C228.776 168.135 238.482 154.762 243.433 137.923C244.221 135.22 244.576 132.385 245.101 129.602C245.338 128.303 245.508 127.004 245.824 124.983Z" fill="#BA2425"/>
<path d="M215.103 316.322C217.375 317.727 218.964 318.947 220.751 319.761C223.115 320.837 225.597 321.677 228.079 322.478C231.665 323.619 235.474 324.263 238.863 325.824C241.91 327.229 243.906 330.195 245.6 333.095C245.994 333.765 245.6 335.143 245.18 336.009C244.169 338.082 242.882 340.012 241.765 342.033C236.735 351.128 236.643 360.473 240.596 369.909C241.424 371.891 242.868 373.662 244.274 375.329C245.613 376.93 247.281 378.256 248.779 379.726C249.724 380.645 250.276 381.576 249.593 383.046C246.086 390.632 245.167 398.743 244.891 406.972C244.747 411.172 244.799 415.371 244.707 419.558C244.536 427.603 246.901 435.124 249.79 442.46C250.841 445.137 252.785 447.5 254.558 449.823C255.333 450.833 256.699 451.385 258.196 452.421C257.684 474.575 259.523 497.228 255.215 519.683C254.834 519.578 254.558 519.578 254.492 519.46C251.432 514.224 247.702 509.328 246.021 503.37C244.72 498.75 242.238 494.721 239.559 490.836C235.829 485.429 232.992 479.772 231.928 473.131C231.179 468.407 229.537 463.787 228.053 459.207C225.348 450.899 223.785 442.342 222.314 433.759C220.37 422.393 218.189 411.054 216.508 399.648C213.684 380.631 211.964 361.522 213.33 342.256C213.803 335.563 214.079 328.843 214.499 322.136C214.591 320.365 214.853 318.632 215.103 316.322Z" fill="#BA2425"/>
<path d="M319.072 336.94C321.016 334.46 322.907 331.979 324.89 329.577C325.258 329.131 325.98 328.987 326.545 328.724C330.17 327.057 333.795 325.404 337.407 323.711C342.963 321.112 348.151 317.989 352.275 313.329C352.656 312.896 353.181 312.581 353.982 311.925C354.127 313.224 354.311 314.117 354.324 314.996C354.376 321.388 354.127 327.792 354.468 334.171C354.836 340.917 354.678 347.676 353.509 354.251C352.025 362.637 351.828 371.155 350.423 379.528C347.192 398.769 344.46 418.101 339.416 436.987C337.144 445.491 334.281 453.838 331.746 462.277C329.934 468.301 328.384 474.417 326.374 480.362C325.008 484.418 323.091 488.29 321.344 492.214C318.192 499.301 315.013 506.375 311.809 513.436C311.007 515.207 310.035 516.914 308.801 519.315C307.422 515.614 307.133 512.543 306.844 509.512C306.568 506.598 306.594 503.645 306.529 500.705C306.227 486.229 305.951 471.74 305.662 457.264C305.649 456.542 305.662 455.82 305.662 455.019C309.274 453.261 311.073 450.15 312.505 446.672C314.396 442.066 315.381 437.249 315.959 432.341C317.43 419.991 317.732 407.641 315.696 395.317C315.276 392.745 314.541 390.198 313.858 387.679C313.49 386.327 313.647 385.29 314.79 384.332C318.323 381.34 320.53 377.389 322.368 373.242C323.288 371.155 324.181 368.872 324.26 366.64C324.47 361.102 324.391 355.524 324.063 349.986C323.8 345.34 321.882 341.1 319.072 336.94Z" fill="#BA2425"/>
<path d="M273.919 38.7951C274.064 36.4853 274.195 34.7135 274.287 32.9417C274.366 31.5768 274.655 30.1725 274.392 28.8732C273.657 25.054 275.627 22.1798 277.544 19.3187C277.925 18.7543 278.937 18.3868 279.685 18.3606C282.194 18.2425 284.716 18.3212 287.474 18.3212C289.286 22.7966 291.966 26.7864 291.861 31.918C291.65 42.7062 294.343 53.14 296.3 63.6526C298.743 76.7506 301.107 89.8618 303.458 102.973C303.707 104.403 303.799 105.926 303.615 107.343C301.724 121.531 301.435 135.784 301.514 150.076C301.54 155.536 301.107 160.982 301.067 166.442C301.054 169.684 301.422 172.925 301.606 176.167C301.645 176.758 301.606 177.348 301.606 178.346C289.838 175.262 278.411 175.183 266.748 178.7C265.461 177.663 264.436 176.417 264.725 174.159C266.183 162.964 265.697 151.743 265.08 140.522C264.712 134.025 264.515 127.515 263.99 121.045C263.517 115.297 262.795 109.561 261.98 103.852C261.6 101.188 261.836 98.642 262.427 96.0696C264.016 89.0087 265.776 81.9741 267.076 74.8607C267.825 70.7528 267.812 66.5137 268.193 62.3401C268.994 53.56 271.87 45.5804 277.413 38.6245C277.676 38.2964 277.912 37.942 278.109 37.5877C278.188 37.4564 278.122 37.2333 278.122 36.7871C276.848 37.3908 275.692 37.9552 273.919 38.7951ZM282.128 53.3763C279.764 56.7361 278.923 60.5158 278.464 64.335C277.754 70.1622 277.584 76.055 276.783 81.8691C274.747 96.8702 273.814 111.937 273.433 127.056C273.407 128.145 273.538 129.248 273.604 130.495C275.889 129.3 275.837 129.3 276.021 127.082C277.374 110.034 278.739 92.9853 280.132 75.9369C280.749 68.4167 281.458 60.8965 282.128 53.3763ZM273.486 139.669C271.371 141.178 271.673 143.015 271.634 144.721C271.608 146.493 271.568 148.265 271.595 150.037C271.621 151.677 271.437 153.357 272.133 154.998C273.276 150.85 274.077 146.703 274.655 142.516C274.773 141.703 273.972 140.771 273.486 139.669Z" fill="#BA2425"/>
<path d="M269.254 446.698C278.146 446.698 286.723 446.698 295.615 446.698C295.733 448.05 295.877 449.152 295.917 450.255C296.586 468.799 297.151 487.344 297.992 505.875C298.149 509.419 296.994 512.451 295.956 515.601C295.733 516.283 294.932 516.979 294.222 517.254C292.476 517.937 290.676 518.619 288.837 518.869C282.73 519.722 276.715 518.973 270.765 517.425C268.545 516.847 267.731 515.456 267.166 513.264C265.262 505.875 266.365 498.46 266.706 491.071C267.376 476.936 268.256 462.815 269.044 448.68C269.097 448.063 269.176 447.446 269.254 446.698Z" fill="#BA2425"/>
<path d="M296.785 232.838C287.197 232.655 277.465 231.001 267.522 232.865C265.001 228.757 263.267 224.491 263.149 219.622C262.965 211.236 262.715 202.836 262.492 194.45C262.466 193.61 262.531 192.744 262.347 191.943C261.454 188.255 263.241 186.103 266.261 184.318C269.23 182.572 272.369 181.562 275.731 181.155C281.694 180.433 287.657 180.604 293.646 181.076C297.534 181.391 299.793 183.937 302.367 186.182C302.735 186.497 302.774 187.337 302.748 187.927C302.275 198.4 301.829 208.874 301.237 219.347C301.146 221.079 300.555 222.825 299.977 224.491C299.057 227.156 297.967 229.767 296.785 232.838ZM275.784 192.534C273.393 193.229 273.275 193.229 273.354 195.25C273.669 202.771 274.063 210.304 274.431 217.824C274.457 218.349 274.405 218.966 274.667 219.347C275.048 219.885 275.692 220.239 276.23 220.659C276.703 220.055 277.347 219.517 277.583 218.835C277.754 218.323 277.439 217.614 277.268 217.024C275.692 211.21 275.219 205.304 275.744 199.293C275.928 197.14 275.784 194.949 275.784 192.534Z" fill="#BA2425"/>
<path d="M295.327 521.284C296.352 522.019 297.363 522.741 298.519 523.568C298.69 526.692 298.834 529.933 299.031 533.175C299.307 537.782 299.649 542.388 299.859 546.995C299.911 548.216 299.806 549.541 299.36 550.657C297.442 555.421 295.341 560.119 293.357 564.857C292.74 566.353 291.86 567.193 290.113 567.298C284.426 567.653 278.792 567.377 273.183 566.38C271.148 566.012 269.795 565.093 269.033 563.085C267.614 559.358 265.973 555.723 264.528 552.008C264.16 551.063 264.029 549.974 264.068 548.95C264.331 541.299 264.646 533.647 265.014 525.996C265.066 524.894 265.198 523.634 265.763 522.728C267.063 520.681 268.284 520.444 270.845 521.166C278.989 523.489 287.145 524.172 295.327 521.284Z" fill="#BA2425"/>
<path d="M282.664 590.305C278.067 583.349 274.639 576.511 271.972 568.834C278.369 569.214 284.345 569.582 290.78 569.962C288.495 576.905 285.868 583.415 282.664 590.305Z" fill="#BA2425"/>
<path d="M279.787 15.1192C279.183 12.0875 279.485 9.08201 280.024 6.10279C280.129 5.52532 280.47 4.85599 280.917 4.51476C282.795 3.08421 284.752 1.74553 287.234 0C287.234 5.48596 287.234 10.237 287.234 15.1455C284.778 15.9067 282.348 15.9854 279.787 15.1192Z" fill="#BA2425"/>
<path d="M367.804 424.684C367.101 424.364 366.409 424.018 365.487 423.579C364.732 425.731 365.224 427.375 365.791 428.979C367.751 434.466 370.826 439.31 374.238 443.992C382.642 455.523 391.649 466.553 401.124 477.214C407.854 484.794 411.965 493.761 414.046 503.628C415.301 509.568 416.079 515.6 417.019 521.601C417.221 522.836 417.504 523.841 418.664 524.628C427.852 530.863 437.016 537.138 446.156 543.438C452.924 548.103 460.372 551.493 467.748 554.998C468.465 555.343 469.289 555.469 470.766 555.904C469.784 553.92 469.141 552.687 468.547 551.426C464.848 543.56 460.975 535.764 457.539 527.789C455.338 522.689 453.736 517.343 451.959 512.065C448.614 502.111 449.045 491.899 450.083 481.68C450.655 476.037 452.744 470.904 456.099 466.314C456.607 465.614 457.025 464.84 457.567 463.975C456.643 463.472 455.925 463.127 455.257 462.717C451.99 460.704 448.505 458.976 445.53 456.612C433.01 446.642 428.512 433.697 432.008 418.029C432.329 416.588 432.202 415.312 431.881 413.903C430.543 408.092 429.078 402.285 428.141 396.411C426.921 388.734 426.985 380.915 425.928 373.169C423.774 357.236 424.433 341.24 426.747 325.331C426.852 324.643 426.993 323.879 426.785 323.252C425.867 320.481 424.986 317.658 423.769 315.011C422.052 311.289 420.976 307.459 420.561 303.38C419.619 294.034 420.268 284.753 421.892 275.555C422.892 269.886 424.261 264.294 427.144 259.148C425.962 257.614 407.75 215.492 405.919 215.043C398.66 213.27 392.693 209.226 387.156 204.37C384.576 202.107 383.277 199.26 382.96 195.9C382.865 194.838 382.782 193.777 382.686 192.716C381.072 193.983 380.275 195.591 379.593 197.196C378.311 200.252 376.562 203.322 376.156 206.527C374.785 217.403 376.527 227.724 382.892 236.949C384.41 239.157 386.062 241.17 388.689 242.063C390.117 242.55 390.477 243.578 390.303 244.913C390.109 246.414 389.865 247.917 389.595 249.408C388.323 256.492 387.229 263.633 387.74 270.839C388.274 278.398 389.161 285.946 390.086 293.48C391.177 302.327 392.431 311.143 393.711 319.959C393.936 321.535 394.217 323.313 395.113 324.539C396.878 326.966 396.75 329.378 396.023 332.01C395.67 333.276 395.458 334.574 395.258 335.873C394.292 342.251 392 348.176 389.083 353.88C388.488 355.039 387.727 356.152 386.899 357.154C384.806 359.677 382.702 360.187 379.614 359.08C379.015 358.871 378.403 358.675 377.396 358.339C377.757 359.848 378.042 360.903 378.264 361.961C379.211 366.517 380.195 371.059 381.029 375.632C381.547 378.517 381.813 381.448 382.205 384.362C383.712 395.679 383.168 406.769 378.764 417.486C377.777 419.86 376.531 422.028 374.563 423.699C372.534 425.422 370.262 425.823 367.804 424.684Z" fill="white"/>
<path d="M465.168 382.497C464.577 382.395 463.99 382.271 463.213 382.121C463.064 383.884 463.753 385.022 464.49 386.115C467.028 389.849 470.278 392.883 473.749 395.728C482.299 402.737 491.204 409.252 500.389 415.398L510.01 423.969C510.01 423.969 520.861 418.815 529.054 418.756C537.247 418.697 547.582 420.742 547.582 420.742C540.858 414.012 537.919 400.552 539.546 396.45C539.791 395.824 539.955 395.162 540.193 394.406C539.402 394.21 538.796 394.091 538.215 393.915C535.371 393.044 532.419 392.43 529.726 391.238C518.389 386.207 512.497 377.371 512.077 364.928C512.038 363.783 511.695 362.85 511.18 361.855C509.046 357.756 506.818 353.685 504.973 349.459C502.566 343.936 501.095 338.055 498.796 332.449C494.083 320.912 491.47 308.776 490.116 296.383C490.062 295.846 490.019 295.245 489.74 294.815C488.513 292.915 487.303 290.969 485.875 289.22C483.863 286.763 482.311 284.099 481.206 281.119C478.683 274.289 477.368 267.196 476.8 259.974C476.449 255.523 476.39 251.058 477.555 246.631C476.369 245.712 454.512 217.663 453.05 217.685C447.255 217.775 441.99 215.909 436.889 213.349C434.513 212.156 432.984 210.273 432.093 207.813C431.815 207.035 431.547 206.255 431.269 205.477C430.303 206.744 430.018 208.108 429.817 209.446C429.448 211.99 428.732 214.637 429.05 217.123C430.134 225.553 433.447 232.959 440.018 238.637C441.587 239.996 443.218 241.183 445.364 241.339C446.531 241.425 447 242.126 447.129 243.163C447.276 244.327 447.384 245.503 447.471 246.674C447.892 252.241 448.459 257.815 450.242 263.123C452.112 268.692 454.245 274.183 456.403 279.657C458.941 286.084 461.596 292.455 464.269 298.821C464.744 299.96 465.301 301.239 466.212 301.984C468.009 303.46 468.381 305.295 468.347 307.413C468.328 308.432 468.421 309.449 468.523 310.462C469.037 315.438 468.467 320.334 467.386 325.187C467.164 326.173 466.809 327.158 466.382 328.072C465.301 330.376 463.82 331.17 461.287 330.945C460.796 330.905 460.299 330.878 459.478 330.823C460.042 331.885 460.461 332.621 460.833 333.371C462.429 336.605 464.051 339.822 465.566 343.091C466.515 345.155 467.284 347.302 468.145 349.413C471.475 357.611 473.222 366.041 471.997 374.947C471.718 376.923 471.203 378.794 470.05 380.434C468.862 382.125 467.234 382.87 465.168 382.497Z" fill="white"/>
<path d="M522.548 417.133C521.901 416.385 490.124 389.341 489.592 388.948C487.358 390.037 474.762 400.625 472.336 401.215C465.816 405.344 462.59 406.956 455.685 404.947C453.446 404.284 451.591 403.337 449.687 401.886C447.69 400.379 446.31 400.231 446.799 397.732C447.056 396.376 446.881 394.373 447.144 392.915C446.033 392.47 445.098 392.107 444.183 391.71C436.001 388.182 429.501 382.72 425.903 374.451C424.523 371.293 422.563 369.586 419.444 368.829C419.051 368.732 418.675 368.612 418.289 368.478C405.91 364.345 393.092 362.011 380.325 359.532C379.21 359.318 380.191 360.151 378.408 359.944C380.517 362.179 380.086 362.848 381.524 364.614C384.817 368.672 387.166 373.061 385.432 378.563C385.046 379.78 385.523 380.69 386.355 381.548C390.54 385.845 393.762 390.868 397.099 395.822C400.365 400.673 403.67 405.518 406.948 410.371C411.024 416.411 415.091 422.436 419.138 428.496C419.995 429.784 420.882 430.485 422.624 429.99C427.866 428.494 433.187 428.698 438.514 429.573C443.592 430.415 448.657 431.254 453.743 432.047C457.931 432.702 462.203 432.961 466.289 433.971C469.689 434.805 472.854 434.452 476.124 433.731C480.663 432.726 485.198 431.81 489.742 430.844C500.176 428.628 510.184 425.292 519.231 419.467C520.317 418.775 521.33 417.993 522.548 417.133Z" fill="white"/>
</svg>
