<svg width="118" height="74" viewBox="0 0 118 74" fill="none" xmlns="http://www.w3.org/2000/svg">
<path d="M16.9561 16.292H6.26855V23.5283H18.8115V28H0.702148V0.984375H18.7744V5.49316H6.26855V11.9316H16.9561V16.292ZM32.0781 18.1104H27.6436V28H22.0771V0.984375H32.1152C35.3066 0.984375 37.7682 1.69564 39.5 3.11816C41.2318 4.54069 42.0977 6.55078 42.0977 9.14844C42.0977 10.9915 41.6956 12.5316 40.8916 13.7686C40.0999 14.9932 38.8939 15.9704 37.2734 16.7002L43.1182 27.7402V28H37.1436L32.0781 18.1104ZM27.6436 13.6016H32.1338C33.5316 13.6016 34.6139 13.249 35.3809 12.5439C36.1478 11.8265 36.5312 10.8431 36.5312 9.59375C36.5312 8.31966 36.1663 7.31771 35.4365 6.58789C34.7191 5.85807 33.612 5.49316 32.1152 5.49316H27.6436V13.6016ZM56.3477 18.1104H51.9131V28H46.3467V0.984375H56.3848C59.5762 0.984375 62.0378 1.69564 63.7695 3.11816C65.5013 4.54069 66.3672 6.55078 66.3672 9.14844C66.3672 10.9915 65.9652 12.5316 65.1611 13.7686C64.3695 14.9932 63.1634 15.9704 61.543 16.7002L67.3877 27.7402V28H61.4131L56.3477 18.1104ZM51.9131 13.6016H56.4033C57.8011 13.6016 58.8835 13.249 59.6504 12.5439C60.4173 11.8265 60.8008 10.8431 60.8008 9.59375C60.8008 8.31966 60.4359 7.31771 59.7061 6.58789C58.9886 5.85807 57.8815 5.49316 56.3848 5.49316H51.9131V13.6016ZM92.8076 15.1045C92.8076 17.764 92.3376 20.0957 91.3975 22.0996C90.4574 24.1035 89.109 25.6497 87.3525 26.7383C85.6084 27.8268 83.6045 28.3711 81.3408 28.3711C79.1019 28.3711 77.1042 27.833 75.3477 26.7568C73.5911 25.6807 72.2305 24.1468 71.2656 22.1553C70.3008 20.1514 69.8122 17.8506 69.7998 15.2529V13.917C69.7998 11.2575 70.276 8.9196 71.2285 6.90332C72.1934 4.87467 73.5479 3.32227 75.292 2.24609C77.0485 1.15755 79.0524 0.613281 81.3037 0.613281C83.555 0.613281 85.5527 1.15755 87.2969 2.24609C89.0534 3.32227 90.4079 4.87467 91.3604 6.90332C92.3252 8.9196 92.8076 11.2513 92.8076 13.8984V15.1045ZM87.167 13.8799C87.167 11.0472 86.6598 8.89486 85.6455 7.42285C84.6312 5.95085 83.1839 5.21484 81.3037 5.21484C79.4359 5.21484 77.9948 5.94466 76.9805 7.4043C75.9661 8.85156 75.4528 10.9792 75.4404 13.7871V15.1045C75.4404 17.863 75.9476 20.0029 76.9619 21.5244C77.9762 23.0459 79.4359 23.8066 81.3408 23.8066C83.2087 23.8066 84.6436 23.0768 85.6455 21.6172C86.6475 20.1452 87.1546 18.0052 87.167 15.1973V13.8799ZM106.854 18.1104H102.419V28H96.8525V0.984375H106.891C110.082 0.984375 112.544 1.69564 114.275 3.11816C116.007 4.54069 116.873 6.55078 116.873 9.14844C116.873 10.9915 116.471 12.5316 115.667 13.7686C114.875 14.9932 113.669 15.9704 112.049 16.7002L117.894 27.7402V28H111.919L106.854 18.1104ZM102.419 13.6016H106.909C108.307 13.6016 109.389 13.249 110.156 12.5439C110.923 11.8265 111.307 10.8431 111.307 9.59375C111.307 8.31966 110.942 7.31771 110.212 6.58789C109.494 5.85807 108.387 5.49316 106.891 5.49316H102.419V13.6016ZM43.4707 62.832H46.5322V67.1553H43.4707V73H38.1084V67.1553H27.0312L26.79 63.7783L38.0527 45.9844H43.4707V62.832ZM32.1338 62.832H38.1084V53.2949L37.7559 53.9072L32.1338 62.832ZM67.6104 61.8301C67.6104 65.5658 66.8372 68.4232 65.291 70.4023C63.7448 72.3815 61.4811 73.3711 58.5 73.3711C55.556 73.3711 53.3047 72.4001 51.7461 70.458C50.1875 68.516 49.3896 65.7327 49.3525 62.1084V57.1357C49.3525 53.363 50.1318 50.4993 51.6904 48.5449C53.2614 46.5905 55.5189 45.6133 58.4629 45.6133C61.4069 45.6133 63.6582 46.5843 65.2168 48.5264C66.7754 50.4561 67.5732 53.2331 67.6104 56.8574V61.8301ZM62.248 56.375C62.248 54.1361 61.9388 52.5094 61.3203 51.4951C60.7142 50.4684 59.7617 49.9551 58.4629 49.9551C57.2012 49.9551 56.2673 50.4437 55.6611 51.4209C55.0674 52.3857 54.752 53.901 54.7148 55.9668V62.5352C54.7148 64.737 55.0117 66.376 55.6055 67.4521C56.2116 68.516 57.1764 69.0479 58.5 69.0479C59.8112 69.0479 60.7575 68.5345 61.3389 67.5078C61.9202 66.4811 62.2233 64.9102 62.248 62.7949V56.375ZM87.1113 62.832H90.1729V67.1553H87.1113V73H81.749V67.1553H70.6719L70.4307 63.7783L81.6934 45.9844H87.1113V62.832ZM75.7744 62.832H81.749V53.2949L81.3965 53.9072L75.7744 62.832Z" fill="#BA2425"/>
</svg>
