<svg width="91" height="59" viewBox="0 0 91 59" fill="none" xmlns="http://www.w3.org/2000/svg">
<path d="M23.4825 38.9709C23.573 39.0174 23.6408 39.0538 23.71 39.0877C23.9512 39.2084 24.1787 39.1757 24.386 39.0111C24.5871 38.8515 24.7177 38.6404 24.8233 38.4079C25.2945 37.3587 25.3825 36.2604 25.2669 35.1332C25.2367 34.843 25.2191 34.5514 25.1764 34.2637C25.1073 33.8075 25.0231 33.3539 24.9427 32.899C24.9238 32.7935 24.8987 32.6879 24.8673 32.5371C24.9666 32.5736 25.0269 32.5949 25.0859 32.6175C25.39 32.7369 25.6011 32.6929 25.8173 32.4491C25.9027 32.3524 25.9819 32.2443 26.0447 32.1312C26.3526 31.5746 26.5989 30.994 26.7145 30.3645C26.7384 30.2363 26.7635 30.1081 26.8024 29.9837C26.8829 29.7249 26.903 29.4861 26.7346 29.2398C26.6491 29.1154 26.6265 28.9382 26.6089 28.7811C26.5084 27.9028 26.4104 27.0244 26.3287 26.1436C26.2596 25.3934 26.1942 24.6419 26.1641 23.8905C26.1352 23.1742 26.2659 22.4693 26.4142 21.7706C26.4456 21.6236 26.4745 21.4753 26.4983 21.327C26.5197 21.1951 26.487 21.092 26.3463 21.0393C26.0874 20.9425 25.9291 20.7377 25.7846 20.514C25.1789 19.5791 25.0369 18.55 25.2066 17.4756C25.2568 17.1589 25.4403 16.8598 25.5773 16.5608C25.6501 16.4037 25.7343 16.2466 25.8989 16.126C25.9052 16.2315 25.9103 16.3371 25.9165 16.4426C25.9379 16.7769 26.0585 17.0634 26.3086 17.2959C26.8452 17.7947 27.427 18.2144 28.1445 18.413C28.3254 18.4632 28.4674 18.5537 28.5805 18.7095C28.764 18.9596 29.0191 19.084 29.3345 19.0765C29.5217 19.0727 29.6624 18.9935 29.7579 18.8339C29.9515 18.5135 29.9665 18.1893 29.7642 17.8676C29.7115 17.7834 29.6474 17.7068 29.5795 17.6138C29.7303 17.507 29.8786 17.5359 30.0055 17.6138C30.3486 17.8211 30.6979 18.0234 31.0145 18.2647C31.3249 18.5009 31.6001 18.7849 31.8904 19.0488C32.1028 19.2411 32.3403 19.3906 32.6255 19.4384C32.9334 19.4911 33.2086 19.4509 33.3669 19.128C33.3958 19.0689 33.4498 19.0212 33.5114 18.9445C33.617 19.0488 33.7112 19.1343 33.7979 19.2285C34.5267 20.0126 35.0294 20.935 35.4302 21.9189C35.6049 22.3474 35.7745 22.7759 35.953 23.2031C36.0811 23.511 36.1716 23.8151 36.1502 24.1632C36.1239 24.5816 36.1741 25.0051 36.1842 25.4273C36.1967 25.94 36.2043 26.4514 36.2118 26.9641C36.2206 27.5019 36.2948 28.0272 36.5335 28.5147C36.6127 28.6769 36.5599 28.7761 36.4493 28.8829C35.9291 29.3868 35.4126 29.892 34.8949 30.3984C34.479 30.8055 34.0643 31.2152 33.6484 31.621C33.2236 32.0357 32.7901 32.4403 32.4446 32.9267C32.3754 33.0234 32.295 33.0862 32.1694 33.0699C31.6014 32.997 31.2143 33.3049 30.8763 33.6995C30.7293 33.8716 30.6062 34.0651 30.4252 34.3114C30.4139 34.133 30.4001 34.0199 30.4013 33.9068C30.4177 32.6112 30.4189 31.3132 30.6036 30.0264C30.6099 29.9862 30.615 29.9473 30.6175 29.9071C30.6363 29.5879 30.7683 29.3655 31.0522 29.1745C31.7961 28.6756 32.2146 27.9417 32.4144 27.0772C32.437 26.9804 32.4559 26.8824 32.4797 26.7656C32.6268 26.7656 32.765 26.7643 32.902 26.7656C33.1545 26.7693 33.3644 26.6701 33.4762 26.4476C33.5843 26.2353 33.6961 26.0066 33.7212 25.7754C33.7954 25.0629 33.8155 24.3466 33.5177 23.6693C33.4172 23.4419 33.3003 23.2144 33.1545 23.0146C32.9811 22.7771 32.7449 22.5987 32.4521 22.522C32.1518 22.4429 31.8489 22.3687 31.5436 22.3097C31.3978 22.282 31.242 22.2795 31.0937 22.2921C30.6853 22.3273 30.3523 22.4768 30.1236 22.8538C29.8208 23.3552 29.6675 23.9056 29.5506 24.4647C29.3609 25.372 29.2679 26.2906 29.3332 27.2205C29.3621 27.6263 29.4576 28.0096 29.6172 28.3841C29.7303 28.6505 29.8095 28.9332 29.8924 29.2109C29.9113 29.2737 29.8949 29.3491 29.8824 29.417C29.6034 30.9877 29.489 32.5723 29.6549 34.1594C29.7366 34.9309 29.7064 35.7062 29.8044 36.4715C29.8798 37.0571 30.008 37.6376 30.1236 38.2182C30.1513 38.3589 30.1601 38.4858 30.1236 38.6278C29.7278 40.1709 30.1362 41.469 31.3526 42.4969C31.6416 42.7407 31.9834 42.9229 32.3026 43.1327C32.3679 43.1754 32.4383 43.2119 32.5287 43.2647C32.4722 43.3489 32.4282 43.4242 32.3754 43.4921C32.0274 43.9369 31.8037 44.4396 31.7295 44.9975C31.5951 46.0078 31.521 47.0194 31.8238 48.0171C31.9846 48.5461 32.1279 49.0814 32.3315 49.5941C32.6494 50.3958 33.0113 51.1812 33.3556 51.9729C33.4109 52.0998 33.4712 52.2242 33.5629 52.424C33.4172 52.3762 33.3355 52.3611 33.2651 52.3247C32.5413 51.954 31.81 51.5946 31.1503 51.1108C30.2593 50.4574 29.3659 49.8065 28.4699 49.1593C28.3568 49.0777 28.3317 48.9771 28.3154 48.854C28.24 48.2559 28.1809 47.6552 28.0741 47.0621C27.8969 46.0769 27.5149 45.1747 26.8678 44.4019C25.9567 43.3149 25.0935 42.1928 24.2918 41.0229C23.9663 40.5479 23.6748 40.0578 23.4963 39.5074C23.4448 39.3466 23.4008 39.182 23.4825 38.9709Z" fill="white"/>
<path d="M5.22172 32.4665C5.08726 32.3132 4.95532 32.1775 4.83846 32.0305C4.53436 31.6472 4.18629 31.3218 3.7314 31.1207C3.66354 31.0906 3.59694 31.0302 3.55673 30.9662C2.69847 29.604 2.05259 28.1438 1.66681 26.5857C1.42178 25.5942 1.25716 24.5801 1.10511 23.5686C1.03223 23.086 1.06239 22.5872 1.06239 22.0946C1.06239 21.8395 1.04857 21.607 0.765836 21.5015C0.534623 21.4135 0.347388 21.4864 0.119944 21.7528C0.101095 21.7754 0.0872699 21.8031 0.0696776 21.8282C0.049572 21.8232 0.0282111 21.8181 0.00810562 21.8131C0.00684903 21.6711 -0.00948671 21.5279 0.00810562 21.3884C0.121199 20.5125 0.231782 19.6354 0.363724 18.7608C0.457969 18.1351 0.581117 17.5143 0.695467 16.8923C0.721856 16.7478 0.71054 16.6309 0.539643 16.5643C0.450425 16.6196 0.352414 16.6812 0.221728 16.7616C-0.047183 13.7194 0.398904 10.7601 0.892746 7.79077C0.937983 7.87496 0.988249 7.95664 1.02846 8.04209C1.33507 8.69175 1.72713 9.28486 2.18704 9.834C2.81534 10.5854 3.60825 11.0994 4.52808 11.4211C4.84097 11.5304 5.16015 11.6196 5.47555 11.7201C5.57734 11.7528 5.67786 11.7905 5.78593 11.8282C5.76457 11.8848 5.76206 11.9199 5.74321 11.9363C4.73793 12.8008 4.16115 13.9167 3.98146 15.2072C3.80051 16.5053 3.78669 17.8184 4.1511 19.0951C4.32954 19.7209 4.59216 20.3228 4.8284 20.931C4.88998 21.0881 4.91134 21.2225 4.85605 21.3896C4.69018 21.8847 4.704 22.4025 4.73542 22.9126C4.76306 23.3612 5.11365 23.6565 5.56602 23.6691C5.70551 23.6729 5.84625 23.6691 6.01589 23.6691C6.05107 23.7784 6.0938 23.8878 6.1227 24.0021C6.24334 24.4784 6.34637 24.9609 6.48083 25.4334C6.74974 26.3746 7.34788 27.0204 8.26268 27.3798C9.41246 27.8322 10.556 28.2971 11.7045 28.752C11.9734 28.8588 12.2071 29.0059 12.3717 29.2459C12.7776 29.8377 13.2677 30.3567 13.7716 30.8606C14.3823 31.4713 14.9754 32.1021 15.6892 32.5997C15.8952 32.743 16.1026 32.8825 16.3187 33.0295C16.3099 33.1036 16.3049 33.1715 16.2936 33.2393C16.1604 33.977 16.1202 34.7133 16.2973 35.4509C16.33 35.5867 16.3489 35.7299 16.3426 35.8694C16.3262 36.2074 16.3891 36.5278 16.5097 36.842C16.6077 37.0946 16.6982 37.3509 16.795 37.6035C17.035 38.2268 17.3529 38.8048 17.7902 39.3137C17.8882 39.4281 17.9762 39.55 18.0855 39.6894C17.9988 39.7699 17.9234 39.8465 17.8417 39.9156C17.3114 40.3655 17.05 40.9435 17.0362 41.6334C17.0299 41.9438 17.0526 42.2554 17.0475 42.567C17.0463 42.6814 17.0249 42.807 16.9747 42.9076C16.4205 44.0335 16.2383 45.2159 16.4431 46.4537C16.4708 46.6208 16.5399 46.7804 16.5901 46.9438C16.6216 47.0455 16.6517 47.1486 16.6379 47.283C16.521 47.1951 16.4016 47.1109 16.2873 47.0192C15.282 46.2061 14.4715 45.2197 13.8545 44.0925C13.2526 42.9918 12.7148 41.8558 12.1544 40.7324C11.9935 40.4095 11.854 40.074 11.7007 39.7472C11.5977 39.5286 11.5851 39.3125 11.6442 39.075C11.7623 38.5962 11.8427 38.1124 11.7975 37.6135C11.7334 36.9199 11.4796 36.328 10.8927 35.9184C10.7482 35.8179 10.708 35.7048 10.7231 35.5389C10.8425 34.1868 10.1702 33.2645 9.09078 32.5708C8.85328 32.4175 8.58311 32.3924 8.32049 32.4175C8.29158 32.3962 8.26519 32.3874 8.26142 32.3723C8.15587 31.9915 7.8857 31.8257 7.51375 31.7754C6.75979 31.6749 6.04731 31.7327 5.44665 32.268C5.3788 32.3296 5.31219 32.3874 5.22172 32.4665Z" fill="white"/>
<path d="M85.4591 11.8698C85.5747 11.7253 85.7105 11.7379 85.8386 11.7504C86.4229 11.8082 86.9532 11.6436 87.4496 11.3546C88.1432 10.95 88.7326 10.4197 89.254 9.81526C89.7202 9.27492 90.1789 8.72705 90.537 8.10504C90.5559 8.07236 90.5873 8.04849 90.6388 7.99194C90.6652 8.08116 90.6928 8.14148 90.7004 8.20431C90.8361 9.2121 90.8839 10.2262 90.8939 11.2415C90.904 12.2066 90.8851 13.1716 90.8901 14.1354C90.8939 14.9195 90.9128 15.7024 90.9253 16.4865C90.9266 16.5732 90.9253 16.6612 90.9253 16.7479C90.9052 16.7554 90.8851 16.763 90.865 16.7718C90.7921 16.6612 90.7205 16.5519 90.6476 16.4413C90.5974 16.3646 90.537 16.2641 90.4403 16.3181C90.38 16.3521 90.3222 16.4652 90.3297 16.5355C90.3636 16.8245 90.4139 17.1123 90.4742 17.3963C90.6074 18.0246 90.762 18.6491 90.8864 19.2799C91.0158 19.9346 91.0045 20.5994 90.9944 21.2628C90.9944 21.288 90.9756 21.3131 90.9542 21.3659C90.8964 21.3018 90.8524 21.254 90.811 21.2038C90.7532 21.1347 90.7079 21.0505 90.6388 20.9952C90.5119 20.8934 90.3699 20.8117 90.1977 20.8821C90.0243 20.9525 89.964 21.102 89.9716 21.2716C89.9841 21.5833 89.9992 21.8949 90.0357 22.204C90.106 22.8085 90.0595 23.4053 89.9678 24.0047C89.7504 25.4385 89.4425 26.8497 88.9336 28.2106C88.6471 28.9746 88.3116 29.7134 87.8831 30.4096C87.7248 30.6659 87.5991 30.9411 87.4458 31.2013C87.393 31.2905 87.3164 31.3998 87.2272 31.4287C86.6617 31.6159 86.2432 32.003 85.8311 32.4038C85.7745 32.4591 85.7104 32.5081 85.625 32.5835C85.5785 32.493 85.5333 32.4189 85.5006 32.3397C85.2191 31.6436 84.7881 31.5405 84.1485 31.6586C83.7539 31.7315 83.48 31.9426 83.0603 32.4214C82.7034 32.2518 82.3956 32.444 82.0839 32.6074C81.717 32.7996 81.3865 33.0434 81.0887 33.3324C80.4893 33.913 80.2053 34.6179 80.2719 35.4511C80.287 35.6446 80.233 35.7677 80.0922 35.8921C79.7353 36.2075 79.4501 36.582 79.2038 36.9891C78.8444 37.5835 78.6999 38.2332 78.71 38.9193C78.7175 39.4257 78.8281 39.638 79.2691 40.0452C79.244 40.113 79.2214 40.1884 79.19 40.26C78.5981 41.5807 77.9673 42.8826 77.2435 44.1366C76.7082 45.064 76.0648 45.911 75.2857 46.6486C75.1061 46.8195 74.9075 46.9703 74.6612 47.1035C74.6838 46.9326 74.7077 46.7617 74.7291 46.5895C74.8258 45.8041 74.7957 45.0251 74.6172 44.2535C74.5117 43.7974 74.3169 43.3802 74.048 42.9994C73.9399 42.8461 73.8884 42.6966 73.9072 42.498C73.9877 41.641 73.8004 40.8406 73.333 40.1118C73.3016 40.0615 73.2727 40.0087 73.2312 39.9384C73.3418 39.785 73.4436 39.6242 73.5655 39.4797C73.9575 39.011 74.2428 38.4857 74.4363 37.9077C74.5833 37.4704 74.7529 37.0394 74.9 36.6021C75.2053 35.6898 75.189 34.7637 74.9829 33.8363C74.9289 33.5926 74.8522 33.3525 74.7718 33.0572C74.807 33.0359 74.8597 33.0057 74.91 32.9743C75.8776 32.3762 76.6831 31.5908 77.4509 30.7665C77.9233 30.2601 78.4147 29.7712 78.8067 29.192C78.901 29.0525 79.0694 28.9369 79.2277 28.8715C80.4717 28.3576 81.7208 27.8574 82.9698 27.3548C83.6785 27.0696 84.1925 26.577 84.4727 25.8733C84.6499 25.4272 84.7667 24.956 84.8874 24.491C84.9414 24.285 85.0181 24.1392 85.2179 24.0286C85.4604 23.8942 85.6803 23.7107 85.8927 23.5285C86.2948 23.1829 86.4556 22.7268 86.4217 22.2078C86.4028 21.9188 86.3563 21.6285 86.291 21.3458C86.2508 21.1686 86.2634 21.0191 86.335 20.8544C86.6454 20.1344 86.9231 19.4031 87.0801 18.6303C87.1907 18.0849 87.2435 17.5358 87.2246 16.9816C87.202 16.3395 87.1819 15.6936 87.1002 15.0565C86.9884 14.1794 86.5788 13.4167 86.0711 12.7054C85.8688 12.4277 85.6652 12.1538 85.4591 11.8698Z" fill="white"/>
<path d="M17.3478 44.1883C17.8693 44.3667 18.0528 44.3013 18.284 43.8251C18.4097 43.5637 18.5253 43.2898 18.5906 43.0083C18.847 41.9025 19.151 40.8017 19.3044 39.6808C19.5042 38.2257 19.4112 36.7706 18.857 35.3783C18.7376 35.0792 18.6497 34.7688 18.5202 34.4748C18.3343 34.0526 18.137 33.6354 17.9196 33.2282C17.8266 33.0536 17.7977 32.8977 17.8593 32.7143C18.0201 32.228 18.1671 31.7367 18.3355 31.2529C18.5793 30.5517 18.7062 29.8354 18.6786 29.0928C18.666 28.751 18.6848 28.4079 18.6585 28.0687C18.6195 27.5585 18.5529 27.0508 18.4976 26.5419C18.4599 26.1926 18.4122 25.8445 18.3833 25.4939C18.3355 24.9071 18.1131 24.4107 17.6695 24.0124C17.4722 23.8352 17.2699 23.712 16.9771 23.7812C16.9482 23.7032 16.9143 23.6329 16.8942 23.5587C16.8402 23.3552 16.7836 23.1516 16.7422 22.9443C16.6391 22.414 16.4293 21.9302 16.1453 21.4728C15.6477 20.6698 15.1563 19.8631 14.6625 19.0576C14.5042 18.7988 14.3772 18.5286 14.337 18.1931C14.4137 18.2107 14.4778 18.2182 14.5368 18.2396C14.8698 18.3552 15.1991 18.3464 15.4893 18.1428C15.703 17.992 15.8877 18.0272 16.0686 18.1604C16.5449 18.5085 17.0852 18.6806 17.6607 18.756C18.8507 18.9118 19.9955 18.7849 21.0234 18.1214C21.4494 17.8463 21.8879 17.6138 22.3616 17.4429C22.4081 17.4253 22.4559 17.4077 22.5036 17.3951C22.5212 17.3901 22.5413 17.4002 22.6017 17.4102C22.5715 17.5145 22.5501 17.6163 22.5137 17.7118C22.1279 18.7095 21.8163 19.7299 21.7233 20.7967C21.6203 21.9717 21.6152 23.1478 21.9834 24.2901C22.0538 24.5087 22.0638 24.6972 21.9432 24.9196C21.8314 25.1232 21.7736 25.377 21.761 25.612C21.6693 27.2582 21.7723 28.8867 22.2423 30.4775C22.3905 30.9802 22.5878 31.4615 22.8492 31.9176C23.0804 32.321 23.3895 32.6376 23.813 32.8525C23.8055 32.8802 23.8055 32.9141 23.7891 32.9304C23.294 33.4419 23.0679 34.084 22.9108 34.7537C22.5954 36.0933 22.5112 37.4554 22.5388 38.8264C22.5426 38.9935 22.5878 39.1656 22.6431 39.3252C22.8241 39.8467 23.01 40.3682 23.2136 40.8809C23.2865 41.0631 23.3983 41.2403 23.5265 41.3898C24.0756 42.0307 24.6399 42.659 25.1953 43.2948C25.3146 43.4305 25.4303 43.5713 25.5308 43.7208C26.0209 44.4547 26.5524 45.1621 26.9558 45.9525C27.3817 46.7869 27.6456 47.6653 27.7612 48.5901C27.8014 48.9068 27.7612 49.2222 27.6519 49.5489C27.6067 49.4534 27.5602 49.3579 27.5175 49.2624C27.0312 48.1754 26.3199 47.287 25.2418 46.7379C24.3709 46.2943 23.4524 46.0857 22.471 46.2164C22.3315 46.2352 22.1907 46.2428 22.0513 46.2629C21.81 46.2968 21.5813 46.3006 21.3463 46.1938C21.1867 46.1209 20.997 46.0895 20.8185 46.0845C20.0834 46.0644 19.3508 46.0706 18.661 46.3873C18.1872 46.6047 18.0641 46.7379 17.902 47.2782C17.8203 47.1425 17.7449 47.0432 17.6972 46.9327C17.4835 46.4388 17.3855 45.9161 17.3378 45.3833C17.3039 44.9937 17.2586 44.6029 17.3478 44.1883Z" fill="white"/>
<path d="M65.5119 22.5799C66.0962 22.2494 66.3551 21.6701 66.4958 21.0242C66.7145 20.0164 66.7786 18.9935 66.7258 17.9656C66.6994 17.4668 66.5976 16.9717 66.5348 16.4753C66.5021 16.2165 66.4707 15.9563 66.4581 15.6962C66.4518 15.5618 66.4883 15.4248 66.5109 15.2539C66.6491 15.3482 66.6416 15.4675 66.6805 15.5618C66.8363 15.9413 66.962 16.3383 67.1568 16.6965C67.4998 17.3273 68.0364 17.6967 68.7702 17.7633C68.9135 17.7759 69.0743 17.8312 69.1849 17.9179C70.1261 18.6593 71.2168 18.8779 72.3805 18.893C73.2927 18.9043 74.156 18.7209 74.9841 18.3476C75.0206 18.3313 75.0583 18.3187 75.1123 18.2986C75.6551 18.6894 76.1967 18.609 76.7609 18.2609C76.7383 18.3426 76.7283 18.4318 76.6906 18.506C76.4619 18.9634 76.247 19.4296 75.9894 19.8706C75.6803 20.3997 75.3347 20.9073 75.003 21.4225C74.6386 21.988 74.4212 22.6113 74.2867 23.266C74.254 23.4218 74.2188 23.5763 74.1761 23.7699C74.0932 23.7083 74.0379 23.6756 73.9927 23.6316C73.7903 23.4318 73.5428 23.3338 73.2651 23.3062C72.8806 23.2685 72.5023 23.2949 72.1316 23.4092C71.9884 23.4544 71.8414 23.4947 71.7031 23.5512C71.3727 23.6869 71.0497 23.7824 70.6878 23.6316C70.4981 23.5525 70.2907 23.6191 70.1035 23.7058C69.3495 24.0589 69.0253 25.0202 69.4249 25.7528C69.4815 25.8571 69.4739 25.94 69.4438 26.0355C69.3357 26.3697 69.2201 26.7027 69.1208 27.0395C69.0618 27.2406 69.009 27.4479 68.9876 27.6565C68.906 28.4544 69.4915 29.3818 70.2442 29.6721C70.4767 29.7613 70.6941 29.7424 70.909 29.6193C71.1527 29.4798 71.4003 29.3454 71.6478 29.2109C71.7245 29.1694 71.8074 29.138 71.8967 29.0978C71.8967 29.3001 71.8866 29.4786 71.8992 29.6545C71.9205 29.9749 71.9394 30.2966 71.9896 30.6133C72.0562 31.038 72.1052 31.474 72.246 31.8749C72.4093 32.3386 72.726 32.7319 73.0892 33.0636C73.2286 33.1905 73.4435 33.237 73.6571 33.3351C73.7137 33.5261 73.6986 33.7585 73.6534 33.9809C73.4385 35.0679 73.1168 36.1247 72.7134 37.1551C72.5978 37.4517 72.4119 37.7206 72.251 37.9995C72.2096 38.0724 72.143 38.1302 72.0462 38.2446C72.0361 38.0837 72.0211 37.9882 72.0261 37.894C72.0625 37.2858 71.9746 36.6851 71.8401 36.1008C71.6617 35.323 71.203 34.7663 70.3799 34.5879C69.9263 34.4899 69.4689 34.4459 69.0027 34.5137C68.4775 34.5904 68.0515 34.8304 67.7348 35.2514C67.4709 35.6045 67.4043 36.0066 67.54 36.4238C67.5878 36.5708 67.5953 36.6789 67.5212 36.8171C67.3164 37.1978 67.2623 37.6175 67.2611 38.0435C67.2611 38.2182 67.2158 38.3526 67.0814 38.4657C66.9746 38.5562 66.8816 38.6643 66.7785 38.7598C66.3714 39.1317 65.7884 39.1066 65.4491 38.6718C65.2794 38.4544 65.1387 38.1993 65.0457 37.9392C64.8283 37.3298 64.7215 36.6952 64.7429 36.0455C64.7605 35.5014 64.7341 34.9623 64.6524 34.422C64.6172 34.1858 64.6373 33.9407 64.6386 33.6995C64.6499 32.0257 64.8384 30.3707 65.1374 28.7271C65.2983 27.8462 65.3875 26.9566 65.4139 26.0606C65.4378 25.2765 65.4817 24.4937 65.5081 23.7108C65.5219 23.3539 65.5119 22.9933 65.5119 22.5799Z" fill="white"/>
<path d="M67.6167 39.4533C67.5765 39.54 67.5375 39.6292 67.4936 39.7147C66.8942 40.8946 66.1163 41.9552 65.2907 42.9843C65.0583 43.2734 64.8032 43.546 64.665 43.9017C64.6373 43.9733 64.5732 44.0336 64.5192 44.0914C63.6157 45.0715 63.1482 46.254 62.9409 47.5495C62.8617 48.0446 62.814 48.546 62.7675 49.0462C62.7524 49.2057 62.7109 49.3264 62.5853 49.4357C62.0173 49.9308 61.4506 50.4171 60.8047 50.8205C59.724 51.4978 58.6798 52.2329 57.618 52.9416C57.5237 53.0044 57.4207 53.056 57.3214 53.1138C57.3076 53.0974 57.2938 53.0823 57.2799 53.066C57.3202 52.9793 57.3553 52.8901 57.4006 52.8059C57.6041 52.4251 57.8077 52.0444 58.0176 51.6662C58.4008 50.9725 58.6672 50.2424 58.7602 49.452C58.7766 49.3151 58.8281 49.1819 58.8733 49.0487C59.3609 47.596 59.4614 46.1409 58.8871 44.6858C58.7502 44.3402 58.6119 43.9896 58.2023 43.781C58.6949 43.5611 59.0304 43.2206 59.3496 42.8599C59.8673 42.2756 60.2694 41.6197 60.5848 40.9059C60.8311 40.3505 60.811 39.7675 60.7532 39.1869C60.7394 39.0474 60.6212 38.9218 60.5609 38.7848C60.3335 38.2633 60.0055 37.8047 59.6449 37.3736C59.4476 37.1374 59.2063 36.9326 58.9613 36.7428C58.7112 36.5481 58.4109 36.4563 58.0892 36.45C58.0188 36.4488 57.9485 36.4488 57.8781 36.4463C57.2963 36.4186 56.7811 36.5606 56.3739 37.111C56.3388 36.9514 56.3086 36.8534 56.2973 36.7529C56.1905 35.8205 56.2194 34.8856 56.2671 33.9532C56.3563 32.2078 56.8389 30.5516 57.4584 28.9306C57.4722 28.8929 57.4885 28.8564 57.5086 28.8213C57.5174 28.8049 57.5363 28.7949 57.5815 28.7547C57.5928 28.874 57.6067 28.9683 57.6117 29.0638C57.6305 29.4043 57.6431 29.7461 57.6657 30.0867C57.6858 30.3769 57.8542 30.5868 58.0578 30.774C58.1721 30.8796 58.2978 30.9122 58.4436 30.8381C58.7477 30.6823 59.043 30.5214 59.2892 30.2726C60.3523 29.1982 61.2043 27.9768 61.8766 26.626C61.9193 26.5393 61.9746 26.4576 62.0625 26.3093C62.1015 26.5041 62.1329 26.6335 62.153 26.7655C62.3503 28.0535 62.3591 29.3453 62.241 30.6433C62.1342 31.8258 61.6253 32.8135 60.8575 33.6818C60.5886 33.9859 60.2593 34.2372 59.9603 34.5099C60.4189 34.7423 60.9216 34.6908 61.6127 34.3302C61.712 34.3792 61.8175 34.432 61.9243 34.4835C62.4546 34.7386 62.9258 34.6104 63.3418 34.241C63.5127 34.0889 63.6446 33.8941 63.7916 33.7157C63.8394 33.6579 63.8783 33.5925 63.9701 33.5461C63.9701 33.6202 63.9726 33.6956 63.9701 33.7697C63.9211 34.8014 64.0316 35.8155 64.2892 36.8157C64.4074 37.2731 64.5179 37.7318 64.6235 38.1917C64.768 38.8275 65.0683 39.3955 65.3787 39.9597C65.4566 40.103 65.5898 40.1721 65.7419 40.206C66.1477 40.2952 66.5222 40.2161 66.8539 39.9673C67.0927 39.7876 67.3227 39.5966 67.5576 39.4106C67.5777 39.4257 67.5979 39.4395 67.6167 39.4533Z" fill="white"/>
<path d="M69.9313 55.0137C69.9841 54.9358 70.0368 54.8567 70.0896 54.7788C70.6727 53.9243 71.252 53.066 71.8426 52.2166C72.0248 51.9539 72.2183 51.6926 72.4432 51.4651C73.2261 50.6709 73.8456 49.7838 74.1183 48.6855C74.1572 48.5284 74.259 48.4292 74.3809 48.3324C74.7981 48.0019 75.2241 47.6815 75.6224 47.3284C76.6453 46.4211 77.3716 45.2915 78.0175 44.1002C78.593 43.0384 79.0567 41.925 79.5266 40.8155C79.5857 40.6772 79.6624 40.5428 79.7001 40.3983C79.7742 40.1093 79.9752 39.9585 80.2366 39.8843C80.5646 39.7901 80.7631 39.574 80.9039 39.2787C80.9717 39.1354 81.0333 38.9444 81.1527 38.8841C81.2708 38.8238 81.4593 38.8967 81.6164 38.9193C83.172 39.1341 84.7742 38.0799 85.1876 36.5694C85.2655 36.2842 85.2881 35.9977 85.2165 35.7049C85.1876 35.5905 85.1775 35.4712 85.1574 35.3417C85.2982 35.3179 85.356 35.4046 85.4163 35.4775C85.645 35.7564 85.9478 35.8607 86.2972 35.8544C86.9795 35.8431 87.599 35.632 88.172 35.2714C89.0353 34.7285 89.7415 34.0223 90.3371 33.1992C90.4113 33.0962 90.4929 32.9982 90.5708 32.8989C90.5922 32.909 90.6136 32.919 90.6349 32.9291C90.6035 33.0472 90.5859 33.1716 90.5369 33.2822C90.2869 33.8527 90.067 34.4395 89.7666 34.9836C89.269 35.8846 88.8707 36.827 88.4975 37.7808C88.1934 38.5574 87.9069 39.3402 87.6216 40.1231C87.5575 40.299 87.4633 40.4335 87.315 40.5528C86.1388 41.4965 85.4678 42.7041 85.4264 44.2334C85.4238 44.3138 85.4213 44.3943 85.4151 44.4747C85.4138 44.4923 85.3975 44.5099 85.3799 44.5438C85.3195 44.5388 85.2517 44.54 85.1863 44.5249C84.5241 44.3716 83.9285 44.5224 83.3957 44.9258C82.8792 45.3166 82.4533 45.7991 82.0386 46.2917C81.4555 46.9841 80.8712 47.674 80.2856 48.3626C79.8257 48.9029 79.4688 49.5061 79.1723 50.1469C79.1233 50.2525 79.0642 50.353 79.0001 50.4762C78.9335 50.4272 78.887 50.4058 78.8581 50.3706C78.3655 49.7461 77.3816 49.8567 76.9079 50.2135C76.7257 50.3518 76.5749 50.5302 76.4065 50.6873C76.2821 50.8029 76.1678 50.9399 76.0233 51.019C75.1826 51.4777 74.4123 52.0419 73.6345 52.5961C72.7988 53.1904 71.967 53.7898 71.1263 54.3754C70.8046 54.5991 70.4616 54.7901 70.1273 54.9924C70.0796 55.0213 70.0243 55.0351 69.9715 55.0565C69.9539 55.0401 69.9426 55.0263 69.9313 55.0137Z" fill="white"/>
<path d="M5.92294 35.3393C5.91792 35.4272 5.91792 35.5164 5.90661 35.6031C5.76838 36.7592 6.37909 37.9128 7.42206 38.4456C8.02271 38.7522 8.65478 38.9294 9.33837 38.8716C9.43638 38.8628 9.53691 38.8703 9.64372 38.8703C9.70027 39.0073 9.73545 39.148 9.80959 39.2624C9.93399 39.4534 10.0622 39.6506 10.2268 39.8052C10.4278 39.9949 10.6842 40.0465 10.9556 39.9371C11.0184 39.912 11.0863 39.9007 11.1805 39.8743C11.2283 39.9811 11.276 40.0766 11.3162 40.1759C11.9295 41.7064 12.5929 43.2118 13.4148 44.6444C14.1637 45.9512 15.0973 47.096 16.3213 47.9831C16.7158 48.2684 16.991 48.5875 17.1154 49.0889C17.2888 49.7901 17.7085 50.3857 18.2036 50.9085C18.7666 51.5028 19.2429 52.1525 19.6776 52.8461C20.0873 53.4996 20.5673 54.1103 21.0172 54.7386C21.08 54.8265 21.1466 54.9107 21.2119 54.9962C21.1994 55.0138 21.1855 55.0314 21.173 55.0502C21.0988 55.0163 21.0209 54.9874 20.9506 54.9459C20.0006 54.398 19.1034 53.771 18.2212 53.1213C17.8166 52.8235 17.4032 52.537 17.0049 52.2317C16.075 51.5192 15.0659 50.9412 14.0167 50.4285C13.4273 50.1394 12.8103 49.9962 12.1506 50.0578C11.839 50.0867 11.8415 50.0779 11.7096 49.7851C11.2132 48.6856 10.6942 47.5986 10.0395 46.582C9.68519 46.0316 9.28434 45.5152 8.80683 45.0653C8.27152 44.5614 7.67212 44.1719 6.93199 44.0349C6.41678 43.9394 5.91163 43.9947 5.41277 44.1329C5.32857 44.1568 5.24438 44.1819 5.11621 44.2196C5.10742 44.0437 5.1049 43.8979 5.09359 43.7522C5.06846 43.4518 5.05841 43.149 5.00437 42.8537C4.88374 42.2028 4.56331 41.6449 4.1034 41.1799C3.81061 40.8846 3.63971 40.5428 3.49646 40.1596C2.99885 38.8238 2.46354 37.5019 1.97095 36.1636C1.70455 35.4385 1.49847 34.6921 1.26726 33.9545C1.25972 33.9281 1.266 33.8979 1.266 33.8125C1.36402 33.9093 1.43438 33.9733 1.49847 34.0425C1.94582 34.5237 2.44846 34.9372 3.0089 35.2802C3.54295 35.6057 4.11973 35.7866 4.74426 35.8231C5.09485 35.8432 5.4002 35.7703 5.64273 35.4963C5.70681 35.4235 5.791 35.3694 5.8664 35.3066C5.88399 35.3192 5.90284 35.3292 5.92294 35.3393Z" fill="white"/>
<path d="M61.526 17.5773C61.4393 17.6879 61.3978 17.7545 61.3425 17.8086C60.096 19.0199 59.2276 20.4801 58.5453 22.0609C58.3669 22.4755 58.2123 22.9015 58.0741 23.3313C57.8127 24.1468 57.8303 24.9623 58.206 25.7402C58.4247 26.1926 58.3003 26.5469 58.0025 26.8875C57.5727 27.3775 57.2812 27.9505 57.0123 28.5348C56.4292 29.8015 56.0183 31.1247 55.8072 32.5007C55.6929 33.2433 55.6577 33.9998 55.6212 34.7512C55.5848 35.5039 55.5923 36.2579 55.5798 37.0118C55.5672 37.7231 55.6702 38.4129 55.9429 39.0752C55.9969 39.2046 56.0258 39.3441 56.0711 39.476C56.2646 40.0339 56.6102 40.4562 57.1593 40.6974C57.1957 40.7138 57.2297 40.7339 57.2749 40.7577C57.2699 40.9387 57.1455 41.0392 57.0336 41.1523C56.1704 42.0269 55.6853 43.0623 55.7016 44.3076C55.7029 44.4283 55.7167 44.5489 55.7343 44.667C55.7519 44.7851 55.7821 44.902 55.8085 45.0264C55.1651 45.5868 55.0633 46.3345 55.1186 47.1174C55.1563 47.6451 55.483 47.9945 55.9479 48.2194C56.0711 48.2797 56.2018 48.3275 56.3312 48.4393C56.1917 48.4594 56.051 48.4908 55.9102 48.4959C55.5383 48.5072 55.1663 48.5248 54.7956 48.5084C53.7175 48.4607 52.7574 48.095 51.9281 47.3976C51.7207 47.2242 51.5825 47.0395 51.58 46.7379C51.5762 46.3898 51.4355 46.0367 51.4657 45.6949C51.4946 45.3556 51.7032 45.0352 51.761 44.6947C51.962 43.5298 52.2799 42.3813 52.2498 41.1825C52.2422 40.8771 52.3289 40.568 52.3867 40.2626C52.6896 38.6718 52.8743 37.0659 52.9874 35.4512C53.0351 34.76 53.1256 34.0714 53.1897 33.3815C53.2236 33.0221 53.2563 32.6603 53.2638 32.2996C53.2777 31.5369 53.2726 30.7728 53.2777 30.0088C53.2777 29.9397 53.289 29.8719 53.2953 29.799C53.6974 29.7173 54.0002 29.5225 54.1837 29.1481C54.4262 28.6517 54.7114 28.1767 54.9389 27.6741C55.052 27.424 55.0658 27.13 55.145 26.8611C55.4516 25.8219 55.2958 24.7915 55.0809 23.7648C55.0457 23.5952 55.0583 23.4494 55.1223 23.2986C55.444 22.5509 55.7557 21.7995 56.0887 21.0569C56.3877 20.3921 56.8037 19.804 57.3252 19.2486C57.3905 19.3315 57.442 19.3994 57.4948 19.466C57.7901 19.8442 58.2462 19.9297 58.6446 19.6608C58.7916 19.5615 58.9198 19.4283 59.0417 19.2951C59.5531 18.7384 60.1035 18.2245 60.7444 17.8174C60.9567 17.6816 61.1867 17.5572 61.526 17.5773Z" fill="white"/>
<path d="M74.5142 30.7175C74.5456 30.6697 74.577 30.622 74.6084 30.573C75.0733 29.8341 75.5471 29.1002 76.002 28.3538C76.4204 27.6677 76.8087 26.9665 77.2925 26.3206C77.5727 25.9449 77.8152 25.529 78.0037 25.1005C78.5868 23.7748 79.0605 22.4089 79.3646 20.9889C79.5028 20.3455 79.528 19.6946 79.4852 19.0399C79.4639 18.6981 79.479 18.3639 79.5456 18.0233C79.6712 17.3775 79.5154 16.7617 79.2176 16.1887C78.9675 15.7074 78.7062 15.2299 78.3141 14.8429C78.2374 14.7675 78.201 14.6846 78.2173 14.5727C78.3003 14.0123 78.1595 13.4983 77.8931 13.0083C77.8027 12.8424 77.726 12.669 77.6129 12.4365C77.819 12.478 77.9622 12.5019 78.103 12.537C78.9374 12.7406 79.7127 13.1013 80.4867 13.4606C80.5697 13.4996 80.6388 13.5876 80.6903 13.668C80.8449 13.9143 80.9768 14.1756 81.1389 14.4182C81.2658 14.6092 81.4041 14.8014 81.5724 14.9547C82.2259 15.5529 83.2198 15.4021 83.6132 14.8404C83.7162 14.6934 83.8456 14.7022 83.9851 14.7084C84.4174 14.7248 84.8233 14.6557 85.1889 14.4031C85.488 14.197 85.7205 13.9457 85.8273 13.5913C85.8411 13.5448 85.865 13.5009 85.9002 13.4167C85.9617 13.521 86.0133 13.5926 86.0497 13.6705C86.4015 14.427 86.6139 15.2149 86.6001 16.0568C86.5913 16.6197 86.6064 17.1827 86.5875 17.7444C86.5649 18.4116 86.4041 19.0512 86.1427 19.6594C86.1037 19.6594 86.0748 19.6682 86.0673 19.6582C85.6702 19.1857 85.106 19.2033 84.5719 19.1681C84.3043 19.1505 84.0743 19.3076 83.8783 19.491C83.5528 19.7939 83.338 20.1646 83.2224 20.5893C83.0389 21.2591 83.0527 21.9414 83.1269 22.6237C83.1733 23.0548 83.3807 23.3815 83.8117 23.5323C83.8381 23.5411 83.8582 23.5649 83.8946 23.5926C83.8494 23.6617 83.8104 23.7295 83.7614 23.7911C83.4033 24.2372 83.0427 24.6833 82.6833 25.1281C82.6016 25.2299 82.5224 25.3342 82.4382 25.4335C82.0889 25.8456 81.6931 26.1686 81.1502 26.3232C80.3774 26.5443 79.7315 27.0243 79.0831 27.4817C78.764 27.7067 78.4511 27.9479 78.1658 28.2143C77.971 28.3953 77.8303 28.6353 77.6582 28.8426C77.584 28.9318 77.5099 29.0474 77.4106 29.0839C76.3815 29.4659 75.4641 30.0351 74.6097 30.7137C74.5946 30.7263 74.5745 30.7313 74.5569 30.7401C74.5393 30.7338 74.5267 30.7263 74.5142 30.7175Z" fill="white"/>
<path d="M6.99351 23.5348C7.62809 23.4292 7.79144 22.9857 7.88318 22.4881C7.98747 21.9226 7.88695 21.3647 7.78768 20.8118C7.71982 20.4373 7.62055 20.0666 7.49489 19.7072C7.41698 19.4848 7.28504 19.2724 7.14179 19.0839C6.92691 18.8037 6.64166 18.6228 6.27097 18.6152C6.16039 18.6127 6.05106 18.5989 5.94048 18.5914C5.32978 18.5511 5.02945 18.8163 4.98924 19.4282C4.98798 19.4471 4.97541 19.4647 4.96159 19.4974C4.84724 19.4559 4.84976 19.3428 4.82337 19.2599C4.61729 18.6052 4.49666 17.9342 4.48786 17.2455C4.47906 16.4815 4.49289 15.7175 4.61478 14.961C4.70274 14.4207 4.90756 13.9193 5.16516 13.4368C5.17898 13.4117 5.19658 13.3878 5.20915 13.3664C5.24182 13.389 5.26569 13.3978 5.26694 13.4092C5.33354 14.0261 5.76582 14.4383 6.42679 14.4986C6.61653 14.5162 6.80879 14.515 6.99854 14.5087C7.13802 14.5036 7.2486 14.5413 7.34787 14.6431C7.65825 14.9623 8.03397 14.9862 8.43608 14.8643C8.80301 14.7525 9.08448 14.5087 9.36345 14.2611C9.40869 14.2209 9.45392 14.1807 9.49413 14.1355C10.2896 13.2232 11.3376 12.7721 12.4861 12.5157C12.9146 12.4202 13.3481 12.3498 13.8068 12.3159C13.7653 12.3624 13.7251 12.4102 13.6824 12.4541C13.4876 12.6552 13.2765 12.8449 13.0993 13.0598C12.7449 13.4871 12.6293 13.9897 12.7336 14.53C12.7776 14.76 12.7299 14.9171 12.564 15.0905C11.8741 15.8155 11.5838 16.7102 11.5286 17.6929C11.521 17.8211 11.5311 17.9593 11.5713 18.0799C11.6454 18.3061 11.6567 18.531 11.6316 18.7635C11.5097 19.8404 11.7095 20.8834 11.942 21.9264C12.5049 24.4521 13.5768 26.7492 15.0257 28.8816C15.2569 29.2221 15.4818 29.5677 15.6942 29.9208C15.7897 30.0791 15.8475 30.2601 15.9229 30.431C15.9065 30.441 15.8889 30.4511 15.8726 30.4624C15.8337 30.4385 15.7934 30.4172 15.7583 30.3895C14.9842 29.8153 14.2152 29.2335 13.4348 28.6667C13.044 28.3827 12.6696 28.0849 12.334 27.7331C11.5964 26.9615 10.703 26.4325 9.67885 26.136C9.35717 26.043 9.09705 25.8859 8.87463 25.6383C8.31168 25.0113 7.73615 24.3931 7.16817 23.7698C7.11037 23.7145 7.07142 23.6441 6.99351 23.5348Z" fill="white"/>
<path d="M38.1709 30.0754C38.1709 30.5957 38.1722 31.0757 38.1709 31.5557C38.1684 32.7809 38.1546 34.0073 38.1646 35.2325C38.1759 36.5896 38.2589 37.943 38.4474 39.2888C38.4964 39.6356 38.5881 39.9774 38.6559 40.3217C38.6723 40.4084 38.6936 40.5052 38.671 40.5869C38.4348 41.4464 38.524 42.2996 38.7251 43.1478C38.8193 43.5487 38.9487 43.9407 39.053 44.3378C39.0769 44.4308 39.0782 44.5338 39.0706 44.6306C39.0455 44.9611 39.0204 45.2915 38.9764 45.6183C38.96 45.7402 38.9098 45.8696 38.8394 45.9714C38.2136 46.8799 37.3931 47.5522 36.374 47.9794C36.0875 48.1 35.8148 48.2571 35.522 48.3576C35.1928 48.4695 34.8472 48.5361 34.5092 48.619C34.4891 48.624 34.4602 48.5977 34.4288 48.5826C34.6323 48.3941 34.8321 48.2182 35.0231 48.0322C35.3348 47.7281 35.5823 47.3775 35.767 46.9804C36.0221 46.4288 36.0498 45.8583 35.9342 45.2727C35.8965 45.0855 35.8764 44.8945 35.8273 44.711C35.6954 44.2172 35.4541 43.7786 35.0998 43.4092C35.0055 43.3099 34.9779 43.2207 35.0055 43.0875C35.277 41.7593 34.8359 40.6371 33.9977 39.6331C33.9789 39.6105 33.9613 39.5853 33.945 39.5602C33.9399 39.5527 33.9425 39.5414 33.9399 39.5125C34.337 39.2385 34.4338 38.8327 34.4149 38.3639C34.3873 37.6515 34.3999 36.9364 34.1699 36.2478C33.9399 35.5605 33.6761 34.8882 33.3054 34.2624C33.2149 34.1104 33.186 33.9734 33.2589 33.8113C33.382 33.5374 33.4825 33.2521 33.6233 32.9895C34.0204 32.2506 34.523 31.5871 35.1186 30.9953C35.2129 30.901 35.2958 30.8583 35.4554 30.8771C36.1453 30.9601 36.8238 30.8684 37.4572 30.5819C37.6947 30.4713 37.8944 30.274 38.1709 30.0754Z" fill="white"/>
<path d="M44.474 42.3196C44.3119 42.0758 44.3006 41.8132 44.3094 41.5368C44.3634 39.9082 44.3295 38.2809 44.239 36.6549C44.2252 36.4149 44.2139 36.1799 44.0908 35.955C44.0229 35.8293 44.0154 35.6647 44.0066 35.5152C43.9827 35.1445 43.9588 34.7725 43.9613 34.4006C43.9865 31.5154 43.8646 28.6328 43.7753 25.7502C43.7527 25.0075 43.7289 24.2636 43.7062 23.521C43.6949 23.1427 44.0003 22.718 44.3773 22.6815C45.1677 22.6074 45.9618 22.5584 46.7497 22.718C47.1279 22.7946 47.2812 22.9856 47.2863 23.4053C47.2938 23.8979 47.2775 24.3905 47.2624 24.8818C47.2096 26.6499 47.1455 28.4166 47.1028 30.1847C47.0651 31.7416 47.0613 33.2998 47.0186 34.8567C47.001 35.4775 46.9194 36.097 46.8653 36.7165C46.8615 36.7567 46.8628 36.8082 46.8389 36.8321C46.6291 37.0469 46.6705 37.3159 46.6768 37.5735C46.707 38.9796 46.7409 40.387 46.7786 41.7931C46.7836 41.9803 46.7698 42.1537 46.5926 42.3171C45.9103 42.3196 45.1991 42.3196 44.474 42.3196ZM45.1626 36.8735C45.1739 36.8735 45.184 36.8723 45.1953 36.8723C45.1953 36.8132 45.1953 36.7529 45.1953 36.6938C45.2079 33.8703 45.2267 31.048 45.2305 28.2244C45.2317 26.8082 45.2054 25.392 45.1903 23.9758C45.1903 23.9356 45.1991 23.8879 45.1802 23.8577C45.1563 23.8175 45.1086 23.7924 45.0219 23.7195C45.0219 24.1116 45.0219 24.4408 45.0219 24.77C45.0269 27.4629 45.0257 30.1558 45.0382 32.8474C45.0433 33.9419 45.0772 35.0364 45.1036 36.1321C45.1099 36.3797 45.1425 36.6272 45.1626 36.8735Z" fill="white"/>
<path d="M53.0716 17.6689C53.0578 17.7556 53.054 17.8372 53.0301 17.9126C52.6808 18.9569 52.589 20.035 52.633 21.1258C52.6607 21.788 52.7348 22.4477 52.78 23.1087C52.7939 23.3173 52.7851 23.5284 52.7813 23.7382C52.78 23.8588 52.7562 23.9795 52.765 24.0989C52.8278 24.9609 52.9032 25.8216 53.2286 26.6837C53.0301 26.9174 52.8291 27.18 52.5991 27.415C51.8841 28.1464 51.0346 28.703 50.1814 29.2559C49.9301 29.4193 49.6675 29.5676 49.4124 29.7221C49.3445 29.6781 49.2917 29.6492 49.2452 29.6128C49.0354 29.4507 49.0341 29.4494 49.1146 29.1843C49.3282 28.4781 49.4513 27.7631 49.4337 27.0192C49.4124 26.0755 49.4388 25.1305 49.4362 24.1856C49.4325 23.0747 49.2729 21.9853 48.9587 20.9184C48.9298 20.8217 48.9034 20.7249 48.8833 20.6269C48.7778 20.1016 48.6622 19.5814 48.2111 19.212C48.2576 19.1014 48.294 19.0096 48.333 18.9204C48.632 18.2406 48.8205 17.5369 48.7702 16.7867C48.7325 16.2363 48.6886 15.686 48.6333 15.1381C48.5403 14.212 48.5252 13.2934 48.8281 12.3962C48.8532 12.3208 48.8808 12.2441 48.9185 12.1738C48.9612 12.0959 49.0153 12.0242 49.097 11.9023C49.1183 12.0129 49.1372 12.072 49.1397 12.1336C49.1535 12.454 49.1535 12.7769 49.1761 13.0961C49.1987 13.4216 49.3106 13.7231 49.4727 14.0059C49.6373 14.2936 49.8007 14.5814 49.9665 14.8692C50.4503 15.7098 51.0912 16.4072 51.8916 16.9576C51.9658 17.0091 52.0412 17.0594 52.1141 17.1134C52.2598 17.2203 52.3955 17.3434 52.5501 17.4351C52.7046 17.5231 52.8768 17.5834 53.0716 17.6689Z" fill="white"/>
<path d="M44.0392 58.3524C43.8356 58.2745 43.6798 58.213 43.5227 58.1539C43.382 58.1011 43.2425 58.0345 43.0967 58.0069C42.6356 57.9177 42.2912 57.655 41.9344 57.3622C40.9253 56.5341 39.8911 55.7362 38.8507 54.9496C38.3367 54.5613 37.7637 54.2622 37.1342 54.0951C37.0022 54.0599 36.9294 53.9908 36.8841 53.8664C36.5587 52.9604 36.0648 52.1461 35.4981 51.3733C35.0231 50.7262 34.5406 50.084 34.0631 49.4382C34.0404 49.408 34.0266 49.3715 33.9965 49.3163C36.5272 48.9958 38.5453 47.9315 39.6888 45.4836C39.7165 45.5691 39.7341 45.5992 39.7366 45.6307C39.8522 47.0871 40.2216 48.4794 40.8273 49.8038C40.9844 50.1481 41.2043 50.466 41.4242 50.7764C41.5247 50.9172 41.5423 51.0265 41.4971 51.1873C41.3676 51.6447 41.33 52.1172 41.3538 52.5897C41.3852 53.2042 41.7396 53.9368 42.5388 54.119C42.6506 54.1441 42.7084 54.1969 42.7436 54.3062C43.1621 55.5955 43.5843 56.8822 44.0052 58.1715C44.0153 58.2079 44.0191 58.2481 44.0392 58.3524Z" fill="white"/>
<path d="M42.0236 11.9666C42.3252 12.6853 42.4408 13.3576 42.3943 14.06C42.3202 15.1709 42.2498 16.2817 42.1832 17.3938C42.1719 17.5835 42.1782 17.7758 42.1908 17.9655C42.2184 18.4028 42.3039 18.8188 42.5992 19.1694C42.7311 19.3264 42.7273 19.393 42.5841 19.5313C42.1581 19.9422 41.9256 20.4724 41.7283 21.0052C41.5273 21.5481 41.4066 22.1224 41.2722 22.6878C41.2169 22.9203 41.2131 23.1653 41.1943 23.4053C41.0938 24.667 41.0196 25.9298 41.0397 27.1977C41.0485 27.718 41.139 28.2118 41.3426 28.6918C41.4393 28.9193 41.4833 29.1719 41.5336 29.4169C41.5486 29.491 41.5084 29.5777 41.4883 29.6883C41.335 29.6355 41.2219 29.6016 41.1113 29.5589C40.3473 29.2648 39.6663 28.8188 38.9651 28.4066C38.4335 28.0937 38.0515 27.6778 37.7625 27.1424C37.623 26.8848 37.5816 26.6624 37.6683 26.3797C37.9108 25.5918 38.1395 24.7939 38.1709 23.967C38.1986 23.2219 38.3242 22.4893 38.372 21.7491C38.4587 20.3983 38.4046 19.0575 37.9535 17.7607C37.9271 17.6853 37.9095 17.6061 37.8919 17.5282C37.8857 17.5006 37.8907 17.4692 37.8907 17.4365C37.9196 17.4214 37.946 17.3963 37.9699 17.3976C38.3657 17.4327 38.6836 17.2581 38.999 17.0445C40.3926 16.0982 41.3212 14.8178 41.7949 13.2056C41.8703 12.9467 41.9043 12.6753 41.9545 12.4089C41.9771 12.2845 41.9935 12.1601 42.0236 11.9666Z" fill="white"/>
<path d="M39.0845 30.2864C39.3019 30.4208 39.4539 30.5377 39.6248 30.6156C39.851 30.7186 40.0885 30.7991 40.326 30.8757C40.669 30.985 41.0334 31.0466 41.3577 31.1962C41.6492 31.3306 41.8402 31.6146 42.0023 31.8923C42.04 31.9564 42.0023 32.0883 41.9621 32.1713C41.8653 32.3698 41.7422 32.5545 41.6354 32.7481C41.1541 33.6189 41.1453 34.5136 41.5235 35.4171C41.6027 35.6068 41.7409 35.7764 41.8754 35.936C42.0035 36.0893 42.1631 36.2162 42.3064 36.357C42.3969 36.4449 42.4496 36.5342 42.3843 36.6749C42.0488 37.4012 41.9608 38.1778 41.9344 38.9657C41.9206 39.3678 41.9256 39.7699 41.9168 40.1708C41.9005 40.9411 42.1267 41.6611 42.4031 42.3635C42.5037 42.6199 42.6896 42.846 42.8593 43.0685C42.9334 43.1652 43.0641 43.218 43.2074 43.3173C43.1584 45.4384 43.3343 47.6073 42.9221 49.7573C42.8857 49.7473 42.8593 49.7473 42.853 49.736C42.5602 49.2346 42.2033 48.7659 42.0425 48.1954C41.9181 47.7531 41.6806 47.3673 41.4243 46.9953C41.0674 46.4776 40.796 45.936 40.6942 45.3002C40.6225 44.8478 40.4655 44.4055 40.3235 43.9669C40.0646 43.1715 39.9151 42.3522 39.7743 41.5304C39.5884 40.4422 39.3798 39.3565 39.2189 38.2645C38.9488 36.4437 38.7841 34.6141 38.9148 32.7694C38.9601 32.1285 38.9865 31.4852 39.0267 30.843C39.0355 30.6734 39.0606 30.5075 39.0845 30.2864Z" fill="white"/>
<path d="M46.7974 58.3901C46.8225 58.277 46.8388 58.1602 46.8753 58.0496C47.1467 57.219 47.4206 56.3896 47.6996 55.5615C47.8341 55.1632 47.9836 54.7686 48.1243 54.3715C48.1746 54.2308 48.245 54.1391 48.4134 54.1089C48.6923 54.0587 48.8997 53.8752 49.0668 53.654C49.5317 53.0396 49.7931 52.361 49.6825 51.5744C49.6737 51.5153 49.6825 51.4512 49.6662 51.3947C49.5468 50.9762 49.6825 50.6156 49.8785 50.2499C50.2379 49.5764 50.5797 48.8928 50.7896 48.1539C50.8763 47.8498 50.9466 47.5407 51.0861 47.1926C51.1012 47.2303 51.1087 47.273 51.1314 47.3057C52.0512 48.6302 53.3505 49.2346 54.9326 49.2874C55.8637 49.3188 56.7785 49.2195 57.6556 48.8827C57.6795 48.8739 57.7084 48.8815 57.7938 48.8815C57.6845 48.9795 57.6179 49.0511 57.54 49.1064C57.0939 49.4269 56.7232 49.8189 56.4091 50.2663C56.0057 50.8418 55.6048 51.4198 55.204 51.9978C54.7428 52.6626 54.3784 53.3776 54.1371 54.1491C54.0756 54.3452 53.9625 54.4419 53.7828 54.5135C53.0351 54.8101 52.2975 55.128 51.6076 55.5465C50.8662 55.9963 50.1738 56.5128 49.5305 57.0921C49.2163 57.3748 48.8707 57.5734 48.4561 57.6676C47.9321 57.787 47.4483 58.0081 47.0135 58.3273C46.967 58.3612 46.9155 58.3901 46.8677 58.4203C46.8426 58.4115 46.82 58.4002 46.7974 58.3901Z" fill="white"/>
<path d="M49.0316 32.2605C49.2176 32.0231 49.3985 31.7856 49.5883 31.5556C49.6234 31.5129 49.6926 31.4991 49.7466 31.4739C50.0934 31.3143 50.4402 31.156 50.7858 30.9939C51.3173 30.7451 51.8137 30.446 52.2083 29.9999C52.2447 29.9585 52.295 29.9283 52.3716 29.8655C52.3854 29.9899 52.403 30.0753 52.4043 30.1595C52.4093 30.7715 52.3854 31.3847 52.4181 31.9954C52.4533 32.6413 52.4382 33.2884 52.3264 33.918C52.1844 34.721 52.1655 35.5365 52.0311 36.3382C51.722 38.1804 51.4606 40.0313 50.9781 41.8396C50.7607 42.6538 50.4867 43.453 50.2442 44.261C50.0708 44.8378 49.9225 45.4234 49.7303 45.9926C49.5996 46.3809 49.4161 46.7516 49.249 47.1273C48.9474 47.8059 48.6433 48.4832 48.3367 49.1592C48.26 49.3289 48.1671 49.4922 48.0489 49.7222C47.917 49.3678 47.8893 49.0738 47.8617 48.7835C47.8353 48.5045 47.8378 48.2218 47.8315 47.9403C47.8026 46.5543 47.7763 45.167 47.7486 43.781C47.7473 43.7119 47.7486 43.6428 47.7486 43.5661C48.0942 43.3977 48.2663 43.0999 48.4033 42.7669C48.5842 42.3259 48.6785 41.8647 48.7338 41.3947C48.8745 40.2123 48.9034 39.0298 48.7086 37.8499C48.6684 37.6036 48.5981 37.3598 48.5327 37.1185C48.4975 36.9891 48.5126 36.8898 48.6219 36.7981C48.96 36.5116 49.1711 36.1334 49.347 35.7363C49.435 35.5365 49.5204 35.3178 49.5279 35.1042C49.5481 34.5739 49.5405 34.0399 49.5091 33.5096C49.484 33.0648 49.3005 32.6589 49.0316 32.2605Z" fill="white"/>
<path d="M44.7114 3.71446C44.7253 3.4933 44.7378 3.32366 44.7466 3.15402C44.7542 3.02333 44.7818 2.88888 44.7567 2.76447C44.6863 2.39881 44.8748 2.12361 45.0583 1.84967C45.0947 1.79564 45.1915 1.76045 45.2631 1.75794C45.5031 1.74663 45.7444 1.75417 46.0082 1.75417C46.1817 2.18267 46.438 2.56468 46.428 3.05601C46.4078 4.08893 46.6654 5.08792 46.8527 6.09445C47.0864 7.34853 47.3126 8.60387 47.5375 9.85921C47.5614 9.99618 47.5702 10.1419 47.5526 10.2777C47.3717 11.636 47.344 13.0007 47.3515 14.3691C47.3541 14.8919 47.3126 15.4134 47.3088 15.9361C47.3076 16.2465 47.3428 16.5569 47.3603 16.8672C47.3641 16.9238 47.3603 16.9803 47.3603 17.0758C46.2344 16.7805 45.1412 16.773 44.0253 17.1098C43.9022 17.0105 43.8042 16.8911 43.8318 16.675C43.9713 15.6031 43.9248 14.5287 43.8658 13.4543C43.8306 12.8323 43.8117 12.209 43.7615 11.5895C43.7162 11.0392 43.6471 10.49 43.5692 9.9434C43.5328 9.68831 43.5554 9.44453 43.6119 9.19824C43.764 8.52219 43.9323 7.84866 44.0568 7.16758C44.1284 6.77427 44.1271 6.36839 44.1636 5.96879C44.2402 5.12813 44.5154 4.36412 45.0457 3.69812C45.0708 3.66671 45.0934 3.63278 45.1123 3.59885C45.1198 3.58629 45.1136 3.56493 45.1136 3.5222C44.9917 3.58 44.8811 3.63404 44.7114 3.71446ZM45.4968 5.11054C45.2706 5.43223 45.1902 5.79412 45.1462 6.15979C45.0784 6.71772 45.062 7.28193 44.9854 7.83861C44.7906 9.27489 44.7014 10.7175 44.6649 12.1651C44.6624 12.2694 44.675 12.3749 44.6813 12.4943C44.8999 12.3799 44.8949 12.3799 44.9125 12.1676C45.0419 10.5353 45.1726 8.90294 45.3058 7.27062C45.3649 6.55059 45.4327 5.83057 45.4968 5.11054ZM44.67 13.3727C44.4677 13.5172 44.4966 13.6931 44.4928 13.8564C44.4903 14.0261 44.4865 14.1957 44.489 14.3654C44.4915 14.5224 44.4739 14.6833 44.5405 14.8404C44.6499 14.4433 44.7265 14.0462 44.7818 13.6453C44.7931 13.5674 44.7165 13.4782 44.67 13.3727Z" fill="white"/>
<path d="M63.4573 49.7034C63.3266 49.3842 63.3002 49.0952 63.3329 48.8087C63.3769 48.4204 63.4397 48.0334 63.5226 47.6526C63.7174 46.7579 64.1007 45.9348 64.6033 45.1821C65.204 44.2849 65.7619 43.3525 66.5573 42.5948C66.9544 42.2153 67.2962 41.773 67.6368 41.3395C67.8077 41.1221 67.9823 41.0743 68.2361 41.1409C68.696 41.2616 69.1635 41.2955 69.6398 41.2301C70.0783 41.1698 70.4754 41.0216 70.8298 40.7577C71.0471 40.5956 71.262 40.4297 71.4794 40.2688C71.5573 40.211 71.6415 40.1646 71.7735 40.0791C71.7735 40.2412 71.7822 40.3442 71.7722 40.446C71.6805 41.3822 71.7546 42.2932 72.1957 43.1452C72.2598 43.2696 72.3314 43.3927 72.4206 43.4996C72.6078 43.7232 72.8554 43.815 73.1457 43.7785C73.2248 43.7685 73.304 43.7559 73.3794 43.7458C73.6294 44.197 73.6332 45.7426 73.3806 46.5254C73.3178 46.4689 73.2588 46.4249 73.2097 46.3696C72.8906 46.0153 72.501 45.7778 72.0386 45.6697C71.2092 45.4737 70.3673 45.4058 69.5292 45.5654C68.7451 45.7149 68.0363 46.0354 67.5375 46.7039C67.4922 46.7642 67.4156 46.8031 67.3502 46.8459C67.3176 46.8672 67.2774 46.8798 67.2397 46.8924C65.7569 47.3636 64.6536 48.3575 63.6546 49.4948C63.6018 49.5526 63.5465 49.6091 63.4573 49.7034Z" fill="white"/>
<path d="M60.8386 21.9942C60.8901 21.7692 60.9982 21.6096 61.1817 21.4739C61.82 21.0027 62.2573 20.3706 62.584 19.6569C62.726 19.3478 62.8467 19.0299 62.9862 18.6931C63.0754 18.7094 63.1646 18.7132 63.2437 18.7421C63.6031 18.8728 63.916 18.7785 64.1988 18.5486C64.7604 18.0924 65.1362 17.5069 65.3825 16.8346C65.444 16.6675 65.4553 16.4827 65.488 16.3043C65.5044 16.2176 65.5144 16.1296 65.5383 15.9675C65.586 16.0794 65.6137 16.1233 65.6237 16.1711C65.8323 17.1274 65.9743 18.0849 65.8399 19.0688C65.7532 19.6996 65.6275 20.3166 65.3762 20.9022C65.1525 21.4237 65.0419 21.9741 64.9112 22.5207C64.8949 22.5873 64.8949 22.6602 64.8999 22.7293C64.9778 23.8049 64.8823 24.873 64.8044 25.9461C64.7027 27.351 64.4915 28.7396 64.2955 30.1306C64.2478 30.4686 64.2239 30.8092 64.1874 31.1484C64.1548 31.4513 64.1334 31.5066 63.9751 31.6762C63.9412 31.5267 63.9047 31.3922 63.8821 31.2565C63.8193 30.8745 63.6232 30.5641 63.3694 30.2852C63.2224 30.1243 63.0427 30.0238 62.7977 30.0653C62.7977 29.8755 62.7939 29.7172 62.7977 29.5576C62.8228 28.5712 62.7838 27.5885 62.5752 26.6197C62.5526 26.5116 62.5287 26.4035 62.4973 26.298C62.334 25.7602 62.2096 25.2186 62.1291 24.6581C61.9947 23.7257 61.5712 22.9039 60.9831 22.1701C60.9354 22.1123 60.8851 22.0507 60.8386 21.9942Z" fill="white"/>
<path d="M17.3504 30.2688C17.2876 30.2123 17.231 30.162 17.177 30.1093C16.0687 29.016 15.2745 27.7029 14.5356 26.3495C14.3974 26.0957 14.2114 25.8682 14.0481 25.6295C14.0192 25.588 13.9827 25.5503 13.9639 25.5051C13.6699 24.814 13.2929 24.1568 13.1647 23.399C13.1031 23.0346 12.9636 22.6853 12.8681 22.3259C12.7563 21.9087 12.6394 21.494 12.5527 21.0718C12.4371 20.5013 12.3203 19.9296 12.2574 19.3528C12.1644 18.4996 12.2826 17.669 12.6558 16.8849C12.7764 16.631 12.8832 16.3709 13.0039 16.1158C13.0579 16.0002 13.127 15.8921 13.2476 15.7878C13.2665 15.8695 13.2891 15.9499 13.3042 16.0329C13.4324 16.724 13.5492 17.4176 13.6912 18.105C13.8332 18.7924 14.1323 19.4169 14.5143 20.0012C14.9114 20.6056 15.3122 21.2075 15.7194 21.8057C15.9883 22.2002 16.1893 22.6225 16.2899 23.0912C16.315 23.2093 16.3389 23.3274 16.374 23.443C16.4972 23.8313 16.4884 24.1982 16.3967 24.6104C16.1479 25.7263 16.3087 26.827 16.7196 27.8914C16.756 27.9856 16.7862 28.0824 16.8365 28.1691C17.1946 28.7961 17.2386 29.5086 17.3818 30.1934C17.3831 30.2085 17.3668 30.2286 17.3504 30.2688Z" fill="white"/>
<path d="M74.1548 30.0903C74.2226 29.7586 74.3081 29.4281 74.3521 29.0926C74.4086 28.6754 74.4476 28.2544 74.4652 27.8347C74.5054 26.9212 74.4689 26.0089 74.4212 25.0966C74.4124 24.9194 74.4438 24.736 74.4815 24.56C74.5958 24.0398 74.7215 23.5233 74.8447 23.0056C74.9314 22.6412 75.0759 22.3007 75.2857 21.9878C75.6376 21.4625 75.9768 20.926 76.345 20.412C77.0085 19.4872 77.4006 18.4555 77.5941 17.3409C77.6544 16.9941 77.7084 16.6473 77.7687 16.3004C77.7813 16.2276 77.8102 16.1572 77.8328 16.0818C77.8781 16.1019 77.9032 16.1057 77.9132 16.1195C78.4511 16.8408 78.8318 17.6098 78.8557 18.5447C78.8796 19.4507 78.7489 20.3266 78.5302 21.1961C78.3593 21.8772 78.1834 22.5583 78.0062 23.2381C77.9811 23.3349 77.9422 23.4291 77.8969 23.5183C77.5652 24.1717 77.2359 24.8277 76.8929 25.4748C76.3513 26.4952 75.8147 27.5193 75.2455 28.5233C74.9351 29.07 74.5607 29.5814 74.2164 30.1079C74.1975 30.1029 74.1761 30.0966 74.1548 30.0903Z" fill="white"/>
<path d="M24.7945 14.447C24.9151 14.7335 24.9491 14.9622 24.9214 15.2098C24.8322 16.0127 24.6626 16.7956 24.3245 17.5332C24.1775 17.8524 24.1549 18.1942 24.126 18.5322C24.0518 19.3829 24.1172 20.2198 24.4489 21.0178C24.5369 21.2301 24.645 21.4375 24.7669 21.6322C25.027 22.0444 25.1966 22.1701 25.6553 22.3334C25.6452 22.405 25.6389 22.4829 25.6226 22.5583C25.4077 23.5975 25.3122 24.6443 25.4203 25.7036C25.4328 25.833 25.4429 25.965 25.4756 26.0906C25.6904 26.9137 25.6276 27.7456 25.5635 28.5774C25.5133 29.2346 25.3386 29.8617 25.0835 30.4674C25.0596 30.5226 25.0345 30.5767 25.0056 30.6294C24.9981 30.642 24.9754 30.647 24.9239 30.6734C24.9403 30.4498 24.9541 30.2437 24.9692 30.0389C25.0194 29.3502 24.9654 28.6754 24.7266 28.0208C24.6098 27.7003 24.5168 27.3711 24.4087 27.0469C24.1775 26.3608 23.788 25.789 23.1898 25.3706C22.843 25.1281 22.647 24.7901 22.5301 24.3917C22.2976 23.595 22.2172 22.7845 22.2034 21.9539C22.172 20.1155 22.6834 18.4254 23.4964 16.8069C23.6171 16.5656 23.7691 16.3382 23.9262 16.1183C24.219 15.7061 24.459 15.2676 24.6475 14.8001C24.6864 14.6971 24.7304 14.5978 24.7945 14.447Z" fill="white"/>
<path d="M44.2653 42.7695C45.1161 42.7695 45.9366 42.7695 46.7873 42.7695C46.7986 42.899 46.8125 43.0045 46.8162 43.1101C46.8803 44.8856 46.9343 46.6612 47.0148 48.4355C47.0298 48.7748 46.9193 49.0651 46.82 49.3667C46.7986 49.432 46.722 49.4986 46.6541 49.525C46.487 49.5903 46.3148 49.6557 46.1389 49.6795C45.5546 49.7612 44.9791 49.6896 44.4098 49.5413C44.1975 49.486 44.1196 49.3528 44.0655 49.143C43.8833 48.4355 43.9889 47.7255 44.0216 47.0181C44.0856 45.6647 44.1698 44.3126 44.2452 42.9593C44.2503 42.9002 44.2578 42.8412 44.2653 42.7695Z" fill="white"/>
<path d="M46.8992 22.2933C45.9819 22.2757 45.0508 22.1174 44.0995 22.2958C43.8583 21.9025 43.6924 21.4941 43.6811 21.0279C43.6635 20.2249 43.6396 19.4207 43.6183 18.6177C43.6158 18.5373 43.622 18.4544 43.6044 18.3777C43.519 18.0246 43.6899 17.8185 43.9789 17.6476C44.2629 17.4805 44.5632 17.3838 44.8849 17.3448C45.4554 17.2757 46.0259 17.292 46.5989 17.3373C46.9709 17.3674 47.187 17.6112 47.4333 17.8261C47.4685 17.8562 47.4722 17.9367 47.4697 17.9932C47.4245 18.996 47.3818 19.9987 47.3252 21.0015C47.3164 21.1674 47.2599 21.3345 47.2046 21.4941C47.1166 21.7492 47.0123 21.9992 46.8992 22.2933ZM44.8899 18.4343C44.6612 18.5009 44.6499 18.5009 44.6575 18.6944C44.6876 19.4144 44.7253 20.1357 44.7605 20.8557C44.763 20.906 44.758 20.9651 44.7831 21.0015C44.8196 21.053 44.8811 21.087 44.9327 21.1272C44.9779 21.0694 45.0395 21.0178 45.0621 20.9525C45.0784 20.9035 45.0483 20.8356 45.0319 20.7791C44.8811 20.2224 44.8359 19.6569 44.8862 19.0814C44.9038 18.8753 44.8899 18.6655 44.8899 18.4343Z" fill="white"/>
<path d="M57.1304 14.5563C57.0739 14.6581 57.0236 14.7523 56.9696 14.8428C56.4544 15.7099 56.3011 16.641 56.487 17.6262C56.5637 18.0333 56.6868 18.4266 57.0739 18.7106C56.619 19.1994 56.2144 19.7109 55.9216 20.2964C55.6338 20.8695 55.3611 21.4513 55.0822 22.028C54.8359 21.92 54.7379 21.9225 54.6021 22.1374C54.4438 22.3887 54.3031 22.6614 54.2051 22.9416C54.0053 23.5133 53.9299 24.1127 53.8947 24.7159C53.8884 24.8139 53.8834 24.9107 53.8771 25.0313C53.7389 24.9748 53.7527 24.8604 53.7313 24.7762C53.4498 23.6792 53.3481 22.5608 53.392 21.4324C53.4134 20.882 53.4473 20.3266 53.5391 19.785C53.6157 19.3339 53.7652 18.8903 53.9248 18.4606C54.009 18.2319 54.1648 18.0195 54.3219 17.8285C54.7165 17.3472 55.0985 16.8584 55.4353 16.3319C55.8713 15.6496 56.4556 15.0954 57.0487 14.5526C57.0588 14.545 57.0839 14.5538 57.1304 14.5563Z" fill="white"/>
<path d="M37.2472 23.9495C37.1656 23.6818 37.0889 23.4129 36.9997 23.1478C36.8652 22.7457 36.6855 22.3662 36.4317 22.0244C36.3274 21.8836 36.2156 21.7555 36.0208 21.7555C35.8851 21.7555 35.87 21.6462 35.8273 21.5582C35.625 21.1435 35.4315 20.7238 35.2141 20.3167C34.9301 19.7839 34.5845 19.29 34.1698 18.8477C34.1359 18.8125 34.1083 18.7711 34.0831 18.7384C34.0944 18.7082 34.0957 18.6806 34.1083 18.6731C34.5418 18.4393 34.7026 18.041 34.7642 17.5848C34.8446 16.9842 34.7805 16.4036 34.5079 15.8545C34.298 15.4323 34.0932 15.0076 33.8884 14.5828C33.8494 14.5037 33.8167 14.422 33.7539 14.2812C33.8507 14.3315 33.9034 14.3478 33.9386 14.3793C34.5506 14.9322 35.1047 15.5404 35.6074 16.195C35.6627 16.2667 35.7104 16.3446 35.7532 16.4237C36.012 16.905 36.3412 17.3348 36.722 17.7231C36.9821 17.9895 37.1467 18.3024 37.2485 18.6555C37.4583 19.383 37.5614 20.1219 37.5664 20.8821C37.5727 21.8397 37.5036 22.7871 37.3515 23.7308C37.339 23.8088 37.3126 23.8841 37.2925 23.9608C37.2774 23.957 37.2623 23.9533 37.2472 23.9495Z" fill="white"/>
<path d="M46.7598 49.9106C46.8578 49.981 46.9545 50.0501 47.0651 50.1292C47.0815 50.4283 47.0953 50.7387 47.1141 51.0491C47.1405 51.4901 47.1732 51.9312 47.1933 52.3723C47.1983 52.4891 47.1883 52.616 47.1455 52.7229C46.9621 53.179 46.761 53.6289 46.5713 54.0825C46.5122 54.2257 46.428 54.3062 46.2609 54.3162C45.7168 54.3501 45.1777 54.3238 44.6412 54.2283C44.4464 54.1931 44.317 54.1051 44.2441 53.9129C44.1084 53.556 43.9513 53.2079 43.8131 52.8523C43.7779 52.7618 43.7653 52.6575 43.7691 52.5595C43.7942 51.8269 43.8244 51.0943 43.8596 50.3617C43.8646 50.2562 43.8771 50.1355 43.9312 50.0488C44.0556 49.8528 44.1724 49.8302 44.4175 49.8993C45.1966 50.1217 45.9769 50.187 46.7598 49.9106Z" fill="white"/>
<path d="M45.5484 56.5192C45.1086 55.8532 44.7806 55.1985 44.5255 54.4634C45.1375 54.4998 45.7092 54.535 46.325 54.5714C46.1063 55.2362 45.855 55.8595 45.5484 56.5192Z" fill="white"/>
<path d="M45.2732 1.4476C45.2154 1.15732 45.2443 0.869563 45.2958 0.584316C45.3059 0.529026 45.3385 0.46494 45.3813 0.432269C45.561 0.2953 45.7482 0.167127 45.9857 0C45.9857 0.525257 45.9857 0.980145 45.9857 1.45011C45.7507 1.52299 45.5182 1.53053 45.2732 1.4476Z" fill="white"/>
</svg>
